%TF.GenerationSoftware,KiCad,Pcbnew,9.0.0*%
%TF.CreationDate,2025-03-23T02:15:46-05:00*%
%TF.ProjectId,IOBoardV1,494f426f-6172-4645-9631-2e6b69636164,rev?*%
%TF.SameCoordinates,Original*%
%TF.FileFunction,Copper,L1,Top*%
%TF.FilePolarity,Positive*%
%FSLAX46Y46*%
G04 Gerber Fmt 4.6, Leading zero omitted, Abs format (unit mm)*
G04 Created by KiCad (PCBNEW 9.0.0) date 2025-03-23 02:15:46*
%MOMM*%
%LPD*%
G01*
G04 APERTURE LIST*
%TA.AperFunction,ComponentPad*%
%ADD10C,1.600200*%
%TD*%
%TA.AperFunction,ComponentPad*%
%ADD11R,5.000000X3.000000*%
%TD*%
%TA.AperFunction,SMDPad,CuDef*%
%ADD12R,2.006600X0.863600*%
%TD*%
%TA.AperFunction,ComponentPad*%
%ADD13C,1.574800*%
%TD*%
%TA.AperFunction,ViaPad*%
%ADD14C,0.600000*%
%TD*%
%TA.AperFunction,Conductor*%
%ADD15C,0.200000*%
%TD*%
G04 APERTURE END LIST*
D10*
%TO.P,SW1,1,1*%
%TO.N,/EncoderButton*%
X140144801Y-82545150D03*
%TO.P,SW1,2,2*%
%TO.N,Net-(R6-Pad2)*%
X135144801Y-82545150D03*
%TO.P,SW1,3,channela*%
%TO.N,/EncoderA*%
X140144801Y-68045151D03*
%TO.P,SW1,4,gnd*%
%TO.N,GND*%
X137644801Y-68045151D03*
%TO.P,SW1,5,channelb*%
%TO.N,/EncoderB*%
X135144801Y-68045151D03*
D11*
%TO.P,SW1,6,shield*%
%TO.N,GND*%
X131944800Y-75545151D03*
%TO.P,SW1,7,shield*%
X143344802Y-75545151D03*
%TD*%
D12*
%TO.P,SW4,1,1*%
%TO.N,/Back*%
X119251900Y-52699998D03*
X126948100Y-52699998D03*
%TO.P,SW4,2,2*%
%TO.N,Net-(R16-Pad2)*%
X119251900Y-57200000D03*
X126948100Y-57200000D03*
%TD*%
%TO.P,SW2,2,2*%
%TO.N,Net-(R14-Pad2)*%
X147348100Y-57150001D03*
X139651900Y-57150001D03*
%TO.P,SW2,1,1*%
%TO.N,/Power*%
X147348100Y-52649999D03*
X139651900Y-52649999D03*
%TD*%
%TO.P,SW3,2,2*%
%TO.N,Net-(R15-Pad2)*%
X199600000Y-57200002D03*
X191903800Y-57200002D03*
%TO.P,SW3,1,1*%
%TO.N,/Select*%
X199600000Y-52700000D03*
X191903800Y-52700000D03*
%TD*%
%TO.P,SW5,2,2*%
%TO.N,Net-(R17-Pad2)*%
X181648100Y-67050001D03*
X173951900Y-67050001D03*
%TO.P,SW5,1,1*%
%TO.N,/DPadUp*%
X181648100Y-62549999D03*
X173951900Y-62549999D03*
%TD*%
%TO.P,SW7,2,2*%
%TO.N,Net-(R19-Pad2)*%
X181596200Y-92000002D03*
X173900000Y-92000002D03*
%TO.P,SW7,1,1*%
%TO.N,/DPadDown*%
X181596200Y-87500000D03*
X173900000Y-87500000D03*
%TD*%
%TO.P,SW8,2,2*%
%TO.N,Net-(R20-Pad2)*%
X169148100Y-79450001D03*
X161451900Y-79450001D03*
%TO.P,SW8,1,1*%
%TO.N,/DPadLeft*%
X169148100Y-74949999D03*
X161451900Y-74949999D03*
%TD*%
%TO.P,SW6,2,2*%
%TO.N,Net-(R18-Pad2)*%
X194096200Y-79550003D03*
X186400000Y-79550003D03*
%TO.P,SW6,1,1*%
%TO.N,/DPadRight*%
X194096200Y-75050001D03*
X186400000Y-75050001D03*
%TD*%
D13*
%TO.P,J1,1,Pin_1*%
%TO.N,GND*%
X125500005Y-89700000D03*
%TO.P,J1,2,Pin_2*%
%TO.N,/EncoderButton*%
X128500004Y-89700000D03*
%TO.P,J1,3,Pin_3*%
%TO.N,/EncoderB*%
X131500003Y-89700000D03*
%TO.P,J1,4,Pin_4*%
%TO.N,/EncoderA*%
X134500002Y-89700000D03*
%TO.P,J1,5,Pin_5*%
%TO.N,/DPadLeft*%
X137500001Y-89700000D03*
%TO.P,J1,6,Pin_6*%
%TO.N,/DPadDown*%
X140500000Y-89700000D03*
%TO.P,J1,7,Pin_7*%
%TO.N,/DPadRight*%
X143500000Y-89700000D03*
%TO.P,J1,8,Pin_8*%
%TO.N,/DPadUp*%
X146499999Y-89700000D03*
%TO.P,J1,9,Pin_9*%
%TO.N,/Back*%
X149499998Y-89700000D03*
%TO.P,J1,10,Pin_10*%
%TO.N,/Select*%
X152499997Y-89700000D03*
%TO.P,J1,11,Pin_11*%
%TO.N,/Power*%
X155499996Y-89700000D03*
%TO.P,J1,12,Pin_12*%
%TO.N,+3V3*%
X158499995Y-89700000D03*
%TD*%
D14*
%TO.N,GND*%
X135200000Y-75600000D03*
X140200000Y-75571613D03*
%TO.N,+3V3*%
X129000000Y-52600000D03*
X137687500Y-52600000D03*
%TO.N,Net-(R14-Pad2)*%
X139651900Y-57150001D03*
%TO.N,/Power*%
X139651900Y-52649999D03*
%TO.N,Net-(R19-Pad2)*%
X173900000Y-92000002D03*
%TO.N,+3V3*%
X171887500Y-87400000D03*
%TO.N,Net-(R20-Pad2)*%
X161451900Y-79450001D03*
%TO.N,+3V3*%
X159487500Y-75000000D03*
%TO.N,/DPadLeft*%
X161400950Y-75000950D03*
%TO.N,Net-(R17-Pad2)*%
X173951900Y-67050001D03*
%TO.N,+3V3*%
X184487500Y-75000000D03*
%TO.N,Net-(R18-Pad2)*%
X186400000Y-79550003D03*
%TO.N,/DPadRight*%
X186400000Y-75050001D03*
%TO.N,+3V3*%
X190087500Y-52800000D03*
X172087500Y-62600000D03*
%TO.N,Net-(R15-Pad2)*%
X191903800Y-57200002D03*
%TO.N,/Select*%
X192000000Y-52700000D03*
%TO.N,/DPadUp*%
X173951900Y-62549999D03*
%TO.N,Net-(R16-Pad2)*%
X126948100Y-57200000D03*
%TO.N,/Power*%
X147400000Y-52600000D03*
%TO.N,/Back*%
X126948100Y-52699998D03*
%TO.N,/DPadRight*%
X194200000Y-75200000D03*
%TO.N,/DPadDown*%
X181400000Y-87600000D03*
X173800000Y-87600000D03*
%TO.N,+3V3*%
X144312500Y-84800000D03*
X134512500Y-61400000D03*
X140687500Y-61600000D03*
%TD*%
D15*
%TO.N,/EncoderB*%
X135144801Y-68045151D02*
X134013289Y-68045151D01*
X134013289Y-68045151D02*
X128950835Y-73107605D01*
X128950835Y-73107605D02*
X128950835Y-87150832D01*
X128950835Y-87150832D02*
X131500003Y-89700000D01*
%TO.N,GND*%
X135200000Y-75600000D02*
X134400000Y-75600000D01*
X134400000Y-75600000D02*
X134345151Y-75545151D01*
X134345151Y-75545151D02*
X131944800Y-75545151D01*
X143344802Y-75545151D02*
X140226462Y-75545151D01*
X140226462Y-75545151D02*
X140200000Y-75571613D01*
%TO.N,Net-(R19-Pad2)*%
X181596200Y-92000002D02*
X173900000Y-92000002D01*
%TO.N,/DPadLeft*%
X161400950Y-75000950D02*
X160001899Y-76400000D01*
X161451900Y-74949999D02*
X161400950Y-75000950D01*
X160001899Y-76400000D02*
X150800001Y-76400000D01*
X150800001Y-76400000D02*
X137500001Y-89700000D01*
%TO.N,Net-(R17-Pad2)*%
X173951900Y-67050001D02*
X181648100Y-67050001D01*
%TO.N,/DPadUp*%
X173951900Y-62549999D02*
X181648100Y-62549999D01*
%TO.N,/Select*%
X152499997Y-89700000D02*
X162017196Y-80182801D01*
X162017196Y-80182801D02*
X172217199Y-80182801D01*
X188400000Y-56203800D02*
X191903800Y-52700000D01*
X172217199Y-80182801D02*
X188400000Y-64000000D01*
X188400000Y-64000000D02*
X188400000Y-56203800D01*
X192000000Y-52700000D02*
X199600000Y-52700000D01*
%TO.N,/DPadUp*%
X146499999Y-89700000D02*
X157482798Y-78717201D01*
X157482798Y-78717201D02*
X168482799Y-78717201D01*
X168482799Y-78717201D02*
X172647600Y-74552400D01*
X172647600Y-74552400D02*
X172647600Y-63854299D01*
X172647600Y-63854299D02*
X173951900Y-62549999D01*
%TO.N,/Back*%
X119251900Y-52699998D02*
X126948100Y-52699998D01*
%TO.N,Net-(R16-Pad2)*%
X119251900Y-57200000D02*
X126948100Y-57200000D01*
%TO.N,Net-(R14-Pad2)*%
X139651900Y-57150001D02*
X147348100Y-57150001D01*
%TO.N,/Power*%
X139651900Y-52649999D02*
X147348100Y-52649999D01*
%TO.N,Net-(R20-Pad2)*%
X161451900Y-79450001D02*
X169148100Y-79450001D01*
%TO.N,/Select*%
X191903800Y-52700000D02*
X192000000Y-52700000D01*
%TO.N,Net-(R15-Pad2)*%
X191903800Y-57200002D02*
X199600000Y-57200002D01*
%TO.N,Net-(R18-Pad2)*%
X186400000Y-79550003D02*
X194096200Y-79550003D01*
%TO.N,/DPadRight*%
X194096200Y-75050001D02*
X186400000Y-75050001D01*
%TO.N,/DPadLeft*%
X161451900Y-74949999D02*
X169148100Y-74949999D01*
%TO.N,/EncoderA*%
X140144801Y-68045151D02*
X139043701Y-69146251D01*
X139043701Y-69146251D02*
X139043701Y-85156301D01*
X139043701Y-85156301D02*
X134500002Y-89700000D01*
%TD*%
%TA.AperFunction,Conductor*%
%TO.N,+3V3*%
G36*
X199994545Y-50609913D02*
G01*
X200248444Y-50625273D01*
X200263306Y-50627077D01*
X200509816Y-50672252D01*
X200524341Y-50675833D01*
X200763609Y-50750392D01*
X200777596Y-50755697D01*
X201006134Y-50858555D01*
X201019376Y-50865505D01*
X201233854Y-50995161D01*
X201246165Y-51003659D01*
X201322778Y-51063681D01*
X201443445Y-51158218D01*
X201454653Y-51168148D01*
X201631851Y-51345346D01*
X201641781Y-51356554D01*
X201796336Y-51553828D01*
X201804840Y-51566148D01*
X201930733Y-51774401D01*
X201934490Y-51780615D01*
X201941448Y-51793873D01*
X202044299Y-52022396D01*
X202049609Y-52036397D01*
X202124164Y-52275651D01*
X202127748Y-52290190D01*
X202172921Y-52536691D01*
X202174726Y-52551556D01*
X202190085Y-52805457D01*
X202190311Y-52812853D01*
X202190312Y-52814210D01*
X202190312Y-52882801D01*
X202190327Y-52883050D01*
X202199499Y-91096231D01*
X202199273Y-91103748D01*
X202183915Y-91357635D01*
X202182110Y-91372499D01*
X202136938Y-91618998D01*
X202133354Y-91633538D01*
X202058800Y-91872788D01*
X202053491Y-91886788D01*
X201950638Y-92115319D01*
X201943679Y-92128578D01*
X201814033Y-92343039D01*
X201805527Y-92355362D01*
X201650972Y-92552636D01*
X201641042Y-92563844D01*
X201463844Y-92741042D01*
X201452636Y-92750972D01*
X201255362Y-92905527D01*
X201243039Y-92914033D01*
X201028578Y-93043679D01*
X201015319Y-93050638D01*
X200786788Y-93153491D01*
X200772788Y-93158800D01*
X200533538Y-93233354D01*
X200518998Y-93236938D01*
X200272499Y-93282110D01*
X200257635Y-93283915D01*
X200003736Y-93299274D01*
X199996249Y-93299500D01*
X120403733Y-93299500D01*
X120396246Y-93299274D01*
X120142365Y-93283916D01*
X120127500Y-93282111D01*
X119880995Y-93236937D01*
X119866457Y-93233353D01*
X119627213Y-93158802D01*
X119613212Y-93153493D01*
X119384680Y-93050639D01*
X119371421Y-93043680D01*
X119187178Y-92932302D01*
X119156956Y-92914032D01*
X119144636Y-92905528D01*
X119106433Y-92875598D01*
X118947361Y-92750972D01*
X118936154Y-92741043D01*
X118758956Y-92563845D01*
X118749026Y-92552637D01*
X118735910Y-92535896D01*
X118594467Y-92355357D01*
X118585969Y-92343046D01*
X118456316Y-92128572D01*
X118449363Y-92115326D01*
X118346504Y-91886782D01*
X118341197Y-91872786D01*
X118302848Y-91749719D01*
X121589100Y-91749719D01*
X121624105Y-91925695D01*
X121624108Y-91925705D01*
X121692768Y-92091467D01*
X121692775Y-92091480D01*
X121792458Y-92240665D01*
X121792461Y-92240669D01*
X121919332Y-92367540D01*
X121919336Y-92367543D01*
X122068521Y-92467226D01*
X122068534Y-92467233D01*
X122234296Y-92535893D01*
X122234301Y-92535895D01*
X122234305Y-92535895D01*
X122234306Y-92535896D01*
X122410282Y-92570901D01*
X122410285Y-92570901D01*
X122589719Y-92570901D01*
X122708111Y-92547350D01*
X122765701Y-92535895D01*
X122931474Y-92467230D01*
X123080666Y-92367543D01*
X123207543Y-92240666D01*
X123307230Y-92091474D01*
X123375895Y-91925701D01*
X123410901Y-91749719D01*
X160589098Y-91749719D01*
X160624103Y-91925695D01*
X160624106Y-91925705D01*
X160692766Y-92091467D01*
X160692773Y-92091480D01*
X160792456Y-92240665D01*
X160792459Y-92240669D01*
X160919330Y-92367540D01*
X160919334Y-92367543D01*
X161068519Y-92467226D01*
X161068532Y-92467233D01*
X161234294Y-92535893D01*
X161234299Y-92535895D01*
X161234303Y-92535895D01*
X161234304Y-92535896D01*
X161410280Y-92570901D01*
X161410283Y-92570901D01*
X161589717Y-92570901D01*
X161708109Y-92547350D01*
X161765699Y-92535895D01*
X161931472Y-92467230D01*
X162080664Y-92367543D01*
X162207541Y-92240666D01*
X162307228Y-92091474D01*
X162375893Y-91925701D01*
X162410899Y-91749717D01*
X162410899Y-91570285D01*
X162410899Y-91570282D01*
X162405114Y-91541200D01*
X162400964Y-91520337D01*
X172396200Y-91520337D01*
X172396200Y-92479672D01*
X172396201Y-92479678D01*
X172402608Y-92539285D01*
X172452902Y-92674130D01*
X172452906Y-92674137D01*
X172539152Y-92789346D01*
X172539155Y-92789349D01*
X172654364Y-92875595D01*
X172654371Y-92875599D01*
X172789217Y-92925893D01*
X172789216Y-92925893D01*
X172796144Y-92926637D01*
X172848827Y-92932302D01*
X174951172Y-92932301D01*
X175010783Y-92925893D01*
X175145631Y-92875598D01*
X175260846Y-92789348D01*
X175347096Y-92674133D01*
X175347096Y-92674130D01*
X175351344Y-92666353D01*
X175354340Y-92667988D01*
X175386330Y-92625244D01*
X175451792Y-92600819D01*
X175460653Y-92600502D01*
X180035547Y-92600502D01*
X180102586Y-92620187D01*
X180143317Y-92667193D01*
X180144856Y-92666353D01*
X180149105Y-92674136D01*
X180235352Y-92789346D01*
X180235355Y-92789349D01*
X180350564Y-92875595D01*
X180350571Y-92875599D01*
X180485417Y-92925893D01*
X180485416Y-92925893D01*
X180492344Y-92926637D01*
X180545027Y-92932302D01*
X182647372Y-92932301D01*
X182706983Y-92925893D01*
X182841831Y-92875598D01*
X182957046Y-92789348D01*
X183043296Y-92674133D01*
X183093591Y-92539285D01*
X183100000Y-92479675D01*
X183099999Y-91520330D01*
X183093591Y-91460719D01*
X183070640Y-91399185D01*
X183043297Y-91325873D01*
X183043293Y-91325866D01*
X182957047Y-91210657D01*
X182957044Y-91210654D01*
X182841835Y-91124408D01*
X182841828Y-91124404D01*
X182706982Y-91074110D01*
X182706983Y-91074110D01*
X182647383Y-91067703D01*
X182647381Y-91067702D01*
X182647373Y-91067702D01*
X182647364Y-91067702D01*
X180545029Y-91067702D01*
X180545023Y-91067703D01*
X180485416Y-91074110D01*
X180350571Y-91124404D01*
X180350564Y-91124408D01*
X180235355Y-91210654D01*
X180235352Y-91210657D01*
X180149105Y-91325867D01*
X180144856Y-91333651D01*
X180141859Y-91332015D01*
X180109870Y-91374760D01*
X180044408Y-91399185D01*
X180035547Y-91399502D01*
X175460653Y-91399502D01*
X175393614Y-91379817D01*
X175352882Y-91332810D01*
X175351344Y-91333651D01*
X175347094Y-91325867D01*
X175260847Y-91210657D01*
X175260844Y-91210654D01*
X175145635Y-91124408D01*
X175145628Y-91124404D01*
X175010782Y-91074110D01*
X175010783Y-91074110D01*
X174951183Y-91067703D01*
X174951181Y-91067702D01*
X174951173Y-91067702D01*
X174951164Y-91067702D01*
X172848829Y-91067702D01*
X172848823Y-91067703D01*
X172789216Y-91074110D01*
X172654371Y-91124404D01*
X172654364Y-91124408D01*
X172539155Y-91210654D01*
X172539152Y-91210657D01*
X172452906Y-91325866D01*
X172452902Y-91325873D01*
X172402608Y-91460719D01*
X172396201Y-91520318D01*
X172396201Y-91520325D01*
X172396200Y-91520337D01*
X162400964Y-91520337D01*
X162375894Y-91394306D01*
X162375893Y-91394305D01*
X162375893Y-91394301D01*
X162367799Y-91374760D01*
X162307231Y-91228534D01*
X162307224Y-91228521D01*
X162207541Y-91079336D01*
X162207538Y-91079332D01*
X162080667Y-90952461D01*
X162080663Y-90952458D01*
X161931478Y-90852775D01*
X161931465Y-90852768D01*
X161765703Y-90784108D01*
X161765693Y-90784105D01*
X161589717Y-90749101D01*
X161589715Y-90749101D01*
X161410283Y-90749101D01*
X161410281Y-90749101D01*
X161234304Y-90784105D01*
X161234294Y-90784108D01*
X161068532Y-90852768D01*
X161068519Y-90852775D01*
X160919334Y-90952458D01*
X160919330Y-90952461D01*
X160792459Y-91079332D01*
X160792456Y-91079336D01*
X160692773Y-91228521D01*
X160692766Y-91228534D01*
X160624106Y-91394296D01*
X160624103Y-91394306D01*
X160589099Y-91570282D01*
X160589099Y-91570285D01*
X160589099Y-91749717D01*
X160589099Y-91749719D01*
X160589098Y-91749719D01*
X123410901Y-91749719D01*
X123410901Y-91749717D01*
X123410901Y-91570285D01*
X123410901Y-91570282D01*
X123375896Y-91394306D01*
X123375895Y-91394305D01*
X123375895Y-91394301D01*
X123367801Y-91374760D01*
X123307233Y-91228534D01*
X123307226Y-91228521D01*
X123207543Y-91079336D01*
X123207540Y-91079332D01*
X123080669Y-90952461D01*
X123080665Y-90952458D01*
X122931480Y-90852775D01*
X122931467Y-90852768D01*
X122765705Y-90784108D01*
X122765695Y-90784105D01*
X122589719Y-90749101D01*
X122589717Y-90749101D01*
X122410285Y-90749101D01*
X122410283Y-90749101D01*
X122234306Y-90784105D01*
X122234296Y-90784108D01*
X122068534Y-90852768D01*
X122068521Y-90852775D01*
X121919336Y-90952458D01*
X121919332Y-90952461D01*
X121792461Y-91079332D01*
X121792458Y-91079336D01*
X121692775Y-91228521D01*
X121692768Y-91228534D01*
X121624108Y-91394296D01*
X121624105Y-91394306D01*
X121589101Y-91570282D01*
X121589101Y-91570285D01*
X121589101Y-91749717D01*
X121589101Y-91749719D01*
X121589100Y-91749719D01*
X118302848Y-91749719D01*
X118302847Y-91749717D01*
X118266645Y-91633538D01*
X118263062Y-91619002D01*
X118257114Y-91586543D01*
X118217888Y-91372499D01*
X118216083Y-91357635D01*
X118214162Y-91325873D01*
X118200724Y-91103735D01*
X118200499Y-91096276D01*
X118200858Y-89598640D01*
X124212105Y-89598640D01*
X124212105Y-89801359D01*
X124243798Y-90001463D01*
X124243818Y-90001584D01*
X124306462Y-90194382D01*
X124398365Y-90374751D01*
X124398497Y-90375009D01*
X124517644Y-90539004D01*
X124661000Y-90682360D01*
X124801047Y-90784108D01*
X124824999Y-90801510D01*
X125005623Y-90893543D01*
X125198421Y-90956187D01*
X125398645Y-90987900D01*
X125398646Y-90987900D01*
X125601364Y-90987900D01*
X125601365Y-90987900D01*
X125801589Y-90956187D01*
X125994387Y-90893543D01*
X126175011Y-90801510D01*
X126267090Y-90734610D01*
X126339009Y-90682360D01*
X126339011Y-90682357D01*
X126339015Y-90682355D01*
X126482360Y-90539010D01*
X126482362Y-90539006D01*
X126482365Y-90539004D01*
X126571078Y-90416899D01*
X126601515Y-90375006D01*
X126693548Y-90194382D01*
X126756192Y-90001584D01*
X126787905Y-89801360D01*
X126787905Y-89598640D01*
X127212104Y-89598640D01*
X127212104Y-89801359D01*
X127243797Y-90001463D01*
X127243817Y-90001584D01*
X127306461Y-90194382D01*
X127398364Y-90374751D01*
X127398496Y-90375009D01*
X127517643Y-90539004D01*
X127660999Y-90682360D01*
X127801046Y-90784108D01*
X127824998Y-90801510D01*
X128005622Y-90893543D01*
X128198420Y-90956187D01*
X128398644Y-90987900D01*
X128398645Y-90987900D01*
X128601363Y-90987900D01*
X128601364Y-90987900D01*
X128801588Y-90956187D01*
X128994386Y-90893543D01*
X129175010Y-90801510D01*
X129267089Y-90734610D01*
X129339008Y-90682360D01*
X129339010Y-90682357D01*
X129339014Y-90682355D01*
X129482359Y-90539010D01*
X129482361Y-90539006D01*
X129482364Y-90539004D01*
X129571077Y-90416899D01*
X129601514Y-90375006D01*
X129693547Y-90194382D01*
X129756191Y-90001584D01*
X129787904Y-89801360D01*
X129787904Y-89598640D01*
X129756191Y-89398416D01*
X129693547Y-89205618D01*
X129601514Y-89024994D01*
X129571075Y-88983098D01*
X129533282Y-88931079D01*
X129509802Y-88865273D01*
X129525628Y-88797219D01*
X129575734Y-88748524D01*
X129644212Y-88734649D01*
X129709321Y-88759998D01*
X129721281Y-88770513D01*
X130215924Y-89265156D01*
X130249409Y-89326479D01*
X130246177Y-89391147D01*
X130243815Y-89398415D01*
X130212103Y-89598640D01*
X130212103Y-89801359D01*
X130243796Y-90001463D01*
X130243816Y-90001584D01*
X130306460Y-90194382D01*
X130398363Y-90374751D01*
X130398495Y-90375009D01*
X130517642Y-90539004D01*
X130660998Y-90682360D01*
X130801045Y-90784108D01*
X130824997Y-90801510D01*
X131005621Y-90893543D01*
X131198419Y-90956187D01*
X131398643Y-90987900D01*
X131398644Y-90987900D01*
X131601362Y-90987900D01*
X131601363Y-90987900D01*
X131801587Y-90956187D01*
X131994385Y-90893543D01*
X132175009Y-90801510D01*
X132267088Y-90734610D01*
X132339007Y-90682360D01*
X132339009Y-90682357D01*
X132339013Y-90682355D01*
X132482358Y-90539010D01*
X132482360Y-90539006D01*
X132482363Y-90539004D01*
X132571076Y-90416899D01*
X132601513Y-90375006D01*
X132693546Y-90194382D01*
X132756190Y-90001584D01*
X132787903Y-89801360D01*
X132787903Y-89598640D01*
X132756190Y-89398416D01*
X132693546Y-89205618D01*
X132601513Y-89024994D01*
X132571074Y-88983098D01*
X132482363Y-88860995D01*
X132339007Y-88717639D01*
X132175012Y-88598492D01*
X132175011Y-88598491D01*
X132175009Y-88598490D01*
X131994385Y-88506457D01*
X131801587Y-88443813D01*
X131801585Y-88443812D01*
X131801583Y-88443812D01*
X131625487Y-88415921D01*
X131601363Y-88412100D01*
X131398643Y-88412100D01*
X131374559Y-88415914D01*
X131198418Y-88443812D01*
X131191150Y-88446174D01*
X131121309Y-88448164D01*
X131065159Y-88415921D01*
X129587654Y-86938416D01*
X129554169Y-86877093D01*
X129551335Y-86850735D01*
X129551335Y-82442785D01*
X133844201Y-82442785D01*
X133844201Y-82647514D01*
X133876226Y-82849709D01*
X133939485Y-83044404D01*
X133939486Y-83044407D01*
X134032428Y-83226813D01*
X134152759Y-83392434D01*
X134297517Y-83537192D01*
X134463138Y-83657523D01*
X134552602Y-83703107D01*
X134645543Y-83750464D01*
X134645546Y-83750465D01*
X134742893Y-83782094D01*
X134840243Y-83813725D01*
X134933890Y-83828557D01*
X135042437Y-83845750D01*
X135042442Y-83845750D01*
X135247165Y-83845750D01*
X135345186Y-83830224D01*
X135449359Y-83813725D01*
X135644058Y-83750464D01*
X135826464Y-83657523D01*
X135992085Y-83537192D01*
X136136843Y-83392434D01*
X136257174Y-83226813D01*
X136350115Y-83044407D01*
X136413376Y-82849708D01*
X136429875Y-82745535D01*
X136445401Y-82647514D01*
X136445401Y-82442785D01*
X136426770Y-82325158D01*
X136413376Y-82240592D01*
X136350115Y-82045893D01*
X136350115Y-82045892D01*
X136257173Y-81863486D01*
X136136843Y-81697866D01*
X135992085Y-81553108D01*
X135826464Y-81432777D01*
X135644058Y-81339835D01*
X135644055Y-81339834D01*
X135449360Y-81276575D01*
X135247165Y-81244550D01*
X135247160Y-81244550D01*
X135042442Y-81244550D01*
X135042437Y-81244550D01*
X134840241Y-81276575D01*
X134645546Y-81339834D01*
X134645543Y-81339835D01*
X134463137Y-81432777D01*
X134368644Y-81501430D01*
X134297517Y-81553108D01*
X134297515Y-81553110D01*
X134297514Y-81553110D01*
X134152761Y-81697863D01*
X134152761Y-81697864D01*
X134152759Y-81697866D01*
X134101081Y-81768993D01*
X134032428Y-81863486D01*
X133939486Y-82045892D01*
X133939485Y-82045895D01*
X133876226Y-82240590D01*
X133844201Y-82442785D01*
X129551335Y-82442785D01*
X129551335Y-77669650D01*
X129571020Y-77602611D01*
X129623824Y-77556856D01*
X129675335Y-77545650D01*
X134492671Y-77545650D01*
X134492672Y-77545650D01*
X134552283Y-77539242D01*
X134687131Y-77488947D01*
X134802346Y-77402697D01*
X134888596Y-77287482D01*
X134938891Y-77152634D01*
X134945300Y-77093024D01*
X134945299Y-76516613D01*
X134964983Y-76449575D01*
X135017787Y-76403820D01*
X135086946Y-76393876D01*
X135093491Y-76394997D01*
X135121155Y-76400500D01*
X135121158Y-76400500D01*
X135278844Y-76400500D01*
X135278845Y-76400499D01*
X135433497Y-76369737D01*
X135579179Y-76309394D01*
X135710289Y-76221789D01*
X135821789Y-76110289D01*
X135909394Y-75979179D01*
X135969737Y-75833497D01*
X136000500Y-75678842D01*
X136000500Y-75521158D01*
X136000500Y-75521155D01*
X136000499Y-75521153D01*
X135982302Y-75429671D01*
X135969737Y-75366503D01*
X135969735Y-75366498D01*
X135909397Y-75220827D01*
X135909390Y-75220814D01*
X135821789Y-75089711D01*
X135821786Y-75089707D01*
X135710292Y-74978213D01*
X135710288Y-74978210D01*
X135579185Y-74890609D01*
X135579172Y-74890602D01*
X135433501Y-74830264D01*
X135433489Y-74830261D01*
X135278845Y-74799500D01*
X135278842Y-74799500D01*
X135121158Y-74799500D01*
X135121156Y-74799500D01*
X135093487Y-74805003D01*
X135023896Y-74798774D01*
X134968720Y-74755909D01*
X134945477Y-74690019D01*
X134945299Y-74683385D01*
X134945299Y-73997280D01*
X134945298Y-73997274D01*
X134945297Y-73997267D01*
X134938891Y-73937668D01*
X134888596Y-73802820D01*
X134888595Y-73802819D01*
X134888593Y-73802815D01*
X134802347Y-73687606D01*
X134802344Y-73687603D01*
X134687135Y-73601357D01*
X134687128Y-73601353D01*
X134552282Y-73551059D01*
X134552283Y-73551059D01*
X134492683Y-73544652D01*
X134492681Y-73544651D01*
X134492673Y-73544651D01*
X134492665Y-73544651D01*
X129675335Y-73544651D01*
X129666649Y-73542100D01*
X129657688Y-73543389D01*
X129633647Y-73532410D01*
X129608296Y-73524966D01*
X129602368Y-73518125D01*
X129594132Y-73514364D01*
X129579842Y-73492129D01*
X129562541Y-73472162D01*
X129560253Y-73461647D01*
X129556358Y-73455586D01*
X129551335Y-73420651D01*
X129551335Y-73407701D01*
X129571020Y-73340662D01*
X129587649Y-73320025D01*
X133996318Y-68911355D01*
X134057641Y-68877871D01*
X134127333Y-68882855D01*
X134171680Y-68911356D01*
X134297517Y-69037193D01*
X134463138Y-69157524D01*
X134526697Y-69189909D01*
X134645543Y-69250465D01*
X134645546Y-69250466D01*
X134742893Y-69282095D01*
X134840243Y-69313726D01*
X134933890Y-69328558D01*
X135042437Y-69345751D01*
X135042442Y-69345751D01*
X135247165Y-69345751D01*
X135345186Y-69330225D01*
X135449359Y-69313726D01*
X135644058Y-69250465D01*
X135826464Y-69157524D01*
X135992085Y-69037193D01*
X136136843Y-68892435D01*
X136257174Y-68726814D01*
X136284316Y-68673544D01*
X136332291Y-68622749D01*
X136400112Y-68605954D01*
X136466247Y-68628492D01*
X136505285Y-68673544D01*
X136532428Y-68726814D01*
X136652759Y-68892435D01*
X136797517Y-69037193D01*
X136963138Y-69157524D01*
X137026697Y-69189909D01*
X137145543Y-69250465D01*
X137145546Y-69250466D01*
X137242893Y-69282095D01*
X137340243Y-69313726D01*
X137433890Y-69328558D01*
X137542437Y-69345751D01*
X137542442Y-69345751D01*
X137747165Y-69345751D01*
X137845186Y-69330225D01*
X137949359Y-69313726D01*
X138144058Y-69250465D01*
X138144058Y-69250464D01*
X138144063Y-69250463D01*
X138262905Y-69189909D01*
X138331575Y-69177012D01*
X138396315Y-69203288D01*
X138436573Y-69260394D01*
X138443201Y-69300393D01*
X138443201Y-84856203D01*
X138423516Y-84923242D01*
X138406882Y-84943884D01*
X134934844Y-88415921D01*
X134873521Y-88449406D01*
X134808853Y-88446174D01*
X134805928Y-88445224D01*
X134801586Y-88443813D01*
X134801584Y-88443812D01*
X134801582Y-88443812D01*
X134625486Y-88415921D01*
X134601362Y-88412100D01*
X134398642Y-88412100D01*
X134374518Y-88415921D01*
X134198421Y-88443812D01*
X134005617Y-88506458D01*
X133824992Y-88598492D01*
X133660997Y-88717639D01*
X133517641Y-88860995D01*
X133398494Y-89024990D01*
X133306460Y-89205615D01*
X133243814Y-89398419D01*
X133212102Y-89598640D01*
X133212102Y-89801359D01*
X133243795Y-90001463D01*
X133243815Y-90001584D01*
X133306459Y-90194382D01*
X133398362Y-90374751D01*
X133398494Y-90375009D01*
X133517641Y-90539004D01*
X133660997Y-90682360D01*
X133801044Y-90784108D01*
X133824996Y-90801510D01*
X134005620Y-90893543D01*
X134198418Y-90956187D01*
X134398642Y-90987900D01*
X134398643Y-90987900D01*
X134601361Y-90987900D01*
X134601362Y-90987900D01*
X134801586Y-90956187D01*
X134994384Y-90893543D01*
X135175008Y-90801510D01*
X135267087Y-90734610D01*
X135339006Y-90682360D01*
X135339008Y-90682357D01*
X135339012Y-90682355D01*
X135482357Y-90539010D01*
X135482359Y-90539006D01*
X135482362Y-90539004D01*
X135571075Y-90416899D01*
X135601512Y-90375006D01*
X135693545Y-90194382D01*
X135756189Y-90001584D01*
X135787902Y-89801360D01*
X135787902Y-89598640D01*
X135756189Y-89398416D01*
X135753829Y-89391155D01*
X135751833Y-89321318D01*
X135784077Y-89265158D01*
X136278727Y-88770508D01*
X136340048Y-88737025D01*
X136409740Y-88742009D01*
X136465673Y-88783881D01*
X136490090Y-88849345D01*
X136475238Y-88917618D01*
X136466725Y-88931075D01*
X136398492Y-89024991D01*
X136306459Y-89205615D01*
X136243813Y-89398419D01*
X136212101Y-89598640D01*
X136212101Y-89801359D01*
X136243794Y-90001463D01*
X136243814Y-90001584D01*
X136306458Y-90194382D01*
X136398361Y-90374751D01*
X136398493Y-90375009D01*
X136517640Y-90539004D01*
X136660996Y-90682360D01*
X136801043Y-90784108D01*
X136824995Y-90801510D01*
X137005619Y-90893543D01*
X137198417Y-90956187D01*
X137398641Y-90987900D01*
X137398642Y-90987900D01*
X137601360Y-90987900D01*
X137601361Y-90987900D01*
X137801585Y-90956187D01*
X137994383Y-90893543D01*
X138175007Y-90801510D01*
X138267086Y-90734610D01*
X138339005Y-90682360D01*
X138339007Y-90682357D01*
X138339011Y-90682355D01*
X138482356Y-90539010D01*
X138482358Y-90539006D01*
X138482361Y-90539004D01*
X138571074Y-90416899D01*
X138601511Y-90375006D01*
X138693544Y-90194382D01*
X138756188Y-90001584D01*
X138787901Y-89801360D01*
X138787901Y-89598640D01*
X138756188Y-89398416D01*
X138753828Y-89391155D01*
X138751832Y-89321318D01*
X138784076Y-89265158D01*
X139278725Y-88770509D01*
X139340048Y-88737025D01*
X139409740Y-88742009D01*
X139465673Y-88783881D01*
X139490090Y-88849345D01*
X139475238Y-88917618D01*
X139466724Y-88931076D01*
X139398492Y-89024990D01*
X139306458Y-89205615D01*
X139243812Y-89398419D01*
X139212100Y-89598640D01*
X139212100Y-89801359D01*
X139243793Y-90001463D01*
X139243813Y-90001584D01*
X139306457Y-90194382D01*
X139398360Y-90374751D01*
X139398492Y-90375009D01*
X139517639Y-90539004D01*
X139660995Y-90682360D01*
X139801042Y-90784108D01*
X139824994Y-90801510D01*
X140005618Y-90893543D01*
X140198416Y-90956187D01*
X140398640Y-90987900D01*
X140398641Y-90987900D01*
X140601359Y-90987900D01*
X140601360Y-90987900D01*
X140801584Y-90956187D01*
X140994382Y-90893543D01*
X141175006Y-90801510D01*
X141267085Y-90734610D01*
X141339004Y-90682360D01*
X141339006Y-90682357D01*
X141339010Y-90682355D01*
X141482355Y-90539010D01*
X141482357Y-90539006D01*
X141482360Y-90539004D01*
X141571073Y-90416899D01*
X141601510Y-90375006D01*
X141693543Y-90194382D01*
X141756187Y-90001584D01*
X141787900Y-89801360D01*
X141787900Y-89598640D01*
X142212100Y-89598640D01*
X142212100Y-89801359D01*
X142243793Y-90001463D01*
X142243813Y-90001584D01*
X142306457Y-90194382D01*
X142398360Y-90374751D01*
X142398492Y-90375009D01*
X142517639Y-90539004D01*
X142660995Y-90682360D01*
X142801042Y-90784108D01*
X142824994Y-90801510D01*
X143005618Y-90893543D01*
X143198416Y-90956187D01*
X143398640Y-90987900D01*
X143398641Y-90987900D01*
X143601359Y-90987900D01*
X143601360Y-90987900D01*
X143801584Y-90956187D01*
X143994382Y-90893543D01*
X144175006Y-90801510D01*
X144267085Y-90734610D01*
X144339004Y-90682360D01*
X144339006Y-90682357D01*
X144339010Y-90682355D01*
X144482355Y-90539010D01*
X144482357Y-90539006D01*
X144482360Y-90539004D01*
X144571073Y-90416899D01*
X144601510Y-90375006D01*
X144693543Y-90194382D01*
X144756187Y-90001584D01*
X144787900Y-89801360D01*
X144787900Y-89598640D01*
X144756187Y-89398416D01*
X144693543Y-89205618D01*
X144601510Y-89024994D01*
X144571071Y-88983098D01*
X144482360Y-88860995D01*
X144339004Y-88717639D01*
X144175009Y-88598492D01*
X144175008Y-88598491D01*
X144175006Y-88598490D01*
X143994382Y-88506457D01*
X143801584Y-88443813D01*
X143801582Y-88443812D01*
X143801580Y-88443812D01*
X143625484Y-88415921D01*
X143601360Y-88412100D01*
X143398640Y-88412100D01*
X143374516Y-88415921D01*
X143198419Y-88443812D01*
X143005615Y-88506458D01*
X142824990Y-88598492D01*
X142660995Y-88717639D01*
X142517639Y-88860995D01*
X142398492Y-89024990D01*
X142306458Y-89205615D01*
X142243812Y-89398419D01*
X142212100Y-89598640D01*
X141787900Y-89598640D01*
X141756187Y-89398416D01*
X141693543Y-89205618D01*
X141601510Y-89024994D01*
X141571071Y-88983098D01*
X141482360Y-88860995D01*
X141339004Y-88717639D01*
X141175009Y-88598492D01*
X141175008Y-88598491D01*
X141175006Y-88598490D01*
X140994382Y-88506457D01*
X140801584Y-88443813D01*
X140801582Y-88443812D01*
X140801580Y-88443812D01*
X140625484Y-88415921D01*
X140601360Y-88412100D01*
X140398640Y-88412100D01*
X140374516Y-88415921D01*
X140198419Y-88443812D01*
X140005615Y-88506458D01*
X139824991Y-88598491D01*
X139731075Y-88666724D01*
X139665269Y-88690203D01*
X139597215Y-88674377D01*
X139548521Y-88624270D01*
X139534646Y-88555792D01*
X139559996Y-88490684D01*
X139570502Y-88478732D01*
X151012417Y-77036819D01*
X151073740Y-77003334D01*
X151100098Y-77000500D01*
X159915229Y-77000500D01*
X159915245Y-77000501D01*
X159922841Y-77000501D01*
X160080954Y-77000501D01*
X160080956Y-77000501D01*
X160233683Y-76959577D01*
X160370615Y-76880520D01*
X160482419Y-76768716D01*
X160482419Y-76768714D01*
X160492623Y-76758511D01*
X160492626Y-76758506D01*
X161332517Y-75918617D01*
X161393840Y-75885132D01*
X161420198Y-75882298D01*
X162503071Y-75882298D01*
X162503072Y-75882298D01*
X162562683Y-75875890D01*
X162697531Y-75825595D01*
X162812746Y-75739345D01*
X162879255Y-75650501D01*
X162898994Y-75624133D01*
X162903244Y-75616350D01*
X162906240Y-75617985D01*
X162938230Y-75575241D01*
X163003692Y-75550816D01*
X163012553Y-75550499D01*
X167587447Y-75550499D01*
X167654486Y-75570184D01*
X167695217Y-75617190D01*
X167696756Y-75616350D01*
X167701005Y-75624133D01*
X167787252Y-75739343D01*
X167787255Y-75739346D01*
X167902464Y-75825592D01*
X167902471Y-75825596D01*
X168037317Y-75875890D01*
X168037316Y-75875890D01*
X168044244Y-75876634D01*
X168096927Y-75882299D01*
X170169104Y-75882298D01*
X170236143Y-75901983D01*
X170281898Y-75954786D01*
X170291842Y-76023945D01*
X170262817Y-76087501D01*
X170256785Y-76093979D01*
X168270383Y-78080382D01*
X168209060Y-78113867D01*
X168182702Y-78116701D01*
X157561855Y-78116701D01*
X157403740Y-78116701D01*
X157251013Y-78157624D01*
X157251012Y-78157624D01*
X157251010Y-78157625D01*
X157251007Y-78157626D01*
X157200894Y-78186560D01*
X157200893Y-78186561D01*
X157157487Y-78211621D01*
X157114083Y-78236680D01*
X157114080Y-78236682D01*
X157002276Y-78348487D01*
X146934841Y-88415921D01*
X146873518Y-88449406D01*
X146808850Y-88446174D01*
X146805925Y-88445224D01*
X146801583Y-88443813D01*
X146801581Y-88443812D01*
X146801579Y-88443812D01*
X146625483Y-88415921D01*
X146601359Y-88412100D01*
X146398639Y-88412100D01*
X146374515Y-88415921D01*
X146198418Y-88443812D01*
X146005614Y-88506458D01*
X145824989Y-88598492D01*
X145660994Y-88717639D01*
X145517638Y-88860995D01*
X145398491Y-89024990D01*
X145306457Y-89205615D01*
X145243811Y-89398419D01*
X145212099Y-89598640D01*
X145212099Y-89801359D01*
X145243792Y-90001463D01*
X145243812Y-90001584D01*
X145306456Y-90194382D01*
X145398359Y-90374751D01*
X145398491Y-90375009D01*
X145517638Y-90539004D01*
X145660994Y-90682360D01*
X145801041Y-90784108D01*
X145824993Y-90801510D01*
X146005617Y-90893543D01*
X146198415Y-90956187D01*
X146398639Y-90987900D01*
X146398640Y-90987900D01*
X146601358Y-90987900D01*
X146601359Y-90987900D01*
X146801583Y-90956187D01*
X146994381Y-90893543D01*
X147175005Y-90801510D01*
X147267084Y-90734610D01*
X147339003Y-90682360D01*
X147339005Y-90682357D01*
X147339009Y-90682355D01*
X147482354Y-90539010D01*
X147482356Y-90539006D01*
X147482359Y-90539004D01*
X147571072Y-90416899D01*
X147601509Y-90375006D01*
X147693542Y-90194382D01*
X147756186Y-90001584D01*
X147787899Y-89801360D01*
X147787899Y-89598640D01*
X147756186Y-89398416D01*
X147753826Y-89391155D01*
X147751830Y-89321318D01*
X147784074Y-89265158D01*
X148278724Y-88770508D01*
X148340045Y-88737025D01*
X148409737Y-88742009D01*
X148465670Y-88783881D01*
X148490087Y-88849345D01*
X148475235Y-88917618D01*
X148466722Y-88931075D01*
X148398489Y-89024991D01*
X148306456Y-89205615D01*
X148243810Y-89398419D01*
X148212098Y-89598640D01*
X148212098Y-89801359D01*
X148243791Y-90001463D01*
X148243811Y-90001584D01*
X148306455Y-90194382D01*
X148398358Y-90374751D01*
X148398490Y-90375009D01*
X148517637Y-90539004D01*
X148660993Y-90682360D01*
X148801040Y-90784108D01*
X148824992Y-90801510D01*
X149005616Y-90893543D01*
X149198414Y-90956187D01*
X149398638Y-90987900D01*
X149398639Y-90987900D01*
X149601357Y-90987900D01*
X149601358Y-90987900D01*
X149801582Y-90956187D01*
X149994380Y-90893543D01*
X150175004Y-90801510D01*
X150267083Y-90734610D01*
X150339002Y-90682360D01*
X150339004Y-90682357D01*
X150339008Y-90682355D01*
X150482353Y-90539010D01*
X150482355Y-90539006D01*
X150482358Y-90539004D01*
X150571071Y-90416899D01*
X150601508Y-90375006D01*
X150693541Y-90194382D01*
X150756185Y-90001584D01*
X150787898Y-89801360D01*
X150787898Y-89598640D01*
X150756185Y-89398416D01*
X150693541Y-89205618D01*
X150601508Y-89024994D01*
X150571069Y-88983098D01*
X150482358Y-88860995D01*
X150339002Y-88717639D01*
X150175007Y-88598492D01*
X150175006Y-88598491D01*
X150175004Y-88598490D01*
X149994380Y-88506457D01*
X149801582Y-88443813D01*
X149801580Y-88443812D01*
X149801578Y-88443812D01*
X149625482Y-88415921D01*
X149601358Y-88412100D01*
X149398638Y-88412100D01*
X149374514Y-88415921D01*
X149198417Y-88443812D01*
X149005613Y-88506458D01*
X148824989Y-88598491D01*
X148731073Y-88666724D01*
X148665267Y-88690203D01*
X148597213Y-88674377D01*
X148548519Y-88624270D01*
X148534644Y-88555792D01*
X148559994Y-88490684D01*
X148570500Y-88478732D01*
X157695214Y-79354020D01*
X157756537Y-79320535D01*
X157782895Y-79317701D01*
X159824100Y-79317701D01*
X159891139Y-79337386D01*
X159936894Y-79390190D01*
X159948100Y-79441701D01*
X159948100Y-79929671D01*
X159948101Y-79929677D01*
X159954508Y-79989284D01*
X160004802Y-80124129D01*
X160004806Y-80124136D01*
X160091052Y-80239345D01*
X160091055Y-80239348D01*
X160206264Y-80325594D01*
X160206271Y-80325598D01*
X160243135Y-80339347D01*
X160341117Y-80375892D01*
X160400727Y-80382301D01*
X160669099Y-80382300D01*
X160736137Y-80401984D01*
X160781892Y-80454788D01*
X160791836Y-80523947D01*
X160762811Y-80587502D01*
X160756779Y-80593981D01*
X152934839Y-88415921D01*
X152873516Y-88449406D01*
X152808848Y-88446174D01*
X152805923Y-88445224D01*
X152801581Y-88443813D01*
X152801579Y-88443812D01*
X152801577Y-88443812D01*
X152625481Y-88415921D01*
X152601357Y-88412100D01*
X152398637Y-88412100D01*
X152374513Y-88415921D01*
X152198416Y-88443812D01*
X152005612Y-88506458D01*
X151824987Y-88598492D01*
X151660992Y-88717639D01*
X151517636Y-88860995D01*
X151398489Y-89024990D01*
X151306455Y-89205615D01*
X151243809Y-89398419D01*
X151212097Y-89598640D01*
X151212097Y-89801359D01*
X151243790Y-90001463D01*
X151243810Y-90001584D01*
X151306454Y-90194382D01*
X151398357Y-90374751D01*
X151398489Y-90375009D01*
X151517636Y-90539004D01*
X151660992Y-90682360D01*
X151801039Y-90784108D01*
X151824991Y-90801510D01*
X152005615Y-90893543D01*
X152198413Y-90956187D01*
X152398637Y-90987900D01*
X152398638Y-90987900D01*
X152601356Y-90987900D01*
X152601357Y-90987900D01*
X152801581Y-90956187D01*
X152994379Y-90893543D01*
X153175003Y-90801510D01*
X153267082Y-90734610D01*
X153339001Y-90682360D01*
X153339003Y-90682357D01*
X153339007Y-90682355D01*
X153482352Y-90539010D01*
X153482354Y-90539006D01*
X153482357Y-90539004D01*
X153571070Y-90416899D01*
X153601507Y-90375006D01*
X153693540Y-90194382D01*
X153756184Y-90001584D01*
X153787897Y-89801360D01*
X153787897Y-89598640D01*
X153756184Y-89398416D01*
X153753824Y-89391155D01*
X153751828Y-89321318D01*
X153784072Y-89265158D01*
X154278722Y-88770508D01*
X154340043Y-88737025D01*
X154409735Y-88742009D01*
X154465668Y-88783881D01*
X154490085Y-88849345D01*
X154475233Y-88917618D01*
X154466720Y-88931075D01*
X154398487Y-89024991D01*
X154306454Y-89205615D01*
X154243808Y-89398419D01*
X154212096Y-89598640D01*
X154212096Y-89801359D01*
X154243789Y-90001463D01*
X154243809Y-90001584D01*
X154306453Y-90194382D01*
X154398356Y-90374751D01*
X154398488Y-90375009D01*
X154517635Y-90539004D01*
X154660991Y-90682360D01*
X154801038Y-90784108D01*
X154824990Y-90801510D01*
X155005614Y-90893543D01*
X155198412Y-90956187D01*
X155398636Y-90987900D01*
X155398637Y-90987900D01*
X155601355Y-90987900D01*
X155601356Y-90987900D01*
X155801580Y-90956187D01*
X155994378Y-90893543D01*
X156175002Y-90801510D01*
X156267081Y-90734610D01*
X156339000Y-90682360D01*
X156339002Y-90682357D01*
X156339006Y-90682355D01*
X156482351Y-90539010D01*
X156482353Y-90539006D01*
X156482356Y-90539004D01*
X156571069Y-90416899D01*
X156601506Y-90375006D01*
X156693539Y-90194382D01*
X156756183Y-90001584D01*
X156787896Y-89801360D01*
X156787896Y-89598679D01*
X157212595Y-89598679D01*
X157212595Y-89801320D01*
X157244294Y-90001463D01*
X157306916Y-90194192D01*
X157398911Y-90374744D01*
X157429540Y-90416899D01*
X157429541Y-90416900D01*
X157989760Y-89856680D01*
X158002945Y-89905885D01*
X158073169Y-90027515D01*
X158172480Y-90126826D01*
X158294110Y-90197050D01*
X158343314Y-90210234D01*
X157783094Y-90770453D01*
X157783094Y-90770454D01*
X157825249Y-90801082D01*
X158005802Y-90893078D01*
X158198531Y-90955700D01*
X158198530Y-90955700D01*
X158398675Y-90987400D01*
X158601315Y-90987400D01*
X158801458Y-90955700D01*
X158994187Y-90893078D01*
X159174742Y-90801081D01*
X159174746Y-90801079D01*
X159216894Y-90770454D01*
X159216895Y-90770454D01*
X158656675Y-90210234D01*
X158705880Y-90197050D01*
X158827510Y-90126826D01*
X158926821Y-90027515D01*
X158997045Y-89905885D01*
X159010229Y-89856680D01*
X159570448Y-90416900D01*
X159570449Y-90416899D01*
X159601074Y-90374751D01*
X159601076Y-90374747D01*
X159693073Y-90194192D01*
X159755695Y-90001463D01*
X159787395Y-89801320D01*
X159787395Y-89598679D01*
X159755695Y-89398536D01*
X159693073Y-89205807D01*
X159601077Y-89025254D01*
X159570448Y-88983099D01*
X159010228Y-89543318D01*
X158997045Y-89494115D01*
X158926821Y-89372485D01*
X158827510Y-89273174D01*
X158705880Y-89202950D01*
X158656675Y-89189765D01*
X159216895Y-88629546D01*
X159216894Y-88629545D01*
X159174739Y-88598916D01*
X158994187Y-88506921D01*
X158801458Y-88444299D01*
X158801459Y-88444299D01*
X158601315Y-88412600D01*
X158398675Y-88412600D01*
X158198531Y-88444299D01*
X158005802Y-88506921D01*
X157825245Y-88598919D01*
X157783094Y-88629544D01*
X157783093Y-88629545D01*
X158343314Y-89189765D01*
X158294110Y-89202950D01*
X158172480Y-89273174D01*
X158073169Y-89372485D01*
X158002945Y-89494115D01*
X157989761Y-89543319D01*
X157429540Y-88983098D01*
X157429539Y-88983099D01*
X157398914Y-89025250D01*
X157306916Y-89205807D01*
X157244294Y-89398536D01*
X157212595Y-89598679D01*
X156787896Y-89598679D01*
X156787896Y-89598640D01*
X156756183Y-89398416D01*
X156693539Y-89205618D01*
X156601506Y-89024994D01*
X156571067Y-88983098D01*
X156482356Y-88860995D01*
X156339000Y-88717639D01*
X156175005Y-88598492D01*
X156175004Y-88598491D01*
X156175002Y-88598490D01*
X155994378Y-88506457D01*
X155801580Y-88443813D01*
X155801578Y-88443812D01*
X155801576Y-88443812D01*
X155625480Y-88415921D01*
X155601356Y-88412100D01*
X155398636Y-88412100D01*
X155374512Y-88415921D01*
X155198415Y-88443812D01*
X155005611Y-88506458D01*
X154824987Y-88598491D01*
X154731071Y-88666724D01*
X154665265Y-88690203D01*
X154597211Y-88674377D01*
X154548517Y-88624270D01*
X154534642Y-88555792D01*
X154559992Y-88490684D01*
X154570498Y-88478733D01*
X156028896Y-87020335D01*
X172396200Y-87020335D01*
X172396200Y-87979670D01*
X172396201Y-87979676D01*
X172402608Y-88039283D01*
X172452902Y-88174128D01*
X172452906Y-88174135D01*
X172539152Y-88289344D01*
X172539155Y-88289347D01*
X172654364Y-88375593D01*
X172654371Y-88375597D01*
X172789217Y-88425891D01*
X172789216Y-88425891D01*
X172796144Y-88426635D01*
X172848827Y-88432300D01*
X174951172Y-88432299D01*
X175010783Y-88425891D01*
X175145631Y-88375596D01*
X175260846Y-88289346D01*
X175347096Y-88174131D01*
X175397391Y-88039283D01*
X175403800Y-87979673D01*
X175403799Y-87020335D01*
X180092400Y-87020335D01*
X180092400Y-87979670D01*
X180092401Y-87979676D01*
X180098808Y-88039283D01*
X180149102Y-88174128D01*
X180149106Y-88174135D01*
X180235352Y-88289344D01*
X180235355Y-88289347D01*
X180350564Y-88375593D01*
X180350571Y-88375597D01*
X180485417Y-88425891D01*
X180485416Y-88425891D01*
X180492344Y-88426635D01*
X180545027Y-88432300D01*
X182647372Y-88432299D01*
X182706983Y-88425891D01*
X182841831Y-88375596D01*
X182957046Y-88289346D01*
X183043296Y-88174131D01*
X183093591Y-88039283D01*
X183100000Y-87979673D01*
X183099999Y-87020328D01*
X183093591Y-86960717D01*
X183085273Y-86938416D01*
X183043297Y-86825871D01*
X183043293Y-86825864D01*
X182957047Y-86710655D01*
X182957044Y-86710652D01*
X182841835Y-86624406D01*
X182841828Y-86624402D01*
X182706982Y-86574108D01*
X182706983Y-86574108D01*
X182647383Y-86567701D01*
X182647381Y-86567700D01*
X182647373Y-86567700D01*
X182647364Y-86567700D01*
X180545029Y-86567700D01*
X180545023Y-86567701D01*
X180485416Y-86574108D01*
X180350571Y-86624402D01*
X180350564Y-86624406D01*
X180235355Y-86710652D01*
X180235352Y-86710655D01*
X180149106Y-86825864D01*
X180149102Y-86825871D01*
X180098808Y-86960717D01*
X180092401Y-87020316D01*
X180092401Y-87020323D01*
X180092400Y-87020335D01*
X175403799Y-87020335D01*
X175403799Y-87020328D01*
X175397391Y-86960717D01*
X175389073Y-86938416D01*
X175347097Y-86825871D01*
X175347093Y-86825864D01*
X175260847Y-86710655D01*
X175260844Y-86710652D01*
X175145635Y-86624406D01*
X175145628Y-86624402D01*
X175010782Y-86574108D01*
X175010783Y-86574108D01*
X174951183Y-86567701D01*
X174951181Y-86567700D01*
X174951173Y-86567700D01*
X174951164Y-86567700D01*
X172848829Y-86567700D01*
X172848823Y-86567701D01*
X172789216Y-86574108D01*
X172654371Y-86624402D01*
X172654364Y-86624406D01*
X172539155Y-86710652D01*
X172539152Y-86710655D01*
X172452906Y-86825864D01*
X172452902Y-86825871D01*
X172402608Y-86960717D01*
X172396201Y-87020316D01*
X172396201Y-87020323D01*
X172396200Y-87020335D01*
X156028896Y-87020335D01*
X162229612Y-80819620D01*
X162290935Y-80786135D01*
X162317293Y-80783301D01*
X172130530Y-80783301D01*
X172130546Y-80783302D01*
X172138142Y-80783302D01*
X172296253Y-80783302D01*
X172296256Y-80783302D01*
X172448984Y-80742378D01*
X172499103Y-80713440D01*
X172585915Y-80663321D01*
X172697719Y-80551517D01*
X172697719Y-80551515D01*
X172707927Y-80541308D01*
X172707928Y-80541305D01*
X174178895Y-79070338D01*
X184896200Y-79070338D01*
X184896200Y-80029673D01*
X184896201Y-80029679D01*
X184902608Y-80089286D01*
X184952902Y-80224131D01*
X184952906Y-80224138D01*
X185039152Y-80339347D01*
X185039155Y-80339350D01*
X185154364Y-80425596D01*
X185154371Y-80425600D01*
X185289217Y-80475894D01*
X185289216Y-80475894D01*
X185296144Y-80476638D01*
X185348827Y-80482303D01*
X187451172Y-80482302D01*
X187510783Y-80475894D01*
X187645631Y-80425599D01*
X187760846Y-80339349D01*
X187847096Y-80224134D01*
X187847096Y-80224131D01*
X187851344Y-80216354D01*
X187854340Y-80217989D01*
X187886330Y-80175245D01*
X187951792Y-80150820D01*
X187960653Y-80150503D01*
X192535547Y-80150503D01*
X192602586Y-80170188D01*
X192643317Y-80217194D01*
X192644856Y-80216354D01*
X192649105Y-80224137D01*
X192735352Y-80339347D01*
X192735355Y-80339350D01*
X192850564Y-80425596D01*
X192850571Y-80425600D01*
X192985417Y-80475894D01*
X192985416Y-80475894D01*
X192992344Y-80476638D01*
X193045027Y-80482303D01*
X195147372Y-80482302D01*
X195206983Y-80475894D01*
X195341831Y-80425599D01*
X195457046Y-80339349D01*
X195543296Y-80224134D01*
X195593591Y-80089286D01*
X195600000Y-80029676D01*
X195599999Y-79070331D01*
X195593591Y-79010720D01*
X195578524Y-78970324D01*
X195543297Y-78875874D01*
X195543293Y-78875867D01*
X195457047Y-78760658D01*
X195457044Y-78760655D01*
X195341835Y-78674409D01*
X195341828Y-78674405D01*
X195206982Y-78624111D01*
X195206983Y-78624111D01*
X195147383Y-78617704D01*
X195147381Y-78617703D01*
X195147373Y-78617703D01*
X195147364Y-78617703D01*
X193045029Y-78617703D01*
X193045023Y-78617704D01*
X192985416Y-78624111D01*
X192850571Y-78674405D01*
X192850564Y-78674409D01*
X192735355Y-78760655D01*
X192735352Y-78760658D01*
X192649105Y-78875868D01*
X192644856Y-78883652D01*
X192641859Y-78882016D01*
X192609870Y-78924761D01*
X192544408Y-78949186D01*
X192535547Y-78949503D01*
X187960653Y-78949503D01*
X187893614Y-78929818D01*
X187852882Y-78882811D01*
X187851344Y-78883652D01*
X187847094Y-78875868D01*
X187760847Y-78760658D01*
X187760844Y-78760655D01*
X187645635Y-78674409D01*
X187645628Y-78674405D01*
X187510782Y-78624111D01*
X187510783Y-78624111D01*
X187451183Y-78617704D01*
X187451181Y-78617703D01*
X187451173Y-78617703D01*
X187451164Y-78617703D01*
X185348829Y-78617703D01*
X185348823Y-78617704D01*
X185289216Y-78624111D01*
X185154371Y-78674405D01*
X185154364Y-78674409D01*
X185039155Y-78760655D01*
X185039152Y-78760658D01*
X184952906Y-78875867D01*
X184952902Y-78875874D01*
X184902608Y-79010720D01*
X184896201Y-79070319D01*
X184896201Y-79070326D01*
X184896200Y-79070338D01*
X174178895Y-79070338D01*
X178678898Y-74570336D01*
X184896200Y-74570336D01*
X184896200Y-75529671D01*
X184896201Y-75529677D01*
X184902608Y-75589284D01*
X184952902Y-75724129D01*
X184952906Y-75724136D01*
X185039152Y-75839345D01*
X185039155Y-75839348D01*
X185154364Y-75925594D01*
X185154371Y-75925598D01*
X185289217Y-75975892D01*
X185289216Y-75975892D01*
X185296144Y-75976636D01*
X185348827Y-75982301D01*
X187451172Y-75982300D01*
X187510783Y-75975892D01*
X187645631Y-75925597D01*
X187760846Y-75839347D01*
X187847096Y-75724132D01*
X187847096Y-75724129D01*
X187851344Y-75716352D01*
X187854340Y-75717987D01*
X187886330Y-75675243D01*
X187951792Y-75650818D01*
X187960653Y-75650501D01*
X192535547Y-75650501D01*
X192602586Y-75670186D01*
X192643317Y-75717192D01*
X192644856Y-75716352D01*
X192649105Y-75724135D01*
X192735352Y-75839345D01*
X192735355Y-75839348D01*
X192850564Y-75925594D01*
X192850571Y-75925598D01*
X192985417Y-75975892D01*
X192985416Y-75975892D01*
X192992344Y-75976636D01*
X193045027Y-75982301D01*
X194017450Y-75982300D01*
X194041642Y-75984683D01*
X194121156Y-76000500D01*
X194121158Y-76000500D01*
X194278843Y-76000500D01*
X194315189Y-75993269D01*
X194358358Y-75984682D01*
X194382549Y-75982300D01*
X195147371Y-75982300D01*
X195147372Y-75982300D01*
X195206983Y-75975892D01*
X195341831Y-75925597D01*
X195457046Y-75839347D01*
X195543296Y-75724132D01*
X195593591Y-75589284D01*
X195600000Y-75529674D01*
X195599999Y-74570329D01*
X195593591Y-74510718D01*
X195578524Y-74470322D01*
X195543297Y-74375872D01*
X195543293Y-74375865D01*
X195457047Y-74260656D01*
X195457044Y-74260653D01*
X195341835Y-74174407D01*
X195341828Y-74174403D01*
X195206982Y-74124109D01*
X195206983Y-74124109D01*
X195147383Y-74117702D01*
X195147381Y-74117701D01*
X195147373Y-74117701D01*
X195147364Y-74117701D01*
X193045029Y-74117701D01*
X193045023Y-74117702D01*
X192985416Y-74124109D01*
X192850571Y-74174403D01*
X192850564Y-74174407D01*
X192735355Y-74260653D01*
X192735352Y-74260656D01*
X192649105Y-74375866D01*
X192644856Y-74383650D01*
X192641859Y-74382014D01*
X192609870Y-74424759D01*
X192544408Y-74449184D01*
X192535547Y-74449501D01*
X187960653Y-74449501D01*
X187893614Y-74429816D01*
X187852882Y-74382809D01*
X187851344Y-74383650D01*
X187847094Y-74375866D01*
X187760847Y-74260656D01*
X187760844Y-74260653D01*
X187645635Y-74174407D01*
X187645628Y-74174403D01*
X187510782Y-74124109D01*
X187510783Y-74124109D01*
X187451183Y-74117702D01*
X187451181Y-74117701D01*
X187451173Y-74117701D01*
X187451164Y-74117701D01*
X185348829Y-74117701D01*
X185348823Y-74117702D01*
X185289216Y-74124109D01*
X185154371Y-74174403D01*
X185154364Y-74174407D01*
X185039155Y-74260653D01*
X185039152Y-74260656D01*
X184952906Y-74375865D01*
X184952902Y-74375872D01*
X184902608Y-74510718D01*
X184896201Y-74570317D01*
X184896201Y-74570324D01*
X184896200Y-74570336D01*
X178678898Y-74570336D01*
X188880520Y-64368716D01*
X188959577Y-64231784D01*
X189000501Y-64079057D01*
X189000501Y-63920942D01*
X189000501Y-63913347D01*
X189000500Y-63913329D01*
X189000500Y-56720337D01*
X190400000Y-56720337D01*
X190400000Y-57679672D01*
X190400001Y-57679678D01*
X190406408Y-57739285D01*
X190456702Y-57874130D01*
X190456706Y-57874137D01*
X190542952Y-57989346D01*
X190542955Y-57989349D01*
X190658164Y-58075595D01*
X190658171Y-58075599D01*
X190793017Y-58125893D01*
X190793016Y-58125893D01*
X190799944Y-58126637D01*
X190852627Y-58132302D01*
X192954972Y-58132301D01*
X193014583Y-58125893D01*
X193149431Y-58075598D01*
X193264646Y-57989348D01*
X193350896Y-57874133D01*
X193350898Y-57874128D01*
X193355144Y-57866353D01*
X193358140Y-57867988D01*
X193390130Y-57825244D01*
X193455592Y-57800819D01*
X193464453Y-57800502D01*
X198039347Y-57800502D01*
X198106386Y-57820187D01*
X198147117Y-57867193D01*
X198148656Y-57866353D01*
X198152905Y-57874136D01*
X198239152Y-57989346D01*
X198239155Y-57989349D01*
X198354364Y-58075595D01*
X198354371Y-58075599D01*
X198489217Y-58125893D01*
X198489216Y-58125893D01*
X198496144Y-58126637D01*
X198548827Y-58132302D01*
X200651172Y-58132301D01*
X200710783Y-58125893D01*
X200845631Y-58075598D01*
X200960846Y-57989348D01*
X201047096Y-57874133D01*
X201097391Y-57739285D01*
X201103800Y-57679675D01*
X201103799Y-56720330D01*
X201097391Y-56660719D01*
X201097390Y-56660717D01*
X201047097Y-56525873D01*
X201047093Y-56525866D01*
X200960847Y-56410657D01*
X200960844Y-56410654D01*
X200845635Y-56324408D01*
X200845628Y-56324404D01*
X200710782Y-56274110D01*
X200710783Y-56274110D01*
X200651183Y-56267703D01*
X200651181Y-56267702D01*
X200651173Y-56267702D01*
X200651164Y-56267702D01*
X198548829Y-56267702D01*
X198548823Y-56267703D01*
X198489216Y-56274110D01*
X198354371Y-56324404D01*
X198354364Y-56324408D01*
X198239155Y-56410654D01*
X198239152Y-56410657D01*
X198152905Y-56525867D01*
X198148656Y-56533651D01*
X198145659Y-56532015D01*
X198113670Y-56574760D01*
X198048208Y-56599185D01*
X198039347Y-56599502D01*
X193464453Y-56599502D01*
X193397414Y-56579817D01*
X193356682Y-56532810D01*
X193355144Y-56533651D01*
X193350894Y-56525867D01*
X193264647Y-56410657D01*
X193264644Y-56410654D01*
X193149435Y-56324408D01*
X193149428Y-56324404D01*
X193014582Y-56274110D01*
X193014583Y-56274110D01*
X192954983Y-56267703D01*
X192954981Y-56267702D01*
X192954973Y-56267702D01*
X192954964Y-56267702D01*
X190852629Y-56267702D01*
X190852623Y-56267703D01*
X190793016Y-56274110D01*
X190658171Y-56324404D01*
X190658164Y-56324408D01*
X190542955Y-56410654D01*
X190542952Y-56410657D01*
X190456706Y-56525866D01*
X190456702Y-56525873D01*
X190406408Y-56660719D01*
X190400001Y-56720318D01*
X190400001Y-56720325D01*
X190400000Y-56720337D01*
X189000500Y-56720337D01*
X189000500Y-56503896D01*
X189020185Y-56436857D01*
X189036814Y-56416220D01*
X191784416Y-53668617D01*
X191845739Y-53635133D01*
X191872097Y-53632299D01*
X192954971Y-53632299D01*
X192954972Y-53632299D01*
X193014583Y-53625891D01*
X193149431Y-53575596D01*
X193264646Y-53489346D01*
X193322361Y-53412247D01*
X193350894Y-53374134D01*
X193355144Y-53366351D01*
X193358140Y-53367986D01*
X193390130Y-53325242D01*
X193455592Y-53300817D01*
X193464453Y-53300500D01*
X198039347Y-53300500D01*
X198106386Y-53320185D01*
X198147117Y-53367191D01*
X198148656Y-53366351D01*
X198152905Y-53374134D01*
X198239152Y-53489344D01*
X198239155Y-53489347D01*
X198354364Y-53575593D01*
X198354371Y-53575597D01*
X198489217Y-53625891D01*
X198489216Y-53625891D01*
X198496144Y-53626635D01*
X198548827Y-53632300D01*
X200651172Y-53632299D01*
X200710783Y-53625891D01*
X200845631Y-53575596D01*
X200960846Y-53489346D01*
X201047096Y-53374131D01*
X201097391Y-53239283D01*
X201103800Y-53179673D01*
X201103799Y-52220328D01*
X201097391Y-52160717D01*
X201097390Y-52160715D01*
X201047097Y-52025871D01*
X201047093Y-52025864D01*
X200960847Y-51910655D01*
X200960844Y-51910652D01*
X200845635Y-51824406D01*
X200845628Y-51824402D01*
X200710782Y-51774108D01*
X200710783Y-51774108D01*
X200651183Y-51767701D01*
X200651181Y-51767700D01*
X200651173Y-51767700D01*
X200651164Y-51767700D01*
X198548829Y-51767700D01*
X198548823Y-51767701D01*
X198489216Y-51774108D01*
X198354371Y-51824402D01*
X198354364Y-51824406D01*
X198239155Y-51910652D01*
X198239152Y-51910655D01*
X198152905Y-52025865D01*
X198148656Y-52033649D01*
X198145659Y-52032013D01*
X198113670Y-52074758D01*
X198048208Y-52099183D01*
X198039347Y-52099500D01*
X193464453Y-52099500D01*
X193397414Y-52079815D01*
X193356682Y-52032808D01*
X193355144Y-52033649D01*
X193350894Y-52025865D01*
X193264647Y-51910655D01*
X193264644Y-51910652D01*
X193149435Y-51824406D01*
X193149428Y-51824402D01*
X193014582Y-51774108D01*
X193014583Y-51774108D01*
X192954983Y-51767701D01*
X192954981Y-51767700D01*
X192954973Y-51767700D01*
X192954964Y-51767700D01*
X190852629Y-51767700D01*
X190852623Y-51767701D01*
X190793016Y-51774108D01*
X190658171Y-51824402D01*
X190658164Y-51824406D01*
X190542955Y-51910652D01*
X190542952Y-51910655D01*
X190456706Y-52025864D01*
X190456702Y-52025871D01*
X190406408Y-52160717D01*
X190400001Y-52220316D01*
X190400001Y-52220323D01*
X190400000Y-52220335D01*
X190400000Y-53179670D01*
X190400001Y-53179676D01*
X190406408Y-53239283D01*
X190408137Y-53243917D01*
X190413119Y-53313609D01*
X190379635Y-53374928D01*
X188031286Y-55723278D01*
X187919481Y-55835082D01*
X187919479Y-55835085D01*
X187869361Y-55921894D01*
X187869359Y-55921896D01*
X187840425Y-55972009D01*
X187840424Y-55972010D01*
X187840423Y-55972015D01*
X187799499Y-56124743D01*
X187799499Y-56124745D01*
X187799499Y-56292846D01*
X187799500Y-56292859D01*
X187799500Y-63699902D01*
X187779815Y-63766941D01*
X187763181Y-63787583D01*
X172004783Y-79545982D01*
X171943460Y-79579467D01*
X171917102Y-79582301D01*
X170775900Y-79582301D01*
X170708861Y-79562616D01*
X170663106Y-79509812D01*
X170651900Y-79458301D01*
X170651899Y-78970330D01*
X170651898Y-78970324D01*
X170645491Y-78910717D01*
X170595197Y-78775872D01*
X170595193Y-78775865D01*
X170508947Y-78660656D01*
X170508944Y-78660653D01*
X170393735Y-78574407D01*
X170393728Y-78574403D01*
X170258882Y-78524109D01*
X170258883Y-78524109D01*
X170199283Y-78517702D01*
X170199281Y-78517701D01*
X170199273Y-78517701D01*
X170199265Y-78517701D01*
X169830895Y-78517701D01*
X169763856Y-78498016D01*
X169718101Y-78445212D01*
X169708157Y-78376054D01*
X169737182Y-78312498D01*
X169743214Y-78306020D01*
X171290733Y-76758501D01*
X173006106Y-75043128D01*
X173006111Y-75043124D01*
X173016314Y-75032920D01*
X173016316Y-75032920D01*
X173128120Y-74921116D01*
X173196963Y-74801876D01*
X173207177Y-74784185D01*
X173248100Y-74631457D01*
X173248100Y-74473343D01*
X173248100Y-68106300D01*
X173267785Y-68039261D01*
X173320589Y-67993506D01*
X173372100Y-67982300D01*
X175003071Y-67982300D01*
X175003072Y-67982300D01*
X175062683Y-67975892D01*
X175197531Y-67925597D01*
X175312746Y-67839347D01*
X175398996Y-67724132D01*
X175398996Y-67724129D01*
X175403244Y-67716352D01*
X175406240Y-67717987D01*
X175438230Y-67675243D01*
X175503692Y-67650818D01*
X175512553Y-67650501D01*
X180087447Y-67650501D01*
X180154486Y-67670186D01*
X180195217Y-67717192D01*
X180196756Y-67716352D01*
X180201005Y-67724135D01*
X180287252Y-67839345D01*
X180287255Y-67839348D01*
X180402464Y-67925594D01*
X180402471Y-67925598D01*
X180537317Y-67975892D01*
X180537316Y-67975892D01*
X180544244Y-67976636D01*
X180596927Y-67982301D01*
X182699272Y-67982300D01*
X182758883Y-67975892D01*
X182893731Y-67925597D01*
X183008946Y-67839347D01*
X183095196Y-67724132D01*
X183145491Y-67589284D01*
X183151900Y-67529674D01*
X183151899Y-66570329D01*
X183145491Y-66510718D01*
X183122540Y-66449184D01*
X183095197Y-66375872D01*
X183095193Y-66375865D01*
X183008947Y-66260656D01*
X183008944Y-66260653D01*
X182893735Y-66174407D01*
X182893728Y-66174403D01*
X182758882Y-66124109D01*
X182758883Y-66124109D01*
X182699283Y-66117702D01*
X182699281Y-66117701D01*
X182699273Y-66117701D01*
X182699264Y-66117701D01*
X180596929Y-66117701D01*
X180596923Y-66117702D01*
X180537316Y-66124109D01*
X180402471Y-66174403D01*
X180402464Y-66174407D01*
X180287255Y-66260653D01*
X180287252Y-66260656D01*
X180201005Y-66375866D01*
X180196756Y-66383650D01*
X180193759Y-66382014D01*
X180161770Y-66424759D01*
X180096308Y-66449184D01*
X180087447Y-66449501D01*
X175512553Y-66449501D01*
X175445514Y-66429816D01*
X175404782Y-66382809D01*
X175403244Y-66383650D01*
X175398994Y-66375866D01*
X175312747Y-66260656D01*
X175312744Y-66260653D01*
X175197535Y-66174407D01*
X175197528Y-66174403D01*
X175062682Y-66124109D01*
X175062683Y-66124109D01*
X175003083Y-66117702D01*
X175003081Y-66117701D01*
X175003073Y-66117701D01*
X175003065Y-66117701D01*
X173372100Y-66117701D01*
X173305061Y-66098016D01*
X173259306Y-66045212D01*
X173248100Y-65993701D01*
X173248100Y-64154396D01*
X173267785Y-64087357D01*
X173284419Y-64066715D01*
X173832517Y-63518617D01*
X173893840Y-63485132D01*
X173920198Y-63482298D01*
X175003071Y-63482298D01*
X175003072Y-63482298D01*
X175062683Y-63475890D01*
X175197531Y-63425595D01*
X175312746Y-63339345D01*
X175398996Y-63224130D01*
X175398996Y-63224127D01*
X175403244Y-63216350D01*
X175406240Y-63217985D01*
X175438230Y-63175241D01*
X175503692Y-63150816D01*
X175512553Y-63150499D01*
X180087447Y-63150499D01*
X180154486Y-63170184D01*
X180195217Y-63217190D01*
X180196756Y-63216350D01*
X180201005Y-63224133D01*
X180287252Y-63339343D01*
X180287255Y-63339346D01*
X180402464Y-63425592D01*
X180402471Y-63425596D01*
X180537317Y-63475890D01*
X180537316Y-63475890D01*
X180544244Y-63476634D01*
X180596927Y-63482299D01*
X182699272Y-63482298D01*
X182758883Y-63475890D01*
X182893731Y-63425595D01*
X183008946Y-63339345D01*
X183095196Y-63224130D01*
X183145491Y-63089282D01*
X183151900Y-63029672D01*
X183151899Y-62070327D01*
X183145491Y-62010716D01*
X183122540Y-61949182D01*
X183095197Y-61875870D01*
X183095193Y-61875863D01*
X183008947Y-61760654D01*
X183008944Y-61760651D01*
X182893735Y-61674405D01*
X182893728Y-61674401D01*
X182758882Y-61624107D01*
X182758883Y-61624107D01*
X182699283Y-61617700D01*
X182699281Y-61617699D01*
X182699273Y-61617699D01*
X182699264Y-61617699D01*
X180596929Y-61617699D01*
X180596923Y-61617700D01*
X180537316Y-61624107D01*
X180402471Y-61674401D01*
X180402464Y-61674405D01*
X180287255Y-61760651D01*
X180287252Y-61760654D01*
X180201005Y-61875864D01*
X180196756Y-61883648D01*
X180193759Y-61882012D01*
X180161770Y-61924757D01*
X180096308Y-61949182D01*
X180087447Y-61949499D01*
X175512553Y-61949499D01*
X175445514Y-61929814D01*
X175404782Y-61882807D01*
X175403244Y-61883648D01*
X175398994Y-61875864D01*
X175312747Y-61760654D01*
X175312744Y-61760651D01*
X175197535Y-61674405D01*
X175197528Y-61674401D01*
X175062682Y-61624107D01*
X175062683Y-61624107D01*
X175003083Y-61617700D01*
X175003081Y-61617699D01*
X175003073Y-61617699D01*
X175003064Y-61617699D01*
X172900729Y-61617699D01*
X172900723Y-61617700D01*
X172841116Y-61624107D01*
X172706271Y-61674401D01*
X172706264Y-61674405D01*
X172591055Y-61760651D01*
X172591052Y-61760654D01*
X172504806Y-61875863D01*
X172504802Y-61875870D01*
X172454508Y-62010716D01*
X172448101Y-62070315D01*
X172448101Y-62070322D01*
X172448100Y-62070334D01*
X172448100Y-63029669D01*
X172448101Y-63029675D01*
X172454508Y-63089281D01*
X172456236Y-63093912D01*
X172457507Y-63111693D01*
X172463738Y-63128398D01*
X172459948Y-63145820D01*
X172461220Y-63163604D01*
X172452676Y-63179250D01*
X172448887Y-63196671D01*
X172427736Y-63224926D01*
X172278886Y-63373777D01*
X172278885Y-63373777D01*
X172278884Y-63373778D01*
X172167081Y-63485581D01*
X172167077Y-63485586D01*
X172148008Y-63518617D01*
X172147510Y-63519480D01*
X172088023Y-63622514D01*
X172047099Y-63775242D01*
X172047099Y-63775244D01*
X172047099Y-63943345D01*
X172047100Y-63943358D01*
X172047100Y-74252303D01*
X172027415Y-74319342D01*
X172010781Y-74339984D01*
X170863580Y-75487184D01*
X170802257Y-75520669D01*
X170732565Y-75515685D01*
X170676632Y-75473813D01*
X170652215Y-75408349D01*
X170651899Y-75399530D01*
X170651899Y-74470327D01*
X170645491Y-74410716D01*
X170635082Y-74382809D01*
X170595197Y-74275870D01*
X170595193Y-74275863D01*
X170508947Y-74160654D01*
X170508944Y-74160651D01*
X170393735Y-74074405D01*
X170393728Y-74074401D01*
X170258882Y-74024107D01*
X170258883Y-74024107D01*
X170199283Y-74017700D01*
X170199281Y-74017699D01*
X170199273Y-74017699D01*
X170199264Y-74017699D01*
X168096929Y-74017699D01*
X168096923Y-74017700D01*
X168037316Y-74024107D01*
X167902471Y-74074401D01*
X167902464Y-74074405D01*
X167787255Y-74160651D01*
X167787252Y-74160654D01*
X167701005Y-74275864D01*
X167696756Y-74283648D01*
X167693759Y-74282012D01*
X167661770Y-74324757D01*
X167596308Y-74349182D01*
X167587447Y-74349499D01*
X163012553Y-74349499D01*
X162945514Y-74329814D01*
X162904782Y-74282807D01*
X162903244Y-74283648D01*
X162898994Y-74275864D01*
X162812747Y-74160654D01*
X162812744Y-74160651D01*
X162697535Y-74074405D01*
X162697528Y-74074401D01*
X162562682Y-74024107D01*
X162562683Y-74024107D01*
X162503083Y-74017700D01*
X162503081Y-74017699D01*
X162503073Y-74017699D01*
X162503064Y-74017699D01*
X160400729Y-74017699D01*
X160400723Y-74017700D01*
X160341116Y-74024107D01*
X160206271Y-74074401D01*
X160206264Y-74074405D01*
X160091055Y-74160651D01*
X160091052Y-74160654D01*
X160004806Y-74275863D01*
X160004802Y-74275870D01*
X159954508Y-74410716D01*
X159952455Y-74429816D01*
X159948101Y-74470322D01*
X159948100Y-74470334D01*
X159948100Y-75429669D01*
X159948101Y-75429675D01*
X159954508Y-75489282D01*
X159956237Y-75493916D01*
X159957508Y-75511695D01*
X159963738Y-75528399D01*
X159959947Y-75545823D01*
X159961219Y-75563608D01*
X159952676Y-75579253D01*
X159948887Y-75596672D01*
X159927735Y-75624927D01*
X159789481Y-75763182D01*
X159728161Y-75796666D01*
X159701802Y-75799500D01*
X150720943Y-75799500D01*
X150713666Y-75801450D01*
X150568215Y-75840423D01*
X150568210Y-75840426D01*
X150431291Y-75919475D01*
X150431283Y-75919481D01*
X150319479Y-76031286D01*
X137934843Y-88415921D01*
X137873520Y-88449406D01*
X137808852Y-88446174D01*
X137805927Y-88445224D01*
X137801585Y-88443813D01*
X137801583Y-88443812D01*
X137801581Y-88443812D01*
X137625485Y-88415921D01*
X137601361Y-88412100D01*
X137398641Y-88412100D01*
X137374517Y-88415921D01*
X137198420Y-88443812D01*
X137005616Y-88506458D01*
X136824992Y-88598491D01*
X136731077Y-88666723D01*
X136665270Y-88690202D01*
X136597217Y-88674376D01*
X136548523Y-88624269D01*
X136534648Y-88555791D01*
X136559998Y-88490682D01*
X136570501Y-88478734D01*
X139524221Y-85525017D01*
X139603278Y-85388085D01*
X139644202Y-85235358D01*
X139644202Y-85077243D01*
X139644202Y-85069648D01*
X139644201Y-85069630D01*
X139644201Y-83920698D01*
X139663886Y-83853659D01*
X139716690Y-83807904D01*
X139785848Y-83797960D01*
X139806519Y-83802767D01*
X139840243Y-83813725D01*
X139920833Y-83826489D01*
X140042437Y-83845750D01*
X140042442Y-83845750D01*
X140247165Y-83845750D01*
X140345186Y-83830224D01*
X140449359Y-83813725D01*
X140644058Y-83750464D01*
X140826464Y-83657523D01*
X140992085Y-83537192D01*
X141136843Y-83392434D01*
X141257174Y-83226813D01*
X141350115Y-83044407D01*
X141413376Y-82849708D01*
X141429875Y-82745535D01*
X141445401Y-82647514D01*
X141445401Y-82442785D01*
X141426770Y-82325158D01*
X141413376Y-82240592D01*
X141350115Y-82045893D01*
X141350115Y-82045892D01*
X141257173Y-81863486D01*
X141136843Y-81697866D01*
X140992085Y-81553108D01*
X140826464Y-81432777D01*
X140644058Y-81339835D01*
X140644055Y-81339834D01*
X140449360Y-81276575D01*
X140247165Y-81244550D01*
X140247160Y-81244550D01*
X140042442Y-81244550D01*
X140042437Y-81244550D01*
X139840239Y-81276575D01*
X139806518Y-81287532D01*
X139736677Y-81289527D01*
X139676845Y-81253446D01*
X139646017Y-81190745D01*
X139644201Y-81169601D01*
X139644201Y-76393427D01*
X139663886Y-76326388D01*
X139716690Y-76280633D01*
X139785848Y-76270689D01*
X139815654Y-76278866D01*
X139820817Y-76281004D01*
X139820821Y-76281007D01*
X139966503Y-76341350D01*
X140109203Y-76369735D01*
X140121153Y-76372112D01*
X140121156Y-76372113D01*
X140220302Y-76372113D01*
X140287341Y-76391798D01*
X140333096Y-76444602D01*
X140344302Y-76496113D01*
X140344302Y-77093021D01*
X140344303Y-77093027D01*
X140350710Y-77152634D01*
X140401004Y-77287479D01*
X140401008Y-77287486D01*
X140487254Y-77402695D01*
X140487257Y-77402698D01*
X140602466Y-77488944D01*
X140602473Y-77488948D01*
X140737319Y-77539242D01*
X140737318Y-77539242D01*
X140744246Y-77539986D01*
X140796929Y-77545651D01*
X145892674Y-77545650D01*
X145952285Y-77539242D01*
X146087133Y-77488947D01*
X146202348Y-77402697D01*
X146288598Y-77287482D01*
X146338893Y-77152634D01*
X146345302Y-77093024D01*
X146345301Y-73997279D01*
X146338893Y-73937668D01*
X146288598Y-73802820D01*
X146288597Y-73802819D01*
X146288595Y-73802815D01*
X146202349Y-73687606D01*
X146202346Y-73687603D01*
X146087137Y-73601357D01*
X146087130Y-73601353D01*
X145952284Y-73551059D01*
X145952285Y-73551059D01*
X145892685Y-73544652D01*
X145892683Y-73544651D01*
X145892675Y-73544651D01*
X145892666Y-73544651D01*
X140796931Y-73544651D01*
X140796925Y-73544652D01*
X140737318Y-73551059D01*
X140602473Y-73601353D01*
X140602466Y-73601357D01*
X140487257Y-73687603D01*
X140487254Y-73687606D01*
X140401008Y-73802815D01*
X140401004Y-73802822D01*
X140350710Y-73937668D01*
X140344303Y-73997267D01*
X140344303Y-73997274D01*
X140344302Y-73997286D01*
X140344302Y-74647113D01*
X140324617Y-74714152D01*
X140271813Y-74759907D01*
X140220302Y-74771113D01*
X140121155Y-74771113D01*
X139966510Y-74801874D01*
X139966498Y-74801877D01*
X139815653Y-74864359D01*
X139746184Y-74871828D01*
X139683705Y-74840553D01*
X139648053Y-74780463D01*
X139644201Y-74749798D01*
X139644201Y-69446348D01*
X139652844Y-69416913D01*
X139659367Y-69386924D01*
X139663123Y-69381905D01*
X139663886Y-69379309D01*
X139680514Y-69358672D01*
X139699878Y-69339308D01*
X139761198Y-69305823D01*
X139825879Y-69309058D01*
X139831246Y-69310802D01*
X139840242Y-69313726D01*
X140042437Y-69345751D01*
X140042442Y-69345751D01*
X140247165Y-69345751D01*
X140345186Y-69330225D01*
X140449359Y-69313726D01*
X140644058Y-69250465D01*
X140826464Y-69157524D01*
X140992085Y-69037193D01*
X141136843Y-68892435D01*
X141257174Y-68726814D01*
X141350115Y-68544408D01*
X141413376Y-68349709D01*
X141429875Y-68245536D01*
X141445401Y-68147515D01*
X141445401Y-67942786D01*
X141426770Y-67825159D01*
X141413376Y-67740593D01*
X141364213Y-67589283D01*
X141350116Y-67545896D01*
X141350115Y-67545893D01*
X141257173Y-67363487D01*
X141136843Y-67197867D01*
X140992085Y-67053109D01*
X140826464Y-66932778D01*
X140644058Y-66839836D01*
X140644055Y-66839835D01*
X140449360Y-66776576D01*
X140247165Y-66744551D01*
X140247160Y-66744551D01*
X140042442Y-66744551D01*
X140042437Y-66744551D01*
X139840241Y-66776576D01*
X139645546Y-66839835D01*
X139645543Y-66839836D01*
X139463137Y-66932778D01*
X139368644Y-67001431D01*
X139297517Y-67053109D01*
X139297515Y-67053111D01*
X139297514Y-67053111D01*
X139152761Y-67197864D01*
X139152761Y-67197865D01*
X139152759Y-67197867D01*
X139092593Y-67280677D01*
X139032426Y-67363490D01*
X139005285Y-67416757D01*
X138957310Y-67467552D01*
X138889489Y-67484347D01*
X138823355Y-67461809D01*
X138784317Y-67416757D01*
X138757175Y-67363490D01*
X138757173Y-67363487D01*
X138636843Y-67197867D01*
X138492085Y-67053109D01*
X138326464Y-66932778D01*
X138144058Y-66839836D01*
X138144055Y-66839835D01*
X137949360Y-66776576D01*
X137747165Y-66744551D01*
X137747160Y-66744551D01*
X137542442Y-66744551D01*
X137542437Y-66744551D01*
X137340241Y-66776576D01*
X137145546Y-66839835D01*
X137145543Y-66839836D01*
X136963137Y-66932778D01*
X136868644Y-67001431D01*
X136797517Y-67053109D01*
X136797515Y-67053111D01*
X136797514Y-67053111D01*
X136652761Y-67197864D01*
X136652761Y-67197865D01*
X136652759Y-67197867D01*
X136592593Y-67280677D01*
X136532426Y-67363490D01*
X136505285Y-67416757D01*
X136457310Y-67467552D01*
X136389489Y-67484347D01*
X136323355Y-67461809D01*
X136284317Y-67416757D01*
X136257175Y-67363490D01*
X136257173Y-67363487D01*
X136136843Y-67197867D01*
X135992085Y-67053109D01*
X135826464Y-66932778D01*
X135644058Y-66839836D01*
X135644055Y-66839835D01*
X135449360Y-66776576D01*
X135247165Y-66744551D01*
X135247160Y-66744551D01*
X135042442Y-66744551D01*
X135042437Y-66744551D01*
X134840241Y-66776576D01*
X134645546Y-66839835D01*
X134645543Y-66839836D01*
X134463137Y-66932778D01*
X134368644Y-67001431D01*
X134297517Y-67053109D01*
X134297515Y-67053111D01*
X134297514Y-67053111D01*
X134152761Y-67197864D01*
X134152761Y-67197865D01*
X134152759Y-67197867D01*
X134092593Y-67280677D01*
X134032426Y-67363490D01*
X134024776Y-67378504D01*
X133976801Y-67429298D01*
X133941745Y-67441292D01*
X133942082Y-67442548D01*
X133934233Y-67444651D01*
X133934232Y-67444651D01*
X133781504Y-67485574D01*
X133781503Y-67485574D01*
X133781501Y-67485575D01*
X133781498Y-67485576D01*
X133731385Y-67514510D01*
X133731384Y-67514511D01*
X133687978Y-67539571D01*
X133644574Y-67564630D01*
X133644571Y-67564632D01*
X128470316Y-72738887D01*
X128470314Y-72738890D01*
X128420196Y-72825699D01*
X128420194Y-72825701D01*
X128391260Y-72875814D01*
X128391259Y-72875815D01*
X128391258Y-72875820D01*
X128350334Y-73028548D01*
X128350334Y-73028550D01*
X128350334Y-73196651D01*
X128350335Y-73196664D01*
X128350335Y-87064162D01*
X128350334Y-87064180D01*
X128350334Y-87229886D01*
X128350333Y-87229886D01*
X128350334Y-87229889D01*
X128391258Y-87382617D01*
X128407216Y-87410256D01*
X128449282Y-87483117D01*
X128470314Y-87519547D01*
X128589184Y-87638417D01*
X128589190Y-87638422D01*
X129429490Y-88478722D01*
X129462975Y-88540045D01*
X129457991Y-88609737D01*
X129416119Y-88665670D01*
X129350655Y-88690087D01*
X129282382Y-88675235D01*
X129268924Y-88666722D01*
X129175009Y-88598489D01*
X128994388Y-88506458D01*
X128994387Y-88506457D01*
X128994386Y-88506457D01*
X128801588Y-88443813D01*
X128801586Y-88443812D01*
X128801584Y-88443812D01*
X128625488Y-88415921D01*
X128601364Y-88412100D01*
X128398644Y-88412100D01*
X128374520Y-88415921D01*
X128198423Y-88443812D01*
X128005619Y-88506458D01*
X127824994Y-88598492D01*
X127660999Y-88717639D01*
X127517643Y-88860995D01*
X127398496Y-89024990D01*
X127306462Y-89205615D01*
X127243816Y-89398419D01*
X127212104Y-89598640D01*
X126787905Y-89598640D01*
X126756192Y-89398416D01*
X126693548Y-89205618D01*
X126601515Y-89024994D01*
X126571076Y-88983098D01*
X126482365Y-88860995D01*
X126339009Y-88717639D01*
X126175014Y-88598492D01*
X126175013Y-88598491D01*
X126175011Y-88598490D01*
X125994387Y-88506457D01*
X125801589Y-88443813D01*
X125801587Y-88443812D01*
X125801585Y-88443812D01*
X125625489Y-88415921D01*
X125601365Y-88412100D01*
X125398645Y-88412100D01*
X125374521Y-88415921D01*
X125198424Y-88443812D01*
X125005620Y-88506458D01*
X124824995Y-88598492D01*
X124661000Y-88717639D01*
X124517644Y-88860995D01*
X124398497Y-89024990D01*
X124306463Y-89205615D01*
X124243817Y-89398419D01*
X124212105Y-89598640D01*
X118200858Y-89598640D01*
X118208380Y-58256268D01*
X118228081Y-58189235D01*
X118280896Y-58143492D01*
X118332380Y-58132299D01*
X120303071Y-58132299D01*
X120303072Y-58132299D01*
X120362683Y-58125891D01*
X120497531Y-58075596D01*
X120612746Y-57989346D01*
X120698992Y-57874137D01*
X120698994Y-57874134D01*
X120703244Y-57866351D01*
X120706240Y-57867986D01*
X120738230Y-57825242D01*
X120803692Y-57800817D01*
X120812553Y-57800500D01*
X125387447Y-57800500D01*
X125454486Y-57820185D01*
X125495217Y-57867191D01*
X125496756Y-57866351D01*
X125501005Y-57874134D01*
X125587252Y-57989344D01*
X125587255Y-57989347D01*
X125702464Y-58075593D01*
X125702471Y-58075597D01*
X125837317Y-58125891D01*
X125837316Y-58125891D01*
X125844244Y-58126635D01*
X125896927Y-58132300D01*
X127999272Y-58132299D01*
X128058883Y-58125891D01*
X128193731Y-58075596D01*
X128308946Y-57989346D01*
X128395196Y-57874131D01*
X128445491Y-57739283D01*
X128451900Y-57679673D01*
X128451899Y-56720328D01*
X128446525Y-56670336D01*
X138148100Y-56670336D01*
X138148100Y-57629671D01*
X138148101Y-57629677D01*
X138154508Y-57689284D01*
X138204802Y-57824129D01*
X138204806Y-57824136D01*
X138291052Y-57939345D01*
X138291055Y-57939348D01*
X138406264Y-58025594D01*
X138406271Y-58025598D01*
X138541117Y-58075892D01*
X138541116Y-58075892D01*
X138548044Y-58076636D01*
X138600727Y-58082301D01*
X140703072Y-58082300D01*
X140762683Y-58075892D01*
X140897531Y-58025597D01*
X141012746Y-57939347D01*
X141098996Y-57824132D01*
X141098996Y-57824129D01*
X141103244Y-57816352D01*
X141106240Y-57817987D01*
X141138230Y-57775243D01*
X141203692Y-57750818D01*
X141212553Y-57750501D01*
X145787447Y-57750501D01*
X145854486Y-57770186D01*
X145895217Y-57817192D01*
X145896756Y-57816352D01*
X145901005Y-57824135D01*
X145987252Y-57939345D01*
X145987255Y-57939348D01*
X146102464Y-58025594D01*
X146102471Y-58025598D01*
X146237317Y-58075892D01*
X146237316Y-58075892D01*
X146244244Y-58076636D01*
X146296927Y-58082301D01*
X148399272Y-58082300D01*
X148458883Y-58075892D01*
X148593731Y-58025597D01*
X148708946Y-57939347D01*
X148795196Y-57824132D01*
X148845491Y-57689284D01*
X148851900Y-57629674D01*
X148851899Y-56670329D01*
X148845491Y-56610718D01*
X148841189Y-56599185D01*
X148795197Y-56475872D01*
X148795193Y-56475865D01*
X148708947Y-56360656D01*
X148708944Y-56360653D01*
X148593735Y-56274407D01*
X148593728Y-56274403D01*
X148458882Y-56224109D01*
X148458883Y-56224109D01*
X148399283Y-56217702D01*
X148399281Y-56217701D01*
X148399273Y-56217701D01*
X148399264Y-56217701D01*
X146296929Y-56217701D01*
X146296923Y-56217702D01*
X146237316Y-56224109D01*
X146102471Y-56274403D01*
X146102464Y-56274407D01*
X145987255Y-56360653D01*
X145987252Y-56360656D01*
X145901005Y-56475866D01*
X145896756Y-56483650D01*
X145893759Y-56482014D01*
X145861770Y-56524759D01*
X145796308Y-56549184D01*
X145787447Y-56549501D01*
X141212553Y-56549501D01*
X141145514Y-56529816D01*
X141104782Y-56482809D01*
X141103244Y-56483650D01*
X141098994Y-56475866D01*
X141012747Y-56360656D01*
X141012744Y-56360653D01*
X140897535Y-56274407D01*
X140897528Y-56274403D01*
X140762682Y-56224109D01*
X140762683Y-56224109D01*
X140703083Y-56217702D01*
X140703081Y-56217701D01*
X140703073Y-56217701D01*
X140703064Y-56217701D01*
X138600729Y-56217701D01*
X138600723Y-56217702D01*
X138541116Y-56224109D01*
X138406271Y-56274403D01*
X138406264Y-56274407D01*
X138291055Y-56360653D01*
X138291052Y-56360656D01*
X138204806Y-56475865D01*
X138204802Y-56475872D01*
X138154508Y-56610718D01*
X138149133Y-56660716D01*
X138148101Y-56670324D01*
X138148100Y-56670336D01*
X128446525Y-56670336D01*
X128445491Y-56660717D01*
X128403892Y-56549184D01*
X128395197Y-56525871D01*
X128395193Y-56525864D01*
X128308947Y-56410655D01*
X128308944Y-56410652D01*
X128193735Y-56324406D01*
X128193728Y-56324402D01*
X128058882Y-56274108D01*
X128058883Y-56274108D01*
X127999283Y-56267701D01*
X127999281Y-56267700D01*
X127999273Y-56267700D01*
X127999264Y-56267700D01*
X125896929Y-56267700D01*
X125896923Y-56267701D01*
X125837316Y-56274108D01*
X125702471Y-56324402D01*
X125702464Y-56324406D01*
X125587255Y-56410652D01*
X125587252Y-56410655D01*
X125501005Y-56525865D01*
X125496756Y-56533649D01*
X125493759Y-56532013D01*
X125461770Y-56574758D01*
X125396308Y-56599183D01*
X125387447Y-56599500D01*
X120812553Y-56599500D01*
X120745514Y-56579815D01*
X120704782Y-56532808D01*
X120703244Y-56533649D01*
X120698994Y-56525865D01*
X120612747Y-56410655D01*
X120612744Y-56410652D01*
X120497535Y-56324406D01*
X120497528Y-56324402D01*
X120362682Y-56274108D01*
X120362683Y-56274108D01*
X120303083Y-56267701D01*
X120303081Y-56267700D01*
X120303073Y-56267700D01*
X120303065Y-56267700D01*
X118332888Y-56267700D01*
X118265849Y-56248015D01*
X118220094Y-56195211D01*
X118208888Y-56143670D01*
X118209460Y-53756267D01*
X118229161Y-53689233D01*
X118281976Y-53643490D01*
X118333460Y-53632297D01*
X120303071Y-53632297D01*
X120303072Y-53632297D01*
X120362683Y-53625889D01*
X120497531Y-53575594D01*
X120612746Y-53489344D01*
X120698992Y-53374135D01*
X120698994Y-53374132D01*
X120703244Y-53366349D01*
X120706240Y-53367984D01*
X120738230Y-53325240D01*
X120803692Y-53300815D01*
X120812553Y-53300498D01*
X125387447Y-53300498D01*
X125454486Y-53320183D01*
X125495217Y-53367189D01*
X125496756Y-53366349D01*
X125501005Y-53374132D01*
X125587252Y-53489342D01*
X125587255Y-53489345D01*
X125702464Y-53575591D01*
X125702471Y-53575595D01*
X125837317Y-53625889D01*
X125837316Y-53625889D01*
X125844244Y-53626633D01*
X125896927Y-53632298D01*
X127999272Y-53632297D01*
X128058883Y-53625889D01*
X128193731Y-53575594D01*
X128308946Y-53489344D01*
X128395196Y-53374129D01*
X128445491Y-53239281D01*
X128451900Y-53179671D01*
X128451899Y-52220326D01*
X128446525Y-52170334D01*
X138148100Y-52170334D01*
X138148100Y-53129669D01*
X138148101Y-53129675D01*
X138154508Y-53189282D01*
X138204802Y-53324127D01*
X138204806Y-53324134D01*
X138291052Y-53439343D01*
X138291055Y-53439346D01*
X138406264Y-53525592D01*
X138406271Y-53525596D01*
X138541117Y-53575890D01*
X138541116Y-53575890D01*
X138548044Y-53576634D01*
X138600727Y-53582299D01*
X140703072Y-53582298D01*
X140762683Y-53575890D01*
X140897531Y-53525595D01*
X141012746Y-53439345D01*
X141098996Y-53324130D01*
X141098996Y-53324127D01*
X141103244Y-53316350D01*
X141106240Y-53317985D01*
X141138230Y-53275241D01*
X141203692Y-53250816D01*
X141212553Y-53250499D01*
X145787447Y-53250499D01*
X145854486Y-53270184D01*
X145895217Y-53317190D01*
X145896756Y-53316350D01*
X145901005Y-53324133D01*
X145987252Y-53439343D01*
X145987255Y-53439346D01*
X146102464Y-53525592D01*
X146102471Y-53525596D01*
X146237317Y-53575890D01*
X146237316Y-53575890D01*
X146244244Y-53576634D01*
X146296927Y-53582299D01*
X148399272Y-53582298D01*
X148458883Y-53575890D01*
X148593731Y-53525595D01*
X148708946Y-53439345D01*
X148795196Y-53324130D01*
X148845491Y-53189282D01*
X148851900Y-53129672D01*
X148851899Y-52170327D01*
X148845491Y-52110716D01*
X148841189Y-52099183D01*
X148795197Y-51975870D01*
X148795193Y-51975863D01*
X148708947Y-51860654D01*
X148708944Y-51860651D01*
X148593735Y-51774405D01*
X148593728Y-51774401D01*
X148458882Y-51724107D01*
X148458883Y-51724107D01*
X148399283Y-51717700D01*
X148399281Y-51717699D01*
X148399273Y-51717699D01*
X148399264Y-51717699D01*
X146296929Y-51717699D01*
X146296923Y-51717700D01*
X146237316Y-51724107D01*
X146102471Y-51774401D01*
X146102464Y-51774405D01*
X145987255Y-51860651D01*
X145987252Y-51860654D01*
X145901005Y-51975864D01*
X145896756Y-51983648D01*
X145893759Y-51982012D01*
X145861770Y-52024757D01*
X145796308Y-52049182D01*
X145787447Y-52049499D01*
X141212553Y-52049499D01*
X141145514Y-52029814D01*
X141104782Y-51982807D01*
X141103244Y-51983648D01*
X141098994Y-51975864D01*
X141012747Y-51860654D01*
X141012744Y-51860651D01*
X140897535Y-51774405D01*
X140897528Y-51774401D01*
X140762682Y-51724107D01*
X140762683Y-51724107D01*
X140703083Y-51717700D01*
X140703081Y-51717699D01*
X140703073Y-51717699D01*
X140703064Y-51717699D01*
X138600729Y-51717699D01*
X138600723Y-51717700D01*
X138541116Y-51724107D01*
X138406271Y-51774401D01*
X138406264Y-51774405D01*
X138291055Y-51860651D01*
X138291052Y-51860654D01*
X138204806Y-51975863D01*
X138204802Y-51975870D01*
X138154508Y-52110716D01*
X138149133Y-52160714D01*
X138148101Y-52170322D01*
X138148100Y-52170334D01*
X128446525Y-52170334D01*
X128445491Y-52160715D01*
X128403892Y-52049182D01*
X128395197Y-52025869D01*
X128395193Y-52025862D01*
X128308947Y-51910653D01*
X128308944Y-51910650D01*
X128193735Y-51824404D01*
X128193728Y-51824400D01*
X128058882Y-51774106D01*
X128058883Y-51774106D01*
X127999283Y-51767699D01*
X127999281Y-51767698D01*
X127999273Y-51767698D01*
X127999264Y-51767698D01*
X125896929Y-51767698D01*
X125896923Y-51767699D01*
X125837316Y-51774106D01*
X125702471Y-51824400D01*
X125702464Y-51824404D01*
X125587255Y-51910650D01*
X125587252Y-51910653D01*
X125501005Y-52025863D01*
X125496756Y-52033647D01*
X125493759Y-52032011D01*
X125461770Y-52074756D01*
X125396308Y-52099181D01*
X125387447Y-52099498D01*
X120812553Y-52099498D01*
X120745514Y-52079813D01*
X120704782Y-52032806D01*
X120703244Y-52033647D01*
X120698994Y-52025863D01*
X120612747Y-51910653D01*
X120612744Y-51910650D01*
X120497535Y-51824404D01*
X120497528Y-51824400D01*
X120362682Y-51774106D01*
X120362683Y-51774106D01*
X120303083Y-51767699D01*
X120303081Y-51767698D01*
X120303073Y-51767698D01*
X120303065Y-51767698D01*
X118693176Y-51767698D01*
X118686139Y-51765631D01*
X118678911Y-51766875D01*
X118653062Y-51755919D01*
X118626137Y-51748013D01*
X118621335Y-51742471D01*
X118614581Y-51739609D01*
X118598758Y-51716416D01*
X118580382Y-51695209D01*
X118579338Y-51687950D01*
X118575205Y-51681892D01*
X118574432Y-51653834D01*
X118570438Y-51626051D01*
X118573437Y-51617658D01*
X118573283Y-51612048D01*
X118587056Y-51579553D01*
X118595163Y-51566142D01*
X118603653Y-51553841D01*
X118758225Y-51356545D01*
X118768140Y-51345354D01*
X118945354Y-51168140D01*
X118956545Y-51158225D01*
X119153841Y-51003653D01*
X119166137Y-50995166D01*
X119380630Y-50865501D01*
X119393858Y-50858558D01*
X119622409Y-50755695D01*
X119636384Y-50750394D01*
X119875662Y-50675832D01*
X119890179Y-50672253D01*
X120136695Y-50627077D01*
X120151553Y-50625273D01*
X120405454Y-50609913D01*
X120412941Y-50609688D01*
X120475082Y-50609688D01*
X199924918Y-50609688D01*
X199987059Y-50609688D01*
X199994545Y-50609913D01*
G37*
%TD.AperFunction*%
%TD*%
M02*
