%TF.GenerationSoftware,KiCad,Pcbnew,7.0.7*%
%TF.CreationDate,2024-05-10T07:30:13-05:00*%
%TF.ProjectId,WaterBlasterV2,57617465-7242-46c6-9173-74657256322e,rev?*%
%TF.SameCoordinates,Original*%
%TF.FileFunction,Soldermask,Top*%
%TF.FilePolarity,Negative*%
%FSLAX46Y46*%
G04 Gerber Fmt 4.6, Leading zero omitted, Abs format (unit mm)*
G04 Created by KiCad (PCBNEW 7.0.7) date 2024-05-10 07:30:13*
%MOMM*%
%LPD*%
G01*
G04 APERTURE LIST*
G04 Aperture macros list*
%AMRoundRect*
0 Rectangle with rounded corners*
0 $1 Rounding radius*
0 $2 $3 $4 $5 $6 $7 $8 $9 X,Y pos of 4 corners*
0 Add a 4 corners polygon primitive as box body*
4,1,4,$2,$3,$4,$5,$6,$7,$8,$9,$2,$3,0*
0 Add four circle primitives for the rounded corners*
1,1,$1+$1,$2,$3*
1,1,$1+$1,$4,$5*
1,1,$1+$1,$6,$7*
1,1,$1+$1,$8,$9*
0 Add four rect primitives between the rounded corners*
20,1,$1+$1,$2,$3,$4,$5,0*
20,1,$1+$1,$4,$5,$6,$7,0*
20,1,$1+$1,$6,$7,$8,$9,0*
20,1,$1+$1,$8,$9,$2,$3,0*%
G04 Aperture macros list end*
%ADD10C,0.836200*%
%ADD11C,0.711200*%
%ADD12C,0.010000*%
%ADD13C,1.270000*%
%ADD14RoundRect,0.125000X-0.625000X-0.125000X0.625000X-0.125000X0.625000X0.125000X-0.625000X0.125000X0*%
%ADD15RoundRect,0.125000X-0.125000X-0.625000X0.125000X-0.625000X0.125000X0.625000X-0.125000X0.625000X0*%
%ADD16R,1.520000X1.520000*%
%ADD17C,1.520000*%
%ADD18C,2.999999*%
%ADD19R,0.863600X2.006600*%
%ADD20RoundRect,0.250000X0.350000X-0.850000X0.350000X0.850000X-0.350000X0.850000X-0.350000X-0.850000X0*%
%ADD21RoundRect,0.249997X2.650003X-2.950003X2.650003X2.950003X-2.650003X2.950003X-2.650003X-2.950003X0*%
%ADD22RoundRect,0.250000X-0.850000X-0.350000X0.850000X-0.350000X0.850000X0.350000X-0.850000X0.350000X0*%
%ADD23RoundRect,0.249997X-2.950003X-2.650003X2.950003X-2.650003X2.950003X2.650003X-2.950003X2.650003X0*%
%ADD24C,1.168400*%
%ADD25O,1.500000X2.020000*%
%ADD26RoundRect,0.250001X0.499999X0.759999X-0.499999X0.759999X-0.499999X-0.759999X0.499999X-0.759999X0*%
%ADD27C,3.000000*%
%ADD28RoundRect,0.250001X-0.499999X-0.759999X0.499999X-0.759999X0.499999X0.759999X-0.499999X0.759999X0*%
%ADD29R,1.500000X2.300000*%
%ADD30O,1.500000X2.300000*%
%ADD31R,2.000000X1.500000*%
%ADD32R,2.000000X3.800000*%
%ADD33C,1.000000*%
%ADD34R,2.200000X1.500000*%
%ADD35C,2.500000*%
%ADD36RoundRect,0.237500X0.237500X-0.287500X0.237500X0.287500X-0.237500X0.287500X-0.237500X-0.287500X0*%
G04 APERTURE END LIST*
D10*
%TO.C,J12*%
X115927100Y-72692000D02*
G75*
G03*
X115927100Y-72692000I-418100J0D01*
G01*
D11*
X113904600Y-69692000D02*
G75*
G03*
X113904600Y-69692000I-355600J0D01*
G01*
X113904600Y-81692000D02*
G75*
G03*
X113904600Y-81692000I-355600J0D01*
G01*
D10*
X115927100Y-75692000D02*
G75*
G03*
X115927100Y-75692000I-418100J0D01*
G01*
D12*
X116345200Y-79528200D02*
X114672800Y-79528200D01*
X114672800Y-77855800D01*
X116345200Y-77855800D01*
X116345200Y-79528200D01*
G36*
X116345200Y-79528200D02*
G01*
X114672800Y-79528200D01*
X114672800Y-77855800D01*
X116345200Y-77855800D01*
X116345200Y-79528200D01*
G37*
D10*
%TO.C,J11*%
X102399100Y-92552000D02*
G75*
G03*
X102399100Y-92552000I-418100J0D01*
G01*
D11*
X100376600Y-89552000D02*
G75*
G03*
X100376600Y-89552000I-355600J0D01*
G01*
X100376600Y-101552000D02*
G75*
G03*
X100376600Y-101552000I-355600J0D01*
G01*
D10*
X102399100Y-95552000D02*
G75*
G03*
X102399100Y-95552000I-418100J0D01*
G01*
D12*
X102817200Y-99388200D02*
X101144800Y-99388200D01*
X101144800Y-97715800D01*
X102817200Y-97715800D01*
X102817200Y-99388200D01*
G36*
X102817200Y-99388200D02*
G01*
X101144800Y-99388200D01*
X101144800Y-97715800D01*
X102817200Y-97715800D01*
X102817200Y-99388200D01*
G37*
%TO.C,J9*%
X105055200Y-85037200D02*
X103382800Y-85037200D01*
X103382800Y-83364800D01*
X105055200Y-83364800D01*
X105055200Y-85037200D01*
G36*
X105055200Y-85037200D02*
G01*
X103382800Y-85037200D01*
X103382800Y-83364800D01*
X105055200Y-83364800D01*
X105055200Y-85037200D01*
G37*
D10*
X101637100Y-84201000D02*
G75*
G03*
X101637100Y-84201000I-418100J0D01*
G01*
D11*
X107574600Y-86161000D02*
G75*
G03*
X107574600Y-86161000I-355600J0D01*
G01*
X98574600Y-86161000D02*
G75*
G03*
X98574600Y-86161000I-355600J0D01*
G01*
%TO.C,J10*%
X124125600Y-80634000D02*
G75*
G03*
X124125600Y-80634000I-355600J0D01*
G01*
X133125600Y-80634000D02*
G75*
G03*
X133125600Y-80634000I-355600J0D01*
G01*
D10*
X127188100Y-78674000D02*
G75*
G03*
X127188100Y-78674000I-418100J0D01*
G01*
D12*
X130606200Y-79510200D02*
X128933800Y-79510200D01*
X128933800Y-77837800D01*
X130606200Y-77837800D01*
X130606200Y-79510200D01*
G36*
X130606200Y-79510200D02*
G01*
X128933800Y-79510200D01*
X128933800Y-77837800D01*
X130606200Y-77837800D01*
X130606200Y-79510200D01*
G37*
%TO.C,J8*%
X102024200Y-74043200D02*
X100351800Y-74043200D01*
X100351800Y-72370800D01*
X102024200Y-72370800D01*
X102024200Y-74043200D01*
G36*
X102024200Y-74043200D02*
G01*
X100351800Y-74043200D01*
X100351800Y-72370800D01*
X102024200Y-72370800D01*
X102024200Y-74043200D01*
G37*
D10*
X104606100Y-73207000D02*
G75*
G03*
X104606100Y-73207000I-418100J0D01*
G01*
D11*
X98543600Y-71247000D02*
G75*
G03*
X98543600Y-71247000I-355600J0D01*
G01*
X107543600Y-71247000D02*
G75*
G03*
X107543600Y-71247000I-355600J0D01*
G01*
%TO.C,J5*%
D12*
X103899200Y-114731200D02*
X102226800Y-114731200D01*
X102226800Y-113058800D01*
X103899200Y-113058800D01*
X103899200Y-114731200D01*
G36*
X103899200Y-114731200D02*
G01*
X102226800Y-114731200D01*
X102226800Y-113058800D01*
X103899200Y-113058800D01*
X103899200Y-114731200D01*
G37*
D10*
X103481100Y-110895000D02*
G75*
G03*
X103481100Y-110895000I-418100J0D01*
G01*
D11*
X101458600Y-116895000D02*
G75*
G03*
X101458600Y-116895000I-355600J0D01*
G01*
X101458600Y-107895000D02*
G75*
G03*
X101458600Y-107895000I-355600J0D01*
G01*
%TO.C,J4*%
D12*
X112977200Y-114707200D02*
X111304800Y-114707200D01*
X111304800Y-113034800D01*
X112977200Y-113034800D01*
X112977200Y-114707200D01*
G36*
X112977200Y-114707200D02*
G01*
X111304800Y-114707200D01*
X111304800Y-113034800D01*
X112977200Y-113034800D01*
X112977200Y-114707200D01*
G37*
D10*
X112559100Y-110871000D02*
G75*
G03*
X112559100Y-110871000I-418100J0D01*
G01*
D11*
X110536600Y-116871000D02*
G75*
G03*
X110536600Y-116871000I-355600J0D01*
G01*
X110536600Y-107871000D02*
G75*
G03*
X110536600Y-107871000I-355600J0D01*
G01*
%TO.C,J3*%
D12*
X121994200Y-114707200D02*
X120321800Y-114707200D01*
X120321800Y-113034800D01*
X121994200Y-113034800D01*
X121994200Y-114707200D01*
G36*
X121994200Y-114707200D02*
G01*
X120321800Y-114707200D01*
X120321800Y-113034800D01*
X121994200Y-113034800D01*
X121994200Y-114707200D01*
G37*
D10*
X121576100Y-110871000D02*
G75*
G03*
X121576100Y-110871000I-418100J0D01*
G01*
D11*
X119553600Y-116871000D02*
G75*
G03*
X119553600Y-116871000I-355600J0D01*
G01*
X119553600Y-107871000D02*
G75*
G03*
X119553600Y-107871000I-355600J0D01*
G01*
%TD*%
D13*
%TO.C,J12*%
X113549000Y-69692000D03*
X113549000Y-81692000D03*
%TD*%
%TO.C,J11*%
X100021000Y-89552000D03*
X100021000Y-101552000D03*
%TD*%
%TO.C,J9*%
X107219000Y-86161000D03*
X98219000Y-86161000D03*
%TD*%
%TO.C,J10*%
X123770000Y-80634000D03*
X132770000Y-80634000D03*
%TD*%
%TO.C,J8*%
X98188000Y-71247000D03*
X107188000Y-71247000D03*
%TD*%
%TO.C,J5*%
X101103000Y-116895000D03*
X101103000Y-107895000D03*
%TD*%
%TO.C,J4*%
X110181000Y-116871000D03*
X110181000Y-107871000D03*
%TD*%
%TO.C,J3*%
X119198000Y-116871000D03*
X119198000Y-107871000D03*
%TD*%
D14*
%TO.C,U3*%
X116618000Y-93714000D03*
X116618000Y-94514000D03*
X116618000Y-95314000D03*
X116618000Y-96114000D03*
X116618000Y-96914000D03*
X116618000Y-97714000D03*
X116618000Y-98514000D03*
X116618000Y-99314000D03*
D15*
X117993000Y-100689000D03*
X118793000Y-100689000D03*
X119593000Y-100689000D03*
X120393000Y-100689000D03*
X121193000Y-100689000D03*
X121993000Y-100689000D03*
X122793000Y-100689000D03*
X123593000Y-100689000D03*
D14*
X124968000Y-99314000D03*
X124968000Y-98514000D03*
X124968000Y-97714000D03*
X124968000Y-96914000D03*
X124968000Y-96114000D03*
X124968000Y-95314000D03*
X124968000Y-94514000D03*
X124968000Y-93714000D03*
D15*
X123593000Y-92339000D03*
X122793000Y-92339000D03*
X121993000Y-92339000D03*
X121193000Y-92339000D03*
X120393000Y-92339000D03*
X119593000Y-92339000D03*
X118793000Y-92339000D03*
X117993000Y-92339000D03*
%TD*%
D16*
%TO.C,J16*%
X110109000Y-127762000D03*
D17*
X107109001Y-127762000D03*
X104109002Y-127762000D03*
X101109003Y-127762000D03*
X110109000Y-124762001D03*
X107109001Y-124762001D03*
X104109002Y-124762001D03*
X101109003Y-124762001D03*
D18*
X107968994Y-132081999D03*
X103269004Y-132081999D03*
%TD*%
D19*
%TO.C,SW1*%
X114518001Y-85305900D03*
X114518001Y-93002100D03*
X110017999Y-85305900D03*
X110017999Y-93002100D03*
%TD*%
D20*
%TO.C,Q2*%
X135895000Y-76253000D03*
X140455000Y-76253000D03*
D21*
X138175000Y-69953000D03*
%TD*%
D22*
%TO.C,Q1*%
X119244000Y-121164000D03*
X119244000Y-125724000D03*
D23*
X125544000Y-123444000D03*
%TD*%
D24*
%TO.C,J2*%
X128397000Y-85598000D03*
X128397000Y-86868000D03*
X127127000Y-85598000D03*
X127127000Y-86868000D03*
X125857000Y-85598000D03*
X125857000Y-86868000D03*
X124587000Y-85598000D03*
X124587000Y-86868000D03*
X123317000Y-85598000D03*
X123317000Y-86868000D03*
%TD*%
D25*
%TO.C,J15*%
X119047000Y-128491000D03*
X122047000Y-128491000D03*
D26*
X125047000Y-128491000D03*
D27*
X122047000Y-132811000D03*
%TD*%
D25*
%TO.C,J14*%
X132032000Y-64676000D03*
X129032000Y-64676000D03*
D28*
X126032000Y-64676000D03*
D27*
X129032000Y-60356000D03*
%TD*%
D25*
%TO.C,J13*%
X132763000Y-128522000D03*
X135763000Y-128522000D03*
D26*
X138763000Y-128522000D03*
D27*
X135763000Y-132842000D03*
%TD*%
D29*
%TO.C,U2*%
X132427000Y-111808500D03*
D30*
X134967000Y-111808500D03*
X137507000Y-111808500D03*
%TD*%
D31*
%TO.C,U1*%
X138024000Y-95998000D03*
X138024000Y-98298000D03*
D32*
X131724000Y-98298000D03*
D31*
X138024000Y-100598000D03*
%TD*%
D33*
%TO.C,MISO*%
X106426000Y-121158000D03*
%TD*%
%TO.C,MOSI*%
X109474000Y-121158000D03*
%TD*%
%TO.C,SCK*%
X103378000Y-121158000D03*
%TD*%
%TO.C,~{CS}*%
X112524000Y-121158000D03*
%TD*%
%TO.C,~{RST}*%
X115570000Y-121158000D03*
%TD*%
%TO.C,VGND*%
X125730000Y-68834000D03*
%TD*%
%TO.C,VPWR*%
X129032000Y-72390000D03*
%TD*%
%TO.C,PPWR*%
X140462000Y-116205000D03*
%TD*%
%TO.C,PGND*%
X136144000Y-115951000D03*
%TD*%
%TO.C,PCTRL*%
X130937000Y-116078000D03*
%TD*%
%TO.C,VCTRL*%
X132207000Y-68707000D03*
%TD*%
%TO.C,5V*%
X140970000Y-103759000D03*
%TD*%
%TO.C,GND*%
X128524000Y-103124000D03*
%TD*%
%TO.C,3V3*%
X125476000Y-103124000D03*
%TD*%
D34*
%TO.C,L1*%
X132969000Y-118110000D03*
X132969000Y-124510000D03*
%TD*%
D27*
%TO.C,J7*%
X106045000Y-60356000D03*
D28*
X104545000Y-64676000D03*
D25*
X107545000Y-64676000D03*
%TD*%
%TO.C,J6*%
X118340000Y-64676000D03*
D28*
X115340000Y-64676000D03*
D27*
X116840000Y-60356000D03*
%TD*%
D35*
%TO.C,H4*%
X139700000Y-120142000D03*
%TD*%
%TO.C,H3*%
X99568000Y-120269000D03*
%TD*%
%TO.C,H2*%
X139573000Y-60325000D03*
%TD*%
%TO.C,H1*%
X99314000Y-61118000D03*
%TD*%
D36*
%TO.C,D4*%
X129921000Y-93331000D03*
X129921000Y-91581000D03*
%TD*%
%TO.C,D3*%
X132969000Y-93077000D03*
X132969000Y-91327000D03*
%TD*%
%TO.C,D2*%
X136144000Y-91454000D03*
X136144000Y-93204000D03*
%TD*%
%TO.C,D1*%
X139319000Y-93077000D03*
X139319000Y-91327000D03*
%TD*%
M02*
