%TF.GenerationSoftware,KiCad,Pcbnew,7.0.7*%
%TF.CreationDate,2024-05-10T07:30:13-05:00*%
%TF.ProjectId,WaterBlasterV2,57617465-7242-46c6-9173-74657256322e,rev?*%
%TF.SameCoordinates,Original*%
%TF.FileFunction,Paste,Top*%
%TF.FilePolarity,Positive*%
%FSLAX46Y46*%
G04 Gerber Fmt 4.6, Leading zero omitted, Abs format (unit mm)*
G04 Created by KiCad (PCBNEW 7.0.7) date 2024-05-10 07:30:13*
%MOMM*%
%LPD*%
G01*
G04 APERTURE LIST*
G04 Aperture macros list*
%AMRoundRect*
0 Rectangle with rounded corners*
0 $1 Rounding radius*
0 $2 $3 $4 $5 $6 $7 $8 $9 X,Y pos of 4 corners*
0 Add a 4 corners polygon primitive as box body*
4,1,4,$2,$3,$4,$5,$6,$7,$8,$9,$2,$3,0*
0 Add four circle primitives for the rounded corners*
1,1,$1+$1,$2,$3*
1,1,$1+$1,$4,$5*
1,1,$1+$1,$6,$7*
1,1,$1+$1,$8,$9*
0 Add four rect primitives between the rounded corners*
20,1,$1+$1,$2,$3,$4,$5,0*
20,1,$1+$1,$4,$5,$6,$7,0*
20,1,$1+$1,$6,$7,$8,$9,0*
20,1,$1+$1,$8,$9,$2,$3,0*%
G04 Aperture macros list end*
%ADD10RoundRect,0.125000X-0.625000X-0.125000X0.625000X-0.125000X0.625000X0.125000X-0.625000X0.125000X0*%
%ADD11RoundRect,0.125000X-0.125000X-0.625000X0.125000X-0.625000X0.125000X0.625000X-0.125000X0.625000X0*%
%ADD12R,0.863600X2.006600*%
%ADD13RoundRect,0.250000X0.350000X-0.850000X0.350000X0.850000X-0.350000X0.850000X-0.350000X-0.850000X0*%
%ADD14RoundRect,0.250000X1.125000X-1.275000X1.125000X1.275000X-1.125000X1.275000X-1.125000X-1.275000X0*%
%ADD15RoundRect,0.250000X-0.850000X-0.350000X0.850000X-0.350000X0.850000X0.350000X-0.850000X0.350000X0*%
%ADD16RoundRect,0.250000X-1.275000X-1.125000X1.275000X-1.125000X1.275000X1.125000X-1.275000X1.125000X0*%
%ADD17R,2.000000X1.500000*%
%ADD18R,2.000000X3.800000*%
%ADD19R,2.200000X1.500000*%
%ADD20RoundRect,0.237500X0.237500X-0.287500X0.237500X0.287500X-0.237500X0.287500X-0.237500X-0.287500X0*%
G04 APERTURE END LIST*
D10*
%TO.C,U3*%
X116618000Y-93714000D03*
X116618000Y-94514000D03*
X116618000Y-95314000D03*
X116618000Y-96114000D03*
X116618000Y-96914000D03*
X116618000Y-97714000D03*
X116618000Y-98514000D03*
X116618000Y-99314000D03*
D11*
X117993000Y-100689000D03*
X118793000Y-100689000D03*
X119593000Y-100689000D03*
X120393000Y-100689000D03*
X121193000Y-100689000D03*
X121993000Y-100689000D03*
X122793000Y-100689000D03*
X123593000Y-100689000D03*
D10*
X124968000Y-99314000D03*
X124968000Y-98514000D03*
X124968000Y-97714000D03*
X124968000Y-96914000D03*
X124968000Y-96114000D03*
X124968000Y-95314000D03*
X124968000Y-94514000D03*
X124968000Y-93714000D03*
D11*
X123593000Y-92339000D03*
X122793000Y-92339000D03*
X121993000Y-92339000D03*
X121193000Y-92339000D03*
X120393000Y-92339000D03*
X119593000Y-92339000D03*
X118793000Y-92339000D03*
X117993000Y-92339000D03*
%TD*%
D12*
%TO.C,SW1*%
X114518001Y-85305900D03*
X114518001Y-93002100D03*
X110017999Y-85305900D03*
X110017999Y-93002100D03*
%TD*%
D13*
%TO.C,Q2*%
X135895000Y-76253000D03*
X140455000Y-76253000D03*
D14*
X139700000Y-68278000D03*
X136650000Y-71628000D03*
X136650000Y-68278000D03*
X139700000Y-71628000D03*
%TD*%
D15*
%TO.C,Q1*%
X119244000Y-121164000D03*
X119244000Y-125724000D03*
D16*
X127219000Y-124969000D03*
X123869000Y-121919000D03*
X127219000Y-121919000D03*
X123869000Y-124969000D03*
%TD*%
D17*
%TO.C,U1*%
X138024000Y-95998000D03*
X138024000Y-98298000D03*
D18*
X131724000Y-98298000D03*
D17*
X138024000Y-100598000D03*
%TD*%
D19*
%TO.C,L1*%
X132969000Y-118110000D03*
X132969000Y-124510000D03*
%TD*%
D20*
%TO.C,D4*%
X129921000Y-93331000D03*
X129921000Y-91581000D03*
%TD*%
%TO.C,D3*%
X132969000Y-93077000D03*
X132969000Y-91327000D03*
%TD*%
%TO.C,D2*%
X136144000Y-91454000D03*
X136144000Y-93204000D03*
%TD*%
%TO.C,D1*%
X139319000Y-93077000D03*
X139319000Y-91327000D03*
%TD*%
M02*
