%TF.GenerationSoftware,KiCad,Pcbnew,7.0.7*%
%TF.CreationDate,2024-05-10T07:30:13-05:00*%
%TF.ProjectId,WaterBlasterV2,57617465-7242-46c6-9173-74657256322e,rev?*%
%TF.SameCoordinates,Original*%
%TF.FileFunction,Paste,Bot*%
%TF.FilePolarity,Positive*%
%FSLAX46Y46*%
G04 Gerber Fmt 4.6, Leading zero omitted, Abs format (unit mm)*
G04 Created by KiCad (PCBNEW 7.0.7) date 2024-05-10 07:30:13*
%MOMM*%
%LPD*%
G01*
G04 APERTURE LIST*
G04 Aperture macros list*
%AMRoundRect*
0 Rectangle with rounded corners*
0 $1 Rounding radius*
0 $2 $3 $4 $5 $6 $7 $8 $9 X,Y pos of 4 corners*
0 Add a 4 corners polygon primitive as box body*
4,1,4,$2,$3,$4,$5,$6,$7,$8,$9,$2,$3,0*
0 Add four circle primitives for the rounded corners*
1,1,$1+$1,$2,$3*
1,1,$1+$1,$4,$5*
1,1,$1+$1,$6,$7*
1,1,$1+$1,$8,$9*
0 Add four rect primitives between the rounded corners*
20,1,$1+$1,$2,$3,$4,$5,0*
20,1,$1+$1,$4,$5,$6,$7,0*
20,1,$1+$1,$6,$7,$8,$9,0*
20,1,$1+$1,$8,$9,$2,$3,0*%
G04 Aperture macros list end*
%ADD10RoundRect,0.218750X0.256250X-0.218750X0.256250X0.218750X-0.256250X0.218750X-0.256250X-0.218750X0*%
%ADD11RoundRect,0.237500X0.237500X-0.250000X0.237500X0.250000X-0.237500X0.250000X-0.237500X-0.250000X0*%
%ADD12RoundRect,0.237500X-0.237500X0.300000X-0.237500X-0.300000X0.237500X-0.300000X0.237500X0.300000X0*%
%ADD13RoundRect,0.237500X0.300000X0.237500X-0.300000X0.237500X-0.300000X-0.237500X0.300000X-0.237500X0*%
%ADD14RoundRect,0.237500X0.250000X0.237500X-0.250000X0.237500X-0.250000X-0.237500X0.250000X-0.237500X0*%
%ADD15RoundRect,0.237500X-0.250000X-0.237500X0.250000X-0.237500X0.250000X0.237500X-0.250000X0.237500X0*%
%ADD16RoundRect,0.237500X-0.237500X0.250000X-0.237500X-0.250000X0.237500X-0.250000X0.237500X0.250000X0*%
%ADD17RoundRect,0.250001X0.462499X0.624999X-0.462499X0.624999X-0.462499X-0.624999X0.462499X-0.624999X0*%
%ADD18RoundRect,0.250000X-0.375000X-0.625000X0.375000X-0.625000X0.375000X0.625000X-0.375000X0.625000X0*%
%ADD19RoundRect,0.237500X0.237500X-0.300000X0.237500X0.300000X-0.237500X0.300000X-0.237500X-0.300000X0*%
G04 APERTURE END LIST*
D10*
%TO.C,F4*%
X141351000Y-99974500D03*
X141351000Y-98399500D03*
%TD*%
D11*
%TO.C,R9*%
X130175000Y-86129500D03*
X130175000Y-84304500D03*
%TD*%
%TO.C,R8*%
X124714000Y-90551000D03*
X124714000Y-88726000D03*
%TD*%
%TO.C,R7*%
X127508000Y-90424000D03*
X127508000Y-88599000D03*
%TD*%
D12*
%TO.C,C7*%
X115189000Y-95403500D03*
X115189000Y-97128500D03*
%TD*%
%TO.C,C6*%
X118414250Y-95530500D03*
X118414250Y-97255500D03*
%TD*%
D13*
%TO.C,C5*%
X113166499Y-93052900D03*
X111441499Y-93052900D03*
%TD*%
D14*
%TO.C,R27*%
X106957500Y-67818000D03*
X105132500Y-67818000D03*
%TD*%
%TO.C,R26*%
X115800500Y-67691000D03*
X117625500Y-67691000D03*
%TD*%
D15*
%TO.C,R25*%
X106346000Y-105029000D03*
X104521000Y-105029000D03*
%TD*%
%TO.C,R24*%
X113538000Y-105029000D03*
X115363000Y-105029000D03*
%TD*%
%TO.C,R23*%
X124436500Y-105029000D03*
X122611500Y-105029000D03*
%TD*%
D14*
%TO.C,R22*%
X110513500Y-67818000D03*
X108688500Y-67818000D03*
%TD*%
%TO.C,R21*%
X121308500Y-67691000D03*
X119483500Y-67691000D03*
%TD*%
D15*
%TO.C,R20*%
X102559500Y-105029000D03*
X100734500Y-105029000D03*
%TD*%
%TO.C,R19*%
X111656500Y-105029000D03*
X109831500Y-105029000D03*
%TD*%
%TO.C,R18*%
X118952000Y-105029000D03*
X120777000Y-105029000D03*
%TD*%
D14*
%TO.C,R15*%
X100052500Y-78105000D03*
X101877500Y-78105000D03*
%TD*%
%TO.C,R14*%
X103759000Y-78105000D03*
X105584000Y-78105000D03*
%TD*%
D16*
%TO.C,R13*%
X129921000Y-88114500D03*
X129921000Y-89939500D03*
%TD*%
%TO.C,R12*%
X132969000Y-87987500D03*
X132969000Y-89812500D03*
%TD*%
%TO.C,R11*%
X136144000Y-87987500D03*
X136144000Y-89812500D03*
%TD*%
%TO.C,R10*%
X139319000Y-87860500D03*
X139319000Y-89685500D03*
%TD*%
D17*
%TO.C,F3*%
X139155500Y-125730000D03*
X136180500Y-125730000D03*
%TD*%
D10*
%TO.C,F2*%
X129032000Y-69748500D03*
X129032000Y-68173500D03*
%TD*%
D18*
%TO.C,F1*%
X127892000Y-131572000D03*
X125092000Y-131572000D03*
%TD*%
D13*
%TO.C,C4*%
X132969000Y-119888000D03*
X131244000Y-119888000D03*
%TD*%
D19*
%TO.C,C3*%
X132969000Y-122708500D03*
X132969000Y-124433500D03*
%TD*%
D12*
%TO.C,C2*%
X133985000Y-97435500D03*
X133985000Y-99160500D03*
%TD*%
%TO.C,C1*%
X136017000Y-97435500D03*
X136017000Y-99160500D03*
%TD*%
M02*
