M48
; DRILL file {KiCad 7.0.7} date Fri May 10 07:30:11 2024
; FORMAT={-:-/ absolute / inch / decimal}
; #@! TF.CreationDate,2024-05-10T07:30:11-05:00
; #@! TF.GenerationSoftware,Kicad,Pcbnew,7.0.7
; #@! TF.FileFunction,Plated,1,2,PTH
FMAT,2
INCH
; #@! TA.AperFunction,Plated,PTH,ViaDrill
T1C0.0157
; #@! TA.AperFunction,Plated,PTH,ComponentDrill
T2C0.0197
; #@! TA.AperFunction,Plated,PTH,ComponentDrill
T3C0.0280
; #@! TA.AperFunction,Plated,PTH,ComponentDrill
T4C0.0394
; #@! TA.AperFunction,Plated,PTH,ComponentDrill
T5C0.0402
%
G90
G05
T1
X4.04Y-4.08
X4.08Y-3.02
X4.28Y-2.72
X4.36Y-3.67
X4.4Y-3.74
X4.4Y-4.08
X4.46Y-2.8259
X4.48Y-3.805
X4.49Y-3.67
X4.52Y-3.92
X4.56Y-3.37
X4.59Y-3.64
X4.65Y-3.71
X4.65Y-3.91
X4.71Y-3.72
X4.717Y-3.76
X4.805Y-4.215
X4.84Y-3.56
X4.85Y-3.48
X4.965Y-3.49
X4.9844Y-3.746
X4.985Y-5.32
X4.99Y-3.785
X4.99Y-3.93
X4.995Y-3.86
X5.0Y-3.69
X5.02Y-3.59
X5.026Y-3.8155
X5.06Y-3.79
X5.115Y-3.575
X5.15Y-3.39
X5.175Y-3.68
X5.235Y-3.57
X5.26Y-4.9
X5.27Y-3.82
X5.36Y-3.57
X5.4Y-3.8
X5.42Y-3.67
X5.455Y-4.035
X5.46Y-3.87
X5.485Y-3.565
X5.53Y-3.06
X5.55Y-4.945
T2
X4.07Y-4.77
X4.19Y-4.77
X4.31Y-4.77
X4.4301Y-4.77
X4.55Y-4.77
X4.94Y-4.06
X4.95Y-2.71
X5.06Y-4.06
X5.08Y-2.85
X5.155Y-4.57
X5.205Y-2.705
X5.36Y-4.565
X5.53Y-4.575
X5.55Y-4.085
T3
X4.855Y-3.37
X4.855Y-3.42
X4.905Y-3.37
X4.905Y-3.42
X4.955Y-3.37
X4.955Y-3.42
X5.005Y-3.37
X5.005Y-3.42
X5.055Y-3.37
X5.055Y-3.42
T4
X5.2137Y-4.4019
X5.3137Y-4.4019
X5.4137Y-4.4019
T5
X3.9807Y-4.9119
X3.9807Y-5.03
X3.9838Y-2.8822
X3.985Y-3.315
X4.015Y-3.6438
X4.015Y-3.7619
X4.015Y-3.88
X4.0576Y-4.3659
X4.0576Y-4.4841
X4.0988Y-4.9119
X4.0988Y-5.03
X4.1019Y-2.8822
X4.1031Y-3.315
X4.1159Y-2.5463
X4.2169Y-4.9119
X4.2169Y-5.03
X4.2341Y-2.5463
X4.335Y-4.9119
X4.335Y-5.03
X4.415Y-4.365
X4.415Y-4.4831
X4.5409Y-2.5463
X4.5476Y-2.8619
X4.5476Y-2.98
X4.5476Y-3.0981
X4.6591Y-2.5463
X4.6869Y-5.0587
X4.77Y-4.365
X4.77Y-4.4831
X4.805Y-5.0587
X4.9231Y-5.0587
X4.9619Y-2.5463
X4.9909Y-3.0974
X5.08Y-2.5463
X5.1091Y-3.0974
X5.1981Y-2.5463
X5.2269Y-5.0599
X5.345Y-5.0599
X5.4631Y-5.0599
T0
M30
