M48
; DRILL file {KiCad 9.0.0} date 2025-03-23T00:24:27-0500
; FORMAT={-:-/ absolute / metric / decimal}
; #@! TF.CreationDate,2025-03-23T00:24:27-05:00
; #@! TF.GenerationSoftware,Kicad,Pcbnew,9.0.0
; #@! TF.FileFunction,Plated,1,2,PTH
FMAT,2
METRIC
; #@! TA.AperFunction,Plated,PTH,ViaDrill
T1C0.400
; #@! TA.AperFunction,Plated,PTH,ComponentDrill
T2C0.500
; #@! TA.AperFunction,Plated,PTH,ComponentDrill
T3C0.711
; #@! TA.AperFunction,Plated,PTH,ComponentDrill
T4C1.000
; #@! TA.AperFunction,Plated,PTH,ComponentDrill
T5C1.020
; #@! TA.AperFunction,Plated,PTH,ComponentDrill
T6C1.067
; #@! TA.AperFunction,Plated,PTH,ComponentDrill
T7C1.070
; #@! TA.AperFunction,Plated,PTH,ComponentDrill
T8C1.300
%
G90
G05
T1
X110.1Y-117.3
X110.744Y-93.218
X111.8Y-99.7
X111.8Y-100.8
X112.55Y-97.35
X113.358Y-94.658
X113.792Y-96.647
X115.824Y-85.598
X117.8Y-120.4
X117.8Y-124.9
X118.938Y-95.7
X122.1Y-127.8
X123.19Y-88.392
X123.3Y-79.4
X124.8Y-73.8
X126.111Y-88.646
X126.35Y-117.8
X126.5Y-93.3
X126.6Y-94.8
X126.746Y-96.139
X126.937Y-56.686
X127.24Y-112.337
X127.284Y-97.84
X127.508Y-91.186
X127.66Y-96.914
X128.524Y-96.266
X130.81Y-86.106
X130.887Y-99.1
X132.6Y-76.8
X132.92Y-122.328
X132.969Y-90.678
X133.641Y-86.0
X135.912Y-124.2
X136.144Y-90.678
X136.93Y-114.718
X137.668Y-93.218
X138.5Y-65.5
X139.319Y-90.551
T2
X103.3Y-119.8
X105.6Y-119.8
X107.9Y-119.8
X111.6Y-121.6
X113.6Y-121.6
X114.9Y-117.3
X117.7Y-128.8
X123.2Y-104.6
X126.6Y-103.1
X126.75Y-110.3
X130.9Y-128.0
X132.3Y-81.5
X135.5Y-57.4
X135.5Y-61.3
X135.5Y-64.9
X136.3Y-81.6
X140.0Y-81.6
X141.8Y-128.1
T3
X123.317Y-85.598
X123.317Y-86.868
X124.587Y-85.598
X124.587Y-86.868
X125.857Y-85.598
X125.857Y-86.868
X127.127Y-85.598
X127.127Y-86.868
X128.397Y-85.598
X128.397Y-86.868
T4
X123.007Y-109.667
X123.007Y-112.207
X123.007Y-114.747
T5
X101.109Y-124.762
X101.109Y-127.762
X101.6Y-111.485
X104.109Y-124.762
X104.109Y-127.762
X104.6Y-111.485
X107.109Y-124.762
X107.109Y-127.762
X107.5Y-99.2
X107.5Y-102.2
X107.6Y-111.485
X107.8Y-60.1
X107.8Y-69.015
X107.8Y-77.9
X110.109Y-124.762
X110.109Y-127.762
X110.8Y-60.1
X110.8Y-69.015
X110.8Y-77.9
X113.8Y-60.1
X113.8Y-69.015
X113.8Y-77.9
X134.7Y-99.1
X137.7Y-99.1
T6
X99.4Y-69.9
X99.4Y-72.9
X99.4Y-75.9
X99.4Y-78.9
X99.4Y-81.9
X99.4Y-84.9
X99.4Y-87.9
X99.4Y-90.9
X99.4Y-93.9
X99.4Y-96.9
X99.4Y-99.9
X99.4Y-102.9
T7
X131.317Y-105.195
X133.857Y-105.195
X136.398Y-105.195
T8
X122.02Y-133.625
X124.62Y-59.475
X127.1Y-133.625
X129.7Y-59.475
X133.873Y-133.525
X138.6Y-70.2
X138.6Y-75.28
X138.952Y-133.525
M30
