%TF.GenerationSoftware,KiCad,Pcbnew,9.0.0*%
%TF.CreationDate,2025-03-23T00:24:25-05:00*%
%TF.ProjectId,WaterBlasterV2,57617465-7242-46c6-9173-74657256322e,rev?*%
%TF.SameCoordinates,Original*%
%TF.FileFunction,Paste,Top*%
%TF.FilePolarity,Positive*%
%FSLAX46Y46*%
G04 Gerber Fmt 4.6, Leading zero omitted, Abs format (unit mm)*
G04 Created by KiCad (PCBNEW 9.0.0) date 2025-03-23 00:24:25*
%MOMM*%
%LPD*%
G01*
G04 APERTURE LIST*
G04 Aperture macros list*
%AMRoundRect*
0 Rectangle with rounded corners*
0 $1 Rounding radius*
0 $2 $3 $4 $5 $6 $7 $8 $9 X,Y pos of 4 corners*
0 Add a 4 corners polygon primitive as box body*
4,1,4,$2,$3,$4,$5,$6,$7,$8,$9,$2,$3,0*
0 Add four circle primitives for the rounded corners*
1,1,$1+$1,$2,$3*
1,1,$1+$1,$4,$5*
1,1,$1+$1,$6,$7*
1,1,$1+$1,$8,$9*
0 Add four rect primitives between the rounded corners*
20,1,$1+$1,$2,$3,$4,$5,0*
20,1,$1+$1,$4,$5,$6,$7,0*
20,1,$1+$1,$6,$7,$8,$9,0*
20,1,$1+$1,$8,$9,$2,$3,0*%
G04 Aperture macros list end*
%ADD10RoundRect,0.125000X-0.625000X-0.125000X0.625000X-0.125000X0.625000X0.125000X-0.625000X0.125000X0*%
%ADD11RoundRect,0.125000X-0.125000X-0.625000X0.125000X-0.625000X0.125000X0.625000X-0.125000X0.625000X0*%
%ADD12R,1.600200X5.689600*%
%ADD13RoundRect,0.250000X-0.850000X-0.350000X0.850000X-0.350000X0.850000X0.350000X-0.850000X0.350000X0*%
%ADD14RoundRect,0.250000X-1.275000X-1.125000X1.275000X-1.125000X1.275000X1.125000X-1.275000X1.125000X0*%
%ADD15R,0.863600X2.006600*%
%ADD16RoundRect,0.250000X0.350000X-0.850000X0.350000X0.850000X-0.350000X0.850000X-0.350000X-0.850000X0*%
%ADD17RoundRect,0.250000X1.125000X-1.275000X1.125000X1.275000X-1.125000X1.275000X-1.125000X-1.275000X0*%
%ADD18R,1.500000X2.200000*%
%ADD19RoundRect,0.237500X0.237500X-0.287500X0.237500X0.287500X-0.237500X0.287500X-0.237500X-0.287500X0*%
G04 APERTURE END LIST*
D10*
%TO.C,U2*%
X116625000Y-93700000D03*
X116625000Y-94500000D03*
X116625000Y-95300000D03*
X116625000Y-96100000D03*
X116625000Y-96900000D03*
X116625000Y-97700000D03*
X116625000Y-98500000D03*
X116625000Y-99300000D03*
D11*
X118000000Y-100675000D03*
X118800000Y-100675000D03*
X119600000Y-100675000D03*
X120400000Y-100675000D03*
X121200000Y-100675000D03*
X122000000Y-100675000D03*
X122800000Y-100675000D03*
X123600000Y-100675000D03*
D10*
X124975000Y-99300000D03*
X124975000Y-98500000D03*
X124975000Y-97700000D03*
X124975000Y-96900000D03*
X124975000Y-96100000D03*
X124975000Y-95300000D03*
X124975000Y-94500000D03*
X124975000Y-93700000D03*
D11*
X123600000Y-92325000D03*
X122800000Y-92325000D03*
X122000000Y-92325000D03*
X121200000Y-92325000D03*
X120400000Y-92325000D03*
X119600000Y-92325000D03*
X118800000Y-92325000D03*
X118000000Y-92325000D03*
%TD*%
D12*
%TO.C,L2*%
X134631600Y-114540000D03*
X129932600Y-114540000D03*
%TD*%
D13*
%TO.C,Q1*%
X117800000Y-124900000D03*
D14*
X125775000Y-124145000D03*
X125775000Y-121095000D03*
X122425000Y-124145000D03*
X122425000Y-121095000D03*
D13*
X117800000Y-120340000D03*
%TD*%
D15*
%TO.C,SW1*%
X114518001Y-85305900D03*
X114518001Y-93002100D03*
X110017999Y-85305900D03*
X110017999Y-93002100D03*
%TD*%
D16*
%TO.C,Q3*%
X128040000Y-76800000D03*
D17*
X128795000Y-72175000D03*
X131845000Y-72175000D03*
X128795000Y-68825000D03*
X131845000Y-68825000D03*
D16*
X132600000Y-76800000D03*
%TD*%
D18*
%TO.C,L1*%
X135810000Y-122060000D03*
X129410000Y-122060000D03*
%TD*%
D16*
%TO.C,Q2*%
X120220000Y-73700000D03*
D17*
X120975000Y-69075000D03*
X124025000Y-69075000D03*
X120975000Y-65725000D03*
X124025000Y-65725000D03*
D16*
X124780000Y-73700000D03*
%TD*%
D19*
%TO.C,D2*%
X136144000Y-93204000D03*
X136144000Y-91454000D03*
%TD*%
%TO.C,D3*%
X132969000Y-93077000D03*
X132969000Y-91327000D03*
%TD*%
%TO.C,D1*%
X139319000Y-93077000D03*
X139319000Y-91327000D03*
%TD*%
M02*
