%TF.GenerationSoftware,KiCad,Pcbnew,9.0.0*%
%TF.CreationDate,2025-03-23T00:24:25-05:00*%
%TF.ProjectId,WaterBlasterV2,57617465-7242-46c6-9173-74657256322e,rev?*%
%TF.SameCoordinates,Original*%
%TF.FileFunction,Legend,Top*%
%TF.FilePolarity,Positive*%
%FSLAX46Y46*%
G04 Gerber Fmt 4.6, Leading zero omitted, Abs format (unit mm)*
G04 Created by KiCad (PCBNEW 9.0.0) date 2025-03-23 00:24:25*
%MOMM*%
%LPD*%
G01*
G04 APERTURE LIST*
%ADD10C,0.150000*%
%ADD11C,0.508000*%
%ADD12C,0.152400*%
%ADD13C,0.120000*%
%ADD14C,0.127000*%
%ADD15C,0.200000*%
G04 APERTURE END LIST*
D10*
X102682057Y-62015601D02*
X102682057Y-62529887D01*
X102682057Y-62272744D02*
X101782057Y-62272744D01*
X101782057Y-62272744D02*
X101910628Y-62358458D01*
X101910628Y-62358458D02*
X101996342Y-62444173D01*
X101996342Y-62444173D02*
X102039200Y-62529887D01*
X102339200Y-61629887D02*
X102339200Y-60944173D01*
X102082057Y-60515601D02*
X102339200Y-59829887D01*
X102339200Y-59829887D02*
X102596342Y-60515601D01*
X101867771Y-59444172D02*
X101824914Y-59401315D01*
X101824914Y-59401315D02*
X101782057Y-59315601D01*
X101782057Y-59315601D02*
X101782057Y-59101315D01*
X101782057Y-59101315D02*
X101824914Y-59015601D01*
X101824914Y-59015601D02*
X101867771Y-58972743D01*
X101867771Y-58972743D02*
X101953485Y-58929886D01*
X101953485Y-58929886D02*
X102039200Y-58929886D01*
X102039200Y-58929886D02*
X102167771Y-58972743D01*
X102167771Y-58972743D02*
X102682057Y-59487029D01*
X102682057Y-59487029D02*
X102682057Y-58929886D01*
X102339200Y-58544172D02*
X102339200Y-57858458D01*
X102082057Y-57429886D02*
X102339200Y-56744172D01*
X102339200Y-56744172D02*
X102596342Y-57429886D01*
X101782057Y-56401314D02*
X101782057Y-55844171D01*
X101782057Y-55844171D02*
X102124914Y-56144171D01*
X102124914Y-56144171D02*
X102124914Y-56015600D01*
X102124914Y-56015600D02*
X102167771Y-55929886D01*
X102167771Y-55929886D02*
X102210628Y-55887028D01*
X102210628Y-55887028D02*
X102296342Y-55844171D01*
X102296342Y-55844171D02*
X102510628Y-55844171D01*
X102510628Y-55844171D02*
X102596342Y-55887028D01*
X102596342Y-55887028D02*
X102639200Y-55929886D01*
X102639200Y-55929886D02*
X102682057Y-56015600D01*
X102682057Y-56015600D02*
X102682057Y-56272743D01*
X102682057Y-56272743D02*
X102639200Y-56358457D01*
X102639200Y-56358457D02*
X102596342Y-56401314D01*
X128554819Y-101076190D02*
X128554819Y-100504762D01*
X129554819Y-100790476D02*
X128554819Y-100790476D01*
X129554819Y-100171428D02*
X128888152Y-100171428D01*
X129078628Y-100171428D02*
X128983390Y-100123809D01*
X128983390Y-100123809D02*
X128935771Y-100076190D01*
X128935771Y-100076190D02*
X128888152Y-99980952D01*
X128888152Y-99980952D02*
X128888152Y-99885714D01*
X129554819Y-99552380D02*
X128888152Y-99552380D01*
X128554819Y-99552380D02*
X128602438Y-99599999D01*
X128602438Y-99599999D02*
X128650057Y-99552380D01*
X128650057Y-99552380D02*
X128602438Y-99504761D01*
X128602438Y-99504761D02*
X128554819Y-99552380D01*
X128554819Y-99552380D02*
X128650057Y-99552380D01*
X128888152Y-98647619D02*
X129697676Y-98647619D01*
X129697676Y-98647619D02*
X129792914Y-98695238D01*
X129792914Y-98695238D02*
X129840533Y-98742857D01*
X129840533Y-98742857D02*
X129888152Y-98838095D01*
X129888152Y-98838095D02*
X129888152Y-98980952D01*
X129888152Y-98980952D02*
X129840533Y-99076190D01*
X129507200Y-98647619D02*
X129554819Y-98742857D01*
X129554819Y-98742857D02*
X129554819Y-98933333D01*
X129554819Y-98933333D02*
X129507200Y-99028571D01*
X129507200Y-99028571D02*
X129459580Y-99076190D01*
X129459580Y-99076190D02*
X129364342Y-99123809D01*
X129364342Y-99123809D02*
X129078628Y-99123809D01*
X129078628Y-99123809D02*
X128983390Y-99076190D01*
X128983390Y-99076190D02*
X128935771Y-99028571D01*
X128935771Y-99028571D02*
X128888152Y-98933333D01*
X128888152Y-98933333D02*
X128888152Y-98742857D01*
X128888152Y-98742857D02*
X128935771Y-98647619D01*
X128888152Y-97742857D02*
X129697676Y-97742857D01*
X129697676Y-97742857D02*
X129792914Y-97790476D01*
X129792914Y-97790476D02*
X129840533Y-97838095D01*
X129840533Y-97838095D02*
X129888152Y-97933333D01*
X129888152Y-97933333D02*
X129888152Y-98076190D01*
X129888152Y-98076190D02*
X129840533Y-98171428D01*
X129507200Y-97742857D02*
X129554819Y-97838095D01*
X129554819Y-97838095D02*
X129554819Y-98028571D01*
X129554819Y-98028571D02*
X129507200Y-98123809D01*
X129507200Y-98123809D02*
X129459580Y-98171428D01*
X129459580Y-98171428D02*
X129364342Y-98219047D01*
X129364342Y-98219047D02*
X129078628Y-98219047D01*
X129078628Y-98219047D02*
X128983390Y-98171428D01*
X128983390Y-98171428D02*
X128935771Y-98123809D01*
X128935771Y-98123809D02*
X128888152Y-98028571D01*
X128888152Y-98028571D02*
X128888152Y-97838095D01*
X128888152Y-97838095D02*
X128935771Y-97742857D01*
X129507200Y-96885714D02*
X129554819Y-96980952D01*
X129554819Y-96980952D02*
X129554819Y-97171428D01*
X129554819Y-97171428D02*
X129507200Y-97266666D01*
X129507200Y-97266666D02*
X129411961Y-97314285D01*
X129411961Y-97314285D02*
X129031009Y-97314285D01*
X129031009Y-97314285D02*
X128935771Y-97266666D01*
X128935771Y-97266666D02*
X128888152Y-97171428D01*
X128888152Y-97171428D02*
X128888152Y-96980952D01*
X128888152Y-96980952D02*
X128935771Y-96885714D01*
X128935771Y-96885714D02*
X129031009Y-96838095D01*
X129031009Y-96838095D02*
X129126247Y-96838095D01*
X129126247Y-96838095D02*
X129221485Y-97314285D01*
X129554819Y-96409523D02*
X128888152Y-96409523D01*
X129078628Y-96409523D02*
X128983390Y-96361904D01*
X128983390Y-96361904D02*
X128935771Y-96314285D01*
X128935771Y-96314285D02*
X128888152Y-96219047D01*
X128888152Y-96219047D02*
X128888152Y-96123809D01*
X142288866Y-67063220D02*
X142288866Y-66301316D01*
X142669819Y-65348935D02*
X142669819Y-65825125D01*
X142669819Y-65825125D02*
X141669819Y-65825125D01*
X142146009Y-65015601D02*
X142146009Y-64682268D01*
X142669819Y-64539411D02*
X142669819Y-65015601D01*
X142669819Y-65015601D02*
X141669819Y-65015601D01*
X141669819Y-65015601D02*
X141669819Y-64539411D01*
X142669819Y-64110839D02*
X141669819Y-64110839D01*
X141669819Y-64110839D02*
X141669819Y-63872744D01*
X141669819Y-63872744D02*
X141717438Y-63729887D01*
X141717438Y-63729887D02*
X141812676Y-63634649D01*
X141812676Y-63634649D02*
X141907914Y-63587030D01*
X141907914Y-63587030D02*
X142098390Y-63539411D01*
X142098390Y-63539411D02*
X142241247Y-63539411D01*
X142241247Y-63539411D02*
X142431723Y-63587030D01*
X142431723Y-63587030D02*
X142526961Y-63634649D01*
X142526961Y-63634649D02*
X142622200Y-63729887D01*
X142622200Y-63729887D02*
X142669819Y-63872744D01*
X142669819Y-63872744D02*
X142669819Y-64110839D01*
X142288866Y-63110839D02*
X142288866Y-62348935D01*
X142669819Y-62729887D02*
X141907914Y-62729887D01*
X132863220Y-64711133D02*
X132101316Y-64711133D01*
X127163220Y-64711133D02*
X126401316Y-64711133D01*
X126782268Y-64330180D02*
X126782268Y-65092085D01*
X131506077Y-65330180D02*
X131172744Y-64330180D01*
X131172744Y-64330180D02*
X130839411Y-65330180D01*
X130077506Y-64330180D02*
X130077506Y-64853990D01*
X130077506Y-64853990D02*
X130125125Y-64949228D01*
X130125125Y-64949228D02*
X130220363Y-64996847D01*
X130220363Y-64996847D02*
X130410839Y-64996847D01*
X130410839Y-64996847D02*
X130506077Y-64949228D01*
X130077506Y-64377800D02*
X130172744Y-64330180D01*
X130172744Y-64330180D02*
X130410839Y-64330180D01*
X130410839Y-64330180D02*
X130506077Y-64377800D01*
X130506077Y-64377800D02*
X130553696Y-64473038D01*
X130553696Y-64473038D02*
X130553696Y-64568276D01*
X130553696Y-64568276D02*
X130506077Y-64663514D01*
X130506077Y-64663514D02*
X130410839Y-64711133D01*
X130410839Y-64711133D02*
X130172744Y-64711133D01*
X130172744Y-64711133D02*
X130077506Y-64758752D01*
X129458458Y-64330180D02*
X129553696Y-64377800D01*
X129553696Y-64377800D02*
X129601315Y-64473038D01*
X129601315Y-64473038D02*
X129601315Y-65330180D01*
X129172743Y-64996847D02*
X128934648Y-64330180D01*
X128934648Y-64330180D02*
X128696553Y-64996847D01*
X127934648Y-64377800D02*
X128029886Y-64330180D01*
X128029886Y-64330180D02*
X128220362Y-64330180D01*
X128220362Y-64330180D02*
X128315600Y-64377800D01*
X128315600Y-64377800D02*
X128363219Y-64473038D01*
X128363219Y-64473038D02*
X128363219Y-64853990D01*
X128363219Y-64853990D02*
X128315600Y-64949228D01*
X128315600Y-64949228D02*
X128220362Y-64996847D01*
X128220362Y-64996847D02*
X128029886Y-64996847D01*
X128029886Y-64996847D02*
X127934648Y-64949228D01*
X127934648Y-64949228D02*
X127887029Y-64853990D01*
X127887029Y-64853990D02*
X127887029Y-64758752D01*
X127887029Y-64758752D02*
X128363219Y-64663514D01*
X119682057Y-61615601D02*
X119682057Y-62129887D01*
X119682057Y-61872744D02*
X118782057Y-61872744D01*
X118782057Y-61872744D02*
X118910628Y-61958458D01*
X118910628Y-61958458D02*
X118996342Y-62044173D01*
X118996342Y-62044173D02*
X119039200Y-62129887D01*
X119339200Y-61229887D02*
X119339200Y-60544173D01*
X119082057Y-60115601D02*
X119339200Y-59429887D01*
X119339200Y-59429887D02*
X119596342Y-60115601D01*
X118867771Y-59044172D02*
X118824914Y-59001315D01*
X118824914Y-59001315D02*
X118782057Y-58915601D01*
X118782057Y-58915601D02*
X118782057Y-58701315D01*
X118782057Y-58701315D02*
X118824914Y-58615601D01*
X118824914Y-58615601D02*
X118867771Y-58572743D01*
X118867771Y-58572743D02*
X118953485Y-58529886D01*
X118953485Y-58529886D02*
X119039200Y-58529886D01*
X119039200Y-58529886D02*
X119167771Y-58572743D01*
X119167771Y-58572743D02*
X119682057Y-59087029D01*
X119682057Y-59087029D02*
X119682057Y-58529886D01*
X119339200Y-58144172D02*
X119339200Y-57458458D01*
X119082057Y-57029886D02*
X119339200Y-56344172D01*
X119339200Y-56344172D02*
X119596342Y-57029886D01*
X118782057Y-56001314D02*
X118782057Y-55444171D01*
X118782057Y-55444171D02*
X119124914Y-55744171D01*
X119124914Y-55744171D02*
X119124914Y-55615600D01*
X119124914Y-55615600D02*
X119167771Y-55529886D01*
X119167771Y-55529886D02*
X119210628Y-55487028D01*
X119210628Y-55487028D02*
X119296342Y-55444171D01*
X119296342Y-55444171D02*
X119510628Y-55444171D01*
X119510628Y-55444171D02*
X119596342Y-55487028D01*
X119596342Y-55487028D02*
X119639200Y-55529886D01*
X119639200Y-55529886D02*
X119682057Y-55615600D01*
X119682057Y-55615600D02*
X119682057Y-55872743D01*
X119682057Y-55872743D02*
X119639200Y-55958457D01*
X119639200Y-55958457D02*
X119596342Y-56001314D01*
X106912969Y-82969819D02*
X106436779Y-82969819D01*
X106436779Y-82969819D02*
X106436779Y-81969819D01*
X107627255Y-82922200D02*
X107532017Y-82969819D01*
X107532017Y-82969819D02*
X107341541Y-82969819D01*
X107341541Y-82969819D02*
X107246303Y-82922200D01*
X107246303Y-82922200D02*
X107198684Y-82826961D01*
X107198684Y-82826961D02*
X107198684Y-82446009D01*
X107198684Y-82446009D02*
X107246303Y-82350771D01*
X107246303Y-82350771D02*
X107341541Y-82303152D01*
X107341541Y-82303152D02*
X107532017Y-82303152D01*
X107532017Y-82303152D02*
X107627255Y-82350771D01*
X107627255Y-82350771D02*
X107674874Y-82446009D01*
X107674874Y-82446009D02*
X107674874Y-82541247D01*
X107674874Y-82541247D02*
X107198684Y-82636485D01*
X108532017Y-82969819D02*
X108532017Y-82446009D01*
X108532017Y-82446009D02*
X108484398Y-82350771D01*
X108484398Y-82350771D02*
X108389160Y-82303152D01*
X108389160Y-82303152D02*
X108198684Y-82303152D01*
X108198684Y-82303152D02*
X108103446Y-82350771D01*
X108532017Y-82922200D02*
X108436779Y-82969819D01*
X108436779Y-82969819D02*
X108198684Y-82969819D01*
X108198684Y-82969819D02*
X108103446Y-82922200D01*
X108103446Y-82922200D02*
X108055827Y-82826961D01*
X108055827Y-82826961D02*
X108055827Y-82731723D01*
X108055827Y-82731723D02*
X108103446Y-82636485D01*
X108103446Y-82636485D02*
X108198684Y-82588866D01*
X108198684Y-82588866D02*
X108436779Y-82588866D01*
X108436779Y-82588866D02*
X108532017Y-82541247D01*
X109008208Y-82969819D02*
X109008208Y-81969819D01*
X109103446Y-82588866D02*
X109389160Y-82969819D01*
X109389160Y-82303152D02*
X109008208Y-82684104D01*
X110341541Y-82969819D02*
X109770113Y-82969819D01*
X110055827Y-82969819D02*
X110055827Y-81969819D01*
X110055827Y-81969819D02*
X109960589Y-82112676D01*
X109960589Y-82112676D02*
X109865351Y-82207914D01*
X109865351Y-82207914D02*
X109770113Y-82255533D01*
X110770113Y-82588866D02*
X111532018Y-82588866D01*
X112008208Y-82303152D02*
X112770113Y-82588866D01*
X112770113Y-82588866D02*
X112008208Y-82874580D01*
X113151065Y-81969819D02*
X113770112Y-81969819D01*
X113770112Y-81969819D02*
X113436779Y-82350771D01*
X113436779Y-82350771D02*
X113579636Y-82350771D01*
X113579636Y-82350771D02*
X113674874Y-82398390D01*
X113674874Y-82398390D02*
X113722493Y-82446009D01*
X113722493Y-82446009D02*
X113770112Y-82541247D01*
X113770112Y-82541247D02*
X113770112Y-82779342D01*
X113770112Y-82779342D02*
X113722493Y-82874580D01*
X113722493Y-82874580D02*
X113674874Y-82922200D01*
X113674874Y-82922200D02*
X113579636Y-82969819D01*
X113579636Y-82969819D02*
X113293922Y-82969819D01*
X113293922Y-82969819D02*
X113198684Y-82922200D01*
X113198684Y-82922200D02*
X113151065Y-82874580D01*
X103330180Y-84436779D02*
X104330180Y-84436779D01*
X104377800Y-85627254D02*
X103092085Y-84770112D01*
X104330180Y-86151064D02*
X104330180Y-86341540D01*
X104330180Y-86341540D02*
X104282561Y-86436778D01*
X104282561Y-86436778D02*
X104187323Y-86532016D01*
X104187323Y-86532016D02*
X103996847Y-86579635D01*
X103996847Y-86579635D02*
X103663514Y-86579635D01*
X103663514Y-86579635D02*
X103473038Y-86532016D01*
X103473038Y-86532016D02*
X103377800Y-86436778D01*
X103377800Y-86436778D02*
X103330180Y-86341540D01*
X103330180Y-86341540D02*
X103330180Y-86151064D01*
X103330180Y-86151064D02*
X103377800Y-86055826D01*
X103377800Y-86055826D02*
X103473038Y-85960588D01*
X103473038Y-85960588D02*
X103663514Y-85912969D01*
X103663514Y-85912969D02*
X103996847Y-85912969D01*
X103996847Y-85912969D02*
X104187323Y-85960588D01*
X104187323Y-85960588D02*
X104282561Y-86055826D01*
X104282561Y-86055826D02*
X104330180Y-86151064D01*
X103853990Y-88103445D02*
X103806371Y-88246302D01*
X103806371Y-88246302D02*
X103758752Y-88293921D01*
X103758752Y-88293921D02*
X103663514Y-88341540D01*
X103663514Y-88341540D02*
X103520657Y-88341540D01*
X103520657Y-88341540D02*
X103425419Y-88293921D01*
X103425419Y-88293921D02*
X103377800Y-88246302D01*
X103377800Y-88246302D02*
X103330180Y-88151064D01*
X103330180Y-88151064D02*
X103330180Y-87770112D01*
X103330180Y-87770112D02*
X104330180Y-87770112D01*
X104330180Y-87770112D02*
X104330180Y-88103445D01*
X104330180Y-88103445D02*
X104282561Y-88198683D01*
X104282561Y-88198683D02*
X104234942Y-88246302D01*
X104234942Y-88246302D02*
X104139704Y-88293921D01*
X104139704Y-88293921D02*
X104044466Y-88293921D01*
X104044466Y-88293921D02*
X103949228Y-88246302D01*
X103949228Y-88246302D02*
X103901609Y-88198683D01*
X103901609Y-88198683D02*
X103853990Y-88103445D01*
X103853990Y-88103445D02*
X103853990Y-87770112D01*
X103330180Y-88912969D02*
X103377800Y-88817731D01*
X103377800Y-88817731D02*
X103425419Y-88770112D01*
X103425419Y-88770112D02*
X103520657Y-88722493D01*
X103520657Y-88722493D02*
X103806371Y-88722493D01*
X103806371Y-88722493D02*
X103901609Y-88770112D01*
X103901609Y-88770112D02*
X103949228Y-88817731D01*
X103949228Y-88817731D02*
X103996847Y-88912969D01*
X103996847Y-88912969D02*
X103996847Y-89055826D01*
X103996847Y-89055826D02*
X103949228Y-89151064D01*
X103949228Y-89151064D02*
X103901609Y-89198683D01*
X103901609Y-89198683D02*
X103806371Y-89246302D01*
X103806371Y-89246302D02*
X103520657Y-89246302D01*
X103520657Y-89246302D02*
X103425419Y-89198683D01*
X103425419Y-89198683D02*
X103377800Y-89151064D01*
X103377800Y-89151064D02*
X103330180Y-89055826D01*
X103330180Y-89055826D02*
X103330180Y-88912969D01*
X103330180Y-90103445D02*
X103853990Y-90103445D01*
X103853990Y-90103445D02*
X103949228Y-90055826D01*
X103949228Y-90055826D02*
X103996847Y-89960588D01*
X103996847Y-89960588D02*
X103996847Y-89770112D01*
X103996847Y-89770112D02*
X103949228Y-89674874D01*
X103377800Y-90103445D02*
X103330180Y-90008207D01*
X103330180Y-90008207D02*
X103330180Y-89770112D01*
X103330180Y-89770112D02*
X103377800Y-89674874D01*
X103377800Y-89674874D02*
X103473038Y-89627255D01*
X103473038Y-89627255D02*
X103568276Y-89627255D01*
X103568276Y-89627255D02*
X103663514Y-89674874D01*
X103663514Y-89674874D02*
X103711133Y-89770112D01*
X103711133Y-89770112D02*
X103711133Y-90008207D01*
X103711133Y-90008207D02*
X103758752Y-90103445D01*
X103330180Y-90579636D02*
X103996847Y-90579636D01*
X103806371Y-90579636D02*
X103901609Y-90627255D01*
X103901609Y-90627255D02*
X103949228Y-90674874D01*
X103949228Y-90674874D02*
X103996847Y-90770112D01*
X103996847Y-90770112D02*
X103996847Y-90865350D01*
X103330180Y-91627255D02*
X104330180Y-91627255D01*
X103377800Y-91627255D02*
X103330180Y-91532017D01*
X103330180Y-91532017D02*
X103330180Y-91341541D01*
X103330180Y-91341541D02*
X103377800Y-91246303D01*
X103377800Y-91246303D02*
X103425419Y-91198684D01*
X103425419Y-91198684D02*
X103520657Y-91151065D01*
X103520657Y-91151065D02*
X103806371Y-91151065D01*
X103806371Y-91151065D02*
X103901609Y-91198684D01*
X103901609Y-91198684D02*
X103949228Y-91246303D01*
X103949228Y-91246303D02*
X103996847Y-91341541D01*
X103996847Y-91341541D02*
X103996847Y-91532017D01*
X103996847Y-91532017D02*
X103949228Y-91627255D01*
X102936779Y-122569819D02*
X102936779Y-121569819D01*
X102936779Y-121569819D02*
X103174874Y-121569819D01*
X103174874Y-121569819D02*
X103317731Y-121617438D01*
X103317731Y-121617438D02*
X103412969Y-121712676D01*
X103412969Y-121712676D02*
X103460588Y-121807914D01*
X103460588Y-121807914D02*
X103508207Y-121998390D01*
X103508207Y-121998390D02*
X103508207Y-122141247D01*
X103508207Y-122141247D02*
X103460588Y-122331723D01*
X103460588Y-122331723D02*
X103412969Y-122426961D01*
X103412969Y-122426961D02*
X103317731Y-122522200D01*
X103317731Y-122522200D02*
X103174874Y-122569819D01*
X103174874Y-122569819D02*
X102936779Y-122569819D01*
X103936779Y-122569819D02*
X103936779Y-121903152D01*
X103936779Y-121569819D02*
X103889160Y-121617438D01*
X103889160Y-121617438D02*
X103936779Y-121665057D01*
X103936779Y-121665057D02*
X103984398Y-121617438D01*
X103984398Y-121617438D02*
X103936779Y-121569819D01*
X103936779Y-121569819D02*
X103936779Y-121665057D01*
X104365350Y-122522200D02*
X104460588Y-122569819D01*
X104460588Y-122569819D02*
X104651064Y-122569819D01*
X104651064Y-122569819D02*
X104746302Y-122522200D01*
X104746302Y-122522200D02*
X104793921Y-122426961D01*
X104793921Y-122426961D02*
X104793921Y-122379342D01*
X104793921Y-122379342D02*
X104746302Y-122284104D01*
X104746302Y-122284104D02*
X104651064Y-122236485D01*
X104651064Y-122236485D02*
X104508207Y-122236485D01*
X104508207Y-122236485D02*
X104412969Y-122188866D01*
X104412969Y-122188866D02*
X104365350Y-122093628D01*
X104365350Y-122093628D02*
X104365350Y-122046009D01*
X104365350Y-122046009D02*
X104412969Y-121950771D01*
X104412969Y-121950771D02*
X104508207Y-121903152D01*
X104508207Y-121903152D02*
X104651064Y-121903152D01*
X104651064Y-121903152D02*
X104746302Y-121950771D01*
X105222493Y-121903152D02*
X105222493Y-122903152D01*
X105222493Y-121950771D02*
X105317731Y-121903152D01*
X105317731Y-121903152D02*
X105508207Y-121903152D01*
X105508207Y-121903152D02*
X105603445Y-121950771D01*
X105603445Y-121950771D02*
X105651064Y-121998390D01*
X105651064Y-121998390D02*
X105698683Y-122093628D01*
X105698683Y-122093628D02*
X105698683Y-122379342D01*
X105698683Y-122379342D02*
X105651064Y-122474580D01*
X105651064Y-122474580D02*
X105603445Y-122522200D01*
X105603445Y-122522200D02*
X105508207Y-122569819D01*
X105508207Y-122569819D02*
X105317731Y-122569819D01*
X105317731Y-122569819D02*
X105222493Y-122522200D01*
X106270112Y-122569819D02*
X106174874Y-122522200D01*
X106174874Y-122522200D02*
X106127255Y-122426961D01*
X106127255Y-122426961D02*
X106127255Y-121569819D01*
X107079636Y-122569819D02*
X107079636Y-122046009D01*
X107079636Y-122046009D02*
X107032017Y-121950771D01*
X107032017Y-121950771D02*
X106936779Y-121903152D01*
X106936779Y-121903152D02*
X106746303Y-121903152D01*
X106746303Y-121903152D02*
X106651065Y-121950771D01*
X107079636Y-122522200D02*
X106984398Y-122569819D01*
X106984398Y-122569819D02*
X106746303Y-122569819D01*
X106746303Y-122569819D02*
X106651065Y-122522200D01*
X106651065Y-122522200D02*
X106603446Y-122426961D01*
X106603446Y-122426961D02*
X106603446Y-122331723D01*
X106603446Y-122331723D02*
X106651065Y-122236485D01*
X106651065Y-122236485D02*
X106746303Y-122188866D01*
X106746303Y-122188866D02*
X106984398Y-122188866D01*
X106984398Y-122188866D02*
X107079636Y-122141247D01*
X107460589Y-121903152D02*
X107698684Y-122569819D01*
X107936779Y-121903152D02*
X107698684Y-122569819D01*
X107698684Y-122569819D02*
X107603446Y-122807914D01*
X107603446Y-122807914D02*
X107555827Y-122855533D01*
X107555827Y-122855533D02*
X107460589Y-122903152D01*
X128436779Y-128388866D02*
X129198684Y-128388866D01*
X120136779Y-128288866D02*
X120898684Y-128288866D01*
X120517731Y-128669819D02*
X120517731Y-127907914D01*
X121736779Y-128569819D02*
X121736779Y-127569819D01*
X121736779Y-127569819D02*
X122117731Y-127569819D01*
X122117731Y-127569819D02*
X122212969Y-127617438D01*
X122212969Y-127617438D02*
X122260588Y-127665057D01*
X122260588Y-127665057D02*
X122308207Y-127760295D01*
X122308207Y-127760295D02*
X122308207Y-127903152D01*
X122308207Y-127903152D02*
X122260588Y-127998390D01*
X122260588Y-127998390D02*
X122212969Y-128046009D01*
X122212969Y-128046009D02*
X122117731Y-128093628D01*
X122117731Y-128093628D02*
X121736779Y-128093628D01*
X122879636Y-128569819D02*
X122784398Y-128522200D01*
X122784398Y-128522200D02*
X122736779Y-128474580D01*
X122736779Y-128474580D02*
X122689160Y-128379342D01*
X122689160Y-128379342D02*
X122689160Y-128093628D01*
X122689160Y-128093628D02*
X122736779Y-127998390D01*
X122736779Y-127998390D02*
X122784398Y-127950771D01*
X122784398Y-127950771D02*
X122879636Y-127903152D01*
X122879636Y-127903152D02*
X123022493Y-127903152D01*
X123022493Y-127903152D02*
X123117731Y-127950771D01*
X123117731Y-127950771D02*
X123165350Y-127998390D01*
X123165350Y-127998390D02*
X123212969Y-128093628D01*
X123212969Y-128093628D02*
X123212969Y-128379342D01*
X123212969Y-128379342D02*
X123165350Y-128474580D01*
X123165350Y-128474580D02*
X123117731Y-128522200D01*
X123117731Y-128522200D02*
X123022493Y-128569819D01*
X123022493Y-128569819D02*
X122879636Y-128569819D01*
X123546303Y-127903152D02*
X123736779Y-128569819D01*
X123736779Y-128569819D02*
X123927255Y-128093628D01*
X123927255Y-128093628D02*
X124117731Y-128569819D01*
X124117731Y-128569819D02*
X124308207Y-127903152D01*
X125070112Y-128522200D02*
X124974874Y-128569819D01*
X124974874Y-128569819D02*
X124784398Y-128569819D01*
X124784398Y-128569819D02*
X124689160Y-128522200D01*
X124689160Y-128522200D02*
X124641541Y-128426961D01*
X124641541Y-128426961D02*
X124641541Y-128046009D01*
X124641541Y-128046009D02*
X124689160Y-127950771D01*
X124689160Y-127950771D02*
X124784398Y-127903152D01*
X124784398Y-127903152D02*
X124974874Y-127903152D01*
X124974874Y-127903152D02*
X125070112Y-127950771D01*
X125070112Y-127950771D02*
X125117731Y-128046009D01*
X125117731Y-128046009D02*
X125117731Y-128141247D01*
X125117731Y-128141247D02*
X124641541Y-128236485D01*
X125546303Y-128569819D02*
X125546303Y-127903152D01*
X125546303Y-128093628D02*
X125593922Y-127998390D01*
X125593922Y-127998390D02*
X125641541Y-127950771D01*
X125641541Y-127950771D02*
X125736779Y-127903152D01*
X125736779Y-127903152D02*
X125832017Y-127903152D01*
X126927256Y-128569819D02*
X126927256Y-127569819D01*
X127403446Y-127903152D02*
X127403446Y-128569819D01*
X127403446Y-127998390D02*
X127451065Y-127950771D01*
X127451065Y-127950771D02*
X127546303Y-127903152D01*
X127546303Y-127903152D02*
X127689160Y-127903152D01*
X127689160Y-127903152D02*
X127784398Y-127950771D01*
X127784398Y-127950771D02*
X127832017Y-128046009D01*
X127832017Y-128046009D02*
X127832017Y-128569819D01*
X104642956Y-94494173D02*
X105392956Y-94315601D01*
X105392956Y-94315601D02*
X104857242Y-94172744D01*
X104857242Y-94172744D02*
X105392956Y-94029887D01*
X105392956Y-94029887D02*
X104642956Y-93851316D01*
X105392956Y-93244173D02*
X105000099Y-93244173D01*
X105000099Y-93244173D02*
X104928670Y-93279887D01*
X104928670Y-93279887D02*
X104892956Y-93351315D01*
X104892956Y-93351315D02*
X104892956Y-93494173D01*
X104892956Y-93494173D02*
X104928670Y-93565601D01*
X105357242Y-93244173D02*
X105392956Y-93315601D01*
X105392956Y-93315601D02*
X105392956Y-93494173D01*
X105392956Y-93494173D02*
X105357242Y-93565601D01*
X105357242Y-93565601D02*
X105285813Y-93601315D01*
X105285813Y-93601315D02*
X105214384Y-93601315D01*
X105214384Y-93601315D02*
X105142956Y-93565601D01*
X105142956Y-93565601D02*
X105107242Y-93494173D01*
X105107242Y-93494173D02*
X105107242Y-93315601D01*
X105107242Y-93315601D02*
X105071527Y-93244173D01*
X104892956Y-92994173D02*
X104892956Y-92708459D01*
X104642956Y-92887030D02*
X105285813Y-92887030D01*
X105285813Y-92887030D02*
X105357242Y-92851316D01*
X105357242Y-92851316D02*
X105392956Y-92779887D01*
X105392956Y-92779887D02*
X105392956Y-92708459D01*
X105357242Y-92172745D02*
X105392956Y-92244173D01*
X105392956Y-92244173D02*
X105392956Y-92387031D01*
X105392956Y-92387031D02*
X105357242Y-92458459D01*
X105357242Y-92458459D02*
X105285813Y-92494173D01*
X105285813Y-92494173D02*
X105000099Y-92494173D01*
X105000099Y-92494173D02*
X104928670Y-92458459D01*
X104928670Y-92458459D02*
X104892956Y-92387031D01*
X104892956Y-92387031D02*
X104892956Y-92244173D01*
X104892956Y-92244173D02*
X104928670Y-92172745D01*
X104928670Y-92172745D02*
X105000099Y-92137031D01*
X105000099Y-92137031D02*
X105071527Y-92137031D01*
X105071527Y-92137031D02*
X105142956Y-92494173D01*
X105392956Y-91815602D02*
X104892956Y-91815602D01*
X105035813Y-91815602D02*
X104964384Y-91779888D01*
X104964384Y-91779888D02*
X104928670Y-91744174D01*
X104928670Y-91744174D02*
X104892956Y-91672745D01*
X104892956Y-91672745D02*
X104892956Y-91601316D01*
X105000099Y-91101316D02*
X105035813Y-90994173D01*
X105035813Y-90994173D02*
X105071527Y-90958459D01*
X105071527Y-90958459D02*
X105142956Y-90922745D01*
X105142956Y-90922745D02*
X105250099Y-90922745D01*
X105250099Y-90922745D02*
X105321527Y-90958459D01*
X105321527Y-90958459D02*
X105357242Y-90994173D01*
X105357242Y-90994173D02*
X105392956Y-91065602D01*
X105392956Y-91065602D02*
X105392956Y-91351316D01*
X105392956Y-91351316D02*
X104642956Y-91351316D01*
X104642956Y-91351316D02*
X104642956Y-91101316D01*
X104642956Y-91101316D02*
X104678670Y-91029888D01*
X104678670Y-91029888D02*
X104714384Y-90994173D01*
X104714384Y-90994173D02*
X104785813Y-90958459D01*
X104785813Y-90958459D02*
X104857242Y-90958459D01*
X104857242Y-90958459D02*
X104928670Y-90994173D01*
X104928670Y-90994173D02*
X104964384Y-91029888D01*
X104964384Y-91029888D02*
X105000099Y-91101316D01*
X105000099Y-91101316D02*
X105000099Y-91351316D01*
X105392956Y-90494173D02*
X105357242Y-90565602D01*
X105357242Y-90565602D02*
X105285813Y-90601316D01*
X105285813Y-90601316D02*
X104642956Y-90601316D01*
X105392956Y-89887031D02*
X105000099Y-89887031D01*
X105000099Y-89887031D02*
X104928670Y-89922745D01*
X104928670Y-89922745D02*
X104892956Y-89994173D01*
X104892956Y-89994173D02*
X104892956Y-90137031D01*
X104892956Y-90137031D02*
X104928670Y-90208459D01*
X105357242Y-89887031D02*
X105392956Y-89958459D01*
X105392956Y-89958459D02*
X105392956Y-90137031D01*
X105392956Y-90137031D02*
X105357242Y-90208459D01*
X105357242Y-90208459D02*
X105285813Y-90244173D01*
X105285813Y-90244173D02*
X105214384Y-90244173D01*
X105214384Y-90244173D02*
X105142956Y-90208459D01*
X105142956Y-90208459D02*
X105107242Y-90137031D01*
X105107242Y-90137031D02*
X105107242Y-89958459D01*
X105107242Y-89958459D02*
X105071527Y-89887031D01*
X105357242Y-89565602D02*
X105392956Y-89494174D01*
X105392956Y-89494174D02*
X105392956Y-89351317D01*
X105392956Y-89351317D02*
X105357242Y-89279888D01*
X105357242Y-89279888D02*
X105285813Y-89244174D01*
X105285813Y-89244174D02*
X105250099Y-89244174D01*
X105250099Y-89244174D02*
X105178670Y-89279888D01*
X105178670Y-89279888D02*
X105142956Y-89351317D01*
X105142956Y-89351317D02*
X105142956Y-89458460D01*
X105142956Y-89458460D02*
X105107242Y-89529888D01*
X105107242Y-89529888D02*
X105035813Y-89565602D01*
X105035813Y-89565602D02*
X105000099Y-89565602D01*
X105000099Y-89565602D02*
X104928670Y-89529888D01*
X104928670Y-89529888D02*
X104892956Y-89458460D01*
X104892956Y-89458460D02*
X104892956Y-89351317D01*
X104892956Y-89351317D02*
X104928670Y-89279888D01*
X104892956Y-89029888D02*
X104892956Y-88744174D01*
X104642956Y-88922745D02*
X105285813Y-88922745D01*
X105285813Y-88922745D02*
X105357242Y-88887031D01*
X105357242Y-88887031D02*
X105392956Y-88815602D01*
X105392956Y-88815602D02*
X105392956Y-88744174D01*
X105357242Y-88208460D02*
X105392956Y-88279888D01*
X105392956Y-88279888D02*
X105392956Y-88422746D01*
X105392956Y-88422746D02*
X105357242Y-88494174D01*
X105357242Y-88494174D02*
X105285813Y-88529888D01*
X105285813Y-88529888D02*
X105000099Y-88529888D01*
X105000099Y-88529888D02*
X104928670Y-88494174D01*
X104928670Y-88494174D02*
X104892956Y-88422746D01*
X104892956Y-88422746D02*
X104892956Y-88279888D01*
X104892956Y-88279888D02*
X104928670Y-88208460D01*
X104928670Y-88208460D02*
X105000099Y-88172746D01*
X105000099Y-88172746D02*
X105071527Y-88172746D01*
X105071527Y-88172746D02*
X105142956Y-88529888D01*
X105392956Y-87851317D02*
X104892956Y-87851317D01*
X105035813Y-87851317D02*
X104964384Y-87815603D01*
X104964384Y-87815603D02*
X104928670Y-87779889D01*
X104928670Y-87779889D02*
X104892956Y-87708460D01*
X104892956Y-87708460D02*
X104892956Y-87637031D01*
X104642956Y-86922745D02*
X105392956Y-86672745D01*
X105392956Y-86672745D02*
X104642956Y-86422745D01*
X105392956Y-85779888D02*
X105392956Y-86208459D01*
X105392956Y-85994174D02*
X104642956Y-85994174D01*
X104642956Y-85994174D02*
X104750099Y-86065602D01*
X104750099Y-86065602D02*
X104821527Y-86137031D01*
X104821527Y-86137031D02*
X104857242Y-86208459D01*
X105321527Y-85458459D02*
X105357242Y-85422745D01*
X105357242Y-85422745D02*
X105392956Y-85458459D01*
X105392956Y-85458459D02*
X105357242Y-85494173D01*
X105357242Y-85494173D02*
X105321527Y-85458459D01*
X105321527Y-85458459D02*
X105392956Y-85458459D01*
X104642956Y-84958459D02*
X104642956Y-84887030D01*
X104642956Y-84887030D02*
X104678670Y-84815602D01*
X104678670Y-84815602D02*
X104714384Y-84779888D01*
X104714384Y-84779888D02*
X104785813Y-84744173D01*
X104785813Y-84744173D02*
X104928670Y-84708459D01*
X104928670Y-84708459D02*
X105107242Y-84708459D01*
X105107242Y-84708459D02*
X105250099Y-84744173D01*
X105250099Y-84744173D02*
X105321527Y-84779888D01*
X105321527Y-84779888D02*
X105357242Y-84815602D01*
X105357242Y-84815602D02*
X105392956Y-84887030D01*
X105392956Y-84887030D02*
X105392956Y-84958459D01*
X105392956Y-84958459D02*
X105357242Y-85029888D01*
X105357242Y-85029888D02*
X105321527Y-85065602D01*
X105321527Y-85065602D02*
X105250099Y-85101316D01*
X105250099Y-85101316D02*
X105107242Y-85137030D01*
X105107242Y-85137030D02*
X104928670Y-85137030D01*
X104928670Y-85137030D02*
X104785813Y-85101316D01*
X104785813Y-85101316D02*
X104714384Y-85065602D01*
X104714384Y-85065602D02*
X104678670Y-85029888D01*
X104678670Y-85029888D02*
X104642956Y-84958459D01*
X106600414Y-94422744D02*
X105850414Y-94422744D01*
X105850414Y-94422744D02*
X106386128Y-94172744D01*
X106386128Y-94172744D02*
X105850414Y-93922744D01*
X105850414Y-93922744D02*
X106600414Y-93922744D01*
X106600414Y-93244173D02*
X106207557Y-93244173D01*
X106207557Y-93244173D02*
X106136128Y-93279887D01*
X106136128Y-93279887D02*
X106100414Y-93351315D01*
X106100414Y-93351315D02*
X106100414Y-93494173D01*
X106100414Y-93494173D02*
X106136128Y-93565601D01*
X106564700Y-93244173D02*
X106600414Y-93315601D01*
X106600414Y-93315601D02*
X106600414Y-93494173D01*
X106600414Y-93494173D02*
X106564700Y-93565601D01*
X106564700Y-93565601D02*
X106493271Y-93601315D01*
X106493271Y-93601315D02*
X106421842Y-93601315D01*
X106421842Y-93601315D02*
X106350414Y-93565601D01*
X106350414Y-93565601D02*
X106314700Y-93494173D01*
X106314700Y-93494173D02*
X106314700Y-93315601D01*
X106314700Y-93315601D02*
X106278985Y-93244173D01*
X106600414Y-92887030D02*
X106100414Y-92887030D01*
X106243271Y-92887030D02*
X106171842Y-92851316D01*
X106171842Y-92851316D02*
X106136128Y-92815602D01*
X106136128Y-92815602D02*
X106100414Y-92744173D01*
X106100414Y-92744173D02*
X106100414Y-92672744D01*
X105921842Y-91887029D02*
X105886128Y-91851315D01*
X105886128Y-91851315D02*
X105850414Y-91779887D01*
X105850414Y-91779887D02*
X105850414Y-91601315D01*
X105850414Y-91601315D02*
X105886128Y-91529887D01*
X105886128Y-91529887D02*
X105921842Y-91494172D01*
X105921842Y-91494172D02*
X105993271Y-91458458D01*
X105993271Y-91458458D02*
X106064700Y-91458458D01*
X106064700Y-91458458D02*
X106171842Y-91494172D01*
X106171842Y-91494172D02*
X106600414Y-91922744D01*
X106600414Y-91922744D02*
X106600414Y-91458458D01*
X105850414Y-90994172D02*
X105850414Y-90922743D01*
X105850414Y-90922743D02*
X105886128Y-90851315D01*
X105886128Y-90851315D02*
X105921842Y-90815601D01*
X105921842Y-90815601D02*
X105993271Y-90779886D01*
X105993271Y-90779886D02*
X106136128Y-90744172D01*
X106136128Y-90744172D02*
X106314700Y-90744172D01*
X106314700Y-90744172D02*
X106457557Y-90779886D01*
X106457557Y-90779886D02*
X106528985Y-90815601D01*
X106528985Y-90815601D02*
X106564700Y-90851315D01*
X106564700Y-90851315D02*
X106600414Y-90922743D01*
X106600414Y-90922743D02*
X106600414Y-90994172D01*
X106600414Y-90994172D02*
X106564700Y-91065601D01*
X106564700Y-91065601D02*
X106528985Y-91101315D01*
X106528985Y-91101315D02*
X106457557Y-91137029D01*
X106457557Y-91137029D02*
X106314700Y-91172743D01*
X106314700Y-91172743D02*
X106136128Y-91172743D01*
X106136128Y-91172743D02*
X105993271Y-91137029D01*
X105993271Y-91137029D02*
X105921842Y-91101315D01*
X105921842Y-91101315D02*
X105886128Y-91065601D01*
X105886128Y-91065601D02*
X105850414Y-90994172D01*
X105921842Y-90458457D02*
X105886128Y-90422743D01*
X105886128Y-90422743D02*
X105850414Y-90351315D01*
X105850414Y-90351315D02*
X105850414Y-90172743D01*
X105850414Y-90172743D02*
X105886128Y-90101315D01*
X105886128Y-90101315D02*
X105921842Y-90065600D01*
X105921842Y-90065600D02*
X105993271Y-90029886D01*
X105993271Y-90029886D02*
X106064700Y-90029886D01*
X106064700Y-90029886D02*
X106171842Y-90065600D01*
X106171842Y-90065600D02*
X106600414Y-90494172D01*
X106600414Y-90494172D02*
X106600414Y-90029886D01*
X105850414Y-89351314D02*
X105850414Y-89708457D01*
X105850414Y-89708457D02*
X106207557Y-89744171D01*
X106207557Y-89744171D02*
X106171842Y-89708457D01*
X106171842Y-89708457D02*
X106136128Y-89637029D01*
X106136128Y-89637029D02*
X106136128Y-89458457D01*
X106136128Y-89458457D02*
X106171842Y-89387029D01*
X106171842Y-89387029D02*
X106207557Y-89351314D01*
X106207557Y-89351314D02*
X106278985Y-89315600D01*
X106278985Y-89315600D02*
X106457557Y-89315600D01*
X106457557Y-89315600D02*
X106528985Y-89351314D01*
X106528985Y-89351314D02*
X106564700Y-89387029D01*
X106564700Y-89387029D02*
X106600414Y-89458457D01*
X106600414Y-89458457D02*
X106600414Y-89637029D01*
X106600414Y-89637029D02*
X106564700Y-89708457D01*
X106564700Y-89708457D02*
X106528985Y-89744171D01*
X105750414Y-88929887D02*
X105750414Y-88501316D01*
X106500414Y-88715601D02*
X105750414Y-88715601D01*
X106464700Y-87965601D02*
X106500414Y-88037029D01*
X106500414Y-88037029D02*
X106500414Y-88179887D01*
X106500414Y-88179887D02*
X106464700Y-88251315D01*
X106464700Y-88251315D02*
X106393271Y-88287029D01*
X106393271Y-88287029D02*
X106107557Y-88287029D01*
X106107557Y-88287029D02*
X106036128Y-88251315D01*
X106036128Y-88251315D02*
X106000414Y-88179887D01*
X106000414Y-88179887D02*
X106000414Y-88037029D01*
X106000414Y-88037029D02*
X106036128Y-87965601D01*
X106036128Y-87965601D02*
X106107557Y-87929887D01*
X106107557Y-87929887D02*
X106178985Y-87929887D01*
X106178985Y-87929887D02*
X106250414Y-88287029D01*
X106500414Y-87287030D02*
X106107557Y-87287030D01*
X106107557Y-87287030D02*
X106036128Y-87322744D01*
X106036128Y-87322744D02*
X106000414Y-87394172D01*
X106000414Y-87394172D02*
X106000414Y-87537030D01*
X106000414Y-87537030D02*
X106036128Y-87608458D01*
X106464700Y-87287030D02*
X106500414Y-87358458D01*
X106500414Y-87358458D02*
X106500414Y-87537030D01*
X106500414Y-87537030D02*
X106464700Y-87608458D01*
X106464700Y-87608458D02*
X106393271Y-87644172D01*
X106393271Y-87644172D02*
X106321842Y-87644172D01*
X106321842Y-87644172D02*
X106250414Y-87608458D01*
X106250414Y-87608458D02*
X106214700Y-87537030D01*
X106214700Y-87537030D02*
X106214700Y-87358458D01*
X106214700Y-87358458D02*
X106178985Y-87287030D01*
X106500414Y-86929887D02*
X106000414Y-86929887D01*
X106071842Y-86929887D02*
X106036128Y-86894173D01*
X106036128Y-86894173D02*
X106000414Y-86822744D01*
X106000414Y-86822744D02*
X106000414Y-86715601D01*
X106000414Y-86715601D02*
X106036128Y-86644173D01*
X106036128Y-86644173D02*
X106107557Y-86608459D01*
X106107557Y-86608459D02*
X106500414Y-86608459D01*
X106107557Y-86608459D02*
X106036128Y-86572744D01*
X106036128Y-86572744D02*
X106000414Y-86501316D01*
X106000414Y-86501316D02*
X106000414Y-86394173D01*
X106000414Y-86394173D02*
X106036128Y-86322744D01*
X106036128Y-86322744D02*
X106107557Y-86287030D01*
X106107557Y-86287030D02*
X106500414Y-86287030D01*
X106500414Y-84965601D02*
X106500414Y-85394172D01*
X106500414Y-85179887D02*
X105750414Y-85179887D01*
X105750414Y-85179887D02*
X105857557Y-85251315D01*
X105857557Y-85251315D02*
X105928985Y-85322744D01*
X105928985Y-85322744D02*
X105964700Y-85394172D01*
X106500414Y-84608458D02*
X106500414Y-84465601D01*
X106500414Y-84465601D02*
X106464700Y-84394172D01*
X106464700Y-84394172D02*
X106428985Y-84358458D01*
X106428985Y-84358458D02*
X106321842Y-84287029D01*
X106321842Y-84287029D02*
X106178985Y-84251315D01*
X106178985Y-84251315D02*
X105893271Y-84251315D01*
X105893271Y-84251315D02*
X105821842Y-84287029D01*
X105821842Y-84287029D02*
X105786128Y-84322744D01*
X105786128Y-84322744D02*
X105750414Y-84394172D01*
X105750414Y-84394172D02*
X105750414Y-84537029D01*
X105750414Y-84537029D02*
X105786128Y-84608458D01*
X105786128Y-84608458D02*
X105821842Y-84644172D01*
X105821842Y-84644172D02*
X105893271Y-84679886D01*
X105893271Y-84679886D02*
X106071842Y-84679886D01*
X106071842Y-84679886D02*
X106143271Y-84644172D01*
X106143271Y-84644172D02*
X106178985Y-84608458D01*
X106178985Y-84608458D02*
X106214700Y-84537029D01*
X106214700Y-84537029D02*
X106214700Y-84394172D01*
X106214700Y-84394172D02*
X106178985Y-84322744D01*
X106178985Y-84322744D02*
X106143271Y-84287029D01*
X106143271Y-84287029D02*
X106071842Y-84251315D01*
X133336779Y-128488866D02*
X134098684Y-128488866D01*
X134574874Y-128869819D02*
X134574874Y-127869819D01*
X134574874Y-127869819D02*
X134955826Y-127869819D01*
X134955826Y-127869819D02*
X135051064Y-127917438D01*
X135051064Y-127917438D02*
X135098683Y-127965057D01*
X135098683Y-127965057D02*
X135146302Y-128060295D01*
X135146302Y-128060295D02*
X135146302Y-128203152D01*
X135146302Y-128203152D02*
X135098683Y-128298390D01*
X135098683Y-128298390D02*
X135051064Y-128346009D01*
X135051064Y-128346009D02*
X134955826Y-128393628D01*
X134955826Y-128393628D02*
X134574874Y-128393628D01*
X136003445Y-128203152D02*
X136003445Y-128869819D01*
X135574874Y-128203152D02*
X135574874Y-128726961D01*
X135574874Y-128726961D02*
X135622493Y-128822200D01*
X135622493Y-128822200D02*
X135717731Y-128869819D01*
X135717731Y-128869819D02*
X135860588Y-128869819D01*
X135860588Y-128869819D02*
X135955826Y-128822200D01*
X135955826Y-128822200D02*
X136003445Y-128774580D01*
X136479636Y-128869819D02*
X136479636Y-128203152D01*
X136479636Y-128298390D02*
X136527255Y-128250771D01*
X136527255Y-128250771D02*
X136622493Y-128203152D01*
X136622493Y-128203152D02*
X136765350Y-128203152D01*
X136765350Y-128203152D02*
X136860588Y-128250771D01*
X136860588Y-128250771D02*
X136908207Y-128346009D01*
X136908207Y-128346009D02*
X136908207Y-128869819D01*
X136908207Y-128346009D02*
X136955826Y-128250771D01*
X136955826Y-128250771D02*
X137051064Y-128203152D01*
X137051064Y-128203152D02*
X137193921Y-128203152D01*
X137193921Y-128203152D02*
X137289160Y-128250771D01*
X137289160Y-128250771D02*
X137336779Y-128346009D01*
X137336779Y-128346009D02*
X137336779Y-128869819D01*
X137812969Y-128203152D02*
X137812969Y-129203152D01*
X137812969Y-128250771D02*
X137908207Y-128203152D01*
X137908207Y-128203152D02*
X138098683Y-128203152D01*
X138098683Y-128203152D02*
X138193921Y-128250771D01*
X138193921Y-128250771D02*
X138241540Y-128298390D01*
X138241540Y-128298390D02*
X138289159Y-128393628D01*
X138289159Y-128393628D02*
X138289159Y-128679342D01*
X138289159Y-128679342D02*
X138241540Y-128774580D01*
X138241540Y-128774580D02*
X138193921Y-128822200D01*
X138193921Y-128822200D02*
X138098683Y-128869819D01*
X138098683Y-128869819D02*
X137908207Y-128869819D01*
X137908207Y-128869819D02*
X137812969Y-128822200D01*
X138717731Y-128488866D02*
X139479636Y-128488866D01*
X139098683Y-128869819D02*
X139098683Y-128107914D01*
X125266666Y-81954819D02*
X125266666Y-82669104D01*
X125266666Y-82669104D02*
X125219047Y-82811961D01*
X125219047Y-82811961D02*
X125123809Y-82907200D01*
X125123809Y-82907200D02*
X124980952Y-82954819D01*
X124980952Y-82954819D02*
X124885714Y-82954819D01*
X125647619Y-81954819D02*
X126266666Y-81954819D01*
X126266666Y-81954819D02*
X125933333Y-82335771D01*
X125933333Y-82335771D02*
X126076190Y-82335771D01*
X126076190Y-82335771D02*
X126171428Y-82383390D01*
X126171428Y-82383390D02*
X126219047Y-82431009D01*
X126219047Y-82431009D02*
X126266666Y-82526247D01*
X126266666Y-82526247D02*
X126266666Y-82764342D01*
X126266666Y-82764342D02*
X126219047Y-82859580D01*
X126219047Y-82859580D02*
X126171428Y-82907200D01*
X126171428Y-82907200D02*
X126076190Y-82954819D01*
X126076190Y-82954819D02*
X125790476Y-82954819D01*
X125790476Y-82954819D02*
X125695238Y-82907200D01*
X125695238Y-82907200D02*
X125647619Y-82859580D01*
X114133819Y-97174171D02*
X114943342Y-97174171D01*
X114943342Y-97174171D02*
X115038580Y-97126552D01*
X115038580Y-97126552D02*
X115086200Y-97078933D01*
X115086200Y-97078933D02*
X115133819Y-96983695D01*
X115133819Y-96983695D02*
X115133819Y-96793219D01*
X115133819Y-96793219D02*
X115086200Y-96697981D01*
X115086200Y-96697981D02*
X115038580Y-96650362D01*
X115038580Y-96650362D02*
X114943342Y-96602743D01*
X114943342Y-96602743D02*
X114133819Y-96602743D01*
X114229057Y-96174171D02*
X114181438Y-96126552D01*
X114181438Y-96126552D02*
X114133819Y-96031314D01*
X114133819Y-96031314D02*
X114133819Y-95793219D01*
X114133819Y-95793219D02*
X114181438Y-95697981D01*
X114181438Y-95697981D02*
X114229057Y-95650362D01*
X114229057Y-95650362D02*
X114324295Y-95602743D01*
X114324295Y-95602743D02*
X114419533Y-95602743D01*
X114419533Y-95602743D02*
X114562390Y-95650362D01*
X114562390Y-95650362D02*
X115133819Y-96221790D01*
X115133819Y-96221790D02*
X115133819Y-95602743D01*
X117080952Y-127806819D02*
X116509524Y-127806819D01*
X116795238Y-127806819D02*
X116795238Y-126806819D01*
X116795238Y-126806819D02*
X116700000Y-126949676D01*
X116700000Y-126949676D02*
X116604762Y-127044914D01*
X116604762Y-127044914D02*
X116509524Y-127092533D01*
X117461905Y-126902057D02*
X117509524Y-126854438D01*
X117509524Y-126854438D02*
X117604762Y-126806819D01*
X117604762Y-126806819D02*
X117842857Y-126806819D01*
X117842857Y-126806819D02*
X117938095Y-126854438D01*
X117938095Y-126854438D02*
X117985714Y-126902057D01*
X117985714Y-126902057D02*
X118033333Y-126997295D01*
X118033333Y-126997295D02*
X118033333Y-127092533D01*
X118033333Y-127092533D02*
X117985714Y-127235390D01*
X117985714Y-127235390D02*
X117414286Y-127806819D01*
X117414286Y-127806819D02*
X118033333Y-127806819D01*
X118319048Y-126806819D02*
X118652381Y-127806819D01*
X118652381Y-127806819D02*
X118985714Y-126806819D01*
X121102438Y-105361904D02*
X121054819Y-105457142D01*
X121054819Y-105457142D02*
X121054819Y-105599999D01*
X121054819Y-105599999D02*
X121102438Y-105742856D01*
X121102438Y-105742856D02*
X121197676Y-105838094D01*
X121197676Y-105838094D02*
X121292914Y-105885713D01*
X121292914Y-105885713D02*
X121483390Y-105933332D01*
X121483390Y-105933332D02*
X121626247Y-105933332D01*
X121626247Y-105933332D02*
X121816723Y-105885713D01*
X121816723Y-105885713D02*
X121911961Y-105838094D01*
X121911961Y-105838094D02*
X122007200Y-105742856D01*
X122007200Y-105742856D02*
X122054819Y-105599999D01*
X122054819Y-105599999D02*
X122054819Y-105504761D01*
X122054819Y-105504761D02*
X122007200Y-105361904D01*
X122007200Y-105361904D02*
X121959580Y-105314285D01*
X121959580Y-105314285D02*
X121626247Y-105314285D01*
X121626247Y-105314285D02*
X121626247Y-105504761D01*
X122054819Y-104885713D02*
X121054819Y-104885713D01*
X121054819Y-104885713D02*
X122054819Y-104314285D01*
X122054819Y-104314285D02*
X121054819Y-104314285D01*
X122054819Y-103838094D02*
X121054819Y-103838094D01*
X121054819Y-103838094D02*
X121054819Y-103599999D01*
X121054819Y-103599999D02*
X121102438Y-103457142D01*
X121102438Y-103457142D02*
X121197676Y-103361904D01*
X121197676Y-103361904D02*
X121292914Y-103314285D01*
X121292914Y-103314285D02*
X121483390Y-103266666D01*
X121483390Y-103266666D02*
X121626247Y-103266666D01*
X121626247Y-103266666D02*
X121816723Y-103314285D01*
X121816723Y-103314285D02*
X121911961Y-103361904D01*
X121911961Y-103361904D02*
X122007200Y-103457142D01*
X122007200Y-103457142D02*
X122054819Y-103599999D01*
X122054819Y-103599999D02*
X122054819Y-103838094D01*
X140919048Y-127106819D02*
X140919048Y-126106819D01*
X140919048Y-126106819D02*
X141300000Y-126106819D01*
X141300000Y-126106819D02*
X141395238Y-126154438D01*
X141395238Y-126154438D02*
X141442857Y-126202057D01*
X141442857Y-126202057D02*
X141490476Y-126297295D01*
X141490476Y-126297295D02*
X141490476Y-126440152D01*
X141490476Y-126440152D02*
X141442857Y-126535390D01*
X141442857Y-126535390D02*
X141395238Y-126583009D01*
X141395238Y-126583009D02*
X141300000Y-126630628D01*
X141300000Y-126630628D02*
X140919048Y-126630628D01*
X141919048Y-126725866D02*
X142680953Y-126725866D01*
X142300000Y-127106819D02*
X142300000Y-126344914D01*
X130019048Y-127006819D02*
X130019048Y-126006819D01*
X130019048Y-126006819D02*
X130400000Y-126006819D01*
X130400000Y-126006819D02*
X130495238Y-126054438D01*
X130495238Y-126054438D02*
X130542857Y-126102057D01*
X130542857Y-126102057D02*
X130590476Y-126197295D01*
X130590476Y-126197295D02*
X130590476Y-126340152D01*
X130590476Y-126340152D02*
X130542857Y-126435390D01*
X130542857Y-126435390D02*
X130495238Y-126483009D01*
X130495238Y-126483009D02*
X130400000Y-126530628D01*
X130400000Y-126530628D02*
X130019048Y-126530628D01*
X131019048Y-126625866D02*
X131780953Y-126625866D01*
X99366666Y-64754819D02*
X99366666Y-65469104D01*
X99366666Y-65469104D02*
X99319047Y-65611961D01*
X99319047Y-65611961D02*
X99223809Y-65707200D01*
X99223809Y-65707200D02*
X99080952Y-65754819D01*
X99080952Y-65754819D02*
X98985714Y-65754819D01*
X100271428Y-65088152D02*
X100271428Y-65754819D01*
X100033333Y-64707200D02*
X99795238Y-65421485D01*
X99795238Y-65421485D02*
X100414285Y-65421485D01*
X135763666Y-96395819D02*
X135763666Y-97110104D01*
X135763666Y-97110104D02*
X135716047Y-97252961D01*
X135716047Y-97252961D02*
X135620809Y-97348200D01*
X135620809Y-97348200D02*
X135477952Y-97395819D01*
X135477952Y-97395819D02*
X135382714Y-97395819D01*
X136716047Y-96395819D02*
X136239857Y-96395819D01*
X136239857Y-96395819D02*
X136192238Y-96872009D01*
X136192238Y-96872009D02*
X136239857Y-96824390D01*
X136239857Y-96824390D02*
X136335095Y-96776771D01*
X136335095Y-96776771D02*
X136573190Y-96776771D01*
X136573190Y-96776771D02*
X136668428Y-96824390D01*
X136668428Y-96824390D02*
X136716047Y-96872009D01*
X136716047Y-96872009D02*
X136763666Y-96967247D01*
X136763666Y-96967247D02*
X136763666Y-97205342D01*
X136763666Y-97205342D02*
X136716047Y-97300580D01*
X136716047Y-97300580D02*
X136668428Y-97348200D01*
X136668428Y-97348200D02*
X136573190Y-97395819D01*
X136573190Y-97395819D02*
X136335095Y-97395819D01*
X136335095Y-97395819D02*
X136239857Y-97348200D01*
X136239857Y-97348200D02*
X136192238Y-97300580D01*
X111931009Y-101757143D02*
X111931009Y-102090476D01*
X112454819Y-102090476D02*
X111454819Y-102090476D01*
X111454819Y-102090476D02*
X111454819Y-101614286D01*
X112454819Y-101233333D02*
X111788152Y-101233333D01*
X111454819Y-101233333D02*
X111502438Y-101280952D01*
X111502438Y-101280952D02*
X111550057Y-101233333D01*
X111550057Y-101233333D02*
X111502438Y-101185714D01*
X111502438Y-101185714D02*
X111454819Y-101233333D01*
X111454819Y-101233333D02*
X111550057Y-101233333D01*
X112454819Y-100614286D02*
X112407200Y-100709524D01*
X112407200Y-100709524D02*
X112311961Y-100757143D01*
X112311961Y-100757143D02*
X111454819Y-100757143D01*
X112454819Y-100090476D02*
X112407200Y-100185714D01*
X112407200Y-100185714D02*
X112311961Y-100233333D01*
X112311961Y-100233333D02*
X111454819Y-100233333D01*
X112407200Y-99328571D02*
X112454819Y-99423809D01*
X112454819Y-99423809D02*
X112454819Y-99614285D01*
X112454819Y-99614285D02*
X112407200Y-99709523D01*
X112407200Y-99709523D02*
X112311961Y-99757142D01*
X112311961Y-99757142D02*
X111931009Y-99757142D01*
X111931009Y-99757142D02*
X111835771Y-99709523D01*
X111835771Y-99709523D02*
X111788152Y-99614285D01*
X111788152Y-99614285D02*
X111788152Y-99423809D01*
X111788152Y-99423809D02*
X111835771Y-99328571D01*
X111835771Y-99328571D02*
X111931009Y-99280952D01*
X111931009Y-99280952D02*
X112026247Y-99280952D01*
X112026247Y-99280952D02*
X112121485Y-99757142D01*
X112454819Y-98852380D02*
X111788152Y-98852380D01*
X111978628Y-98852380D02*
X111883390Y-98804761D01*
X111883390Y-98804761D02*
X111835771Y-98757142D01*
X111835771Y-98757142D02*
X111788152Y-98661904D01*
X111788152Y-98661904D02*
X111788152Y-98566666D01*
X113454819Y-115371428D02*
X112454819Y-115371428D01*
X112454819Y-115371428D02*
X112454819Y-114990476D01*
X112454819Y-114990476D02*
X112502438Y-114895238D01*
X112502438Y-114895238D02*
X112550057Y-114847619D01*
X112550057Y-114847619D02*
X112645295Y-114800000D01*
X112645295Y-114800000D02*
X112788152Y-114800000D01*
X112788152Y-114800000D02*
X112883390Y-114847619D01*
X112883390Y-114847619D02*
X112931009Y-114895238D01*
X112931009Y-114895238D02*
X112978628Y-114990476D01*
X112978628Y-114990476D02*
X112978628Y-115371428D01*
X113454819Y-114371428D02*
X112788152Y-114371428D01*
X112978628Y-114371428D02*
X112883390Y-114323809D01*
X112883390Y-114323809D02*
X112835771Y-114276190D01*
X112835771Y-114276190D02*
X112788152Y-114180952D01*
X112788152Y-114180952D02*
X112788152Y-114085714D01*
X113407200Y-113371428D02*
X113454819Y-113466666D01*
X113454819Y-113466666D02*
X113454819Y-113657142D01*
X113454819Y-113657142D02*
X113407200Y-113752380D01*
X113407200Y-113752380D02*
X113311961Y-113799999D01*
X113311961Y-113799999D02*
X112931009Y-113799999D01*
X112931009Y-113799999D02*
X112835771Y-113752380D01*
X112835771Y-113752380D02*
X112788152Y-113657142D01*
X112788152Y-113657142D02*
X112788152Y-113466666D01*
X112788152Y-113466666D02*
X112835771Y-113371428D01*
X112835771Y-113371428D02*
X112931009Y-113323809D01*
X112931009Y-113323809D02*
X113026247Y-113323809D01*
X113026247Y-113323809D02*
X113121485Y-113799999D01*
X113407200Y-112942856D02*
X113454819Y-112847618D01*
X113454819Y-112847618D02*
X113454819Y-112657142D01*
X113454819Y-112657142D02*
X113407200Y-112561904D01*
X113407200Y-112561904D02*
X113311961Y-112514285D01*
X113311961Y-112514285D02*
X113264342Y-112514285D01*
X113264342Y-112514285D02*
X113169104Y-112561904D01*
X113169104Y-112561904D02*
X113121485Y-112657142D01*
X113121485Y-112657142D02*
X113121485Y-112799999D01*
X113121485Y-112799999D02*
X113073866Y-112895237D01*
X113073866Y-112895237D02*
X112978628Y-112942856D01*
X112978628Y-112942856D02*
X112931009Y-112942856D01*
X112931009Y-112942856D02*
X112835771Y-112895237D01*
X112835771Y-112895237D02*
X112788152Y-112799999D01*
X112788152Y-112799999D02*
X112788152Y-112657142D01*
X112788152Y-112657142D02*
X112835771Y-112561904D01*
X113407200Y-112133332D02*
X113454819Y-112038094D01*
X113454819Y-112038094D02*
X113454819Y-111847618D01*
X113454819Y-111847618D02*
X113407200Y-111752380D01*
X113407200Y-111752380D02*
X113311961Y-111704761D01*
X113311961Y-111704761D02*
X113264342Y-111704761D01*
X113264342Y-111704761D02*
X113169104Y-111752380D01*
X113169104Y-111752380D02*
X113121485Y-111847618D01*
X113121485Y-111847618D02*
X113121485Y-111990475D01*
X113121485Y-111990475D02*
X113073866Y-112085713D01*
X113073866Y-112085713D02*
X112978628Y-112133332D01*
X112978628Y-112133332D02*
X112931009Y-112133332D01*
X112931009Y-112133332D02*
X112835771Y-112085713D01*
X112835771Y-112085713D02*
X112788152Y-111990475D01*
X112788152Y-111990475D02*
X112788152Y-111847618D01*
X112788152Y-111847618D02*
X112835771Y-111752380D01*
X113407200Y-111323808D02*
X113454819Y-111180951D01*
X113454819Y-111180951D02*
X113454819Y-110942856D01*
X113454819Y-110942856D02*
X113407200Y-110847618D01*
X113407200Y-110847618D02*
X113359580Y-110799999D01*
X113359580Y-110799999D02*
X113264342Y-110752380D01*
X113264342Y-110752380D02*
X113169104Y-110752380D01*
X113169104Y-110752380D02*
X113073866Y-110799999D01*
X113073866Y-110799999D02*
X113026247Y-110847618D01*
X113026247Y-110847618D02*
X112978628Y-110942856D01*
X112978628Y-110942856D02*
X112931009Y-111133332D01*
X112931009Y-111133332D02*
X112883390Y-111228570D01*
X112883390Y-111228570D02*
X112835771Y-111276189D01*
X112835771Y-111276189D02*
X112740533Y-111323808D01*
X112740533Y-111323808D02*
X112645295Y-111323808D01*
X112645295Y-111323808D02*
X112550057Y-111276189D01*
X112550057Y-111276189D02*
X112502438Y-111228570D01*
X112502438Y-111228570D02*
X112454819Y-111133332D01*
X112454819Y-111133332D02*
X112454819Y-110895237D01*
X112454819Y-110895237D02*
X112502438Y-110752380D01*
X113407200Y-109942856D02*
X113454819Y-110038094D01*
X113454819Y-110038094D02*
X113454819Y-110228570D01*
X113454819Y-110228570D02*
X113407200Y-110323808D01*
X113407200Y-110323808D02*
X113311961Y-110371427D01*
X113311961Y-110371427D02*
X112931009Y-110371427D01*
X112931009Y-110371427D02*
X112835771Y-110323808D01*
X112835771Y-110323808D02*
X112788152Y-110228570D01*
X112788152Y-110228570D02*
X112788152Y-110038094D01*
X112788152Y-110038094D02*
X112835771Y-109942856D01*
X112835771Y-109942856D02*
X112931009Y-109895237D01*
X112931009Y-109895237D02*
X113026247Y-109895237D01*
X113026247Y-109895237D02*
X113121485Y-110371427D01*
X112788152Y-109466665D02*
X113454819Y-109466665D01*
X112883390Y-109466665D02*
X112835771Y-109419046D01*
X112835771Y-109419046D02*
X112788152Y-109323808D01*
X112788152Y-109323808D02*
X112788152Y-109180951D01*
X112788152Y-109180951D02*
X112835771Y-109085713D01*
X112835771Y-109085713D02*
X112931009Y-109038094D01*
X112931009Y-109038094D02*
X113454819Y-109038094D01*
X113407200Y-108609522D02*
X113454819Y-108514284D01*
X113454819Y-108514284D02*
X113454819Y-108323808D01*
X113454819Y-108323808D02*
X113407200Y-108228570D01*
X113407200Y-108228570D02*
X113311961Y-108180951D01*
X113311961Y-108180951D02*
X113264342Y-108180951D01*
X113264342Y-108180951D02*
X113169104Y-108228570D01*
X113169104Y-108228570D02*
X113121485Y-108323808D01*
X113121485Y-108323808D02*
X113121485Y-108466665D01*
X113121485Y-108466665D02*
X113073866Y-108561903D01*
X113073866Y-108561903D02*
X112978628Y-108609522D01*
X112978628Y-108609522D02*
X112931009Y-108609522D01*
X112931009Y-108609522D02*
X112835771Y-108561903D01*
X112835771Y-108561903D02*
X112788152Y-108466665D01*
X112788152Y-108466665D02*
X112788152Y-108323808D01*
X112788152Y-108323808D02*
X112835771Y-108228570D01*
X128454819Y-115866666D02*
X128454819Y-116342856D01*
X128454819Y-116342856D02*
X127454819Y-116342856D01*
X127550057Y-115580951D02*
X127502438Y-115533332D01*
X127502438Y-115533332D02*
X127454819Y-115438094D01*
X127454819Y-115438094D02*
X127454819Y-115199999D01*
X127454819Y-115199999D02*
X127502438Y-115104761D01*
X127502438Y-115104761D02*
X127550057Y-115057142D01*
X127550057Y-115057142D02*
X127645295Y-115009523D01*
X127645295Y-115009523D02*
X127740533Y-115009523D01*
X127740533Y-115009523D02*
X127883390Y-115057142D01*
X127883390Y-115057142D02*
X128454819Y-115628570D01*
X128454819Y-115628570D02*
X128454819Y-115009523D01*
X116400057Y-122205238D02*
X116352438Y-122300476D01*
X116352438Y-122300476D02*
X116257200Y-122395714D01*
X116257200Y-122395714D02*
X116114342Y-122538571D01*
X116114342Y-122538571D02*
X116066723Y-122633809D01*
X116066723Y-122633809D02*
X116066723Y-122729047D01*
X116304819Y-122681428D02*
X116257200Y-122776666D01*
X116257200Y-122776666D02*
X116161961Y-122871904D01*
X116161961Y-122871904D02*
X115971485Y-122919523D01*
X115971485Y-122919523D02*
X115638152Y-122919523D01*
X115638152Y-122919523D02*
X115447676Y-122871904D01*
X115447676Y-122871904D02*
X115352438Y-122776666D01*
X115352438Y-122776666D02*
X115304819Y-122681428D01*
X115304819Y-122681428D02*
X115304819Y-122490952D01*
X115304819Y-122490952D02*
X115352438Y-122395714D01*
X115352438Y-122395714D02*
X115447676Y-122300476D01*
X115447676Y-122300476D02*
X115638152Y-122252857D01*
X115638152Y-122252857D02*
X115971485Y-122252857D01*
X115971485Y-122252857D02*
X116161961Y-122300476D01*
X116161961Y-122300476D02*
X116257200Y-122395714D01*
X116257200Y-122395714D02*
X116304819Y-122490952D01*
X116304819Y-122490952D02*
X116304819Y-122681428D01*
X116304819Y-121300476D02*
X116304819Y-121871904D01*
X116304819Y-121586190D02*
X115304819Y-121586190D01*
X115304819Y-121586190D02*
X115447676Y-121681428D01*
X115447676Y-121681428D02*
X115542914Y-121776666D01*
X115542914Y-121776666D02*
X115590533Y-121871904D01*
X108607200Y-90433332D02*
X108654819Y-90290475D01*
X108654819Y-90290475D02*
X108654819Y-90052380D01*
X108654819Y-90052380D02*
X108607200Y-89957142D01*
X108607200Y-89957142D02*
X108559580Y-89909523D01*
X108559580Y-89909523D02*
X108464342Y-89861904D01*
X108464342Y-89861904D02*
X108369104Y-89861904D01*
X108369104Y-89861904D02*
X108273866Y-89909523D01*
X108273866Y-89909523D02*
X108226247Y-89957142D01*
X108226247Y-89957142D02*
X108178628Y-90052380D01*
X108178628Y-90052380D02*
X108131009Y-90242856D01*
X108131009Y-90242856D02*
X108083390Y-90338094D01*
X108083390Y-90338094D02*
X108035771Y-90385713D01*
X108035771Y-90385713D02*
X107940533Y-90433332D01*
X107940533Y-90433332D02*
X107845295Y-90433332D01*
X107845295Y-90433332D02*
X107750057Y-90385713D01*
X107750057Y-90385713D02*
X107702438Y-90338094D01*
X107702438Y-90338094D02*
X107654819Y-90242856D01*
X107654819Y-90242856D02*
X107654819Y-90004761D01*
X107654819Y-90004761D02*
X107702438Y-89861904D01*
X107654819Y-89528570D02*
X108654819Y-89290475D01*
X108654819Y-89290475D02*
X107940533Y-89099999D01*
X107940533Y-89099999D02*
X108654819Y-88909523D01*
X108654819Y-88909523D02*
X107654819Y-88671428D01*
X108654819Y-87766666D02*
X108654819Y-88338094D01*
X108654819Y-88052380D02*
X107654819Y-88052380D01*
X107654819Y-88052380D02*
X107797676Y-88147618D01*
X107797676Y-88147618D02*
X107892914Y-88242856D01*
X107892914Y-88242856D02*
X107940533Y-88338094D01*
X114902319Y-112968904D02*
X115711842Y-112968904D01*
X115711842Y-112968904D02*
X115807080Y-112921285D01*
X115807080Y-112921285D02*
X115854700Y-112873666D01*
X115854700Y-112873666D02*
X115902319Y-112778428D01*
X115902319Y-112778428D02*
X115902319Y-112587952D01*
X115902319Y-112587952D02*
X115854700Y-112492714D01*
X115854700Y-112492714D02*
X115807080Y-112445095D01*
X115807080Y-112445095D02*
X115711842Y-112397476D01*
X115711842Y-112397476D02*
X114902319Y-112397476D01*
X115902319Y-111397476D02*
X115902319Y-111968904D01*
X115902319Y-111683190D02*
X114902319Y-111683190D01*
X114902319Y-111683190D02*
X115045176Y-111778428D01*
X115045176Y-111778428D02*
X115140414Y-111873666D01*
X115140414Y-111873666D02*
X115188033Y-111968904D01*
X126450057Y-76695238D02*
X126402438Y-76790476D01*
X126402438Y-76790476D02*
X126307200Y-76885714D01*
X126307200Y-76885714D02*
X126164342Y-77028571D01*
X126164342Y-77028571D02*
X126116723Y-77123809D01*
X126116723Y-77123809D02*
X126116723Y-77219047D01*
X126354819Y-77171428D02*
X126307200Y-77266666D01*
X126307200Y-77266666D02*
X126211961Y-77361904D01*
X126211961Y-77361904D02*
X126021485Y-77409523D01*
X126021485Y-77409523D02*
X125688152Y-77409523D01*
X125688152Y-77409523D02*
X125497676Y-77361904D01*
X125497676Y-77361904D02*
X125402438Y-77266666D01*
X125402438Y-77266666D02*
X125354819Y-77171428D01*
X125354819Y-77171428D02*
X125354819Y-76980952D01*
X125354819Y-76980952D02*
X125402438Y-76885714D01*
X125402438Y-76885714D02*
X125497676Y-76790476D01*
X125497676Y-76790476D02*
X125688152Y-76742857D01*
X125688152Y-76742857D02*
X126021485Y-76742857D01*
X126021485Y-76742857D02*
X126211961Y-76790476D01*
X126211961Y-76790476D02*
X126307200Y-76885714D01*
X126307200Y-76885714D02*
X126354819Y-76980952D01*
X126354819Y-76980952D02*
X126354819Y-77171428D01*
X125354819Y-76409523D02*
X125354819Y-75790476D01*
X125354819Y-75790476D02*
X125735771Y-76123809D01*
X125735771Y-76123809D02*
X125735771Y-75980952D01*
X125735771Y-75980952D02*
X125783390Y-75885714D01*
X125783390Y-75885714D02*
X125831009Y-75838095D01*
X125831009Y-75838095D02*
X125926247Y-75790476D01*
X125926247Y-75790476D02*
X126164342Y-75790476D01*
X126164342Y-75790476D02*
X126259580Y-75838095D01*
X126259580Y-75838095D02*
X126307200Y-75885714D01*
X126307200Y-75885714D02*
X126354819Y-75980952D01*
X126354819Y-75980952D02*
X126354819Y-76266666D01*
X126354819Y-76266666D02*
X126307200Y-76361904D01*
X126307200Y-76361904D02*
X126259580Y-76409523D01*
X138154819Y-123466666D02*
X138154819Y-123942856D01*
X138154819Y-123942856D02*
X137154819Y-123942856D01*
X138154819Y-122609523D02*
X138154819Y-123180951D01*
X138154819Y-122895237D02*
X137154819Y-122895237D01*
X137154819Y-122895237D02*
X137297676Y-122990475D01*
X137297676Y-122990475D02*
X137392914Y-123085713D01*
X137392914Y-123085713D02*
X137440533Y-123180951D01*
X120204761Y-63750057D02*
X120109523Y-63702438D01*
X120109523Y-63702438D02*
X120014285Y-63607200D01*
X120014285Y-63607200D02*
X119871428Y-63464342D01*
X119871428Y-63464342D02*
X119776190Y-63416723D01*
X119776190Y-63416723D02*
X119680952Y-63416723D01*
X119728571Y-63654819D02*
X119633333Y-63607200D01*
X119633333Y-63607200D02*
X119538095Y-63511961D01*
X119538095Y-63511961D02*
X119490476Y-63321485D01*
X119490476Y-63321485D02*
X119490476Y-62988152D01*
X119490476Y-62988152D02*
X119538095Y-62797676D01*
X119538095Y-62797676D02*
X119633333Y-62702438D01*
X119633333Y-62702438D02*
X119728571Y-62654819D01*
X119728571Y-62654819D02*
X119919047Y-62654819D01*
X119919047Y-62654819D02*
X120014285Y-62702438D01*
X120014285Y-62702438D02*
X120109523Y-62797676D01*
X120109523Y-62797676D02*
X120157142Y-62988152D01*
X120157142Y-62988152D02*
X120157142Y-63321485D01*
X120157142Y-63321485D02*
X120109523Y-63511961D01*
X120109523Y-63511961D02*
X120014285Y-63607200D01*
X120014285Y-63607200D02*
X119919047Y-63654819D01*
X119919047Y-63654819D02*
X119728571Y-63654819D01*
X120538095Y-62750057D02*
X120585714Y-62702438D01*
X120585714Y-62702438D02*
X120680952Y-62654819D01*
X120680952Y-62654819D02*
X120919047Y-62654819D01*
X120919047Y-62654819D02*
X121014285Y-62702438D01*
X121014285Y-62702438D02*
X121061904Y-62750057D01*
X121061904Y-62750057D02*
X121109523Y-62845295D01*
X121109523Y-62845295D02*
X121109523Y-62940533D01*
X121109523Y-62940533D02*
X121061904Y-63083390D01*
X121061904Y-63083390D02*
X120490476Y-63654819D01*
X120490476Y-63654819D02*
X121109523Y-63654819D01*
X125488095Y-108306819D02*
X126059523Y-108306819D01*
X125773809Y-109306819D02*
X125773809Y-108306819D01*
X126392857Y-109306819D02*
X126392857Y-108306819D01*
X126392857Y-108306819D02*
X126773809Y-108306819D01*
X126773809Y-108306819D02*
X126869047Y-108354438D01*
X126869047Y-108354438D02*
X126916666Y-108402057D01*
X126916666Y-108402057D02*
X126964285Y-108497295D01*
X126964285Y-108497295D02*
X126964285Y-108640152D01*
X126964285Y-108640152D02*
X126916666Y-108735390D01*
X126916666Y-108735390D02*
X126869047Y-108783009D01*
X126869047Y-108783009D02*
X126773809Y-108830628D01*
X126773809Y-108830628D02*
X126392857Y-108830628D01*
X127916666Y-109306819D02*
X127345238Y-109306819D01*
X127630952Y-109306819D02*
X127630952Y-108306819D01*
X127630952Y-108306819D02*
X127535714Y-108449676D01*
X127535714Y-108449676D02*
X127440476Y-108544914D01*
X127440476Y-108544914D02*
X127345238Y-108592533D01*
X127454819Y-106934285D02*
X126454819Y-106934285D01*
X126454819Y-106934285D02*
X126454819Y-106553333D01*
X126454819Y-106553333D02*
X126502438Y-106458095D01*
X126502438Y-106458095D02*
X126550057Y-106410476D01*
X126550057Y-106410476D02*
X126645295Y-106362857D01*
X126645295Y-106362857D02*
X126788152Y-106362857D01*
X126788152Y-106362857D02*
X126883390Y-106410476D01*
X126883390Y-106410476D02*
X126931009Y-106458095D01*
X126931009Y-106458095D02*
X126978628Y-106553333D01*
X126978628Y-106553333D02*
X126978628Y-106934285D01*
X127407200Y-105981904D02*
X127454819Y-105839047D01*
X127454819Y-105839047D02*
X127454819Y-105600952D01*
X127454819Y-105600952D02*
X127407200Y-105505714D01*
X127407200Y-105505714D02*
X127359580Y-105458095D01*
X127359580Y-105458095D02*
X127264342Y-105410476D01*
X127264342Y-105410476D02*
X127169104Y-105410476D01*
X127169104Y-105410476D02*
X127073866Y-105458095D01*
X127073866Y-105458095D02*
X127026247Y-105505714D01*
X127026247Y-105505714D02*
X126978628Y-105600952D01*
X126978628Y-105600952D02*
X126931009Y-105791428D01*
X126931009Y-105791428D02*
X126883390Y-105886666D01*
X126883390Y-105886666D02*
X126835771Y-105934285D01*
X126835771Y-105934285D02*
X126740533Y-105981904D01*
X126740533Y-105981904D02*
X126645295Y-105981904D01*
X126645295Y-105981904D02*
X126550057Y-105934285D01*
X126550057Y-105934285D02*
X126502438Y-105886666D01*
X126502438Y-105886666D02*
X126454819Y-105791428D01*
X126454819Y-105791428D02*
X126454819Y-105553333D01*
X126454819Y-105553333D02*
X126502438Y-105410476D01*
X127454819Y-104458095D02*
X127454819Y-105029523D01*
X127454819Y-104743809D02*
X126454819Y-104743809D01*
X126454819Y-104743809D02*
X126597676Y-104839047D01*
X126597676Y-104839047D02*
X126692914Y-104934285D01*
X126692914Y-104934285D02*
X126740533Y-105029523D01*
X135168819Y-93067094D02*
X134168819Y-93067094D01*
X134168819Y-93067094D02*
X134168819Y-92828999D01*
X134168819Y-92828999D02*
X134216438Y-92686142D01*
X134216438Y-92686142D02*
X134311676Y-92590904D01*
X134311676Y-92590904D02*
X134406914Y-92543285D01*
X134406914Y-92543285D02*
X134597390Y-92495666D01*
X134597390Y-92495666D02*
X134740247Y-92495666D01*
X134740247Y-92495666D02*
X134930723Y-92543285D01*
X134930723Y-92543285D02*
X135025961Y-92590904D01*
X135025961Y-92590904D02*
X135121200Y-92686142D01*
X135121200Y-92686142D02*
X135168819Y-92828999D01*
X135168819Y-92828999D02*
X135168819Y-93067094D01*
X134264057Y-92114713D02*
X134216438Y-92067094D01*
X134216438Y-92067094D02*
X134168819Y-91971856D01*
X134168819Y-91971856D02*
X134168819Y-91733761D01*
X134168819Y-91733761D02*
X134216438Y-91638523D01*
X134216438Y-91638523D02*
X134264057Y-91590904D01*
X134264057Y-91590904D02*
X134359295Y-91543285D01*
X134359295Y-91543285D02*
X134454533Y-91543285D01*
X134454533Y-91543285D02*
X134597390Y-91590904D01*
X134597390Y-91590904D02*
X135168819Y-92162332D01*
X135168819Y-92162332D02*
X135168819Y-91543285D01*
X131993819Y-92940094D02*
X130993819Y-92940094D01*
X130993819Y-92940094D02*
X130993819Y-92701999D01*
X130993819Y-92701999D02*
X131041438Y-92559142D01*
X131041438Y-92559142D02*
X131136676Y-92463904D01*
X131136676Y-92463904D02*
X131231914Y-92416285D01*
X131231914Y-92416285D02*
X131422390Y-92368666D01*
X131422390Y-92368666D02*
X131565247Y-92368666D01*
X131565247Y-92368666D02*
X131755723Y-92416285D01*
X131755723Y-92416285D02*
X131850961Y-92463904D01*
X131850961Y-92463904D02*
X131946200Y-92559142D01*
X131946200Y-92559142D02*
X131993819Y-92701999D01*
X131993819Y-92701999D02*
X131993819Y-92940094D01*
X130993819Y-92035332D02*
X130993819Y-91416285D01*
X130993819Y-91416285D02*
X131374771Y-91749618D01*
X131374771Y-91749618D02*
X131374771Y-91606761D01*
X131374771Y-91606761D02*
X131422390Y-91511523D01*
X131422390Y-91511523D02*
X131470009Y-91463904D01*
X131470009Y-91463904D02*
X131565247Y-91416285D01*
X131565247Y-91416285D02*
X131803342Y-91416285D01*
X131803342Y-91416285D02*
X131898580Y-91463904D01*
X131898580Y-91463904D02*
X131946200Y-91511523D01*
X131946200Y-91511523D02*
X131993819Y-91606761D01*
X131993819Y-91606761D02*
X131993819Y-91892475D01*
X131993819Y-91892475D02*
X131946200Y-91987713D01*
X131946200Y-91987713D02*
X131898580Y-92035332D01*
X138343819Y-92940094D02*
X137343819Y-92940094D01*
X137343819Y-92940094D02*
X137343819Y-92701999D01*
X137343819Y-92701999D02*
X137391438Y-92559142D01*
X137391438Y-92559142D02*
X137486676Y-92463904D01*
X137486676Y-92463904D02*
X137581914Y-92416285D01*
X137581914Y-92416285D02*
X137772390Y-92368666D01*
X137772390Y-92368666D02*
X137915247Y-92368666D01*
X137915247Y-92368666D02*
X138105723Y-92416285D01*
X138105723Y-92416285D02*
X138200961Y-92463904D01*
X138200961Y-92463904D02*
X138296200Y-92559142D01*
X138296200Y-92559142D02*
X138343819Y-92701999D01*
X138343819Y-92701999D02*
X138343819Y-92940094D01*
X138343819Y-91416285D02*
X138343819Y-91987713D01*
X138343819Y-91701999D02*
X137343819Y-91701999D01*
X137343819Y-91701999D02*
X137486676Y-91797237D01*
X137486676Y-91797237D02*
X137581914Y-91892475D01*
X137581914Y-91892475D02*
X137629533Y-91987713D01*
X134307200Y-66114285D02*
X134354819Y-65971428D01*
X134354819Y-65971428D02*
X134354819Y-65733333D01*
X134354819Y-65733333D02*
X134307200Y-65638095D01*
X134307200Y-65638095D02*
X134259580Y-65590476D01*
X134259580Y-65590476D02*
X134164342Y-65542857D01*
X134164342Y-65542857D02*
X134069104Y-65542857D01*
X134069104Y-65542857D02*
X133973866Y-65590476D01*
X133973866Y-65590476D02*
X133926247Y-65638095D01*
X133926247Y-65638095D02*
X133878628Y-65733333D01*
X133878628Y-65733333D02*
X133831009Y-65923809D01*
X133831009Y-65923809D02*
X133783390Y-66019047D01*
X133783390Y-66019047D02*
X133735771Y-66066666D01*
X133735771Y-66066666D02*
X133640533Y-66114285D01*
X133640533Y-66114285D02*
X133545295Y-66114285D01*
X133545295Y-66114285D02*
X133450057Y-66066666D01*
X133450057Y-66066666D02*
X133402438Y-66019047D01*
X133402438Y-66019047D02*
X133354819Y-65923809D01*
X133354819Y-65923809D02*
X133354819Y-65685714D01*
X133354819Y-65685714D02*
X133402438Y-65542857D01*
X133354819Y-65257142D02*
X134354819Y-64923809D01*
X134354819Y-64923809D02*
X133354819Y-64590476D01*
X134259580Y-63685714D02*
X134307200Y-63733333D01*
X134307200Y-63733333D02*
X134354819Y-63876190D01*
X134354819Y-63876190D02*
X134354819Y-63971428D01*
X134354819Y-63971428D02*
X134307200Y-64114285D01*
X134307200Y-64114285D02*
X134211961Y-64209523D01*
X134211961Y-64209523D02*
X134116723Y-64257142D01*
X134116723Y-64257142D02*
X133926247Y-64304761D01*
X133926247Y-64304761D02*
X133783390Y-64304761D01*
X133783390Y-64304761D02*
X133592914Y-64257142D01*
X133592914Y-64257142D02*
X133497676Y-64209523D01*
X133497676Y-64209523D02*
X133402438Y-64114285D01*
X133402438Y-64114285D02*
X133354819Y-63971428D01*
X133354819Y-63971428D02*
X133354819Y-63876190D01*
X133354819Y-63876190D02*
X133402438Y-63733333D01*
X133402438Y-63733333D02*
X133450057Y-63685714D01*
X106107200Y-118709523D02*
X106154819Y-118566666D01*
X106154819Y-118566666D02*
X106154819Y-118328571D01*
X106154819Y-118328571D02*
X106107200Y-118233333D01*
X106107200Y-118233333D02*
X106059580Y-118185714D01*
X106059580Y-118185714D02*
X105964342Y-118138095D01*
X105964342Y-118138095D02*
X105869104Y-118138095D01*
X105869104Y-118138095D02*
X105773866Y-118185714D01*
X105773866Y-118185714D02*
X105726247Y-118233333D01*
X105726247Y-118233333D02*
X105678628Y-118328571D01*
X105678628Y-118328571D02*
X105631009Y-118519047D01*
X105631009Y-118519047D02*
X105583390Y-118614285D01*
X105583390Y-118614285D02*
X105535771Y-118661904D01*
X105535771Y-118661904D02*
X105440533Y-118709523D01*
X105440533Y-118709523D02*
X105345295Y-118709523D01*
X105345295Y-118709523D02*
X105250057Y-118661904D01*
X105250057Y-118661904D02*
X105202438Y-118614285D01*
X105202438Y-118614285D02*
X105154819Y-118519047D01*
X105154819Y-118519047D02*
X105154819Y-118280952D01*
X105154819Y-118280952D02*
X105202438Y-118138095D01*
X106154819Y-117709523D02*
X105154819Y-117709523D01*
X105154819Y-117709523D02*
X105154819Y-117471428D01*
X105154819Y-117471428D02*
X105202438Y-117328571D01*
X105202438Y-117328571D02*
X105297676Y-117233333D01*
X105297676Y-117233333D02*
X105392914Y-117185714D01*
X105392914Y-117185714D02*
X105583390Y-117138095D01*
X105583390Y-117138095D02*
X105726247Y-117138095D01*
X105726247Y-117138095D02*
X105916723Y-117185714D01*
X105916723Y-117185714D02*
X106011961Y-117233333D01*
X106011961Y-117233333D02*
X106107200Y-117328571D01*
X106107200Y-117328571D02*
X106154819Y-117471428D01*
X106154819Y-117471428D02*
X106154819Y-117709523D01*
X105154819Y-116519047D02*
X105154819Y-116328571D01*
X105154819Y-116328571D02*
X105202438Y-116233333D01*
X105202438Y-116233333D02*
X105297676Y-116138095D01*
X105297676Y-116138095D02*
X105488152Y-116090476D01*
X105488152Y-116090476D02*
X105821485Y-116090476D01*
X105821485Y-116090476D02*
X106011961Y-116138095D01*
X106011961Y-116138095D02*
X106107200Y-116233333D01*
X106107200Y-116233333D02*
X106154819Y-116328571D01*
X106154819Y-116328571D02*
X106154819Y-116519047D01*
X106154819Y-116519047D02*
X106107200Y-116614285D01*
X106107200Y-116614285D02*
X106011961Y-116709523D01*
X106011961Y-116709523D02*
X105821485Y-116757142D01*
X105821485Y-116757142D02*
X105488152Y-116757142D01*
X105488152Y-116757142D02*
X105297676Y-116709523D01*
X105297676Y-116709523D02*
X105202438Y-116614285D01*
X105202438Y-116614285D02*
X105154819Y-116519047D01*
X108407200Y-118623808D02*
X108454819Y-118480951D01*
X108454819Y-118480951D02*
X108454819Y-118242856D01*
X108454819Y-118242856D02*
X108407200Y-118147618D01*
X108407200Y-118147618D02*
X108359580Y-118099999D01*
X108359580Y-118099999D02*
X108264342Y-118052380D01*
X108264342Y-118052380D02*
X108169104Y-118052380D01*
X108169104Y-118052380D02*
X108073866Y-118099999D01*
X108073866Y-118099999D02*
X108026247Y-118147618D01*
X108026247Y-118147618D02*
X107978628Y-118242856D01*
X107978628Y-118242856D02*
X107931009Y-118433332D01*
X107931009Y-118433332D02*
X107883390Y-118528570D01*
X107883390Y-118528570D02*
X107835771Y-118576189D01*
X107835771Y-118576189D02*
X107740533Y-118623808D01*
X107740533Y-118623808D02*
X107645295Y-118623808D01*
X107645295Y-118623808D02*
X107550057Y-118576189D01*
X107550057Y-118576189D02*
X107502438Y-118528570D01*
X107502438Y-118528570D02*
X107454819Y-118433332D01*
X107454819Y-118433332D02*
X107454819Y-118195237D01*
X107454819Y-118195237D02*
X107502438Y-118052380D01*
X108454819Y-117623808D02*
X107454819Y-117623808D01*
X107454819Y-117623808D02*
X107454819Y-117385713D01*
X107454819Y-117385713D02*
X107502438Y-117242856D01*
X107502438Y-117242856D02*
X107597676Y-117147618D01*
X107597676Y-117147618D02*
X107692914Y-117099999D01*
X107692914Y-117099999D02*
X107883390Y-117052380D01*
X107883390Y-117052380D02*
X108026247Y-117052380D01*
X108026247Y-117052380D02*
X108216723Y-117099999D01*
X108216723Y-117099999D02*
X108311961Y-117147618D01*
X108311961Y-117147618D02*
X108407200Y-117242856D01*
X108407200Y-117242856D02*
X108454819Y-117385713D01*
X108454819Y-117385713D02*
X108454819Y-117623808D01*
X108454819Y-116623808D02*
X107454819Y-116623808D01*
X103759580Y-117995238D02*
X103807200Y-118042857D01*
X103807200Y-118042857D02*
X103854819Y-118185714D01*
X103854819Y-118185714D02*
X103854819Y-118280952D01*
X103854819Y-118280952D02*
X103807200Y-118423809D01*
X103807200Y-118423809D02*
X103711961Y-118519047D01*
X103711961Y-118519047D02*
X103616723Y-118566666D01*
X103616723Y-118566666D02*
X103426247Y-118614285D01*
X103426247Y-118614285D02*
X103283390Y-118614285D01*
X103283390Y-118614285D02*
X103092914Y-118566666D01*
X103092914Y-118566666D02*
X102997676Y-118519047D01*
X102997676Y-118519047D02*
X102902438Y-118423809D01*
X102902438Y-118423809D02*
X102854819Y-118280952D01*
X102854819Y-118280952D02*
X102854819Y-118185714D01*
X102854819Y-118185714D02*
X102902438Y-118042857D01*
X102902438Y-118042857D02*
X102950057Y-117995238D01*
X103854819Y-117090476D02*
X103854819Y-117566666D01*
X103854819Y-117566666D02*
X102854819Y-117566666D01*
X103854819Y-116757142D02*
X102854819Y-116757142D01*
X103854819Y-116185714D02*
X103283390Y-116614285D01*
X102854819Y-116185714D02*
X103426247Y-116757142D01*
X112059580Y-119566666D02*
X112107200Y-119614285D01*
X112107200Y-119614285D02*
X112154819Y-119757142D01*
X112154819Y-119757142D02*
X112154819Y-119852380D01*
X112154819Y-119852380D02*
X112107200Y-119995237D01*
X112107200Y-119995237D02*
X112011961Y-120090475D01*
X112011961Y-120090475D02*
X111916723Y-120138094D01*
X111916723Y-120138094D02*
X111726247Y-120185713D01*
X111726247Y-120185713D02*
X111583390Y-120185713D01*
X111583390Y-120185713D02*
X111392914Y-120138094D01*
X111392914Y-120138094D02*
X111297676Y-120090475D01*
X111297676Y-120090475D02*
X111202438Y-119995237D01*
X111202438Y-119995237D02*
X111154819Y-119852380D01*
X111154819Y-119852380D02*
X111154819Y-119757142D01*
X111154819Y-119757142D02*
X111202438Y-119614285D01*
X111202438Y-119614285D02*
X111250057Y-119566666D01*
X112107200Y-119185713D02*
X112154819Y-119042856D01*
X112154819Y-119042856D02*
X112154819Y-118804761D01*
X112154819Y-118804761D02*
X112107200Y-118709523D01*
X112107200Y-118709523D02*
X112059580Y-118661904D01*
X112059580Y-118661904D02*
X111964342Y-118614285D01*
X111964342Y-118614285D02*
X111869104Y-118614285D01*
X111869104Y-118614285D02*
X111773866Y-118661904D01*
X111773866Y-118661904D02*
X111726247Y-118709523D01*
X111726247Y-118709523D02*
X111678628Y-118804761D01*
X111678628Y-118804761D02*
X111631009Y-118995237D01*
X111631009Y-118995237D02*
X111583390Y-119090475D01*
X111583390Y-119090475D02*
X111535771Y-119138094D01*
X111535771Y-119138094D02*
X111440533Y-119185713D01*
X111440533Y-119185713D02*
X111345295Y-119185713D01*
X111345295Y-119185713D02*
X111250057Y-119138094D01*
X111250057Y-119138094D02*
X111202438Y-119090475D01*
X111202438Y-119090475D02*
X111154819Y-118995237D01*
X111154819Y-118995237D02*
X111154819Y-118757142D01*
X111154819Y-118757142D02*
X111202438Y-118614285D01*
X110877200Y-120276190D02*
X110877200Y-118523809D01*
X114214819Y-119847619D02*
X113738628Y-120180952D01*
X114214819Y-120419047D02*
X113214819Y-120419047D01*
X113214819Y-120419047D02*
X113214819Y-120038095D01*
X113214819Y-120038095D02*
X113262438Y-119942857D01*
X113262438Y-119942857D02*
X113310057Y-119895238D01*
X113310057Y-119895238D02*
X113405295Y-119847619D01*
X113405295Y-119847619D02*
X113548152Y-119847619D01*
X113548152Y-119847619D02*
X113643390Y-119895238D01*
X113643390Y-119895238D02*
X113691009Y-119942857D01*
X113691009Y-119942857D02*
X113738628Y-120038095D01*
X113738628Y-120038095D02*
X113738628Y-120419047D01*
X114167200Y-119466666D02*
X114214819Y-119323809D01*
X114214819Y-119323809D02*
X114214819Y-119085714D01*
X114214819Y-119085714D02*
X114167200Y-118990476D01*
X114167200Y-118990476D02*
X114119580Y-118942857D01*
X114119580Y-118942857D02*
X114024342Y-118895238D01*
X114024342Y-118895238D02*
X113929104Y-118895238D01*
X113929104Y-118895238D02*
X113833866Y-118942857D01*
X113833866Y-118942857D02*
X113786247Y-118990476D01*
X113786247Y-118990476D02*
X113738628Y-119085714D01*
X113738628Y-119085714D02*
X113691009Y-119276190D01*
X113691009Y-119276190D02*
X113643390Y-119371428D01*
X113643390Y-119371428D02*
X113595771Y-119419047D01*
X113595771Y-119419047D02*
X113500533Y-119466666D01*
X113500533Y-119466666D02*
X113405295Y-119466666D01*
X113405295Y-119466666D02*
X113310057Y-119419047D01*
X113310057Y-119419047D02*
X113262438Y-119371428D01*
X113262438Y-119371428D02*
X113214819Y-119276190D01*
X113214819Y-119276190D02*
X113214819Y-119038095D01*
X113214819Y-119038095D02*
X113262438Y-118895238D01*
X113214819Y-118609523D02*
X113214819Y-118038095D01*
X114214819Y-118323809D02*
X113214819Y-118323809D01*
X112937200Y-120557143D02*
X112937200Y-118042857D01*
X131157142Y-80506819D02*
X130680952Y-80506819D01*
X130680952Y-80506819D02*
X130680952Y-79506819D01*
X131490476Y-79983009D02*
X131823809Y-79983009D01*
X131966666Y-80506819D02*
X131490476Y-80506819D01*
X131490476Y-80506819D02*
X131490476Y-79506819D01*
X131490476Y-79506819D02*
X131966666Y-79506819D01*
X132395238Y-80506819D02*
X132395238Y-79506819D01*
X132395238Y-79506819D02*
X132633333Y-79506819D01*
X132633333Y-79506819D02*
X132776190Y-79554438D01*
X132776190Y-79554438D02*
X132871428Y-79649676D01*
X132871428Y-79649676D02*
X132919047Y-79744914D01*
X132919047Y-79744914D02*
X132966666Y-79935390D01*
X132966666Y-79935390D02*
X132966666Y-80078247D01*
X132966666Y-80078247D02*
X132919047Y-80268723D01*
X132919047Y-80268723D02*
X132871428Y-80363961D01*
X132871428Y-80363961D02*
X132776190Y-80459200D01*
X132776190Y-80459200D02*
X132633333Y-80506819D01*
X132633333Y-80506819D02*
X132395238Y-80506819D01*
X133966666Y-80411580D02*
X133919047Y-80459200D01*
X133919047Y-80459200D02*
X133776190Y-80506819D01*
X133776190Y-80506819D02*
X133680952Y-80506819D01*
X133680952Y-80506819D02*
X133538095Y-80459200D01*
X133538095Y-80459200D02*
X133442857Y-80363961D01*
X133442857Y-80363961D02*
X133395238Y-80268723D01*
X133395238Y-80268723D02*
X133347619Y-80078247D01*
X133347619Y-80078247D02*
X133347619Y-79935390D01*
X133347619Y-79935390D02*
X133395238Y-79744914D01*
X133395238Y-79744914D02*
X133442857Y-79649676D01*
X133442857Y-79649676D02*
X133538095Y-79554438D01*
X133538095Y-79554438D02*
X133680952Y-79506819D01*
X133680952Y-79506819D02*
X133776190Y-79506819D01*
X133776190Y-79506819D02*
X133919047Y-79554438D01*
X133919047Y-79554438D02*
X133966666Y-79602057D01*
X135338095Y-80454819D02*
X134861905Y-80454819D01*
X134861905Y-80454819D02*
X134861905Y-79454819D01*
X135671429Y-79931009D02*
X136004762Y-79931009D01*
X136147619Y-80454819D02*
X135671429Y-80454819D01*
X135671429Y-80454819D02*
X135671429Y-79454819D01*
X135671429Y-79454819D02*
X136147619Y-79454819D01*
X136576191Y-80454819D02*
X136576191Y-79454819D01*
X136576191Y-79454819D02*
X136814286Y-79454819D01*
X136814286Y-79454819D02*
X136957143Y-79502438D01*
X136957143Y-79502438D02*
X137052381Y-79597676D01*
X137052381Y-79597676D02*
X137100000Y-79692914D01*
X137100000Y-79692914D02*
X137147619Y-79883390D01*
X137147619Y-79883390D02*
X137147619Y-80026247D01*
X137147619Y-80026247D02*
X137100000Y-80216723D01*
X137100000Y-80216723D02*
X137052381Y-80311961D01*
X137052381Y-80311961D02*
X136957143Y-80407200D01*
X136957143Y-80407200D02*
X136814286Y-80454819D01*
X136814286Y-80454819D02*
X136576191Y-80454819D01*
X137576191Y-80073866D02*
X138338096Y-80073866D01*
X139138095Y-80554819D02*
X138661905Y-80554819D01*
X138661905Y-80554819D02*
X138661905Y-79554819D01*
X139471429Y-80031009D02*
X139804762Y-80031009D01*
X139947619Y-80554819D02*
X139471429Y-80554819D01*
X139471429Y-80554819D02*
X139471429Y-79554819D01*
X139471429Y-79554819D02*
X139947619Y-79554819D01*
X140376191Y-80554819D02*
X140376191Y-79554819D01*
X140376191Y-79554819D02*
X140614286Y-79554819D01*
X140614286Y-79554819D02*
X140757143Y-79602438D01*
X140757143Y-79602438D02*
X140852381Y-79697676D01*
X140852381Y-79697676D02*
X140900000Y-79792914D01*
X140900000Y-79792914D02*
X140947619Y-79983390D01*
X140947619Y-79983390D02*
X140947619Y-80126247D01*
X140947619Y-80126247D02*
X140900000Y-80316723D01*
X140900000Y-80316723D02*
X140852381Y-80411961D01*
X140852381Y-80411961D02*
X140757143Y-80507200D01*
X140757143Y-80507200D02*
X140614286Y-80554819D01*
X140614286Y-80554819D02*
X140376191Y-80554819D01*
X141376191Y-80173866D02*
X142138096Y-80173866D01*
X141757143Y-80554819D02*
X141757143Y-79792914D01*
X114138095Y-116154819D02*
X114138095Y-115154819D01*
X114138095Y-115154819D02*
X114519047Y-115154819D01*
X114519047Y-115154819D02*
X114614285Y-115202438D01*
X114614285Y-115202438D02*
X114661904Y-115250057D01*
X114661904Y-115250057D02*
X114709523Y-115345295D01*
X114709523Y-115345295D02*
X114709523Y-115488152D01*
X114709523Y-115488152D02*
X114661904Y-115583390D01*
X114661904Y-115583390D02*
X114614285Y-115631009D01*
X114614285Y-115631009D02*
X114519047Y-115678628D01*
X114519047Y-115678628D02*
X114138095Y-115678628D01*
X115709523Y-116059580D02*
X115661904Y-116107200D01*
X115661904Y-116107200D02*
X115519047Y-116154819D01*
X115519047Y-116154819D02*
X115423809Y-116154819D01*
X115423809Y-116154819D02*
X115280952Y-116107200D01*
X115280952Y-116107200D02*
X115185714Y-116011961D01*
X115185714Y-116011961D02*
X115138095Y-115916723D01*
X115138095Y-115916723D02*
X115090476Y-115726247D01*
X115090476Y-115726247D02*
X115090476Y-115583390D01*
X115090476Y-115583390D02*
X115138095Y-115392914D01*
X115138095Y-115392914D02*
X115185714Y-115297676D01*
X115185714Y-115297676D02*
X115280952Y-115202438D01*
X115280952Y-115202438D02*
X115423809Y-115154819D01*
X115423809Y-115154819D02*
X115519047Y-115154819D01*
X115519047Y-115154819D02*
X115661904Y-115202438D01*
X115661904Y-115202438D02*
X115709523Y-115250057D01*
X124354819Y-104290475D02*
X124354819Y-103671428D01*
X124354819Y-103671428D02*
X124735771Y-104004761D01*
X124735771Y-104004761D02*
X124735771Y-103861904D01*
X124735771Y-103861904D02*
X124783390Y-103766666D01*
X124783390Y-103766666D02*
X124831009Y-103719047D01*
X124831009Y-103719047D02*
X124926247Y-103671428D01*
X124926247Y-103671428D02*
X125164342Y-103671428D01*
X125164342Y-103671428D02*
X125259580Y-103719047D01*
X125259580Y-103719047D02*
X125307200Y-103766666D01*
X125307200Y-103766666D02*
X125354819Y-103861904D01*
X125354819Y-103861904D02*
X125354819Y-104147618D01*
X125354819Y-104147618D02*
X125307200Y-104242856D01*
X125307200Y-104242856D02*
X125259580Y-104290475D01*
X124688152Y-103338094D02*
X125354819Y-103099999D01*
X125354819Y-103099999D02*
X124688152Y-102861904D01*
X124354819Y-102576189D02*
X124354819Y-101957142D01*
X124354819Y-101957142D02*
X124735771Y-102290475D01*
X124735771Y-102290475D02*
X124735771Y-102147618D01*
X124735771Y-102147618D02*
X124783390Y-102052380D01*
X124783390Y-102052380D02*
X124831009Y-102004761D01*
X124831009Y-102004761D02*
X124926247Y-101957142D01*
X124926247Y-101957142D02*
X125164342Y-101957142D01*
X125164342Y-101957142D02*
X125259580Y-102004761D01*
X125259580Y-102004761D02*
X125307200Y-102052380D01*
X125307200Y-102052380D02*
X125354819Y-102147618D01*
X125354819Y-102147618D02*
X125354819Y-102433332D01*
X125354819Y-102433332D02*
X125307200Y-102528570D01*
X125307200Y-102528570D02*
X125259580Y-102576189D01*
X134307200Y-62633332D02*
X134354819Y-62490475D01*
X134354819Y-62490475D02*
X134354819Y-62252380D01*
X134354819Y-62252380D02*
X134307200Y-62157142D01*
X134307200Y-62157142D02*
X134259580Y-62109523D01*
X134259580Y-62109523D02*
X134164342Y-62061904D01*
X134164342Y-62061904D02*
X134069104Y-62061904D01*
X134069104Y-62061904D02*
X133973866Y-62109523D01*
X133973866Y-62109523D02*
X133926247Y-62157142D01*
X133926247Y-62157142D02*
X133878628Y-62252380D01*
X133878628Y-62252380D02*
X133831009Y-62442856D01*
X133831009Y-62442856D02*
X133783390Y-62538094D01*
X133783390Y-62538094D02*
X133735771Y-62585713D01*
X133735771Y-62585713D02*
X133640533Y-62633332D01*
X133640533Y-62633332D02*
X133545295Y-62633332D01*
X133545295Y-62633332D02*
X133450057Y-62585713D01*
X133450057Y-62585713D02*
X133402438Y-62538094D01*
X133402438Y-62538094D02*
X133354819Y-62442856D01*
X133354819Y-62442856D02*
X133354819Y-62204761D01*
X133354819Y-62204761D02*
X133402438Y-62061904D01*
X133354819Y-61776189D02*
X134354819Y-61442856D01*
X134354819Y-61442856D02*
X133354819Y-61109523D01*
X133973866Y-60776189D02*
X133973866Y-60014285D01*
X134354819Y-60395237D02*
X133592914Y-60395237D01*
X134307200Y-58633332D02*
X134354819Y-58490475D01*
X134354819Y-58490475D02*
X134354819Y-58252380D01*
X134354819Y-58252380D02*
X134307200Y-58157142D01*
X134307200Y-58157142D02*
X134259580Y-58109523D01*
X134259580Y-58109523D02*
X134164342Y-58061904D01*
X134164342Y-58061904D02*
X134069104Y-58061904D01*
X134069104Y-58061904D02*
X133973866Y-58109523D01*
X133973866Y-58109523D02*
X133926247Y-58157142D01*
X133926247Y-58157142D02*
X133878628Y-58252380D01*
X133878628Y-58252380D02*
X133831009Y-58442856D01*
X133831009Y-58442856D02*
X133783390Y-58538094D01*
X133783390Y-58538094D02*
X133735771Y-58585713D01*
X133735771Y-58585713D02*
X133640533Y-58633332D01*
X133640533Y-58633332D02*
X133545295Y-58633332D01*
X133545295Y-58633332D02*
X133450057Y-58585713D01*
X133450057Y-58585713D02*
X133402438Y-58538094D01*
X133402438Y-58538094D02*
X133354819Y-58442856D01*
X133354819Y-58442856D02*
X133354819Y-58204761D01*
X133354819Y-58204761D02*
X133402438Y-58061904D01*
X133354819Y-57776189D02*
X134354819Y-57442856D01*
X134354819Y-57442856D02*
X133354819Y-57109523D01*
X133973866Y-56776189D02*
X133973866Y-56014285D01*
D11*
%TO.C,J3*%
X133604000Y-85598000D02*
G75*
G02*
X132842000Y-85598000I-381000J0D01*
G01*
X132842000Y-85598000D02*
G75*
G02*
X133604000Y-85598000I381000J0D01*
G01*
D12*
X132588000Y-88861900D02*
X132588000Y-83604100D01*
X132588000Y-83604100D02*
X119126000Y-83604100D01*
X119126000Y-88861900D02*
X132588000Y-88861900D01*
X119126000Y-83604100D02*
X119126000Y-88861900D01*
D13*
%TO.C,U2*%
X117190000Y-92890000D02*
X117190000Y-93190000D01*
X117190000Y-100110000D02*
X117190000Y-99810000D01*
X117490000Y-92890000D02*
X117190000Y-92890000D01*
X117490000Y-100110000D02*
X117190000Y-100110000D01*
X124110000Y-92890000D02*
X124410000Y-92890000D01*
X124110000Y-100110000D02*
X124410000Y-100110000D01*
X124410000Y-92890000D02*
X124410000Y-93190000D01*
X124410000Y-100110000D02*
X124410000Y-99810000D01*
X116587500Y-93190000D02*
X116247500Y-92720000D01*
X116927500Y-92720000D01*
X116587500Y-93190000D01*
G36*
X116587500Y-93190000D02*
G01*
X116247500Y-92720000D01*
X116927500Y-92720000D01*
X116587500Y-93190000D01*
G37*
%TO.C,12V*%
X118400000Y-128800000D02*
G75*
G02*
X117000000Y-128800000I-700000J0D01*
G01*
X117000000Y-128800000D02*
G75*
G02*
X118400000Y-128800000I700000J0D01*
G01*
%TO.C,GND*%
X123900000Y-104600000D02*
G75*
G02*
X122500000Y-104600000I-700000J0D01*
G01*
X122500000Y-104600000D02*
G75*
G02*
X123900000Y-104600000I700000J0D01*
G01*
%TO.C,P+*%
X142500000Y-128100000D02*
G75*
G02*
X141100000Y-128100000I-700000J0D01*
G01*
X141100000Y-128100000D02*
G75*
G02*
X142500000Y-128100000I700000J0D01*
G01*
%TO.C,P-*%
X131600000Y-128000000D02*
G75*
G02*
X130200000Y-128000000I-700000J0D01*
G01*
X130200000Y-128000000D02*
G75*
G02*
X131600000Y-128000000I700000J0D01*
G01*
D12*
%TO.C,J2*%
X97534019Y-124441999D02*
X97534019Y-136682000D01*
X97534019Y-136682000D02*
X113683986Y-136682000D01*
X100077458Y-124441999D02*
X97534019Y-124441999D01*
X103077457Y-124441999D02*
X102140548Y-124441999D01*
X106077456Y-124441999D02*
X105140547Y-124441999D01*
X109077455Y-124441999D02*
X108140546Y-124441999D01*
X113683986Y-124441999D02*
X111140545Y-124441999D01*
X113683986Y-136682000D02*
X113683986Y-124441999D01*
X113937986Y-127762000D02*
X115461986Y-127127000D01*
X115461986Y-127127000D02*
X115461986Y-128397000D01*
X115461986Y-128397000D02*
X113937986Y-127762000D01*
%TO.C,J4*%
X102626999Y-66448300D02*
X98324472Y-66448300D01*
X102626999Y-106351700D02*
X102626999Y-66448300D01*
X98324472Y-106351700D02*
X102626999Y-106351700D01*
X96810399Y-67668071D02*
X96810399Y-105131929D01*
D11*
X99781000Y-106986700D02*
G75*
G02*
X99019000Y-106986700I-381000J0D01*
G01*
X99019000Y-106986700D02*
G75*
G02*
X99781000Y-106986700I381000J0D01*
G01*
D14*
%TO.C,J5*%
X131375000Y-96000000D02*
X131375000Y-100000000D01*
X131375000Y-96000000D02*
X141025000Y-96000000D01*
X137300000Y-95000000D02*
X138100000Y-95000000D01*
X137700000Y-95800000D02*
X137300000Y-95000000D01*
X138100000Y-95000000D02*
X137700000Y-95800000D01*
X139700000Y-101570000D02*
X132700000Y-101570000D01*
X141025000Y-96000000D02*
X141025000Y-100000000D01*
%TO.C,Filler*%
X104400000Y-95875000D02*
X108400000Y-95875000D01*
X104400000Y-105525000D02*
X108400000Y-105525000D01*
X104400000Y-105525000D02*
X104400000Y-95875000D01*
X104200000Y-99200000D02*
X103400000Y-99600000D01*
X103400000Y-98800000D02*
X104200000Y-99200000D01*
X103400000Y-99600000D02*
X103400000Y-98800000D01*
X109970000Y-97200000D02*
X109970000Y-104200000D01*
%TO.C,J10*%
X117125000Y-74800000D02*
X117125000Y-78800000D01*
X104475000Y-74800000D02*
X104475000Y-78800000D01*
X104475000Y-74800000D02*
X117125000Y-74800000D01*
X113800000Y-74600000D02*
X113400000Y-73800000D01*
X114200000Y-73800000D02*
X113800000Y-74600000D01*
X113400000Y-73800000D02*
X114200000Y-73800000D01*
X115800000Y-80370000D02*
X105800000Y-80370000D01*
%TO.C,J11*%
X117125000Y-65915000D02*
X117125000Y-69915000D01*
X104475000Y-65915000D02*
X104475000Y-69915000D01*
X104475000Y-65915000D02*
X117125000Y-65915000D01*
X113800000Y-65715000D02*
X113400000Y-64915000D01*
X114200000Y-64915000D02*
X113800000Y-65715000D01*
X113400000Y-64915000D02*
X114200000Y-64915000D01*
X115800000Y-71485000D02*
X105800000Y-71485000D01*
%TO.C,PressSens*%
X98275000Y-114585000D02*
X98275000Y-110585000D01*
X110925000Y-114585000D02*
X110925000Y-110585000D01*
X110925000Y-114585000D02*
X98275000Y-114585000D01*
X101600000Y-114785000D02*
X102000000Y-115585000D01*
X101200000Y-115585000D02*
X101600000Y-114785000D01*
X102000000Y-115585000D02*
X101200000Y-115585000D01*
X99600000Y-109015000D02*
X109600000Y-109015000D01*
%TO.C,J13*%
X117125000Y-57000000D02*
X117125000Y-61000000D01*
X104475000Y-57000000D02*
X104475000Y-61000000D01*
X104475000Y-57000000D02*
X117125000Y-57000000D01*
X113800000Y-56800000D02*
X113400000Y-56000000D01*
X114200000Y-56000000D02*
X113800000Y-56800000D01*
X113400000Y-56000000D02*
X114200000Y-56000000D01*
X115800000Y-62570000D02*
X105800000Y-62570000D01*
%TO.C,J1*%
X119480000Y-137675000D02*
X129640000Y-137675000D01*
X129640000Y-137675000D02*
X129640000Y-129525000D01*
X129640000Y-129525000D02*
X119480000Y-129525000D01*
X119480000Y-129525000D02*
X119480000Y-137675000D01*
D15*
X118480000Y-133625000D02*
G75*
G02*
X118280000Y-133625000I-100000J0D01*
G01*
X118280000Y-133625000D02*
G75*
G02*
X118480000Y-133625000I100000J0D01*
G01*
%TO.C,J14*%
X133440000Y-59475000D02*
G75*
G02*
X133240000Y-59475000I-100000J0D01*
G01*
X133240000Y-59475000D02*
G75*
G02*
X133440000Y-59475000I100000J0D01*
G01*
D14*
X132240000Y-63575000D02*
X132240000Y-55425000D01*
X122080000Y-63575000D02*
X132240000Y-63575000D01*
X122080000Y-55425000D02*
X122080000Y-63575000D01*
X132240000Y-55425000D02*
X122080000Y-55425000D01*
D12*
%TO.C,L2*%
X135507900Y-111314200D02*
X129056300Y-111314200D01*
X129056300Y-117765800D02*
X135507900Y-117765800D01*
X128446700Y-114540000D02*
G75*
G02*
X128294300Y-114540000I-76200J0D01*
G01*
X128294300Y-114540000D02*
G75*
G02*
X128446700Y-114540000I76200J0D01*
G01*
D14*
%TO.C,J9*%
X142650000Y-77820000D02*
X142650000Y-67660000D01*
X142650000Y-67660000D02*
X134500000Y-67660000D01*
X134500000Y-67660000D02*
X134500000Y-77820000D01*
X134500000Y-77820000D02*
X142650000Y-77820000D01*
D15*
X138700000Y-78920000D02*
G75*
G02*
X138500000Y-78920000I-100000J0D01*
G01*
X138500000Y-78920000D02*
G75*
G02*
X138700000Y-78920000I100000J0D01*
G01*
D14*
%TO.C,J7*%
X131332500Y-137575000D02*
X141492500Y-137575000D01*
X141492500Y-137575000D02*
X141492500Y-129425000D01*
X141492500Y-129425000D02*
X131332500Y-129425000D01*
X131332500Y-129425000D02*
X131332500Y-137575000D01*
D15*
X130332500Y-133525000D02*
G75*
G02*
X130132500Y-133525000I-100000J0D01*
G01*
X130132500Y-133525000D02*
G75*
G02*
X130332500Y-133525000I100000J0D01*
G01*
D13*
%TO.C,Q1*%
X125950000Y-126070000D02*
X119530000Y-126070000D01*
X125950000Y-119170000D02*
X119530000Y-119170000D01*
X119530000Y-126070000D02*
X119530000Y-125800000D01*
X119530000Y-125800000D02*
X118430000Y-125800000D01*
X119530000Y-119440000D02*
X116700000Y-119440000D01*
X119530000Y-119170000D02*
X119530000Y-119440000D01*
D12*
%TO.C,SW1*%
X114020600Y-89154000D02*
G75*
G02*
X110515400Y-89154000I-1752600J0D01*
G01*
X110515400Y-89154000D02*
G75*
G02*
X114020600Y-89154000I1752600J0D01*
G01*
X115392200Y-92278200D02*
X115392200Y-86029800D01*
X113753461Y-86029800D02*
X110782539Y-86029800D01*
X110782539Y-92278200D02*
X113753461Y-92278200D01*
X109143800Y-86029800D02*
X109143800Y-92278200D01*
D13*
%TO.C,U1*%
X124067500Y-118358000D02*
X125307500Y-118358000D01*
X125307500Y-118358000D02*
X125307500Y-117118000D01*
X116447500Y-118118000D02*
X125067500Y-118118000D01*
X116447500Y-118118000D02*
X116447500Y-106397000D01*
X125067500Y-118118000D02*
X125067500Y-106397000D01*
X116447500Y-106397000D02*
X125067500Y-106397000D01*
%TO.C,Q3*%
X126870000Y-75070000D02*
X127140000Y-75070000D01*
X133770000Y-75070000D02*
X133500000Y-75070000D01*
X126870000Y-68650000D02*
X126870000Y-75070000D01*
X133770000Y-68650000D02*
X133770000Y-75070000D01*
X127180000Y-76800000D02*
X126710000Y-77140000D01*
X126710000Y-76460000D01*
X127180000Y-76800000D01*
G36*
X127180000Y-76800000D02*
G01*
X126710000Y-77140000D01*
X126710000Y-76460000D01*
X127180000Y-76800000D01*
G37*
%TO.C,L1*%
X128910000Y-125760000D02*
X128910000Y-123460000D01*
X136310000Y-125760000D02*
X128910000Y-125760000D01*
X136310000Y-123460000D02*
X136310000Y-125760000D01*
X128910000Y-120660000D02*
X128910000Y-118360000D01*
X128910000Y-118360000D02*
X136310000Y-118360000D01*
X136310000Y-118360000D02*
X136310000Y-120660000D01*
%TO.C,Q2*%
X119050000Y-65550000D02*
X119050000Y-71970000D01*
X119050000Y-71970000D02*
X119320000Y-71970000D01*
X119320000Y-71970000D02*
X119320000Y-74800000D01*
X125680000Y-71970000D02*
X125680000Y-73070000D01*
X125950000Y-65550000D02*
X125950000Y-71970000D01*
X125950000Y-71970000D02*
X125680000Y-71970000D01*
%TO.C,TP1*%
X127450000Y-110300000D02*
G75*
G02*
X126050000Y-110300000I-700000J0D01*
G01*
X126050000Y-110300000D02*
G75*
G02*
X127450000Y-110300000I700000J0D01*
G01*
D15*
%TO.C,PS1*%
X140207500Y-105195000D02*
G75*
G02*
X140007500Y-105195000I-100000J0D01*
G01*
X140007500Y-105195000D02*
G75*
G02*
X140207500Y-105195000I100000J0D01*
G01*
D14*
X128107500Y-103195000D02*
X139607500Y-103195000D01*
X128107500Y-110745000D02*
X128107500Y-103195000D01*
X139607500Y-103195000D02*
X139607500Y-110745000D01*
X139607500Y-110745000D02*
X128107500Y-110745000D01*
D13*
%TO.C,D2*%
X135409000Y-91529000D02*
X135409000Y-93989000D01*
X135409000Y-93989000D02*
X136879000Y-93989000D01*
X136879000Y-93989000D02*
X136879000Y-91529000D01*
%TO.C,D3*%
X132234000Y-91402000D02*
X132234000Y-93862000D01*
X132234000Y-93862000D02*
X133704000Y-93862000D01*
X133704000Y-93862000D02*
X133704000Y-91402000D01*
%TO.C,D1*%
X138584000Y-91402000D02*
X138584000Y-93862000D01*
X138584000Y-93862000D02*
X140054000Y-93862000D01*
X140054000Y-93862000D02*
X140054000Y-91402000D01*
%TO.C,SVC*%
X136200000Y-64900000D02*
G75*
G02*
X134800000Y-64900000I-700000J0D01*
G01*
X134800000Y-64900000D02*
G75*
G02*
X136200000Y-64900000I700000J0D01*
G01*
%TO.C,SDO*%
X106300000Y-119800000D02*
G75*
G02*
X104900000Y-119800000I-700000J0D01*
G01*
X104900000Y-119800000D02*
G75*
G02*
X106300000Y-119800000I700000J0D01*
G01*
%TO.C,SDI*%
X108600000Y-119800000D02*
G75*
G02*
X107200000Y-119800000I-700000J0D01*
G01*
X107200000Y-119800000D02*
G75*
G02*
X108600000Y-119800000I700000J0D01*
G01*
%TO.C,CLK*%
X104000000Y-119800000D02*
G75*
G02*
X102600000Y-119800000I-700000J0D01*
G01*
X102600000Y-119800000D02*
G75*
G02*
X104000000Y-119800000I700000J0D01*
G01*
%TO.C,~{CS}*%
X112300000Y-121600000D02*
G75*
G02*
X110900000Y-121600000I-700000J0D01*
G01*
X110900000Y-121600000D02*
G75*
G02*
X112300000Y-121600000I700000J0D01*
G01*
%TO.C,~{RST}*%
X114300000Y-121600000D02*
G75*
G02*
X112900000Y-121600000I-700000J0D01*
G01*
X112900000Y-121600000D02*
G75*
G02*
X114300000Y-121600000I700000J0D01*
G01*
%TO.C,LEDC*%
X133000000Y-81500000D02*
G75*
G02*
X131600000Y-81500000I-700000J0D01*
G01*
X131600000Y-81500000D02*
G75*
G02*
X133000000Y-81500000I700000J0D01*
G01*
%TO.C,LED-*%
X137000000Y-81600000D02*
G75*
G02*
X135600000Y-81600000I-700000J0D01*
G01*
X135600000Y-81600000D02*
G75*
G02*
X137000000Y-81600000I700000J0D01*
G01*
%TO.C,LED+*%
X140700000Y-81600000D02*
G75*
G02*
X139300000Y-81600000I-700000J0D01*
G01*
X139300000Y-81600000D02*
G75*
G02*
X140700000Y-81600000I700000J0D01*
G01*
%TO.C,PC*%
X115600000Y-117300000D02*
G75*
G02*
X114200000Y-117300000I-700000J0D01*
G01*
X114200000Y-117300000D02*
G75*
G02*
X115600000Y-117300000I700000J0D01*
G01*
%TO.C,3v3*%
X127300000Y-103100000D02*
G75*
G02*
X125900000Y-103100000I-700000J0D01*
G01*
X125900000Y-103100000D02*
G75*
G02*
X127300000Y-103100000I700000J0D01*
G01*
%TO.C,SV+*%
X136200000Y-61300000D02*
G75*
G02*
X134800000Y-61300000I-700000J0D01*
G01*
X134800000Y-61300000D02*
G75*
G02*
X136200000Y-61300000I700000J0D01*
G01*
%TO.C,SV-*%
X136200000Y-57400000D02*
G75*
G02*
X134800000Y-57400000I-700000J0D01*
G01*
X134800000Y-57400000D02*
G75*
G02*
X136200000Y-57400000I700000J0D01*
G01*
%TD*%
M02*
