%TF.GenerationSoftware,KiCad,Pcbnew,9.0.0*%
%TF.CreationDate,2025-03-23T00:24:25-05:00*%
%TF.ProjectId,WaterBlasterV2,57617465-7242-46c6-9173-74657256322e,rev?*%
%TF.SameCoordinates,Original*%
%TF.FileFunction,Soldermask,Top*%
%TF.FilePolarity,Negative*%
%FSLAX46Y46*%
G04 Gerber Fmt 4.6, Leading zero omitted, Abs format (unit mm)*
G04 Created by KiCad (PCBNEW 9.0.0) date 2025-03-23 00:24:25*
%MOMM*%
%LPD*%
G01*
G04 APERTURE LIST*
G04 Aperture macros list*
%AMRoundRect*
0 Rectangle with rounded corners*
0 $1 Rounding radius*
0 $2 $3 $4 $5 $6 $7 $8 $9 X,Y pos of 4 corners*
0 Add a 4 corners polygon primitive as box body*
4,1,4,$2,$3,$4,$5,$6,$7,$8,$9,$2,$3,0*
0 Add four circle primitives for the rounded corners*
1,1,$1+$1,$2,$3*
1,1,$1+$1,$4,$5*
1,1,$1+$1,$6,$7*
1,1,$1+$1,$8,$9*
0 Add four rect primitives between the rounded corners*
20,1,$1+$1,$2,$3,$4,$5,0*
20,1,$1+$1,$4,$5,$6,$7,0*
20,1,$1+$1,$6,$7,$8,$9,0*
20,1,$1+$1,$8,$9,$2,$3,0*%
G04 Aperture macros list end*
%ADD10C,0.711200*%
%ADD11C,0.836200*%
%ADD12C,0.010000*%
%ADD13C,1.168400*%
%ADD14RoundRect,0.125000X-0.625000X-0.125000X0.625000X-0.125000X0.625000X0.125000X-0.625000X0.125000X0*%
%ADD15RoundRect,0.125000X-0.125000X-0.625000X0.125000X-0.625000X0.125000X0.625000X-0.125000X0.625000X0*%
%ADD16C,1.000000*%
%ADD17C,2.500000*%
%ADD18C,2.999999*%
%ADD19R,1.520000X1.520000*%
%ADD20C,1.520000*%
%ADD21C,1.320800*%
%ADD22C,1.574800*%
%ADD23C,1.270000*%
%ADD24RoundRect,0.102000X-0.975000X-0.975000X0.975000X-0.975000X0.975000X0.975000X-0.975000X0.975000X0*%
%ADD25C,2.154000*%
%ADD26RoundRect,0.102000X0.975000X0.975000X-0.975000X0.975000X-0.975000X-0.975000X0.975000X-0.975000X0*%
%ADD27R,1.600200X5.689600*%
%ADD28RoundRect,0.102000X0.975000X-0.975000X0.975000X0.975000X-0.975000X0.975000X-0.975000X-0.975000X0*%
%ADD29RoundRect,0.250000X-0.850000X-0.350000X0.850000X-0.350000X0.850000X0.350000X-0.850000X0.350000X0*%
%ADD30RoundRect,0.249997X-2.950003X-2.650003X2.950003X-2.650003X2.950003X2.650003X-2.950003X2.650003X0*%
%ADD31R,0.863600X2.006600*%
%ADD32R,2.300000X1.500000*%
%ADD33O,2.300000X1.500000*%
%ADD34RoundRect,0.250000X0.350000X-0.850000X0.350000X0.850000X-0.350000X0.850000X-0.350000X-0.850000X0*%
%ADD35RoundRect,0.249997X2.650003X-2.950003X2.650003X2.950003X-2.650003X2.950003X-2.650003X-2.950003X0*%
%ADD36R,1.500000X2.200000*%
%ADD37C,1.809000*%
%ADD38RoundRect,0.102000X0.802500X0.802500X-0.802500X0.802500X-0.802500X-0.802500X0.802500X-0.802500X0*%
%ADD39RoundRect,0.237500X0.237500X-0.287500X0.237500X0.287500X-0.237500X0.287500X-0.237500X-0.287500X0*%
G04 APERTURE END LIST*
D10*
%TO.C,J5*%
X132055600Y-101060000D02*
G75*
G02*
X131344400Y-101060000I-355600J0D01*
G01*
X131344400Y-101060000D02*
G75*
G02*
X132055600Y-101060000I355600J0D01*
G01*
D11*
X135118100Y-99100000D02*
G75*
G02*
X134281900Y-99100000I-418100J0D01*
G01*
X134281900Y-99100000D02*
G75*
G02*
X135118100Y-99100000I418100J0D01*
G01*
D10*
X141055600Y-101060000D02*
G75*
G02*
X140344400Y-101060000I-355600J0D01*
G01*
X140344400Y-101060000D02*
G75*
G02*
X141055600Y-101060000I355600J0D01*
G01*
D12*
X138536200Y-99936200D02*
X136863800Y-99936200D01*
X136863800Y-98263800D01*
X138536200Y-98263800D01*
X138536200Y-99936200D01*
G36*
X138536200Y-99936200D02*
G01*
X136863800Y-99936200D01*
X136863800Y-98263800D01*
X138536200Y-98263800D01*
X138536200Y-99936200D01*
G37*
D10*
%TO.C,Filler*%
X109815600Y-105200000D02*
G75*
G02*
X109104400Y-105200000I-355600J0D01*
G01*
X109104400Y-105200000D02*
G75*
G02*
X109815600Y-105200000I355600J0D01*
G01*
X109815600Y-96200000D02*
G75*
G02*
X109104400Y-96200000I-355600J0D01*
G01*
X109104400Y-96200000D02*
G75*
G02*
X109815600Y-96200000I355600J0D01*
G01*
D11*
X107918100Y-102200000D02*
G75*
G02*
X107081900Y-102200000I-418100J0D01*
G01*
X107081900Y-102200000D02*
G75*
G02*
X107918100Y-102200000I418100J0D01*
G01*
D12*
X108336200Y-100036200D02*
X106663800Y-100036200D01*
X106663800Y-98363800D01*
X108336200Y-98363800D01*
X108336200Y-100036200D01*
G36*
X108336200Y-100036200D02*
G01*
X106663800Y-100036200D01*
X106663800Y-98363800D01*
X108336200Y-98363800D01*
X108336200Y-100036200D01*
G37*
D11*
%TO.C,J10*%
X108218100Y-77900000D02*
G75*
G02*
X107381900Y-77900000I-418100J0D01*
G01*
X107381900Y-77900000D02*
G75*
G02*
X108218100Y-77900000I418100J0D01*
G01*
D10*
X105155600Y-79860000D02*
G75*
G02*
X104444400Y-79860000I-355600J0D01*
G01*
X104444400Y-79860000D02*
G75*
G02*
X105155600Y-79860000I355600J0D01*
G01*
X117155600Y-79860000D02*
G75*
G02*
X116444400Y-79860000I-355600J0D01*
G01*
X116444400Y-79860000D02*
G75*
G02*
X117155600Y-79860000I355600J0D01*
G01*
D11*
X111218100Y-77900000D02*
G75*
G02*
X110381900Y-77900000I-418100J0D01*
G01*
X110381900Y-77900000D02*
G75*
G02*
X111218100Y-77900000I418100J0D01*
G01*
D12*
X114636200Y-78736200D02*
X112963800Y-78736200D01*
X112963800Y-77063800D01*
X114636200Y-77063800D01*
X114636200Y-78736200D01*
G36*
X114636200Y-78736200D02*
G01*
X112963800Y-78736200D01*
X112963800Y-77063800D01*
X114636200Y-77063800D01*
X114636200Y-78736200D01*
G37*
D11*
%TO.C,J11*%
X108218100Y-69015000D02*
G75*
G02*
X107381900Y-69015000I-418100J0D01*
G01*
X107381900Y-69015000D02*
G75*
G02*
X108218100Y-69015000I418100J0D01*
G01*
D10*
X105155600Y-70975000D02*
G75*
G02*
X104444400Y-70975000I-355600J0D01*
G01*
X104444400Y-70975000D02*
G75*
G02*
X105155600Y-70975000I355600J0D01*
G01*
X117155600Y-70975000D02*
G75*
G02*
X116444400Y-70975000I-355600J0D01*
G01*
X116444400Y-70975000D02*
G75*
G02*
X117155600Y-70975000I355600J0D01*
G01*
D11*
X111218100Y-69015000D02*
G75*
G02*
X110381900Y-69015000I-418100J0D01*
G01*
X110381900Y-69015000D02*
G75*
G02*
X111218100Y-69015000I418100J0D01*
G01*
D12*
X114636200Y-69851200D02*
X112963800Y-69851200D01*
X112963800Y-68178800D01*
X114636200Y-68178800D01*
X114636200Y-69851200D01*
G36*
X114636200Y-69851200D02*
G01*
X112963800Y-69851200D01*
X112963800Y-68178800D01*
X114636200Y-68178800D01*
X114636200Y-69851200D01*
G37*
D11*
%TO.C,PressSens*%
X108018100Y-111485000D02*
G75*
G02*
X107181900Y-111485000I-418100J0D01*
G01*
X107181900Y-111485000D02*
G75*
G02*
X108018100Y-111485000I418100J0D01*
G01*
D10*
X110955600Y-109525000D02*
G75*
G02*
X110244400Y-109525000I-355600J0D01*
G01*
X110244400Y-109525000D02*
G75*
G02*
X110955600Y-109525000I355600J0D01*
G01*
X98955600Y-109525000D02*
G75*
G02*
X98244400Y-109525000I-355600J0D01*
G01*
X98244400Y-109525000D02*
G75*
G02*
X98955600Y-109525000I355600J0D01*
G01*
D11*
X105018100Y-111485000D02*
G75*
G02*
X104181900Y-111485000I-418100J0D01*
G01*
X104181900Y-111485000D02*
G75*
G02*
X105018100Y-111485000I418100J0D01*
G01*
D12*
X102436200Y-112321200D02*
X100763800Y-112321200D01*
X100763800Y-110648800D01*
X102436200Y-110648800D01*
X102436200Y-112321200D01*
G36*
X102436200Y-112321200D02*
G01*
X100763800Y-112321200D01*
X100763800Y-110648800D01*
X102436200Y-110648800D01*
X102436200Y-112321200D01*
G37*
D11*
%TO.C,J13*%
X108218100Y-60100000D02*
G75*
G02*
X107381900Y-60100000I-418100J0D01*
G01*
X107381900Y-60100000D02*
G75*
G02*
X108218100Y-60100000I418100J0D01*
G01*
D10*
X105155600Y-62060000D02*
G75*
G02*
X104444400Y-62060000I-355600J0D01*
G01*
X104444400Y-62060000D02*
G75*
G02*
X105155600Y-62060000I355600J0D01*
G01*
X117155600Y-62060000D02*
G75*
G02*
X116444400Y-62060000I-355600J0D01*
G01*
X116444400Y-62060000D02*
G75*
G02*
X117155600Y-62060000I355600J0D01*
G01*
D11*
X111218100Y-60100000D02*
G75*
G02*
X110381900Y-60100000I-418100J0D01*
G01*
X110381900Y-60100000D02*
G75*
G02*
X111218100Y-60100000I418100J0D01*
G01*
D12*
X114636200Y-60936200D02*
X112963800Y-60936200D01*
X112963800Y-59263800D01*
X114636200Y-59263800D01*
X114636200Y-60936200D01*
G36*
X114636200Y-60936200D02*
G01*
X112963800Y-60936200D01*
X112963800Y-59263800D01*
X114636200Y-59263800D01*
X114636200Y-60936200D01*
G37*
%TD*%
D13*
%TO.C,J3*%
X123317000Y-86868000D03*
X123317000Y-85598000D03*
X124587000Y-86868000D03*
X124587000Y-85598000D03*
X125857000Y-86868000D03*
X125857000Y-85598000D03*
X127127000Y-86868000D03*
X127127000Y-85598000D03*
X128397000Y-86868000D03*
X128397000Y-85598000D03*
%TD*%
D14*
%TO.C,U2*%
X116625000Y-93700000D03*
X116625000Y-94500000D03*
X116625000Y-95300000D03*
X116625000Y-96100000D03*
X116625000Y-96900000D03*
X116625000Y-97700000D03*
X116625000Y-98500000D03*
X116625000Y-99300000D03*
D15*
X118000000Y-100675000D03*
X118800000Y-100675000D03*
X119600000Y-100675000D03*
X120400000Y-100675000D03*
X121200000Y-100675000D03*
X122000000Y-100675000D03*
X122800000Y-100675000D03*
X123600000Y-100675000D03*
D14*
X124975000Y-99300000D03*
X124975000Y-98500000D03*
X124975000Y-97700000D03*
X124975000Y-96900000D03*
X124975000Y-96100000D03*
X124975000Y-95300000D03*
X124975000Y-94500000D03*
X124975000Y-93700000D03*
D15*
X123600000Y-92325000D03*
X122800000Y-92325000D03*
X122000000Y-92325000D03*
X121200000Y-92325000D03*
X120400000Y-92325000D03*
X119600000Y-92325000D03*
X118800000Y-92325000D03*
X118000000Y-92325000D03*
%TD*%
D16*
%TO.C,12V*%
X117700000Y-128800000D03*
%TD*%
%TO.C,GND*%
X123200000Y-104600000D03*
%TD*%
%TO.C,P+*%
X141800000Y-128100000D03*
%TD*%
%TO.C,P-*%
X130900000Y-128000000D03*
%TD*%
D17*
%TO.C,H1*%
X99600000Y-60200000D03*
%TD*%
%TO.C,H2*%
X139573000Y-60325000D03*
%TD*%
%TO.C,H3*%
X99600000Y-120100000D03*
%TD*%
%TO.C,H4*%
X139700000Y-120142000D03*
%TD*%
D18*
%TO.C,J2*%
X103269004Y-132081999D03*
X107968994Y-132081999D03*
D19*
X110109000Y-127762000D03*
D20*
X107109001Y-127762000D03*
X104109002Y-127762000D03*
X101109003Y-127762000D03*
X110109000Y-124762001D03*
X107109001Y-124762001D03*
X104109002Y-124762001D03*
X101109003Y-124762001D03*
%TD*%
D21*
%TO.C,J4*%
X97439999Y-105899999D03*
X97439999Y-66900001D03*
D22*
X99400000Y-69900005D03*
X99400000Y-72900004D03*
X99400000Y-75900003D03*
X99400000Y-78900002D03*
X99400000Y-81900001D03*
X99400000Y-84900000D03*
X99400000Y-87900000D03*
X99400000Y-90899999D03*
X99400000Y-93899998D03*
X99400000Y-96899997D03*
X99400000Y-99899996D03*
X99400000Y-102899995D03*
%TD*%
D23*
%TO.C,J5*%
X131700000Y-101060000D03*
X140700000Y-101060000D03*
%TD*%
%TO.C,Filler*%
X109460000Y-105200000D03*
X109460000Y-96200000D03*
%TD*%
%TO.C,J10*%
X104800000Y-79860000D03*
X116800000Y-79860000D03*
%TD*%
%TO.C,J11*%
X104800000Y-70975000D03*
X116800000Y-70975000D03*
%TD*%
%TO.C,PressSens*%
X110600000Y-109525000D03*
X98600000Y-109525000D03*
%TD*%
%TO.C,J13*%
X104800000Y-62060000D03*
X116800000Y-62060000D03*
%TD*%
D24*
%TO.C,J1*%
X122020000Y-133625000D03*
D25*
X127100000Y-133625000D03*
%TD*%
%TO.C,J14*%
X124620000Y-59475000D03*
D26*
X129700000Y-59475000D03*
%TD*%
D27*
%TO.C,L2*%
X134631600Y-114540000D03*
X129932600Y-114540000D03*
%TD*%
D28*
%TO.C,J9*%
X138600000Y-75280000D03*
D25*
X138600000Y-70200000D03*
%TD*%
D24*
%TO.C,J7*%
X133872500Y-133525000D03*
D25*
X138952500Y-133525000D03*
%TD*%
D29*
%TO.C,Q1*%
X117800000Y-124900000D03*
D30*
X124100000Y-122620000D03*
D29*
X117800000Y-120340000D03*
%TD*%
D31*
%TO.C,SW1*%
X114518001Y-85305900D03*
X114518001Y-93002100D03*
X110017999Y-85305900D03*
X110017999Y-93002100D03*
%TD*%
D32*
%TO.C,U1*%
X123007500Y-114747000D03*
D33*
X123007500Y-112207000D03*
X123007500Y-109667000D03*
%TD*%
D34*
%TO.C,Q3*%
X128040000Y-76800000D03*
D35*
X130320000Y-70500000D03*
D34*
X132600000Y-76800000D03*
%TD*%
D36*
%TO.C,L1*%
X135810000Y-122060000D03*
X129410000Y-122060000D03*
%TD*%
D34*
%TO.C,Q2*%
X120220000Y-73700000D03*
D35*
X122500000Y-67400000D03*
D34*
X124780000Y-73700000D03*
%TD*%
D16*
%TO.C,TP1*%
X126750000Y-110300000D03*
%TD*%
D37*
%TO.C,PS1*%
X131317500Y-105195000D03*
X133857500Y-105195000D03*
D38*
X136397500Y-105195000D03*
%TD*%
D39*
%TO.C,D2*%
X136144000Y-93204000D03*
X136144000Y-91454000D03*
%TD*%
%TO.C,D3*%
X132969000Y-93077000D03*
X132969000Y-91327000D03*
%TD*%
%TO.C,D1*%
X139319000Y-93077000D03*
X139319000Y-91327000D03*
%TD*%
D16*
%TO.C,SVC*%
X135500000Y-64900000D03*
%TD*%
%TO.C,SDO*%
X105600000Y-119800000D03*
%TD*%
%TO.C,SDI*%
X107900000Y-119800000D03*
%TD*%
%TO.C,CLK*%
X103300000Y-119800000D03*
%TD*%
%TO.C,~{CS}*%
X111600000Y-121600000D03*
%TD*%
%TO.C,~{RST}*%
X113600000Y-121600000D03*
%TD*%
%TO.C,LEDC*%
X132300000Y-81500000D03*
%TD*%
%TO.C,LED-*%
X136300000Y-81600000D03*
%TD*%
%TO.C,LED+*%
X140000000Y-81600000D03*
%TD*%
%TO.C,PC*%
X114900000Y-117300000D03*
%TD*%
%TO.C,3v3*%
X126600000Y-103100000D03*
%TD*%
%TO.C,SV+*%
X135500000Y-61300000D03*
%TD*%
%TO.C,SV-*%
X135500000Y-57400000D03*
%TD*%
M02*
