%TF.GenerationSoftware,KiCad,Pcbnew,9.0.0*%
%TF.CreationDate,2025-03-23T00:29:21-05:00*%
%TF.ProjectId,LeakDetectionSensorV1,4c65616b-4465-4746-9563-74696f6e5365,rev?*%
%TF.SameCoordinates,Original*%
%TF.FileFunction,Copper,L1,Top*%
%TF.FilePolarity,Positive*%
%FSLAX46Y46*%
G04 Gerber Fmt 4.6, Leading zero omitted, Abs format (unit mm)*
G04 Created by KiCad (PCBNEW 9.0.0) date 2025-03-23 00:29:21*
%MOMM*%
%LPD*%
G01*
G04 APERTURE LIST*
G04 Aperture macros list*
%AMRoundRect*
0 Rectangle with rounded corners*
0 $1 Rounding radius*
0 $2 $3 $4 $5 $6 $7 $8 $9 X,Y pos of 4 corners*
0 Add a 4 corners polygon primitive as box body*
4,1,4,$2,$3,$4,$5,$6,$7,$8,$9,$2,$3,0*
0 Add four circle primitives for the rounded corners*
1,1,$1+$1,$2,$3*
1,1,$1+$1,$4,$5*
1,1,$1+$1,$6,$7*
1,1,$1+$1,$8,$9*
0 Add four rect primitives between the rounded corners*
20,1,$1+$1,$2,$3,$4,$5,0*
20,1,$1+$1,$4,$5,$6,$7,0*
20,1,$1+$1,$6,$7,$8,$9,0*
20,1,$1+$1,$8,$9,$2,$3,0*%
G04 Aperture macros list end*
%TA.AperFunction,ComponentPad*%
%ADD10C,3.000000*%
%TD*%
%TA.AperFunction,ComponentPad*%
%ADD11RoundRect,0.250001X0.759999X-0.499999X0.759999X0.499999X-0.759999X0.499999X-0.759999X-0.499999X0*%
%TD*%
%TA.AperFunction,ComponentPad*%
%ADD12O,2.020000X1.500000*%
%TD*%
%TA.AperFunction,SMDPad,CuDef*%
%ADD13RoundRect,0.237500X-0.237500X0.250000X-0.237500X-0.250000X0.237500X-0.250000X0.237500X0.250000X0*%
%TD*%
%TA.AperFunction,Conductor*%
%ADD14C,0.200000*%
%TD*%
G04 APERTURE END LIST*
D10*
%TO.P,3V3,1,1*%
%TO.N,+3V3*%
X138800000Y-95000000D03*
%TD*%
%TO.P,GND,1,1*%
%TO.N,GND*%
X139000000Y-90600000D03*
%TD*%
%TO.P,SENS,1,1*%
%TO.N,Net-(J1-Pin_1)*%
X139000000Y-99400000D03*
%TD*%
D11*
%TO.P,J1,1,Pin_1*%
%TO.N,Net-(J1-Pin_1)*%
X132985000Y-98200000D03*
D12*
%TO.P,J1,2,Pin_2*%
%TO.N,+3V3*%
X132985000Y-95200000D03*
%TO.P,J1,3,Pin_3*%
%TO.N,GND*%
X132985000Y-92200000D03*
%TD*%
D13*
%TO.P,R1,1*%
%TO.N,+3V3*%
X142000000Y-96587500D03*
%TO.P,R1,2*%
%TO.N,Net-(J1-Pin_1)*%
X142000000Y-98412500D03*
%TD*%
D14*
%TO.N,GND*%
X171205000Y-89960000D02*
X144960000Y-89960000D01*
X145000000Y-96300000D02*
X144700000Y-96000000D01*
X144700000Y-99500000D02*
X144700000Y-98800000D01*
X145000000Y-93500000D02*
X144700000Y-93200000D01*
X145000000Y-89300000D02*
X144700000Y-89000000D01*
X145000000Y-95600000D02*
X144700000Y-95300000D01*
X144700000Y-91100000D02*
X144700000Y-90400000D01*
X144700000Y-89700000D02*
X144700000Y-89300000D01*
X144700000Y-96000000D02*
X144700000Y-95300000D01*
X171245000Y-96300000D02*
X145000000Y-96300000D01*
X144700000Y-95300000D02*
X144700000Y-94600000D01*
X134460000Y-91000000D02*
X132960000Y-92500000D01*
X144700000Y-97400000D02*
X144700000Y-96700000D01*
X144700000Y-100200000D02*
X144700000Y-99500000D01*
X145000000Y-97700000D02*
X144700000Y-97400000D01*
X145000000Y-94900000D02*
X144700000Y-94600000D01*
X144700000Y-98100000D02*
X144700000Y-97400000D01*
X144700000Y-91800000D02*
X144700000Y-91100000D01*
X144700000Y-94600000D02*
X144700000Y-93900000D01*
X171245000Y-92800000D02*
X145000000Y-92800000D01*
X138400000Y-91000000D02*
X134460000Y-91000000D01*
X171245000Y-97700000D02*
X145000000Y-97700000D01*
X171245000Y-101200000D02*
X145000000Y-101200000D01*
X171245000Y-100500000D02*
X145000000Y-100500000D01*
X145000000Y-94200000D02*
X144700000Y-93900000D01*
X139000000Y-90400000D02*
X138400000Y-91000000D01*
X144700000Y-96700000D02*
X144700000Y-96000000D01*
X145000000Y-91400000D02*
X144700000Y-91100000D01*
X140400000Y-89000000D02*
X139000000Y-90400000D01*
X171245000Y-90700000D02*
X145000000Y-90700000D01*
X171245000Y-94200000D02*
X145000000Y-94200000D01*
X145000000Y-101200000D02*
X144700000Y-100900000D01*
X171245000Y-91400000D02*
X145000000Y-91400000D01*
X171200000Y-89300000D02*
X145000000Y-89300000D01*
X144700000Y-98800000D02*
X144700000Y-98100000D01*
X144700000Y-89300000D02*
X144700000Y-89000000D01*
X171245000Y-95600000D02*
X145000000Y-95600000D01*
X139000000Y-90400000D02*
X139000000Y-90600000D01*
X145000000Y-90700000D02*
X144700000Y-90400000D01*
X144700000Y-90400000D02*
X144700000Y-89700000D01*
X145000000Y-98400000D02*
X144700000Y-98100000D01*
X145000000Y-92100000D02*
X144700000Y-91800000D01*
X171245000Y-99800000D02*
X145000000Y-99800000D01*
X144700000Y-92500000D02*
X144700000Y-91800000D01*
X145000000Y-97000000D02*
X144700000Y-96700000D01*
X171245000Y-93500000D02*
X145000000Y-93500000D01*
X145000000Y-92800000D02*
X144700000Y-92500000D01*
X171245000Y-98400000D02*
X145000000Y-98400000D01*
X171245000Y-92100000D02*
X145000000Y-92100000D01*
X144700000Y-100900000D02*
X144700000Y-100200000D01*
X145000000Y-99100000D02*
X144700000Y-98800000D01*
X171245000Y-97000000D02*
X145000000Y-97000000D01*
X171245000Y-99100000D02*
X145000000Y-99100000D01*
X144700000Y-89000000D02*
X140400000Y-89000000D01*
X171245000Y-94900000D02*
X145000000Y-94900000D01*
X144700000Y-93900000D02*
X144700000Y-93200000D01*
X145000000Y-100500000D02*
X144700000Y-100200000D01*
X145000000Y-99800000D02*
X144700000Y-99500000D01*
X144700000Y-93200000D02*
X144700000Y-92500000D01*
X144960000Y-89960000D02*
X144700000Y-89700000D01*
%TO.N,+3V3*%
X132960000Y-95500000D02*
X138950000Y-95500000D01*
X138950000Y-95500000D02*
X139000000Y-95450000D01*
X140137500Y-96587500D02*
X139000000Y-95450000D01*
X142000000Y-96587500D02*
X140137500Y-96587500D01*
%TO.N,Net-(J1-Pin_1)*%
X145340000Y-95240000D02*
X171640000Y-95240000D01*
X145340000Y-93140000D02*
X171740000Y-93140000D01*
X142000000Y-98412500D02*
X142000000Y-99500000D01*
X172100000Y-92100000D02*
X172100000Y-91400000D01*
X145340000Y-92440000D02*
X171740000Y-92440000D01*
X137000000Y-98500000D02*
X132960000Y-98500000D01*
X171740000Y-91040000D02*
X172100000Y-91400000D01*
X172100000Y-95700000D02*
X172100000Y-95000000D01*
X172100000Y-97100000D02*
X172100000Y-96400000D01*
X171740000Y-92440000D02*
X172100000Y-92800000D01*
X172100000Y-101200000D02*
X172100000Y-100600000D01*
X172100000Y-91400000D02*
X172100000Y-90700000D01*
X171640000Y-97340000D02*
X172100000Y-97800000D01*
X145300000Y-90300000D02*
X171700000Y-90300000D01*
X145340000Y-98740000D02*
X171640000Y-98740000D01*
X172100000Y-95000000D02*
X172100000Y-94300000D01*
X145340000Y-91040000D02*
X171740000Y-91040000D01*
X171740000Y-91740000D02*
X172100000Y-92100000D01*
X144001000Y-101501000D02*
X172099000Y-101501000D01*
X172100000Y-92800000D02*
X172100000Y-92100000D01*
X145340000Y-94540000D02*
X171640000Y-94540000D01*
X145340000Y-96640000D02*
X171640000Y-96640000D01*
X172100000Y-94300000D02*
X172100000Y-93500000D01*
X172100000Y-101500000D02*
X172100000Y-101200000D01*
X172100000Y-93500000D02*
X172100000Y-92800000D01*
X145340000Y-100840000D02*
X171740000Y-100840000D01*
X172100000Y-98500000D02*
X172100000Y-97800000D01*
X172100000Y-97800000D02*
X172100000Y-97100000D01*
X171640000Y-100140000D02*
X172100000Y-100600000D01*
X171640000Y-95240000D02*
X172100000Y-95700000D01*
X145340000Y-98040000D02*
X171640000Y-98040000D01*
X139000000Y-100500000D02*
X141087500Y-98412500D01*
X142000000Y-99500000D02*
X144001000Y-101501000D01*
X171758225Y-89640000D02*
X145340000Y-89640000D01*
X145340000Y-93840000D02*
X171640000Y-93840000D01*
X172100000Y-100600000D02*
X172100000Y-99900000D01*
X171740000Y-100840000D02*
X172100000Y-101200000D01*
X172100000Y-89981775D02*
X171758225Y-89640000D01*
X172100000Y-99900000D02*
X172100000Y-99200000D01*
X145340000Y-97340000D02*
X171640000Y-97340000D01*
X171640000Y-98740000D02*
X172100000Y-99200000D01*
X171640000Y-95940000D02*
X172100000Y-96400000D01*
X171640000Y-94540000D02*
X172100000Y-95000000D01*
X141087500Y-98412500D02*
X142000000Y-98412500D01*
X145340000Y-100140000D02*
X171640000Y-100140000D01*
X171740000Y-93140000D02*
X172100000Y-93500000D01*
X172100000Y-90700000D02*
X172100000Y-89981775D01*
X172100000Y-99200000D02*
X172100000Y-98500000D01*
X171640000Y-93840000D02*
X172100000Y-94300000D01*
X145340000Y-95940000D02*
X171640000Y-95940000D01*
X145340000Y-99440000D02*
X171640000Y-99440000D01*
X172100000Y-96400000D02*
X172100000Y-95700000D01*
X139000000Y-100500000D02*
X137000000Y-98500000D01*
X171640000Y-98040000D02*
X172100000Y-98500000D01*
X145340000Y-91740000D02*
X171740000Y-91740000D01*
X171700000Y-90300000D02*
X172100000Y-90700000D01*
X171640000Y-96640000D02*
X172100000Y-97100000D01*
X171640000Y-99440000D02*
X172100000Y-99900000D01*
X172099000Y-101501000D02*
X172100000Y-101500000D01*
%TD*%
%TA.AperFunction,Conductor*%
%TO.N,+3V3*%
G36*
X130154901Y-88720185D02*
G01*
X130200656Y-88772989D01*
X130210600Y-88842147D01*
X130202423Y-88871953D01*
X130173529Y-88941708D01*
X130173527Y-88941716D01*
X130139500Y-89112781D01*
X130139500Y-89287218D01*
X130173527Y-89458283D01*
X130173529Y-89458291D01*
X130240278Y-89619439D01*
X130240283Y-89619448D01*
X130337186Y-89764473D01*
X130337189Y-89764477D01*
X130460522Y-89887810D01*
X130460526Y-89887813D01*
X130605551Y-89984716D01*
X130605557Y-89984719D01*
X130605558Y-89984720D01*
X130766709Y-90051471D01*
X130937781Y-90085499D01*
X130937785Y-90085500D01*
X130937786Y-90085500D01*
X131112215Y-90085500D01*
X131112216Y-90085499D01*
X131283291Y-90051471D01*
X131444442Y-89984720D01*
X131589474Y-89887813D01*
X131712813Y-89764474D01*
X131809720Y-89619442D01*
X131876471Y-89458291D01*
X131910500Y-89287214D01*
X131910500Y-89112786D01*
X131876471Y-88941709D01*
X131847576Y-88871952D01*
X131840108Y-88802483D01*
X131871383Y-88740004D01*
X131931472Y-88704352D01*
X131962138Y-88700500D01*
X137826256Y-88700500D01*
X137893295Y-88720185D01*
X137939050Y-88772989D01*
X137948994Y-88842147D01*
X137919969Y-88905703D01*
X137889565Y-88930805D01*
X137889574Y-88930819D01*
X137889441Y-88930907D01*
X137888254Y-88931888D01*
X137886197Y-88933075D01*
X137678148Y-89092718D01*
X137492718Y-89278148D01*
X137333075Y-89486196D01*
X137201958Y-89713299D01*
X137201953Y-89713309D01*
X137101605Y-89955571D01*
X137101602Y-89955581D01*
X137033729Y-90208885D01*
X137022829Y-90291685D01*
X136994562Y-90355582D01*
X136936238Y-90394053D01*
X136899890Y-90399500D01*
X134380940Y-90399500D01*
X134340019Y-90410464D01*
X134340019Y-90410465D01*
X134302751Y-90420451D01*
X134228214Y-90440423D01*
X134228209Y-90440426D01*
X134091290Y-90519475D01*
X134091282Y-90519481D01*
X133979478Y-90631286D01*
X133661483Y-90949280D01*
X133600160Y-90982765D01*
X133542939Y-90979899D01*
X133542572Y-90981430D01*
X133537826Y-90980291D01*
X133343422Y-90949500D01*
X133343417Y-90949500D01*
X132626583Y-90949500D01*
X132626578Y-90949500D01*
X132432173Y-90980290D01*
X132244970Y-91041117D01*
X132069594Y-91130476D01*
X132002729Y-91179057D01*
X131910354Y-91246172D01*
X131910352Y-91246174D01*
X131910351Y-91246174D01*
X131771174Y-91385351D01*
X131771174Y-91385352D01*
X131771172Y-91385354D01*
X131721485Y-91453741D01*
X131655476Y-91544594D01*
X131566117Y-91719970D01*
X131505290Y-91907173D01*
X131474500Y-92101577D01*
X131474500Y-92298422D01*
X131505290Y-92492826D01*
X131566117Y-92680029D01*
X131655476Y-92855405D01*
X131771172Y-93014646D01*
X131910354Y-93153828D01*
X132069595Y-93269524D01*
X132107935Y-93289059D01*
X132244970Y-93358882D01*
X132244972Y-93358882D01*
X132244975Y-93358884D01*
X132345317Y-93391487D01*
X132432173Y-93419709D01*
X132626578Y-93450500D01*
X132626583Y-93450500D01*
X133343422Y-93450500D01*
X133537826Y-93419709D01*
X133725025Y-93358884D01*
X133900405Y-93269524D01*
X134059646Y-93153828D01*
X134198828Y-93014646D01*
X134314524Y-92855405D01*
X134403884Y-92680025D01*
X134464709Y-92492826D01*
X134479721Y-92398043D01*
X134495500Y-92298422D01*
X134495500Y-92101578D01*
X134481716Y-92014557D01*
X134466026Y-91915491D01*
X134466727Y-91910068D01*
X134464815Y-91904941D01*
X134471156Y-91875788D01*
X134474980Y-91846201D01*
X134478812Y-91840596D01*
X134479667Y-91836668D01*
X134500811Y-91808422D01*
X134672417Y-91636816D01*
X134733740Y-91603334D01*
X134760097Y-91600500D01*
X137196069Y-91600500D01*
X137263108Y-91620185D01*
X137303456Y-91662500D01*
X137333075Y-91713803D01*
X137492718Y-91921851D01*
X137492726Y-91921860D01*
X137678140Y-92107274D01*
X137678148Y-92107281D01*
X137886196Y-92266924D01*
X138113299Y-92398041D01*
X138113309Y-92398046D01*
X138342129Y-92492826D01*
X138355581Y-92498398D01*
X138608884Y-92566270D01*
X138868880Y-92600500D01*
X138868887Y-92600500D01*
X139131113Y-92600500D01*
X139131120Y-92600500D01*
X139391116Y-92566270D01*
X139644419Y-92498398D01*
X139886697Y-92398043D01*
X140113803Y-92266924D01*
X140321851Y-92107282D01*
X140321855Y-92107277D01*
X140321860Y-92107274D01*
X140507274Y-91921860D01*
X140507277Y-91921855D01*
X140507282Y-91921851D01*
X140666924Y-91713803D01*
X140798043Y-91486697D01*
X140898398Y-91244419D01*
X140966270Y-90991116D01*
X141000500Y-90731120D01*
X141000500Y-90468880D01*
X140966270Y-90208884D01*
X140898398Y-89955581D01*
X140876502Y-89902720D01*
X140822337Y-89771953D01*
X140814868Y-89702483D01*
X140846143Y-89640004D01*
X140906232Y-89604352D01*
X140936898Y-89600500D01*
X143975499Y-89600500D01*
X143984184Y-89603050D01*
X143993144Y-89601762D01*
X144017183Y-89612739D01*
X144042538Y-89620185D01*
X144048465Y-89627025D01*
X144056700Y-89630786D01*
X144070989Y-89653020D01*
X144088293Y-89672989D01*
X144090579Y-89683500D01*
X144094476Y-89689563D01*
X144099498Y-89724494D01*
X144099499Y-89724498D01*
X144099499Y-89779057D01*
X144099499Y-89779059D01*
X144099500Y-89789053D01*
X144099500Y-90313330D01*
X144099499Y-90313348D01*
X144099499Y-90489046D01*
X144099500Y-90489059D01*
X144099500Y-91020939D01*
X144099499Y-91020943D01*
X144099499Y-91179057D01*
X144099500Y-91179060D01*
X144099500Y-91713330D01*
X144099499Y-91713348D01*
X144099499Y-91889046D01*
X144099500Y-91889059D01*
X144099500Y-92420939D01*
X144099499Y-92420943D01*
X144099499Y-92579057D01*
X144099500Y-92579060D01*
X144099500Y-93113330D01*
X144099499Y-93113348D01*
X144099499Y-93289046D01*
X144099500Y-93289059D01*
X144099500Y-93820939D01*
X144099499Y-93820943D01*
X144099499Y-93979057D01*
X144099500Y-93979060D01*
X144099500Y-94513330D01*
X144099499Y-94513348D01*
X144099499Y-94689046D01*
X144099500Y-94689059D01*
X144099500Y-95220939D01*
X144099499Y-95220943D01*
X144099499Y-95379057D01*
X144099500Y-95379060D01*
X144099500Y-95913330D01*
X144099499Y-95913348D01*
X144099499Y-96089046D01*
X144099500Y-96089059D01*
X144099500Y-96620939D01*
X144099499Y-96620943D01*
X144099499Y-96779057D01*
X144099500Y-96779060D01*
X144099500Y-97313330D01*
X144099499Y-97313348D01*
X144099499Y-97489046D01*
X144099500Y-97489059D01*
X144099500Y-98020939D01*
X144099499Y-98020943D01*
X144099499Y-98179057D01*
X144099500Y-98179060D01*
X144099500Y-98713330D01*
X144099499Y-98713348D01*
X144099499Y-98889046D01*
X144099500Y-98889059D01*
X144099500Y-99420939D01*
X144099499Y-99420943D01*
X144099499Y-99579057D01*
X144099500Y-99579060D01*
X144099500Y-100113330D01*
X144099499Y-100113348D01*
X144099499Y-100289046D01*
X144099500Y-100289059D01*
X144099500Y-100450903D01*
X144079815Y-100517942D01*
X144027011Y-100563697D01*
X143957853Y-100573641D01*
X143894297Y-100544616D01*
X143887819Y-100538584D01*
X142734143Y-99384908D01*
X142700658Y-99323585D01*
X142705642Y-99253893D01*
X142734139Y-99209550D01*
X142820340Y-99123350D01*
X142910908Y-98976516D01*
X142965174Y-98812753D01*
X142975500Y-98711677D01*
X142975499Y-98113324D01*
X142969197Y-98051635D01*
X142965174Y-98012247D01*
X142910908Y-97848484D01*
X142820340Y-97701650D01*
X142706017Y-97587327D01*
X142672532Y-97526004D01*
X142677516Y-97456312D01*
X142706017Y-97411964D01*
X142819948Y-97298033D01*
X142910448Y-97151311D01*
X142910453Y-97151300D01*
X142964680Y-96987652D01*
X142974999Y-96886654D01*
X142975000Y-96886641D01*
X142975000Y-96837500D01*
X141025001Y-96837500D01*
X141025001Y-96886654D01*
X141035319Y-96987652D01*
X141089546Y-97151300D01*
X141089551Y-97151311D01*
X141180052Y-97298034D01*
X141180055Y-97298038D01*
X141293982Y-97411965D01*
X141296235Y-97416091D01*
X141300187Y-97418643D01*
X141312824Y-97446472D01*
X141327467Y-97473288D01*
X141327131Y-97477978D01*
X141329076Y-97482260D01*
X141324663Y-97512493D01*
X141322483Y-97542980D01*
X141319475Y-97548036D01*
X141318985Y-97551397D01*
X141308601Y-97566318D01*
X141299841Y-97581048D01*
X141297017Y-97584292D01*
X141179660Y-97701650D01*
X141142596Y-97761739D01*
X141135929Y-97769401D01*
X141114707Y-97782975D01*
X141095979Y-97799821D01*
X141084181Y-97802502D01*
X141077071Y-97807050D01*
X141064286Y-97807022D01*
X141042389Y-97811999D01*
X141008443Y-97811999D01*
X140901087Y-97840765D01*
X140855710Y-97852924D01*
X140855709Y-97852925D01*
X140810451Y-97879056D01*
X140810450Y-97879057D01*
X140764617Y-97905518D01*
X140718785Y-97931979D01*
X140718782Y-97931981D01*
X140627630Y-98023134D01*
X140566307Y-98056619D01*
X140496615Y-98051635D01*
X140452268Y-98023134D01*
X140321860Y-97892726D01*
X140321851Y-97892718D01*
X140113803Y-97733075D01*
X139886700Y-97601958D01*
X139886690Y-97601953D01*
X139644428Y-97501605D01*
X139644421Y-97501603D01*
X139644419Y-97501602D01*
X139391116Y-97433730D01*
X139321009Y-97424500D01*
X139131127Y-97399500D01*
X139131120Y-97399500D01*
X138868880Y-97399500D01*
X138868872Y-97399500D01*
X138637772Y-97429926D01*
X138608884Y-97433730D01*
X138402269Y-97489092D01*
X138355581Y-97501602D01*
X138355571Y-97501605D01*
X138113309Y-97601953D01*
X138113299Y-97601958D01*
X137886196Y-97733075D01*
X137678148Y-97892718D01*
X137547732Y-98023134D01*
X137486409Y-98056619D01*
X137416717Y-98051635D01*
X137394285Y-98040576D01*
X137382337Y-98033101D01*
X137368716Y-98019480D01*
X137264960Y-97959577D01*
X137231785Y-97940423D01*
X137231784Y-97940422D01*
X137231783Y-97940422D01*
X137175881Y-97925443D01*
X137079057Y-97899499D01*
X136920943Y-97899499D01*
X136913347Y-97899499D01*
X136913331Y-97899500D01*
X134619500Y-97899500D01*
X134552461Y-97879815D01*
X134506706Y-97827011D01*
X134495500Y-97775500D01*
X134495500Y-97649997D01*
X134495499Y-97649984D01*
X134484999Y-97547204D01*
X134484999Y-97547203D01*
X134429814Y-97380666D01*
X134388291Y-97313348D01*
X134337713Y-97231348D01*
X134337710Y-97231344D01*
X134213655Y-97107289D01*
X134213651Y-97107286D01*
X134064337Y-97015187D01*
X134064335Y-97015186D01*
X133981065Y-96987593D01*
X133897797Y-96960001D01*
X133897795Y-96960000D01*
X133795015Y-96949500D01*
X133795008Y-96949500D01*
X132174992Y-96949500D01*
X132174984Y-96949500D01*
X132072204Y-96960000D01*
X132072203Y-96960001D01*
X131905664Y-97015186D01*
X131905662Y-97015187D01*
X131756348Y-97107286D01*
X131756344Y-97107289D01*
X131632289Y-97231344D01*
X131632286Y-97231348D01*
X131540187Y-97380662D01*
X131540186Y-97380664D01*
X131485001Y-97547203D01*
X131485000Y-97547204D01*
X131474500Y-97649984D01*
X131474500Y-98750015D01*
X131485000Y-98852795D01*
X131485001Y-98852796D01*
X131540186Y-99019335D01*
X131540187Y-99019337D01*
X131632286Y-99168651D01*
X131632289Y-99168655D01*
X131756344Y-99292710D01*
X131756348Y-99292713D01*
X131905662Y-99384812D01*
X131905664Y-99384813D01*
X131905666Y-99384814D01*
X132072203Y-99439999D01*
X132174992Y-99450500D01*
X132174997Y-99450500D01*
X133795003Y-99450500D01*
X133795008Y-99450500D01*
X133897797Y-99439999D01*
X134064334Y-99384814D01*
X134213655Y-99292711D01*
X134337711Y-99168655D01*
X134343417Y-99159403D01*
X134395364Y-99112679D01*
X134448956Y-99100500D01*
X136699903Y-99100500D01*
X136729343Y-99109144D01*
X136759330Y-99115668D01*
X136764345Y-99119422D01*
X136766942Y-99120185D01*
X136787584Y-99136819D01*
X136963181Y-99312416D01*
X136996666Y-99373739D01*
X136999500Y-99400097D01*
X136999500Y-99531127D01*
X137025919Y-99731784D01*
X137033730Y-99791116D01*
X137086375Y-99987590D01*
X137101602Y-100044418D01*
X137101605Y-100044428D01*
X137201953Y-100286690D01*
X137201958Y-100286700D01*
X137333075Y-100513803D01*
X137492718Y-100721851D01*
X137492726Y-100721860D01*
X137678140Y-100907274D01*
X137678148Y-100907281D01*
X137886196Y-101066924D01*
X138113299Y-101198041D01*
X138113309Y-101198046D01*
X138328590Y-101287218D01*
X138355581Y-101298398D01*
X138608884Y-101366270D01*
X138868880Y-101400500D01*
X138868887Y-101400500D01*
X139131113Y-101400500D01*
X139131120Y-101400500D01*
X139391116Y-101366270D01*
X139644419Y-101298398D01*
X139886697Y-101198043D01*
X140113803Y-101066924D01*
X140321851Y-100907282D01*
X140321855Y-100907277D01*
X140321860Y-100907274D01*
X140507274Y-100721860D01*
X140507277Y-100721855D01*
X140507282Y-100721851D01*
X140666924Y-100513803D01*
X140798043Y-100286697D01*
X140898398Y-100044419D01*
X140966270Y-99791116D01*
X141000500Y-99531120D01*
X141000500Y-99400096D01*
X141009144Y-99370655D01*
X141015668Y-99340669D01*
X141019422Y-99335653D01*
X141020185Y-99333057D01*
X141036815Y-99312419D01*
X141115091Y-99234142D01*
X141176414Y-99200658D01*
X141246106Y-99205642D01*
X141290453Y-99234143D01*
X141301650Y-99245340D01*
X141340597Y-99269362D01*
X141347419Y-99276947D01*
X141356703Y-99281187D01*
X141370390Y-99302485D01*
X141387320Y-99321307D01*
X141389964Y-99332943D01*
X141394477Y-99339965D01*
X141399500Y-99374900D01*
X141399500Y-99413330D01*
X141399499Y-99413348D01*
X141399499Y-99579054D01*
X141399498Y-99579054D01*
X141399499Y-99579057D01*
X141440423Y-99731785D01*
X141440424Y-99731786D01*
X141456468Y-99759577D01*
X141456469Y-99759578D01*
X141519475Y-99868709D01*
X141519481Y-99868717D01*
X141638349Y-99987585D01*
X141638355Y-99987590D01*
X143138584Y-101487819D01*
X143172069Y-101549142D01*
X143167085Y-101618834D01*
X143125213Y-101674767D01*
X143059749Y-101699184D01*
X143050903Y-101699500D01*
X131962138Y-101699500D01*
X131895099Y-101679815D01*
X131849344Y-101627011D01*
X131839400Y-101557853D01*
X131847577Y-101528047D01*
X131858213Y-101502369D01*
X131876471Y-101458291D01*
X131910500Y-101287214D01*
X131910500Y-101112786D01*
X131876471Y-100941709D01*
X131809720Y-100780558D01*
X131809719Y-100780557D01*
X131809716Y-100780551D01*
X131712813Y-100635526D01*
X131712810Y-100635522D01*
X131589477Y-100512189D01*
X131589473Y-100512186D01*
X131444448Y-100415283D01*
X131444439Y-100415278D01*
X131283291Y-100348529D01*
X131283283Y-100348527D01*
X131112218Y-100314500D01*
X131112214Y-100314500D01*
X130937786Y-100314500D01*
X130937781Y-100314500D01*
X130766716Y-100348527D01*
X130766708Y-100348529D01*
X130605560Y-100415278D01*
X130605551Y-100415283D01*
X130460526Y-100512186D01*
X130460522Y-100512189D01*
X130337189Y-100635522D01*
X130337186Y-100635526D01*
X130240283Y-100780551D01*
X130240278Y-100780560D01*
X130173529Y-100941708D01*
X130173527Y-100941716D01*
X130139500Y-101112781D01*
X130139500Y-101287218D01*
X130173527Y-101458283D01*
X130173529Y-101458291D01*
X130202423Y-101528047D01*
X130209892Y-101597517D01*
X130178617Y-101659996D01*
X130118528Y-101695648D01*
X130087862Y-101699500D01*
X122206093Y-101699500D01*
X122193939Y-101698903D01*
X122143081Y-101693893D01*
X122075688Y-101687256D01*
X122051848Y-101682514D01*
X121943997Y-101649798D01*
X121921541Y-101640496D01*
X121822150Y-101587370D01*
X121801940Y-101573866D01*
X121714820Y-101502369D01*
X121697630Y-101485179D01*
X121626133Y-101398059D01*
X121612629Y-101377849D01*
X121606440Y-101366270D01*
X121559501Y-101278453D01*
X121550201Y-101256002D01*
X121517483Y-101148145D01*
X121512744Y-101124317D01*
X121501097Y-101006061D01*
X121500500Y-100993907D01*
X121500500Y-95478711D01*
X123149500Y-95478711D01*
X123149500Y-95721288D01*
X123181161Y-95961785D01*
X123243947Y-96196104D01*
X123336773Y-96420205D01*
X123336776Y-96420212D01*
X123458064Y-96630289D01*
X123458066Y-96630292D01*
X123458067Y-96630293D01*
X123605733Y-96822736D01*
X123605739Y-96822743D01*
X123777256Y-96994260D01*
X123777263Y-96994266D01*
X123850549Y-97050500D01*
X123969711Y-97141936D01*
X124179788Y-97263224D01*
X124403900Y-97356054D01*
X124638211Y-97418838D01*
X124818586Y-97442584D01*
X124878711Y-97450500D01*
X124878712Y-97450500D01*
X125121289Y-97450500D01*
X125169388Y-97444167D01*
X125361789Y-97418838D01*
X125596100Y-97356054D01*
X125820212Y-97263224D01*
X126030289Y-97141936D01*
X126222738Y-96994265D01*
X126394265Y-96822738D01*
X126541936Y-96630289D01*
X126663224Y-96420212D01*
X126756054Y-96196100D01*
X126818838Y-95961789D01*
X126850500Y-95721288D01*
X126850500Y-95478712D01*
X126818838Y-95238211D01*
X126756054Y-95003900D01*
X126733728Y-94950000D01*
X131499016Y-94950000D01*
X132540440Y-94950000D01*
X132509755Y-95003147D01*
X132475000Y-95132857D01*
X132475000Y-95267143D01*
X132509755Y-95396853D01*
X132540440Y-95450000D01*
X131499016Y-95450000D01*
X131505781Y-95492716D01*
X131566581Y-95679837D01*
X131655904Y-95855143D01*
X131771555Y-96014321D01*
X131910678Y-96153444D01*
X132069856Y-96269095D01*
X132245164Y-96358418D01*
X132432294Y-96419221D01*
X132626618Y-96450000D01*
X132735000Y-96450000D01*
X132735000Y-95644560D01*
X132788147Y-95675245D01*
X132917857Y-95710000D01*
X133052143Y-95710000D01*
X133181853Y-95675245D01*
X133235000Y-95644560D01*
X133235000Y-96450000D01*
X133343382Y-96450000D01*
X133537705Y-96419221D01*
X133537706Y-96419221D01*
X133553670Y-96414034D01*
X133553671Y-96414034D01*
X133724837Y-96358417D01*
X133900143Y-96269095D01*
X134059321Y-96153444D01*
X134198444Y-96014321D01*
X134314095Y-95855143D01*
X134403418Y-95679837D01*
X134464218Y-95492716D01*
X134470984Y-95450000D01*
X133429560Y-95450000D01*
X133460245Y-95396853D01*
X133495000Y-95267143D01*
X133495000Y-95132857D01*
X133460245Y-95003147D01*
X133429560Y-94950000D01*
X134470984Y-94950000D01*
X134464219Y-94907284D01*
X134462884Y-94903176D01*
X134462883Y-94903175D01*
X134462883Y-94903173D01*
X134451748Y-94868905D01*
X136800000Y-94868905D01*
X136800000Y-95131094D01*
X136834220Y-95391009D01*
X136834222Y-95391020D01*
X136902075Y-95644255D01*
X137002404Y-95886471D01*
X137002409Y-95886482D01*
X137133488Y-96113516D01*
X137133494Y-96113524D01*
X137220080Y-96226365D01*
X138122421Y-95324024D01*
X138135359Y-95355258D01*
X138217437Y-95478097D01*
X138321903Y-95582563D01*
X138444742Y-95664641D01*
X138475974Y-95677577D01*
X137573633Y-96579917D01*
X137573633Y-96579918D01*
X137686475Y-96666505D01*
X137686483Y-96666511D01*
X137913517Y-96797590D01*
X137913528Y-96797595D01*
X138155744Y-96897924D01*
X138408979Y-96965777D01*
X138408990Y-96965779D01*
X138668905Y-96999999D01*
X138668920Y-97000000D01*
X138931080Y-97000000D01*
X138931094Y-96999999D01*
X139191009Y-96965779D01*
X139191020Y-96965777D01*
X139444255Y-96897924D01*
X139686471Y-96797595D01*
X139686482Y-96797590D01*
X139913516Y-96666511D01*
X139913534Y-96666499D01*
X140026365Y-96579919D01*
X140026365Y-96579917D01*
X139734793Y-96288345D01*
X141025000Y-96288345D01*
X141025000Y-96337500D01*
X141750000Y-96337500D01*
X142250000Y-96337500D01*
X142974999Y-96337500D01*
X142974999Y-96288360D01*
X142974998Y-96288345D01*
X142964680Y-96187347D01*
X142910453Y-96023699D01*
X142910448Y-96023688D01*
X142819947Y-95876965D01*
X142819944Y-95876961D01*
X142698038Y-95755055D01*
X142698034Y-95755052D01*
X142551311Y-95664551D01*
X142551300Y-95664546D01*
X142387652Y-95610319D01*
X142286654Y-95600000D01*
X142250000Y-95600000D01*
X142250000Y-96337500D01*
X141750000Y-96337500D01*
X141750000Y-95600000D01*
X141713361Y-95600000D01*
X141713343Y-95600001D01*
X141612347Y-95610319D01*
X141448699Y-95664546D01*
X141448688Y-95664551D01*
X141301965Y-95755052D01*
X141301961Y-95755055D01*
X141180055Y-95876961D01*
X141180052Y-95876965D01*
X141089551Y-96023688D01*
X141089546Y-96023699D01*
X141035319Y-96187347D01*
X141025000Y-96288345D01*
X139734793Y-96288345D01*
X139124025Y-95677578D01*
X139155258Y-95664641D01*
X139278097Y-95582563D01*
X139382563Y-95478097D01*
X139464641Y-95355258D01*
X139477577Y-95324025D01*
X140379917Y-96226365D01*
X140379919Y-96226365D01*
X140392701Y-96209709D01*
X140466499Y-96113534D01*
X140466511Y-96113516D01*
X140597590Y-95886482D01*
X140597595Y-95886471D01*
X140697924Y-95644255D01*
X140765777Y-95391020D01*
X140765779Y-95391009D01*
X140799999Y-95131094D01*
X140800000Y-95131080D01*
X140800000Y-94868919D01*
X140799999Y-94868905D01*
X140765779Y-94608990D01*
X140765777Y-94608979D01*
X140697924Y-94355744D01*
X140597595Y-94113528D01*
X140597590Y-94113517D01*
X140466511Y-93886483D01*
X140466505Y-93886475D01*
X140379918Y-93773633D01*
X140379917Y-93773633D01*
X139477577Y-94675973D01*
X139464641Y-94644742D01*
X139382563Y-94521903D01*
X139278097Y-94417437D01*
X139155258Y-94335359D01*
X139124023Y-94322421D01*
X140026365Y-93420080D01*
X139913524Y-93333494D01*
X139913516Y-93333488D01*
X139686482Y-93202409D01*
X139686471Y-93202404D01*
X139444255Y-93102075D01*
X139191020Y-93034222D01*
X139191009Y-93034220D01*
X138931094Y-93000000D01*
X138668905Y-93000000D01*
X138408990Y-93034220D01*
X138408979Y-93034222D01*
X138155744Y-93102075D01*
X137913528Y-93202404D01*
X137913517Y-93202409D01*
X137686471Y-93333496D01*
X137573633Y-93420079D01*
X137573633Y-93420080D01*
X138475974Y-94322421D01*
X138444742Y-94335359D01*
X138321903Y-94417437D01*
X138217437Y-94521903D01*
X138135359Y-94644742D01*
X138122421Y-94675974D01*
X137220080Y-93773633D01*
X137220079Y-93773633D01*
X137133496Y-93886471D01*
X137002409Y-94113517D01*
X137002404Y-94113528D01*
X136902075Y-94355744D01*
X136834222Y-94608979D01*
X136834220Y-94608990D01*
X136800000Y-94868905D01*
X134451748Y-94868905D01*
X134403418Y-94720162D01*
X134314095Y-94544856D01*
X134198444Y-94385678D01*
X134059321Y-94246555D01*
X133900143Y-94130904D01*
X133724835Y-94041581D01*
X133537705Y-93980778D01*
X133343382Y-93950000D01*
X133235000Y-93950000D01*
X133235000Y-94755439D01*
X133181853Y-94724755D01*
X133052143Y-94690000D01*
X132917857Y-94690000D01*
X132788147Y-94724755D01*
X132735000Y-94755439D01*
X132735000Y-93950000D01*
X132626618Y-93950000D01*
X132432294Y-93980778D01*
X132245164Y-94041581D01*
X132069856Y-94130904D01*
X131910678Y-94246555D01*
X131771555Y-94385678D01*
X131655904Y-94544856D01*
X131566581Y-94720162D01*
X131505781Y-94907283D01*
X131499016Y-94950000D01*
X126733728Y-94950000D01*
X126663224Y-94779788D01*
X126541936Y-94569711D01*
X126394265Y-94377262D01*
X126394260Y-94377256D01*
X126222743Y-94205739D01*
X126222736Y-94205733D01*
X126030293Y-94058067D01*
X126030292Y-94058066D01*
X126030289Y-94058064D01*
X125820212Y-93936776D01*
X125820205Y-93936773D01*
X125596104Y-93843947D01*
X125361785Y-93781161D01*
X125121289Y-93749500D01*
X125121288Y-93749500D01*
X124878712Y-93749500D01*
X124878711Y-93749500D01*
X124638214Y-93781161D01*
X124403895Y-93843947D01*
X124179794Y-93936773D01*
X124179785Y-93936777D01*
X123969706Y-94058067D01*
X123777263Y-94205733D01*
X123777256Y-94205739D01*
X123605739Y-94377256D01*
X123605733Y-94377263D01*
X123458067Y-94569706D01*
X123336777Y-94779785D01*
X123336773Y-94779794D01*
X123243947Y-95003895D01*
X123181161Y-95238214D01*
X123149500Y-95478711D01*
X121500500Y-95478711D01*
X121500500Y-89406092D01*
X121501097Y-89393938D01*
X121501097Y-89393937D01*
X121512744Y-89275678D01*
X121517483Y-89251856D01*
X121550203Y-89143990D01*
X121559499Y-89121549D01*
X121612632Y-89022144D01*
X121626133Y-89001940D01*
X121697635Y-88914814D01*
X121714814Y-88897635D01*
X121801942Y-88826131D01*
X121822144Y-88812632D01*
X121921549Y-88759499D01*
X121943990Y-88750203D01*
X122051856Y-88717483D01*
X122075682Y-88712744D01*
X122175730Y-88702890D01*
X122193940Y-88701097D01*
X122206093Y-88700500D01*
X122265892Y-88700500D01*
X130087862Y-88700500D01*
X130154901Y-88720185D01*
G37*
%TD.AperFunction*%
%TD*%
M02*
