%TF.GenerationSoftware,KiCad,Pcbnew,9.0.0*%
%TF.CreationDate,2025-03-23T00:29:21-05:00*%
%TF.ProjectId,LeakDetectionSensorV1,4c65616b-4465-4746-9563-74696f6e5365,rev?*%
%TF.SameCoordinates,Original*%
%TF.FileFunction,Soldermask,Top*%
%TF.FilePolarity,Negative*%
%FSLAX46Y46*%
G04 Gerber Fmt 4.6, Leading zero omitted, Abs format (unit mm)*
G04 Created by KiCad (PCBNEW 9.0.0) date 2025-03-23 00:29:21*
%MOMM*%
%LPD*%
G01*
G04 APERTURE LIST*
G04 Aperture macros list*
%AMRoundRect*
0 Rectangle with rounded corners*
0 $1 Rounding radius*
0 $2 $3 $4 $5 $6 $7 $8 $9 X,Y pos of 4 corners*
0 Add a 4 corners polygon primitive as box body*
4,1,4,$2,$3,$4,$5,$6,$7,$8,$9,$2,$3,0*
0 Add four circle primitives for the rounded corners*
1,1,$1+$1,$2,$3*
1,1,$1+$1,$4,$5*
1,1,$1+$1,$6,$7*
1,1,$1+$1,$8,$9*
0 Add four rect primitives between the rounded corners*
20,1,$1+$1,$2,$3,$4,$5,0*
20,1,$1+$1,$4,$5,$6,$7,0*
20,1,$1+$1,$6,$7,$8,$9,0*
20,1,$1+$1,$8,$9,$2,$3,0*%
G04 Aperture macros list end*
%ADD10C,3.000000*%
%ADD11C,1.270000*%
%ADD12RoundRect,0.250001X0.759999X-0.499999X0.759999X0.499999X-0.759999X0.499999X-0.759999X-0.499999X0*%
%ADD13O,2.020000X1.500000*%
%ADD14RoundRect,0.237500X-0.237500X0.250000X-0.237500X-0.250000X0.237500X-0.250000X0.237500X0.250000X0*%
%ADD15C,3.200000*%
%ADD16C,0.200000*%
G04 APERTURE END LIST*
D10*
%TO.C,3V3*%
X138800000Y-95000000D03*
%TD*%
%TO.C,GND*%
X139000000Y-90600000D03*
%TD*%
%TO.C,SENS*%
X139000000Y-99400000D03*
%TD*%
D11*
%TO.C,J1*%
X131025000Y-101200000D03*
X131025000Y-89200000D03*
D12*
X132985000Y-98200000D03*
D13*
X132985000Y-95200000D03*
X132985000Y-92200000D03*
%TD*%
D14*
%TO.C,R1*%
X142000000Y-96587500D03*
X142000000Y-98412500D03*
%TD*%
D15*
%TO.C,H2*%
X125000000Y-95600000D03*
%TD*%
%TO.C,H1*%
X175200000Y-95200000D03*
%TD*%
D16*
X171205000Y-89960000D02*
X144960000Y-89960000D01*
X171245000Y-96300000D02*
X145000000Y-96300000D01*
X171245000Y-92800000D02*
X145000000Y-92800000D01*
X171245000Y-97700000D02*
X145000000Y-97700000D01*
X171245000Y-101200000D02*
X145000000Y-101200000D01*
X171245000Y-100500000D02*
X145000000Y-100500000D01*
X171245000Y-90700000D02*
X145000000Y-90700000D01*
X171245000Y-94200000D02*
X145000000Y-94200000D01*
X171245000Y-91400000D02*
X145000000Y-91400000D01*
X171200000Y-89300000D02*
X145000000Y-89300000D01*
X171245000Y-95600000D02*
X145000000Y-95600000D01*
X171245000Y-99800000D02*
X145000000Y-99800000D01*
X171245000Y-93500000D02*
X145000000Y-93500000D01*
X171245000Y-98400000D02*
X145000000Y-98400000D01*
X171245000Y-92100000D02*
X145000000Y-92100000D01*
X171245000Y-97000000D02*
X145000000Y-97000000D01*
X171245000Y-99100000D02*
X145000000Y-99100000D01*
X171245000Y-94900000D02*
X145000000Y-94900000D01*
X145340000Y-95240000D02*
X171640000Y-95240000D01*
X145340000Y-93140000D02*
X171740000Y-93140000D01*
X145340000Y-92440000D02*
X171740000Y-92440000D01*
X145300000Y-90300000D02*
X171700000Y-90300000D01*
X145340000Y-98740000D02*
X171640000Y-98740000D01*
X145340000Y-91040000D02*
X171740000Y-91040000D01*
X145340000Y-94540000D02*
X171640000Y-94540000D01*
X145340000Y-96640000D02*
X171640000Y-96640000D01*
X145340000Y-100840000D02*
X171740000Y-100840000D01*
X145340000Y-98040000D02*
X171640000Y-98040000D01*
X171758225Y-89640000D02*
X145340000Y-89640000D01*
X145340000Y-93840000D02*
X171640000Y-93840000D01*
X145340000Y-97340000D02*
X171640000Y-97340000D01*
X145340000Y-100140000D02*
X171640000Y-100140000D01*
X145340000Y-95940000D02*
X171640000Y-95940000D01*
X145340000Y-99440000D02*
X171640000Y-99440000D01*
X145340000Y-91740000D02*
X171740000Y-91740000D01*
M02*
