%TF.GenerationSoftware,KiCad,Pcbnew,9.0.0*%
%TF.CreationDate,2025-03-23T00:29:21-05:00*%
%TF.ProjectId,LeakDetectionSensorV1,4c65616b-4465-4746-9563-74696f6e5365,rev?*%
%TF.SameCoordinates,Original*%
%TF.FileFunction,Legend,Top*%
%TF.FilePolarity,Positive*%
%FSLAX46Y46*%
G04 Gerber Fmt 4.6, Leading zero omitted, Abs format (unit mm)*
G04 Created by KiCad (PCBNEW 9.0.0) date 2025-03-23 00:29:21*
%MOMM*%
%LPD*%
G01*
G04 APERTURE LIST*
%ADD10C,0.200000*%
%ADD11C,0.150000*%
%ADD12C,0.120000*%
G04 APERTURE END LIST*
D10*
X127803740Y-101396993D02*
X127803740Y-101777945D01*
X127803740Y-101777945D02*
X127003740Y-101777945D01*
X127765645Y-100825564D02*
X127803740Y-100901755D01*
X127803740Y-100901755D02*
X127803740Y-101054136D01*
X127803740Y-101054136D02*
X127765645Y-101130326D01*
X127765645Y-101130326D02*
X127689454Y-101168422D01*
X127689454Y-101168422D02*
X127384692Y-101168422D01*
X127384692Y-101168422D02*
X127308502Y-101130326D01*
X127308502Y-101130326D02*
X127270406Y-101054136D01*
X127270406Y-101054136D02*
X127270406Y-100901755D01*
X127270406Y-100901755D02*
X127308502Y-100825564D01*
X127308502Y-100825564D02*
X127384692Y-100787469D01*
X127384692Y-100787469D02*
X127460883Y-100787469D01*
X127460883Y-100787469D02*
X127537073Y-101168422D01*
X127803740Y-100101755D02*
X127384692Y-100101755D01*
X127384692Y-100101755D02*
X127308502Y-100139850D01*
X127308502Y-100139850D02*
X127270406Y-100216041D01*
X127270406Y-100216041D02*
X127270406Y-100368422D01*
X127270406Y-100368422D02*
X127308502Y-100444612D01*
X127765645Y-100101755D02*
X127803740Y-100177946D01*
X127803740Y-100177946D02*
X127803740Y-100368422D01*
X127803740Y-100368422D02*
X127765645Y-100444612D01*
X127765645Y-100444612D02*
X127689454Y-100482708D01*
X127689454Y-100482708D02*
X127613264Y-100482708D01*
X127613264Y-100482708D02*
X127537073Y-100444612D01*
X127537073Y-100444612D02*
X127498978Y-100368422D01*
X127498978Y-100368422D02*
X127498978Y-100177946D01*
X127498978Y-100177946D02*
X127460883Y-100101755D01*
X127803740Y-99720802D02*
X127003740Y-99720802D01*
X127498978Y-99644612D02*
X127803740Y-99416040D01*
X127270406Y-99416040D02*
X127575168Y-99720802D01*
X127803740Y-98463659D02*
X127003740Y-98463659D01*
X127003740Y-98463659D02*
X127003740Y-98273183D01*
X127003740Y-98273183D02*
X127041835Y-98158897D01*
X127041835Y-98158897D02*
X127118025Y-98082707D01*
X127118025Y-98082707D02*
X127194216Y-98044612D01*
X127194216Y-98044612D02*
X127346597Y-98006516D01*
X127346597Y-98006516D02*
X127460883Y-98006516D01*
X127460883Y-98006516D02*
X127613264Y-98044612D01*
X127613264Y-98044612D02*
X127689454Y-98082707D01*
X127689454Y-98082707D02*
X127765645Y-98158897D01*
X127765645Y-98158897D02*
X127803740Y-98273183D01*
X127803740Y-98273183D02*
X127803740Y-98463659D01*
X127765645Y-97358897D02*
X127803740Y-97435088D01*
X127803740Y-97435088D02*
X127803740Y-97587469D01*
X127803740Y-97587469D02*
X127765645Y-97663659D01*
X127765645Y-97663659D02*
X127689454Y-97701755D01*
X127689454Y-97701755D02*
X127384692Y-97701755D01*
X127384692Y-97701755D02*
X127308502Y-97663659D01*
X127308502Y-97663659D02*
X127270406Y-97587469D01*
X127270406Y-97587469D02*
X127270406Y-97435088D01*
X127270406Y-97435088D02*
X127308502Y-97358897D01*
X127308502Y-97358897D02*
X127384692Y-97320802D01*
X127384692Y-97320802D02*
X127460883Y-97320802D01*
X127460883Y-97320802D02*
X127537073Y-97701755D01*
X127270406Y-97092231D02*
X127270406Y-96787469D01*
X127003740Y-96977945D02*
X127689454Y-96977945D01*
X127689454Y-96977945D02*
X127765645Y-96939850D01*
X127765645Y-96939850D02*
X127803740Y-96863660D01*
X127803740Y-96863660D02*
X127803740Y-96787469D01*
X127765645Y-96216040D02*
X127803740Y-96292231D01*
X127803740Y-96292231D02*
X127803740Y-96444612D01*
X127803740Y-96444612D02*
X127765645Y-96520802D01*
X127765645Y-96520802D02*
X127689454Y-96558898D01*
X127689454Y-96558898D02*
X127384692Y-96558898D01*
X127384692Y-96558898D02*
X127308502Y-96520802D01*
X127308502Y-96520802D02*
X127270406Y-96444612D01*
X127270406Y-96444612D02*
X127270406Y-96292231D01*
X127270406Y-96292231D02*
X127308502Y-96216040D01*
X127308502Y-96216040D02*
X127384692Y-96177945D01*
X127384692Y-96177945D02*
X127460883Y-96177945D01*
X127460883Y-96177945D02*
X127537073Y-96558898D01*
X127765645Y-95492231D02*
X127803740Y-95568422D01*
X127803740Y-95568422D02*
X127803740Y-95720803D01*
X127803740Y-95720803D02*
X127765645Y-95796993D01*
X127765645Y-95796993D02*
X127727549Y-95835088D01*
X127727549Y-95835088D02*
X127651359Y-95873184D01*
X127651359Y-95873184D02*
X127422787Y-95873184D01*
X127422787Y-95873184D02*
X127346597Y-95835088D01*
X127346597Y-95835088D02*
X127308502Y-95796993D01*
X127308502Y-95796993D02*
X127270406Y-95720803D01*
X127270406Y-95720803D02*
X127270406Y-95568422D01*
X127270406Y-95568422D02*
X127308502Y-95492231D01*
X127270406Y-95263660D02*
X127270406Y-94958898D01*
X127003740Y-95149374D02*
X127689454Y-95149374D01*
X127689454Y-95149374D02*
X127765645Y-95111279D01*
X127765645Y-95111279D02*
X127803740Y-95035089D01*
X127803740Y-95035089D02*
X127803740Y-94958898D01*
X127803740Y-94692231D02*
X127270406Y-94692231D01*
X127003740Y-94692231D02*
X127041835Y-94730327D01*
X127041835Y-94730327D02*
X127079930Y-94692231D01*
X127079930Y-94692231D02*
X127041835Y-94654136D01*
X127041835Y-94654136D02*
X127003740Y-94692231D01*
X127003740Y-94692231D02*
X127079930Y-94692231D01*
X127803740Y-94196994D02*
X127765645Y-94273184D01*
X127765645Y-94273184D02*
X127727549Y-94311279D01*
X127727549Y-94311279D02*
X127651359Y-94349375D01*
X127651359Y-94349375D02*
X127422787Y-94349375D01*
X127422787Y-94349375D02*
X127346597Y-94311279D01*
X127346597Y-94311279D02*
X127308502Y-94273184D01*
X127308502Y-94273184D02*
X127270406Y-94196994D01*
X127270406Y-94196994D02*
X127270406Y-94082708D01*
X127270406Y-94082708D02*
X127308502Y-94006517D01*
X127308502Y-94006517D02*
X127346597Y-93968422D01*
X127346597Y-93968422D02*
X127422787Y-93930327D01*
X127422787Y-93930327D02*
X127651359Y-93930327D01*
X127651359Y-93930327D02*
X127727549Y-93968422D01*
X127727549Y-93968422D02*
X127765645Y-94006517D01*
X127765645Y-94006517D02*
X127803740Y-94082708D01*
X127803740Y-94082708D02*
X127803740Y-94196994D01*
X127270406Y-93587469D02*
X127803740Y-93587469D01*
X127346597Y-93587469D02*
X127308502Y-93549374D01*
X127308502Y-93549374D02*
X127270406Y-93473184D01*
X127270406Y-93473184D02*
X127270406Y-93358898D01*
X127270406Y-93358898D02*
X127308502Y-93282707D01*
X127308502Y-93282707D02*
X127384692Y-93244612D01*
X127384692Y-93244612D02*
X127803740Y-93244612D01*
X127765645Y-92292231D02*
X127803740Y-92177945D01*
X127803740Y-92177945D02*
X127803740Y-91987469D01*
X127803740Y-91987469D02*
X127765645Y-91911278D01*
X127765645Y-91911278D02*
X127727549Y-91873183D01*
X127727549Y-91873183D02*
X127651359Y-91835088D01*
X127651359Y-91835088D02*
X127575168Y-91835088D01*
X127575168Y-91835088D02*
X127498978Y-91873183D01*
X127498978Y-91873183D02*
X127460883Y-91911278D01*
X127460883Y-91911278D02*
X127422787Y-91987469D01*
X127422787Y-91987469D02*
X127384692Y-92139850D01*
X127384692Y-92139850D02*
X127346597Y-92216040D01*
X127346597Y-92216040D02*
X127308502Y-92254135D01*
X127308502Y-92254135D02*
X127232311Y-92292231D01*
X127232311Y-92292231D02*
X127156121Y-92292231D01*
X127156121Y-92292231D02*
X127079930Y-92254135D01*
X127079930Y-92254135D02*
X127041835Y-92216040D01*
X127041835Y-92216040D02*
X127003740Y-92139850D01*
X127003740Y-92139850D02*
X127003740Y-91949373D01*
X127003740Y-91949373D02*
X127041835Y-91835088D01*
X127765645Y-91187468D02*
X127803740Y-91263659D01*
X127803740Y-91263659D02*
X127803740Y-91416040D01*
X127803740Y-91416040D02*
X127765645Y-91492230D01*
X127765645Y-91492230D02*
X127689454Y-91530326D01*
X127689454Y-91530326D02*
X127384692Y-91530326D01*
X127384692Y-91530326D02*
X127308502Y-91492230D01*
X127308502Y-91492230D02*
X127270406Y-91416040D01*
X127270406Y-91416040D02*
X127270406Y-91263659D01*
X127270406Y-91263659D02*
X127308502Y-91187468D01*
X127308502Y-91187468D02*
X127384692Y-91149373D01*
X127384692Y-91149373D02*
X127460883Y-91149373D01*
X127460883Y-91149373D02*
X127537073Y-91530326D01*
X127270406Y-90806516D02*
X127803740Y-90806516D01*
X127346597Y-90806516D02*
X127308502Y-90768421D01*
X127308502Y-90768421D02*
X127270406Y-90692231D01*
X127270406Y-90692231D02*
X127270406Y-90577945D01*
X127270406Y-90577945D02*
X127308502Y-90501754D01*
X127308502Y-90501754D02*
X127384692Y-90463659D01*
X127384692Y-90463659D02*
X127803740Y-90463659D01*
X127765645Y-90120802D02*
X127803740Y-90044611D01*
X127803740Y-90044611D02*
X127803740Y-89892230D01*
X127803740Y-89892230D02*
X127765645Y-89816040D01*
X127765645Y-89816040D02*
X127689454Y-89777944D01*
X127689454Y-89777944D02*
X127651359Y-89777944D01*
X127651359Y-89777944D02*
X127575168Y-89816040D01*
X127575168Y-89816040D02*
X127537073Y-89892230D01*
X127537073Y-89892230D02*
X127537073Y-90006516D01*
X127537073Y-90006516D02*
X127498978Y-90082706D01*
X127498978Y-90082706D02*
X127422787Y-90120802D01*
X127422787Y-90120802D02*
X127384692Y-90120802D01*
X127384692Y-90120802D02*
X127308502Y-90082706D01*
X127308502Y-90082706D02*
X127270406Y-90006516D01*
X127270406Y-90006516D02*
X127270406Y-89892230D01*
X127270406Y-89892230D02*
X127308502Y-89816040D01*
X127803740Y-89320802D02*
X127765645Y-89396992D01*
X127765645Y-89396992D02*
X127727549Y-89435087D01*
X127727549Y-89435087D02*
X127651359Y-89473183D01*
X127651359Y-89473183D02*
X127422787Y-89473183D01*
X127422787Y-89473183D02*
X127346597Y-89435087D01*
X127346597Y-89435087D02*
X127308502Y-89396992D01*
X127308502Y-89396992D02*
X127270406Y-89320802D01*
X127270406Y-89320802D02*
X127270406Y-89206516D01*
X127270406Y-89206516D02*
X127308502Y-89130325D01*
X127308502Y-89130325D02*
X127346597Y-89092230D01*
X127346597Y-89092230D02*
X127422787Y-89054135D01*
X127422787Y-89054135D02*
X127651359Y-89054135D01*
X127651359Y-89054135D02*
X127727549Y-89092230D01*
X127727549Y-89092230D02*
X127765645Y-89130325D01*
X127765645Y-89130325D02*
X127803740Y-89206516D01*
X127803740Y-89206516D02*
X127803740Y-89320802D01*
X127803740Y-88711277D02*
X127270406Y-88711277D01*
X127422787Y-88711277D02*
X127346597Y-88673182D01*
X127346597Y-88673182D02*
X127308502Y-88635087D01*
X127308502Y-88635087D02*
X127270406Y-88558896D01*
X127270406Y-88558896D02*
X127270406Y-88482706D01*
X129091695Y-100558897D02*
X128291695Y-100558897D01*
X128291695Y-100558897D02*
X128863123Y-100292231D01*
X128863123Y-100292231D02*
X128291695Y-100025564D01*
X128291695Y-100025564D02*
X129091695Y-100025564D01*
X129091695Y-99301754D02*
X128672647Y-99301754D01*
X128672647Y-99301754D02*
X128596457Y-99339849D01*
X128596457Y-99339849D02*
X128558361Y-99416040D01*
X128558361Y-99416040D02*
X128558361Y-99568421D01*
X128558361Y-99568421D02*
X128596457Y-99644611D01*
X129053600Y-99301754D02*
X129091695Y-99377945D01*
X129091695Y-99377945D02*
X129091695Y-99568421D01*
X129091695Y-99568421D02*
X129053600Y-99644611D01*
X129053600Y-99644611D02*
X128977409Y-99682707D01*
X128977409Y-99682707D02*
X128901219Y-99682707D01*
X128901219Y-99682707D02*
X128825028Y-99644611D01*
X128825028Y-99644611D02*
X128786933Y-99568421D01*
X128786933Y-99568421D02*
X128786933Y-99377945D01*
X128786933Y-99377945D02*
X128748838Y-99301754D01*
X129091695Y-98920801D02*
X128558361Y-98920801D01*
X128710742Y-98920801D02*
X128634552Y-98882706D01*
X128634552Y-98882706D02*
X128596457Y-98844611D01*
X128596457Y-98844611D02*
X128558361Y-98768420D01*
X128558361Y-98768420D02*
X128558361Y-98692230D01*
X128367885Y-97854135D02*
X128329790Y-97816039D01*
X128329790Y-97816039D02*
X128291695Y-97739849D01*
X128291695Y-97739849D02*
X128291695Y-97549373D01*
X128291695Y-97549373D02*
X128329790Y-97473182D01*
X128329790Y-97473182D02*
X128367885Y-97435087D01*
X128367885Y-97435087D02*
X128444076Y-97396992D01*
X128444076Y-97396992D02*
X128520266Y-97396992D01*
X128520266Y-97396992D02*
X128634552Y-97435087D01*
X128634552Y-97435087D02*
X129091695Y-97892230D01*
X129091695Y-97892230D02*
X129091695Y-97396992D01*
X128291695Y-96901753D02*
X128291695Y-96825563D01*
X128291695Y-96825563D02*
X128329790Y-96749372D01*
X128329790Y-96749372D02*
X128367885Y-96711277D01*
X128367885Y-96711277D02*
X128444076Y-96673182D01*
X128444076Y-96673182D02*
X128596457Y-96635087D01*
X128596457Y-96635087D02*
X128786933Y-96635087D01*
X128786933Y-96635087D02*
X128939314Y-96673182D01*
X128939314Y-96673182D02*
X129015504Y-96711277D01*
X129015504Y-96711277D02*
X129053600Y-96749372D01*
X129053600Y-96749372D02*
X129091695Y-96825563D01*
X129091695Y-96825563D02*
X129091695Y-96901753D01*
X129091695Y-96901753D02*
X129053600Y-96977944D01*
X129053600Y-96977944D02*
X129015504Y-97016039D01*
X129015504Y-97016039D02*
X128939314Y-97054134D01*
X128939314Y-97054134D02*
X128786933Y-97092230D01*
X128786933Y-97092230D02*
X128596457Y-97092230D01*
X128596457Y-97092230D02*
X128444076Y-97054134D01*
X128444076Y-97054134D02*
X128367885Y-97016039D01*
X128367885Y-97016039D02*
X128329790Y-96977944D01*
X128329790Y-96977944D02*
X128291695Y-96901753D01*
X128367885Y-96330325D02*
X128329790Y-96292229D01*
X128329790Y-96292229D02*
X128291695Y-96216039D01*
X128291695Y-96216039D02*
X128291695Y-96025563D01*
X128291695Y-96025563D02*
X128329790Y-95949372D01*
X128329790Y-95949372D02*
X128367885Y-95911277D01*
X128367885Y-95911277D02*
X128444076Y-95873182D01*
X128444076Y-95873182D02*
X128520266Y-95873182D01*
X128520266Y-95873182D02*
X128634552Y-95911277D01*
X128634552Y-95911277D02*
X129091695Y-96368420D01*
X129091695Y-96368420D02*
X129091695Y-95873182D01*
X128291695Y-95149372D02*
X128291695Y-95530324D01*
X128291695Y-95530324D02*
X128672647Y-95568420D01*
X128672647Y-95568420D02*
X128634552Y-95530324D01*
X128634552Y-95530324D02*
X128596457Y-95454134D01*
X128596457Y-95454134D02*
X128596457Y-95263658D01*
X128596457Y-95263658D02*
X128634552Y-95187467D01*
X128634552Y-95187467D02*
X128672647Y-95149372D01*
X128672647Y-95149372D02*
X128748838Y-95111277D01*
X128748838Y-95111277D02*
X128939314Y-95111277D01*
X128939314Y-95111277D02*
X129015504Y-95149372D01*
X129015504Y-95149372D02*
X129053600Y-95187467D01*
X129053600Y-95187467D02*
X129091695Y-95263658D01*
X129091695Y-95263658D02*
X129091695Y-95454134D01*
X129091695Y-95454134D02*
X129053600Y-95530324D01*
X129053600Y-95530324D02*
X129015504Y-95568420D01*
X128291695Y-94273181D02*
X128291695Y-93816038D01*
X129091695Y-94044610D02*
X128291695Y-94044610D01*
X129053600Y-93244609D02*
X129091695Y-93320800D01*
X129091695Y-93320800D02*
X129091695Y-93473181D01*
X129091695Y-93473181D02*
X129053600Y-93549371D01*
X129053600Y-93549371D02*
X128977409Y-93587467D01*
X128977409Y-93587467D02*
X128672647Y-93587467D01*
X128672647Y-93587467D02*
X128596457Y-93549371D01*
X128596457Y-93549371D02*
X128558361Y-93473181D01*
X128558361Y-93473181D02*
X128558361Y-93320800D01*
X128558361Y-93320800D02*
X128596457Y-93244609D01*
X128596457Y-93244609D02*
X128672647Y-93206514D01*
X128672647Y-93206514D02*
X128748838Y-93206514D01*
X128748838Y-93206514D02*
X128825028Y-93587467D01*
X129091695Y-92520800D02*
X128672647Y-92520800D01*
X128672647Y-92520800D02*
X128596457Y-92558895D01*
X128596457Y-92558895D02*
X128558361Y-92635086D01*
X128558361Y-92635086D02*
X128558361Y-92787467D01*
X128558361Y-92787467D02*
X128596457Y-92863657D01*
X129053600Y-92520800D02*
X129091695Y-92596991D01*
X129091695Y-92596991D02*
X129091695Y-92787467D01*
X129091695Y-92787467D02*
X129053600Y-92863657D01*
X129053600Y-92863657D02*
X128977409Y-92901753D01*
X128977409Y-92901753D02*
X128901219Y-92901753D01*
X128901219Y-92901753D02*
X128825028Y-92863657D01*
X128825028Y-92863657D02*
X128786933Y-92787467D01*
X128786933Y-92787467D02*
X128786933Y-92596991D01*
X128786933Y-92596991D02*
X128748838Y-92520800D01*
X129091695Y-92139847D02*
X128558361Y-92139847D01*
X128634552Y-92139847D02*
X128596457Y-92101752D01*
X128596457Y-92101752D02*
X128558361Y-92025562D01*
X128558361Y-92025562D02*
X128558361Y-91911276D01*
X128558361Y-91911276D02*
X128596457Y-91835085D01*
X128596457Y-91835085D02*
X128672647Y-91796990D01*
X128672647Y-91796990D02*
X129091695Y-91796990D01*
X128672647Y-91796990D02*
X128596457Y-91758895D01*
X128596457Y-91758895D02*
X128558361Y-91682704D01*
X128558361Y-91682704D02*
X128558361Y-91568419D01*
X128558361Y-91568419D02*
X128596457Y-91492228D01*
X128596457Y-91492228D02*
X128672647Y-91454133D01*
X128672647Y-91454133D02*
X129091695Y-91454133D01*
X129091695Y-90044609D02*
X129091695Y-90501752D01*
X129091695Y-90273180D02*
X128291695Y-90273180D01*
X128291695Y-90273180D02*
X128405980Y-90349371D01*
X128405980Y-90349371D02*
X128482171Y-90425561D01*
X128482171Y-90425561D02*
X128520266Y-90501752D01*
X129091695Y-89663656D02*
X129091695Y-89511275D01*
X129091695Y-89511275D02*
X129053600Y-89435085D01*
X129053600Y-89435085D02*
X129015504Y-89396989D01*
X129015504Y-89396989D02*
X128901219Y-89320799D01*
X128901219Y-89320799D02*
X128748838Y-89282704D01*
X128748838Y-89282704D02*
X128444076Y-89282704D01*
X128444076Y-89282704D02*
X128367885Y-89320799D01*
X128367885Y-89320799D02*
X128329790Y-89358894D01*
X128329790Y-89358894D02*
X128291695Y-89435085D01*
X128291695Y-89435085D02*
X128291695Y-89587466D01*
X128291695Y-89587466D02*
X128329790Y-89663656D01*
X128329790Y-89663656D02*
X128367885Y-89701751D01*
X128367885Y-89701751D02*
X128444076Y-89739847D01*
X128444076Y-89739847D02*
X128634552Y-89739847D01*
X128634552Y-89739847D02*
X128710742Y-89701751D01*
X128710742Y-89701751D02*
X128748838Y-89663656D01*
X128748838Y-89663656D02*
X128786933Y-89587466D01*
X128786933Y-89587466D02*
X128786933Y-89435085D01*
X128786933Y-89435085D02*
X128748838Y-89358894D01*
X128748838Y-89358894D02*
X128710742Y-89320799D01*
X128710742Y-89320799D02*
X128634552Y-89282704D01*
D11*
X135454819Y-96188094D02*
X135454819Y-95569047D01*
X135454819Y-95569047D02*
X135835771Y-95902380D01*
X135835771Y-95902380D02*
X135835771Y-95759523D01*
X135835771Y-95759523D02*
X135883390Y-95664285D01*
X135883390Y-95664285D02*
X135931009Y-95616666D01*
X135931009Y-95616666D02*
X136026247Y-95569047D01*
X136026247Y-95569047D02*
X136264342Y-95569047D01*
X136264342Y-95569047D02*
X136359580Y-95616666D01*
X136359580Y-95616666D02*
X136407200Y-95664285D01*
X136407200Y-95664285D02*
X136454819Y-95759523D01*
X136454819Y-95759523D02*
X136454819Y-96045237D01*
X136454819Y-96045237D02*
X136407200Y-96140475D01*
X136407200Y-96140475D02*
X136359580Y-96188094D01*
X135454819Y-95283332D02*
X136454819Y-94949999D01*
X136454819Y-94949999D02*
X135454819Y-94616666D01*
X135454819Y-94378570D02*
X135454819Y-93759523D01*
X135454819Y-93759523D02*
X135835771Y-94092856D01*
X135835771Y-94092856D02*
X135835771Y-93949999D01*
X135835771Y-93949999D02*
X135883390Y-93854761D01*
X135883390Y-93854761D02*
X135931009Y-93807142D01*
X135931009Y-93807142D02*
X136026247Y-93759523D01*
X136026247Y-93759523D02*
X136264342Y-93759523D01*
X136264342Y-93759523D02*
X136359580Y-93807142D01*
X136359580Y-93807142D02*
X136407200Y-93854761D01*
X136407200Y-93854761D02*
X136454819Y-93949999D01*
X136454819Y-93949999D02*
X136454819Y-94235713D01*
X136454819Y-94235713D02*
X136407200Y-94330951D01*
X136407200Y-94330951D02*
X136359580Y-94378570D01*
X135502438Y-91361904D02*
X135454819Y-91457142D01*
X135454819Y-91457142D02*
X135454819Y-91599999D01*
X135454819Y-91599999D02*
X135502438Y-91742856D01*
X135502438Y-91742856D02*
X135597676Y-91838094D01*
X135597676Y-91838094D02*
X135692914Y-91885713D01*
X135692914Y-91885713D02*
X135883390Y-91933332D01*
X135883390Y-91933332D02*
X136026247Y-91933332D01*
X136026247Y-91933332D02*
X136216723Y-91885713D01*
X136216723Y-91885713D02*
X136311961Y-91838094D01*
X136311961Y-91838094D02*
X136407200Y-91742856D01*
X136407200Y-91742856D02*
X136454819Y-91599999D01*
X136454819Y-91599999D02*
X136454819Y-91504761D01*
X136454819Y-91504761D02*
X136407200Y-91361904D01*
X136407200Y-91361904D02*
X136359580Y-91314285D01*
X136359580Y-91314285D02*
X136026247Y-91314285D01*
X136026247Y-91314285D02*
X136026247Y-91504761D01*
X136454819Y-90885713D02*
X135454819Y-90885713D01*
X135454819Y-90885713D02*
X136454819Y-90314285D01*
X136454819Y-90314285D02*
X135454819Y-90314285D01*
X136454819Y-89838094D02*
X135454819Y-89838094D01*
X135454819Y-89838094D02*
X135454819Y-89599999D01*
X135454819Y-89599999D02*
X135502438Y-89457142D01*
X135502438Y-89457142D02*
X135597676Y-89361904D01*
X135597676Y-89361904D02*
X135692914Y-89314285D01*
X135692914Y-89314285D02*
X135883390Y-89266666D01*
X135883390Y-89266666D02*
X136026247Y-89266666D01*
X136026247Y-89266666D02*
X136216723Y-89314285D01*
X136216723Y-89314285D02*
X136311961Y-89361904D01*
X136311961Y-89361904D02*
X136407200Y-89457142D01*
X136407200Y-89457142D02*
X136454819Y-89599999D01*
X136454819Y-89599999D02*
X136454819Y-89838094D01*
X136407200Y-100938094D02*
X136454819Y-100795237D01*
X136454819Y-100795237D02*
X136454819Y-100557142D01*
X136454819Y-100557142D02*
X136407200Y-100461904D01*
X136407200Y-100461904D02*
X136359580Y-100414285D01*
X136359580Y-100414285D02*
X136264342Y-100366666D01*
X136264342Y-100366666D02*
X136169104Y-100366666D01*
X136169104Y-100366666D02*
X136073866Y-100414285D01*
X136073866Y-100414285D02*
X136026247Y-100461904D01*
X136026247Y-100461904D02*
X135978628Y-100557142D01*
X135978628Y-100557142D02*
X135931009Y-100747618D01*
X135931009Y-100747618D02*
X135883390Y-100842856D01*
X135883390Y-100842856D02*
X135835771Y-100890475D01*
X135835771Y-100890475D02*
X135740533Y-100938094D01*
X135740533Y-100938094D02*
X135645295Y-100938094D01*
X135645295Y-100938094D02*
X135550057Y-100890475D01*
X135550057Y-100890475D02*
X135502438Y-100842856D01*
X135502438Y-100842856D02*
X135454819Y-100747618D01*
X135454819Y-100747618D02*
X135454819Y-100509523D01*
X135454819Y-100509523D02*
X135502438Y-100366666D01*
X135931009Y-99938094D02*
X135931009Y-99604761D01*
X136454819Y-99461904D02*
X136454819Y-99938094D01*
X136454819Y-99938094D02*
X135454819Y-99938094D01*
X135454819Y-99938094D02*
X135454819Y-99461904D01*
X136454819Y-99033332D02*
X135454819Y-99033332D01*
X135454819Y-99033332D02*
X136454819Y-98461904D01*
X136454819Y-98461904D02*
X135454819Y-98461904D01*
X136407200Y-98033332D02*
X136454819Y-97890475D01*
X136454819Y-97890475D02*
X136454819Y-97652380D01*
X136454819Y-97652380D02*
X136407200Y-97557142D01*
X136407200Y-97557142D02*
X136359580Y-97509523D01*
X136359580Y-97509523D02*
X136264342Y-97461904D01*
X136264342Y-97461904D02*
X136169104Y-97461904D01*
X136169104Y-97461904D02*
X136073866Y-97509523D01*
X136073866Y-97509523D02*
X136026247Y-97557142D01*
X136026247Y-97557142D02*
X135978628Y-97652380D01*
X135978628Y-97652380D02*
X135931009Y-97842856D01*
X135931009Y-97842856D02*
X135883390Y-97938094D01*
X135883390Y-97938094D02*
X135835771Y-97985713D01*
X135835771Y-97985713D02*
X135740533Y-98033332D01*
X135740533Y-98033332D02*
X135645295Y-98033332D01*
X135645295Y-98033332D02*
X135550057Y-97985713D01*
X135550057Y-97985713D02*
X135502438Y-97938094D01*
X135502438Y-97938094D02*
X135454819Y-97842856D01*
X135454819Y-97842856D02*
X135454819Y-97604761D01*
X135454819Y-97604761D02*
X135502438Y-97461904D01*
X129654819Y-95533333D02*
X130369104Y-95533333D01*
X130369104Y-95533333D02*
X130511961Y-95580952D01*
X130511961Y-95580952D02*
X130607200Y-95676190D01*
X130607200Y-95676190D02*
X130654819Y-95819047D01*
X130654819Y-95819047D02*
X130654819Y-95914285D01*
X130654819Y-94533333D02*
X130654819Y-95104761D01*
X130654819Y-94819047D02*
X129654819Y-94819047D01*
X129654819Y-94819047D02*
X129797676Y-94914285D01*
X129797676Y-94914285D02*
X129892914Y-95009523D01*
X129892914Y-95009523D02*
X129940533Y-95104761D01*
X142544819Y-95186666D02*
X142068628Y-95519999D01*
X142544819Y-95758094D02*
X141544819Y-95758094D01*
X141544819Y-95758094D02*
X141544819Y-95377142D01*
X141544819Y-95377142D02*
X141592438Y-95281904D01*
X141592438Y-95281904D02*
X141640057Y-95234285D01*
X141640057Y-95234285D02*
X141735295Y-95186666D01*
X141735295Y-95186666D02*
X141878152Y-95186666D01*
X141878152Y-95186666D02*
X141973390Y-95234285D01*
X141973390Y-95234285D02*
X142021009Y-95281904D01*
X142021009Y-95281904D02*
X142068628Y-95377142D01*
X142068628Y-95377142D02*
X142068628Y-95758094D01*
X142544819Y-94234285D02*
X142544819Y-94805713D01*
X142544819Y-94519999D02*
X141544819Y-94519999D01*
X141544819Y-94519999D02*
X141687676Y-94615237D01*
X141687676Y-94615237D02*
X141782914Y-94710475D01*
X141782914Y-94710475D02*
X141830533Y-94805713D01*
D12*
%TO.C,3V3*%
X140500000Y-95000000D02*
G75*
G02*
X137100000Y-95000000I-1700000J0D01*
G01*
X137100000Y-95000000D02*
G75*
G02*
X140500000Y-95000000I1700000J0D01*
G01*
%TO.C,GND*%
X140700000Y-90600000D02*
G75*
G02*
X137300000Y-90600000I-1700000J0D01*
G01*
X137300000Y-90600000D02*
G75*
G02*
X140700000Y-90600000I1700000J0D01*
G01*
%TO.C,SENS*%
X140700000Y-99400000D02*
G75*
G02*
X137300000Y-99400000I-1700000J0D01*
G01*
X137300000Y-99400000D02*
G75*
G02*
X140700000Y-99400000I1700000J0D01*
G01*
%TO.C,J1*%
X130405000Y-90185000D02*
X130405000Y-90205000D01*
X130405000Y-100195000D02*
X130405000Y-100215000D01*
X130405000Y-100215000D02*
X130905000Y-100215000D01*
X130905000Y-90185000D02*
X130405000Y-90185000D01*
X130905000Y-100215000D02*
X130905000Y-90185000D01*
X131920000Y-101635000D02*
X134995000Y-101635000D01*
X134995000Y-88765000D02*
X131920000Y-88765000D01*
X134995000Y-101635000D02*
X134995000Y-88765000D01*
%TO.C,R1*%
X141477500Y-97245276D02*
X141477500Y-97754724D01*
X142522500Y-97245276D02*
X142522500Y-97754724D01*
%TD*%
M02*
