%TF.GenerationSoftware,KiCad,Pcbnew,9.0.0*%
%TF.CreationDate,2025-03-23T00:29:21-05:00*%
%TF.ProjectId,LeakDetectionSensorV1,4c65616b-4465-4746-9563-74696f6e5365,rev?*%
%TF.SameCoordinates,Original*%
%TF.FileFunction,Copper,L2,Bot*%
%TF.FilePolarity,Positive*%
%FSLAX46Y46*%
G04 Gerber Fmt 4.6, Leading zero omitted, Abs format (unit mm)*
G04 Created by KiCad (PCBNEW 9.0.0) date 2025-03-23 00:29:21*
%MOMM*%
%LPD*%
G01*
G04 APERTURE LIST*
G04 Aperture macros list*
%AMRoundRect*
0 Rectangle with rounded corners*
0 $1 Rounding radius*
0 $2 $3 $4 $5 $6 $7 $8 $9 X,Y pos of 4 corners*
0 Add a 4 corners polygon primitive as box body*
4,1,4,$2,$3,$4,$5,$6,$7,$8,$9,$2,$3,0*
0 Add four circle primitives for the rounded corners*
1,1,$1+$1,$2,$3*
1,1,$1+$1,$4,$5*
1,1,$1+$1,$6,$7*
1,1,$1+$1,$8,$9*
0 Add four rect primitives between the rounded corners*
20,1,$1+$1,$2,$3,$4,$5,0*
20,1,$1+$1,$4,$5,$6,$7,0*
20,1,$1+$1,$6,$7,$8,$9,0*
20,1,$1+$1,$8,$9,$2,$3,0*%
G04 Aperture macros list end*
%TA.AperFunction,ComponentPad*%
%ADD10C,3.000000*%
%TD*%
%TA.AperFunction,ComponentPad*%
%ADD11RoundRect,0.250001X0.759999X-0.499999X0.759999X0.499999X-0.759999X0.499999X-0.759999X-0.499999X0*%
%TD*%
%TA.AperFunction,ComponentPad*%
%ADD12O,2.020000X1.500000*%
%TD*%
G04 APERTURE END LIST*
D10*
%TO.P,3V3,1,1*%
%TO.N,+3V3*%
X138800000Y-95000000D03*
%TD*%
%TO.P,GND,1,1*%
%TO.N,GND*%
X139000000Y-90600000D03*
%TD*%
%TO.P,SENS,1,1*%
%TO.N,Net-(J1-Pin_1)*%
X139000000Y-99400000D03*
%TD*%
D11*
%TO.P,J1,1,Pin_1*%
%TO.N,Net-(J1-Pin_1)*%
X132985000Y-98200000D03*
D12*
%TO.P,J1,2,Pin_2*%
%TO.N,+3V3*%
X132985000Y-95200000D03*
%TO.P,J1,3,Pin_3*%
%TO.N,GND*%
X132985000Y-92200000D03*
%TD*%
%TA.AperFunction,Conductor*%
%TO.N,GND*%
G36*
X130154901Y-88720185D02*
G01*
X130200656Y-88772989D01*
X130210600Y-88842147D01*
X130202423Y-88871953D01*
X130173529Y-88941708D01*
X130173527Y-88941716D01*
X130139500Y-89112781D01*
X130139500Y-89287218D01*
X130173527Y-89458283D01*
X130173529Y-89458291D01*
X130240278Y-89619439D01*
X130240283Y-89619448D01*
X130337186Y-89764473D01*
X130337189Y-89764477D01*
X130460522Y-89887810D01*
X130460526Y-89887813D01*
X130605551Y-89984716D01*
X130605557Y-89984719D01*
X130605558Y-89984720D01*
X130766709Y-90051471D01*
X130937781Y-90085499D01*
X130937785Y-90085500D01*
X130937786Y-90085500D01*
X131112215Y-90085500D01*
X131112216Y-90085499D01*
X131283291Y-90051471D01*
X131444442Y-89984720D01*
X131589474Y-89887813D01*
X131712813Y-89764474D01*
X131809720Y-89619442D01*
X131876471Y-89458291D01*
X131910500Y-89287214D01*
X131910500Y-89112786D01*
X131876471Y-88941709D01*
X131847576Y-88871952D01*
X131840108Y-88802483D01*
X131871383Y-88740004D01*
X131931472Y-88704352D01*
X131962138Y-88700500D01*
X137827259Y-88700500D01*
X137894298Y-88720185D01*
X137940053Y-88772989D01*
X137949997Y-88842147D01*
X137920972Y-88905703D01*
X137889257Y-88931888D01*
X137886471Y-88933495D01*
X137773633Y-89020079D01*
X137773633Y-89020080D01*
X138675974Y-89922421D01*
X138644742Y-89935359D01*
X138521903Y-90017437D01*
X138417437Y-90121903D01*
X138335359Y-90244742D01*
X138322421Y-90275974D01*
X137420080Y-89373633D01*
X137420079Y-89373633D01*
X137333496Y-89486471D01*
X137202409Y-89713517D01*
X137202404Y-89713528D01*
X137102075Y-89955744D01*
X137034222Y-90208979D01*
X137034220Y-90208990D01*
X137000000Y-90468905D01*
X137000000Y-90731094D01*
X137034220Y-90991009D01*
X137034222Y-90991020D01*
X137102075Y-91244255D01*
X137202404Y-91486471D01*
X137202409Y-91486482D01*
X137333488Y-91713516D01*
X137333494Y-91713524D01*
X137420080Y-91826365D01*
X138322421Y-90924024D01*
X138335359Y-90955258D01*
X138417437Y-91078097D01*
X138521903Y-91182563D01*
X138644742Y-91264641D01*
X138675974Y-91277577D01*
X137773633Y-92179917D01*
X137773633Y-92179918D01*
X137886475Y-92266505D01*
X137886483Y-92266511D01*
X138113517Y-92397590D01*
X138113528Y-92397595D01*
X138355744Y-92497924D01*
X138608979Y-92565777D01*
X138608990Y-92565779D01*
X138868905Y-92599999D01*
X138868920Y-92600000D01*
X139131080Y-92600000D01*
X139131094Y-92599999D01*
X139391009Y-92565779D01*
X139391020Y-92565777D01*
X139644255Y-92497924D01*
X139886471Y-92397595D01*
X139886482Y-92397590D01*
X140113516Y-92266511D01*
X140113534Y-92266499D01*
X140226365Y-92179919D01*
X140226365Y-92179917D01*
X139324025Y-91277578D01*
X139355258Y-91264641D01*
X139478097Y-91182563D01*
X139582563Y-91078097D01*
X139664641Y-90955258D01*
X139677577Y-90924025D01*
X140579917Y-91826365D01*
X140579919Y-91826365D01*
X140666499Y-91713534D01*
X140666511Y-91713516D01*
X140797590Y-91486482D01*
X140797595Y-91486471D01*
X140897924Y-91244255D01*
X140965777Y-90991020D01*
X140965779Y-90991009D01*
X140999999Y-90731094D01*
X141000000Y-90731080D01*
X141000000Y-90468919D01*
X140999999Y-90468905D01*
X140965779Y-90208990D01*
X140965777Y-90208979D01*
X140897924Y-89955744D01*
X140797595Y-89713528D01*
X140797590Y-89713517D01*
X140666511Y-89486483D01*
X140666505Y-89486475D01*
X140579918Y-89373633D01*
X140579917Y-89373633D01*
X139677577Y-90275973D01*
X139664641Y-90244742D01*
X139582563Y-90121903D01*
X139478097Y-90017437D01*
X139355258Y-89935359D01*
X139324023Y-89922421D01*
X140226365Y-89020080D01*
X140113524Y-88933494D01*
X140113516Y-88933488D01*
X140110744Y-88931888D01*
X140062527Y-88881322D01*
X140049303Y-88812715D01*
X140075270Y-88747850D01*
X140132183Y-88707321D01*
X140172742Y-88700500D01*
X177734108Y-88700500D01*
X177793907Y-88700500D01*
X177806061Y-88701097D01*
X177924317Y-88712744D01*
X177948145Y-88717483D01*
X178056005Y-88750202D01*
X178078453Y-88759501D01*
X178162113Y-88804218D01*
X178177849Y-88812629D01*
X178198059Y-88826133D01*
X178285179Y-88897630D01*
X178302369Y-88914820D01*
X178373866Y-89001940D01*
X178387370Y-89022150D01*
X178440495Y-89121538D01*
X178449798Y-89143997D01*
X178482514Y-89251848D01*
X178487256Y-89275688D01*
X178498903Y-89393937D01*
X178499500Y-89406092D01*
X178499500Y-100993907D01*
X178498903Y-101006061D01*
X178498903Y-101006062D01*
X178487256Y-101124311D01*
X178482514Y-101148151D01*
X178449798Y-101256002D01*
X178440495Y-101278461D01*
X178387370Y-101377849D01*
X178373866Y-101398059D01*
X178302369Y-101485179D01*
X178285179Y-101502369D01*
X178198059Y-101573866D01*
X178177849Y-101587370D01*
X178078461Y-101640495D01*
X178056002Y-101649798D01*
X177948151Y-101682514D01*
X177924311Y-101687256D01*
X177839109Y-101695648D01*
X177806060Y-101698903D01*
X177793907Y-101699500D01*
X131962138Y-101699500D01*
X131895099Y-101679815D01*
X131849344Y-101627011D01*
X131839400Y-101557853D01*
X131847577Y-101528047D01*
X131858213Y-101502369D01*
X131876471Y-101458291D01*
X131910500Y-101287214D01*
X131910500Y-101112786D01*
X131876471Y-100941709D01*
X131809720Y-100780558D01*
X131809719Y-100780557D01*
X131809716Y-100780551D01*
X131712813Y-100635526D01*
X131712810Y-100635522D01*
X131589477Y-100512189D01*
X131589473Y-100512186D01*
X131444448Y-100415283D01*
X131444439Y-100415278D01*
X131283291Y-100348529D01*
X131283283Y-100348527D01*
X131112218Y-100314500D01*
X131112214Y-100314500D01*
X130937786Y-100314500D01*
X130937781Y-100314500D01*
X130766716Y-100348527D01*
X130766708Y-100348529D01*
X130605560Y-100415278D01*
X130605551Y-100415283D01*
X130460526Y-100512186D01*
X130460522Y-100512189D01*
X130337189Y-100635522D01*
X130337186Y-100635526D01*
X130240283Y-100780551D01*
X130240278Y-100780560D01*
X130173529Y-100941708D01*
X130173527Y-100941716D01*
X130139500Y-101112781D01*
X130139500Y-101287218D01*
X130173527Y-101458283D01*
X130173529Y-101458291D01*
X130202423Y-101528047D01*
X130209892Y-101597517D01*
X130178617Y-101659996D01*
X130118528Y-101695648D01*
X130087862Y-101699500D01*
X122206093Y-101699500D01*
X122193939Y-101698903D01*
X122143081Y-101693893D01*
X122075688Y-101687256D01*
X122051848Y-101682514D01*
X121943997Y-101649798D01*
X121921541Y-101640496D01*
X121822150Y-101587370D01*
X121801940Y-101573866D01*
X121714820Y-101502369D01*
X121697630Y-101485179D01*
X121626133Y-101398059D01*
X121612629Y-101377849D01*
X121606440Y-101366270D01*
X121559501Y-101278453D01*
X121550201Y-101256002D01*
X121517483Y-101148145D01*
X121512744Y-101124317D01*
X121501097Y-101006061D01*
X121500500Y-100993907D01*
X121500500Y-97649984D01*
X131474500Y-97649984D01*
X131474500Y-98750015D01*
X131485000Y-98852795D01*
X131485001Y-98852796D01*
X131540186Y-99019335D01*
X131540187Y-99019337D01*
X131632286Y-99168651D01*
X131632289Y-99168655D01*
X131756344Y-99292710D01*
X131756348Y-99292713D01*
X131905662Y-99384812D01*
X131905664Y-99384813D01*
X131905666Y-99384814D01*
X132072203Y-99439999D01*
X132174992Y-99450500D01*
X132174997Y-99450500D01*
X133795003Y-99450500D01*
X133795008Y-99450500D01*
X133897797Y-99439999D01*
X134064334Y-99384814D01*
X134213655Y-99292711D01*
X134237494Y-99268872D01*
X136999500Y-99268872D01*
X136999500Y-99531127D01*
X137026123Y-99733339D01*
X137033730Y-99791116D01*
X137101602Y-100044418D01*
X137101605Y-100044428D01*
X137201953Y-100286690D01*
X137201958Y-100286700D01*
X137333075Y-100513803D01*
X137492718Y-100721851D01*
X137492726Y-100721860D01*
X137678140Y-100907274D01*
X137678148Y-100907281D01*
X137886196Y-101066924D01*
X138113299Y-101198041D01*
X138113309Y-101198046D01*
X138328590Y-101287218D01*
X138355581Y-101298398D01*
X138608884Y-101366270D01*
X138868880Y-101400500D01*
X138868887Y-101400500D01*
X139131113Y-101400500D01*
X139131120Y-101400500D01*
X139391116Y-101366270D01*
X139644419Y-101298398D01*
X139886697Y-101198043D01*
X140113803Y-101066924D01*
X140321851Y-100907282D01*
X140321855Y-100907277D01*
X140321860Y-100907274D01*
X140507274Y-100721860D01*
X140507277Y-100721855D01*
X140507282Y-100721851D01*
X140666924Y-100513803D01*
X140798043Y-100286697D01*
X140898398Y-100044419D01*
X140966270Y-99791116D01*
X141000500Y-99531120D01*
X141000500Y-99268880D01*
X140966270Y-99008884D01*
X140898398Y-98755581D01*
X140898394Y-98755571D01*
X140798046Y-98513309D01*
X140798041Y-98513299D01*
X140666924Y-98286196D01*
X140507281Y-98078148D01*
X140507274Y-98078140D01*
X140321860Y-97892726D01*
X140321851Y-97892718D01*
X140113803Y-97733075D01*
X139886700Y-97601958D01*
X139886690Y-97601953D01*
X139644428Y-97501605D01*
X139644421Y-97501603D01*
X139644419Y-97501602D01*
X139391116Y-97433730D01*
X139333339Y-97426123D01*
X139131127Y-97399500D01*
X139131120Y-97399500D01*
X138868880Y-97399500D01*
X138868872Y-97399500D01*
X138637772Y-97429926D01*
X138608884Y-97433730D01*
X138355581Y-97501602D01*
X138355571Y-97501605D01*
X138113309Y-97601953D01*
X138113299Y-97601958D01*
X137886196Y-97733075D01*
X137678148Y-97892718D01*
X137492718Y-98078148D01*
X137333075Y-98286196D01*
X137201958Y-98513299D01*
X137201953Y-98513309D01*
X137101605Y-98755571D01*
X137101602Y-98755581D01*
X137075554Y-98852796D01*
X137033730Y-99008885D01*
X136999500Y-99268872D01*
X134237494Y-99268872D01*
X134337711Y-99168655D01*
X134429814Y-99019334D01*
X134484999Y-98852797D01*
X134495500Y-98750008D01*
X134495500Y-97649992D01*
X134484999Y-97547203D01*
X134429814Y-97380666D01*
X134357374Y-97263224D01*
X134337713Y-97231348D01*
X134337710Y-97231344D01*
X134213655Y-97107289D01*
X134213651Y-97107286D01*
X134064337Y-97015187D01*
X134064335Y-97015186D01*
X133981065Y-96987593D01*
X133897797Y-96960001D01*
X133897795Y-96960000D01*
X133795015Y-96949500D01*
X133795008Y-96949500D01*
X132174992Y-96949500D01*
X132174984Y-96949500D01*
X132072204Y-96960000D01*
X132072203Y-96960001D01*
X131905664Y-97015186D01*
X131905662Y-97015187D01*
X131756348Y-97107286D01*
X131756344Y-97107289D01*
X131632289Y-97231344D01*
X131632286Y-97231348D01*
X131540187Y-97380662D01*
X131540186Y-97380664D01*
X131485001Y-97547203D01*
X131485000Y-97547204D01*
X131474500Y-97649984D01*
X121500500Y-97649984D01*
X121500500Y-95478711D01*
X123149500Y-95478711D01*
X123149500Y-95721288D01*
X123181161Y-95961785D01*
X123243947Y-96196104D01*
X123296037Y-96321860D01*
X123336776Y-96420212D01*
X123458064Y-96630289D01*
X123458066Y-96630292D01*
X123458067Y-96630293D01*
X123605733Y-96822736D01*
X123605739Y-96822743D01*
X123777256Y-96994260D01*
X123777263Y-96994266D01*
X123804527Y-97015186D01*
X123969711Y-97141936D01*
X124179788Y-97263224D01*
X124403900Y-97356054D01*
X124638211Y-97418838D01*
X124818586Y-97442584D01*
X124878711Y-97450500D01*
X124878712Y-97450500D01*
X125121289Y-97450500D01*
X125169388Y-97444167D01*
X125361789Y-97418838D01*
X125596100Y-97356054D01*
X125820212Y-97263224D01*
X126030289Y-97141936D01*
X126222738Y-96994265D01*
X126394265Y-96822738D01*
X126541936Y-96630289D01*
X126663224Y-96420212D01*
X126756054Y-96196100D01*
X126818838Y-95961789D01*
X126850500Y-95721288D01*
X126850500Y-95478712D01*
X126818838Y-95238211D01*
X126782227Y-95101577D01*
X131474500Y-95101577D01*
X131474500Y-95298422D01*
X131505290Y-95492826D01*
X131566117Y-95680029D01*
X131655476Y-95855405D01*
X131771172Y-96014646D01*
X131910354Y-96153828D01*
X132069595Y-96269524D01*
X132152455Y-96311743D01*
X132244970Y-96358882D01*
X132244972Y-96358882D01*
X132244975Y-96358884D01*
X132345317Y-96391487D01*
X132432173Y-96419709D01*
X132626578Y-96450500D01*
X132626583Y-96450500D01*
X133343422Y-96450500D01*
X133537826Y-96419709D01*
X133725025Y-96358884D01*
X133900405Y-96269524D01*
X134059646Y-96153828D01*
X134198828Y-96014646D01*
X134314524Y-95855405D01*
X134403884Y-95680025D01*
X134464709Y-95492826D01*
X134466945Y-95478711D01*
X134495500Y-95298422D01*
X134495500Y-95101577D01*
X134477586Y-94988483D01*
X134464709Y-94907174D01*
X134464661Y-94907027D01*
X134463397Y-94903134D01*
X134463396Y-94903133D01*
X134452264Y-94868872D01*
X136799500Y-94868872D01*
X136799500Y-95131127D01*
X136821526Y-95298422D01*
X136833730Y-95391116D01*
X136901602Y-95644418D01*
X136901605Y-95644428D01*
X137001953Y-95886690D01*
X137001958Y-95886700D01*
X137133075Y-96113803D01*
X137292718Y-96321851D01*
X137292726Y-96321860D01*
X137478140Y-96507274D01*
X137478148Y-96507281D01*
X137686196Y-96666924D01*
X137913299Y-96798041D01*
X137913309Y-96798046D01*
X138070668Y-96863226D01*
X138155581Y-96898398D01*
X138408884Y-96966270D01*
X138668880Y-97000500D01*
X138668887Y-97000500D01*
X138931113Y-97000500D01*
X138931120Y-97000500D01*
X139191116Y-96966270D01*
X139444419Y-96898398D01*
X139686697Y-96798043D01*
X139913803Y-96666924D01*
X140121851Y-96507282D01*
X140121855Y-96507277D01*
X140121860Y-96507274D01*
X140307274Y-96321860D01*
X140307277Y-96321855D01*
X140307282Y-96321851D01*
X140466924Y-96113803D01*
X140598043Y-95886697D01*
X140698398Y-95644419D01*
X140766270Y-95391116D01*
X140800500Y-95131120D01*
X140800500Y-95078711D01*
X173349500Y-95078711D01*
X173349500Y-95321288D01*
X173381161Y-95561785D01*
X173443947Y-95796104D01*
X173512575Y-95961785D01*
X173536776Y-96020212D01*
X173658064Y-96230289D01*
X173658066Y-96230292D01*
X173658067Y-96230293D01*
X173805733Y-96422736D01*
X173805739Y-96422743D01*
X173977256Y-96594260D01*
X173977262Y-96594265D01*
X174169711Y-96741936D01*
X174379788Y-96863224D01*
X174603900Y-96956054D01*
X174838211Y-97018838D01*
X175018586Y-97042584D01*
X175078711Y-97050500D01*
X175078712Y-97050500D01*
X175321289Y-97050500D01*
X175369388Y-97044167D01*
X175561789Y-97018838D01*
X175796100Y-96956054D01*
X176020212Y-96863224D01*
X176230289Y-96741936D01*
X176422738Y-96594265D01*
X176594265Y-96422738D01*
X176741936Y-96230289D01*
X176863224Y-96020212D01*
X176956054Y-95796100D01*
X177018838Y-95561789D01*
X177050500Y-95321288D01*
X177050500Y-95078712D01*
X177018838Y-94838211D01*
X176956054Y-94603900D01*
X176863224Y-94379788D01*
X176741936Y-94169711D01*
X176596589Y-93980291D01*
X176594266Y-93977263D01*
X176594260Y-93977256D01*
X176422743Y-93805739D01*
X176422736Y-93805733D01*
X176230293Y-93658067D01*
X176230292Y-93658066D01*
X176230289Y-93658064D01*
X176020212Y-93536776D01*
X176020205Y-93536773D01*
X175796104Y-93443947D01*
X175561785Y-93381161D01*
X175321289Y-93349500D01*
X175321288Y-93349500D01*
X175078712Y-93349500D01*
X175078711Y-93349500D01*
X174838214Y-93381161D01*
X174603895Y-93443947D01*
X174379794Y-93536773D01*
X174379785Y-93536777D01*
X174169706Y-93658067D01*
X173977263Y-93805733D01*
X173977256Y-93805739D01*
X173805739Y-93977256D01*
X173805733Y-93977263D01*
X173658067Y-94169706D01*
X173536777Y-94379785D01*
X173536773Y-94379794D01*
X173443947Y-94603895D01*
X173381161Y-94838214D01*
X173349500Y-95078711D01*
X140800500Y-95078711D01*
X140800500Y-94868880D01*
X140766270Y-94608884D01*
X140698398Y-94355581D01*
X140653080Y-94246174D01*
X140598046Y-94113309D01*
X140598041Y-94113299D01*
X140466924Y-93886196D01*
X140307281Y-93678148D01*
X140307274Y-93678140D01*
X140121860Y-93492726D01*
X140121851Y-93492718D01*
X139913803Y-93333075D01*
X139686700Y-93201958D01*
X139686690Y-93201953D01*
X139444428Y-93101605D01*
X139444421Y-93101603D01*
X139444419Y-93101602D01*
X139191116Y-93033730D01*
X139133339Y-93026123D01*
X138931127Y-92999500D01*
X138931120Y-92999500D01*
X138668880Y-92999500D01*
X138668872Y-92999500D01*
X138437772Y-93029926D01*
X138408884Y-93033730D01*
X138155581Y-93101602D01*
X138155571Y-93101605D01*
X137913309Y-93201953D01*
X137913299Y-93201958D01*
X137686196Y-93333075D01*
X137478148Y-93492718D01*
X137292718Y-93678148D01*
X137133075Y-93886196D01*
X137001958Y-94113299D01*
X137001953Y-94113309D01*
X136901605Y-94355571D01*
X136901602Y-94355581D01*
X136835066Y-94603900D01*
X136833730Y-94608885D01*
X136799500Y-94868872D01*
X134452264Y-94868872D01*
X134423320Y-94779794D01*
X134403884Y-94719975D01*
X134403882Y-94719972D01*
X134403882Y-94719970D01*
X134327321Y-94569711D01*
X134314524Y-94544595D01*
X134198828Y-94385354D01*
X134059646Y-94246172D01*
X133900405Y-94130476D01*
X133866693Y-94113299D01*
X133725029Y-94041117D01*
X133537826Y-93980290D01*
X133343422Y-93949500D01*
X133343417Y-93949500D01*
X132626583Y-93949500D01*
X132626578Y-93949500D01*
X132432173Y-93980290D01*
X132244970Y-94041117D01*
X132069594Y-94130476D01*
X132015593Y-94169711D01*
X131910354Y-94246172D01*
X131910352Y-94246174D01*
X131910351Y-94246174D01*
X131771174Y-94385351D01*
X131771174Y-94385352D01*
X131771172Y-94385354D01*
X131721485Y-94453741D01*
X131655476Y-94544594D01*
X131566117Y-94719970D01*
X131505290Y-94907173D01*
X131474500Y-95101577D01*
X126782227Y-95101577D01*
X126756054Y-95003900D01*
X126663224Y-94779788D01*
X126541936Y-94569711D01*
X126394265Y-94377262D01*
X126394260Y-94377256D01*
X126222743Y-94205739D01*
X126222736Y-94205733D01*
X126030293Y-94058067D01*
X126030292Y-94058066D01*
X126030289Y-94058064D01*
X125820212Y-93936776D01*
X125820205Y-93936773D01*
X125596104Y-93843947D01*
X125361785Y-93781161D01*
X125121289Y-93749500D01*
X125121288Y-93749500D01*
X124878712Y-93749500D01*
X124878711Y-93749500D01*
X124638214Y-93781161D01*
X124403895Y-93843947D01*
X124179794Y-93936773D01*
X124179785Y-93936777D01*
X123969706Y-94058067D01*
X123777263Y-94205733D01*
X123777256Y-94205739D01*
X123605739Y-94377256D01*
X123605733Y-94377263D01*
X123458067Y-94569706D01*
X123336777Y-94779785D01*
X123336773Y-94779794D01*
X123243947Y-95003895D01*
X123181161Y-95238214D01*
X123149500Y-95478711D01*
X121500500Y-95478711D01*
X121500500Y-91950000D01*
X131499016Y-91950000D01*
X132540440Y-91950000D01*
X132509755Y-92003147D01*
X132475000Y-92132857D01*
X132475000Y-92267143D01*
X132509755Y-92396853D01*
X132540440Y-92450000D01*
X131499016Y-92450000D01*
X131505781Y-92492716D01*
X131566581Y-92679837D01*
X131655904Y-92855143D01*
X131771555Y-93014321D01*
X131910678Y-93153444D01*
X132069856Y-93269095D01*
X132245164Y-93358418D01*
X132432294Y-93419221D01*
X132626618Y-93450000D01*
X132735000Y-93450000D01*
X132735000Y-92644560D01*
X132788147Y-92675245D01*
X132917857Y-92710000D01*
X133052143Y-92710000D01*
X133181853Y-92675245D01*
X133235000Y-92644560D01*
X133235000Y-93450000D01*
X133343382Y-93450000D01*
X133537705Y-93419221D01*
X133724835Y-93358418D01*
X133900143Y-93269095D01*
X134059321Y-93153444D01*
X134198444Y-93014321D01*
X134314095Y-92855143D01*
X134403418Y-92679837D01*
X134464218Y-92492716D01*
X134470984Y-92450000D01*
X133429560Y-92450000D01*
X133460245Y-92396853D01*
X133495000Y-92267143D01*
X133495000Y-92132857D01*
X133460245Y-92003147D01*
X133429560Y-91950000D01*
X134470984Y-91950000D01*
X134464218Y-91907283D01*
X134403418Y-91720162D01*
X134314095Y-91544856D01*
X134198444Y-91385678D01*
X134059321Y-91246555D01*
X133900143Y-91130904D01*
X133724835Y-91041581D01*
X133537705Y-90980778D01*
X133343382Y-90950000D01*
X133235000Y-90950000D01*
X133235000Y-91755439D01*
X133181853Y-91724755D01*
X133052143Y-91690000D01*
X132917857Y-91690000D01*
X132788147Y-91724755D01*
X132735000Y-91755439D01*
X132735000Y-90950000D01*
X132626618Y-90950000D01*
X132432294Y-90980778D01*
X132245164Y-91041581D01*
X132069856Y-91130904D01*
X131910678Y-91246555D01*
X131771555Y-91385678D01*
X131655904Y-91544856D01*
X131566581Y-91720162D01*
X131505781Y-91907283D01*
X131499016Y-91950000D01*
X121500500Y-91950000D01*
X121500500Y-89406092D01*
X121501097Y-89393938D01*
X121503097Y-89373633D01*
X121512744Y-89275678D01*
X121517483Y-89251856D01*
X121550203Y-89143990D01*
X121559499Y-89121549D01*
X121612632Y-89022144D01*
X121626133Y-89001940D01*
X121697635Y-88914814D01*
X121714814Y-88897635D01*
X121801942Y-88826131D01*
X121822144Y-88812632D01*
X121921549Y-88759499D01*
X121943990Y-88750203D01*
X122051856Y-88717483D01*
X122075682Y-88712744D01*
X122175730Y-88702890D01*
X122193940Y-88701097D01*
X122206093Y-88700500D01*
X122265892Y-88700500D01*
X130087862Y-88700500D01*
X130154901Y-88720185D01*
G37*
%TD.AperFunction*%
%TD*%
M02*
