%TF.GenerationSoftware,KiCad,Pcbnew,7.0.7*%
%TF.CreationDate,2024-05-10T07:30:13-05:00*%
%TF.ProjectId,WaterBlasterV2,57617465-7242-46c6-9173-74657256322e,rev?*%
%TF.SameCoordinates,Original*%
%TF.FileFunction,Copper,L1,Top*%
%TF.FilePolarity,Positive*%
%FSLAX46Y46*%
G04 Gerber Fmt 4.6, Leading zero omitted, Abs format (unit mm)*
G04 Created by KiCad (PCBNEW 7.0.7) date 2024-05-10 07:30:13*
%MOMM*%
%LPD*%
G01*
G04 APERTURE LIST*
G04 Aperture macros list*
%AMRoundRect*
0 Rectangle with rounded corners*
0 $1 Rounding radius*
0 $2 $3 $4 $5 $6 $7 $8 $9 X,Y pos of 4 corners*
0 Add a 4 corners polygon primitive as box body*
4,1,4,$2,$3,$4,$5,$6,$7,$8,$9,$2,$3,0*
0 Add four circle primitives for the rounded corners*
1,1,$1+$1,$2,$3*
1,1,$1+$1,$4,$5*
1,1,$1+$1,$6,$7*
1,1,$1+$1,$8,$9*
0 Add four rect primitives between the rounded corners*
20,1,$1+$1,$2,$3,$4,$5,0*
20,1,$1+$1,$4,$5,$6,$7,0*
20,1,$1+$1,$6,$7,$8,$9,0*
20,1,$1+$1,$8,$9,$2,$3,0*%
G04 Aperture macros list end*
%TA.AperFunction,ComponentPad*%
%ADD10C,1.520000*%
%TD*%
%TA.AperFunction,ComponentPad*%
%ADD11R,1.520000X1.520000*%
%TD*%
%TA.AperFunction,SMDPad,CuDef*%
%ADD12RoundRect,0.125000X-0.625000X-0.125000X0.625000X-0.125000X0.625000X0.125000X-0.625000X0.125000X0*%
%TD*%
%TA.AperFunction,SMDPad,CuDef*%
%ADD13RoundRect,0.125000X-0.125000X-0.625000X0.125000X-0.625000X0.125000X0.625000X-0.125000X0.625000X0*%
%TD*%
%TA.AperFunction,SMDPad,CuDef*%
%ADD14R,0.863600X2.006600*%
%TD*%
%TA.AperFunction,SMDPad,CuDef*%
%ADD15RoundRect,0.250000X0.350000X-0.850000X0.350000X0.850000X-0.350000X0.850000X-0.350000X-0.850000X0*%
%TD*%
%TA.AperFunction,SMDPad,CuDef*%
%ADD16RoundRect,0.249997X2.650003X-2.950003X2.650003X2.950003X-2.650003X2.950003X-2.650003X-2.950003X0*%
%TD*%
%TA.AperFunction,SMDPad,CuDef*%
%ADD17RoundRect,0.250000X1.125000X-1.275000X1.125000X1.275000X-1.125000X1.275000X-1.125000X-1.275000X0*%
%TD*%
%TA.AperFunction,SMDPad,CuDef*%
%ADD18RoundRect,0.250000X-0.850000X-0.350000X0.850000X-0.350000X0.850000X0.350000X-0.850000X0.350000X0*%
%TD*%
%TA.AperFunction,SMDPad,CuDef*%
%ADD19RoundRect,0.249997X-2.950003X-2.650003X2.950003X-2.650003X2.950003X2.650003X-2.950003X2.650003X0*%
%TD*%
%TA.AperFunction,SMDPad,CuDef*%
%ADD20RoundRect,0.250000X-1.275000X-1.125000X1.275000X-1.125000X1.275000X1.125000X-1.275000X1.125000X0*%
%TD*%
%TA.AperFunction,ComponentPad*%
%ADD21C,1.168400*%
%TD*%
%TA.AperFunction,ComponentPad*%
%ADD22O,1.500000X2.020000*%
%TD*%
%TA.AperFunction,ComponentPad*%
%ADD23RoundRect,0.250001X0.499999X0.759999X-0.499999X0.759999X-0.499999X-0.759999X0.499999X-0.759999X0*%
%TD*%
%TA.AperFunction,ComponentPad*%
%ADD24RoundRect,0.250001X-0.499999X-0.759999X0.499999X-0.759999X0.499999X0.759999X-0.499999X0.759999X0*%
%TD*%
%TA.AperFunction,ComponentPad*%
%ADD25R,1.500000X2.300000*%
%TD*%
%TA.AperFunction,ComponentPad*%
%ADD26O,1.500000X2.300000*%
%TD*%
%TA.AperFunction,SMDPad,CuDef*%
%ADD27R,2.000000X1.500000*%
%TD*%
%TA.AperFunction,SMDPad,CuDef*%
%ADD28R,2.000000X3.800000*%
%TD*%
%TA.AperFunction,ComponentPad*%
%ADD29C,1.000000*%
%TD*%
%TA.AperFunction,SMDPad,CuDef*%
%ADD30R,2.200000X1.500000*%
%TD*%
%TA.AperFunction,SMDPad,CuDef*%
%ADD31RoundRect,0.237500X0.237500X-0.287500X0.237500X0.287500X-0.237500X0.287500X-0.237500X-0.287500X0*%
%TD*%
%TA.AperFunction,ViaPad*%
%ADD32C,0.800000*%
%TD*%
%TA.AperFunction,ViaPad*%
%ADD33C,3.000000*%
%TD*%
%TA.AperFunction,ViaPad*%
%ADD34C,2.000000*%
%TD*%
%TA.AperFunction,Conductor*%
%ADD35C,0.250000*%
%TD*%
%TA.AperFunction,Conductor*%
%ADD36C,1.500000*%
%TD*%
%TA.AperFunction,Conductor*%
%ADD37C,2.000000*%
%TD*%
G04 APERTURE END LIST*
D10*
%TO.P,J12,3,Pin_3*%
%TO.N,/MCU/ExtraConn_4_1*%
X115509000Y-72692000D03*
%TO.P,J12,2,Pin_2*%
%TO.N,/MCU/ExtraConn_4_2*%
X115509000Y-75692000D03*
D11*
%TO.P,J12,1,Pin_1*%
%TO.N,/MCU/ExtraConn_4_3*%
X115509000Y-78692000D03*
%TD*%
D10*
%TO.P,J11,3,Pin_3*%
%TO.N,/MCU/ExtraConn_3_1*%
X101981000Y-92552000D03*
%TO.P,J11,2,Pin_2*%
%TO.N,/MCU/ExtraConn_3_2*%
X101981000Y-95552000D03*
D11*
%TO.P,J11,1,Pin_1*%
%TO.N,/MCU/ExtraConn_3_3*%
X101981000Y-98552000D03*
%TD*%
%TO.P,J9,1,Pin_1*%
%TO.N,/MCU/ExtraConn_2_2*%
X104219000Y-84201000D03*
D10*
%TO.P,J9,2,Pin_2*%
%TO.N,/MCU/ExtraConn_2_1*%
X101219000Y-84201000D03*
%TD*%
%TO.P,J10,2,Pin_2*%
%TO.N,/MCU/ExtraConn_1_2*%
X126770000Y-78674000D03*
D11*
%TO.P,J10,1,Pin_1*%
%TO.N,/MCU/ExtraConn_1_1*%
X129770000Y-78674000D03*
%TD*%
%TO.P,J8,1,Pin_1*%
%TO.N,Net-(J8-Pin_1)*%
X101188000Y-73207000D03*
D10*
%TO.P,J8,2,Pin_2*%
%TO.N,/IO/Button6*%
X104188000Y-73207000D03*
%TD*%
D11*
%TO.P,J5,1,Pin_1*%
%TO.N,Net-(J5-Pin_1)*%
X103063000Y-113895000D03*
D10*
%TO.P,J5,2,Pin_2*%
%TO.N,/IO/Button3*%
X103063000Y-110895000D03*
%TD*%
D11*
%TO.P,J4,1,Pin_1*%
%TO.N,Net-(J4-Pin_1)*%
X112141000Y-113871000D03*
D10*
%TO.P,J4,2,Pin_2*%
%TO.N,/IO/Button2*%
X112141000Y-110871000D03*
%TD*%
D11*
%TO.P,J3,1,Pin_1*%
%TO.N,Net-(J3-Pin_1)*%
X121158000Y-113871000D03*
D10*
%TO.P,J3,2,Pin_2*%
%TO.N,/IO/Button1*%
X121158000Y-110871000D03*
%TD*%
D12*
%TO.P,U3,1,PB9*%
%TO.N,/MCU/ExtraConn_2_1*%
X116618000Y-93714000D03*
%TO.P,U3,2,PC14-OSC32_IN*%
%TO.N,/MCU/ExtraConn_2_2*%
X116618000Y-94514000D03*
%TO.P,U3,3,PC15-OSC32_OUT*%
%TO.N,/IO/Button3*%
X116618000Y-95314000D03*
%TO.P,U3,4,VDD/VDDA*%
%TO.N,+3V3*%
X116618000Y-96114000D03*
%TO.P,U3,5,VSS/VSSA*%
%TO.N,GND*%
X116618000Y-96914000D03*
%TO.P,U3,6,~{RST}*%
%TO.N,/MCU/RESET*%
X116618000Y-97714000D03*
%TO.P,U3,7,PA0*%
%TO.N,/IO/Button1*%
X116618000Y-98514000D03*
%TO.P,U3,8,PA1*%
%TO.N,/IO/Button2*%
X116618000Y-99314000D03*
D13*
%TO.P,U3,9,PA2*%
%TO.N,/MCU/ExtraConn_3_1*%
X117993000Y-100689000D03*
%TO.P,U3,10,PA3*%
%TO.N,/MCU/ExtraConn_3_2*%
X118793000Y-100689000D03*
%TO.P,U3,11,PA4*%
%TO.N,/MCU/ExtraConn_3_3*%
X119593000Y-100689000D03*
%TO.P,U3,12,PA5*%
%TO.N,/Display/SCLK*%
X120393000Y-100689000D03*
%TO.P,U3,13,PA6*%
%TO.N,/Display/SDO*%
X121193000Y-100689000D03*
%TO.P,U3,14,PA7*%
%TO.N,/Display/SDI*%
X121993000Y-100689000D03*
%TO.P,U3,15,PB0*%
%TO.N,/Display/{slash}CS*%
X122793000Y-100689000D03*
%TO.P,U3,16,PB1*%
%TO.N,/Display/{slash}RESET*%
X123593000Y-100689000D03*
D12*
%TO.P,U3,17,PB2*%
%TO.N,/MCU/PumpControl*%
X124968000Y-99314000D03*
%TO.P,U3,18,PA8*%
%TO.N,/MCU/ValveControl*%
X124968000Y-98514000D03*
%TO.P,U3,19,PA9*%
%TO.N,/IO/LED1*%
X124968000Y-97714000D03*
%TO.P,U3,20,PC6*%
%TO.N,/IO/LED2*%
X124968000Y-96914000D03*
%TO.P,U3,21,PA10*%
%TO.N,/IO/LED3*%
X124968000Y-96114000D03*
%TO.P,U3,22,PA11(PA9)*%
%TO.N,/IO/LED4*%
X124968000Y-95314000D03*
%TO.P,U3,23,PA12(PA10)*%
%TO.N,/MCU/ExtraConn_1_1*%
X124968000Y-94514000D03*
%TO.P,U3,24,PA13*%
%TO.N,/MCU/SWDIO*%
X124968000Y-93714000D03*
D13*
%TO.P,U3,25,PA14-BOOT0*%
%TO.N,/MCU/SWCLK*%
X123593000Y-92339000D03*
%TO.P,U3,26,PA15*%
%TO.N,/MCU/ExtraConn_1_2*%
X122793000Y-92339000D03*
%TO.P,U3,27,PB3*%
%TO.N,/MCU/ExtraConn_4_1*%
X121993000Y-92339000D03*
%TO.P,U3,28,PB4*%
%TO.N,/MCU/ExtraConn_4_2*%
X121193000Y-92339000D03*
%TO.P,U3,29,PB5*%
%TO.N,/MCU/ExtraConn_4_3*%
X120393000Y-92339000D03*
%TO.P,U3,30,PB6*%
%TO.N,/IO/Button4*%
X119593000Y-92339000D03*
%TO.P,U3,31,PB7*%
%TO.N,/IO/Button5*%
X118793000Y-92339000D03*
%TO.P,U3,32,PB8*%
%TO.N,/IO/Button6*%
X117993000Y-92339000D03*
%TD*%
D11*
%TO.P,J16,1,1*%
%TO.N,GND*%
X110109000Y-127762000D03*
D10*
%TO.P,J16,2,2*%
%TO.N,+3V3*%
X107109001Y-127762000D03*
%TO.P,J16,3,3*%
%TO.N,/Display/{slash}RESET*%
X104109002Y-127762000D03*
%TO.P,J16,4,4*%
%TO.N,/Display/{slash}CS*%
X101109003Y-127762000D03*
%TO.P,J16,5,5*%
%TO.N,/Display/SDI*%
X110109000Y-124762001D03*
%TO.P,J16,6,6*%
%TO.N,/Display/SDO*%
X107109001Y-124762001D03*
%TO.P,J16,7,7*%
%TO.N,/Display/SCLK*%
X104109002Y-124762001D03*
%TO.P,J16,8,8*%
%TO.N,GND*%
X101109003Y-124762001D03*
%TD*%
D14*
%TO.P,SW1,2,2*%
%TO.N,/MCU/RESET*%
X114518001Y-85305900D03*
X114518001Y-93002100D03*
%TO.P,SW1,1,1*%
%TO.N,GND*%
X110017999Y-85305900D03*
X110017999Y-93002100D03*
%TD*%
D15*
%TO.P,Q2,1,G*%
%TO.N,/MCU/ValveControl*%
X135895000Y-76253000D03*
%TO.P,Q2,3,S*%
%TO.N,GND*%
X140455000Y-76253000D03*
D16*
%TO.P,Q2,2,D*%
%TO.N,Net-(J14-Pin_1)*%
X138175000Y-69953000D03*
D17*
X139700000Y-68278000D03*
X136650000Y-71628000D03*
X136650000Y-68278000D03*
X139700000Y-71628000D03*
%TD*%
D18*
%TO.P,Q1,1,G*%
%TO.N,/MCU/PumpControl*%
X119244000Y-121164000D03*
%TO.P,Q1,3,S*%
%TO.N,GND*%
X119244000Y-125724000D03*
D19*
%TO.P,Q1,2,D*%
%TO.N,Net-(J13-Pin_1)*%
X125544000Y-123444000D03*
D20*
X127219000Y-124969000D03*
X123869000Y-121919000D03*
X127219000Y-121919000D03*
X123869000Y-124969000D03*
%TD*%
D21*
%TO.P,J2,1,VCC*%
%TO.N,Net-(J2-VCC)*%
X128397000Y-85598000D03*
%TO.P,J2,2,TMS*%
%TO.N,/MCU/SWDIO*%
X128397000Y-86868000D03*
%TO.P,J2,3,GND*%
%TO.N,GND*%
X127127000Y-85598000D03*
%TO.P,J2,4,TCLK*%
%TO.N,/MCU/SWCLK*%
X127127000Y-86868000D03*
%TO.P,J2,5,GND*%
%TO.N,GND*%
X125857000Y-85598000D03*
%TO.P,J2,6,TDO*%
%TO.N,unconnected-(J2-TDO-Pad6)*%
X125857000Y-86868000D03*
%TO.P,J2,7,RTCK*%
%TO.N,unconnected-(J2-RTCK-Pad7)*%
X124587000Y-85598000D03*
%TO.P,J2,8,TDI*%
%TO.N,unconnected-(J2-TDI-Pad8)*%
X124587000Y-86868000D03*
%TO.P,J2,9,GND*%
%TO.N,GND*%
X123317000Y-85598000D03*
%TO.P,J2,10,~{RESET}*%
%TO.N,/MCU/RESET*%
X123317000Y-86868000D03*
%TD*%
D22*
%TO.P,J15,3,Pin_3*%
%TO.N,GND*%
X119047000Y-128491000D03*
%TO.P,J15,2,Pin_2*%
%TO.N,Net-(J15-Pin_2)*%
X122047000Y-128491000D03*
D23*
%TO.P,J15,1,Pin_1*%
%TO.N,GND*%
X125047000Y-128491000D03*
%TD*%
D22*
%TO.P,J14,3,Pin_3*%
%TO.N,Net-(J14-Pin_1)*%
X132032000Y-64676000D03*
%TO.P,J14,2,Pin_2*%
%TO.N,Net-(J14-Pin_2)*%
X129032000Y-64676000D03*
D24*
%TO.P,J14,1,Pin_1*%
%TO.N,Net-(J14-Pin_1)*%
X126032000Y-64676000D03*
%TD*%
D22*
%TO.P,J13,3,Pin_3*%
%TO.N,Net-(J13-Pin_1)*%
X132763000Y-128522000D03*
%TO.P,J13,2,Pin_2*%
%TO.N,Net-(J13-Pin_2)*%
X135763000Y-128522000D03*
D23*
%TO.P,J13,1,Pin_1*%
%TO.N,Net-(J13-Pin_1)*%
X138763000Y-128522000D03*
%TD*%
D25*
%TO.P,U2,1,IN*%
%TO.N,Net-(U2-IN)*%
X132427000Y-111808500D03*
D26*
%TO.P,U2,2,GND*%
%TO.N,GND*%
X134967000Y-111808500D03*
%TO.P,U2,3,OUT*%
%TO.N,+5V*%
X137507000Y-111808500D03*
%TD*%
D27*
%TO.P,U1,3,VI*%
%TO.N,+5V*%
X138024000Y-95998000D03*
%TO.P,U1,2,VO*%
%TO.N,+3V3*%
X138024000Y-98298000D03*
D28*
X131724000Y-98298000D03*
D27*
%TO.P,U1,1,GND*%
%TO.N,GND*%
X138024000Y-100598000D03*
%TD*%
D29*
%TO.P,MISO,1,1*%
%TO.N,/Display/SDO*%
X106426000Y-121158000D03*
%TD*%
%TO.P,MOSI,1,1*%
%TO.N,/Display/SDI*%
X109474000Y-121158000D03*
%TD*%
%TO.P,SCK,1,1*%
%TO.N,/Display/SCLK*%
X103378000Y-121158000D03*
%TD*%
%TO.P,~{CS},1,1*%
%TO.N,/Display/{slash}CS*%
X112524000Y-121158000D03*
%TD*%
%TO.P,~{RST},1,1*%
%TO.N,/Display/{slash}RESET*%
X115570000Y-121158000D03*
%TD*%
%TO.P,VGND,1,1*%
%TO.N,Net-(J14-Pin_1)*%
X125730000Y-68834000D03*
%TD*%
%TO.P,VPWR,1,1*%
%TO.N,+12V*%
X129032000Y-72390000D03*
%TD*%
%TO.P,PPWR,1,1*%
%TO.N,+12V*%
X140462000Y-116205000D03*
%TD*%
%TO.P,PGND,1,1*%
%TO.N,Net-(J13-Pin_1)*%
X136144000Y-115951000D03*
%TD*%
%TO.P,PCTRL,1,1*%
%TO.N,/MCU/PumpControl*%
X130937000Y-116078000D03*
%TD*%
%TO.P,VCTRL,1,1*%
%TO.N,/MCU/ValveControl*%
X132207000Y-68707000D03*
%TD*%
%TO.P,5V,1,1*%
%TO.N,+5V*%
X140970000Y-103759000D03*
%TD*%
%TO.P,GND,1,1*%
%TO.N,GND*%
X128524000Y-103124000D03*
%TD*%
%TO.P,3V3,1,1*%
%TO.N,+3V3*%
X125476000Y-103124000D03*
%TD*%
D30*
%TO.P,L1,2,2*%
%TO.N,Net-(U2-IN)*%
X132969000Y-118110000D03*
%TO.P,L1,1,1*%
%TO.N,+12V*%
X132969000Y-124510000D03*
%TD*%
D24*
%TO.P,J7,1,Pin_1*%
%TO.N,Net-(J7-Pin_1)*%
X104545000Y-64676000D03*
D22*
%TO.P,J7,2,Pin_2*%
%TO.N,/IO/Button5*%
X107545000Y-64676000D03*
%TD*%
%TO.P,J6,2,Pin_2*%
%TO.N,/IO/Button4*%
X118340000Y-64676000D03*
D24*
%TO.P,J6,1,Pin_1*%
%TO.N,Net-(J6-Pin_1)*%
X115340000Y-64676000D03*
%TD*%
D31*
%TO.P,D4,1,K*%
%TO.N,GND*%
X129921000Y-93331000D03*
%TO.P,D4,2,A*%
%TO.N,Net-(D4-A)*%
X129921000Y-91581000D03*
%TD*%
%TO.P,D3,1,K*%
%TO.N,GND*%
X132969000Y-93077000D03*
%TO.P,D3,2,A*%
%TO.N,Net-(D3-A)*%
X132969000Y-91327000D03*
%TD*%
%TO.P,D2,2,A*%
%TO.N,Net-(D2-A)*%
X136144000Y-91454000D03*
%TO.P,D2,1,K*%
%TO.N,GND*%
X136144000Y-93204000D03*
%TD*%
%TO.P,D1,1,K*%
%TO.N,GND*%
X139319000Y-93077000D03*
%TO.P,D1,2,A*%
%TO.N,Net-(D1-A)*%
X139319000Y-91327000D03*
%TD*%
D32*
%TO.N,/MCU/SWCLK*%
X126111000Y-88646000D03*
%TO.N,Net-(D1-A)*%
X139319000Y-90551000D03*
%TO.N,Net-(D4-A)*%
X129921000Y-90805000D03*
%TO.N,Net-(D3-A)*%
X132969000Y-90678000D03*
%TO.N,Net-(D2-A)*%
X136144000Y-90678000D03*
%TO.N,GND*%
X113792000Y-96647000D03*
%TO.N,/IO/LED1*%
X126873000Y-98044000D03*
%TO.N,/IO/LED2*%
X127660288Y-96914000D03*
%TO.N,/IO/LED3*%
X126746000Y-96139000D03*
%TO.N,/IO/LED4*%
X126604649Y-95149543D03*
%TO.N,GND*%
X138557000Y-102489000D03*
%TO.N,+12V*%
X133604000Y-124460000D03*
D33*
X126619000Y-135128000D03*
X140970000Y-125603000D03*
D32*
%TO.N,GND*%
X137668000Y-93218000D03*
X131445000Y-93472000D03*
%TO.N,/MCU/RESET*%
X115824000Y-85598000D03*
X123190000Y-88392000D03*
D34*
%TO.N,GND*%
X140462000Y-77724000D03*
D32*
%TO.N,/MCU/ExtraConn_1_1*%
X127000000Y-93726000D03*
%TO.N,/MCU/ExtraConn_1_2*%
X122936000Y-90424000D03*
%TO.N,+3V3*%
X130810000Y-86106000D03*
X127508000Y-91186000D03*
%TO.N,+5V*%
X137160000Y-96520000D03*
%TO.N,+3V3*%
X138684000Y-98298000D03*
X133858000Y-97028000D03*
%TO.N,/MCU/PumpControl*%
X126746000Y-99822000D03*
%TO.N,/MCU/ValveControl*%
X128524000Y-96266000D03*
%TO.N,/IO/Button1*%
X118110000Y-99314000D03*
%TO.N,/IO/Button2*%
X114808000Y-99568000D03*
%TO.N,/IO/Button3*%
X119634000Y-94488000D03*
%TO.N,/MCU/ExtraConn_2_2*%
X118110000Y-94234000D03*
%TO.N,/MCU/ExtraConn_2_1*%
X116586000Y-92456000D03*
%TO.N,GND*%
X110744000Y-93218000D03*
%TO.N,/MCU/RESET*%
X114046000Y-93218000D03*
%TO.N,+3V3*%
X111760000Y-94996000D03*
X119811250Y-95504000D03*
X111760000Y-103632000D03*
X122047000Y-107061000D03*
X102616000Y-103632000D03*
X103632000Y-76708000D03*
X113284000Y-71778500D03*
X108712000Y-69088000D03*
%TD*%
D35*
%TO.N,+5V*%
X140970000Y-108345500D02*
X137507000Y-111808500D01*
X140970000Y-103759000D02*
X140970000Y-108345500D01*
%TO.N,/MCU/PumpControl*%
X124330000Y-116078000D02*
X130937000Y-116078000D01*
X119244000Y-121164000D02*
X124330000Y-116078000D01*
%TO.N,Net-(J13-Pin_1)*%
X136144000Y-117435000D02*
X131660000Y-121919000D01*
X131660000Y-121919000D02*
X127219000Y-121919000D01*
X136144000Y-115951000D02*
X136144000Y-117435000D01*
%TO.N,/IO/Button4*%
X114559000Y-70110356D02*
X114559000Y-67686000D01*
X114424000Y-70245356D02*
X114559000Y-70110356D01*
X114559000Y-67686000D02*
X117569000Y-64676000D01*
X114424000Y-79777000D02*
X114424000Y-70245356D01*
X117569000Y-64676000D02*
X118340000Y-64676000D01*
X119593000Y-84946000D02*
X114424000Y-79777000D01*
X119593000Y-92339000D02*
X119593000Y-84946000D01*
%TO.N,/MCU/SWCLK*%
X126111000Y-89821000D02*
X123593000Y-92339000D01*
X126111000Y-88646000D02*
X127127000Y-87630000D01*
X127127000Y-87630000D02*
X127127000Y-86868000D01*
X126111000Y-88646000D02*
X126111000Y-89821000D01*
%TO.N,Net-(D4-A)*%
X129921000Y-90805000D02*
X129921000Y-91581000D01*
%TO.N,GND*%
X114059000Y-96914000D02*
X116618000Y-96914000D01*
X113792000Y-96647000D02*
X114059000Y-96914000D01*
%TO.N,/Display/SDI*%
X110060999Y-124714000D02*
X110284000Y-124714000D01*
X109474000Y-124127001D02*
X110060999Y-124714000D01*
X109474000Y-121158000D02*
X109474000Y-124127001D01*
%TO.N,/Display/SDO*%
X106426000Y-124079000D02*
X107061000Y-124714000D01*
X107061000Y-124714000D02*
X107284001Y-124714000D01*
X106426000Y-121158000D02*
X106426000Y-124079000D01*
%TO.N,/Display/SCLK*%
X104061001Y-124714000D02*
X104284002Y-124714000D01*
X103378000Y-124030999D02*
X104061001Y-124714000D01*
X103378000Y-121158000D02*
X103378000Y-124030999D01*
%TO.N,/Display/{slash}CS*%
X101284003Y-127451498D02*
X101284003Y-127713999D01*
X102751501Y-125984000D02*
X101284003Y-127451498D01*
X110548422Y-125984000D02*
X102751501Y-125984000D01*
X112524000Y-124008422D02*
X110548422Y-125984000D01*
X112524000Y-121158000D02*
X112524000Y-124008422D01*
%TO.N,/Display/{slash}RESET*%
X114554000Y-121158000D02*
X114808000Y-121158000D01*
X112974000Y-122738000D02*
X114554000Y-121158000D01*
X110734818Y-126434000D02*
X112974000Y-124194818D01*
X112974000Y-124194818D02*
X112974000Y-122738000D01*
X105437002Y-126434000D02*
X110734818Y-126434000D01*
X104284002Y-127587000D02*
X105437002Y-126434000D01*
X104284002Y-127713999D02*
X104284002Y-127587000D01*
%TO.N,/MCU/ExtraConn_1_1*%
X126212000Y-94514000D02*
X124968000Y-94514000D01*
X127000000Y-93726000D02*
X126212000Y-94514000D01*
%TO.N,/IO/LED2*%
X127660288Y-96914000D02*
X124968000Y-96914000D01*
%TO.N,/MCU/ValveControl*%
X125554396Y-98514000D02*
X124968000Y-98514000D01*
X125904396Y-98864000D02*
X125554396Y-98514000D01*
X127136305Y-99187000D02*
X126813305Y-98864000D01*
X126813305Y-98864000D02*
X125904396Y-98864000D01*
X127635000Y-99187000D02*
X127136305Y-99187000D01*
X128524000Y-98298000D02*
X127635000Y-99187000D01*
X128524000Y-96266000D02*
X128524000Y-98298000D01*
%TO.N,GND*%
X136144000Y-93204000D02*
X133096000Y-93204000D01*
X133096000Y-93204000D02*
X132969000Y-93077000D01*
%TO.N,/IO/LED4*%
X125132457Y-95149543D02*
X124968000Y-95314000D01*
X126604649Y-95149543D02*
X125132457Y-95149543D01*
%TO.N,/IO/LED3*%
X124993000Y-96139000D02*
X124968000Y-96114000D01*
X126746000Y-96139000D02*
X124993000Y-96139000D01*
%TO.N,/IO/LED1*%
X125193000Y-97939000D02*
X124968000Y-97714000D01*
X126768000Y-97939000D02*
X125193000Y-97939000D01*
X126873000Y-98044000D02*
X126768000Y-97939000D01*
%TO.N,GND*%
X138024000Y-101956000D02*
X138024000Y-100598000D01*
X138557000Y-102489000D02*
X138024000Y-101956000D01*
D36*
%TO.N,Net-(J14-Pin_1)*%
X133048000Y-64676000D02*
X132032000Y-64676000D01*
X136650000Y-68278000D02*
X133048000Y-64676000D01*
D35*
%TO.N,Net-(J13-Pin_1)*%
X127762000Y-125512000D02*
X127219000Y-124969000D01*
D37*
X129030000Y-128522000D02*
X127762000Y-127254000D01*
X127762000Y-127254000D02*
X127762000Y-125512000D01*
X132763000Y-128522000D02*
X129030000Y-128522000D01*
D35*
%TO.N,GND*%
X119047000Y-125921000D02*
X119244000Y-125724000D01*
D37*
X119047000Y-128491000D02*
X119047000Y-125921000D01*
D35*
%TO.N,Net-(U2-IN)*%
X132427000Y-117568000D02*
X132969000Y-118110000D01*
X132427000Y-111808500D02*
X132427000Y-117568000D01*
%TO.N,GND*%
X137630500Y-93180500D02*
X137668000Y-93218000D01*
X136144000Y-93180500D02*
X137630500Y-93180500D01*
X137832500Y-93053500D02*
X137668000Y-93218000D01*
X139319000Y-93053500D02*
X137832500Y-93053500D01*
X131280500Y-93307500D02*
X131445000Y-93472000D01*
X129921000Y-93307500D02*
X131280500Y-93307500D01*
X131736500Y-93180500D02*
X131445000Y-93472000D01*
X132969000Y-93180500D02*
X131736500Y-93180500D01*
%TO.N,/MCU/ExtraConn_1_2*%
X122936000Y-92196000D02*
X122793000Y-92339000D01*
X122936000Y-90424000D02*
X122936000Y-92196000D01*
%TO.N,/MCU/RESET*%
X115824000Y-85598000D02*
X114810101Y-85598000D01*
X114810101Y-85598000D02*
X114518001Y-85305900D01*
X123317000Y-88265000D02*
X123190000Y-88392000D01*
X123317000Y-86868000D02*
X123317000Y-88265000D01*
%TO.N,/IO/Button6*%
X104188000Y-73759356D02*
X104188000Y-73207000D01*
X113130644Y-82702000D02*
X104188000Y-73759356D01*
X113967356Y-82702000D02*
X113130644Y-82702000D01*
X117993000Y-86727644D02*
X113967356Y-82702000D01*
X117993000Y-92339000D02*
X117993000Y-86727644D01*
%TO.N,/IO/Button5*%
X109437000Y-76151644D02*
X109437000Y-66568000D01*
X118793000Y-85507644D02*
X109437000Y-76151644D01*
X118793000Y-92339000D02*
X118793000Y-85507644D01*
X109437000Y-66568000D02*
X107545000Y-64676000D01*
%TO.N,/MCU/ExtraConn_4_3*%
X120393000Y-80515000D02*
X118570000Y-78692000D01*
X118570000Y-78692000D02*
X115509000Y-78692000D01*
X120393000Y-92339000D02*
X120393000Y-80515000D01*
%TO.N,/MCU/ExtraConn_4_2*%
X117872604Y-75692000D02*
X115509000Y-75692000D01*
X121193000Y-79012396D02*
X117872604Y-75692000D01*
X121193000Y-92339000D02*
X121193000Y-79012396D01*
%TO.N,/MCU/ExtraConn_4_1*%
X121993000Y-92339000D02*
X121993000Y-79176000D01*
X121993000Y-79176000D02*
X115509000Y-72692000D01*
%TO.N,/MCU/ValveControl*%
X132207000Y-72565000D02*
X132207000Y-68707000D01*
X135895000Y-76253000D02*
X132207000Y-72565000D01*
%TO.N,/MCU/SWDIO*%
X128397000Y-88171396D02*
X128397000Y-86868000D01*
X124968000Y-91600396D02*
X128397000Y-88171396D01*
X124968000Y-93714000D02*
X124968000Y-91600396D01*
%TO.N,/MCU/PumpControl*%
X126238000Y-99314000D02*
X126746000Y-99822000D01*
X124968000Y-99314000D02*
X126238000Y-99314000D01*
%TO.N,/Display/{slash}RESET*%
X123593000Y-102987097D02*
X123593000Y-100689000D01*
X120972097Y-105608000D02*
X123593000Y-102987097D01*
X118938422Y-105608000D02*
X120972097Y-105608000D01*
X112590422Y-111956000D02*
X118938422Y-105608000D01*
X109296356Y-119184000D02*
X108286356Y-118174000D01*
X111716727Y-119184000D02*
X109296356Y-119184000D01*
X108286356Y-118174000D02*
X108286356Y-113827618D01*
X108286356Y-113827618D02*
X110157974Y-111956000D01*
X110157974Y-111956000D02*
X112590422Y-111956000D01*
X113349000Y-120816273D02*
X111716727Y-119184000D01*
X113349000Y-121158000D02*
X113349000Y-120816273D01*
X114808000Y-121158000D02*
X113349000Y-121158000D01*
X114808000Y-121158000D02*
X115570000Y-121158000D01*
%TO.N,/Display/{slash}CS*%
X111000000Y-119634000D02*
X112524000Y-121158000D01*
X116319578Y-105158000D02*
X107326000Y-114151578D01*
X107326000Y-118373604D02*
X108586396Y-119634000D01*
X108586396Y-119634000D02*
X111000000Y-119634000D01*
X120785701Y-105158000D02*
X116319578Y-105158000D01*
X122793000Y-103150701D02*
X120785701Y-105158000D01*
X122793000Y-100689000D02*
X122793000Y-103150701D01*
X107326000Y-114151578D02*
X107326000Y-118373604D01*
%TO.N,/Display/SDI*%
X106876000Y-113877148D02*
X106876000Y-118560000D01*
X116045148Y-104708000D02*
X106876000Y-113877148D01*
X120599305Y-104708000D02*
X116045148Y-104708000D01*
X106876000Y-118560000D02*
X109474000Y-121158000D01*
X121993000Y-100689000D02*
X121993000Y-103314305D01*
X121993000Y-103314305D02*
X120599305Y-104708000D01*
%TO.N,/Display/SDO*%
X118374396Y-104258000D02*
X115858752Y-104258000D01*
X115858752Y-104258000D02*
X106426000Y-113690752D01*
X106426000Y-113690752D02*
X106426000Y-121158000D01*
X121193000Y-100689000D02*
X121193000Y-101439396D01*
X121193000Y-101439396D02*
X118374396Y-104258000D01*
%TO.N,/Display/SCLK*%
X120393000Y-101603000D02*
X120393000Y-100689000D01*
X115672356Y-103808000D02*
X118188000Y-103808000D01*
X110599356Y-108881000D02*
X115672356Y-103808000D01*
X118188000Y-103808000D02*
X120393000Y-101603000D01*
X110575000Y-108881000D02*
X110599356Y-108881000D01*
X103378000Y-116078000D02*
X110575000Y-108881000D01*
X103378000Y-121158000D02*
X103378000Y-116078000D01*
%TO.N,/MCU/ExtraConn_3_2*%
X118793000Y-101804604D02*
X118793000Y-100689000D01*
X118489604Y-102108000D02*
X118793000Y-101804604D01*
X104344604Y-95552000D02*
X110900604Y-102108000D01*
X110900604Y-102108000D02*
X118489604Y-102108000D01*
X101981000Y-95552000D02*
X104344604Y-95552000D01*
%TO.N,/MCU/ExtraConn_3_3*%
X106708208Y-98552000D02*
X101981000Y-98552000D01*
X110714208Y-102558000D02*
X106708208Y-98552000D01*
X118676000Y-102558000D02*
X110714208Y-102558000D01*
X119593000Y-101641000D02*
X118676000Y-102558000D01*
X119593000Y-100689000D02*
X119593000Y-101641000D01*
%TO.N,/MCU/ExtraConn_3_1*%
X110118000Y-100689000D02*
X117993000Y-100689000D01*
X101981000Y-92552000D02*
X110118000Y-100689000D01*
%TO.N,/IO/Button1*%
X118110000Y-99314000D02*
X117310000Y-98514000D01*
X117310000Y-98514000D02*
X116618000Y-98514000D01*
%TO.N,/IO/Button2*%
X116618000Y-99314000D02*
X115062000Y-99314000D01*
X115062000Y-99314000D02*
X114808000Y-99568000D01*
%TO.N,/IO/Button3*%
X119634000Y-94655945D02*
X119634000Y-94488000D01*
X118975945Y-95314000D02*
X119634000Y-94655945D01*
X116618000Y-95314000D02*
X118975945Y-95314000D01*
%TO.N,/MCU/ExtraConn_2_1*%
X116618000Y-92488000D02*
X116586000Y-92456000D01*
X116618000Y-93714000D02*
X116618000Y-92488000D01*
%TO.N,/MCU/ExtraConn_2_2*%
X117830000Y-94514000D02*
X118110000Y-94234000D01*
X116618000Y-94514000D02*
X117830000Y-94514000D01*
%TO.N,+3V3*%
X119201250Y-96114000D02*
X119811250Y-95504000D01*
X116618000Y-96114000D02*
X119201250Y-96114000D01*
%TO.N,GND*%
X110017999Y-93002100D02*
X110017999Y-85305900D01*
%TO.N,/MCU/RESET*%
X114518001Y-85305900D02*
X114518001Y-93002100D01*
X114046000Y-93218000D02*
X114518001Y-93002100D01*
X114518001Y-94269999D02*
X114046000Y-93218000D01*
X112522000Y-95494695D02*
X113491695Y-94525000D01*
X113491695Y-94525000D02*
X114263000Y-94525000D01*
X112522000Y-97028000D02*
X112522000Y-95494695D01*
X114263000Y-94525000D02*
X114518001Y-94269999D01*
X113208000Y-97714000D02*
X112522000Y-97028000D01*
X116618000Y-97714000D02*
X113208000Y-97714000D01*
%TD*%
%TA.AperFunction,Conductor*%
%TO.N,+12V*%
G36*
X140209737Y-55118598D02*
G01*
X140237721Y-55120169D01*
X140323677Y-55124996D01*
X140525266Y-55137190D01*
X140531856Y-55137948D01*
X140677609Y-55162712D01*
X140845948Y-55193562D01*
X140851932Y-55194969D01*
X141000022Y-55237633D01*
X141157920Y-55286836D01*
X141163174Y-55288740D01*
X141308048Y-55348749D01*
X141456862Y-55415724D01*
X141461409Y-55417999D01*
X141599979Y-55494584D01*
X141738817Y-55578515D01*
X141742604Y-55580998D01*
X141871306Y-55672317D01*
X141873637Y-55674056D01*
X141999931Y-55773001D01*
X142003008Y-55775577D01*
X142120874Y-55880907D01*
X142123401Y-55883297D01*
X142236701Y-55996597D01*
X142239091Y-55999124D01*
X142344421Y-56116990D01*
X142346997Y-56120067D01*
X142445942Y-56246361D01*
X142447692Y-56248707D01*
X142538989Y-56377377D01*
X142541483Y-56381181D01*
X142625415Y-56520020D01*
X142701999Y-56658589D01*
X142704274Y-56663136D01*
X142771250Y-56811951D01*
X142831258Y-56956824D01*
X142833171Y-56962108D01*
X142882376Y-57120009D01*
X142925028Y-57268063D01*
X142926436Y-57274054D01*
X142957296Y-57442444D01*
X142982047Y-57588117D01*
X142982811Y-57594764D01*
X142995013Y-57796494D01*
X143001402Y-57910263D01*
X143001500Y-57913741D01*
X143001500Y-136015120D01*
X143001387Y-136018865D01*
X142995515Y-136115930D01*
X142983680Y-136296480D01*
X142982796Y-136303606D01*
X142959542Y-136430506D01*
X142929949Y-136579279D01*
X142928332Y-136585632D01*
X142888153Y-136714572D01*
X142841149Y-136853041D01*
X142838976Y-136858560D01*
X142782464Y-136984129D01*
X142718670Y-137113487D01*
X142716122Y-137118142D01*
X142644870Y-137236008D01*
X142643363Y-137238379D01*
X142564442Y-137356491D01*
X142561696Y-137360283D01*
X142476415Y-137469136D01*
X142474223Y-137471779D01*
X142380859Y-137578240D01*
X142378085Y-137581202D01*
X142280202Y-137679085D01*
X142277240Y-137681859D01*
X142170779Y-137775223D01*
X142168136Y-137777415D01*
X142059283Y-137862696D01*
X142055491Y-137865442D01*
X141937379Y-137944363D01*
X141935008Y-137945870D01*
X141817142Y-138017122D01*
X141812487Y-138019670D01*
X141683129Y-138083464D01*
X141557560Y-138139976D01*
X141552041Y-138142149D01*
X141413572Y-138189153D01*
X141284632Y-138229332D01*
X141278279Y-138230949D01*
X141129506Y-138260542D01*
X141002606Y-138283796D01*
X140995480Y-138284680D01*
X140814930Y-138296515D01*
X140717866Y-138302387D01*
X140714121Y-138302500D01*
X119758000Y-138302500D01*
X119690961Y-138282815D01*
X119645206Y-138230011D01*
X119634000Y-138178500D01*
X119634000Y-132942187D01*
X120296500Y-132942187D01*
X120301173Y-132973187D01*
X120335604Y-133201615D01*
X120335605Y-133201617D01*
X120335606Y-133201623D01*
X120412938Y-133452326D01*
X120526767Y-133688696D01*
X120526768Y-133688697D01*
X120526770Y-133688700D01*
X120526772Y-133688704D01*
X120674567Y-133905478D01*
X120674567Y-133905479D01*
X120853014Y-134097801D01*
X120853018Y-134097804D01*
X120853019Y-134097805D01*
X121058143Y-134261386D01*
X121285357Y-134392568D01*
X121529584Y-134488420D01*
X121785370Y-134546802D01*
X121785376Y-134546802D01*
X121785379Y-134546803D01*
X121981500Y-134561500D01*
X121981506Y-134561500D01*
X122112500Y-134561500D01*
X122308620Y-134546803D01*
X122308622Y-134546802D01*
X122308630Y-134546802D01*
X122564416Y-134488420D01*
X122808643Y-134392568D01*
X123035857Y-134261386D01*
X123240981Y-134097805D01*
X123419433Y-133905479D01*
X123567228Y-133688704D01*
X123681063Y-133452323D01*
X123758396Y-133201615D01*
X123792827Y-132973187D01*
X134012500Y-132973187D01*
X134032794Y-133107823D01*
X134051604Y-133232615D01*
X134051605Y-133232617D01*
X134051606Y-133232623D01*
X134128938Y-133483326D01*
X134242767Y-133719696D01*
X134242768Y-133719697D01*
X134242770Y-133719700D01*
X134242772Y-133719704D01*
X134369432Y-133905479D01*
X134390567Y-133936479D01*
X134569014Y-134128801D01*
X134569018Y-134128804D01*
X134569019Y-134128805D01*
X134774143Y-134292386D01*
X135001357Y-134423568D01*
X135245584Y-134519420D01*
X135501370Y-134577802D01*
X135501376Y-134577802D01*
X135501379Y-134577803D01*
X135697500Y-134592500D01*
X135697506Y-134592500D01*
X135828500Y-134592500D01*
X136024620Y-134577803D01*
X136024622Y-134577802D01*
X136024630Y-134577802D01*
X136280416Y-134519420D01*
X136524643Y-134423568D01*
X136751857Y-134292386D01*
X136956981Y-134128805D01*
X136985749Y-134097801D01*
X136996945Y-134085733D01*
X137135433Y-133936479D01*
X137283228Y-133719704D01*
X137397063Y-133483323D01*
X137474396Y-133232615D01*
X137513500Y-132973182D01*
X137513500Y-132710818D01*
X137474396Y-132451385D01*
X137397063Y-132200677D01*
X137382132Y-132169673D01*
X137283232Y-131964303D01*
X137283231Y-131964302D01*
X137283230Y-131964301D01*
X137283228Y-131964296D01*
X137135433Y-131747521D01*
X137106668Y-131716520D01*
X136956985Y-131555198D01*
X136917533Y-131523736D01*
X136751857Y-131391614D01*
X136524643Y-131260432D01*
X136280416Y-131164580D01*
X136280411Y-131164578D01*
X136280402Y-131164576D01*
X136062818Y-131114914D01*
X136024630Y-131106198D01*
X136024629Y-131106197D01*
X136024625Y-131106197D01*
X136024620Y-131106196D01*
X135828500Y-131091500D01*
X135828494Y-131091500D01*
X135697506Y-131091500D01*
X135697500Y-131091500D01*
X135501379Y-131106196D01*
X135501374Y-131106197D01*
X135245597Y-131164576D01*
X135245578Y-131164582D01*
X135001356Y-131260432D01*
X134774143Y-131391614D01*
X134569014Y-131555198D01*
X134390567Y-131747520D01*
X134242768Y-131964302D01*
X134242767Y-131964303D01*
X134128938Y-132200673D01*
X134051606Y-132451376D01*
X134051605Y-132451381D01*
X134051604Y-132451385D01*
X134036853Y-132549247D01*
X134012500Y-132710812D01*
X134012500Y-132973187D01*
X123792827Y-132973187D01*
X123797500Y-132942182D01*
X123797500Y-132679818D01*
X123758396Y-132420385D01*
X123681063Y-132169677D01*
X123669121Y-132144880D01*
X123567232Y-131933303D01*
X123567231Y-131933302D01*
X123567230Y-131933301D01*
X123567228Y-131933296D01*
X123419433Y-131716521D01*
X123409441Y-131705753D01*
X123240985Y-131524198D01*
X123201533Y-131492736D01*
X123035857Y-131360614D01*
X122808643Y-131229432D01*
X122564416Y-131133580D01*
X122564411Y-131133578D01*
X122564402Y-131133576D01*
X122346818Y-131083914D01*
X122308630Y-131075198D01*
X122308629Y-131075197D01*
X122308625Y-131075197D01*
X122308620Y-131075196D01*
X122112500Y-131060500D01*
X122112494Y-131060500D01*
X121981506Y-131060500D01*
X121981500Y-131060500D01*
X121785379Y-131075196D01*
X121785374Y-131075197D01*
X121529597Y-131133576D01*
X121529578Y-131133582D01*
X121285356Y-131229432D01*
X121058143Y-131360614D01*
X120853014Y-131524198D01*
X120674567Y-131716520D01*
X120526768Y-131933302D01*
X120526767Y-131933303D01*
X120412938Y-132169673D01*
X120335606Y-132420376D01*
X120335605Y-132420381D01*
X120335604Y-132420385D01*
X120320853Y-132518247D01*
X120296500Y-132679812D01*
X120296500Y-132942187D01*
X119634000Y-132942187D01*
X119634000Y-129953354D01*
X119653685Y-129886315D01*
X119698983Y-129844299D01*
X119700070Y-129843711D01*
X119870509Y-129751474D01*
X120066744Y-129598738D01*
X120235164Y-129415785D01*
X120371173Y-129207607D01*
X120471063Y-128979881D01*
X120532108Y-128738821D01*
X120547500Y-128553067D01*
X120547500Y-126733230D01*
X120567185Y-126666191D01*
X120583819Y-126645549D01*
X120621901Y-126607467D01*
X120686712Y-126542656D01*
X120778814Y-126393334D01*
X120833999Y-126226797D01*
X120844500Y-126124009D01*
X120844499Y-125323992D01*
X120842849Y-125307844D01*
X120833999Y-125221203D01*
X120833998Y-125221200D01*
X120778814Y-125054666D01*
X120686712Y-124905344D01*
X120562656Y-124781288D01*
X120413334Y-124689186D01*
X120246797Y-124634001D01*
X120246795Y-124634000D01*
X120144016Y-124623500D01*
X120144009Y-124623500D01*
X119833492Y-124623500D01*
X119774474Y-124608554D01*
X119698982Y-124567699D01*
X119649391Y-124518480D01*
X119634000Y-124458645D01*
X119634000Y-122388499D01*
X119653685Y-122321460D01*
X119706489Y-122275705D01*
X119757999Y-122264499D01*
X120144008Y-122264499D01*
X120246797Y-122253999D01*
X120413334Y-122198814D01*
X120562656Y-122106712D01*
X120686712Y-121982656D01*
X120778814Y-121833334D01*
X120833999Y-121666797D01*
X120844500Y-121564009D01*
X120844499Y-120763992D01*
X120833999Y-120661203D01*
X120807628Y-120581620D01*
X120805226Y-120511792D01*
X120837651Y-120454937D01*
X122424803Y-118867786D01*
X122486122Y-118834304D01*
X122510727Y-118831482D01*
X131242755Y-118708496D01*
X131310064Y-118727235D01*
X131356558Y-118779389D01*
X131368500Y-118832482D01*
X131368500Y-118907869D01*
X131368501Y-118907876D01*
X131374908Y-118967483D01*
X131425202Y-119102328D01*
X131425206Y-119102335D01*
X131511452Y-119217544D01*
X131511455Y-119217547D01*
X131626664Y-119303793D01*
X131626671Y-119303797D01*
X131761517Y-119354091D01*
X131761516Y-119354091D01*
X131768444Y-119354835D01*
X131821127Y-119360500D01*
X133034547Y-119360499D01*
X133101586Y-119380184D01*
X133147341Y-119432987D01*
X133157285Y-119502146D01*
X133128260Y-119565702D01*
X133122228Y-119572180D01*
X131437228Y-121257181D01*
X131375905Y-121290666D01*
X131349547Y-121293500D01*
X129368500Y-121293500D01*
X129301461Y-121273815D01*
X129255706Y-121221011D01*
X129244500Y-121169500D01*
X129244500Y-120743993D01*
X129244499Y-120743980D01*
X129233999Y-120641200D01*
X129178815Y-120474664D01*
X129178811Y-120474658D01*
X129178810Y-120474655D01*
X129086714Y-120325346D01*
X129086711Y-120325342D01*
X128962657Y-120201288D01*
X128962653Y-120201285D01*
X128813344Y-120109189D01*
X128813338Y-120109186D01*
X128813336Y-120109185D01*
X128707157Y-120074001D01*
X128646801Y-120054001D01*
X128544019Y-120043500D01*
X128544012Y-120043500D01*
X122543988Y-120043500D01*
X122543980Y-120043500D01*
X122441198Y-120054001D01*
X122274666Y-120109184D01*
X122274655Y-120109189D01*
X122125346Y-120201285D01*
X122125342Y-120201288D01*
X122001288Y-120325342D01*
X122001285Y-120325346D01*
X121909189Y-120474655D01*
X121909184Y-120474666D01*
X121854001Y-120641198D01*
X121843500Y-120743980D01*
X121843500Y-126144019D01*
X121854001Y-126246801D01*
X121909184Y-126413333D01*
X121909189Y-126413344D01*
X122001285Y-126562653D01*
X122001288Y-126562657D01*
X122125342Y-126686711D01*
X122125346Y-126686714D01*
X122236305Y-126755155D01*
X122283030Y-126807103D01*
X122294251Y-126876065D01*
X122266408Y-126940147D01*
X122208339Y-126979003D01*
X122165645Y-126984568D01*
X121990674Y-126976710D01*
X121990673Y-126976710D01*
X121990670Y-126976710D01*
X121767613Y-127006925D01*
X121767610Y-127006925D01*
X121767609Y-127006926D01*
X121553534Y-127076483D01*
X121355321Y-127183146D01*
X121355318Y-127183148D01*
X121179336Y-127323489D01*
X121108186Y-127404927D01*
X121031235Y-127493004D01*
X120980331Y-127578203D01*
X120915787Y-127686232D01*
X120915786Y-127686234D01*
X120836692Y-127896976D01*
X120796500Y-128118450D01*
X120796500Y-128807151D01*
X120811622Y-128975189D01*
X120871503Y-129192160D01*
X120871508Y-129192173D01*
X120969167Y-129394966D01*
X120969171Y-129394974D01*
X121101473Y-129577072D01*
X121101474Y-129577074D01*
X121264176Y-129732633D01*
X121452033Y-129856636D01*
X121659004Y-129945100D01*
X121659007Y-129945101D01*
X121659012Y-129945103D01*
X121878463Y-129995191D01*
X122103330Y-130005290D01*
X122326387Y-129975075D01*
X122540464Y-129905517D01*
X122738681Y-129798852D01*
X122914666Y-129658508D01*
X123062765Y-129488996D01*
X123178215Y-129295764D01*
X123257307Y-129085024D01*
X123292406Y-128891616D01*
X123297500Y-128863549D01*
X123297500Y-128174852D01*
X123297500Y-128174845D01*
X123282377Y-128006812D01*
X123272385Y-127970607D01*
X123222496Y-127789839D01*
X123222491Y-127789826D01*
X123124832Y-127587033D01*
X123124828Y-127587025D01*
X122992526Y-127404927D01*
X122992525Y-127404925D01*
X122829823Y-127249366D01*
X122641966Y-127125363D01*
X122541732Y-127082521D01*
X122487824Y-127038073D01*
X122466504Y-126971535D01*
X122484542Y-126904034D01*
X122536210Y-126857000D01*
X122590467Y-126844500D01*
X124117413Y-126844500D01*
X124184452Y-126864185D01*
X124230207Y-126916989D01*
X124240151Y-126986147D01*
X124211126Y-127049703D01*
X124182510Y-127074038D01*
X124078348Y-127138286D01*
X124078344Y-127138289D01*
X123954289Y-127262344D01*
X123954286Y-127262348D01*
X123862187Y-127411662D01*
X123862186Y-127411664D01*
X123807001Y-127578203D01*
X123807000Y-127578204D01*
X123796500Y-127680984D01*
X123796500Y-129301015D01*
X123807000Y-129403795D01*
X123807001Y-129403797D01*
X123834593Y-129487065D01*
X123862186Y-129570335D01*
X123862187Y-129570337D01*
X123954286Y-129719651D01*
X123954289Y-129719655D01*
X124078344Y-129843710D01*
X124078348Y-129843713D01*
X124227662Y-129935812D01*
X124227664Y-129935813D01*
X124227666Y-129935814D01*
X124394203Y-129990999D01*
X124496992Y-130001500D01*
X124496997Y-130001500D01*
X125597003Y-130001500D01*
X125597008Y-130001500D01*
X125699797Y-129990999D01*
X125866334Y-129935814D01*
X126015655Y-129843711D01*
X126139711Y-129719655D01*
X126231814Y-129570334D01*
X126286999Y-129403797D01*
X126297500Y-129301008D01*
X126297500Y-128177916D01*
X126317185Y-128110877D01*
X126369989Y-128065122D01*
X126439147Y-128055178D01*
X126502703Y-128084203D01*
X126528020Y-128114439D01*
X126536634Y-128128894D01*
X126554296Y-128149747D01*
X126558887Y-128155904D01*
X126573836Y-128178785D01*
X126573837Y-128178786D01*
X126637033Y-128247435D01*
X126657100Y-128271129D01*
X126679049Y-128293078D01*
X126742257Y-128361739D01*
X126763822Y-128378524D01*
X126769587Y-128383615D01*
X127900384Y-129514412D01*
X127905473Y-129520174D01*
X127922262Y-129541744D01*
X127922264Y-129541746D01*
X127922265Y-129541747D01*
X127990921Y-129604950D01*
X128012866Y-129626894D01*
X128012874Y-129626902D01*
X128036564Y-129646966D01*
X128105215Y-129710164D01*
X128105217Y-129710165D01*
X128105218Y-129710166D01*
X128128086Y-129725106D01*
X128134250Y-129729702D01*
X128155106Y-129747366D01*
X128199037Y-129773543D01*
X128235275Y-129795137D01*
X128288413Y-129829853D01*
X128313393Y-129846173D01*
X128337246Y-129856636D01*
X128338418Y-129857150D01*
X128345248Y-129860665D01*
X128368727Y-129874656D01*
X128455667Y-129908580D01*
X128541119Y-129946063D01*
X128567623Y-129952774D01*
X128574920Y-129955112D01*
X128600386Y-129965050D01*
X128691725Y-129984202D01*
X128782179Y-130007108D01*
X128782183Y-130007108D01*
X128782187Y-130007109D01*
X128809406Y-130009364D01*
X128817016Y-130010473D01*
X128829727Y-130013138D01*
X128843763Y-130016081D01*
X128937009Y-130019937D01*
X128967933Y-130022500D01*
X128967934Y-130022500D01*
X128998965Y-130022500D01*
X129092221Y-130026357D01*
X129119347Y-130022975D01*
X129127019Y-130022500D01*
X132564321Y-130022500D01*
X132591911Y-130025608D01*
X132594463Y-130026191D01*
X132819330Y-130036290D01*
X133042387Y-130006075D01*
X133137534Y-129975159D01*
X133141470Y-129974023D01*
X133251881Y-129946063D01*
X133275251Y-129935812D01*
X133479607Y-129846173D01*
X133687785Y-129710164D01*
X133870738Y-129541744D01*
X134023474Y-129345509D01*
X134141828Y-129126810D01*
X134222571Y-128891614D01*
X134231492Y-128838155D01*
X134512500Y-128838155D01*
X134517113Y-128889416D01*
X134527622Y-129006186D01*
X134527623Y-129006192D01*
X134587503Y-129223160D01*
X134587508Y-129223173D01*
X134685167Y-129425966D01*
X134685171Y-129425974D01*
X134817473Y-129608072D01*
X134817474Y-129608074D01*
X134817477Y-129608077D01*
X134817478Y-129608078D01*
X134858152Y-129646966D01*
X134980176Y-129763633D01*
X135168033Y-129887636D01*
X135375004Y-129976100D01*
X135375007Y-129976101D01*
X135375012Y-129976103D01*
X135594463Y-130026191D01*
X135819330Y-130036290D01*
X136042387Y-130006075D01*
X136256464Y-129936517D01*
X136454681Y-129829852D01*
X136630666Y-129689508D01*
X136778765Y-129519996D01*
X136891078Y-129332015D01*
X137512500Y-129332015D01*
X137523000Y-129434795D01*
X137523001Y-129434796D01*
X137578186Y-129601335D01*
X137578187Y-129601337D01*
X137670286Y-129750651D01*
X137670289Y-129750655D01*
X137794344Y-129874710D01*
X137794348Y-129874713D01*
X137943662Y-129966812D01*
X137943664Y-129966813D01*
X137943666Y-129966814D01*
X138110203Y-130021999D01*
X138212992Y-130032500D01*
X138212997Y-130032500D01*
X139313003Y-130032500D01*
X139313008Y-130032500D01*
X139415797Y-130021999D01*
X139582334Y-129966814D01*
X139731655Y-129874711D01*
X139855711Y-129750655D01*
X139947814Y-129601334D01*
X140002999Y-129434797D01*
X140013500Y-129332008D01*
X140013500Y-127711992D01*
X140002999Y-127609203D01*
X139947814Y-127442666D01*
X139943657Y-127435927D01*
X139855713Y-127293348D01*
X139855710Y-127293344D01*
X139731655Y-127169289D01*
X139731651Y-127169286D01*
X139582337Y-127077187D01*
X139582335Y-127077186D01*
X139460750Y-127036897D01*
X139415797Y-127022001D01*
X139415795Y-127022000D01*
X139313015Y-127011500D01*
X139313008Y-127011500D01*
X138212992Y-127011500D01*
X138212984Y-127011500D01*
X138110204Y-127022000D01*
X138110203Y-127022001D01*
X137943664Y-127077186D01*
X137943662Y-127077187D01*
X137794348Y-127169286D01*
X137794344Y-127169289D01*
X137670289Y-127293344D01*
X137670286Y-127293348D01*
X137578187Y-127442662D01*
X137578186Y-127442664D01*
X137523001Y-127609203D01*
X137523000Y-127609204D01*
X137512500Y-127711984D01*
X137512500Y-129332015D01*
X136891078Y-129332015D01*
X136894215Y-129326764D01*
X136973307Y-129116024D01*
X137013500Y-128894547D01*
X137013500Y-128205845D01*
X136998377Y-128037812D01*
X136989822Y-128006813D01*
X136938496Y-127820839D01*
X136938491Y-127820826D01*
X136840832Y-127618033D01*
X136840828Y-127618025D01*
X136708526Y-127435927D01*
X136708525Y-127435925D01*
X136545823Y-127280366D01*
X136357966Y-127156363D01*
X136150995Y-127067899D01*
X136150982Y-127067895D01*
X135931542Y-127017810D01*
X135931538Y-127017809D01*
X135931537Y-127017809D01*
X135931536Y-127017808D01*
X135931531Y-127017808D01*
X135706674Y-127007710D01*
X135706673Y-127007710D01*
X135706670Y-127007710D01*
X135483613Y-127037925D01*
X135483610Y-127037925D01*
X135483609Y-127037926D01*
X135269534Y-127107483D01*
X135071321Y-127214146D01*
X135071318Y-127214148D01*
X134895336Y-127354489D01*
X134824186Y-127435927D01*
X134747235Y-127524004D01*
X134696331Y-127609203D01*
X134631787Y-127717232D01*
X134631786Y-127717234D01*
X134552692Y-127927976D01*
X134512500Y-128149450D01*
X134512500Y-128149452D01*
X134512500Y-128149453D01*
X134512500Y-128838155D01*
X134231492Y-128838155D01*
X134263500Y-128646335D01*
X134263500Y-128397665D01*
X134222571Y-128152386D01*
X134141828Y-127917190D01*
X134023474Y-127698491D01*
X133870738Y-127502256D01*
X133722991Y-127366245D01*
X133687782Y-127333833D01*
X133479606Y-127197826D01*
X133251882Y-127097937D01*
X133199890Y-127084771D01*
X133186150Y-127081291D01*
X133167860Y-127075108D01*
X133150995Y-127067900D01*
X133150988Y-127067897D01*
X133150981Y-127067895D01*
X133150977Y-127067894D01*
X132931542Y-127017810D01*
X132931538Y-127017809D01*
X132931537Y-127017809D01*
X132931536Y-127017808D01*
X132931531Y-127017808D01*
X132706673Y-127007710D01*
X132706672Y-127007710D01*
X132706671Y-127007710D01*
X132706670Y-127007710D01*
X132678691Y-127011500D01*
X132609013Y-127020938D01*
X132600681Y-127021500D01*
X129702890Y-127021500D01*
X129635851Y-127001815D01*
X129615209Y-126985181D01*
X129298818Y-126668790D01*
X129265333Y-126607467D01*
X129262499Y-126581109D01*
X129262500Y-125449935D01*
X129247108Y-125264179D01*
X129246264Y-125259118D01*
X129247056Y-125258985D01*
X129244500Y-125238422D01*
X129244500Y-124760000D01*
X131369000Y-124760000D01*
X131369000Y-125307844D01*
X131375401Y-125367372D01*
X131375403Y-125367379D01*
X131425645Y-125502086D01*
X131425649Y-125502093D01*
X131511809Y-125617187D01*
X131511812Y-125617190D01*
X131626906Y-125703350D01*
X131626913Y-125703354D01*
X131761620Y-125753596D01*
X131761627Y-125753598D01*
X131821155Y-125759999D01*
X131821172Y-125760000D01*
X132718999Y-125760000D01*
X132719000Y-124760000D01*
X133219000Y-124760000D01*
X133219000Y-125760000D01*
X134116828Y-125760000D01*
X134116844Y-125759999D01*
X134176372Y-125753598D01*
X134176379Y-125753596D01*
X134311086Y-125703354D01*
X134311093Y-125703350D01*
X134426187Y-125617190D01*
X134426190Y-125617187D01*
X134512350Y-125502093D01*
X134512354Y-125502086D01*
X134562596Y-125367379D01*
X134562598Y-125367372D01*
X134568999Y-125307844D01*
X134569000Y-125307827D01*
X134569000Y-124760000D01*
X133219000Y-124760000D01*
X132719000Y-124760000D01*
X131369000Y-124760000D01*
X129244500Y-124760000D01*
X129244500Y-124260000D01*
X131368999Y-124260000D01*
X132718999Y-124260000D01*
X132719000Y-123260000D01*
X133219000Y-123260000D01*
X133219000Y-124260000D01*
X134569000Y-124260000D01*
X134569000Y-123712172D01*
X134568999Y-123712155D01*
X134562598Y-123652627D01*
X134562596Y-123652620D01*
X134512354Y-123517913D01*
X134512350Y-123517906D01*
X134426190Y-123402812D01*
X134426187Y-123402809D01*
X134311093Y-123316649D01*
X134311086Y-123316645D01*
X134176379Y-123266403D01*
X134176372Y-123266401D01*
X134116844Y-123260000D01*
X133219000Y-123260000D01*
X132719000Y-123260000D01*
X131821155Y-123260000D01*
X131761627Y-123266401D01*
X131761620Y-123266403D01*
X131626913Y-123316645D01*
X131626906Y-123316649D01*
X131511812Y-123402809D01*
X131511809Y-123402812D01*
X131425649Y-123517906D01*
X131425645Y-123517913D01*
X131375403Y-123652620D01*
X131375401Y-123652627D01*
X131369000Y-123712155D01*
X131369000Y-123712172D01*
X131368999Y-124260000D01*
X129244500Y-124260000D01*
X129244500Y-122668500D01*
X129264185Y-122601461D01*
X129316989Y-122555706D01*
X129368500Y-122544500D01*
X131577257Y-122544500D01*
X131592877Y-122546224D01*
X131592904Y-122545939D01*
X131600660Y-122546671D01*
X131600667Y-122546673D01*
X131669814Y-122544500D01*
X131699350Y-122544500D01*
X131706228Y-122543630D01*
X131712041Y-122543172D01*
X131758627Y-122541709D01*
X131777869Y-122536117D01*
X131796912Y-122532174D01*
X131816792Y-122529664D01*
X131860122Y-122512507D01*
X131865646Y-122510617D01*
X131869396Y-122509527D01*
X131910390Y-122497618D01*
X131927629Y-122487422D01*
X131945103Y-122478862D01*
X131963727Y-122471488D01*
X131963727Y-122471487D01*
X131963732Y-122471486D01*
X132001449Y-122444082D01*
X132006305Y-122440892D01*
X132046420Y-122417170D01*
X132060589Y-122402999D01*
X132075379Y-122390368D01*
X132091587Y-122378594D01*
X132121290Y-122342687D01*
X132125212Y-122338376D01*
X134197253Y-120266335D01*
X138199500Y-120266335D01*
X138209347Y-120325346D01*
X138240429Y-120511616D01*
X138321169Y-120746802D01*
X138321172Y-120746811D01*
X138439524Y-120965506D01*
X138439526Y-120965509D01*
X138592262Y-121161744D01*
X138714004Y-121273815D01*
X138775217Y-121330166D01*
X138983393Y-121466173D01*
X139211118Y-121566063D01*
X139452175Y-121627107D01*
X139452179Y-121627108D01*
X139452181Y-121627108D01*
X139452186Y-121627109D01*
X139585376Y-121638145D01*
X139637933Y-121642500D01*
X139637935Y-121642500D01*
X139762065Y-121642500D01*
X139762067Y-121642500D01*
X139823284Y-121637427D01*
X139947813Y-121627109D01*
X139947816Y-121627108D01*
X139947821Y-121627108D01*
X140188881Y-121566063D01*
X140416607Y-121466173D01*
X140624785Y-121330164D01*
X140807738Y-121161744D01*
X140960474Y-120965509D01*
X141078828Y-120746810D01*
X141159571Y-120511614D01*
X141200500Y-120266335D01*
X141200500Y-120017665D01*
X141159571Y-119772386D01*
X141078828Y-119537190D01*
X140960474Y-119318491D01*
X140807738Y-119122256D01*
X140624785Y-118953836D01*
X140624782Y-118953833D01*
X140416606Y-118817826D01*
X140188881Y-118717936D01*
X139947824Y-118656892D01*
X139947813Y-118656890D01*
X139782548Y-118643197D01*
X139762067Y-118641500D01*
X139637933Y-118641500D01*
X139618521Y-118643108D01*
X139452186Y-118656890D01*
X139452175Y-118656892D01*
X139211118Y-118717936D01*
X138983393Y-118817826D01*
X138775217Y-118953833D01*
X138592261Y-119122257D01*
X138439524Y-119318493D01*
X138321172Y-119537188D01*
X138321169Y-119537197D01*
X138240429Y-119772383D01*
X138199500Y-120017664D01*
X138199500Y-120017665D01*
X138199500Y-120266335D01*
X134197253Y-120266335D01*
X135783959Y-118679629D01*
X135845278Y-118646147D01*
X135869885Y-118643325D01*
X137668000Y-118618000D01*
X137668000Y-116205000D01*
X139457161Y-116205000D01*
X139476468Y-116401030D01*
X139533652Y-116589538D01*
X139599922Y-116713522D01*
X140033306Y-116280138D01*
X140094629Y-116246653D01*
X140164320Y-116251637D01*
X140220254Y-116293508D01*
X140224089Y-116298929D01*
X140226504Y-116302544D01*
X140226505Y-116302545D01*
X140281760Y-116385240D01*
X140335226Y-116420965D01*
X140368069Y-116442910D01*
X140412874Y-116496522D01*
X140421581Y-116565847D01*
X140391426Y-116628875D01*
X140386859Y-116633693D01*
X139953476Y-117067076D01*
X140077466Y-117133350D01*
X140265969Y-117190531D01*
X140265965Y-117190531D01*
X140461999Y-117209838D01*
X140658032Y-117190531D01*
X140846537Y-117133348D01*
X140970522Y-117067076D01*
X140537140Y-116633692D01*
X140503655Y-116572369D01*
X140508639Y-116502677D01*
X140550511Y-116446744D01*
X140555931Y-116442908D01*
X140559541Y-116440495D01*
X140559545Y-116440495D01*
X140642240Y-116385240D01*
X140697495Y-116302545D01*
X140697495Y-116302541D01*
X140699909Y-116298930D01*
X140753521Y-116254124D01*
X140822846Y-116245417D01*
X140885874Y-116275571D01*
X140890693Y-116280139D01*
X141324077Y-116713523D01*
X141390348Y-116589539D01*
X141447531Y-116401032D01*
X141466838Y-116204999D01*
X141447531Y-116008967D01*
X141390350Y-115820466D01*
X141324076Y-115696476D01*
X140890692Y-116129859D01*
X140829369Y-116163343D01*
X140759677Y-116158359D01*
X140703744Y-116116487D01*
X140699909Y-116111068D01*
X140664182Y-116057599D01*
X140642240Y-116024760D01*
X140559545Y-115969505D01*
X140559544Y-115969504D01*
X140555929Y-115967089D01*
X140511124Y-115913477D01*
X140502417Y-115844152D01*
X140532571Y-115781124D01*
X140537139Y-115776306D01*
X140970522Y-115342922D01*
X140970522Y-115342921D01*
X140846538Y-115276652D01*
X140658030Y-115219468D01*
X140462000Y-115200161D01*
X140265969Y-115219468D01*
X140077461Y-115276652D01*
X139953476Y-115342922D01*
X140386860Y-115776306D01*
X140420345Y-115837629D01*
X140415361Y-115907320D01*
X140373490Y-115963254D01*
X140368070Y-115967089D01*
X140281760Y-116024760D01*
X140224090Y-116111069D01*
X140170478Y-116155874D01*
X140101153Y-116164581D01*
X140038125Y-116134426D01*
X140033307Y-116129859D01*
X139599923Y-115696475D01*
X139599922Y-115696476D01*
X139533652Y-115820461D01*
X139476468Y-116008969D01*
X139457161Y-116205000D01*
X137668000Y-116205000D01*
X137668000Y-113556946D01*
X137687685Y-113489907D01*
X137740489Y-113444152D01*
X137775350Y-113434069D01*
X137786387Y-113432575D01*
X138000464Y-113363017D01*
X138198681Y-113256352D01*
X138374666Y-113116008D01*
X138522765Y-112946496D01*
X138638215Y-112753264D01*
X138717307Y-112542524D01*
X138757500Y-112321047D01*
X138757500Y-111493950D01*
X138777185Y-111426912D01*
X138793814Y-111406275D01*
X141353786Y-108846302D01*
X141366048Y-108836480D01*
X141365865Y-108836259D01*
X141371867Y-108831292D01*
X141371877Y-108831286D01*
X141419241Y-108780848D01*
X141440120Y-108759970D01*
X141444373Y-108754486D01*
X141448150Y-108750063D01*
X141480062Y-108716082D01*
X141489714Y-108698523D01*
X141500389Y-108682272D01*
X141512674Y-108666436D01*
X141531186Y-108623652D01*
X141533742Y-108618435D01*
X141556197Y-108577592D01*
X141561180Y-108558180D01*
X141567477Y-108539791D01*
X141575438Y-108521395D01*
X141582729Y-108475353D01*
X141583908Y-108469662D01*
X141595500Y-108424519D01*
X141595500Y-108404482D01*
X141597027Y-108385082D01*
X141600160Y-108365304D01*
X141595775Y-108318915D01*
X141595500Y-108313077D01*
X141595500Y-104598602D01*
X141615185Y-104531563D01*
X141640837Y-104502748D01*
X141680882Y-104469884D01*
X141805909Y-104317539D01*
X141805913Y-104317532D01*
X141898811Y-104143733D01*
X141898811Y-104143732D01*
X141898814Y-104143727D01*
X141956024Y-103955132D01*
X141975341Y-103759000D01*
X141956024Y-103562868D01*
X141898814Y-103374273D01*
X141898811Y-103374269D01*
X141898811Y-103374266D01*
X141805913Y-103200467D01*
X141805909Y-103200460D01*
X141680883Y-103048116D01*
X141528539Y-102923090D01*
X141528532Y-102923086D01*
X141354733Y-102830188D01*
X141354727Y-102830186D01*
X141166132Y-102772976D01*
X141166129Y-102772975D01*
X140970000Y-102753659D01*
X140773870Y-102772975D01*
X140585266Y-102830188D01*
X140411467Y-102923086D01*
X140411460Y-102923090D01*
X140259116Y-103048116D01*
X140134090Y-103200460D01*
X140134086Y-103200467D01*
X140041188Y-103374266D01*
X139983975Y-103562870D01*
X139964659Y-103759000D01*
X139983975Y-103955129D01*
X140041188Y-104143733D01*
X140134086Y-104317532D01*
X140134090Y-104317539D01*
X140259117Y-104469884D01*
X140299163Y-104502748D01*
X140338499Y-104560493D01*
X140344500Y-104598602D01*
X140344500Y-108035046D01*
X140324815Y-108102085D01*
X140308181Y-108122727D01*
X138179536Y-110251371D01*
X138118213Y-110284856D01*
X138048521Y-110279872D01*
X138043120Y-110277711D01*
X137894995Y-110214399D01*
X137894984Y-110214396D01*
X137764407Y-110184592D01*
X137703429Y-110150483D01*
X137670571Y-110088821D01*
X137668000Y-110063701D01*
X137668000Y-103170472D01*
X137687685Y-103103433D01*
X137740489Y-103057678D01*
X137809647Y-103047734D01*
X137873203Y-103076759D01*
X137884146Y-103087496D01*
X137951129Y-103161888D01*
X138104265Y-103273148D01*
X138104270Y-103273151D01*
X138277192Y-103350142D01*
X138277197Y-103350144D01*
X138462354Y-103389500D01*
X138462355Y-103389500D01*
X138651644Y-103389500D01*
X138651646Y-103389500D01*
X138836803Y-103350144D01*
X139009730Y-103273151D01*
X139162871Y-103161888D01*
X139289533Y-103021216D01*
X139384179Y-102857284D01*
X139442674Y-102677256D01*
X139462460Y-102489000D01*
X139442674Y-102300744D01*
X139384179Y-102120716D01*
X139289533Y-101956784D01*
X139282287Y-101948737D01*
X139252057Y-101885747D01*
X139260680Y-101816412D01*
X139300123Y-101766498D01*
X139381546Y-101705546D01*
X139467796Y-101590331D01*
X139518091Y-101455483D01*
X139524500Y-101395873D01*
X139524499Y-99800128D01*
X139518091Y-99740517D01*
X139517706Y-99739486D01*
X139467797Y-99605671D01*
X139467796Y-99605669D01*
X139405393Y-99522310D01*
X139380977Y-99456847D01*
X139395828Y-99388574D01*
X139405394Y-99373689D01*
X139467796Y-99290331D01*
X139518091Y-99155483D01*
X139524500Y-99095873D01*
X139524499Y-98644926D01*
X139530568Y-98606608D01*
X139569674Y-98486256D01*
X139589460Y-98298000D01*
X139569674Y-98109744D01*
X139530568Y-97989389D01*
X139524499Y-97951071D01*
X139524499Y-97500129D01*
X139524498Y-97500123D01*
X139518091Y-97440516D01*
X139467797Y-97305671D01*
X139467796Y-97305669D01*
X139405394Y-97222311D01*
X139380977Y-97156847D01*
X139395828Y-97088574D01*
X139405394Y-97073689D01*
X139421469Y-97052216D01*
X139467796Y-96990331D01*
X139518091Y-96855483D01*
X139524500Y-96795873D01*
X139524499Y-95200128D01*
X139518091Y-95140517D01*
X139516300Y-95135716D01*
X139467797Y-95005671D01*
X139467793Y-95005664D01*
X139381547Y-94890455D01*
X139381544Y-94890452D01*
X139266335Y-94804206D01*
X139266328Y-94804202D01*
X139131482Y-94753908D01*
X139131483Y-94753908D01*
X139071883Y-94747501D01*
X139071881Y-94747500D01*
X139071873Y-94747500D01*
X139071865Y-94747500D01*
X137792000Y-94747500D01*
X137724961Y-94727815D01*
X137679206Y-94675011D01*
X137668000Y-94623500D01*
X137668000Y-94239030D01*
X137687685Y-94171991D01*
X137740489Y-94126236D01*
X137766217Y-94117740D01*
X137947803Y-94079144D01*
X138120730Y-94002151D01*
X138273871Y-93890888D01*
X138323993Y-93835221D01*
X138383478Y-93798574D01*
X138453335Y-93799903D01*
X138503823Y-93830513D01*
X138620650Y-93947340D01*
X138767484Y-94037908D01*
X138931247Y-94092174D01*
X139032323Y-94102500D01*
X139605676Y-94102499D01*
X139605684Y-94102498D01*
X139605687Y-94102498D01*
X139686097Y-94094284D01*
X139706753Y-94092174D01*
X139870516Y-94037908D01*
X140017350Y-93947340D01*
X140139340Y-93825350D01*
X140229908Y-93678516D01*
X140284174Y-93514753D01*
X140294500Y-93413677D01*
X140294499Y-92740324D01*
X140284174Y-92639247D01*
X140229908Y-92475484D01*
X140139340Y-92328650D01*
X140128190Y-92317500D01*
X140100370Y-92289679D01*
X140066885Y-92228356D01*
X140071871Y-92158664D01*
X140100370Y-92114319D01*
X140139340Y-92075350D01*
X140229908Y-91928516D01*
X140284174Y-91764753D01*
X140294500Y-91663677D01*
X140294499Y-90990324D01*
X140284174Y-90889247D01*
X140229908Y-90725484D01*
X140229906Y-90725480D01*
X140226854Y-90718935D01*
X140228904Y-90717978D01*
X140213346Y-90661164D01*
X140214002Y-90650496D01*
X140224460Y-90551000D01*
X140204674Y-90362744D01*
X140146179Y-90182716D01*
X140051533Y-90018784D01*
X139924871Y-89878112D01*
X139924870Y-89878111D01*
X139771734Y-89766851D01*
X139771729Y-89766848D01*
X139598807Y-89689857D01*
X139598802Y-89689855D01*
X139453001Y-89658865D01*
X139413646Y-89650500D01*
X139224354Y-89650500D01*
X139191897Y-89657398D01*
X139039197Y-89689855D01*
X139039192Y-89689857D01*
X138866270Y-89766848D01*
X138866265Y-89766851D01*
X138713129Y-89878111D01*
X138586466Y-90018785D01*
X138491821Y-90182715D01*
X138491818Y-90182722D01*
X138433327Y-90362740D01*
X138433326Y-90362744D01*
X138419978Y-90489744D01*
X138413540Y-90551000D01*
X138423994Y-90650474D01*
X138411424Y-90719204D01*
X138408983Y-90723571D01*
X138408094Y-90725478D01*
X138408092Y-90725483D01*
X138408092Y-90725484D01*
X138353826Y-90889247D01*
X138353826Y-90889248D01*
X138353825Y-90889248D01*
X138343500Y-90990315D01*
X138343500Y-91663669D01*
X138343501Y-91663687D01*
X138353825Y-91764752D01*
X138362416Y-91790676D01*
X138408092Y-91928516D01*
X138498660Y-92075350D01*
X138537629Y-92114319D01*
X138571114Y-92175640D01*
X138566130Y-92245331D01*
X138537630Y-92289679D01*
X138498659Y-92328650D01*
X138473713Y-92369096D01*
X138421766Y-92415821D01*
X138368174Y-92428000D01*
X138133950Y-92428000D01*
X138083514Y-92417279D01*
X137947807Y-92356857D01*
X137947802Y-92356855D01*
X137766219Y-92318259D01*
X137704737Y-92285067D01*
X137670961Y-92223904D01*
X137668000Y-92196969D01*
X137668000Y-83312000D01*
X122742500Y-83312000D01*
X122675461Y-83292315D01*
X122629706Y-83239511D01*
X122618500Y-83188000D01*
X122618500Y-80727069D01*
X122884500Y-80727069D01*
X122923199Y-80909141D01*
X122923201Y-80909147D01*
X122998910Y-81079188D01*
X122998909Y-81079188D01*
X122998910Y-81079189D01*
X123108320Y-81229779D01*
X123108321Y-81229780D01*
X123108322Y-81229781D01*
X123108324Y-81229784D01*
X123192469Y-81305547D01*
X123246649Y-81354331D01*
X123407851Y-81447401D01*
X123407853Y-81447401D01*
X123407856Y-81447403D01*
X123496365Y-81476161D01*
X123584880Y-81504921D01*
X123723589Y-81519500D01*
X123723594Y-81519500D01*
X123816406Y-81519500D01*
X123816411Y-81519500D01*
X123955120Y-81504921D01*
X124132149Y-81447401D01*
X124293351Y-81354331D01*
X124401709Y-81256764D01*
X124431675Y-81229784D01*
X124431675Y-81229782D01*
X124431680Y-81229779D01*
X124541090Y-81079189D01*
X124616800Y-80909142D01*
X124655500Y-80727070D01*
X124655500Y-80727069D01*
X131884500Y-80727069D01*
X131923199Y-80909141D01*
X131923201Y-80909147D01*
X131998910Y-81079188D01*
X131998909Y-81079188D01*
X131998910Y-81079189D01*
X132108320Y-81229779D01*
X132108321Y-81229780D01*
X132108322Y-81229781D01*
X132108324Y-81229784D01*
X132192469Y-81305547D01*
X132246649Y-81354331D01*
X132407851Y-81447401D01*
X132407853Y-81447401D01*
X132407856Y-81447403D01*
X132496365Y-81476161D01*
X132584880Y-81504921D01*
X132723589Y-81519500D01*
X132723594Y-81519500D01*
X132816406Y-81519500D01*
X132816411Y-81519500D01*
X132955120Y-81504921D01*
X133132149Y-81447401D01*
X133293351Y-81354331D01*
X133401709Y-81256764D01*
X133431675Y-81229784D01*
X133431675Y-81229782D01*
X133431680Y-81229779D01*
X133541090Y-81079189D01*
X133616800Y-80909142D01*
X133655500Y-80727070D01*
X133655500Y-80540930D01*
X133616800Y-80358858D01*
X133616798Y-80358852D01*
X133586386Y-80290547D01*
X133541090Y-80188811D01*
X133431680Y-80038221D01*
X133431677Y-80038218D01*
X133431675Y-80038215D01*
X133341536Y-79957055D01*
X133293351Y-79913669D01*
X133132149Y-79820599D01*
X133132143Y-79820596D01*
X132955124Y-79763080D01*
X132955122Y-79763079D01*
X132915488Y-79758913D01*
X132816411Y-79748500D01*
X132723589Y-79748500D01*
X132636895Y-79757611D01*
X132584877Y-79763079D01*
X132584875Y-79763080D01*
X132407856Y-79820596D01*
X132407850Y-79820599D01*
X132246650Y-79913668D01*
X132108324Y-80038215D01*
X132108322Y-80038218D01*
X131998909Y-80188811D01*
X131923201Y-80358852D01*
X131923199Y-80358858D01*
X131884500Y-80540930D01*
X131884500Y-80727069D01*
X124655500Y-80727069D01*
X124655500Y-80540930D01*
X124616800Y-80358858D01*
X124616798Y-80358852D01*
X124586386Y-80290547D01*
X124541090Y-80188811D01*
X124431680Y-80038221D01*
X124431677Y-80038218D01*
X124431675Y-80038215D01*
X124341536Y-79957055D01*
X124293351Y-79913669D01*
X124132149Y-79820599D01*
X124132143Y-79820596D01*
X123955124Y-79763080D01*
X123955122Y-79763079D01*
X123915488Y-79758913D01*
X123816411Y-79748500D01*
X123723589Y-79748500D01*
X123636895Y-79757611D01*
X123584877Y-79763079D01*
X123584875Y-79763080D01*
X123407856Y-79820596D01*
X123407850Y-79820599D01*
X123246650Y-79913668D01*
X123108324Y-80038215D01*
X123108322Y-80038218D01*
X122998909Y-80188811D01*
X122923201Y-80358852D01*
X122923199Y-80358858D01*
X122884500Y-80540930D01*
X122884500Y-80727069D01*
X122618500Y-80727069D01*
X122618500Y-79258742D01*
X122620224Y-79243122D01*
X122619939Y-79243095D01*
X122620673Y-79235333D01*
X122618500Y-79166172D01*
X122618500Y-79136656D01*
X122618500Y-79136650D01*
X122617631Y-79129779D01*
X122617173Y-79123952D01*
X122616633Y-79106755D01*
X122615710Y-79077373D01*
X122610119Y-79058130D01*
X122606173Y-79039078D01*
X122603664Y-79019208D01*
X122586504Y-78975867D01*
X122584624Y-78970379D01*
X122571618Y-78925610D01*
X122561422Y-78908370D01*
X122552861Y-78890894D01*
X122545487Y-78872270D01*
X122545486Y-78872268D01*
X122518079Y-78834545D01*
X122514888Y-78829686D01*
X122491172Y-78789583D01*
X122491165Y-78789574D01*
X122477006Y-78775415D01*
X122464367Y-78760617D01*
X122451680Y-78743154D01*
X122428202Y-78677347D01*
X122428106Y-78674001D01*
X125504685Y-78674001D01*
X125523907Y-78893714D01*
X125523909Y-78893724D01*
X125580990Y-79106755D01*
X125580995Y-79106769D01*
X125674203Y-79306654D01*
X125674207Y-79306662D01*
X125800712Y-79487330D01*
X125956669Y-79643287D01*
X126137337Y-79769792D01*
X126137339Y-79769793D01*
X126137342Y-79769795D01*
X126183990Y-79791547D01*
X126337230Y-79863004D01*
X126337232Y-79863004D01*
X126337237Y-79863007D01*
X126550280Y-79920092D01*
X126707222Y-79933822D01*
X126769998Y-79939315D01*
X126770000Y-79939315D01*
X126770002Y-79939315D01*
X126825059Y-79934498D01*
X126989720Y-79920092D01*
X127202763Y-79863007D01*
X127402658Y-79769795D01*
X127583329Y-79643288D01*
X127739288Y-79487329D01*
X127743110Y-79481870D01*
X128509500Y-79481870D01*
X128509501Y-79481876D01*
X128515908Y-79541483D01*
X128566202Y-79676328D01*
X128566206Y-79676335D01*
X128652452Y-79791544D01*
X128652455Y-79791547D01*
X128767664Y-79877793D01*
X128767671Y-79877797D01*
X128902517Y-79928091D01*
X128902516Y-79928091D01*
X128909444Y-79928835D01*
X128962127Y-79934500D01*
X130577872Y-79934499D01*
X130637483Y-79928091D01*
X130772331Y-79877796D01*
X130887546Y-79791546D01*
X130973796Y-79676331D01*
X131024091Y-79541483D01*
X131030500Y-79481873D01*
X131030499Y-77866128D01*
X131024091Y-77806517D01*
X131017115Y-77787814D01*
X130973797Y-77671671D01*
X130973793Y-77671664D01*
X130887547Y-77556455D01*
X130887544Y-77556452D01*
X130772335Y-77470206D01*
X130772328Y-77470202D01*
X130637482Y-77419908D01*
X130637483Y-77419908D01*
X130577883Y-77413501D01*
X130577881Y-77413500D01*
X130577873Y-77413500D01*
X130577864Y-77413500D01*
X128962129Y-77413500D01*
X128962123Y-77413501D01*
X128902516Y-77419908D01*
X128767671Y-77470202D01*
X128767664Y-77470206D01*
X128652455Y-77556452D01*
X128652452Y-77556455D01*
X128566206Y-77671664D01*
X128566202Y-77671671D01*
X128515908Y-77806517D01*
X128509501Y-77866116D01*
X128509501Y-77866123D01*
X128509500Y-77866135D01*
X128509500Y-79481870D01*
X127743110Y-79481870D01*
X127865795Y-79306658D01*
X127959007Y-79106763D01*
X128016092Y-78893720D01*
X128035315Y-78674000D01*
X128016092Y-78454280D01*
X127959007Y-78241237D01*
X127865795Y-78041343D01*
X127739288Y-77860671D01*
X127739286Y-77860668D01*
X127583330Y-77704712D01*
X127402662Y-77578207D01*
X127402654Y-77578203D01*
X127202769Y-77484995D01*
X127202755Y-77484990D01*
X126989724Y-77427909D01*
X126989722Y-77427908D01*
X126989720Y-77427908D01*
X126989718Y-77427907D01*
X126989714Y-77427907D01*
X126770002Y-77408685D01*
X126769998Y-77408685D01*
X126550285Y-77427907D01*
X126550275Y-77427909D01*
X126337244Y-77484990D01*
X126337235Y-77484994D01*
X126137344Y-77578204D01*
X126137342Y-77578205D01*
X125956668Y-77704713D01*
X125800713Y-77860668D01*
X125674205Y-78041342D01*
X125674204Y-78041344D01*
X125580994Y-78241235D01*
X125580990Y-78241244D01*
X125523909Y-78454275D01*
X125523907Y-78454285D01*
X125504685Y-78673998D01*
X125504685Y-78674001D01*
X122428106Y-78674001D01*
X122428000Y-78670271D01*
X122428000Y-72389999D01*
X128027161Y-72389999D01*
X128046468Y-72586030D01*
X128103652Y-72774538D01*
X128169922Y-72898522D01*
X128603306Y-72465139D01*
X128664629Y-72431654D01*
X128734321Y-72436638D01*
X128790254Y-72478510D01*
X128794089Y-72483929D01*
X128796504Y-72487544D01*
X128796505Y-72487545D01*
X128851760Y-72570240D01*
X128917446Y-72614130D01*
X128938069Y-72627910D01*
X128982874Y-72681522D01*
X128991581Y-72750847D01*
X128961426Y-72813875D01*
X128956859Y-72818693D01*
X128523476Y-73252076D01*
X128647466Y-73318350D01*
X128835969Y-73375531D01*
X128835965Y-73375531D01*
X129031999Y-73394838D01*
X129228032Y-73375531D01*
X129416537Y-73318348D01*
X129540522Y-73252076D01*
X129107140Y-72818692D01*
X129073655Y-72757369D01*
X129078639Y-72687677D01*
X129120511Y-72631744D01*
X129125931Y-72627908D01*
X129129541Y-72625495D01*
X129129545Y-72625495D01*
X129212240Y-72570240D01*
X129267495Y-72487545D01*
X129267495Y-72487541D01*
X129269908Y-72483931D01*
X129323520Y-72439126D01*
X129392845Y-72430418D01*
X129455873Y-72460572D01*
X129460692Y-72465140D01*
X129894076Y-72898522D01*
X129960348Y-72774537D01*
X130017531Y-72586032D01*
X130036838Y-72390000D01*
X130017531Y-72193967D01*
X129960350Y-72005466D01*
X129894076Y-71881476D01*
X129460693Y-72314859D01*
X129399370Y-72348344D01*
X129329678Y-72343360D01*
X129273745Y-72301488D01*
X129269910Y-72296069D01*
X129220338Y-72221880D01*
X129212240Y-72209760D01*
X129129545Y-72154505D01*
X129129544Y-72154504D01*
X129125929Y-72152089D01*
X129081123Y-72098477D01*
X129072416Y-72029152D01*
X129102570Y-71966125D01*
X129107138Y-71961306D01*
X129540522Y-71527922D01*
X129540522Y-71527921D01*
X129416538Y-71461652D01*
X129228030Y-71404468D01*
X129032000Y-71385161D01*
X128835969Y-71404468D01*
X128647461Y-71461652D01*
X128523476Y-71527922D01*
X128523475Y-71527923D01*
X128956859Y-71961307D01*
X128990344Y-72022630D01*
X128985360Y-72092322D01*
X128943488Y-72148255D01*
X128938069Y-72152090D01*
X128851760Y-72209760D01*
X128794089Y-72296070D01*
X128740476Y-72340875D01*
X128671151Y-72349582D01*
X128608124Y-72319427D01*
X128603306Y-72314860D01*
X128169922Y-71881476D01*
X128103652Y-72005461D01*
X128046468Y-72193969D01*
X128027161Y-72389999D01*
X122428000Y-72389999D01*
X122428000Y-68834000D01*
X124724659Y-68834000D01*
X124743975Y-69030129D01*
X124801188Y-69218733D01*
X124894086Y-69392532D01*
X124894090Y-69392539D01*
X125019116Y-69544883D01*
X125171460Y-69669909D01*
X125171467Y-69669913D01*
X125345266Y-69762811D01*
X125345269Y-69762811D01*
X125345273Y-69762814D01*
X125533868Y-69820024D01*
X125730000Y-69839341D01*
X125926132Y-69820024D01*
X126114727Y-69762814D01*
X126288538Y-69669910D01*
X126440883Y-69544883D01*
X126565910Y-69392538D01*
X126612361Y-69305632D01*
X126658811Y-69218733D01*
X126658811Y-69218732D01*
X126658814Y-69218727D01*
X126716024Y-69030132D01*
X126735341Y-68834000D01*
X126722833Y-68707000D01*
X131201659Y-68707000D01*
X131220975Y-68903129D01*
X131278188Y-69091733D01*
X131371086Y-69265532D01*
X131371090Y-69265539D01*
X131496117Y-69417884D01*
X131536163Y-69450748D01*
X131575499Y-69508493D01*
X131581500Y-69546602D01*
X131581500Y-72482255D01*
X131579775Y-72497872D01*
X131580061Y-72497899D01*
X131579326Y-72505665D01*
X131581500Y-72574814D01*
X131581500Y-72604343D01*
X131581501Y-72604360D01*
X131582368Y-72611231D01*
X131582826Y-72617050D01*
X131584290Y-72663624D01*
X131584291Y-72663627D01*
X131589880Y-72682867D01*
X131593824Y-72701911D01*
X131596336Y-72721792D01*
X131610422Y-72757369D01*
X131613490Y-72765119D01*
X131615382Y-72770647D01*
X131627941Y-72813875D01*
X131628382Y-72815390D01*
X131630335Y-72818693D01*
X131638580Y-72832634D01*
X131647138Y-72850103D01*
X131654514Y-72868732D01*
X131681898Y-72906423D01*
X131685106Y-72911307D01*
X131708827Y-72951416D01*
X131708833Y-72951424D01*
X131722990Y-72965580D01*
X131735628Y-72980376D01*
X131747405Y-72996586D01*
X131747406Y-72996587D01*
X131783309Y-73026288D01*
X131787620Y-73030210D01*
X133409910Y-74652500D01*
X134758181Y-76000771D01*
X134791666Y-76062094D01*
X134794500Y-76088452D01*
X134794500Y-77153001D01*
X134794501Y-77153018D01*
X134805000Y-77255796D01*
X134805001Y-77255799D01*
X134860185Y-77422331D01*
X134860187Y-77422336D01*
X134893395Y-77476175D01*
X134952288Y-77571656D01*
X135076344Y-77695712D01*
X135225666Y-77787814D01*
X135392203Y-77842999D01*
X135494991Y-77853500D01*
X136295008Y-77853499D01*
X136295016Y-77853498D01*
X136295019Y-77853498D01*
X136351302Y-77847748D01*
X136397797Y-77842999D01*
X136564334Y-77787814D01*
X136667785Y-77724005D01*
X138956357Y-77724005D01*
X138976890Y-77971812D01*
X138976892Y-77971824D01*
X139037936Y-78212881D01*
X139137826Y-78440606D01*
X139273833Y-78648782D01*
X139273836Y-78648785D01*
X139442256Y-78831738D01*
X139638491Y-78984474D01*
X139857190Y-79102828D01*
X140092386Y-79183571D01*
X140337665Y-79224500D01*
X140586335Y-79224500D01*
X140831614Y-79183571D01*
X141066810Y-79102828D01*
X141285509Y-78984474D01*
X141481744Y-78831738D01*
X141650164Y-78648785D01*
X141786173Y-78440607D01*
X141886063Y-78212881D01*
X141947108Y-77971821D01*
X141947109Y-77971812D01*
X141967643Y-77724005D01*
X141967643Y-77723994D01*
X141947109Y-77476187D01*
X141947107Y-77476175D01*
X141886063Y-77235118D01*
X141786173Y-77007393D01*
X141650166Y-76799217D01*
X141588269Y-76731979D01*
X141557347Y-76669324D01*
X141555499Y-76647996D01*
X141555499Y-75352998D01*
X141555498Y-75352981D01*
X141544999Y-75250203D01*
X141544998Y-75250200D01*
X141489814Y-75083666D01*
X141397712Y-74934344D01*
X141273656Y-74810288D01*
X141124334Y-74718186D01*
X140957797Y-74663001D01*
X140957795Y-74663000D01*
X140855010Y-74652500D01*
X140054998Y-74652500D01*
X140054980Y-74652501D01*
X139952203Y-74663000D01*
X139952200Y-74663001D01*
X139785668Y-74718185D01*
X139785663Y-74718187D01*
X139636342Y-74810289D01*
X139512289Y-74934342D01*
X139420187Y-75083663D01*
X139420185Y-75083666D01*
X139420186Y-75083666D01*
X139365001Y-75250203D01*
X139365001Y-75250204D01*
X139365000Y-75250204D01*
X139354500Y-75352983D01*
X139354500Y-76663205D01*
X139334815Y-76730244D01*
X139321733Y-76747183D01*
X139283693Y-76788506D01*
X139273834Y-76799217D01*
X139137826Y-77007393D01*
X139037936Y-77235118D01*
X138976892Y-77476175D01*
X138976890Y-77476187D01*
X138956357Y-77723994D01*
X138956357Y-77724005D01*
X136667785Y-77724005D01*
X136713656Y-77695712D01*
X136837712Y-77571656D01*
X136929814Y-77422334D01*
X136984999Y-77255797D01*
X136995500Y-77153009D01*
X136995499Y-75352992D01*
X136984999Y-75250203D01*
X136929814Y-75083666D01*
X136837712Y-74934344D01*
X136713656Y-74810288D01*
X136564334Y-74718186D01*
X136397797Y-74663001D01*
X136397795Y-74663000D01*
X136295010Y-74652500D01*
X135494998Y-74652500D01*
X135494980Y-74652501D01*
X135392203Y-74663000D01*
X135392196Y-74663002D01*
X135312620Y-74689371D01*
X135242792Y-74691772D01*
X135185936Y-74659346D01*
X132868819Y-72342228D01*
X132835334Y-72280905D01*
X132832500Y-72254547D01*
X132832500Y-69546602D01*
X132852185Y-69479563D01*
X132877837Y-69450748D01*
X132917882Y-69417884D01*
X133042909Y-69265539D01*
X133042913Y-69265532D01*
X133135811Y-69091733D01*
X133135811Y-69091732D01*
X133135814Y-69091727D01*
X133193024Y-68903132D01*
X133212341Y-68707000D01*
X133193024Y-68510868D01*
X133135814Y-68322273D01*
X133135811Y-68322269D01*
X133135811Y-68322266D01*
X133042913Y-68148467D01*
X133042909Y-68148460D01*
X132917883Y-67996116D01*
X132765539Y-67871090D01*
X132765532Y-67871086D01*
X132591733Y-67778188D01*
X132591727Y-67778186D01*
X132403132Y-67720976D01*
X132403129Y-67720975D01*
X132207000Y-67701659D01*
X132010870Y-67720975D01*
X131822266Y-67778188D01*
X131648467Y-67871086D01*
X131648460Y-67871090D01*
X131496116Y-67996116D01*
X131371090Y-68148460D01*
X131371086Y-68148467D01*
X131278188Y-68322266D01*
X131220975Y-68510870D01*
X131201659Y-68707000D01*
X126722833Y-68707000D01*
X126716024Y-68637868D01*
X126658814Y-68449273D01*
X126658811Y-68449269D01*
X126658811Y-68449266D01*
X126565913Y-68275467D01*
X126565909Y-68275460D01*
X126440883Y-68123116D01*
X126288539Y-67998090D01*
X126288532Y-67998086D01*
X126114733Y-67905188D01*
X126114727Y-67905186D01*
X125926132Y-67847976D01*
X125926129Y-67847975D01*
X125730000Y-67828659D01*
X125533870Y-67847975D01*
X125345266Y-67905188D01*
X125171467Y-67998086D01*
X125171460Y-67998090D01*
X125019116Y-68123116D01*
X124894090Y-68275460D01*
X124894086Y-68275467D01*
X124801188Y-68449266D01*
X124743975Y-68637870D01*
X124724659Y-68834000D01*
X122428000Y-68834000D01*
X122428000Y-65486015D01*
X124781500Y-65486015D01*
X124792000Y-65588795D01*
X124792001Y-65588796D01*
X124847186Y-65755335D01*
X124847187Y-65755337D01*
X124939286Y-65904651D01*
X124939289Y-65904655D01*
X125063344Y-66028710D01*
X125063348Y-66028713D01*
X125212662Y-66120812D01*
X125212664Y-66120813D01*
X125212666Y-66120814D01*
X125379203Y-66175999D01*
X125481992Y-66186500D01*
X125481997Y-66186500D01*
X126582003Y-66186500D01*
X126582008Y-66186500D01*
X126684797Y-66175999D01*
X126851334Y-66120814D01*
X127000655Y-66028711D01*
X127124711Y-65904655D01*
X127216814Y-65755334D01*
X127271999Y-65588797D01*
X127282500Y-65486008D01*
X127282500Y-64992151D01*
X127781500Y-64992151D01*
X127796622Y-65160186D01*
X127796623Y-65160192D01*
X127856503Y-65377160D01*
X127856508Y-65377173D01*
X127954167Y-65579966D01*
X127954171Y-65579974D01*
X128086473Y-65762072D01*
X128086474Y-65762074D01*
X128249176Y-65917633D01*
X128437033Y-66041636D01*
X128644004Y-66130100D01*
X128644007Y-66130101D01*
X128644012Y-66130103D01*
X128863463Y-66180191D01*
X129088330Y-66190290D01*
X129311387Y-66160075D01*
X129525464Y-66090517D01*
X129723681Y-65983852D01*
X129899666Y-65843508D01*
X130047765Y-65673996D01*
X130163215Y-65480764D01*
X130242307Y-65270024D01*
X130282500Y-65048547D01*
X130282500Y-64732329D01*
X130777710Y-64732329D01*
X130780938Y-64756163D01*
X130781500Y-64764494D01*
X130781500Y-64992151D01*
X130796622Y-65160186D01*
X130796623Y-65160192D01*
X130856503Y-65377160D01*
X130856508Y-65377173D01*
X130954167Y-65579966D01*
X130954171Y-65579974D01*
X131086473Y-65762072D01*
X131086474Y-65762074D01*
X131249176Y-65917633D01*
X131437033Y-66041636D01*
X131644004Y-66130100D01*
X131644007Y-66130101D01*
X131644012Y-66130103D01*
X131863463Y-66180191D01*
X132088330Y-66190290D01*
X132311387Y-66160075D01*
X132525464Y-66090517D01*
X132553841Y-66075246D01*
X132622204Y-66060811D01*
X132687518Y-66085627D01*
X132700284Y-66096758D01*
X134738182Y-68134656D01*
X134771666Y-68195977D01*
X134774500Y-68222335D01*
X134774500Y-72953019D01*
X134785001Y-73055801D01*
X134840184Y-73222333D01*
X134840189Y-73222344D01*
X134932285Y-73371653D01*
X134932288Y-73371657D01*
X135056342Y-73495711D01*
X135056346Y-73495714D01*
X135205655Y-73587810D01*
X135205658Y-73587811D01*
X135205664Y-73587815D01*
X135372200Y-73642999D01*
X135474988Y-73653500D01*
X135474991Y-73653500D01*
X135474993Y-73653500D01*
X140875007Y-73653500D01*
X140875012Y-73653500D01*
X140977800Y-73642999D01*
X141144336Y-73587815D01*
X141293657Y-73495712D01*
X141417712Y-73371657D01*
X141509815Y-73222336D01*
X141564999Y-73055800D01*
X141575500Y-72953012D01*
X141575500Y-66952988D01*
X141564999Y-66850200D01*
X141509815Y-66683664D01*
X141509811Y-66683658D01*
X141509810Y-66683655D01*
X141417714Y-66534346D01*
X141417711Y-66534342D01*
X141293657Y-66410288D01*
X141293653Y-66410285D01*
X141144344Y-66318189D01*
X141144338Y-66318186D01*
X141144336Y-66318185D01*
X141144333Y-66318184D01*
X140977801Y-66263001D01*
X140875019Y-66252500D01*
X140875012Y-66252500D01*
X136444336Y-66252500D01*
X136377297Y-66232815D01*
X136356655Y-66216181D01*
X133984356Y-63843882D01*
X133979719Y-63838693D01*
X133955507Y-63808332D01*
X133904031Y-63763359D01*
X133900997Y-63760523D01*
X133892529Y-63752055D01*
X133860181Y-63725049D01*
X133785996Y-63660235D01*
X133782241Y-63657991D01*
X133766373Y-63646732D01*
X133763019Y-63643932D01*
X133763018Y-63643931D01*
X133763013Y-63643927D01*
X133679719Y-63596666D01*
X133677340Y-63595316D01*
X133592764Y-63544785D01*
X133592761Y-63544783D01*
X133588669Y-63543248D01*
X133571044Y-63535002D01*
X133567245Y-63532846D01*
X133474253Y-63500307D01*
X133382029Y-63465694D01*
X133382019Y-63465691D01*
X133377723Y-63464912D01*
X133358918Y-63459949D01*
X133354784Y-63458502D01*
X133354779Y-63458501D01*
X133257472Y-63443089D01*
X133160550Y-63425500D01*
X133160547Y-63425500D01*
X133156172Y-63425500D01*
X133136769Y-63423972D01*
X133132460Y-63423289D01*
X133033978Y-63425500D01*
X132838626Y-63425500D01*
X132771587Y-63405815D01*
X132770315Y-63404987D01*
X132646547Y-63323289D01*
X132626968Y-63310365D01*
X132626966Y-63310364D01*
X132626960Y-63310361D01*
X132419995Y-63221899D01*
X132419982Y-63221895D01*
X132200542Y-63171810D01*
X132200538Y-63171809D01*
X132200537Y-63171809D01*
X132200536Y-63171808D01*
X132200531Y-63171808D01*
X131975674Y-63161710D01*
X131975673Y-63161710D01*
X131975670Y-63161710D01*
X131752613Y-63191925D01*
X131752610Y-63191925D01*
X131752609Y-63191926D01*
X131538534Y-63261483D01*
X131340321Y-63368146D01*
X131340318Y-63368148D01*
X131164336Y-63508489D01*
X131016236Y-63678003D01*
X130900787Y-63871232D01*
X130900786Y-63871234D01*
X130821692Y-64081976D01*
X130781500Y-64303450D01*
X130781500Y-64646551D01*
X130781438Y-64649307D01*
X130778388Y-64717216D01*
X130777710Y-64732327D01*
X130777710Y-64732329D01*
X130282500Y-64732329D01*
X130282500Y-64359845D01*
X130267377Y-64191812D01*
X130237064Y-64081976D01*
X130207496Y-63974839D01*
X130207491Y-63974826D01*
X130109832Y-63772033D01*
X130109828Y-63772025D01*
X129977526Y-63589927D01*
X129977525Y-63589925D01*
X129814823Y-63434366D01*
X129626966Y-63310363D01*
X129419995Y-63221899D01*
X129419982Y-63221895D01*
X129200542Y-63171810D01*
X129200538Y-63171809D01*
X129200537Y-63171809D01*
X129200536Y-63171808D01*
X129200531Y-63171808D01*
X128975674Y-63161710D01*
X128975673Y-63161710D01*
X128975670Y-63161710D01*
X128752613Y-63191925D01*
X128752610Y-63191925D01*
X128752609Y-63191926D01*
X128538534Y-63261483D01*
X128340321Y-63368146D01*
X128340318Y-63368148D01*
X128164336Y-63508489D01*
X128016236Y-63678003D01*
X127900787Y-63871232D01*
X127900786Y-63871234D01*
X127821692Y-64081976D01*
X127781500Y-64303450D01*
X127781500Y-64992151D01*
X127282500Y-64992151D01*
X127282500Y-63865992D01*
X127271999Y-63763203D01*
X127216814Y-63596666D01*
X127215981Y-63595316D01*
X127124713Y-63447348D01*
X127124710Y-63447344D01*
X127000655Y-63323289D01*
X127000651Y-63323286D01*
X126851337Y-63231187D01*
X126851335Y-63231186D01*
X126732852Y-63191925D01*
X126684797Y-63176001D01*
X126684795Y-63176000D01*
X126582015Y-63165500D01*
X126582008Y-63165500D01*
X125481992Y-63165500D01*
X125481984Y-63165500D01*
X125379204Y-63176000D01*
X125379203Y-63176001D01*
X125212664Y-63231186D01*
X125212662Y-63231187D01*
X125063348Y-63323286D01*
X125063344Y-63323289D01*
X124939289Y-63447344D01*
X124939286Y-63447348D01*
X124847187Y-63596662D01*
X124847186Y-63596664D01*
X124792001Y-63763203D01*
X124792000Y-63763204D01*
X124781500Y-63865984D01*
X124781500Y-65486015D01*
X122428000Y-65486015D01*
X122428000Y-60487187D01*
X127281500Y-60487187D01*
X127301794Y-60621823D01*
X127320604Y-60746615D01*
X127320605Y-60746617D01*
X127320606Y-60746623D01*
X127397938Y-60997326D01*
X127511767Y-61233696D01*
X127511768Y-61233697D01*
X127511770Y-61233700D01*
X127511772Y-61233704D01*
X127587477Y-61344742D01*
X127659567Y-61450479D01*
X127838014Y-61642801D01*
X127838018Y-61642804D01*
X127838019Y-61642805D01*
X128043143Y-61806386D01*
X128270357Y-61937568D01*
X128514584Y-62033420D01*
X128770370Y-62091802D01*
X128770376Y-62091802D01*
X128770379Y-62091803D01*
X128966500Y-62106500D01*
X128966506Y-62106500D01*
X129097500Y-62106500D01*
X129293620Y-62091803D01*
X129293622Y-62091802D01*
X129293630Y-62091802D01*
X129549416Y-62033420D01*
X129793643Y-61937568D01*
X130020857Y-61806386D01*
X130225981Y-61642805D01*
X130404433Y-61450479D01*
X130552228Y-61233704D01*
X130666063Y-60997323D01*
X130743396Y-60746615D01*
X130782500Y-60487182D01*
X130782500Y-60449335D01*
X138072500Y-60449335D01*
X138078816Y-60487187D01*
X138113429Y-60694616D01*
X138194169Y-60929802D01*
X138194172Y-60929811D01*
X138312524Y-61148506D01*
X138312526Y-61148509D01*
X138465262Y-61344744D01*
X138580121Y-61450479D01*
X138648217Y-61513166D01*
X138856393Y-61649173D01*
X139084118Y-61749063D01*
X139310477Y-61806385D01*
X139325179Y-61810108D01*
X139325181Y-61810108D01*
X139325186Y-61810109D01*
X139458376Y-61821145D01*
X139510933Y-61825500D01*
X139510935Y-61825500D01*
X139635065Y-61825500D01*
X139635067Y-61825500D01*
X139696284Y-61820427D01*
X139820813Y-61810109D01*
X139820816Y-61810108D01*
X139820821Y-61810108D01*
X140061881Y-61749063D01*
X140289607Y-61649173D01*
X140497785Y-61513164D01*
X140680738Y-61344744D01*
X140833474Y-61148509D01*
X140951828Y-60929810D01*
X141032571Y-60694614D01*
X141073500Y-60449335D01*
X141073500Y-60200665D01*
X141032571Y-59955386D01*
X140951828Y-59720190D01*
X140833474Y-59501491D01*
X140680738Y-59305256D01*
X140497785Y-59136836D01*
X140497782Y-59136833D01*
X140289606Y-59000826D01*
X140061881Y-58900936D01*
X139820824Y-58839892D01*
X139820813Y-58839890D01*
X139655548Y-58826197D01*
X139635067Y-58824500D01*
X139510933Y-58824500D01*
X139491521Y-58826108D01*
X139325186Y-58839890D01*
X139325175Y-58839892D01*
X139084118Y-58900936D01*
X138856393Y-59000826D01*
X138648217Y-59136833D01*
X138465261Y-59305257D01*
X138312524Y-59501493D01*
X138194172Y-59720188D01*
X138194169Y-59720197D01*
X138113429Y-59955383D01*
X138111762Y-59965376D01*
X138072500Y-60200665D01*
X138072500Y-60449335D01*
X130782500Y-60449335D01*
X130782500Y-60224818D01*
X130743396Y-59965385D01*
X130666063Y-59714677D01*
X130654121Y-59689880D01*
X130552232Y-59478303D01*
X130552231Y-59478302D01*
X130552230Y-59478301D01*
X130552228Y-59478296D01*
X130404433Y-59261521D01*
X130288740Y-59136833D01*
X130225985Y-59069198D01*
X130140249Y-59000826D01*
X130020857Y-58905614D01*
X129793643Y-58774432D01*
X129549416Y-58678580D01*
X129549411Y-58678578D01*
X129549402Y-58678576D01*
X129331818Y-58628914D01*
X129293630Y-58620198D01*
X129293629Y-58620197D01*
X129293625Y-58620197D01*
X129293620Y-58620196D01*
X129097500Y-58605500D01*
X129097494Y-58605500D01*
X128966506Y-58605500D01*
X128966500Y-58605500D01*
X128770379Y-58620196D01*
X128770374Y-58620197D01*
X128514597Y-58678576D01*
X128514578Y-58678582D01*
X128270356Y-58774432D01*
X128043143Y-58905614D01*
X127838014Y-59069198D01*
X127659567Y-59261520D01*
X127511768Y-59478302D01*
X127511767Y-59478303D01*
X127397938Y-59714673D01*
X127320606Y-59965376D01*
X127320605Y-59965381D01*
X127320604Y-59965385D01*
X127305853Y-60063247D01*
X127281500Y-60224812D01*
X127281500Y-60487187D01*
X122428000Y-60487187D01*
X122428000Y-55242500D01*
X122447685Y-55175461D01*
X122500489Y-55129706D01*
X122552000Y-55118500D01*
X140206260Y-55118500D01*
X140209737Y-55118598D01*
G37*
%TD.AperFunction*%
%TD*%
%TA.AperFunction,NonConductor*%
G36*
X120427854Y-118880505D02*
G01*
X120474348Y-118932659D01*
X120485264Y-119001671D01*
X120457137Y-119065629D01*
X120449971Y-119073435D01*
X119845681Y-119677726D01*
X119784358Y-119711211D01*
X119714667Y-119706227D01*
X119658733Y-119664356D01*
X119634316Y-119598891D01*
X119634000Y-119590045D01*
X119634000Y-118994266D01*
X119653685Y-118927227D01*
X119706489Y-118881472D01*
X119756253Y-118870278D01*
X120360547Y-118861766D01*
X120427854Y-118880505D01*
G37*
%TD.AperFunction*%
%TA.AperFunction,NonConductor*%
G36*
X126204539Y-126864185D02*
G01*
X126250294Y-126916989D01*
X126261500Y-126968500D01*
X126261500Y-127084771D01*
X126241815Y-127151810D01*
X126189011Y-127197565D01*
X126119853Y-127207509D01*
X126056297Y-127178484D01*
X126049820Y-127172453D01*
X126015656Y-127138289D01*
X126015651Y-127138286D01*
X125911490Y-127074038D01*
X125864765Y-127022090D01*
X125853544Y-126953127D01*
X125881387Y-126889045D01*
X125939456Y-126850190D01*
X125976587Y-126844500D01*
X126137500Y-126844500D01*
X126204539Y-126864185D01*
G37*
%TD.AperFunction*%
%TA.AperFunction,Conductor*%
%TO.N,+3V3*%
G36*
X118561039Y-55138185D02*
G01*
X118606794Y-55190989D01*
X118618000Y-55242500D01*
X118617999Y-59470284D01*
X118598314Y-59537323D01*
X118545510Y-59583078D01*
X118476352Y-59593022D01*
X118412796Y-59563997D01*
X118382279Y-59524085D01*
X118360232Y-59478303D01*
X118360231Y-59478302D01*
X118360230Y-59478301D01*
X118360228Y-59478296D01*
X118212433Y-59261521D01*
X118202441Y-59250753D01*
X118033985Y-59069198D01*
X117994533Y-59037736D01*
X117828857Y-58905614D01*
X117601643Y-58774432D01*
X117357416Y-58678580D01*
X117357411Y-58678578D01*
X117357402Y-58678576D01*
X117139818Y-58628914D01*
X117101630Y-58620198D01*
X117101629Y-58620197D01*
X117101625Y-58620197D01*
X117101620Y-58620196D01*
X116905500Y-58605500D01*
X116905494Y-58605500D01*
X116774506Y-58605500D01*
X116774500Y-58605500D01*
X116578379Y-58620196D01*
X116578374Y-58620197D01*
X116322597Y-58678576D01*
X116322578Y-58678582D01*
X116078356Y-58774432D01*
X115851143Y-58905614D01*
X115646014Y-59069198D01*
X115467567Y-59261520D01*
X115319768Y-59478302D01*
X115319767Y-59478303D01*
X115205938Y-59714673D01*
X115128606Y-59965376D01*
X115128605Y-59965381D01*
X115128604Y-59965385D01*
X115113853Y-60063247D01*
X115089500Y-60224812D01*
X115089500Y-60487187D01*
X115093420Y-60513190D01*
X115128604Y-60746615D01*
X115128605Y-60746617D01*
X115128606Y-60746623D01*
X115205938Y-60997326D01*
X115319767Y-61233696D01*
X115319768Y-61233697D01*
X115319770Y-61233700D01*
X115319772Y-61233704D01*
X115325657Y-61242335D01*
X115467567Y-61450479D01*
X115646014Y-61642801D01*
X115646018Y-61642804D01*
X115646019Y-61642805D01*
X115851143Y-61806386D01*
X116078357Y-61937568D01*
X116322584Y-62033420D01*
X116578370Y-62091802D01*
X116578376Y-62091802D01*
X116578379Y-62091803D01*
X116774500Y-62106500D01*
X116774506Y-62106500D01*
X116905500Y-62106500D01*
X117101620Y-62091803D01*
X117101622Y-62091802D01*
X117101630Y-62091802D01*
X117357416Y-62033420D01*
X117601643Y-61937568D01*
X117828857Y-61806386D01*
X118033981Y-61642805D01*
X118212433Y-61450479D01*
X118360228Y-61233704D01*
X118382279Y-61187913D01*
X118429100Y-61136055D01*
X118496527Y-61117741D01*
X118563151Y-61138788D01*
X118607820Y-61192514D01*
X118617999Y-61241715D01*
X118617999Y-63047031D01*
X118598314Y-63114070D01*
X118545510Y-63159825D01*
X118488436Y-63170906D01*
X118283674Y-63161710D01*
X118283673Y-63161710D01*
X118283670Y-63161710D01*
X118060613Y-63191925D01*
X118060610Y-63191925D01*
X118060609Y-63191926D01*
X117846534Y-63261483D01*
X117648321Y-63368146D01*
X117648318Y-63368148D01*
X117472336Y-63508489D01*
X117324236Y-63678003D01*
X117208787Y-63871232D01*
X117208786Y-63871234D01*
X117129692Y-64081976D01*
X117103635Y-64225560D01*
X117072296Y-64288007D01*
X117069309Y-64291099D01*
X116802181Y-64558228D01*
X116740858Y-64591713D01*
X116671167Y-64586729D01*
X116615233Y-64544858D01*
X116590816Y-64479393D01*
X116590500Y-64470547D01*
X116590500Y-63865997D01*
X116590499Y-63865984D01*
X116584609Y-63808334D01*
X116579999Y-63763203D01*
X116524814Y-63596666D01*
X116523981Y-63595316D01*
X116432713Y-63447348D01*
X116432710Y-63447344D01*
X116308655Y-63323289D01*
X116308651Y-63323286D01*
X116159337Y-63231187D01*
X116159335Y-63231186D01*
X116040852Y-63191925D01*
X115992797Y-63176001D01*
X115992795Y-63176000D01*
X115890015Y-63165500D01*
X115890008Y-63165500D01*
X114789992Y-63165500D01*
X114789984Y-63165500D01*
X114687204Y-63176000D01*
X114687203Y-63176001D01*
X114520664Y-63231186D01*
X114520662Y-63231187D01*
X114371348Y-63323286D01*
X114371344Y-63323289D01*
X114247289Y-63447344D01*
X114247286Y-63447348D01*
X114155187Y-63596662D01*
X114155186Y-63596664D01*
X114100001Y-63763203D01*
X114100000Y-63763204D01*
X114089500Y-63865984D01*
X114089500Y-65486015D01*
X114100000Y-65588795D01*
X114100001Y-65588796D01*
X114155186Y-65755335D01*
X114155187Y-65755337D01*
X114247286Y-65904651D01*
X114247289Y-65904655D01*
X114371344Y-66028710D01*
X114371348Y-66028713D01*
X114520662Y-66120812D01*
X114520664Y-66120813D01*
X114520666Y-66120814D01*
X114687203Y-66175999D01*
X114789992Y-66186500D01*
X114874547Y-66186500D01*
X114941586Y-66206185D01*
X114987341Y-66258989D01*
X114997285Y-66328147D01*
X114968260Y-66391703D01*
X114962228Y-66398181D01*
X114175208Y-67185199D01*
X114162951Y-67195020D01*
X114163134Y-67195241D01*
X114157123Y-67200213D01*
X114109772Y-67250636D01*
X114088889Y-67271519D01*
X114088877Y-67271532D01*
X114084621Y-67277017D01*
X114080837Y-67281447D01*
X114048937Y-67315418D01*
X114048936Y-67315420D01*
X114039284Y-67332976D01*
X114028610Y-67349226D01*
X114016329Y-67365061D01*
X114016324Y-67365068D01*
X113997815Y-67407838D01*
X113995245Y-67413084D01*
X113972803Y-67453906D01*
X113967822Y-67473307D01*
X113961521Y-67491710D01*
X113953562Y-67510102D01*
X113953561Y-67510105D01*
X113946271Y-67556127D01*
X113945087Y-67561846D01*
X113933501Y-67606972D01*
X113933500Y-67606982D01*
X113933500Y-67627016D01*
X113931973Y-67646415D01*
X113928840Y-67666194D01*
X113928840Y-67666195D01*
X113933225Y-67712583D01*
X113933500Y-67718421D01*
X113933500Y-68715190D01*
X113913815Y-68782229D01*
X113861011Y-68827984D01*
X113791853Y-68837928D01*
X113771182Y-68833121D01*
X113734124Y-68821080D01*
X113734122Y-68821079D01*
X113694488Y-68816913D01*
X113595411Y-68806500D01*
X113502589Y-68806500D01*
X113415895Y-68815611D01*
X113363877Y-68821079D01*
X113363875Y-68821080D01*
X113186856Y-68878596D01*
X113186850Y-68878599D01*
X113025650Y-68971668D01*
X112887324Y-69096215D01*
X112887322Y-69096218D01*
X112777909Y-69246811D01*
X112702201Y-69416852D01*
X112702199Y-69416858D01*
X112663500Y-69598930D01*
X112663500Y-69785069D01*
X112702199Y-69967141D01*
X112702201Y-69967147D01*
X112751527Y-70077933D01*
X112774780Y-70130160D01*
X112777910Y-70137188D01*
X112777909Y-70137188D01*
X112794179Y-70159582D01*
X112887320Y-70287779D01*
X112887321Y-70287780D01*
X112887322Y-70287781D01*
X112887324Y-70287784D01*
X112948036Y-70342448D01*
X113025649Y-70412331D01*
X113186851Y-70505401D01*
X113186853Y-70505401D01*
X113186856Y-70505403D01*
X113252304Y-70526668D01*
X113363880Y-70562921D01*
X113502589Y-70577500D01*
X113502594Y-70577500D01*
X113595406Y-70577500D01*
X113595411Y-70577500D01*
X113661540Y-70570549D01*
X113730268Y-70583118D01*
X113781292Y-70630850D01*
X113798500Y-70693870D01*
X113798500Y-79329191D01*
X113778815Y-79396230D01*
X113726011Y-79441985D01*
X113656853Y-79451929D01*
X113593297Y-79422904D01*
X113586819Y-79416872D01*
X110098818Y-75928871D01*
X110065333Y-75867548D01*
X110062499Y-75841190D01*
X110062499Y-71340069D01*
X110062499Y-66650728D01*
X110064225Y-66635124D01*
X110063938Y-66635097D01*
X110064672Y-66627334D01*
X110062500Y-66558203D01*
X110062500Y-66528651D01*
X110062500Y-66528650D01*
X110061629Y-66521759D01*
X110061172Y-66515945D01*
X110059709Y-66469372D01*
X110054122Y-66450144D01*
X110050174Y-66431084D01*
X110047663Y-66411204D01*
X110030512Y-66367887D01*
X110028619Y-66362358D01*
X110015618Y-66317609D01*
X110015616Y-66317606D01*
X110005423Y-66300371D01*
X109996861Y-66282894D01*
X109989487Y-66264270D01*
X109989486Y-66264268D01*
X109962079Y-66226545D01*
X109958888Y-66221686D01*
X109935172Y-66181583D01*
X109935165Y-66181574D01*
X109921006Y-66167415D01*
X109908368Y-66152619D01*
X109896594Y-66136413D01*
X109888966Y-66130103D01*
X109860688Y-66106709D01*
X109856376Y-66102786D01*
X108831819Y-65078228D01*
X108798334Y-65016905D01*
X108795500Y-64990547D01*
X108795500Y-64359851D01*
X108795500Y-64359845D01*
X108780377Y-64191812D01*
X108750064Y-64081976D01*
X108720496Y-63974839D01*
X108720491Y-63974826D01*
X108622832Y-63772033D01*
X108622828Y-63772025D01*
X108490526Y-63589927D01*
X108490525Y-63589925D01*
X108327823Y-63434366D01*
X108139966Y-63310363D01*
X107932995Y-63221899D01*
X107932982Y-63221895D01*
X107713542Y-63171810D01*
X107713538Y-63171809D01*
X107713537Y-63171809D01*
X107713536Y-63171808D01*
X107713531Y-63171808D01*
X107488674Y-63161710D01*
X107488673Y-63161710D01*
X107488670Y-63161710D01*
X107265613Y-63191925D01*
X107265610Y-63191925D01*
X107265609Y-63191926D01*
X107051534Y-63261483D01*
X106853321Y-63368146D01*
X106853318Y-63368148D01*
X106677336Y-63508489D01*
X106529236Y-63678003D01*
X106413787Y-63871232D01*
X106413786Y-63871234D01*
X106334692Y-64081976D01*
X106294500Y-64303450D01*
X106294500Y-64992151D01*
X106309622Y-65160186D01*
X106309623Y-65160192D01*
X106369503Y-65377160D01*
X106369508Y-65377173D01*
X106467167Y-65579966D01*
X106467171Y-65579974D01*
X106599473Y-65762072D01*
X106599474Y-65762074D01*
X106762176Y-65917633D01*
X106950033Y-66041636D01*
X107157004Y-66130100D01*
X107157007Y-66130101D01*
X107157012Y-66130103D01*
X107376463Y-66180191D01*
X107601330Y-66190290D01*
X107824387Y-66160075D01*
X107993717Y-66105055D01*
X108063557Y-66103061D01*
X108119715Y-66135306D01*
X108775181Y-66790771D01*
X108808666Y-66852094D01*
X108811500Y-66878452D01*
X108811500Y-76068899D01*
X108809775Y-76084516D01*
X108810061Y-76084543D01*
X108809326Y-76092309D01*
X108811500Y-76161458D01*
X108811500Y-76190987D01*
X108811501Y-76191004D01*
X108812368Y-76197875D01*
X108812826Y-76203694D01*
X108814290Y-76250268D01*
X108814291Y-76250271D01*
X108819880Y-76269511D01*
X108823824Y-76288555D01*
X108826336Y-76308435D01*
X108843490Y-76351763D01*
X108845382Y-76357291D01*
X108858381Y-76402032D01*
X108868580Y-76419278D01*
X108877138Y-76436747D01*
X108884514Y-76455376D01*
X108911898Y-76493067D01*
X108915106Y-76497951D01*
X108938827Y-76538060D01*
X108938833Y-76538068D01*
X108952990Y-76552224D01*
X108965628Y-76567020D01*
X108977405Y-76583230D01*
X108977406Y-76583231D01*
X109013309Y-76612932D01*
X109017620Y-76616854D01*
X112149265Y-79748500D01*
X113131233Y-80730468D01*
X113164718Y-80791791D01*
X113159734Y-80861483D01*
X113117862Y-80917416D01*
X113105553Y-80925536D01*
X113025648Y-80971669D01*
X112887324Y-81096215D01*
X112887322Y-81096218D01*
X112887319Y-81096221D01*
X112887320Y-81096221D01*
X112790285Y-81229779D01*
X112774090Y-81252069D01*
X112772643Y-81251017D01*
X112728371Y-81293210D01*
X112659761Y-81306417D01*
X112594903Y-81280433D01*
X112583897Y-81270662D01*
X105303161Y-73989926D01*
X105269676Y-73928603D01*
X105274660Y-73858911D01*
X105283468Y-73840222D01*
X105283784Y-73839672D01*
X105283795Y-73839658D01*
X105377007Y-73639763D01*
X105434092Y-73426720D01*
X105453315Y-73207000D01*
X105434092Y-72987280D01*
X105377007Y-72774237D01*
X105283795Y-72574343D01*
X105157288Y-72393671D01*
X105157286Y-72393668D01*
X105001330Y-72237712D01*
X104820662Y-72111207D01*
X104820654Y-72111203D01*
X104620769Y-72017995D01*
X104620755Y-72017990D01*
X104407724Y-71960909D01*
X104407722Y-71960908D01*
X104407720Y-71960908D01*
X104407718Y-71960907D01*
X104407714Y-71960907D01*
X104188002Y-71941685D01*
X104187998Y-71941685D01*
X103968285Y-71960907D01*
X103968275Y-71960909D01*
X103755244Y-72017990D01*
X103755235Y-72017994D01*
X103555344Y-72111204D01*
X103555342Y-72111205D01*
X103374668Y-72237713D01*
X103218713Y-72393668D01*
X103092205Y-72574342D01*
X103092204Y-72574344D01*
X102998994Y-72774235D01*
X102998990Y-72774244D01*
X102941909Y-72987275D01*
X102941907Y-72987285D01*
X102922685Y-73206998D01*
X102922685Y-73207001D01*
X102941907Y-73426714D01*
X102941909Y-73426724D01*
X102998990Y-73639755D01*
X102998995Y-73639769D01*
X103092203Y-73839654D01*
X103092207Y-73839662D01*
X103218712Y-74020330D01*
X103374669Y-74176287D01*
X103555337Y-74302792D01*
X103555339Y-74302793D01*
X103555342Y-74302795D01*
X103675603Y-74358873D01*
X103755230Y-74396004D01*
X103755232Y-74396004D01*
X103755237Y-74396007D01*
X103941465Y-74445907D01*
X103973509Y-74454493D01*
X103972964Y-74456523D01*
X104027405Y-74483490D01*
X104030971Y-74486917D01*
X112629841Y-83085788D01*
X112639666Y-83098051D01*
X112639887Y-83097869D01*
X112644858Y-83103878D01*
X112670861Y-83128295D01*
X112695279Y-83151226D01*
X112716173Y-83172120D01*
X112721655Y-83176373D01*
X112726087Y-83180157D01*
X112760062Y-83212062D01*
X112777620Y-83221714D01*
X112793879Y-83232395D01*
X112809708Y-83244673D01*
X112852482Y-83263182D01*
X112857700Y-83265738D01*
X112898552Y-83288197D01*
X112917960Y-83293180D01*
X112936361Y-83299480D01*
X112954748Y-83307437D01*
X112998132Y-83314308D01*
X113000763Y-83314725D01*
X113006483Y-83315909D01*
X113051625Y-83327500D01*
X113071660Y-83327500D01*
X113091058Y-83329026D01*
X113110838Y-83332159D01*
X113110839Y-83332160D01*
X113110839Y-83332159D01*
X113110840Y-83332160D01*
X113157227Y-83327775D01*
X113163066Y-83327500D01*
X113656904Y-83327500D01*
X113723943Y-83347185D01*
X113744585Y-83363819D01*
X113995640Y-83614874D01*
X114029125Y-83676197D01*
X114024141Y-83745889D01*
X113982269Y-83801822D01*
X113951293Y-83818737D01*
X113843870Y-83858803D01*
X113843865Y-83858806D01*
X113728656Y-83945052D01*
X113728653Y-83945055D01*
X113642407Y-84060264D01*
X113642403Y-84060271D01*
X113592109Y-84195117D01*
X113587724Y-84235909D01*
X113585702Y-84254723D01*
X113585701Y-84254735D01*
X113585701Y-86357070D01*
X113585702Y-86357076D01*
X113592109Y-86416683D01*
X113642403Y-86551528D01*
X113642407Y-86551535D01*
X113711559Y-86643909D01*
X113728655Y-86666746D01*
X113842813Y-86752205D01*
X113884683Y-86808137D01*
X113892501Y-86851470D01*
X113892501Y-91456530D01*
X113872816Y-91523569D01*
X113842815Y-91555793D01*
X113728655Y-91641254D01*
X113728654Y-91641255D01*
X113728653Y-91641256D01*
X113642407Y-91756464D01*
X113642403Y-91756471D01*
X113592109Y-91891317D01*
X113588110Y-91928518D01*
X113585702Y-91950923D01*
X113585701Y-91950935D01*
X113585701Y-92376167D01*
X113566016Y-92443206D01*
X113534586Y-92476485D01*
X113440129Y-92545111D01*
X113313466Y-92685785D01*
X113218821Y-92849715D01*
X113218818Y-92849722D01*
X113160327Y-93029740D01*
X113160326Y-93029744D01*
X113140540Y-93218000D01*
X113160326Y-93406256D01*
X113160327Y-93406259D01*
X113218818Y-93586277D01*
X113218821Y-93586284D01*
X113313466Y-93750215D01*
X113314864Y-93752139D01*
X113315328Y-93753440D01*
X113316716Y-93755844D01*
X113316276Y-93756097D01*
X113338346Y-93817945D01*
X113322522Y-93885999D01*
X113272417Y-93934695D01*
X113249152Y-93944101D01*
X113241308Y-93946380D01*
X113241305Y-93946381D01*
X113224061Y-93956579D01*
X113206600Y-93965133D01*
X113187969Y-93972510D01*
X113187957Y-93972517D01*
X113150265Y-93999902D01*
X113145382Y-94003109D01*
X113105275Y-94026829D01*
X113091109Y-94040995D01*
X113076319Y-94053627D01*
X113060109Y-94065404D01*
X113060106Y-94065407D01*
X113030405Y-94101309D01*
X113026472Y-94105631D01*
X112138208Y-94993894D01*
X112125951Y-95003715D01*
X112126134Y-95003936D01*
X112120123Y-95008908D01*
X112072772Y-95059331D01*
X112051889Y-95080214D01*
X112051877Y-95080227D01*
X112047621Y-95085712D01*
X112043837Y-95090142D01*
X112011937Y-95124113D01*
X112011936Y-95124115D01*
X112002284Y-95141671D01*
X111991610Y-95157921D01*
X111979329Y-95173756D01*
X111979324Y-95173763D01*
X111960815Y-95216533D01*
X111958245Y-95221779D01*
X111935803Y-95262601D01*
X111930822Y-95282002D01*
X111924521Y-95300405D01*
X111916562Y-95318797D01*
X111916561Y-95318800D01*
X111909271Y-95364822D01*
X111908087Y-95370541D01*
X111896501Y-95415667D01*
X111896500Y-95415677D01*
X111896500Y-95435711D01*
X111894973Y-95455108D01*
X111891840Y-95474891D01*
X111892498Y-95481848D01*
X111896225Y-95521278D01*
X111896500Y-95527116D01*
X111896500Y-96945255D01*
X111894775Y-96960872D01*
X111895061Y-96960899D01*
X111894326Y-96968665D01*
X111896500Y-97037814D01*
X111896500Y-97067343D01*
X111896501Y-97067360D01*
X111897368Y-97074231D01*
X111897826Y-97080050D01*
X111899290Y-97126624D01*
X111899291Y-97126627D01*
X111904880Y-97145867D01*
X111908824Y-97164911D01*
X111911336Y-97184791D01*
X111928490Y-97228119D01*
X111930382Y-97233647D01*
X111943382Y-97278390D01*
X111951135Y-97291501D01*
X111953580Y-97295634D01*
X111962138Y-97313103D01*
X111969514Y-97331732D01*
X111996898Y-97369423D01*
X112000106Y-97374307D01*
X112023827Y-97414416D01*
X112023833Y-97414424D01*
X112037990Y-97428580D01*
X112050628Y-97443376D01*
X112062405Y-97459586D01*
X112062406Y-97459587D01*
X112098309Y-97489288D01*
X112102620Y-97493210D01*
X112411910Y-97802500D01*
X112707194Y-98097784D01*
X112717019Y-98110048D01*
X112717240Y-98109866D01*
X112722210Y-98115873D01*
X112722213Y-98115876D01*
X112722214Y-98115877D01*
X112772651Y-98163241D01*
X112793530Y-98184120D01*
X112799004Y-98188366D01*
X112803442Y-98192156D01*
X112837418Y-98224062D01*
X112837422Y-98224064D01*
X112854973Y-98233713D01*
X112871231Y-98244392D01*
X112887064Y-98256674D01*
X112907639Y-98265577D01*
X112929837Y-98275183D01*
X112935081Y-98277752D01*
X112975908Y-98300197D01*
X112995312Y-98305179D01*
X113013710Y-98311478D01*
X113032105Y-98319438D01*
X113078129Y-98326726D01*
X113083832Y-98327907D01*
X113128981Y-98339500D01*
X113149016Y-98339500D01*
X113168413Y-98341026D01*
X113188196Y-98344160D01*
X113234583Y-98339775D01*
X113240422Y-98339500D01*
X115243500Y-98339500D01*
X115310539Y-98359185D01*
X115356294Y-98411989D01*
X115367500Y-98463499D01*
X115367501Y-98564499D01*
X115347817Y-98631538D01*
X115295014Y-98677294D01*
X115243501Y-98688500D01*
X115144737Y-98688500D01*
X115129120Y-98686776D01*
X115129093Y-98687062D01*
X115121331Y-98686327D01*
X115052203Y-98688500D01*
X115018756Y-98688500D01*
X115018756Y-98688136D01*
X114989674Y-98685998D01*
X114902646Y-98667500D01*
X114713354Y-98667500D01*
X114680897Y-98674398D01*
X114528197Y-98706855D01*
X114528192Y-98706857D01*
X114355270Y-98783848D01*
X114355265Y-98783851D01*
X114202129Y-98895111D01*
X114075466Y-99035785D01*
X113980821Y-99199715D01*
X113980818Y-99199722D01*
X113922327Y-99379740D01*
X113922326Y-99379744D01*
X113902540Y-99568000D01*
X113922326Y-99756256D01*
X113922327Y-99756259D01*
X113969415Y-99901182D01*
X113971410Y-99971023D01*
X113935330Y-100030856D01*
X113872629Y-100061684D01*
X113851484Y-100063500D01*
X110428452Y-100063500D01*
X110361413Y-100043815D01*
X110340771Y-100027181D01*
X104366861Y-94053270D01*
X109085699Y-94053270D01*
X109085700Y-94053276D01*
X109092107Y-94112883D01*
X109142401Y-94247728D01*
X109142405Y-94247735D01*
X109228651Y-94362944D01*
X109228654Y-94362947D01*
X109343863Y-94449193D01*
X109343870Y-94449197D01*
X109478716Y-94499491D01*
X109478715Y-94499491D01*
X109485643Y-94500235D01*
X109538326Y-94505900D01*
X110497671Y-94505899D01*
X110557282Y-94499491D01*
X110692130Y-94449196D01*
X110807345Y-94362946D01*
X110893595Y-94247731D01*
X110926880Y-94158487D01*
X110968752Y-94102553D01*
X111017283Y-94080530D01*
X111018560Y-94080258D01*
X111023803Y-94079144D01*
X111023806Y-94079142D01*
X111023808Y-94079142D01*
X111116419Y-94037908D01*
X111196730Y-94002151D01*
X111349871Y-93890888D01*
X111476533Y-93750216D01*
X111571179Y-93586284D01*
X111629674Y-93406256D01*
X111649460Y-93218000D01*
X111629674Y-93029744D01*
X111571179Y-92849716D01*
X111476533Y-92685784D01*
X111349871Y-92545112D01*
X111349870Y-92545111D01*
X111196734Y-92433851D01*
X111196732Y-92433850D01*
X111023861Y-92356881D01*
X110970625Y-92311630D01*
X110950304Y-92244781D01*
X110950298Y-92243602D01*
X110950298Y-91950929D01*
X110950297Y-91950923D01*
X110950296Y-91950916D01*
X110943890Y-91891317D01*
X110938793Y-91877652D01*
X110893596Y-91756471D01*
X110893592Y-91756464D01*
X110824125Y-91663669D01*
X110807345Y-91641254D01*
X110693186Y-91555794D01*
X110651317Y-91499863D01*
X110643499Y-91456530D01*
X110643499Y-86851470D01*
X110663184Y-86784431D01*
X110693184Y-86752206D01*
X110807345Y-86666746D01*
X110893595Y-86551531D01*
X110943890Y-86416683D01*
X110950299Y-86357073D01*
X110950298Y-84254728D01*
X110943890Y-84195117D01*
X110893595Y-84060269D01*
X110893594Y-84060268D01*
X110893592Y-84060264D01*
X110807346Y-83945055D01*
X110807343Y-83945052D01*
X110692134Y-83858806D01*
X110692127Y-83858802D01*
X110557281Y-83808508D01*
X110557282Y-83808508D01*
X110497682Y-83802101D01*
X110497680Y-83802100D01*
X110497672Y-83802100D01*
X110497663Y-83802100D01*
X109538328Y-83802100D01*
X109538322Y-83802101D01*
X109478715Y-83808508D01*
X109343870Y-83858802D01*
X109343863Y-83858806D01*
X109228654Y-83945052D01*
X109228651Y-83945055D01*
X109142405Y-84060264D01*
X109142401Y-84060271D01*
X109092107Y-84195117D01*
X109087722Y-84235909D01*
X109085700Y-84254723D01*
X109085699Y-84254735D01*
X109085699Y-86357070D01*
X109085700Y-86357076D01*
X109092107Y-86416683D01*
X109142401Y-86551528D01*
X109142405Y-86551535D01*
X109211557Y-86643909D01*
X109228653Y-86666746D01*
X109342811Y-86752205D01*
X109384681Y-86808137D01*
X109392499Y-86851470D01*
X109392499Y-91456530D01*
X109372814Y-91523569D01*
X109342813Y-91555793D01*
X109228653Y-91641254D01*
X109228652Y-91641255D01*
X109228651Y-91641256D01*
X109142405Y-91756464D01*
X109142401Y-91756471D01*
X109092107Y-91891317D01*
X109088108Y-91928518D01*
X109085700Y-91950923D01*
X109085699Y-91950935D01*
X109085699Y-94053270D01*
X104366861Y-94053270D01*
X103247753Y-92934162D01*
X103214268Y-92872839D01*
X103215659Y-92814387D01*
X103218945Y-92802123D01*
X103227092Y-92771720D01*
X103245808Y-92557791D01*
X103246315Y-92552001D01*
X103246315Y-92551998D01*
X103235610Y-92429643D01*
X103227092Y-92332280D01*
X103170007Y-92119237D01*
X103076795Y-91919343D01*
X102950288Y-91738671D01*
X102950286Y-91738668D01*
X102794330Y-91582712D01*
X102613662Y-91456207D01*
X102613654Y-91456203D01*
X102413769Y-91362995D01*
X102413755Y-91362990D01*
X102200724Y-91305909D01*
X102200722Y-91305908D01*
X102200720Y-91305908D01*
X102200718Y-91305907D01*
X102200714Y-91305907D01*
X101981002Y-91286685D01*
X101980998Y-91286685D01*
X101761285Y-91305907D01*
X101761275Y-91305909D01*
X101548244Y-91362990D01*
X101548235Y-91362994D01*
X101348344Y-91456204D01*
X101348342Y-91456205D01*
X101167668Y-91582713D01*
X101011713Y-91738668D01*
X100885205Y-91919342D01*
X100885204Y-91919344D01*
X100791994Y-92119235D01*
X100791990Y-92119244D01*
X100734909Y-92332275D01*
X100734907Y-92332285D01*
X100715685Y-92551998D01*
X100715685Y-92552001D01*
X100734907Y-92771714D01*
X100734909Y-92771724D01*
X100791990Y-92984755D01*
X100791995Y-92984769D01*
X100885203Y-93184654D01*
X100885207Y-93184662D01*
X101011712Y-93365330D01*
X101167669Y-93521287D01*
X101348337Y-93647792D01*
X101348339Y-93647793D01*
X101348342Y-93647795D01*
X101468551Y-93703849D01*
X101548230Y-93741004D01*
X101548232Y-93741004D01*
X101548237Y-93741007D01*
X101761280Y-93798092D01*
X101901390Y-93810350D01*
X101980998Y-93817315D01*
X101981000Y-93817315D01*
X101981002Y-93817315D01*
X102011454Y-93814650D01*
X102200720Y-93798092D01*
X102243386Y-93786659D01*
X102313234Y-93788320D01*
X102363162Y-93818752D01*
X102902206Y-94357796D01*
X102935691Y-94419119D01*
X102930707Y-94488811D01*
X102888835Y-94544744D01*
X102823371Y-94569161D01*
X102755098Y-94554309D01*
X102743402Y-94547052D01*
X102613662Y-94456207D01*
X102613654Y-94456203D01*
X102413769Y-94362995D01*
X102413755Y-94362990D01*
X102200724Y-94305909D01*
X102200722Y-94305908D01*
X102200720Y-94305908D01*
X102200718Y-94305907D01*
X102200714Y-94305907D01*
X101981002Y-94286685D01*
X101980998Y-94286685D01*
X101761285Y-94305907D01*
X101761275Y-94305909D01*
X101548244Y-94362990D01*
X101548235Y-94362994D01*
X101348344Y-94456204D01*
X101348342Y-94456205D01*
X101167668Y-94582713D01*
X101011713Y-94738668D01*
X100885205Y-94919342D01*
X100885204Y-94919344D01*
X100791994Y-95119235D01*
X100791990Y-95119244D01*
X100734909Y-95332275D01*
X100734907Y-95332285D01*
X100715685Y-95551998D01*
X100715685Y-95552001D01*
X100734907Y-95771714D01*
X100734909Y-95771724D01*
X100791990Y-95984755D01*
X100791995Y-95984769D01*
X100885203Y-96184654D01*
X100885207Y-96184662D01*
X101011712Y-96365330D01*
X101167669Y-96521287D01*
X101348337Y-96647792D01*
X101348339Y-96647793D01*
X101348342Y-96647795D01*
X101439664Y-96690379D01*
X101548230Y-96741004D01*
X101548232Y-96741004D01*
X101548237Y-96741007D01*
X101761280Y-96798092D01*
X101918222Y-96811822D01*
X101980998Y-96817315D01*
X101981000Y-96817315D01*
X101981002Y-96817315D01*
X102035929Y-96812509D01*
X102200720Y-96798092D01*
X102413763Y-96741007D01*
X102613658Y-96647795D01*
X102794329Y-96521288D01*
X102950288Y-96365329D01*
X103044782Y-96230376D01*
X103099360Y-96186752D01*
X103146358Y-96177500D01*
X104034152Y-96177500D01*
X104101191Y-96197185D01*
X104121833Y-96213819D01*
X105622833Y-97714819D01*
X105656318Y-97776142D01*
X105651334Y-97845834D01*
X105609462Y-97901767D01*
X105543998Y-97926184D01*
X105535152Y-97926500D01*
X103365499Y-97926500D01*
X103298460Y-97906815D01*
X103252705Y-97854011D01*
X103241499Y-97802500D01*
X103241499Y-97744129D01*
X103241498Y-97744123D01*
X103241497Y-97744116D01*
X103235091Y-97684517D01*
X103184796Y-97549669D01*
X103184795Y-97549668D01*
X103184793Y-97549664D01*
X103098547Y-97434455D01*
X103098544Y-97434452D01*
X102983335Y-97348206D01*
X102983328Y-97348202D01*
X102848482Y-97297908D01*
X102848483Y-97297908D01*
X102788883Y-97291501D01*
X102788881Y-97291500D01*
X102788873Y-97291500D01*
X102788864Y-97291500D01*
X101173129Y-97291500D01*
X101173123Y-97291501D01*
X101113516Y-97297908D01*
X100978671Y-97348202D01*
X100978664Y-97348206D01*
X100863455Y-97434452D01*
X100863452Y-97434455D01*
X100777206Y-97549664D01*
X100777202Y-97549671D01*
X100726908Y-97684517D01*
X100720501Y-97744116D01*
X100720501Y-97744123D01*
X100720500Y-97744135D01*
X100720500Y-99359870D01*
X100720501Y-99359876D01*
X100726908Y-99419483D01*
X100777202Y-99554328D01*
X100777206Y-99554335D01*
X100863452Y-99669544D01*
X100863455Y-99669547D01*
X100978664Y-99755793D01*
X100978671Y-99755797D01*
X101113517Y-99806091D01*
X101113516Y-99806091D01*
X101120444Y-99806835D01*
X101173127Y-99812500D01*
X102788872Y-99812499D01*
X102848483Y-99806091D01*
X102983331Y-99755796D01*
X103098546Y-99669546D01*
X103184796Y-99554331D01*
X103235091Y-99419483D01*
X103241500Y-99359873D01*
X103241500Y-99301500D01*
X103261185Y-99234461D01*
X103313989Y-99188706D01*
X103365500Y-99177500D01*
X106397756Y-99177500D01*
X106464795Y-99197185D01*
X106485437Y-99213819D01*
X110213402Y-102941784D01*
X110223227Y-102954048D01*
X110223448Y-102953866D01*
X110228418Y-102959873D01*
X110228421Y-102959876D01*
X110228422Y-102959877D01*
X110278859Y-103007241D01*
X110299738Y-103028120D01*
X110305212Y-103032366D01*
X110309650Y-103036156D01*
X110343626Y-103068062D01*
X110343630Y-103068064D01*
X110361181Y-103077713D01*
X110377439Y-103088392D01*
X110393272Y-103100674D01*
X110415223Y-103110172D01*
X110436045Y-103119183D01*
X110441289Y-103121752D01*
X110482116Y-103144197D01*
X110501520Y-103149179D01*
X110519918Y-103155478D01*
X110538313Y-103163438D01*
X110584337Y-103170726D01*
X110590040Y-103171907D01*
X110635189Y-103183500D01*
X110655224Y-103183500D01*
X110674621Y-103185026D01*
X110694404Y-103188160D01*
X110740791Y-103183775D01*
X110746630Y-103183500D01*
X115112902Y-103183500D01*
X115179941Y-103203185D01*
X115225696Y-103255989D01*
X115235640Y-103325147D01*
X115206615Y-103388703D01*
X115200583Y-103395181D01*
X111146101Y-107449662D01*
X111084778Y-107483147D01*
X111015086Y-107478163D01*
X110959153Y-107436291D01*
X110953725Y-107428062D01*
X110952090Y-107425811D01*
X110842680Y-107275221D01*
X110842677Y-107275218D01*
X110842675Y-107275215D01*
X110752536Y-107194055D01*
X110704351Y-107150669D01*
X110543149Y-107057599D01*
X110543143Y-107057596D01*
X110366124Y-107000080D01*
X110366122Y-107000079D01*
X110326488Y-106995913D01*
X110227411Y-106985500D01*
X110134589Y-106985500D01*
X110047895Y-106994611D01*
X109995877Y-107000079D01*
X109995875Y-107000080D01*
X109818856Y-107057596D01*
X109818850Y-107057599D01*
X109657650Y-107150668D01*
X109519324Y-107275215D01*
X109519322Y-107275218D01*
X109409909Y-107425811D01*
X109334201Y-107595852D01*
X109334199Y-107595858D01*
X109295500Y-107777930D01*
X109295500Y-107964069D01*
X109334199Y-108146141D01*
X109334201Y-108146147D01*
X109409910Y-108316188D01*
X109409909Y-108316188D01*
X109409910Y-108316189D01*
X109519320Y-108466779D01*
X109519321Y-108466780D01*
X109519322Y-108466781D01*
X109519324Y-108466784D01*
X109657650Y-108591332D01*
X109657653Y-108591334D01*
X109722110Y-108628548D01*
X109770326Y-108679114D01*
X109783550Y-108747721D01*
X109757582Y-108812586D01*
X109747792Y-108823616D01*
X104535180Y-114036228D01*
X104473857Y-114069713D01*
X104404165Y-114064729D01*
X104348232Y-114022857D01*
X104323815Y-113957393D01*
X104323499Y-113948547D01*
X104323499Y-113087129D01*
X104323498Y-113087123D01*
X104323497Y-113087116D01*
X104317091Y-113027517D01*
X104309204Y-113006372D01*
X104266797Y-112892671D01*
X104266793Y-112892664D01*
X104180547Y-112777455D01*
X104180544Y-112777452D01*
X104065335Y-112691206D01*
X104065328Y-112691202D01*
X103930482Y-112640908D01*
X103930483Y-112640908D01*
X103870883Y-112634501D01*
X103870881Y-112634500D01*
X103870873Y-112634500D01*
X103870864Y-112634500D01*
X102255129Y-112634500D01*
X102255123Y-112634501D01*
X102195516Y-112640908D01*
X102060671Y-112691202D01*
X102060664Y-112691206D01*
X101945455Y-112777452D01*
X101945452Y-112777455D01*
X101859206Y-112892664D01*
X101859202Y-112892671D01*
X101808908Y-113027517D01*
X101802501Y-113087116D01*
X101802501Y-113087123D01*
X101802500Y-113087135D01*
X101802500Y-114702870D01*
X101802501Y-114702876D01*
X101808908Y-114762483D01*
X101859202Y-114897328D01*
X101859206Y-114897335D01*
X101945452Y-115012544D01*
X101945455Y-115012547D01*
X102060664Y-115098793D01*
X102060671Y-115098797D01*
X102195517Y-115149091D01*
X102195516Y-115149091D01*
X102202444Y-115149835D01*
X102255127Y-115155500D01*
X103116546Y-115155499D01*
X103183585Y-115175183D01*
X103229340Y-115227987D01*
X103239284Y-115297146D01*
X103210259Y-115360702D01*
X103204227Y-115367180D01*
X102994208Y-115577199D01*
X102981951Y-115587020D01*
X102982134Y-115587241D01*
X102976123Y-115592213D01*
X102928772Y-115642636D01*
X102907889Y-115663519D01*
X102907877Y-115663532D01*
X102903621Y-115669017D01*
X102899837Y-115673447D01*
X102867937Y-115707418D01*
X102867936Y-115707420D01*
X102858284Y-115724976D01*
X102847610Y-115741226D01*
X102835329Y-115757061D01*
X102835324Y-115757068D01*
X102816815Y-115799838D01*
X102814245Y-115805084D01*
X102791803Y-115845906D01*
X102786822Y-115865307D01*
X102780521Y-115883710D01*
X102772562Y-115902102D01*
X102772561Y-115902105D01*
X102765271Y-115948127D01*
X102764087Y-115953846D01*
X102752501Y-115998972D01*
X102752500Y-115998982D01*
X102752500Y-116019016D01*
X102750973Y-116038415D01*
X102747869Y-116058015D01*
X102747840Y-116058196D01*
X102749076Y-116071275D01*
X102752225Y-116104583D01*
X102752500Y-116110421D01*
X102752500Y-120318397D01*
X102732815Y-120385436D01*
X102707166Y-120414249D01*
X102667114Y-120447118D01*
X102542090Y-120599460D01*
X102542086Y-120599467D01*
X102449188Y-120773266D01*
X102391975Y-120961870D01*
X102372659Y-121158000D01*
X102391975Y-121354129D01*
X102449188Y-121542733D01*
X102542086Y-121716532D01*
X102542090Y-121716539D01*
X102667116Y-121868882D01*
X102707163Y-121901748D01*
X102746498Y-121959494D01*
X102752499Y-121997602D01*
X102752499Y-123948259D01*
X102750776Y-123963876D01*
X102751060Y-123963903D01*
X102750326Y-123971663D01*
X102752499Y-124040813D01*
X102752499Y-124070350D01*
X102753368Y-124077231D01*
X102753826Y-124083050D01*
X102755290Y-124129623D01*
X102755291Y-124129626D01*
X102760880Y-124148866D01*
X102764824Y-124167910D01*
X102767336Y-124187791D01*
X102774638Y-124206233D01*
X102784490Y-124231118D01*
X102786382Y-124236646D01*
X102799381Y-124281387D01*
X102809580Y-124298633D01*
X102818138Y-124316102D01*
X102825514Y-124334731D01*
X102852898Y-124372422D01*
X102856105Y-124377304D01*
X102864674Y-124391792D01*
X102881859Y-124459515D01*
X102877719Y-124487009D01*
X102862912Y-124542272D01*
X102862909Y-124542286D01*
X102843687Y-124761999D01*
X102843687Y-124762002D01*
X102862909Y-124981715D01*
X102862911Y-124981725D01*
X102921396Y-125199994D01*
X102918985Y-125200639D01*
X102922734Y-125259903D01*
X102888746Y-125320949D01*
X102827149Y-125353928D01*
X102805685Y-125356488D01*
X102744156Y-125358421D01*
X102741673Y-125358500D01*
X102712150Y-125358500D01*
X102705279Y-125359367D01*
X102699460Y-125359825D01*
X102652875Y-125361289D01*
X102652869Y-125361290D01*
X102633627Y-125366880D01*
X102614588Y-125370823D01*
X102594718Y-125373334D01*
X102594704Y-125373337D01*
X102551384Y-125390488D01*
X102545859Y-125392380D01*
X102501114Y-125405380D01*
X102501111Y-125405381D01*
X102483867Y-125415579D01*
X102466406Y-125424133D01*
X102447775Y-125431510D01*
X102447765Y-125431516D01*
X102442209Y-125435553D01*
X102376402Y-125459030D01*
X102308349Y-125443202D01*
X102259655Y-125393095D01*
X102245782Y-125324617D01*
X102256943Y-125282831D01*
X102298010Y-125194764D01*
X102355095Y-124981721D01*
X102374318Y-124762001D01*
X102355095Y-124542281D01*
X102304922Y-124355032D01*
X102298012Y-124329245D01*
X102298011Y-124329244D01*
X102298010Y-124329238D01*
X102204798Y-124129344D01*
X102110076Y-123994066D01*
X102078289Y-123948669D01*
X101922333Y-123792713D01*
X101741665Y-123666208D01*
X101741657Y-123666204D01*
X101541772Y-123572996D01*
X101541758Y-123572991D01*
X101328727Y-123515910D01*
X101328725Y-123515909D01*
X101328723Y-123515909D01*
X101328721Y-123515908D01*
X101328717Y-123515908D01*
X101109005Y-123496686D01*
X101109001Y-123496686D01*
X100889288Y-123515908D01*
X100889278Y-123515910D01*
X100676247Y-123572991D01*
X100676238Y-123572995D01*
X100476347Y-123666205D01*
X100476345Y-123666206D01*
X100295671Y-123792714D01*
X100139716Y-123948669D01*
X100013208Y-124129343D01*
X100013207Y-124129345D01*
X99919997Y-124329236D01*
X99919993Y-124329245D01*
X99862912Y-124542276D01*
X99862910Y-124542286D01*
X99843688Y-124761999D01*
X99843688Y-124762002D01*
X99862910Y-124981715D01*
X99862912Y-124981725D01*
X99919993Y-125194756D01*
X99919998Y-125194770D01*
X100013206Y-125394655D01*
X100013210Y-125394663D01*
X100139715Y-125575331D01*
X100295672Y-125731288D01*
X100476340Y-125857793D01*
X100476342Y-125857794D01*
X100476345Y-125857796D01*
X100478788Y-125858935D01*
X100676233Y-125951005D01*
X100676235Y-125951005D01*
X100676240Y-125951008D01*
X100889283Y-126008093D01*
X101046225Y-126021823D01*
X101109001Y-126027316D01*
X101109003Y-126027316D01*
X101109005Y-126027316D01*
X101163933Y-126022510D01*
X101328723Y-126008093D01*
X101541766Y-125951008D01*
X101575468Y-125935292D01*
X101644543Y-125924800D01*
X101708327Y-125953318D01*
X101746568Y-126011794D01*
X101747123Y-126081662D01*
X101715553Y-126135355D01*
X101375382Y-126475526D01*
X101314059Y-126509011D01*
X101276894Y-126511373D01*
X101109005Y-126496685D01*
X101109001Y-126496685D01*
X100889288Y-126515907D01*
X100889278Y-126515909D01*
X100676247Y-126572990D01*
X100676238Y-126572994D01*
X100476347Y-126666204D01*
X100476345Y-126666205D01*
X100295671Y-126792713D01*
X100139716Y-126948668D01*
X100013208Y-127129342D01*
X100013207Y-127129344D01*
X99919997Y-127329235D01*
X99919993Y-127329244D01*
X99862912Y-127542275D01*
X99862910Y-127542285D01*
X99843688Y-127761998D01*
X99843688Y-127762001D01*
X99862910Y-127981714D01*
X99862912Y-127981724D01*
X99919993Y-128194755D01*
X99919998Y-128194769D01*
X100013206Y-128394654D01*
X100013210Y-128394662D01*
X100139715Y-128575330D01*
X100295672Y-128731287D01*
X100476340Y-128857792D01*
X100476342Y-128857793D01*
X100476345Y-128857795D01*
X100522993Y-128879547D01*
X100676233Y-128951004D01*
X100676235Y-128951004D01*
X100676240Y-128951007D01*
X100889283Y-129008092D01*
X101046225Y-129021822D01*
X101109001Y-129027315D01*
X101109003Y-129027315D01*
X101109005Y-129027315D01*
X101164062Y-129022498D01*
X101328723Y-129008092D01*
X101541766Y-128951007D01*
X101741661Y-128857795D01*
X101922332Y-128731288D01*
X102078291Y-128575329D01*
X102204798Y-128394658D01*
X102298010Y-128194763D01*
X102355095Y-127981720D01*
X102374318Y-127762000D01*
X102355095Y-127542280D01*
X102315026Y-127392741D01*
X102316689Y-127322894D01*
X102347118Y-127272971D01*
X102974271Y-126645819D01*
X103035595Y-126612334D01*
X103061953Y-126609500D01*
X103179522Y-126609500D01*
X103246561Y-126629185D01*
X103292316Y-126681989D01*
X103302260Y-126751147D01*
X103273235Y-126814703D01*
X103267203Y-126821181D01*
X103139715Y-126948668D01*
X103013207Y-127129342D01*
X103013206Y-127129344D01*
X102919996Y-127329235D01*
X102919992Y-127329244D01*
X102862911Y-127542275D01*
X102862909Y-127542285D01*
X102843687Y-127761998D01*
X102843687Y-127762001D01*
X102862909Y-127981714D01*
X102862911Y-127981724D01*
X102919992Y-128194755D01*
X102919997Y-128194769D01*
X103013205Y-128394654D01*
X103013209Y-128394662D01*
X103139714Y-128575330D01*
X103295671Y-128731287D01*
X103476339Y-128857792D01*
X103476341Y-128857793D01*
X103476344Y-128857795D01*
X103522992Y-128879547D01*
X103676232Y-128951004D01*
X103676234Y-128951004D01*
X103676239Y-128951007D01*
X103889282Y-129008092D01*
X104046224Y-129021822D01*
X104109000Y-129027315D01*
X104109002Y-129027315D01*
X104109004Y-129027315D01*
X104164061Y-129022498D01*
X104328722Y-129008092D01*
X104541765Y-128951007D01*
X104741660Y-128857795D01*
X104922331Y-128731288D01*
X105078290Y-128575329D01*
X105204797Y-128394658D01*
X105298009Y-128194763D01*
X105355094Y-127981720D01*
X105374317Y-127762000D01*
X105355094Y-127542280D01*
X105343660Y-127499612D01*
X105345322Y-127429762D01*
X105375750Y-127379840D01*
X105659775Y-127095817D01*
X105721098Y-127062334D01*
X105747455Y-127059500D01*
X105851685Y-127059500D01*
X105918724Y-127079185D01*
X105964479Y-127131989D01*
X105974423Y-127201147D01*
X105964067Y-127235904D01*
X105920468Y-127329402D01*
X105863403Y-127542366D01*
X105863402Y-127542373D01*
X105844188Y-127761998D01*
X105844188Y-127762001D01*
X105863402Y-127981626D01*
X105863403Y-127981634D01*
X105920464Y-128194587D01*
X105920467Y-128194593D01*
X106013639Y-128394402D01*
X106058695Y-128458750D01*
X106492815Y-128024630D01*
X106554138Y-127991145D01*
X106623829Y-127996129D01*
X106679763Y-128038000D01*
X106684807Y-128045266D01*
X106719606Y-128099413D01*
X106806659Y-128174845D01*
X106836220Y-128200460D01*
X106873994Y-128259239D01*
X106873994Y-128329108D01*
X106842698Y-128381854D01*
X106412248Y-128812304D01*
X106476594Y-128857359D01*
X106676407Y-128950533D01*
X106676413Y-128950536D01*
X106889366Y-129007597D01*
X106889374Y-129007598D01*
X107108999Y-129026813D01*
X107109003Y-129026813D01*
X107328627Y-129007598D01*
X107328635Y-129007597D01*
X107541588Y-128950536D01*
X107541599Y-128950532D01*
X107741403Y-128857362D01*
X107741411Y-128857358D01*
X107805752Y-128812305D01*
X107375302Y-128381855D01*
X107341817Y-128320532D01*
X107346801Y-128250840D01*
X107381780Y-128200461D01*
X107387560Y-128195452D01*
X107387563Y-128195451D01*
X107498396Y-128099413D01*
X107533190Y-128045271D01*
X107585993Y-127999518D01*
X107655151Y-127989574D01*
X107718707Y-128018599D01*
X107725186Y-128024631D01*
X108159306Y-128458751D01*
X108204359Y-128394410D01*
X108204363Y-128394402D01*
X108297533Y-128194598D01*
X108297537Y-128194587D01*
X108354598Y-127981634D01*
X108354599Y-127981626D01*
X108373814Y-127762001D01*
X108373814Y-127761998D01*
X108354599Y-127542373D01*
X108354598Y-127542366D01*
X108297533Y-127329402D01*
X108253935Y-127235904D01*
X108243443Y-127166827D01*
X108271963Y-127103043D01*
X108330440Y-127064804D01*
X108366317Y-127059500D01*
X108724500Y-127059500D01*
X108791539Y-127079185D01*
X108837294Y-127131989D01*
X108848500Y-127183500D01*
X108848500Y-128569870D01*
X108848501Y-128569876D01*
X108854908Y-128629483D01*
X108905202Y-128764328D01*
X108905206Y-128764335D01*
X108991452Y-128879544D01*
X108991455Y-128879547D01*
X109106664Y-128965793D01*
X109106671Y-128965797D01*
X109241517Y-129016091D01*
X109241516Y-129016091D01*
X109248444Y-129016835D01*
X109301127Y-129022500D01*
X110916872Y-129022499D01*
X110976483Y-129016091D01*
X111111331Y-128965796D01*
X111226546Y-128879546D01*
X111312796Y-128764331D01*
X111363091Y-128629483D01*
X111369500Y-128569873D01*
X111369499Y-126954128D01*
X111363091Y-126894517D01*
X111344436Y-126844500D01*
X111335467Y-126820452D01*
X111330483Y-126750760D01*
X111363966Y-126689440D01*
X113357786Y-124695620D01*
X113370048Y-124685798D01*
X113369865Y-124685577D01*
X113375867Y-124680610D01*
X113375877Y-124680604D01*
X113423241Y-124630166D01*
X113444120Y-124609288D01*
X113448373Y-124603804D01*
X113452150Y-124599381D01*
X113484062Y-124565400D01*
X113493714Y-124547841D01*
X113504389Y-124531590D01*
X113516674Y-124515754D01*
X113535186Y-124472970D01*
X113537742Y-124467753D01*
X113560197Y-124426910D01*
X113565180Y-124407498D01*
X113571477Y-124389109D01*
X113579438Y-124370713D01*
X113586729Y-124324671D01*
X113587908Y-124318980D01*
X113599500Y-124273837D01*
X113599500Y-124253800D01*
X113601027Y-124234400D01*
X113604160Y-124214622D01*
X113599775Y-124168233D01*
X113599500Y-124162395D01*
X113599500Y-123048452D01*
X113619185Y-122981413D01*
X113635819Y-122960771D01*
X114154213Y-122442377D01*
X114707472Y-121889117D01*
X114768793Y-121855634D01*
X114838485Y-121860618D01*
X114873816Y-121880947D01*
X115011460Y-121993909D01*
X115011467Y-121993913D01*
X115185266Y-122086811D01*
X115185269Y-122086811D01*
X115185273Y-122086814D01*
X115373868Y-122144024D01*
X115570000Y-122163341D01*
X115766132Y-122144024D01*
X115954727Y-122086814D01*
X116128538Y-121993910D01*
X116280883Y-121868883D01*
X116405910Y-121716538D01*
X116498814Y-121542727D01*
X116556024Y-121354132D01*
X116575341Y-121158000D01*
X116556024Y-120961868D01*
X116498814Y-120773273D01*
X116498811Y-120773269D01*
X116498811Y-120773266D01*
X116405913Y-120599467D01*
X116405909Y-120599460D01*
X116280883Y-120447116D01*
X116128539Y-120322090D01*
X116128532Y-120322086D01*
X115954733Y-120229188D01*
X115954727Y-120229186D01*
X115766132Y-120171976D01*
X115766129Y-120171975D01*
X115570000Y-120152659D01*
X115373870Y-120171975D01*
X115185266Y-120229188D01*
X115011467Y-120322086D01*
X115011460Y-120322090D01*
X114859116Y-120447116D01*
X114826250Y-120487165D01*
X114768505Y-120526499D01*
X114730397Y-120532500D01*
X114636737Y-120532500D01*
X114621120Y-120530776D01*
X114621093Y-120531062D01*
X114613331Y-120530327D01*
X114544203Y-120532500D01*
X113979168Y-120532500D01*
X113912129Y-120512815D01*
X113878853Y-120481389D01*
X113877296Y-120479246D01*
X113874092Y-120474837D01*
X113870889Y-120469960D01*
X113847170Y-120429853D01*
X113847165Y-120429847D01*
X113833006Y-120415688D01*
X113820368Y-120400892D01*
X113808594Y-120384686D01*
X113799356Y-120377044D01*
X113772688Y-120354982D01*
X113768376Y-120351059D01*
X112217530Y-118800212D01*
X112207707Y-118787950D01*
X112207486Y-118788134D01*
X112202513Y-118782123D01*
X112188006Y-118768500D01*
X112152091Y-118734773D01*
X112141646Y-118724328D01*
X112131202Y-118713883D01*
X112125713Y-118709625D01*
X112121288Y-118705847D01*
X112087309Y-118673938D01*
X112087307Y-118673936D01*
X112087304Y-118673935D01*
X112069756Y-118664288D01*
X112053490Y-118653604D01*
X112037660Y-118641325D01*
X111994895Y-118622818D01*
X111989649Y-118620248D01*
X111948820Y-118597803D01*
X111948819Y-118597802D01*
X111929420Y-118592822D01*
X111911008Y-118586518D01*
X111892625Y-118578562D01*
X111892619Y-118578560D01*
X111846601Y-118571272D01*
X111840879Y-118570087D01*
X111795748Y-118558500D01*
X111795746Y-118558500D01*
X111775711Y-118558500D01*
X111756313Y-118556973D01*
X111748889Y-118555797D01*
X111736532Y-118553840D01*
X111736531Y-118553840D01*
X111690143Y-118558225D01*
X111684305Y-118558500D01*
X109606808Y-118558500D01*
X109539769Y-118538815D01*
X109519127Y-118522181D01*
X108948175Y-117951228D01*
X108914690Y-117889905D01*
X108911856Y-117863547D01*
X108911856Y-116964069D01*
X109295500Y-116964069D01*
X109334199Y-117146141D01*
X109334201Y-117146147D01*
X109381561Y-117252517D01*
X109408101Y-117312127D01*
X109409910Y-117316188D01*
X109409909Y-117316188D01*
X109409910Y-117316189D01*
X109519320Y-117466779D01*
X109519321Y-117466780D01*
X109519322Y-117466781D01*
X109519324Y-117466784D01*
X109603469Y-117542547D01*
X109657649Y-117591331D01*
X109818851Y-117684401D01*
X109818853Y-117684401D01*
X109818856Y-117684403D01*
X109892722Y-117708403D01*
X109995880Y-117741921D01*
X110134589Y-117756500D01*
X110134594Y-117756500D01*
X110227406Y-117756500D01*
X110227411Y-117756500D01*
X110366120Y-117741921D01*
X110543149Y-117684401D01*
X110704351Y-117591331D01*
X110816025Y-117490779D01*
X110842675Y-117466784D01*
X110842675Y-117466782D01*
X110842680Y-117466779D01*
X110952090Y-117316189D01*
X111017112Y-117170147D01*
X111027798Y-117146147D01*
X111027800Y-117146141D01*
X111041149Y-117083341D01*
X111066500Y-116964070D01*
X111066500Y-116777930D01*
X111027800Y-116595858D01*
X111027798Y-116595852D01*
X110997386Y-116527547D01*
X110952090Y-116425811D01*
X110842680Y-116275221D01*
X110842677Y-116275218D01*
X110842675Y-116275215D01*
X110752536Y-116194055D01*
X110704351Y-116150669D01*
X110543149Y-116057599D01*
X110543143Y-116057596D01*
X110366124Y-116000080D01*
X110366122Y-116000079D01*
X110326488Y-115995913D01*
X110227411Y-115985500D01*
X110134589Y-115985500D01*
X110047895Y-115994611D01*
X109995877Y-116000079D01*
X109995875Y-116000080D01*
X109818856Y-116057596D01*
X109818850Y-116057599D01*
X109657650Y-116150668D01*
X109519324Y-116275215D01*
X109519322Y-116275218D01*
X109409909Y-116425811D01*
X109334201Y-116595852D01*
X109334199Y-116595858D01*
X109295500Y-116777930D01*
X109295500Y-116964069D01*
X108911856Y-116964069D01*
X108911856Y-116009500D01*
X108911856Y-114138066D01*
X108931540Y-114071031D01*
X108948169Y-114050394D01*
X110380744Y-112617819D01*
X110442068Y-112584334D01*
X110468426Y-112581500D01*
X110904457Y-112581500D01*
X110971496Y-112601185D01*
X111017251Y-112653989D01*
X111027195Y-112723147D01*
X111003723Y-112779810D01*
X110973843Y-112819724D01*
X110937204Y-112868668D01*
X110937202Y-112868671D01*
X110886908Y-113003517D01*
X110883570Y-113034572D01*
X110880501Y-113063123D01*
X110880500Y-113063135D01*
X110880500Y-114678870D01*
X110880501Y-114678876D01*
X110886908Y-114738483D01*
X110937202Y-114873328D01*
X110937206Y-114873335D01*
X111023452Y-114988544D01*
X111023455Y-114988547D01*
X111138664Y-115074793D01*
X111138671Y-115074797D01*
X111273517Y-115125091D01*
X111273516Y-115125091D01*
X111280444Y-115125835D01*
X111333127Y-115131500D01*
X112948872Y-115131499D01*
X113008483Y-115125091D01*
X113143331Y-115074796D01*
X113258546Y-114988546D01*
X113344796Y-114873331D01*
X113395091Y-114738483D01*
X113401500Y-114678873D01*
X113401500Y-114678870D01*
X119897500Y-114678870D01*
X119897501Y-114678876D01*
X119903908Y-114738483D01*
X119954202Y-114873328D01*
X119954206Y-114873335D01*
X120040452Y-114988544D01*
X120040455Y-114988547D01*
X120155664Y-115074793D01*
X120155671Y-115074797D01*
X120290517Y-115125091D01*
X120290516Y-115125091D01*
X120297444Y-115125835D01*
X120350127Y-115131500D01*
X121965872Y-115131499D01*
X122025483Y-115125091D01*
X122160331Y-115074796D01*
X122275546Y-114988546D01*
X122361796Y-114873331D01*
X122412091Y-114738483D01*
X122418500Y-114678873D01*
X122418499Y-113063128D01*
X122412091Y-113003517D01*
X122370747Y-112892669D01*
X122361797Y-112868671D01*
X122361793Y-112868664D01*
X122275547Y-112753455D01*
X122275544Y-112753452D01*
X122160335Y-112667206D01*
X122160328Y-112667202D01*
X122025482Y-112616908D01*
X122025483Y-112616908D01*
X121965883Y-112610501D01*
X121965881Y-112610500D01*
X121965873Y-112610500D01*
X121965864Y-112610500D01*
X120350129Y-112610500D01*
X120350123Y-112610501D01*
X120290516Y-112616908D01*
X120155671Y-112667202D01*
X120155664Y-112667206D01*
X120040455Y-112753452D01*
X120040452Y-112753455D01*
X119954206Y-112868664D01*
X119954202Y-112868671D01*
X119903908Y-113003517D01*
X119900570Y-113034572D01*
X119897501Y-113063123D01*
X119897500Y-113063135D01*
X119897500Y-114678870D01*
X113401500Y-114678870D01*
X113401499Y-113063128D01*
X113395091Y-113003517D01*
X113353747Y-112892669D01*
X113344797Y-112868671D01*
X113344793Y-112868664D01*
X113258547Y-112753455D01*
X113258544Y-112753452D01*
X113143335Y-112667206D01*
X113143330Y-112667203D01*
X113050758Y-112632676D01*
X112994825Y-112590804D01*
X112970408Y-112525340D01*
X112985260Y-112457067D01*
X113016684Y-112421325D01*
X113016320Y-112420937D01*
X113020372Y-112417130D01*
X113021220Y-112416166D01*
X113022009Y-112415594D01*
X113051721Y-112379676D01*
X113055634Y-112375376D01*
X114560009Y-110871001D01*
X119892685Y-110871001D01*
X119911907Y-111090714D01*
X119911909Y-111090724D01*
X119968990Y-111303755D01*
X119968995Y-111303769D01*
X120062203Y-111503654D01*
X120062207Y-111503662D01*
X120188712Y-111684330D01*
X120344669Y-111840287D01*
X120525337Y-111966792D01*
X120525339Y-111966793D01*
X120525342Y-111966795D01*
X120576813Y-111990796D01*
X120725230Y-112060004D01*
X120725232Y-112060004D01*
X120725237Y-112060007D01*
X120938280Y-112117092D01*
X121095222Y-112130822D01*
X121157998Y-112136315D01*
X121158000Y-112136315D01*
X121158002Y-112136315D01*
X121212930Y-112131509D01*
X121377720Y-112117092D01*
X121590763Y-112060007D01*
X121790658Y-111966795D01*
X121971329Y-111840288D01*
X122127288Y-111684329D01*
X122253795Y-111503658D01*
X122347007Y-111303763D01*
X122404092Y-111090720D01*
X122423315Y-110871000D01*
X122422679Y-110863736D01*
X122406192Y-110675285D01*
X122404092Y-110651280D01*
X122347007Y-110438237D01*
X122253795Y-110238343D01*
X122127288Y-110057671D01*
X122127286Y-110057668D01*
X121971330Y-109901712D01*
X121790662Y-109775207D01*
X121790654Y-109775203D01*
X121590769Y-109681995D01*
X121590755Y-109681990D01*
X121377724Y-109624909D01*
X121377722Y-109624908D01*
X121377720Y-109624908D01*
X121377718Y-109624907D01*
X121377714Y-109624907D01*
X121158002Y-109605685D01*
X121157998Y-109605685D01*
X120938285Y-109624907D01*
X120938275Y-109624909D01*
X120725244Y-109681990D01*
X120725235Y-109681994D01*
X120525344Y-109775204D01*
X120525342Y-109775205D01*
X120344668Y-109901713D01*
X120188713Y-110057668D01*
X120062205Y-110238342D01*
X120062204Y-110238344D01*
X119968994Y-110438235D01*
X119968990Y-110438244D01*
X119911909Y-110651275D01*
X119911907Y-110651285D01*
X119892685Y-110870998D01*
X119892685Y-110871001D01*
X114560009Y-110871001D01*
X117466942Y-107964069D01*
X118312500Y-107964069D01*
X118351199Y-108146141D01*
X118351201Y-108146147D01*
X118426910Y-108316188D01*
X118426909Y-108316188D01*
X118426910Y-108316189D01*
X118536320Y-108466779D01*
X118536321Y-108466780D01*
X118536322Y-108466781D01*
X118536324Y-108466784D01*
X118620469Y-108542547D01*
X118674649Y-108591331D01*
X118835851Y-108684401D01*
X118835853Y-108684401D01*
X118835856Y-108684403D01*
X118909722Y-108708403D01*
X119012880Y-108741921D01*
X119151589Y-108756500D01*
X119151594Y-108756500D01*
X119244406Y-108756500D01*
X119244411Y-108756500D01*
X119383120Y-108741921D01*
X119560149Y-108684401D01*
X119721351Y-108591331D01*
X119833025Y-108490779D01*
X119859675Y-108466784D01*
X119859675Y-108466782D01*
X119859680Y-108466779D01*
X119969090Y-108316189D01*
X120034112Y-108170147D01*
X120044798Y-108146147D01*
X120044800Y-108146141D01*
X120083500Y-107964069D01*
X120083500Y-107777930D01*
X120044800Y-107595858D01*
X120044798Y-107595852D01*
X120014386Y-107527547D01*
X119969090Y-107425811D01*
X119859680Y-107275221D01*
X119859677Y-107275218D01*
X119859675Y-107275215D01*
X119769536Y-107194055D01*
X119721351Y-107150669D01*
X119560149Y-107057599D01*
X119560143Y-107057596D01*
X119383124Y-107000080D01*
X119383122Y-107000079D01*
X119343488Y-106995913D01*
X119244411Y-106985500D01*
X119151589Y-106985500D01*
X119064895Y-106994611D01*
X119012877Y-107000079D01*
X119012875Y-107000080D01*
X118835856Y-107057596D01*
X118835850Y-107057599D01*
X118674650Y-107150668D01*
X118536324Y-107275215D01*
X118536322Y-107275218D01*
X118426909Y-107425811D01*
X118351201Y-107595852D01*
X118351199Y-107595858D01*
X118312500Y-107777930D01*
X118312500Y-107964069D01*
X117466942Y-107964069D01*
X119161192Y-106269819D01*
X119222516Y-106236334D01*
X119248874Y-106233500D01*
X120889354Y-106233500D01*
X120904974Y-106235224D01*
X120905001Y-106234939D01*
X120912757Y-106235671D01*
X120912764Y-106235673D01*
X120981911Y-106233500D01*
X121011447Y-106233500D01*
X121018325Y-106232630D01*
X121024138Y-106232172D01*
X121070724Y-106230709D01*
X121089966Y-106225117D01*
X121109009Y-106221174D01*
X121128889Y-106218664D01*
X121172219Y-106201507D01*
X121177743Y-106199617D01*
X121181493Y-106198527D01*
X121222487Y-106186618D01*
X121239726Y-106176422D01*
X121257200Y-106167862D01*
X121275824Y-106160488D01*
X121275824Y-106160487D01*
X121275829Y-106160486D01*
X121313546Y-106133082D01*
X121318402Y-106129892D01*
X121358517Y-106106170D01*
X121372686Y-106091999D01*
X121387476Y-106079368D01*
X121403684Y-106067594D01*
X121433396Y-106031676D01*
X121437309Y-106027376D01*
X123976786Y-103487899D01*
X123989048Y-103478077D01*
X123988865Y-103477856D01*
X123994867Y-103472889D01*
X123994877Y-103472883D01*
X124042241Y-103422445D01*
X124063120Y-103401567D01*
X124067373Y-103396083D01*
X124071150Y-103391660D01*
X124103062Y-103357679D01*
X124112714Y-103340120D01*
X124123389Y-103323869D01*
X124135674Y-103308033D01*
X124154186Y-103265249D01*
X124156742Y-103260032D01*
X124179197Y-103219189D01*
X124184180Y-103199777D01*
X124190477Y-103181388D01*
X124198438Y-103162992D01*
X124204613Y-103124000D01*
X124471161Y-103124000D01*
X124490468Y-103320030D01*
X124547652Y-103508538D01*
X124613922Y-103632522D01*
X125047306Y-103199139D01*
X125108629Y-103165654D01*
X125178321Y-103170638D01*
X125234254Y-103212510D01*
X125238089Y-103217929D01*
X125240504Y-103221544D01*
X125240505Y-103221545D01*
X125295760Y-103304240D01*
X125349472Y-103340129D01*
X125382069Y-103361910D01*
X125426874Y-103415522D01*
X125435581Y-103484847D01*
X125405426Y-103547875D01*
X125400859Y-103552693D01*
X124967476Y-103986076D01*
X125091466Y-104052350D01*
X125279969Y-104109531D01*
X125279965Y-104109531D01*
X125475999Y-104128838D01*
X125672032Y-104109531D01*
X125860537Y-104052348D01*
X125984522Y-103986076D01*
X125551140Y-103552692D01*
X125517655Y-103491369D01*
X125522639Y-103421677D01*
X125564511Y-103365744D01*
X125569931Y-103361908D01*
X125573541Y-103359495D01*
X125573545Y-103359495D01*
X125656240Y-103304240D01*
X125711495Y-103221545D01*
X125711495Y-103221541D01*
X125713908Y-103217931D01*
X125767520Y-103173126D01*
X125836845Y-103164418D01*
X125899873Y-103194572D01*
X125904692Y-103199140D01*
X126338076Y-103632522D01*
X126404348Y-103508537D01*
X126461531Y-103320032D01*
X126480838Y-103124000D01*
X127518659Y-103124000D01*
X127537975Y-103320129D01*
X127541447Y-103331574D01*
X127595128Y-103508537D01*
X127595188Y-103508733D01*
X127688086Y-103682532D01*
X127688090Y-103682539D01*
X127813116Y-103834883D01*
X127965460Y-103959909D01*
X127965467Y-103959913D01*
X128139266Y-104052811D01*
X128139269Y-104052811D01*
X128139273Y-104052814D01*
X128327868Y-104110024D01*
X128524000Y-104129341D01*
X128720132Y-104110024D01*
X128908727Y-104052814D01*
X128921137Y-104046181D01*
X129082532Y-103959913D01*
X129082538Y-103959910D01*
X129234883Y-103834883D01*
X129359910Y-103682538D01*
X129452814Y-103508727D01*
X129510024Y-103320132D01*
X129529341Y-103124000D01*
X129510024Y-102927868D01*
X129452814Y-102739273D01*
X129452811Y-102739269D01*
X129452811Y-102739266D01*
X129359913Y-102565467D01*
X129359909Y-102565460D01*
X129234883Y-102413116D01*
X129082539Y-102288090D01*
X129082532Y-102288086D01*
X128908733Y-102195188D01*
X128908727Y-102195186D01*
X128758075Y-102149486D01*
X128720129Y-102137975D01*
X128524000Y-102118659D01*
X128327870Y-102137975D01*
X128139266Y-102195188D01*
X127965467Y-102288086D01*
X127965460Y-102288090D01*
X127813116Y-102413116D01*
X127688090Y-102565460D01*
X127688086Y-102565467D01*
X127595188Y-102739266D01*
X127537975Y-102927870D01*
X127518659Y-103124000D01*
X126480838Y-103124000D01*
X126480838Y-103123999D01*
X126461531Y-102927967D01*
X126404350Y-102739466D01*
X126338076Y-102615476D01*
X125904693Y-103048859D01*
X125843370Y-103082344D01*
X125773678Y-103077360D01*
X125717745Y-103035488D01*
X125713910Y-103030069D01*
X125667433Y-102960512D01*
X125656240Y-102943760D01*
X125573545Y-102888505D01*
X125573544Y-102888504D01*
X125569929Y-102886089D01*
X125525124Y-102832477D01*
X125516417Y-102763152D01*
X125546571Y-102700124D01*
X125551139Y-102695306D01*
X125984522Y-102261922D01*
X125984522Y-102261921D01*
X125860538Y-102195652D01*
X125672030Y-102138468D01*
X125476000Y-102119161D01*
X125279969Y-102138468D01*
X125091461Y-102195652D01*
X124967476Y-102261922D01*
X125400860Y-102695306D01*
X125434345Y-102756629D01*
X125429361Y-102826320D01*
X125387490Y-102882254D01*
X125382070Y-102886089D01*
X125295760Y-102943760D01*
X125238089Y-103030070D01*
X125184476Y-103074875D01*
X125115151Y-103083582D01*
X125052124Y-103053427D01*
X125047306Y-103048860D01*
X124613922Y-102615476D01*
X124547652Y-102739461D01*
X124490468Y-102927969D01*
X124471161Y-103124000D01*
X124204613Y-103124000D01*
X124205729Y-103116950D01*
X124206908Y-103111259D01*
X124218500Y-103066116D01*
X124218500Y-103046080D01*
X124220027Y-103026679D01*
X124223160Y-103006901D01*
X124218775Y-102960512D01*
X124218500Y-102954674D01*
X124218500Y-102361167D01*
X124218500Y-101730398D01*
X124235765Y-101667285D01*
X124296618Y-101564390D01*
X124340709Y-101412627D01*
X124343500Y-101377163D01*
X124343499Y-100188498D01*
X124363184Y-100121460D01*
X124415987Y-100075705D01*
X124467499Y-100064499D01*
X125656162Y-100064499D01*
X125691627Y-100061709D01*
X125745657Y-100046012D01*
X125815527Y-100046211D01*
X125874197Y-100084153D01*
X125898183Y-100126769D01*
X125918819Y-100190280D01*
X125918821Y-100190284D01*
X126013467Y-100354216D01*
X126140128Y-100494888D01*
X126140129Y-100494888D01*
X126293265Y-100606148D01*
X126293270Y-100606151D01*
X126466192Y-100683142D01*
X126466197Y-100683144D01*
X126651354Y-100722500D01*
X126651355Y-100722500D01*
X126840644Y-100722500D01*
X126840646Y-100722500D01*
X127025803Y-100683144D01*
X127198730Y-100606151D01*
X127351871Y-100494888D01*
X127478533Y-100354216D01*
X127573179Y-100190284D01*
X127631674Y-100010256D01*
X127641495Y-99916809D01*
X127668078Y-99852198D01*
X127725375Y-99812213D01*
X127730215Y-99810699D01*
X127733621Y-99809709D01*
X127733627Y-99809709D01*
X127752871Y-99804117D01*
X127771912Y-99800174D01*
X127791792Y-99797664D01*
X127835122Y-99780507D01*
X127840646Y-99778617D01*
X127844396Y-99777527D01*
X127885390Y-99765618D01*
X127902629Y-99755422D01*
X127920103Y-99746862D01*
X127938727Y-99739488D01*
X127938727Y-99739487D01*
X127938732Y-99739486D01*
X127976449Y-99712082D01*
X127981305Y-99708892D01*
X128021420Y-99685170D01*
X128035589Y-99670999D01*
X128050379Y-99658368D01*
X128066587Y-99646594D01*
X128096299Y-99610676D01*
X128100212Y-99606376D01*
X128907787Y-98798802D01*
X128920042Y-98788986D01*
X128919859Y-98788764D01*
X128925866Y-98783792D01*
X128925877Y-98783786D01*
X128956775Y-98750882D01*
X128973227Y-98733364D01*
X128983671Y-98722918D01*
X128994120Y-98712471D01*
X128998379Y-98706978D01*
X129002152Y-98702561D01*
X129034062Y-98668582D01*
X129043715Y-98651020D01*
X129054389Y-98634770D01*
X129066673Y-98618936D01*
X129085180Y-98576167D01*
X129087749Y-98570924D01*
X129100352Y-98548000D01*
X130224000Y-98548000D01*
X130224000Y-100245844D01*
X130230401Y-100305372D01*
X130230403Y-100305379D01*
X130280645Y-100440086D01*
X130280649Y-100440093D01*
X130366809Y-100555187D01*
X130366812Y-100555190D01*
X130481906Y-100641350D01*
X130481913Y-100641354D01*
X130616620Y-100691596D01*
X130616627Y-100691598D01*
X130676155Y-100697999D01*
X130676172Y-100698000D01*
X131474000Y-100698000D01*
X131474000Y-98548000D01*
X131974000Y-98548000D01*
X131974000Y-100698000D01*
X132771828Y-100698000D01*
X132771844Y-100697999D01*
X132831372Y-100691598D01*
X132831379Y-100691596D01*
X132966086Y-100641354D01*
X132966093Y-100641350D01*
X133081187Y-100555190D01*
X133081190Y-100555187D01*
X133167350Y-100440093D01*
X133167354Y-100440086D01*
X133217596Y-100305379D01*
X133217598Y-100305372D01*
X133223999Y-100245844D01*
X133224000Y-100245827D01*
X133224000Y-98548000D01*
X131974000Y-98548000D01*
X131474000Y-98548000D01*
X130224000Y-98548000D01*
X129100352Y-98548000D01*
X129110196Y-98530093D01*
X129110197Y-98530092D01*
X129115177Y-98510691D01*
X129121478Y-98492288D01*
X129129438Y-98473896D01*
X129136730Y-98427849D01*
X129137911Y-98422152D01*
X129149500Y-98377019D01*
X129149500Y-98356982D01*
X129151027Y-98337582D01*
X129154160Y-98317804D01*
X129149775Y-98271415D01*
X129149500Y-98265577D01*
X129149500Y-98048000D01*
X130224000Y-98048000D01*
X131474000Y-98048000D01*
X131474000Y-95898000D01*
X131974000Y-95898000D01*
X131974000Y-98048000D01*
X133224000Y-98048000D01*
X133224000Y-96350172D01*
X133223999Y-96350155D01*
X133217598Y-96290627D01*
X133217596Y-96290620D01*
X133167354Y-96155913D01*
X133167350Y-96155906D01*
X133081190Y-96040812D01*
X133081187Y-96040809D01*
X132966093Y-95954649D01*
X132966086Y-95954645D01*
X132831379Y-95904403D01*
X132831372Y-95904401D01*
X132771844Y-95898000D01*
X131974000Y-95898000D01*
X131474000Y-95898000D01*
X130676155Y-95898000D01*
X130616627Y-95904401D01*
X130616620Y-95904403D01*
X130481913Y-95954645D01*
X130481906Y-95954649D01*
X130366812Y-96040809D01*
X130366809Y-96040812D01*
X130280649Y-96155906D01*
X130280645Y-96155913D01*
X130230403Y-96290620D01*
X130230401Y-96290627D01*
X130224000Y-96350155D01*
X130224000Y-98048000D01*
X129149500Y-98048000D01*
X129149500Y-96964687D01*
X129169185Y-96897648D01*
X129181350Y-96881715D01*
X129199891Y-96861122D01*
X129256533Y-96798216D01*
X129351179Y-96634284D01*
X129409674Y-96454256D01*
X129429460Y-96266000D01*
X129409674Y-96077744D01*
X129351179Y-95897716D01*
X129256533Y-95733784D01*
X129129871Y-95593112D01*
X129129870Y-95593111D01*
X128976734Y-95481851D01*
X128976729Y-95481848D01*
X128803807Y-95404857D01*
X128803802Y-95404855D01*
X128629057Y-95367713D01*
X128618646Y-95365500D01*
X128429354Y-95365500D01*
X128418943Y-95367713D01*
X128244197Y-95404855D01*
X128244192Y-95404857D01*
X128071270Y-95481848D01*
X128071265Y-95481851D01*
X127918129Y-95593111D01*
X127791465Y-95733785D01*
X127791463Y-95733788D01*
X127779047Y-95755294D01*
X127728480Y-95803509D01*
X127659873Y-95816731D01*
X127595008Y-95790763D01*
X127564274Y-95755292D01*
X127478536Y-95606788D01*
X127478534Y-95606785D01*
X127470876Y-95598280D01*
X127440647Y-95535289D01*
X127445095Y-95476993D01*
X127490323Y-95337799D01*
X127510109Y-95149543D01*
X127490323Y-94961287D01*
X127431828Y-94781259D01*
X127407240Y-94738671D01*
X127380443Y-94692256D01*
X127363970Y-94624356D01*
X127386823Y-94558329D01*
X127437396Y-94516977D01*
X127452730Y-94510151D01*
X127605871Y-94398888D01*
X127732533Y-94258216D01*
X127827179Y-94094284D01*
X127885674Y-93914256D01*
X127905460Y-93726000D01*
X127885674Y-93537744D01*
X127827179Y-93357716D01*
X127732533Y-93193784D01*
X127605871Y-93053112D01*
X127573708Y-93029744D01*
X127452734Y-92941851D01*
X127452729Y-92941848D01*
X127279807Y-92864857D01*
X127279802Y-92864855D01*
X127134000Y-92833865D01*
X127094646Y-92825500D01*
X126905354Y-92825500D01*
X126872897Y-92832398D01*
X126720197Y-92864855D01*
X126720192Y-92864857D01*
X126547270Y-92941848D01*
X126547265Y-92941851D01*
X126394132Y-93053109D01*
X126394129Y-93053111D01*
X126394129Y-93053112D01*
X126360164Y-93090834D01*
X126267205Y-93194075D01*
X126207718Y-93230723D01*
X126137861Y-93229392D01*
X126087374Y-93198783D01*
X125979425Y-93090834D01*
X125979416Y-93090827D01*
X125843390Y-93010382D01*
X125843385Y-93010380D01*
X125685542Y-92964523D01*
X125686161Y-92962390D01*
X125632802Y-92935532D01*
X125597283Y-92875364D01*
X125593499Y-92844965D01*
X125593499Y-92412666D01*
X125593499Y-91910844D01*
X125613184Y-91843809D01*
X125629813Y-91823172D01*
X128780788Y-88672197D01*
X128793042Y-88662382D01*
X128792859Y-88662160D01*
X128798866Y-88657188D01*
X128798877Y-88657182D01*
X128829775Y-88624278D01*
X128846227Y-88606760D01*
X128856671Y-88596314D01*
X128867120Y-88585867D01*
X128871379Y-88580374D01*
X128875152Y-88575957D01*
X128907062Y-88541978D01*
X128916713Y-88524420D01*
X128927396Y-88508157D01*
X128939673Y-88492332D01*
X128958185Y-88449549D01*
X128960738Y-88444337D01*
X128983197Y-88403488D01*
X128988180Y-88384076D01*
X128994481Y-88365676D01*
X129002437Y-88347292D01*
X129009729Y-88301248D01*
X129010906Y-88295567D01*
X129022500Y-88250415D01*
X129022500Y-88230379D01*
X129024027Y-88210978D01*
X129025173Y-88203744D01*
X129027160Y-88191200D01*
X129022775Y-88144811D01*
X129022500Y-88138973D01*
X129022500Y-87176810D01*
X129030558Y-87132838D01*
X129063302Y-87046500D01*
X129068252Y-87033449D01*
X129088341Y-86868000D01*
X129068252Y-86702551D01*
X129009152Y-86546718D01*
X128960315Y-86475966D01*
X128914476Y-86409556D01*
X128883542Y-86382151D01*
X128819950Y-86325814D01*
X128782824Y-86266625D01*
X128783592Y-86196760D01*
X128819950Y-86140186D01*
X128914476Y-86056444D01*
X128914475Y-86056444D01*
X128920092Y-86051469D01*
X128921754Y-86053345D01*
X128970721Y-86022611D01*
X129006509Y-86017974D01*
X133990141Y-86103898D01*
X134056828Y-86124736D01*
X134101666Y-86178321D01*
X134112000Y-86227880D01*
X134112000Y-90571981D01*
X134092315Y-90639020D01*
X134039511Y-90684775D01*
X133970353Y-90694719D01*
X133906797Y-90665694D01*
X133869023Y-90606916D01*
X133864680Y-90584949D01*
X133854674Y-90489744D01*
X133796179Y-90309716D01*
X133701533Y-90145784D01*
X133574871Y-90005112D01*
X133563965Y-89997188D01*
X133421734Y-89893851D01*
X133421729Y-89893848D01*
X133248807Y-89816857D01*
X133248802Y-89816855D01*
X133103000Y-89785865D01*
X133063646Y-89777500D01*
X132874354Y-89777500D01*
X132841897Y-89784398D01*
X132689197Y-89816855D01*
X132689192Y-89816857D01*
X132516270Y-89893848D01*
X132516265Y-89893851D01*
X132363129Y-90005111D01*
X132236466Y-90145785D01*
X132141821Y-90309715D01*
X132141818Y-90309722D01*
X132100301Y-90437500D01*
X132083326Y-90489744D01*
X132063540Y-90678000D01*
X132063540Y-90678002D01*
X132063540Y-90684496D01*
X132062199Y-90684496D01*
X132057607Y-90726943D01*
X132003826Y-90889244D01*
X132003825Y-90889248D01*
X131993500Y-90990315D01*
X131993500Y-91663669D01*
X131993501Y-91663687D01*
X132003825Y-91764752D01*
X132028542Y-91839341D01*
X132058092Y-91928516D01*
X132148659Y-92075349D01*
X132148661Y-92075351D01*
X132187629Y-92114320D01*
X132221114Y-92175643D01*
X132216128Y-92245335D01*
X132187629Y-92289680D01*
X132148661Y-92328648D01*
X132058093Y-92475481D01*
X132055042Y-92482027D01*
X132052432Y-92480810D01*
X132020112Y-92527468D01*
X131955590Y-92554275D01*
X131942202Y-92555000D01*
X131819237Y-92555000D01*
X131803620Y-92553276D01*
X131803593Y-92553562D01*
X131795831Y-92552827D01*
X131726703Y-92555000D01*
X131697150Y-92555000D01*
X131696429Y-92555090D01*
X131690257Y-92555869D01*
X131684445Y-92556326D01*
X131637873Y-92557790D01*
X131637872Y-92557790D01*
X131618629Y-92563381D01*
X131599580Y-92567325D01*
X131571969Y-92570813D01*
X131571794Y-92569433D01*
X131546144Y-92571316D01*
X131546144Y-92571500D01*
X131543649Y-92571500D01*
X131541293Y-92571673D01*
X131539646Y-92571500D01*
X131350354Y-92571500D01*
X131327024Y-92576459D01*
X131165197Y-92610855D01*
X131165192Y-92610857D01*
X131029486Y-92671279D01*
X130979050Y-92682000D01*
X130871826Y-92682000D01*
X130804787Y-92662315D01*
X130766287Y-92623096D01*
X130763022Y-92617803D01*
X130741340Y-92582650D01*
X130702370Y-92543680D01*
X130668886Y-92482358D01*
X130673870Y-92412666D01*
X130702371Y-92368319D01*
X130713834Y-92356856D01*
X130741340Y-92329350D01*
X130831908Y-92182516D01*
X130886174Y-92018753D01*
X130896500Y-91917677D01*
X130896499Y-91244324D01*
X130886174Y-91143247D01*
X130831908Y-90979484D01*
X130831906Y-90979480D01*
X130828854Y-90972935D01*
X130830904Y-90971978D01*
X130815346Y-90915164D01*
X130816002Y-90904496D01*
X130826460Y-90805000D01*
X130806674Y-90616744D01*
X130748179Y-90436716D01*
X130653533Y-90272784D01*
X130526871Y-90132112D01*
X130526870Y-90132111D01*
X130373734Y-90020851D01*
X130373729Y-90020848D01*
X130200807Y-89943857D01*
X130200802Y-89943855D01*
X130055001Y-89912865D01*
X130015646Y-89904500D01*
X129826354Y-89904500D01*
X129793897Y-89911398D01*
X129641197Y-89943855D01*
X129641192Y-89943857D01*
X129468270Y-90020848D01*
X129468265Y-90020851D01*
X129315129Y-90132111D01*
X129188466Y-90272785D01*
X129093821Y-90436715D01*
X129093818Y-90436722D01*
X129038519Y-90606916D01*
X129035326Y-90616744D01*
X129015540Y-90804999D01*
X129015540Y-90805000D01*
X129025994Y-90904474D01*
X129013424Y-90973204D01*
X129010983Y-90977571D01*
X129010094Y-90979478D01*
X129010092Y-90979483D01*
X129010092Y-90979484D01*
X128955826Y-91143247D01*
X128955826Y-91143248D01*
X128955825Y-91143248D01*
X128945500Y-91244315D01*
X128945500Y-91917669D01*
X128945501Y-91917687D01*
X128955825Y-92018752D01*
X129010092Y-92182515D01*
X129010093Y-92182518D01*
X129022110Y-92202000D01*
X129100228Y-92328650D01*
X129100661Y-92329351D01*
X129139629Y-92368320D01*
X129173114Y-92429643D01*
X129168128Y-92499335D01*
X129139629Y-92543680D01*
X129100661Y-92582648D01*
X129010093Y-92729481D01*
X129010091Y-92729484D01*
X129010092Y-92729484D01*
X128955826Y-92893247D01*
X128955826Y-92893248D01*
X128955825Y-92893248D01*
X128945500Y-92994315D01*
X128945500Y-93667669D01*
X128945501Y-93667687D01*
X128955825Y-93768752D01*
X128987991Y-93865819D01*
X129002830Y-93910602D01*
X129010092Y-93932515D01*
X129010093Y-93932518D01*
X129034763Y-93972514D01*
X129100660Y-94079350D01*
X129222650Y-94201340D01*
X129369484Y-94291908D01*
X129533247Y-94346174D01*
X129634323Y-94356500D01*
X130207676Y-94356499D01*
X130207684Y-94356498D01*
X130207687Y-94356498D01*
X130263030Y-94350844D01*
X130308753Y-94346174D01*
X130472516Y-94291908D01*
X130619350Y-94201340D01*
X130669978Y-94150711D01*
X130731302Y-94117226D01*
X130800994Y-94122210D01*
X130833328Y-94141815D01*
X130833871Y-94141069D01*
X130992265Y-94256148D01*
X130992270Y-94256151D01*
X131165192Y-94333142D01*
X131165197Y-94333144D01*
X131350354Y-94372500D01*
X131350355Y-94372500D01*
X131539644Y-94372500D01*
X131539646Y-94372500D01*
X131724803Y-94333144D01*
X131897730Y-94256151D01*
X132050871Y-94144888D01*
X132174499Y-94007585D01*
X132233981Y-93970939D01*
X132303838Y-93972269D01*
X132331742Y-93985022D01*
X132417475Y-94037903D01*
X132417478Y-94037904D01*
X132417484Y-94037908D01*
X132581247Y-94092174D01*
X132682323Y-94102500D01*
X133255676Y-94102499D01*
X133255684Y-94102498D01*
X133255687Y-94102498D01*
X133336097Y-94094284D01*
X133356753Y-94092174D01*
X133520516Y-94037908D01*
X133667350Y-93947340D01*
X133748871Y-93865818D01*
X133810194Y-93832334D01*
X133836552Y-93829500D01*
X133988000Y-93829500D01*
X134055039Y-93849185D01*
X134100794Y-93901989D01*
X134112000Y-93953500D01*
X134111999Y-110439957D01*
X134092314Y-110506996D01*
X134081380Y-110521542D01*
X133951235Y-110670503D01*
X133951234Y-110670505D01*
X133907946Y-110742957D01*
X133856664Y-110790410D01*
X133787866Y-110802605D01*
X133723397Y-110775670D01*
X133683725Y-110718155D01*
X133677499Y-110679357D01*
X133677499Y-110610629D01*
X133677498Y-110610623D01*
X133677497Y-110610616D01*
X133671091Y-110551017D01*
X133654672Y-110506996D01*
X133620797Y-110416171D01*
X133620793Y-110416164D01*
X133534547Y-110300955D01*
X133534544Y-110300952D01*
X133419335Y-110214706D01*
X133419328Y-110214702D01*
X133284482Y-110164408D01*
X133284483Y-110164408D01*
X133224883Y-110158001D01*
X133224881Y-110158000D01*
X133224873Y-110158000D01*
X133224864Y-110158000D01*
X131629129Y-110158000D01*
X131629123Y-110158001D01*
X131569516Y-110164408D01*
X131434671Y-110214702D01*
X131434664Y-110214706D01*
X131319455Y-110300952D01*
X131319452Y-110300955D01*
X131233206Y-110416164D01*
X131233202Y-110416171D01*
X131182908Y-110551017D01*
X131179532Y-110582422D01*
X131176501Y-110610623D01*
X131176500Y-110610635D01*
X131176500Y-113006370D01*
X131176501Y-113006376D01*
X131182908Y-113065983D01*
X131233202Y-113200828D01*
X131233206Y-113200835D01*
X131319452Y-113316044D01*
X131319455Y-113316047D01*
X131434664Y-113402293D01*
X131434671Y-113402297D01*
X131479618Y-113419061D01*
X131569517Y-113452591D01*
X131629127Y-113459000D01*
X131677500Y-113458999D01*
X131744537Y-113478682D01*
X131790293Y-113531485D01*
X131801500Y-113582999D01*
X131801500Y-115231010D01*
X131781815Y-115298049D01*
X131729011Y-115343804D01*
X131659853Y-115353748D01*
X131598835Y-115326863D01*
X131495539Y-115242091D01*
X131495532Y-115242086D01*
X131321733Y-115149188D01*
X131321727Y-115149186D01*
X131155618Y-115098797D01*
X131133129Y-115091975D01*
X130937000Y-115072659D01*
X130740870Y-115091975D01*
X130552266Y-115149188D01*
X130378467Y-115242086D01*
X130378460Y-115242090D01*
X130226116Y-115367116D01*
X130193250Y-115407165D01*
X130135505Y-115446499D01*
X130097397Y-115452500D01*
X124412737Y-115452500D01*
X124397120Y-115450776D01*
X124397093Y-115451062D01*
X124389331Y-115450327D01*
X124320203Y-115452500D01*
X124290650Y-115452500D01*
X124289929Y-115452590D01*
X124283757Y-115453369D01*
X124277945Y-115453826D01*
X124231373Y-115455290D01*
X124231372Y-115455290D01*
X124212129Y-115460881D01*
X124193079Y-115464825D01*
X124173211Y-115467334D01*
X124173209Y-115467335D01*
X124129884Y-115484488D01*
X124124357Y-115486380D01*
X124079610Y-115499381D01*
X124079609Y-115499382D01*
X124062367Y-115509579D01*
X124044899Y-115518137D01*
X124026269Y-115525513D01*
X124026267Y-115525514D01*
X123988576Y-115552898D01*
X123983694Y-115556105D01*
X123943579Y-115579830D01*
X123929408Y-115594000D01*
X123914623Y-115606628D01*
X123898412Y-115618407D01*
X123868709Y-115654310D01*
X123864777Y-115658631D01*
X123564202Y-115959204D01*
X123502879Y-115992689D01*
X123478521Y-115995507D01*
X119584062Y-116058321D01*
X119543744Y-116052268D01*
X119383124Y-116000080D01*
X119383122Y-116000079D01*
X119343488Y-115995913D01*
X119244411Y-115985500D01*
X119151589Y-115985500D01*
X119064895Y-115994611D01*
X119012877Y-116000079D01*
X119012875Y-116000080D01*
X118835849Y-116057599D01*
X118829914Y-116060242D01*
X118828922Y-116058015D01*
X118780909Y-116071275D01*
X118364000Y-116078000D01*
X118364000Y-116540751D01*
X118353281Y-116591183D01*
X118351201Y-116595854D01*
X118351199Y-116595859D01*
X118312500Y-116777930D01*
X118312500Y-116964069D01*
X118351199Y-117146141D01*
X118351200Y-117146144D01*
X118353281Y-117150817D01*
X118363999Y-117201248D01*
X118363999Y-119949478D01*
X118344314Y-120016517D01*
X118291510Y-120062272D01*
X118252606Y-120072836D01*
X118241200Y-120074001D01*
X118074668Y-120129185D01*
X118074663Y-120129187D01*
X117925342Y-120221289D01*
X117801289Y-120345342D01*
X117709187Y-120494663D01*
X117709185Y-120494668D01*
X117696649Y-120532500D01*
X117654001Y-120661203D01*
X117654001Y-120661204D01*
X117654000Y-120661204D01*
X117643500Y-120763983D01*
X117643500Y-121564001D01*
X117643501Y-121564019D01*
X117654000Y-121666796D01*
X117654001Y-121666799D01*
X117682933Y-121754108D01*
X117709186Y-121833334D01*
X117801288Y-121982656D01*
X117925344Y-122106712D01*
X118074666Y-122198814D01*
X118241203Y-122253999D01*
X118252598Y-122255163D01*
X118317291Y-122281557D01*
X118357443Y-122338737D01*
X118363999Y-122378521D01*
X118363999Y-124509478D01*
X118344314Y-124576517D01*
X118291510Y-124622272D01*
X118252604Y-124632836D01*
X118241208Y-124634000D01*
X118241201Y-124634001D01*
X118074668Y-124689185D01*
X118074663Y-124689187D01*
X117925342Y-124781289D01*
X117801289Y-124905342D01*
X117709187Y-125054663D01*
X117709185Y-125054666D01*
X117709186Y-125054666D01*
X117654001Y-125221203D01*
X117654001Y-125221204D01*
X117654000Y-125221204D01*
X117643500Y-125323983D01*
X117643500Y-125359240D01*
X117633056Y-125409049D01*
X117622938Y-125432116D01*
X117622936Y-125432120D01*
X117561892Y-125673175D01*
X117561890Y-125673186D01*
X117555187Y-125754091D01*
X117546595Y-125857793D01*
X117546500Y-125858935D01*
X117546500Y-128553065D01*
X117561890Y-128738813D01*
X117561892Y-128738824D01*
X117622936Y-128979881D01*
X117722826Y-129207606D01*
X117858833Y-129415782D01*
X117858836Y-129415785D01*
X118027256Y-129598738D01*
X118149764Y-129694090D01*
X118223488Y-129751472D01*
X118223492Y-129751475D01*
X118255198Y-129768633D01*
X118299018Y-129792347D01*
X118348608Y-129841565D01*
X118364000Y-129901401D01*
X118364000Y-138178500D01*
X118344315Y-138245539D01*
X118291511Y-138291294D01*
X118240000Y-138302500D01*
X98680879Y-138302500D01*
X98677134Y-138302387D01*
X98580069Y-138296515D01*
X98399518Y-138284680D01*
X98392392Y-138283796D01*
X98265493Y-138260542D01*
X98116719Y-138230949D01*
X98110366Y-138229332D01*
X97981427Y-138189153D01*
X97842957Y-138142149D01*
X97837438Y-138139976D01*
X97711877Y-138083467D01*
X97582506Y-138019668D01*
X97577856Y-138017122D01*
X97459990Y-137945870D01*
X97457659Y-137944388D01*
X97339507Y-137865442D01*
X97335715Y-137862696D01*
X97226862Y-137777415D01*
X97224219Y-137775223D01*
X97117758Y-137681859D01*
X97114811Y-137679099D01*
X97016898Y-137581186D01*
X97014139Y-137578240D01*
X96920775Y-137471779D01*
X96918597Y-137469153D01*
X96833294Y-137360272D01*
X96830564Y-137356502D01*
X96751596Y-137238317D01*
X96750149Y-137236042D01*
X96678876Y-137118141D01*
X96676339Y-137113510D01*
X96612535Y-136984128D01*
X96556022Y-136858560D01*
X96553849Y-136853041D01*
X96506846Y-136714572D01*
X96484773Y-136643739D01*
X96466662Y-136585618D01*
X96465049Y-136579278D01*
X96435457Y-136430507D01*
X96412202Y-136303607D01*
X96411318Y-136296480D01*
X96399484Y-136115931D01*
X96393611Y-136018836D01*
X96393500Y-136015155D01*
X96393500Y-132213186D01*
X101518504Y-132213186D01*
X101538798Y-132347822D01*
X101557608Y-132472614D01*
X101557609Y-132472616D01*
X101557610Y-132472622D01*
X101634942Y-132723325D01*
X101748771Y-132959695D01*
X101748772Y-132959696D01*
X101748774Y-132959699D01*
X101748776Y-132959703D01*
X101896570Y-133176477D01*
X101896571Y-133176478D01*
X102075018Y-133368800D01*
X102075022Y-133368803D01*
X102075023Y-133368804D01*
X102280147Y-133532385D01*
X102507361Y-133663567D01*
X102751588Y-133759419D01*
X103007374Y-133817801D01*
X103007380Y-133817801D01*
X103007383Y-133817802D01*
X103203504Y-133832499D01*
X103203510Y-133832499D01*
X103334504Y-133832499D01*
X103530624Y-133817802D01*
X103530626Y-133817801D01*
X103530634Y-133817801D01*
X103786420Y-133759419D01*
X104030647Y-133663567D01*
X104257861Y-133532385D01*
X104462985Y-133368804D01*
X104641437Y-133176478D01*
X104789232Y-132959703D01*
X104903067Y-132723322D01*
X104980400Y-132472614D01*
X105019503Y-132213186D01*
X106218494Y-132213186D01*
X106238788Y-132347822D01*
X106257598Y-132472614D01*
X106257599Y-132472616D01*
X106257600Y-132472622D01*
X106334932Y-132723325D01*
X106448761Y-132959695D01*
X106448762Y-132959696D01*
X106448764Y-132959699D01*
X106448766Y-132959703D01*
X106596561Y-133176478D01*
X106775008Y-133368800D01*
X106775012Y-133368803D01*
X106775013Y-133368804D01*
X106980137Y-133532385D01*
X107207351Y-133663567D01*
X107451578Y-133759419D01*
X107707364Y-133817801D01*
X107707370Y-133817801D01*
X107707373Y-133817802D01*
X107903494Y-133832499D01*
X107903500Y-133832499D01*
X108034494Y-133832499D01*
X108230614Y-133817802D01*
X108230616Y-133817801D01*
X108230624Y-133817801D01*
X108486410Y-133759419D01*
X108730637Y-133663567D01*
X108957851Y-133532385D01*
X109162975Y-133368804D01*
X109341427Y-133176478D01*
X109489222Y-132959703D01*
X109603057Y-132723322D01*
X109680390Y-132472614D01*
X109719494Y-132213181D01*
X109719494Y-131950817D01*
X109680390Y-131691384D01*
X109603057Y-131440676D01*
X109564501Y-131360614D01*
X109489226Y-131204302D01*
X109489225Y-131204301D01*
X109489224Y-131204300D01*
X109489222Y-131204295D01*
X109341427Y-130987520D01*
X109331435Y-130976752D01*
X109162979Y-130795197D01*
X109123527Y-130763735D01*
X108957851Y-130631613D01*
X108730637Y-130500431D01*
X108486410Y-130404579D01*
X108486405Y-130404577D01*
X108486396Y-130404575D01*
X108268812Y-130354913D01*
X108230624Y-130346197D01*
X108230623Y-130346196D01*
X108230619Y-130346196D01*
X108230614Y-130346195D01*
X108034494Y-130331499D01*
X108034488Y-130331499D01*
X107903500Y-130331499D01*
X107903494Y-130331499D01*
X107707373Y-130346195D01*
X107707368Y-130346196D01*
X107451591Y-130404575D01*
X107451572Y-130404581D01*
X107207350Y-130500431D01*
X106980137Y-130631613D01*
X106775008Y-130795197D01*
X106596561Y-130987519D01*
X106448762Y-131204301D01*
X106448761Y-131204302D01*
X106334932Y-131440672D01*
X106257600Y-131691375D01*
X106257599Y-131691380D01*
X106257598Y-131691384D01*
X106249137Y-131747521D01*
X106218494Y-131950811D01*
X106218494Y-132213186D01*
X105019503Y-132213186D01*
X105019504Y-132213181D01*
X105019504Y-131950817D01*
X104980400Y-131691384D01*
X104903067Y-131440676D01*
X104864511Y-131360614D01*
X104789236Y-131204302D01*
X104789235Y-131204301D01*
X104789234Y-131204300D01*
X104789232Y-131204295D01*
X104641437Y-130987520D01*
X104631445Y-130976752D01*
X104462989Y-130795197D01*
X104423537Y-130763735D01*
X104257861Y-130631613D01*
X104030647Y-130500431D01*
X103786420Y-130404579D01*
X103786415Y-130404577D01*
X103786406Y-130404575D01*
X103568822Y-130354913D01*
X103530634Y-130346197D01*
X103530633Y-130346196D01*
X103530629Y-130346196D01*
X103530624Y-130346195D01*
X103334504Y-130331499D01*
X103334498Y-130331499D01*
X103203510Y-130331499D01*
X103203504Y-130331499D01*
X103007383Y-130346195D01*
X103007378Y-130346196D01*
X102751601Y-130404575D01*
X102751582Y-130404581D01*
X102507360Y-130500431D01*
X102280147Y-130631613D01*
X102075018Y-130795197D01*
X101896571Y-130987519D01*
X101748772Y-131204301D01*
X101748771Y-131204302D01*
X101634942Y-131440672D01*
X101557610Y-131691375D01*
X101557609Y-131691380D01*
X101557608Y-131691384D01*
X101549147Y-131747521D01*
X101518504Y-131950811D01*
X101518504Y-132213186D01*
X96393500Y-132213186D01*
X96393500Y-120393335D01*
X98067500Y-120393335D01*
X98076475Y-120447118D01*
X98108429Y-120638616D01*
X98189169Y-120873802D01*
X98189172Y-120873811D01*
X98261037Y-121006605D01*
X98307526Y-121092509D01*
X98460262Y-121288744D01*
X98619744Y-121435557D01*
X98643217Y-121457166D01*
X98851393Y-121593173D01*
X99079118Y-121693063D01*
X99171819Y-121716538D01*
X99320179Y-121754108D01*
X99320181Y-121754108D01*
X99320186Y-121754109D01*
X99453376Y-121765145D01*
X99505933Y-121769500D01*
X99505935Y-121769500D01*
X99630065Y-121769500D01*
X99630067Y-121769500D01*
X99691284Y-121764427D01*
X99815813Y-121754109D01*
X99815816Y-121754108D01*
X99815821Y-121754108D01*
X100056881Y-121693063D01*
X100284607Y-121593173D01*
X100492785Y-121457164D01*
X100675738Y-121288744D01*
X100828474Y-121092509D01*
X100946828Y-120873810D01*
X101027571Y-120638614D01*
X101068500Y-120393335D01*
X101068500Y-120144665D01*
X101027571Y-119899386D01*
X100946828Y-119664190D01*
X100828474Y-119445491D01*
X100675738Y-119249256D01*
X100492785Y-119080836D01*
X100492782Y-119080833D01*
X100284606Y-118944826D01*
X100056881Y-118844936D01*
X99815824Y-118783892D01*
X99815813Y-118783890D01*
X99650548Y-118770197D01*
X99630067Y-118768500D01*
X99505933Y-118768500D01*
X99486521Y-118770108D01*
X99320186Y-118783890D01*
X99320175Y-118783892D01*
X99079118Y-118844936D01*
X98851393Y-118944826D01*
X98643217Y-119080833D01*
X98460261Y-119249257D01*
X98307524Y-119445493D01*
X98189172Y-119664188D01*
X98189169Y-119664197D01*
X98108429Y-119899383D01*
X98079486Y-120072836D01*
X98067500Y-120144665D01*
X98067500Y-120393335D01*
X96393500Y-120393335D01*
X96393500Y-116988069D01*
X100217500Y-116988069D01*
X100256199Y-117170141D01*
X100256201Y-117170147D01*
X100311742Y-117294891D01*
X100321224Y-117316189D01*
X100331910Y-117340188D01*
X100331909Y-117340188D01*
X100331910Y-117340189D01*
X100441320Y-117490779D01*
X100441321Y-117490780D01*
X100441322Y-117490781D01*
X100441324Y-117490784D01*
X100525469Y-117566547D01*
X100579649Y-117615331D01*
X100740851Y-117708401D01*
X100740853Y-117708401D01*
X100740856Y-117708403D01*
X100829365Y-117737160D01*
X100917880Y-117765921D01*
X101056589Y-117780500D01*
X101056594Y-117780500D01*
X101149406Y-117780500D01*
X101149411Y-117780500D01*
X101288120Y-117765921D01*
X101465149Y-117708401D01*
X101626351Y-117615331D01*
X101734709Y-117517764D01*
X101764675Y-117490784D01*
X101764675Y-117490782D01*
X101764680Y-117490779D01*
X101874090Y-117340189D01*
X101949800Y-117170142D01*
X101988500Y-116988070D01*
X101988500Y-116801930D01*
X101949800Y-116619858D01*
X101949798Y-116619852D01*
X101914579Y-116540751D01*
X101874090Y-116449811D01*
X101764680Y-116299221D01*
X101764677Y-116299218D01*
X101764675Y-116299215D01*
X101674536Y-116218055D01*
X101626351Y-116174669D01*
X101465149Y-116081599D01*
X101465143Y-116081596D01*
X101288124Y-116024080D01*
X101288122Y-116024079D01*
X101239949Y-116019016D01*
X101149411Y-116009500D01*
X101056589Y-116009500D01*
X100969895Y-116018611D01*
X100917877Y-116024079D01*
X100917875Y-116024080D01*
X100740856Y-116081596D01*
X100740850Y-116081599D01*
X100579650Y-116174668D01*
X100441324Y-116299215D01*
X100441322Y-116299218D01*
X100331909Y-116449811D01*
X100256201Y-116619852D01*
X100256199Y-116619858D01*
X100217500Y-116801930D01*
X100217500Y-116988069D01*
X96393500Y-116988069D01*
X96393500Y-110895001D01*
X101797685Y-110895001D01*
X101816907Y-111114714D01*
X101816909Y-111114724D01*
X101873990Y-111327755D01*
X101873995Y-111327769D01*
X101967203Y-111527654D01*
X101967207Y-111527662D01*
X102093712Y-111708330D01*
X102249669Y-111864287D01*
X102430337Y-111990792D01*
X102430339Y-111990793D01*
X102430342Y-111990795D01*
X102550603Y-112046873D01*
X102630230Y-112084004D01*
X102630232Y-112084004D01*
X102630237Y-112084007D01*
X102843280Y-112141092D01*
X103000222Y-112154822D01*
X103062998Y-112160315D01*
X103063000Y-112160315D01*
X103063002Y-112160315D01*
X103117929Y-112155509D01*
X103282720Y-112141092D01*
X103495763Y-112084007D01*
X103695658Y-111990795D01*
X103876329Y-111864288D01*
X104032288Y-111708329D01*
X104158795Y-111527658D01*
X104252007Y-111327763D01*
X104309092Y-111114720D01*
X104328315Y-110895000D01*
X104309092Y-110675280D01*
X104252007Y-110462237D01*
X104158795Y-110262343D01*
X104032288Y-110081671D01*
X104032286Y-110081668D01*
X103876330Y-109925712D01*
X103695662Y-109799207D01*
X103695654Y-109799203D01*
X103495769Y-109705995D01*
X103495755Y-109705990D01*
X103282724Y-109648909D01*
X103282722Y-109648908D01*
X103282720Y-109648908D01*
X103282718Y-109648907D01*
X103282714Y-109648907D01*
X103063002Y-109629685D01*
X103062998Y-109629685D01*
X102843285Y-109648907D01*
X102843275Y-109648909D01*
X102630244Y-109705990D01*
X102630235Y-109705994D01*
X102430344Y-109799204D01*
X102430342Y-109799205D01*
X102249668Y-109925713D01*
X102093713Y-110081668D01*
X101967205Y-110262342D01*
X101967204Y-110262344D01*
X101873994Y-110462235D01*
X101873990Y-110462244D01*
X101816909Y-110675275D01*
X101816907Y-110675285D01*
X101797685Y-110894998D01*
X101797685Y-110895001D01*
X96393500Y-110895001D01*
X96393500Y-107988069D01*
X100217500Y-107988069D01*
X100256199Y-108170141D01*
X100256201Y-108170147D01*
X100311742Y-108294891D01*
X100321224Y-108316189D01*
X100331910Y-108340188D01*
X100331909Y-108340188D01*
X100331910Y-108340189D01*
X100441320Y-108490779D01*
X100441321Y-108490780D01*
X100441322Y-108490781D01*
X100441324Y-108490784D01*
X100525469Y-108566547D01*
X100579649Y-108615331D01*
X100740851Y-108708401D01*
X100740853Y-108708401D01*
X100740856Y-108708403D01*
X100829365Y-108737160D01*
X100917880Y-108765921D01*
X101056589Y-108780500D01*
X101056594Y-108780500D01*
X101149406Y-108780500D01*
X101149411Y-108780500D01*
X101288120Y-108765921D01*
X101465149Y-108708401D01*
X101626351Y-108615331D01*
X101734709Y-108517764D01*
X101764675Y-108490784D01*
X101764675Y-108490782D01*
X101764680Y-108490779D01*
X101874090Y-108340189D01*
X101949800Y-108170142D01*
X101988500Y-107988070D01*
X101988500Y-107801930D01*
X101949800Y-107619858D01*
X101949798Y-107619852D01*
X101888932Y-107483147D01*
X101874090Y-107449811D01*
X101764680Y-107299221D01*
X101764677Y-107299218D01*
X101764675Y-107299215D01*
X101674536Y-107218055D01*
X101626351Y-107174669D01*
X101465149Y-107081599D01*
X101465143Y-107081596D01*
X101288124Y-107024080D01*
X101288122Y-107024079D01*
X101248488Y-107019913D01*
X101149411Y-107009500D01*
X101056589Y-107009500D01*
X100969895Y-107018611D01*
X100917877Y-107024079D01*
X100917875Y-107024080D01*
X100740856Y-107081596D01*
X100740850Y-107081599D01*
X100579650Y-107174668D01*
X100441324Y-107299215D01*
X100441322Y-107299218D01*
X100331909Y-107449811D01*
X100256201Y-107619852D01*
X100256199Y-107619858D01*
X100217500Y-107801930D01*
X100217500Y-107988069D01*
X96393500Y-107988069D01*
X96393500Y-101645069D01*
X99135500Y-101645069D01*
X99174199Y-101827141D01*
X99174201Y-101827147D01*
X99249910Y-101997188D01*
X99249909Y-101997188D01*
X99249910Y-101997189D01*
X99359320Y-102147779D01*
X99359321Y-102147780D01*
X99359322Y-102147781D01*
X99359324Y-102147784D01*
X99412488Y-102195652D01*
X99497649Y-102272331D01*
X99658851Y-102365401D01*
X99658853Y-102365401D01*
X99658856Y-102365403D01*
X99747365Y-102394161D01*
X99835880Y-102422921D01*
X99974589Y-102437500D01*
X99974594Y-102437500D01*
X100067406Y-102437500D01*
X100067411Y-102437500D01*
X100206120Y-102422921D01*
X100383149Y-102365401D01*
X100544351Y-102272331D01*
X100652709Y-102174764D01*
X100682675Y-102147784D01*
X100682675Y-102147782D01*
X100682680Y-102147779D01*
X100792090Y-101997189D01*
X100867800Y-101827142D01*
X100906500Y-101645070D01*
X100906500Y-101458930D01*
X100867800Y-101276858D01*
X100867798Y-101276852D01*
X100837386Y-101208547D01*
X100792090Y-101106811D01*
X100682680Y-100956221D01*
X100682677Y-100956218D01*
X100682675Y-100956215D01*
X100592536Y-100875055D01*
X100544351Y-100831669D01*
X100383149Y-100738599D01*
X100383143Y-100738596D01*
X100206124Y-100681080D01*
X100206122Y-100681079D01*
X100166488Y-100676913D01*
X100067411Y-100666500D01*
X99974589Y-100666500D01*
X99887895Y-100675611D01*
X99835877Y-100681079D01*
X99835875Y-100681080D01*
X99658856Y-100738596D01*
X99658850Y-100738599D01*
X99497650Y-100831668D01*
X99359324Y-100956215D01*
X99359322Y-100956218D01*
X99249909Y-101106811D01*
X99174201Y-101276852D01*
X99174199Y-101276858D01*
X99135500Y-101458930D01*
X99135500Y-101645069D01*
X96393500Y-101645069D01*
X96393500Y-89645069D01*
X99135500Y-89645069D01*
X99174199Y-89827141D01*
X99174201Y-89827147D01*
X99249910Y-89997188D01*
X99249909Y-89997188D01*
X99255666Y-90005112D01*
X99359320Y-90147779D01*
X99359321Y-90147780D01*
X99359322Y-90147781D01*
X99359324Y-90147784D01*
X99443469Y-90223547D01*
X99497649Y-90272331D01*
X99658851Y-90365401D01*
X99658853Y-90365401D01*
X99658856Y-90365403D01*
X99747365Y-90394161D01*
X99835880Y-90422921D01*
X99974589Y-90437500D01*
X99974594Y-90437500D01*
X100067406Y-90437500D01*
X100067411Y-90437500D01*
X100206120Y-90422921D01*
X100383149Y-90365401D01*
X100544351Y-90272331D01*
X100652709Y-90174764D01*
X100682675Y-90147784D01*
X100682675Y-90147782D01*
X100682680Y-90147779D01*
X100792090Y-89997189D01*
X100867800Y-89827142D01*
X100906500Y-89645070D01*
X100906500Y-89458930D01*
X100867800Y-89276858D01*
X100867798Y-89276852D01*
X100829785Y-89191476D01*
X100792090Y-89106811D01*
X100682680Y-88956221D01*
X100682677Y-88956218D01*
X100682675Y-88956215D01*
X100547227Y-88834259D01*
X100544351Y-88831669D01*
X100383149Y-88738599D01*
X100383143Y-88738596D01*
X100206124Y-88681080D01*
X100206122Y-88681079D01*
X100166488Y-88676913D01*
X100067411Y-88666500D01*
X99974589Y-88666500D01*
X99887895Y-88675611D01*
X99835877Y-88681079D01*
X99835875Y-88681080D01*
X99658856Y-88738596D01*
X99658850Y-88738599D01*
X99497650Y-88831668D01*
X99359324Y-88956215D01*
X99359322Y-88956218D01*
X99249909Y-89106811D01*
X99174201Y-89276852D01*
X99174199Y-89276858D01*
X99135500Y-89458930D01*
X99135500Y-89645069D01*
X96393500Y-89645069D01*
X96393500Y-86254069D01*
X97333500Y-86254069D01*
X97372199Y-86436141D01*
X97372201Y-86436147D01*
X97447910Y-86606188D01*
X97447909Y-86606188D01*
X97484380Y-86656385D01*
X97557320Y-86756779D01*
X97557321Y-86756780D01*
X97557322Y-86756781D01*
X97557324Y-86756784D01*
X97641469Y-86832547D01*
X97695649Y-86881331D01*
X97856851Y-86974401D01*
X97856853Y-86974401D01*
X97856856Y-86974403D01*
X97894808Y-86986734D01*
X98033880Y-87031921D01*
X98172589Y-87046500D01*
X98172594Y-87046500D01*
X98265406Y-87046500D01*
X98265411Y-87046500D01*
X98404120Y-87031921D01*
X98581149Y-86974401D01*
X98742351Y-86881331D01*
X98864737Y-86771134D01*
X98880675Y-86756784D01*
X98880675Y-86756782D01*
X98880680Y-86756779D01*
X98990090Y-86606189D01*
X99058508Y-86452521D01*
X99065798Y-86436147D01*
X99065800Y-86436141D01*
X99077277Y-86382148D01*
X99104500Y-86254070D01*
X99104500Y-86254069D01*
X106333500Y-86254069D01*
X106372199Y-86436141D01*
X106372201Y-86436147D01*
X106447910Y-86606188D01*
X106447909Y-86606188D01*
X106484379Y-86656385D01*
X106557320Y-86756779D01*
X106557321Y-86756780D01*
X106557322Y-86756781D01*
X106557324Y-86756784D01*
X106641469Y-86832547D01*
X106695649Y-86881331D01*
X106856851Y-86974401D01*
X106856853Y-86974401D01*
X106856856Y-86974403D01*
X106894808Y-86986734D01*
X107033880Y-87031921D01*
X107172589Y-87046500D01*
X107172594Y-87046500D01*
X107265406Y-87046500D01*
X107265411Y-87046500D01*
X107404120Y-87031921D01*
X107581149Y-86974401D01*
X107742351Y-86881331D01*
X107864737Y-86771134D01*
X107880675Y-86756784D01*
X107880675Y-86756782D01*
X107880680Y-86756779D01*
X107990090Y-86606189D01*
X108058508Y-86452521D01*
X108065798Y-86436147D01*
X108065800Y-86436141D01*
X108077277Y-86382148D01*
X108104500Y-86254070D01*
X108104500Y-86067930D01*
X108065800Y-85885858D01*
X108065798Y-85885852D01*
X108012762Y-85766734D01*
X107990090Y-85715811D01*
X107880680Y-85565221D01*
X107880677Y-85565218D01*
X107880675Y-85565215D01*
X107790536Y-85484055D01*
X107742351Y-85440669D01*
X107581149Y-85347599D01*
X107581143Y-85347596D01*
X107404124Y-85290080D01*
X107404122Y-85290079D01*
X107364488Y-85285913D01*
X107265411Y-85275500D01*
X107172589Y-85275500D01*
X107085895Y-85284611D01*
X107033877Y-85290079D01*
X107033875Y-85290080D01*
X106856856Y-85347596D01*
X106856850Y-85347599D01*
X106695650Y-85440668D01*
X106557324Y-85565215D01*
X106557322Y-85565218D01*
X106447909Y-85715811D01*
X106372201Y-85885852D01*
X106372199Y-85885858D01*
X106333500Y-86067930D01*
X106333500Y-86254069D01*
X99104500Y-86254069D01*
X99104500Y-86067930D01*
X99065800Y-85885858D01*
X99065798Y-85885852D01*
X99012762Y-85766734D01*
X98990090Y-85715811D01*
X98880680Y-85565221D01*
X98880677Y-85565218D01*
X98880675Y-85565215D01*
X98790536Y-85484055D01*
X98742351Y-85440669D01*
X98581149Y-85347599D01*
X98581143Y-85347596D01*
X98404124Y-85290080D01*
X98404122Y-85290079D01*
X98364488Y-85285913D01*
X98265411Y-85275500D01*
X98172589Y-85275500D01*
X98085895Y-85284611D01*
X98033877Y-85290079D01*
X98033875Y-85290080D01*
X97856856Y-85347596D01*
X97856850Y-85347599D01*
X97695650Y-85440668D01*
X97557324Y-85565215D01*
X97557322Y-85565218D01*
X97447909Y-85715811D01*
X97372201Y-85885852D01*
X97372199Y-85885858D01*
X97333500Y-86067930D01*
X97333500Y-86254069D01*
X96393500Y-86254069D01*
X96393500Y-84201001D01*
X99953685Y-84201001D01*
X99972907Y-84420714D01*
X99972909Y-84420724D01*
X100029990Y-84633755D01*
X100029995Y-84633769D01*
X100123203Y-84833654D01*
X100123207Y-84833662D01*
X100249712Y-85014330D01*
X100405669Y-85170287D01*
X100586337Y-85296792D01*
X100586339Y-85296793D01*
X100586342Y-85296795D01*
X100632990Y-85318547D01*
X100786230Y-85390004D01*
X100786232Y-85390004D01*
X100786237Y-85390007D01*
X100999280Y-85447092D01*
X101156222Y-85460822D01*
X101218998Y-85466315D01*
X101219000Y-85466315D01*
X101219002Y-85466315D01*
X101274059Y-85461498D01*
X101438720Y-85447092D01*
X101651763Y-85390007D01*
X101851658Y-85296795D01*
X102032329Y-85170288D01*
X102188288Y-85014329D01*
X102192110Y-85008870D01*
X102958500Y-85008870D01*
X102958501Y-85008876D01*
X102964908Y-85068483D01*
X103015202Y-85203328D01*
X103015206Y-85203335D01*
X103101452Y-85318544D01*
X103101455Y-85318547D01*
X103216664Y-85404793D01*
X103216671Y-85404797D01*
X103351517Y-85455091D01*
X103351516Y-85455091D01*
X103358444Y-85455835D01*
X103411127Y-85461500D01*
X105026872Y-85461499D01*
X105086483Y-85455091D01*
X105221331Y-85404796D01*
X105336546Y-85318546D01*
X105422796Y-85203331D01*
X105473091Y-85068483D01*
X105479500Y-85008873D01*
X105479499Y-83393128D01*
X105473091Y-83333517D01*
X105472584Y-83332159D01*
X105422797Y-83198671D01*
X105422793Y-83198664D01*
X105336547Y-83083455D01*
X105336544Y-83083452D01*
X105221335Y-82997206D01*
X105221328Y-82997202D01*
X105086482Y-82946908D01*
X105086483Y-82946908D01*
X105026883Y-82940501D01*
X105026881Y-82940500D01*
X105026873Y-82940500D01*
X105026864Y-82940500D01*
X103411129Y-82940500D01*
X103411123Y-82940501D01*
X103351516Y-82946908D01*
X103216671Y-82997202D01*
X103216664Y-82997206D01*
X103101455Y-83083452D01*
X103101452Y-83083455D01*
X103015206Y-83198664D01*
X103015202Y-83198671D01*
X102964908Y-83333517D01*
X102958501Y-83393116D01*
X102958501Y-83393123D01*
X102958500Y-83393135D01*
X102958500Y-85008870D01*
X102192110Y-85008870D01*
X102314795Y-84833658D01*
X102408007Y-84633763D01*
X102465092Y-84420720D01*
X102484315Y-84201000D01*
X102465092Y-83981280D01*
X102408007Y-83768237D01*
X102314795Y-83568343D01*
X102188288Y-83387671D01*
X102188286Y-83387668D01*
X102032330Y-83231712D01*
X101851662Y-83105207D01*
X101851654Y-83105203D01*
X101651769Y-83011995D01*
X101651755Y-83011990D01*
X101438724Y-82954909D01*
X101438722Y-82954908D01*
X101438720Y-82954908D01*
X101438718Y-82954907D01*
X101438714Y-82954907D01*
X101219002Y-82935685D01*
X101218998Y-82935685D01*
X100999285Y-82954907D01*
X100999275Y-82954909D01*
X100786244Y-83011990D01*
X100786235Y-83011994D01*
X100586344Y-83105204D01*
X100586342Y-83105205D01*
X100405668Y-83231713D01*
X100249713Y-83387668D01*
X100123205Y-83568342D01*
X100123204Y-83568344D01*
X100029994Y-83768235D01*
X100029990Y-83768244D01*
X99972909Y-83981275D01*
X99972907Y-83981285D01*
X99953685Y-84200998D01*
X99953685Y-84201001D01*
X96393500Y-84201001D01*
X96393500Y-74014870D01*
X99927500Y-74014870D01*
X99927501Y-74014876D01*
X99933908Y-74074483D01*
X99984202Y-74209328D01*
X99984206Y-74209335D01*
X100070452Y-74324544D01*
X100070455Y-74324547D01*
X100185664Y-74410793D01*
X100185671Y-74410797D01*
X100320517Y-74461091D01*
X100320516Y-74461091D01*
X100327444Y-74461835D01*
X100380127Y-74467500D01*
X101995872Y-74467499D01*
X102055483Y-74461091D01*
X102190331Y-74410796D01*
X102305546Y-74324546D01*
X102391796Y-74209331D01*
X102442091Y-74074483D01*
X102448500Y-74014873D01*
X102448499Y-72399128D01*
X102442091Y-72339517D01*
X102404120Y-72237712D01*
X102391797Y-72204671D01*
X102391793Y-72204664D01*
X102305547Y-72089455D01*
X102305544Y-72089452D01*
X102190335Y-72003206D01*
X102190328Y-72003202D01*
X102055482Y-71952908D01*
X102055483Y-71952908D01*
X101995883Y-71946501D01*
X101995881Y-71946500D01*
X101995873Y-71946500D01*
X101995864Y-71946500D01*
X100380129Y-71946500D01*
X100380123Y-71946501D01*
X100320516Y-71952908D01*
X100185671Y-72003202D01*
X100185664Y-72003206D01*
X100070455Y-72089452D01*
X100070452Y-72089455D01*
X99984206Y-72204664D01*
X99984202Y-72204671D01*
X99933908Y-72339517D01*
X99927501Y-72399116D01*
X99927501Y-72399123D01*
X99927500Y-72399135D01*
X99927500Y-74014870D01*
X96393500Y-74014870D01*
X96393500Y-71340069D01*
X97302500Y-71340069D01*
X97341199Y-71522141D01*
X97341201Y-71522147D01*
X97416910Y-71692188D01*
X97416909Y-71692188D01*
X97416910Y-71692189D01*
X97526320Y-71842779D01*
X97526321Y-71842780D01*
X97526322Y-71842781D01*
X97526324Y-71842784D01*
X97610469Y-71918547D01*
X97664649Y-71967331D01*
X97825851Y-72060401D01*
X97825853Y-72060401D01*
X97825856Y-72060403D01*
X97914365Y-72089161D01*
X98002880Y-72117921D01*
X98141589Y-72132500D01*
X98141594Y-72132500D01*
X98234406Y-72132500D01*
X98234411Y-72132500D01*
X98373120Y-72117921D01*
X98550149Y-72060401D01*
X98711351Y-71967331D01*
X98819709Y-71869764D01*
X98849675Y-71842784D01*
X98849675Y-71842782D01*
X98849680Y-71842779D01*
X98959090Y-71692189D01*
X99034800Y-71522142D01*
X99073500Y-71340070D01*
X99073500Y-71340069D01*
X106302500Y-71340069D01*
X106341199Y-71522141D01*
X106341201Y-71522147D01*
X106416910Y-71692188D01*
X106416909Y-71692188D01*
X106416910Y-71692189D01*
X106526320Y-71842779D01*
X106526321Y-71842780D01*
X106526322Y-71842781D01*
X106526324Y-71842784D01*
X106610469Y-71918547D01*
X106664649Y-71967331D01*
X106825851Y-72060401D01*
X106825853Y-72060401D01*
X106825856Y-72060403D01*
X106914365Y-72089161D01*
X107002880Y-72117921D01*
X107141589Y-72132500D01*
X107141594Y-72132500D01*
X107234406Y-72132500D01*
X107234411Y-72132500D01*
X107373120Y-72117921D01*
X107550149Y-72060401D01*
X107711351Y-71967331D01*
X107819709Y-71869764D01*
X107849675Y-71842784D01*
X107849675Y-71842782D01*
X107849680Y-71842779D01*
X107959090Y-71692189D01*
X108034800Y-71522142D01*
X108073500Y-71340070D01*
X108073500Y-71153930D01*
X108034800Y-70971858D01*
X108034798Y-70971852D01*
X108004386Y-70903547D01*
X107959090Y-70801811D01*
X107849680Y-70651221D01*
X107849677Y-70651218D01*
X107849675Y-70651215D01*
X107735210Y-70548152D01*
X107711351Y-70526669D01*
X107550149Y-70433599D01*
X107550143Y-70433596D01*
X107373124Y-70376080D01*
X107373122Y-70376079D01*
X107333488Y-70371913D01*
X107234411Y-70361500D01*
X107141589Y-70361500D01*
X107054895Y-70370611D01*
X107002877Y-70376079D01*
X107002875Y-70376080D01*
X106825856Y-70433596D01*
X106825850Y-70433599D01*
X106664650Y-70526668D01*
X106526324Y-70651215D01*
X106526322Y-70651218D01*
X106416909Y-70801811D01*
X106341201Y-70971852D01*
X106341199Y-70971858D01*
X106302500Y-71153930D01*
X106302500Y-71340069D01*
X99073500Y-71340069D01*
X99073500Y-71153930D01*
X99034800Y-70971858D01*
X99034798Y-70971852D01*
X99004386Y-70903547D01*
X98959090Y-70801811D01*
X98849680Y-70651221D01*
X98849677Y-70651218D01*
X98849675Y-70651215D01*
X98735210Y-70548152D01*
X98711351Y-70526669D01*
X98550149Y-70433599D01*
X98550143Y-70433596D01*
X98373124Y-70376080D01*
X98373122Y-70376079D01*
X98333488Y-70371913D01*
X98234411Y-70361500D01*
X98141589Y-70361500D01*
X98054895Y-70370611D01*
X98002877Y-70376079D01*
X98002875Y-70376080D01*
X97825856Y-70433596D01*
X97825850Y-70433599D01*
X97664650Y-70526668D01*
X97526324Y-70651215D01*
X97526322Y-70651218D01*
X97416909Y-70801811D01*
X97341201Y-70971852D01*
X97341199Y-70971858D01*
X97302500Y-71153930D01*
X97302500Y-71340069D01*
X96393500Y-71340069D01*
X96393500Y-65486015D01*
X103294500Y-65486015D01*
X103305000Y-65588795D01*
X103305001Y-65588796D01*
X103360186Y-65755335D01*
X103360187Y-65755337D01*
X103452286Y-65904651D01*
X103452289Y-65904655D01*
X103576344Y-66028710D01*
X103576348Y-66028713D01*
X103725662Y-66120812D01*
X103725664Y-66120813D01*
X103725666Y-66120814D01*
X103892203Y-66175999D01*
X103994992Y-66186500D01*
X103994997Y-66186500D01*
X105095003Y-66186500D01*
X105095008Y-66186500D01*
X105197797Y-66175999D01*
X105364334Y-66120814D01*
X105513655Y-66028711D01*
X105637711Y-65904655D01*
X105729814Y-65755334D01*
X105784999Y-65588797D01*
X105795500Y-65486008D01*
X105795500Y-63865992D01*
X105784999Y-63763203D01*
X105729814Y-63596666D01*
X105728981Y-63595316D01*
X105637713Y-63447348D01*
X105637710Y-63447344D01*
X105513655Y-63323289D01*
X105513651Y-63323286D01*
X105364337Y-63231187D01*
X105364335Y-63231186D01*
X105245852Y-63191925D01*
X105197797Y-63176001D01*
X105197795Y-63176000D01*
X105095015Y-63165500D01*
X105095008Y-63165500D01*
X103994992Y-63165500D01*
X103994984Y-63165500D01*
X103892204Y-63176000D01*
X103892203Y-63176001D01*
X103725664Y-63231186D01*
X103725662Y-63231187D01*
X103576348Y-63323286D01*
X103576344Y-63323289D01*
X103452289Y-63447344D01*
X103452286Y-63447348D01*
X103360187Y-63596662D01*
X103360186Y-63596664D01*
X103305001Y-63763203D01*
X103305000Y-63763204D01*
X103294500Y-63865984D01*
X103294500Y-65486015D01*
X96393500Y-65486015D01*
X96393500Y-61242334D01*
X97813500Y-61242334D01*
X97854429Y-61487616D01*
X97935169Y-61722802D01*
X97935172Y-61722811D01*
X98051393Y-61937568D01*
X98053526Y-61941509D01*
X98206262Y-62137744D01*
X98365744Y-62284557D01*
X98389217Y-62306166D01*
X98597393Y-62442173D01*
X98825118Y-62542063D01*
X99066175Y-62603107D01*
X99066179Y-62603108D01*
X99066181Y-62603108D01*
X99066186Y-62603109D01*
X99199376Y-62614145D01*
X99251933Y-62618500D01*
X99251935Y-62618500D01*
X99376065Y-62618500D01*
X99376067Y-62618500D01*
X99437284Y-62613427D01*
X99561813Y-62603109D01*
X99561816Y-62603108D01*
X99561821Y-62603108D01*
X99802881Y-62542063D01*
X100030607Y-62442173D01*
X100238785Y-62306164D01*
X100421738Y-62137744D01*
X100574474Y-61941509D01*
X100692828Y-61722810D01*
X100773571Y-61487614D01*
X100814500Y-61242335D01*
X100814500Y-60993665D01*
X100773571Y-60748386D01*
X100692828Y-60513190D01*
X100678756Y-60487187D01*
X104294500Y-60487187D01*
X104298420Y-60513190D01*
X104333604Y-60746615D01*
X104333605Y-60746617D01*
X104333606Y-60746623D01*
X104410938Y-60997326D01*
X104524767Y-61233696D01*
X104524768Y-61233697D01*
X104524770Y-61233700D01*
X104524772Y-61233704D01*
X104530657Y-61242335D01*
X104672567Y-61450479D01*
X104851014Y-61642801D01*
X104851018Y-61642804D01*
X104851019Y-61642805D01*
X105056143Y-61806386D01*
X105283357Y-61937568D01*
X105527584Y-62033420D01*
X105783370Y-62091802D01*
X105783376Y-62091802D01*
X105783379Y-62091803D01*
X105979500Y-62106500D01*
X105979506Y-62106500D01*
X106110500Y-62106500D01*
X106306620Y-62091803D01*
X106306622Y-62091802D01*
X106306630Y-62091802D01*
X106562416Y-62033420D01*
X106806643Y-61937568D01*
X107033857Y-61806386D01*
X107238981Y-61642805D01*
X107417433Y-61450479D01*
X107565228Y-61233704D01*
X107679063Y-60997323D01*
X107756396Y-60746615D01*
X107795500Y-60487182D01*
X107795500Y-60224818D01*
X107756396Y-59965385D01*
X107679063Y-59714677D01*
X107667121Y-59689880D01*
X107565232Y-59478303D01*
X107565231Y-59478302D01*
X107565230Y-59478301D01*
X107565228Y-59478296D01*
X107417433Y-59261521D01*
X107407441Y-59250753D01*
X107238985Y-59069198D01*
X107199533Y-59037736D01*
X107033857Y-58905614D01*
X106806643Y-58774432D01*
X106562416Y-58678580D01*
X106562411Y-58678578D01*
X106562402Y-58678576D01*
X106344818Y-58628914D01*
X106306630Y-58620198D01*
X106306629Y-58620197D01*
X106306625Y-58620197D01*
X106306620Y-58620196D01*
X106110500Y-58605500D01*
X106110494Y-58605500D01*
X105979506Y-58605500D01*
X105979500Y-58605500D01*
X105783379Y-58620196D01*
X105783374Y-58620197D01*
X105527597Y-58678576D01*
X105527578Y-58678582D01*
X105283356Y-58774432D01*
X105056143Y-58905614D01*
X104851014Y-59069198D01*
X104672567Y-59261520D01*
X104524768Y-59478302D01*
X104524767Y-59478303D01*
X104410938Y-59714673D01*
X104333606Y-59965376D01*
X104333605Y-59965381D01*
X104333604Y-59965385D01*
X104318853Y-60063247D01*
X104294500Y-60224812D01*
X104294500Y-60487187D01*
X100678756Y-60487187D01*
X100574474Y-60294491D01*
X100421738Y-60098256D01*
X100238785Y-59929836D01*
X100238782Y-59929833D01*
X100030606Y-59793826D01*
X99802881Y-59693936D01*
X99561824Y-59632892D01*
X99561813Y-59632890D01*
X99396548Y-59619197D01*
X99376067Y-59617500D01*
X99251933Y-59617500D01*
X99232521Y-59619108D01*
X99066186Y-59632890D01*
X99066175Y-59632892D01*
X98825118Y-59693936D01*
X98597393Y-59793826D01*
X98389217Y-59929833D01*
X98206261Y-60098257D01*
X98053524Y-60294493D01*
X97935172Y-60513188D01*
X97935169Y-60513197D01*
X97854429Y-60748383D01*
X97813500Y-60993665D01*
X97813500Y-61242334D01*
X96393500Y-61242334D01*
X96393500Y-57405843D01*
X96393611Y-57402164D01*
X96399488Y-57305004D01*
X96411318Y-57124518D01*
X96412202Y-57117391D01*
X96435457Y-56990492D01*
X96465053Y-56841703D01*
X96466659Y-56835390D01*
X96506849Y-56706416D01*
X96553854Y-56567943D01*
X96556016Y-56562452D01*
X96612541Y-56436858D01*
X96676344Y-56307479D01*
X96678864Y-56302878D01*
X96750174Y-56184916D01*
X96751570Y-56182721D01*
X96830581Y-56064471D01*
X96833274Y-56060752D01*
X96918626Y-55951809D01*
X96920739Y-55949261D01*
X97014173Y-55842721D01*
X97016868Y-55839843D01*
X97114843Y-55741868D01*
X97117721Y-55739173D01*
X97224261Y-55645739D01*
X97226809Y-55643626D01*
X97335752Y-55558274D01*
X97339471Y-55555581D01*
X97457721Y-55476570D01*
X97459916Y-55475174D01*
X97577878Y-55403864D01*
X97582479Y-55401344D01*
X97711858Y-55337541D01*
X97837452Y-55281016D01*
X97842943Y-55278854D01*
X97981406Y-55231852D01*
X98110390Y-55191659D01*
X98116703Y-55190053D01*
X98265427Y-55160468D01*
X98392393Y-55137201D01*
X98399515Y-55136318D01*
X98579887Y-55124495D01*
X98667675Y-55119184D01*
X98677134Y-55118613D01*
X98680878Y-55118500D01*
X118494000Y-55118500D01*
X118561039Y-55138185D01*
G37*
%TD.AperFunction*%
%TA.AperFunction,Conductor*%
G36*
X120969373Y-93586709D02*
G01*
X120995970Y-93588802D01*
X121004835Y-93589500D01*
X121004836Y-93589499D01*
X121004837Y-93589500D01*
X121381162Y-93589499D01*
X121416627Y-93586709D01*
X121558405Y-93545519D01*
X121627595Y-93545519D01*
X121769373Y-93586709D01*
X121795970Y-93588802D01*
X121804835Y-93589500D01*
X121804836Y-93589499D01*
X121804837Y-93589500D01*
X122181162Y-93589499D01*
X122216627Y-93586709D01*
X122358405Y-93545519D01*
X122427595Y-93545519D01*
X122569373Y-93586709D01*
X122595970Y-93588802D01*
X122604835Y-93589500D01*
X122604836Y-93589499D01*
X122604837Y-93589500D01*
X122981162Y-93589499D01*
X123016627Y-93586709D01*
X123158405Y-93545519D01*
X123227595Y-93545519D01*
X123369373Y-93586709D01*
X123404837Y-93589500D01*
X123593500Y-93589499D01*
X123660539Y-93609183D01*
X123706294Y-93661987D01*
X123717500Y-93713498D01*
X123717501Y-93902162D01*
X123720290Y-93937624D01*
X123761481Y-94079406D01*
X123761481Y-94148594D01*
X123720291Y-94290373D01*
X123720290Y-94290379D01*
X123717500Y-94325835D01*
X123717501Y-94702162D01*
X123720290Y-94737624D01*
X123761481Y-94879405D01*
X123761481Y-94948593D01*
X123720291Y-95090373D01*
X123720290Y-95090379D01*
X123717500Y-95125835D01*
X123717501Y-95502162D01*
X123720290Y-95537624D01*
X123761481Y-95679406D01*
X123761481Y-95748594D01*
X123720291Y-95890373D01*
X123720290Y-95890379D01*
X123717500Y-95925835D01*
X123717501Y-96302162D01*
X123720290Y-96337624D01*
X123761481Y-96479405D01*
X123761481Y-96548593D01*
X123720291Y-96690373D01*
X123720290Y-96690379D01*
X123717500Y-96725835D01*
X123717501Y-97102162D01*
X123720291Y-97137627D01*
X123761481Y-97279404D01*
X123761481Y-97348591D01*
X123736537Y-97434454D01*
X123720290Y-97490376D01*
X123720290Y-97490379D01*
X123717500Y-97525835D01*
X123717501Y-97902162D01*
X123720290Y-97937624D01*
X123761481Y-98079405D01*
X123761481Y-98148593D01*
X123720291Y-98290373D01*
X123720290Y-98290379D01*
X123717500Y-98325835D01*
X123717501Y-98702162D01*
X123720290Y-98737624D01*
X123761481Y-98879406D01*
X123761481Y-98948594D01*
X123720291Y-99090373D01*
X123720290Y-99090379D01*
X123717500Y-99125835D01*
X123717500Y-99314500D01*
X123697815Y-99381539D01*
X123645011Y-99427294D01*
X123593501Y-99438500D01*
X123404838Y-99438501D01*
X123369375Y-99441290D01*
X123227594Y-99482481D01*
X123158406Y-99482481D01*
X123076728Y-99458751D01*
X123016627Y-99441291D01*
X123016625Y-99441290D01*
X123016620Y-99441290D01*
X122981165Y-99438500D01*
X122981163Y-99438500D01*
X122604544Y-99438501D01*
X122604838Y-99438501D01*
X122569375Y-99441290D01*
X122427593Y-99482481D01*
X122358405Y-99482481D01*
X122216627Y-99441291D01*
X122216625Y-99441290D01*
X122216620Y-99441290D01*
X122181165Y-99438500D01*
X122181163Y-99438500D01*
X121804800Y-99438501D01*
X121804838Y-99438501D01*
X121769375Y-99441290D01*
X121627594Y-99482481D01*
X121558406Y-99482481D01*
X121476728Y-99458751D01*
X121416627Y-99441291D01*
X121416625Y-99441290D01*
X121416620Y-99441290D01*
X121381165Y-99438500D01*
X121381163Y-99438500D01*
X121005056Y-99438501D01*
X121004838Y-99438501D01*
X120969375Y-99441290D01*
X120827593Y-99482481D01*
X120758405Y-99482481D01*
X120616627Y-99441291D01*
X120616625Y-99441290D01*
X120616620Y-99441290D01*
X120581165Y-99438500D01*
X120581163Y-99438500D01*
X120204288Y-99438501D01*
X120204838Y-99438501D01*
X120169375Y-99441290D01*
X120027594Y-99482481D01*
X119958406Y-99482481D01*
X119876728Y-99458751D01*
X119816627Y-99441291D01*
X119816625Y-99441290D01*
X119816620Y-99441290D01*
X119781165Y-99438500D01*
X119781163Y-99438500D01*
X119404544Y-99438501D01*
X119404838Y-99438501D01*
X119369375Y-99441290D01*
X119227594Y-99482481D01*
X119158406Y-99482481D01*
X119102076Y-99466116D01*
X119043190Y-99428510D01*
X119013983Y-99365037D01*
X119013350Y-99334075D01*
X119015460Y-99314003D01*
X119015460Y-99314002D01*
X119007100Y-99234461D01*
X118995674Y-99125744D01*
X118937179Y-98945716D01*
X118842533Y-98781784D01*
X118715871Y-98641112D01*
X118715870Y-98641111D01*
X118562734Y-98529851D01*
X118562729Y-98529848D01*
X118389807Y-98452857D01*
X118389802Y-98452855D01*
X118244001Y-98421865D01*
X118204646Y-98413500D01*
X118204645Y-98413500D01*
X118145453Y-98413500D01*
X118078414Y-98393815D01*
X118057772Y-98377181D01*
X117861848Y-98181257D01*
X117828363Y-98119934D01*
X117830451Y-98058983D01*
X117865709Y-97937627D01*
X117868500Y-97902163D01*
X117868499Y-97525838D01*
X117865709Y-97490373D01*
X117824519Y-97348594D01*
X117824519Y-97279405D01*
X117860594Y-97155233D01*
X117865709Y-97137627D01*
X117868500Y-97102163D01*
X117868499Y-96725838D01*
X117865709Y-96690373D01*
X117824258Y-96547696D01*
X117824258Y-96478508D01*
X117857525Y-96364000D01*
X117753952Y-96364000D01*
X117686913Y-96344315D01*
X117666270Y-96327680D01*
X117629425Y-96290834D01*
X117629416Y-96290827D01*
X117510890Y-96220731D01*
X117463206Y-96169662D01*
X117450703Y-96100920D01*
X117477349Y-96036331D01*
X117510884Y-96007272D01*
X117596284Y-95956766D01*
X117659402Y-95939500D01*
X118893202Y-95939500D01*
X118908822Y-95941224D01*
X118908849Y-95940939D01*
X118916605Y-95941671D01*
X118916612Y-95941673D01*
X118985759Y-95939500D01*
X119015295Y-95939500D01*
X119022173Y-95938630D01*
X119027986Y-95938172D01*
X119074572Y-95936709D01*
X119093814Y-95931117D01*
X119112857Y-95927174D01*
X119132737Y-95924664D01*
X119176067Y-95907507D01*
X119181591Y-95905617D01*
X119185341Y-95904527D01*
X119226335Y-95892618D01*
X119243574Y-95882422D01*
X119261048Y-95873862D01*
X119279672Y-95866488D01*
X119279672Y-95866487D01*
X119279677Y-95866486D01*
X119317394Y-95839082D01*
X119322250Y-95835892D01*
X119362365Y-95812170D01*
X119376534Y-95797999D01*
X119391324Y-95785368D01*
X119407532Y-95773594D01*
X119437244Y-95737676D01*
X119441157Y-95733376D01*
X119775554Y-95398979D01*
X119836875Y-95365496D01*
X119837219Y-95365421D01*
X119913803Y-95349144D01*
X120086730Y-95272151D01*
X120239871Y-95160888D01*
X120366533Y-95020216D01*
X120461179Y-94856284D01*
X120519674Y-94676256D01*
X120539460Y-94488000D01*
X120519674Y-94299744D01*
X120461179Y-94119716D01*
X120366533Y-93955784D01*
X120239871Y-93815112D01*
X120238086Y-93813815D01*
X120237304Y-93812800D01*
X120235042Y-93810764D01*
X120235414Y-93810350D01*
X120195422Y-93758486D01*
X120189444Y-93688872D01*
X120222051Y-93627078D01*
X120282890Y-93592721D01*
X120310967Y-93589499D01*
X120581162Y-93589499D01*
X120616627Y-93586709D01*
X120758405Y-93545519D01*
X120827595Y-93545519D01*
X120969373Y-93586709D01*
G37*
%TD.AperFunction*%
%TD*%
M02*
