%TF.GenerationSoftware,KiCad,Pcbnew,7.0.7*%
%TF.CreationDate,2024-05-10T07:30:10-05:00*%
%TF.ProjectId,WaterBlasterV2,57617465-7242-46c6-9173-74657256322e,rev?*%
%TF.SameCoordinates,Original*%
%TF.FileFunction,Drillmap*%
%TF.FilePolarity,Positive*%
%FSLAX45Y45*%
G04 Gerber Fmt 4.5, Leading zero omitted, Abs format (unit mm)*
G04 Created by KiCad (PCBNEW 7.0.7) date 2024-05-10 07:30:10*
%MOMM*%
%LPD*%
G01*
G04 APERTURE LIST*
%ADD10C,0.100000*%
%ADD11C,0.200000*%
%ADD12C,0.040000*%
%ADD13C,0.050000*%
%ADD14C,0.071120*%
%ADD15C,0.102000*%
G04 APERTURE END LIST*
D10*
X9639300Y-13601700D02*
X9639300Y-5740400D01*
X14071600Y-13830300D02*
X9867900Y-13830300D01*
X14300200Y-5791200D02*
X14300200Y-13601700D01*
X9867900Y-5511800D02*
X14020800Y-5511800D01*
X14300200Y-5791200D02*
G75*
G03*
X14020800Y-5511800I-279400J0D01*
G01*
X9867900Y-5511800D02*
G75*
G03*
X9639300Y-5740400I0J-228600D01*
G01*
X9639300Y-13601700D02*
G75*
G03*
X9867900Y-13830300I228600J0D01*
G01*
X14071600Y-13830300D02*
G75*
G03*
X14300200Y-13601700I0J228600D01*
G01*
D11*
D12*
X10241600Y-10343200D02*
X10281600Y-10383200D01*
X10281600Y-10343200D02*
X10241600Y-10383200D01*
X10343200Y-7650800D02*
X10383200Y-7690800D01*
X10383200Y-7650800D02*
X10343200Y-7690800D01*
X10851200Y-6888800D02*
X10891200Y-6928800D01*
X10891200Y-6888800D02*
X10851200Y-6928800D01*
X11054400Y-9301800D02*
X11094400Y-9341800D01*
X11094400Y-9301800D02*
X11054400Y-9341800D01*
X11156000Y-9479600D02*
X11196000Y-9519600D01*
X11196000Y-9479600D02*
X11156000Y-9519600D01*
X11156000Y-10343200D02*
X11196000Y-10383200D01*
X11196000Y-10343200D02*
X11156000Y-10383200D01*
X11308400Y-7157850D02*
X11348400Y-7197850D01*
X11348400Y-7157850D02*
X11308400Y-7197850D01*
X11359200Y-9644700D02*
X11399200Y-9684700D01*
X11399200Y-9644700D02*
X11359200Y-9684700D01*
X11384600Y-9301800D02*
X11424600Y-9341800D01*
X11424600Y-9301800D02*
X11384600Y-9341800D01*
X11460800Y-9936800D02*
X11500800Y-9976800D01*
X11500800Y-9936800D02*
X11460800Y-9976800D01*
X11562400Y-8539800D02*
X11602400Y-8579800D01*
X11602400Y-8539800D02*
X11562400Y-8579800D01*
X11638600Y-9225600D02*
X11678600Y-9265600D01*
X11678600Y-9225600D02*
X11638600Y-9265600D01*
X11791000Y-9403400D02*
X11831000Y-9443400D01*
X11831000Y-9403400D02*
X11791000Y-9443400D01*
X11791000Y-9911400D02*
X11831000Y-9951400D01*
X11831000Y-9911400D02*
X11791000Y-9951400D01*
X11943400Y-9428800D02*
X11983400Y-9468800D01*
X11983400Y-9428800D02*
X11943400Y-9468800D01*
X11961125Y-9530400D02*
X12001125Y-9570400D01*
X12001125Y-9530400D02*
X11961125Y-9570400D01*
X12184700Y-10686100D02*
X12224700Y-10726100D01*
X12224700Y-10686100D02*
X12184700Y-10726100D01*
X12273600Y-9022400D02*
X12313600Y-9062400D01*
X12313600Y-9022400D02*
X12273600Y-9062400D01*
X12299000Y-8819200D02*
X12339000Y-8859200D01*
X12339000Y-8819200D02*
X12299000Y-8859200D01*
X12591100Y-8844600D02*
X12631100Y-8884600D01*
X12631100Y-8844600D02*
X12591100Y-8884600D01*
X12640465Y-9494954D02*
X12680465Y-9534954D01*
X12680465Y-9494954D02*
X12640465Y-9534954D01*
X12641900Y-13492800D02*
X12681900Y-13532800D01*
X12681900Y-13492800D02*
X12641900Y-13532800D01*
X12654600Y-9593900D02*
X12694600Y-9633900D01*
X12694600Y-9593900D02*
X12654600Y-9633900D01*
X12654600Y-9962200D02*
X12694600Y-10002200D01*
X12694600Y-9962200D02*
X12654600Y-10002200D01*
X12667300Y-9784400D02*
X12707300Y-9824400D01*
X12707300Y-9784400D02*
X12667300Y-9824400D01*
X12680000Y-9352600D02*
X12720000Y-9392600D01*
X12720000Y-9352600D02*
X12680000Y-9392600D01*
X12730800Y-9098600D02*
X12770800Y-9138600D01*
X12770800Y-9098600D02*
X12730800Y-9138600D01*
X12746029Y-9671400D02*
X12786029Y-9711400D01*
X12786029Y-9671400D02*
X12746029Y-9711400D01*
X12832400Y-9606600D02*
X12872400Y-9646600D01*
X12872400Y-9606600D02*
X12832400Y-9646600D01*
X12972100Y-9060500D02*
X13012100Y-9100500D01*
X13012100Y-9060500D02*
X12972100Y-9100500D01*
X13061000Y-8590600D02*
X13101000Y-8630600D01*
X13101000Y-8590600D02*
X13061000Y-8630600D01*
X13124500Y-9327200D02*
X13164500Y-9367200D01*
X13164500Y-9327200D02*
X13124500Y-9367200D01*
X13276900Y-9047800D02*
X13316900Y-9087800D01*
X13316900Y-9047800D02*
X13276900Y-9087800D01*
X13340400Y-12426000D02*
X13380400Y-12466000D01*
X13380400Y-12426000D02*
X13340400Y-12466000D01*
X13365800Y-9682800D02*
X13405800Y-9722800D01*
X13405800Y-9682800D02*
X13365800Y-9722800D01*
X13594400Y-9047800D02*
X13634400Y-9087800D01*
X13634400Y-9047800D02*
X13594400Y-9087800D01*
X13696000Y-9632000D02*
X13736000Y-9672000D01*
X13736000Y-9632000D02*
X13696000Y-9672000D01*
X13746800Y-9301800D02*
X13786800Y-9341800D01*
X13786800Y-9301800D02*
X13746800Y-9341800D01*
X13835700Y-10228900D02*
X13875700Y-10268900D01*
X13875700Y-10228900D02*
X13835700Y-10268900D01*
X13848400Y-9809800D02*
X13888400Y-9849800D01*
X13888400Y-9809800D02*
X13848400Y-9849800D01*
X13911900Y-9035100D02*
X13951900Y-9075100D01*
X13951900Y-9035100D02*
X13911900Y-9075100D01*
X14026200Y-7752400D02*
X14066200Y-7792400D01*
X14066200Y-7752400D02*
X14026200Y-7792400D01*
X14077000Y-12540300D02*
X14117000Y-12580300D01*
X14117000Y-12540300D02*
X14077000Y-12580300D01*
D13*
X10362800Y-12115800D02*
G75*
G03*
X10362800Y-12115800I-25000J0D01*
G01*
X10667600Y-12115800D02*
G75*
G03*
X10667600Y-12115800I-25000J0D01*
G01*
X10972400Y-12115800D02*
G75*
G03*
X10972400Y-12115800I-25000J0D01*
G01*
X11277400Y-12115800D02*
G75*
G03*
X11277400Y-12115800I-25000J0D01*
G01*
X11582000Y-12115800D02*
G75*
G03*
X11582000Y-12115800I-25000J0D01*
G01*
X12572600Y-10312400D02*
G75*
G03*
X12572600Y-10312400I-25000J0D01*
G01*
X12598000Y-6883400D02*
G75*
G03*
X12598000Y-6883400I-25000J0D01*
G01*
X12877400Y-10312400D02*
G75*
G03*
X12877400Y-10312400I-25000J0D01*
G01*
X12928200Y-7239000D02*
G75*
G03*
X12928200Y-7239000I-25000J0D01*
G01*
X13118700Y-11607800D02*
G75*
G03*
X13118700Y-11607800I-25000J0D01*
G01*
X13245700Y-6870700D02*
G75*
G03*
X13245700Y-6870700I-25000J0D01*
G01*
X13639400Y-11595100D02*
G75*
G03*
X13639400Y-11595100I-25000J0D01*
G01*
X14071200Y-11620500D02*
G75*
G03*
X14071200Y-11620500I-25000J0D01*
G01*
X14122000Y-10375900D02*
G75*
G03*
X14122000Y-10375900I-25000J0D01*
G01*
D14*
X12331700Y-8524240D02*
X12331700Y-8595360D01*
X12296140Y-8559800D02*
X12367260Y-8559800D01*
X12331700Y-8651240D02*
X12331700Y-8722360D01*
X12296140Y-8686800D02*
X12367260Y-8686800D01*
X12458700Y-8524240D02*
X12458700Y-8595360D01*
X12423140Y-8559800D02*
X12494260Y-8559800D01*
X12458700Y-8651240D02*
X12458700Y-8722360D01*
X12423140Y-8686800D02*
X12494260Y-8686800D01*
X12585700Y-8524240D02*
X12585700Y-8595360D01*
X12550140Y-8559800D02*
X12621260Y-8559800D01*
X12585700Y-8651240D02*
X12585700Y-8722360D01*
X12550140Y-8686800D02*
X12621260Y-8686800D01*
X12712700Y-8524240D02*
X12712700Y-8595360D01*
X12677140Y-8559800D02*
X12748260Y-8559800D01*
X12712700Y-8651240D02*
X12712700Y-8722360D01*
X12677140Y-8686800D02*
X12748260Y-8686800D01*
X12839700Y-8524240D02*
X12839700Y-8595360D01*
X12804140Y-8559800D02*
X12875260Y-8559800D01*
X12839700Y-8651240D02*
X12839700Y-8722360D01*
X12804140Y-8686800D02*
X12875260Y-8686800D01*
D10*
X13278056Y-11216206D02*
X13278056Y-11145494D01*
X13207344Y-11145494D01*
X13207344Y-11216206D01*
X13278056Y-11216206D01*
X13532056Y-11216206D02*
X13532056Y-11145494D01*
X13461344Y-11145494D01*
X13461344Y-11216206D01*
X13532056Y-11216206D01*
X13786056Y-11216206D02*
X13786056Y-11145494D01*
X13715344Y-11145494D01*
X13715344Y-11216206D01*
X13786056Y-11216206D01*
D15*
X10110900Y-12527200D02*
X10161900Y-12476200D01*
X10110900Y-12425200D01*
X10059900Y-12476200D01*
X10110900Y-12527200D01*
X10110900Y-12827200D02*
X10161900Y-12776200D01*
X10110900Y-12725200D01*
X10059900Y-12776200D01*
X10110900Y-12827200D01*
X10118800Y-7371700D02*
X10169800Y-7320700D01*
X10118800Y-7269700D01*
X10067800Y-7320700D01*
X10118800Y-7371700D01*
X10121900Y-8471100D02*
X10172900Y-8420100D01*
X10121900Y-8369100D01*
X10070900Y-8420100D01*
X10121900Y-8471100D01*
X10198100Y-9306200D02*
X10249100Y-9255200D01*
X10198100Y-9204200D01*
X10147100Y-9255200D01*
X10198100Y-9306200D01*
X10198100Y-9606200D02*
X10249100Y-9555200D01*
X10198100Y-9504200D01*
X10147100Y-9555200D01*
X10198100Y-9606200D01*
X10198100Y-9906200D02*
X10249100Y-9855200D01*
X10198100Y-9804200D01*
X10147100Y-9855200D01*
X10198100Y-9906200D01*
X10306300Y-11140500D02*
X10357300Y-11089500D01*
X10306300Y-11038500D01*
X10255300Y-11089500D01*
X10306300Y-11140500D01*
X10306300Y-11440500D02*
X10357300Y-11389500D01*
X10306300Y-11338500D01*
X10255300Y-11389500D01*
X10306300Y-11440500D01*
X10410900Y-12527200D02*
X10461900Y-12476200D01*
X10410900Y-12425200D01*
X10359900Y-12476200D01*
X10410900Y-12527200D01*
X10410900Y-12827200D02*
X10461900Y-12776200D01*
X10410900Y-12725200D01*
X10359900Y-12776200D01*
X10410900Y-12827200D01*
X10418800Y-7371700D02*
X10469800Y-7320700D01*
X10418800Y-7269700D01*
X10367800Y-7320700D01*
X10418800Y-7371700D01*
X10421900Y-8471100D02*
X10472900Y-8420100D01*
X10421900Y-8369100D01*
X10370900Y-8420100D01*
X10421900Y-8471100D01*
X10454500Y-6518600D02*
X10505500Y-6467600D01*
X10454500Y-6416600D01*
X10403500Y-6467600D01*
X10454500Y-6518600D01*
X10710900Y-12527200D02*
X10761900Y-12476200D01*
X10710900Y-12425200D01*
X10659900Y-12476200D01*
X10710900Y-12527200D01*
X10710900Y-12827200D02*
X10761900Y-12776200D01*
X10710900Y-12725200D01*
X10659900Y-12776200D01*
X10710900Y-12827200D01*
X10754500Y-6518600D02*
X10805500Y-6467600D01*
X10754500Y-6416600D01*
X10703500Y-6467600D01*
X10754500Y-6518600D01*
X11010900Y-12527200D02*
X11061900Y-12476200D01*
X11010900Y-12425200D01*
X10959900Y-12476200D01*
X11010900Y-12527200D01*
X11010900Y-12827200D02*
X11061900Y-12776200D01*
X11010900Y-12725200D01*
X10959900Y-12776200D01*
X11010900Y-12827200D01*
X11214100Y-11138100D02*
X11265100Y-11087100D01*
X11214100Y-11036100D01*
X11163100Y-11087100D01*
X11214100Y-11138100D01*
X11214100Y-11438100D02*
X11265100Y-11387100D01*
X11214100Y-11336100D01*
X11163100Y-11387100D01*
X11214100Y-11438100D01*
X11534000Y-6518600D02*
X11585000Y-6467600D01*
X11534000Y-6416600D01*
X11483000Y-6467600D01*
X11534000Y-6518600D01*
X11550900Y-7320200D02*
X11601900Y-7269200D01*
X11550900Y-7218200D01*
X11499900Y-7269200D01*
X11550900Y-7320200D01*
X11550900Y-7620200D02*
X11601900Y-7569200D01*
X11550900Y-7518200D01*
X11499900Y-7569200D01*
X11550900Y-7620200D01*
X11550900Y-7920200D02*
X11601900Y-7869200D01*
X11550900Y-7818200D01*
X11499900Y-7869200D01*
X11550900Y-7920200D01*
X11834000Y-6518600D02*
X11885000Y-6467600D01*
X11834000Y-6416600D01*
X11783000Y-6467600D01*
X11834000Y-6518600D01*
X11904700Y-12900100D02*
X11955700Y-12849100D01*
X11904700Y-12798100D01*
X11853700Y-12849100D01*
X11904700Y-12900100D01*
X12115800Y-11138100D02*
X12166800Y-11087100D01*
X12115800Y-11036100D01*
X12064800Y-11087100D01*
X12115800Y-11138100D01*
X12115800Y-11438100D02*
X12166800Y-11387100D01*
X12115800Y-11336100D01*
X12064800Y-11387100D01*
X12115800Y-11438100D01*
X12204700Y-12900100D02*
X12255700Y-12849100D01*
X12204700Y-12798100D01*
X12153700Y-12849100D01*
X12204700Y-12900100D01*
X12504700Y-12900100D02*
X12555700Y-12849100D01*
X12504700Y-12798100D01*
X12453700Y-12849100D01*
X12504700Y-12900100D01*
X12603200Y-6518600D02*
X12654200Y-6467600D01*
X12603200Y-6416600D01*
X12552200Y-6467600D01*
X12603200Y-6518600D01*
X12677000Y-7918400D02*
X12728000Y-7867400D01*
X12677000Y-7816400D01*
X12626000Y-7867400D01*
X12677000Y-7918400D01*
X12903200Y-6518600D02*
X12954200Y-6467600D01*
X12903200Y-6416600D01*
X12852200Y-6467600D01*
X12903200Y-6518600D01*
X12977000Y-7918400D02*
X13028000Y-7867400D01*
X12977000Y-7816400D01*
X12926000Y-7867400D01*
X12977000Y-7918400D01*
X13203200Y-6518600D02*
X13254200Y-6467600D01*
X13203200Y-6416600D01*
X13152200Y-6467600D01*
X13203200Y-6518600D01*
X13276300Y-12903200D02*
X13327300Y-12852200D01*
X13276300Y-12801200D01*
X13225300Y-12852200D01*
X13276300Y-12903200D01*
X13576300Y-12903200D02*
X13627300Y-12852200D01*
X13576300Y-12801200D01*
X13525300Y-12852200D01*
X13576300Y-12903200D01*
X13876300Y-12903200D02*
X13927300Y-12852200D01*
X13876300Y-12801200D01*
X13825300Y-12852200D01*
X13876300Y-12903200D01*
D11*
X9895077Y-14146784D02*
X9895077Y-13946784D01*
X9895077Y-13946784D02*
X9942696Y-13946784D01*
X9942696Y-13946784D02*
X9971267Y-13956308D01*
X9971267Y-13956308D02*
X9990315Y-13975355D01*
X9990315Y-13975355D02*
X9999839Y-13994403D01*
X9999839Y-13994403D02*
X10009363Y-14032498D01*
X10009363Y-14032498D02*
X10009363Y-14061069D01*
X10009363Y-14061069D02*
X9999839Y-14099165D01*
X9999839Y-14099165D02*
X9990315Y-14118212D01*
X9990315Y-14118212D02*
X9971267Y-14137260D01*
X9971267Y-14137260D02*
X9942696Y-14146784D01*
X9942696Y-14146784D02*
X9895077Y-14146784D01*
X10095077Y-14146784D02*
X10095077Y-14013450D01*
X10095077Y-14051546D02*
X10104601Y-14032498D01*
X10104601Y-14032498D02*
X10114124Y-14022974D01*
X10114124Y-14022974D02*
X10133172Y-14013450D01*
X10133172Y-14013450D02*
X10152220Y-14013450D01*
X10218886Y-14146784D02*
X10218886Y-14013450D01*
X10218886Y-13946784D02*
X10209363Y-13956308D01*
X10209363Y-13956308D02*
X10218886Y-13965831D01*
X10218886Y-13965831D02*
X10228410Y-13956308D01*
X10228410Y-13956308D02*
X10218886Y-13946784D01*
X10218886Y-13946784D02*
X10218886Y-13965831D01*
X10342696Y-14146784D02*
X10323648Y-14137260D01*
X10323648Y-14137260D02*
X10314124Y-14118212D01*
X10314124Y-14118212D02*
X10314124Y-13946784D01*
X10447458Y-14146784D02*
X10428410Y-14137260D01*
X10428410Y-14137260D02*
X10418886Y-14118212D01*
X10418886Y-14118212D02*
X10418886Y-13946784D01*
X10676029Y-14146784D02*
X10676029Y-13946784D01*
X10676029Y-13946784D02*
X10742696Y-14089641D01*
X10742696Y-14089641D02*
X10809363Y-13946784D01*
X10809363Y-13946784D02*
X10809363Y-14146784D01*
X10990315Y-14146784D02*
X10990315Y-14042022D01*
X10990315Y-14042022D02*
X10980791Y-14022974D01*
X10980791Y-14022974D02*
X10961744Y-14013450D01*
X10961744Y-14013450D02*
X10923648Y-14013450D01*
X10923648Y-14013450D02*
X10904601Y-14022974D01*
X10990315Y-14137260D02*
X10971267Y-14146784D01*
X10971267Y-14146784D02*
X10923648Y-14146784D01*
X10923648Y-14146784D02*
X10904601Y-14137260D01*
X10904601Y-14137260D02*
X10895077Y-14118212D01*
X10895077Y-14118212D02*
X10895077Y-14099165D01*
X10895077Y-14099165D02*
X10904601Y-14080117D01*
X10904601Y-14080117D02*
X10923648Y-14070593D01*
X10923648Y-14070593D02*
X10971267Y-14070593D01*
X10971267Y-14070593D02*
X10990315Y-14061069D01*
X11085553Y-14013450D02*
X11085553Y-14213450D01*
X11085553Y-14022974D02*
X11104601Y-14013450D01*
X11104601Y-14013450D02*
X11142696Y-14013450D01*
X11142696Y-14013450D02*
X11161744Y-14022974D01*
X11161744Y-14022974D02*
X11171267Y-14032498D01*
X11171267Y-14032498D02*
X11180791Y-14051546D01*
X11180791Y-14051546D02*
X11180791Y-14108688D01*
X11180791Y-14108688D02*
X11171267Y-14127736D01*
X11171267Y-14127736D02*
X11161744Y-14137260D01*
X11161744Y-14137260D02*
X11142696Y-14146784D01*
X11142696Y-14146784D02*
X11104601Y-14146784D01*
X11104601Y-14146784D02*
X11085553Y-14137260D01*
X11266505Y-14127736D02*
X11276029Y-14137260D01*
X11276029Y-14137260D02*
X11266505Y-14146784D01*
X11266505Y-14146784D02*
X11256982Y-14137260D01*
X11256982Y-14137260D02*
X11266505Y-14127736D01*
X11266505Y-14127736D02*
X11266505Y-14146784D01*
X11266505Y-14022974D02*
X11276029Y-14032498D01*
X11276029Y-14032498D02*
X11266505Y-14042022D01*
X11266505Y-14042022D02*
X11256982Y-14032498D01*
X11256982Y-14032498D02*
X11266505Y-14022974D01*
X11266505Y-14022974D02*
X11266505Y-14042022D01*
D12*
X9594300Y-14455300D02*
X9634300Y-14495300D01*
X9634300Y-14455300D02*
X9594300Y-14495300D01*
D11*
X9933172Y-14366784D02*
X9952220Y-14366784D01*
X9952220Y-14366784D02*
X9971267Y-14376308D01*
X9971267Y-14376308D02*
X9980791Y-14385831D01*
X9980791Y-14385831D02*
X9990315Y-14404879D01*
X9990315Y-14404879D02*
X9999839Y-14442974D01*
X9999839Y-14442974D02*
X9999839Y-14490593D01*
X9999839Y-14490593D02*
X9990315Y-14528688D01*
X9990315Y-14528688D02*
X9980791Y-14547736D01*
X9980791Y-14547736D02*
X9971267Y-14557260D01*
X9971267Y-14557260D02*
X9952220Y-14566784D01*
X9952220Y-14566784D02*
X9933172Y-14566784D01*
X9933172Y-14566784D02*
X9914124Y-14557260D01*
X9914124Y-14557260D02*
X9904601Y-14547736D01*
X9904601Y-14547736D02*
X9895077Y-14528688D01*
X9895077Y-14528688D02*
X9885553Y-14490593D01*
X9885553Y-14490593D02*
X9885553Y-14442974D01*
X9885553Y-14442974D02*
X9895077Y-14404879D01*
X9895077Y-14404879D02*
X9904601Y-14385831D01*
X9904601Y-14385831D02*
X9914124Y-14376308D01*
X9914124Y-14376308D02*
X9933172Y-14366784D01*
X10085553Y-14547736D02*
X10095077Y-14557260D01*
X10095077Y-14557260D02*
X10085553Y-14566784D01*
X10085553Y-14566784D02*
X10076029Y-14557260D01*
X10076029Y-14557260D02*
X10085553Y-14547736D01*
X10085553Y-14547736D02*
X10085553Y-14566784D01*
X10266505Y-14433450D02*
X10266505Y-14566784D01*
X10218886Y-14357260D02*
X10171267Y-14500117D01*
X10171267Y-14500117D02*
X10295077Y-14500117D01*
X10409363Y-14366784D02*
X10428410Y-14366784D01*
X10428410Y-14366784D02*
X10447458Y-14376308D01*
X10447458Y-14376308D02*
X10456982Y-14385831D01*
X10456982Y-14385831D02*
X10466505Y-14404879D01*
X10466505Y-14404879D02*
X10476029Y-14442974D01*
X10476029Y-14442974D02*
X10476029Y-14490593D01*
X10476029Y-14490593D02*
X10466505Y-14528688D01*
X10466505Y-14528688D02*
X10456982Y-14547736D01*
X10456982Y-14547736D02*
X10447458Y-14557260D01*
X10447458Y-14557260D02*
X10428410Y-14566784D01*
X10428410Y-14566784D02*
X10409363Y-14566784D01*
X10409363Y-14566784D02*
X10390315Y-14557260D01*
X10390315Y-14557260D02*
X10380791Y-14547736D01*
X10380791Y-14547736D02*
X10371267Y-14528688D01*
X10371267Y-14528688D02*
X10361744Y-14490593D01*
X10361744Y-14490593D02*
X10361744Y-14442974D01*
X10361744Y-14442974D02*
X10371267Y-14404879D01*
X10371267Y-14404879D02*
X10380791Y-14385831D01*
X10380791Y-14385831D02*
X10390315Y-14376308D01*
X10390315Y-14376308D02*
X10409363Y-14366784D01*
X10599839Y-14366784D02*
X10618886Y-14366784D01*
X10618886Y-14366784D02*
X10637934Y-14376308D01*
X10637934Y-14376308D02*
X10647458Y-14385831D01*
X10647458Y-14385831D02*
X10656982Y-14404879D01*
X10656982Y-14404879D02*
X10666505Y-14442974D01*
X10666505Y-14442974D02*
X10666505Y-14490593D01*
X10666505Y-14490593D02*
X10656982Y-14528688D01*
X10656982Y-14528688D02*
X10647458Y-14547736D01*
X10647458Y-14547736D02*
X10637934Y-14557260D01*
X10637934Y-14557260D02*
X10618886Y-14566784D01*
X10618886Y-14566784D02*
X10599839Y-14566784D01*
X10599839Y-14566784D02*
X10580791Y-14557260D01*
X10580791Y-14557260D02*
X10571267Y-14547736D01*
X10571267Y-14547736D02*
X10561744Y-14528688D01*
X10561744Y-14528688D02*
X10552220Y-14490593D01*
X10552220Y-14490593D02*
X10552220Y-14442974D01*
X10552220Y-14442974D02*
X10561744Y-14404879D01*
X10561744Y-14404879D02*
X10571267Y-14385831D01*
X10571267Y-14385831D02*
X10580791Y-14376308D01*
X10580791Y-14376308D02*
X10599839Y-14366784D01*
X10752220Y-14566784D02*
X10752220Y-14433450D01*
X10752220Y-14452498D02*
X10761744Y-14442974D01*
X10761744Y-14442974D02*
X10780791Y-14433450D01*
X10780791Y-14433450D02*
X10809363Y-14433450D01*
X10809363Y-14433450D02*
X10828410Y-14442974D01*
X10828410Y-14442974D02*
X10837934Y-14462022D01*
X10837934Y-14462022D02*
X10837934Y-14566784D01*
X10837934Y-14462022D02*
X10847458Y-14442974D01*
X10847458Y-14442974D02*
X10866505Y-14433450D01*
X10866505Y-14433450D02*
X10895077Y-14433450D01*
X10895077Y-14433450D02*
X10914125Y-14442974D01*
X10914125Y-14442974D02*
X10923648Y-14462022D01*
X10923648Y-14462022D02*
X10923648Y-14566784D01*
X11018886Y-14566784D02*
X11018886Y-14433450D01*
X11018886Y-14452498D02*
X11028410Y-14442974D01*
X11028410Y-14442974D02*
X11047458Y-14433450D01*
X11047458Y-14433450D02*
X11076029Y-14433450D01*
X11076029Y-14433450D02*
X11095077Y-14442974D01*
X11095077Y-14442974D02*
X11104601Y-14462022D01*
X11104601Y-14462022D02*
X11104601Y-14566784D01*
X11104601Y-14462022D02*
X11114125Y-14442974D01*
X11114125Y-14442974D02*
X11133172Y-14433450D01*
X11133172Y-14433450D02*
X11161744Y-14433450D01*
X11161744Y-14433450D02*
X11180791Y-14442974D01*
X11180791Y-14442974D02*
X11190315Y-14462022D01*
X11190315Y-14462022D02*
X11190315Y-14566784D01*
X11580791Y-14357260D02*
X11409363Y-14614403D01*
X11837934Y-14366784D02*
X11856982Y-14366784D01*
X11856982Y-14366784D02*
X11876029Y-14376308D01*
X11876029Y-14376308D02*
X11885553Y-14385831D01*
X11885553Y-14385831D02*
X11895077Y-14404879D01*
X11895077Y-14404879D02*
X11904601Y-14442974D01*
X11904601Y-14442974D02*
X11904601Y-14490593D01*
X11904601Y-14490593D02*
X11895077Y-14528688D01*
X11895077Y-14528688D02*
X11885553Y-14547736D01*
X11885553Y-14547736D02*
X11876029Y-14557260D01*
X11876029Y-14557260D02*
X11856982Y-14566784D01*
X11856982Y-14566784D02*
X11837934Y-14566784D01*
X11837934Y-14566784D02*
X11818886Y-14557260D01*
X11818886Y-14557260D02*
X11809363Y-14547736D01*
X11809363Y-14547736D02*
X11799839Y-14528688D01*
X11799839Y-14528688D02*
X11790315Y-14490593D01*
X11790315Y-14490593D02*
X11790315Y-14442974D01*
X11790315Y-14442974D02*
X11799839Y-14404879D01*
X11799839Y-14404879D02*
X11809363Y-14385831D01*
X11809363Y-14385831D02*
X11818886Y-14376308D01*
X11818886Y-14376308D02*
X11837934Y-14366784D01*
X11990315Y-14547736D02*
X11999839Y-14557260D01*
X11999839Y-14557260D02*
X11990315Y-14566784D01*
X11990315Y-14566784D02*
X11980791Y-14557260D01*
X11980791Y-14557260D02*
X11990315Y-14547736D01*
X11990315Y-14547736D02*
X11990315Y-14566784D01*
X12123648Y-14366784D02*
X12142696Y-14366784D01*
X12142696Y-14366784D02*
X12161744Y-14376308D01*
X12161744Y-14376308D02*
X12171267Y-14385831D01*
X12171267Y-14385831D02*
X12180791Y-14404879D01*
X12180791Y-14404879D02*
X12190315Y-14442974D01*
X12190315Y-14442974D02*
X12190315Y-14490593D01*
X12190315Y-14490593D02*
X12180791Y-14528688D01*
X12180791Y-14528688D02*
X12171267Y-14547736D01*
X12171267Y-14547736D02*
X12161744Y-14557260D01*
X12161744Y-14557260D02*
X12142696Y-14566784D01*
X12142696Y-14566784D02*
X12123648Y-14566784D01*
X12123648Y-14566784D02*
X12104601Y-14557260D01*
X12104601Y-14557260D02*
X12095077Y-14547736D01*
X12095077Y-14547736D02*
X12085553Y-14528688D01*
X12085553Y-14528688D02*
X12076029Y-14490593D01*
X12076029Y-14490593D02*
X12076029Y-14442974D01*
X12076029Y-14442974D02*
X12085553Y-14404879D01*
X12085553Y-14404879D02*
X12095077Y-14385831D01*
X12095077Y-14385831D02*
X12104601Y-14376308D01*
X12104601Y-14376308D02*
X12123648Y-14366784D01*
X12380791Y-14566784D02*
X12266506Y-14566784D01*
X12323648Y-14566784D02*
X12323648Y-14366784D01*
X12323648Y-14366784D02*
X12304601Y-14395355D01*
X12304601Y-14395355D02*
X12285553Y-14414403D01*
X12285553Y-14414403D02*
X12266506Y-14423927D01*
X12561744Y-14366784D02*
X12466506Y-14366784D01*
X12466506Y-14366784D02*
X12456982Y-14462022D01*
X12456982Y-14462022D02*
X12466506Y-14452498D01*
X12466506Y-14452498D02*
X12485553Y-14442974D01*
X12485553Y-14442974D02*
X12533172Y-14442974D01*
X12533172Y-14442974D02*
X12552220Y-14452498D01*
X12552220Y-14452498D02*
X12561744Y-14462022D01*
X12561744Y-14462022D02*
X12571267Y-14481069D01*
X12571267Y-14481069D02*
X12571267Y-14528688D01*
X12571267Y-14528688D02*
X12561744Y-14547736D01*
X12561744Y-14547736D02*
X12552220Y-14557260D01*
X12552220Y-14557260D02*
X12533172Y-14566784D01*
X12533172Y-14566784D02*
X12485553Y-14566784D01*
X12485553Y-14566784D02*
X12466506Y-14557260D01*
X12466506Y-14557260D02*
X12456982Y-14547736D01*
X12637934Y-14366784D02*
X12771267Y-14366784D01*
X12771267Y-14366784D02*
X12685553Y-14566784D01*
X12837934Y-14366784D02*
X12837934Y-14404879D01*
X12914125Y-14366784D02*
X12914125Y-14404879D01*
X13209363Y-14642974D02*
X13199839Y-14633450D01*
X13199839Y-14633450D02*
X13180791Y-14604879D01*
X13180791Y-14604879D02*
X13171268Y-14585831D01*
X13171268Y-14585831D02*
X13161744Y-14557260D01*
X13161744Y-14557260D02*
X13152220Y-14509641D01*
X13152220Y-14509641D02*
X13152220Y-14471546D01*
X13152220Y-14471546D02*
X13161744Y-14423927D01*
X13161744Y-14423927D02*
X13171268Y-14395355D01*
X13171268Y-14395355D02*
X13180791Y-14376308D01*
X13180791Y-14376308D02*
X13199839Y-14347736D01*
X13199839Y-14347736D02*
X13209363Y-14338212D01*
X13371268Y-14433450D02*
X13371268Y-14566784D01*
X13323648Y-14357260D02*
X13276029Y-14500117D01*
X13276029Y-14500117D02*
X13399839Y-14500117D01*
X13456982Y-14366784D02*
X13580791Y-14366784D01*
X13580791Y-14366784D02*
X13514125Y-14442974D01*
X13514125Y-14442974D02*
X13542696Y-14442974D01*
X13542696Y-14442974D02*
X13561744Y-14452498D01*
X13561744Y-14452498D02*
X13571268Y-14462022D01*
X13571268Y-14462022D02*
X13580791Y-14481069D01*
X13580791Y-14481069D02*
X13580791Y-14528688D01*
X13580791Y-14528688D02*
X13571268Y-14547736D01*
X13571268Y-14547736D02*
X13561744Y-14557260D01*
X13561744Y-14557260D02*
X13542696Y-14566784D01*
X13542696Y-14566784D02*
X13485553Y-14566784D01*
X13485553Y-14566784D02*
X13466506Y-14557260D01*
X13466506Y-14557260D02*
X13456982Y-14547736D01*
X13818887Y-14566784D02*
X13818887Y-14366784D01*
X13904601Y-14566784D02*
X13904601Y-14462022D01*
X13904601Y-14462022D02*
X13895077Y-14442974D01*
X13895077Y-14442974D02*
X13876030Y-14433450D01*
X13876030Y-14433450D02*
X13847458Y-14433450D01*
X13847458Y-14433450D02*
X13828410Y-14442974D01*
X13828410Y-14442974D02*
X13818887Y-14452498D01*
X14028410Y-14566784D02*
X14009363Y-14557260D01*
X14009363Y-14557260D02*
X13999839Y-14547736D01*
X13999839Y-14547736D02*
X13990315Y-14528688D01*
X13990315Y-14528688D02*
X13990315Y-14471546D01*
X13990315Y-14471546D02*
X13999839Y-14452498D01*
X13999839Y-14452498D02*
X14009363Y-14442974D01*
X14009363Y-14442974D02*
X14028410Y-14433450D01*
X14028410Y-14433450D02*
X14056982Y-14433450D01*
X14056982Y-14433450D02*
X14076030Y-14442974D01*
X14076030Y-14442974D02*
X14085553Y-14452498D01*
X14085553Y-14452498D02*
X14095077Y-14471546D01*
X14095077Y-14471546D02*
X14095077Y-14528688D01*
X14095077Y-14528688D02*
X14085553Y-14547736D01*
X14085553Y-14547736D02*
X14076030Y-14557260D01*
X14076030Y-14557260D02*
X14056982Y-14566784D01*
X14056982Y-14566784D02*
X14028410Y-14566784D01*
X14209363Y-14566784D02*
X14190315Y-14557260D01*
X14190315Y-14557260D02*
X14180791Y-14538212D01*
X14180791Y-14538212D02*
X14180791Y-14366784D01*
X14361744Y-14557260D02*
X14342696Y-14566784D01*
X14342696Y-14566784D02*
X14304601Y-14566784D01*
X14304601Y-14566784D02*
X14285553Y-14557260D01*
X14285553Y-14557260D02*
X14276030Y-14538212D01*
X14276030Y-14538212D02*
X14276030Y-14462022D01*
X14276030Y-14462022D02*
X14285553Y-14442974D01*
X14285553Y-14442974D02*
X14304601Y-14433450D01*
X14304601Y-14433450D02*
X14342696Y-14433450D01*
X14342696Y-14433450D02*
X14361744Y-14442974D01*
X14361744Y-14442974D02*
X14371268Y-14462022D01*
X14371268Y-14462022D02*
X14371268Y-14481069D01*
X14371268Y-14481069D02*
X14276030Y-14500117D01*
X14447458Y-14557260D02*
X14466506Y-14566784D01*
X14466506Y-14566784D02*
X14504601Y-14566784D01*
X14504601Y-14566784D02*
X14523649Y-14557260D01*
X14523649Y-14557260D02*
X14533172Y-14538212D01*
X14533172Y-14538212D02*
X14533172Y-14528688D01*
X14533172Y-14528688D02*
X14523649Y-14509641D01*
X14523649Y-14509641D02*
X14504601Y-14500117D01*
X14504601Y-14500117D02*
X14476030Y-14500117D01*
X14476030Y-14500117D02*
X14456982Y-14490593D01*
X14456982Y-14490593D02*
X14447458Y-14471546D01*
X14447458Y-14471546D02*
X14447458Y-14462022D01*
X14447458Y-14462022D02*
X14456982Y-14442974D01*
X14456982Y-14442974D02*
X14476030Y-14433450D01*
X14476030Y-14433450D02*
X14504601Y-14433450D01*
X14504601Y-14433450D02*
X14523649Y-14442974D01*
X14599839Y-14642974D02*
X14609363Y-14633450D01*
X14609363Y-14633450D02*
X14628411Y-14604879D01*
X14628411Y-14604879D02*
X14637934Y-14585831D01*
X14637934Y-14585831D02*
X14647458Y-14557260D01*
X14647458Y-14557260D02*
X14656982Y-14509641D01*
X14656982Y-14509641D02*
X14656982Y-14471546D01*
X14656982Y-14471546D02*
X14647458Y-14423927D01*
X14647458Y-14423927D02*
X14637934Y-14395355D01*
X14637934Y-14395355D02*
X14628411Y-14376308D01*
X14628411Y-14376308D02*
X14609363Y-14347736D01*
X14609363Y-14347736D02*
X14599839Y-14338212D01*
D13*
X9634300Y-14739300D02*
G75*
G03*
X9634300Y-14739300I-25000J0D01*
G01*
D11*
X9933172Y-14630784D02*
X9952220Y-14630784D01*
X9952220Y-14630784D02*
X9971267Y-14640308D01*
X9971267Y-14640308D02*
X9980791Y-14649831D01*
X9980791Y-14649831D02*
X9990315Y-14668879D01*
X9990315Y-14668879D02*
X9999839Y-14706974D01*
X9999839Y-14706974D02*
X9999839Y-14754593D01*
X9999839Y-14754593D02*
X9990315Y-14792688D01*
X9990315Y-14792688D02*
X9980791Y-14811736D01*
X9980791Y-14811736D02*
X9971267Y-14821260D01*
X9971267Y-14821260D02*
X9952220Y-14830784D01*
X9952220Y-14830784D02*
X9933172Y-14830784D01*
X9933172Y-14830784D02*
X9914124Y-14821260D01*
X9914124Y-14821260D02*
X9904601Y-14811736D01*
X9904601Y-14811736D02*
X9895077Y-14792688D01*
X9895077Y-14792688D02*
X9885553Y-14754593D01*
X9885553Y-14754593D02*
X9885553Y-14706974D01*
X9885553Y-14706974D02*
X9895077Y-14668879D01*
X9895077Y-14668879D02*
X9904601Y-14649831D01*
X9904601Y-14649831D02*
X9914124Y-14640308D01*
X9914124Y-14640308D02*
X9933172Y-14630784D01*
X10085553Y-14811736D02*
X10095077Y-14821260D01*
X10095077Y-14821260D02*
X10085553Y-14830784D01*
X10085553Y-14830784D02*
X10076029Y-14821260D01*
X10076029Y-14821260D02*
X10085553Y-14811736D01*
X10085553Y-14811736D02*
X10085553Y-14830784D01*
X10276029Y-14630784D02*
X10180791Y-14630784D01*
X10180791Y-14630784D02*
X10171267Y-14726022D01*
X10171267Y-14726022D02*
X10180791Y-14716498D01*
X10180791Y-14716498D02*
X10199839Y-14706974D01*
X10199839Y-14706974D02*
X10247458Y-14706974D01*
X10247458Y-14706974D02*
X10266505Y-14716498D01*
X10266505Y-14716498D02*
X10276029Y-14726022D01*
X10276029Y-14726022D02*
X10285553Y-14745069D01*
X10285553Y-14745069D02*
X10285553Y-14792688D01*
X10285553Y-14792688D02*
X10276029Y-14811736D01*
X10276029Y-14811736D02*
X10266505Y-14821260D01*
X10266505Y-14821260D02*
X10247458Y-14830784D01*
X10247458Y-14830784D02*
X10199839Y-14830784D01*
X10199839Y-14830784D02*
X10180791Y-14821260D01*
X10180791Y-14821260D02*
X10171267Y-14811736D01*
X10409363Y-14630784D02*
X10428410Y-14630784D01*
X10428410Y-14630784D02*
X10447458Y-14640308D01*
X10447458Y-14640308D02*
X10456982Y-14649831D01*
X10456982Y-14649831D02*
X10466505Y-14668879D01*
X10466505Y-14668879D02*
X10476029Y-14706974D01*
X10476029Y-14706974D02*
X10476029Y-14754593D01*
X10476029Y-14754593D02*
X10466505Y-14792688D01*
X10466505Y-14792688D02*
X10456982Y-14811736D01*
X10456982Y-14811736D02*
X10447458Y-14821260D01*
X10447458Y-14821260D02*
X10428410Y-14830784D01*
X10428410Y-14830784D02*
X10409363Y-14830784D01*
X10409363Y-14830784D02*
X10390315Y-14821260D01*
X10390315Y-14821260D02*
X10380791Y-14811736D01*
X10380791Y-14811736D02*
X10371267Y-14792688D01*
X10371267Y-14792688D02*
X10361744Y-14754593D01*
X10361744Y-14754593D02*
X10361744Y-14706974D01*
X10361744Y-14706974D02*
X10371267Y-14668879D01*
X10371267Y-14668879D02*
X10380791Y-14649831D01*
X10380791Y-14649831D02*
X10390315Y-14640308D01*
X10390315Y-14640308D02*
X10409363Y-14630784D01*
X10599839Y-14630784D02*
X10618886Y-14630784D01*
X10618886Y-14630784D02*
X10637934Y-14640308D01*
X10637934Y-14640308D02*
X10647458Y-14649831D01*
X10647458Y-14649831D02*
X10656982Y-14668879D01*
X10656982Y-14668879D02*
X10666505Y-14706974D01*
X10666505Y-14706974D02*
X10666505Y-14754593D01*
X10666505Y-14754593D02*
X10656982Y-14792688D01*
X10656982Y-14792688D02*
X10647458Y-14811736D01*
X10647458Y-14811736D02*
X10637934Y-14821260D01*
X10637934Y-14821260D02*
X10618886Y-14830784D01*
X10618886Y-14830784D02*
X10599839Y-14830784D01*
X10599839Y-14830784D02*
X10580791Y-14821260D01*
X10580791Y-14821260D02*
X10571267Y-14811736D01*
X10571267Y-14811736D02*
X10561744Y-14792688D01*
X10561744Y-14792688D02*
X10552220Y-14754593D01*
X10552220Y-14754593D02*
X10552220Y-14706974D01*
X10552220Y-14706974D02*
X10561744Y-14668879D01*
X10561744Y-14668879D02*
X10571267Y-14649831D01*
X10571267Y-14649831D02*
X10580791Y-14640308D01*
X10580791Y-14640308D02*
X10599839Y-14630784D01*
X10752220Y-14830784D02*
X10752220Y-14697450D01*
X10752220Y-14716498D02*
X10761744Y-14706974D01*
X10761744Y-14706974D02*
X10780791Y-14697450D01*
X10780791Y-14697450D02*
X10809363Y-14697450D01*
X10809363Y-14697450D02*
X10828410Y-14706974D01*
X10828410Y-14706974D02*
X10837934Y-14726022D01*
X10837934Y-14726022D02*
X10837934Y-14830784D01*
X10837934Y-14726022D02*
X10847458Y-14706974D01*
X10847458Y-14706974D02*
X10866505Y-14697450D01*
X10866505Y-14697450D02*
X10895077Y-14697450D01*
X10895077Y-14697450D02*
X10914125Y-14706974D01*
X10914125Y-14706974D02*
X10923648Y-14726022D01*
X10923648Y-14726022D02*
X10923648Y-14830784D01*
X11018886Y-14830784D02*
X11018886Y-14697450D01*
X11018886Y-14716498D02*
X11028410Y-14706974D01*
X11028410Y-14706974D02*
X11047458Y-14697450D01*
X11047458Y-14697450D02*
X11076029Y-14697450D01*
X11076029Y-14697450D02*
X11095077Y-14706974D01*
X11095077Y-14706974D02*
X11104601Y-14726022D01*
X11104601Y-14726022D02*
X11104601Y-14830784D01*
X11104601Y-14726022D02*
X11114125Y-14706974D01*
X11114125Y-14706974D02*
X11133172Y-14697450D01*
X11133172Y-14697450D02*
X11161744Y-14697450D01*
X11161744Y-14697450D02*
X11180791Y-14706974D01*
X11180791Y-14706974D02*
X11190315Y-14726022D01*
X11190315Y-14726022D02*
X11190315Y-14830784D01*
X11580791Y-14621260D02*
X11409363Y-14878403D01*
X11837934Y-14630784D02*
X11856982Y-14630784D01*
X11856982Y-14630784D02*
X11876029Y-14640308D01*
X11876029Y-14640308D02*
X11885553Y-14649831D01*
X11885553Y-14649831D02*
X11895077Y-14668879D01*
X11895077Y-14668879D02*
X11904601Y-14706974D01*
X11904601Y-14706974D02*
X11904601Y-14754593D01*
X11904601Y-14754593D02*
X11895077Y-14792688D01*
X11895077Y-14792688D02*
X11885553Y-14811736D01*
X11885553Y-14811736D02*
X11876029Y-14821260D01*
X11876029Y-14821260D02*
X11856982Y-14830784D01*
X11856982Y-14830784D02*
X11837934Y-14830784D01*
X11837934Y-14830784D02*
X11818886Y-14821260D01*
X11818886Y-14821260D02*
X11809363Y-14811736D01*
X11809363Y-14811736D02*
X11799839Y-14792688D01*
X11799839Y-14792688D02*
X11790315Y-14754593D01*
X11790315Y-14754593D02*
X11790315Y-14706974D01*
X11790315Y-14706974D02*
X11799839Y-14668879D01*
X11799839Y-14668879D02*
X11809363Y-14649831D01*
X11809363Y-14649831D02*
X11818886Y-14640308D01*
X11818886Y-14640308D02*
X11837934Y-14630784D01*
X11990315Y-14811736D02*
X11999839Y-14821260D01*
X11999839Y-14821260D02*
X11990315Y-14830784D01*
X11990315Y-14830784D02*
X11980791Y-14821260D01*
X11980791Y-14821260D02*
X11990315Y-14811736D01*
X11990315Y-14811736D02*
X11990315Y-14830784D01*
X12123648Y-14630784D02*
X12142696Y-14630784D01*
X12142696Y-14630784D02*
X12161744Y-14640308D01*
X12161744Y-14640308D02*
X12171267Y-14649831D01*
X12171267Y-14649831D02*
X12180791Y-14668879D01*
X12180791Y-14668879D02*
X12190315Y-14706974D01*
X12190315Y-14706974D02*
X12190315Y-14754593D01*
X12190315Y-14754593D02*
X12180791Y-14792688D01*
X12180791Y-14792688D02*
X12171267Y-14811736D01*
X12171267Y-14811736D02*
X12161744Y-14821260D01*
X12161744Y-14821260D02*
X12142696Y-14830784D01*
X12142696Y-14830784D02*
X12123648Y-14830784D01*
X12123648Y-14830784D02*
X12104601Y-14821260D01*
X12104601Y-14821260D02*
X12095077Y-14811736D01*
X12095077Y-14811736D02*
X12085553Y-14792688D01*
X12085553Y-14792688D02*
X12076029Y-14754593D01*
X12076029Y-14754593D02*
X12076029Y-14706974D01*
X12076029Y-14706974D02*
X12085553Y-14668879D01*
X12085553Y-14668879D02*
X12095077Y-14649831D01*
X12095077Y-14649831D02*
X12104601Y-14640308D01*
X12104601Y-14640308D02*
X12123648Y-14630784D01*
X12380791Y-14830784D02*
X12266506Y-14830784D01*
X12323648Y-14830784D02*
X12323648Y-14630784D01*
X12323648Y-14630784D02*
X12304601Y-14659355D01*
X12304601Y-14659355D02*
X12285553Y-14678403D01*
X12285553Y-14678403D02*
X12266506Y-14687927D01*
X12476029Y-14830784D02*
X12514125Y-14830784D01*
X12514125Y-14830784D02*
X12533172Y-14821260D01*
X12533172Y-14821260D02*
X12542696Y-14811736D01*
X12542696Y-14811736D02*
X12561744Y-14783165D01*
X12561744Y-14783165D02*
X12571267Y-14745069D01*
X12571267Y-14745069D02*
X12571267Y-14668879D01*
X12571267Y-14668879D02*
X12561744Y-14649831D01*
X12561744Y-14649831D02*
X12552220Y-14640308D01*
X12552220Y-14640308D02*
X12533172Y-14630784D01*
X12533172Y-14630784D02*
X12495077Y-14630784D01*
X12495077Y-14630784D02*
X12476029Y-14640308D01*
X12476029Y-14640308D02*
X12466506Y-14649831D01*
X12466506Y-14649831D02*
X12456982Y-14668879D01*
X12456982Y-14668879D02*
X12456982Y-14716498D01*
X12456982Y-14716498D02*
X12466506Y-14735546D01*
X12466506Y-14735546D02*
X12476029Y-14745069D01*
X12476029Y-14745069D02*
X12495077Y-14754593D01*
X12495077Y-14754593D02*
X12533172Y-14754593D01*
X12533172Y-14754593D02*
X12552220Y-14745069D01*
X12552220Y-14745069D02*
X12561744Y-14735546D01*
X12561744Y-14735546D02*
X12571267Y-14716498D01*
X12637934Y-14630784D02*
X12771267Y-14630784D01*
X12771267Y-14630784D02*
X12685553Y-14830784D01*
X12837934Y-14630784D02*
X12837934Y-14668879D01*
X12914125Y-14630784D02*
X12914125Y-14668879D01*
X13209363Y-14906974D02*
X13199839Y-14897450D01*
X13199839Y-14897450D02*
X13180791Y-14868879D01*
X13180791Y-14868879D02*
X13171268Y-14849831D01*
X13171268Y-14849831D02*
X13161744Y-14821260D01*
X13161744Y-14821260D02*
X13152220Y-14773641D01*
X13152220Y-14773641D02*
X13152220Y-14735546D01*
X13152220Y-14735546D02*
X13161744Y-14687927D01*
X13161744Y-14687927D02*
X13171268Y-14659355D01*
X13171268Y-14659355D02*
X13180791Y-14640308D01*
X13180791Y-14640308D02*
X13199839Y-14611736D01*
X13199839Y-14611736D02*
X13209363Y-14602212D01*
X13390315Y-14830784D02*
X13276029Y-14830784D01*
X13333172Y-14830784D02*
X13333172Y-14630784D01*
X13333172Y-14630784D02*
X13314125Y-14659355D01*
X13314125Y-14659355D02*
X13295077Y-14678403D01*
X13295077Y-14678403D02*
X13276029Y-14687927D01*
X13561744Y-14697450D02*
X13561744Y-14830784D01*
X13514125Y-14621260D02*
X13466506Y-14764117D01*
X13466506Y-14764117D02*
X13590315Y-14764117D01*
X13818887Y-14830784D02*
X13818887Y-14630784D01*
X13904601Y-14830784D02*
X13904601Y-14726022D01*
X13904601Y-14726022D02*
X13895077Y-14706974D01*
X13895077Y-14706974D02*
X13876030Y-14697450D01*
X13876030Y-14697450D02*
X13847458Y-14697450D01*
X13847458Y-14697450D02*
X13828410Y-14706974D01*
X13828410Y-14706974D02*
X13818887Y-14716498D01*
X14028410Y-14830784D02*
X14009363Y-14821260D01*
X14009363Y-14821260D02*
X13999839Y-14811736D01*
X13999839Y-14811736D02*
X13990315Y-14792688D01*
X13990315Y-14792688D02*
X13990315Y-14735546D01*
X13990315Y-14735546D02*
X13999839Y-14716498D01*
X13999839Y-14716498D02*
X14009363Y-14706974D01*
X14009363Y-14706974D02*
X14028410Y-14697450D01*
X14028410Y-14697450D02*
X14056982Y-14697450D01*
X14056982Y-14697450D02*
X14076030Y-14706974D01*
X14076030Y-14706974D02*
X14085553Y-14716498D01*
X14085553Y-14716498D02*
X14095077Y-14735546D01*
X14095077Y-14735546D02*
X14095077Y-14792688D01*
X14095077Y-14792688D02*
X14085553Y-14811736D01*
X14085553Y-14811736D02*
X14076030Y-14821260D01*
X14076030Y-14821260D02*
X14056982Y-14830784D01*
X14056982Y-14830784D02*
X14028410Y-14830784D01*
X14209363Y-14830784D02*
X14190315Y-14821260D01*
X14190315Y-14821260D02*
X14180791Y-14802212D01*
X14180791Y-14802212D02*
X14180791Y-14630784D01*
X14361744Y-14821260D02*
X14342696Y-14830784D01*
X14342696Y-14830784D02*
X14304601Y-14830784D01*
X14304601Y-14830784D02*
X14285553Y-14821260D01*
X14285553Y-14821260D02*
X14276030Y-14802212D01*
X14276030Y-14802212D02*
X14276030Y-14726022D01*
X14276030Y-14726022D02*
X14285553Y-14706974D01*
X14285553Y-14706974D02*
X14304601Y-14697450D01*
X14304601Y-14697450D02*
X14342696Y-14697450D01*
X14342696Y-14697450D02*
X14361744Y-14706974D01*
X14361744Y-14706974D02*
X14371268Y-14726022D01*
X14371268Y-14726022D02*
X14371268Y-14745069D01*
X14371268Y-14745069D02*
X14276030Y-14764117D01*
X14447458Y-14821260D02*
X14466506Y-14830784D01*
X14466506Y-14830784D02*
X14504601Y-14830784D01*
X14504601Y-14830784D02*
X14523649Y-14821260D01*
X14523649Y-14821260D02*
X14533172Y-14802212D01*
X14533172Y-14802212D02*
X14533172Y-14792688D01*
X14533172Y-14792688D02*
X14523649Y-14773641D01*
X14523649Y-14773641D02*
X14504601Y-14764117D01*
X14504601Y-14764117D02*
X14476030Y-14764117D01*
X14476030Y-14764117D02*
X14456982Y-14754593D01*
X14456982Y-14754593D02*
X14447458Y-14735546D01*
X14447458Y-14735546D02*
X14447458Y-14726022D01*
X14447458Y-14726022D02*
X14456982Y-14706974D01*
X14456982Y-14706974D02*
X14476030Y-14697450D01*
X14476030Y-14697450D02*
X14504601Y-14697450D01*
X14504601Y-14697450D02*
X14523649Y-14706974D01*
X14599839Y-14906974D02*
X14609363Y-14897450D01*
X14609363Y-14897450D02*
X14628411Y-14868879D01*
X14628411Y-14868879D02*
X14637934Y-14849831D01*
X14637934Y-14849831D02*
X14647458Y-14821260D01*
X14647458Y-14821260D02*
X14656982Y-14773641D01*
X14656982Y-14773641D02*
X14656982Y-14735546D01*
X14656982Y-14735546D02*
X14647458Y-14687927D01*
X14647458Y-14687927D02*
X14637934Y-14659355D01*
X14637934Y-14659355D02*
X14628411Y-14640308D01*
X14628411Y-14640308D02*
X14609363Y-14611736D01*
X14609363Y-14611736D02*
X14599839Y-14602212D01*
D14*
X9598740Y-14967740D02*
X9598740Y-15038860D01*
X9563180Y-15003300D02*
X9634300Y-15003300D01*
D11*
X9933172Y-14894784D02*
X9952220Y-14894784D01*
X9952220Y-14894784D02*
X9971267Y-14904308D01*
X9971267Y-14904308D02*
X9980791Y-14913831D01*
X9980791Y-14913831D02*
X9990315Y-14932879D01*
X9990315Y-14932879D02*
X9999839Y-14970974D01*
X9999839Y-14970974D02*
X9999839Y-15018593D01*
X9999839Y-15018593D02*
X9990315Y-15056688D01*
X9990315Y-15056688D02*
X9980791Y-15075736D01*
X9980791Y-15075736D02*
X9971267Y-15085260D01*
X9971267Y-15085260D02*
X9952220Y-15094784D01*
X9952220Y-15094784D02*
X9933172Y-15094784D01*
X9933172Y-15094784D02*
X9914124Y-15085260D01*
X9914124Y-15085260D02*
X9904601Y-15075736D01*
X9904601Y-15075736D02*
X9895077Y-15056688D01*
X9895077Y-15056688D02*
X9885553Y-15018593D01*
X9885553Y-15018593D02*
X9885553Y-14970974D01*
X9885553Y-14970974D02*
X9895077Y-14932879D01*
X9895077Y-14932879D02*
X9904601Y-14913831D01*
X9904601Y-14913831D02*
X9914124Y-14904308D01*
X9914124Y-14904308D02*
X9933172Y-14894784D01*
X10085553Y-15075736D02*
X10095077Y-15085260D01*
X10095077Y-15085260D02*
X10085553Y-15094784D01*
X10085553Y-15094784D02*
X10076029Y-15085260D01*
X10076029Y-15085260D02*
X10085553Y-15075736D01*
X10085553Y-15075736D02*
X10085553Y-15094784D01*
X10161744Y-14894784D02*
X10295077Y-14894784D01*
X10295077Y-14894784D02*
X10209363Y-15094784D01*
X10476029Y-15094784D02*
X10361744Y-15094784D01*
X10418886Y-15094784D02*
X10418886Y-14894784D01*
X10418886Y-14894784D02*
X10399839Y-14923355D01*
X10399839Y-14923355D02*
X10380791Y-14942403D01*
X10380791Y-14942403D02*
X10361744Y-14951927D01*
X10666505Y-15094784D02*
X10552220Y-15094784D01*
X10609363Y-15094784D02*
X10609363Y-14894784D01*
X10609363Y-14894784D02*
X10590315Y-14923355D01*
X10590315Y-14923355D02*
X10571267Y-14942403D01*
X10571267Y-14942403D02*
X10552220Y-14951927D01*
X10752220Y-15094784D02*
X10752220Y-14961450D01*
X10752220Y-14980498D02*
X10761744Y-14970974D01*
X10761744Y-14970974D02*
X10780791Y-14961450D01*
X10780791Y-14961450D02*
X10809363Y-14961450D01*
X10809363Y-14961450D02*
X10828410Y-14970974D01*
X10828410Y-14970974D02*
X10837934Y-14990022D01*
X10837934Y-14990022D02*
X10837934Y-15094784D01*
X10837934Y-14990022D02*
X10847458Y-14970974D01*
X10847458Y-14970974D02*
X10866505Y-14961450D01*
X10866505Y-14961450D02*
X10895077Y-14961450D01*
X10895077Y-14961450D02*
X10914125Y-14970974D01*
X10914125Y-14970974D02*
X10923648Y-14990022D01*
X10923648Y-14990022D02*
X10923648Y-15094784D01*
X11018886Y-15094784D02*
X11018886Y-14961450D01*
X11018886Y-14980498D02*
X11028410Y-14970974D01*
X11028410Y-14970974D02*
X11047458Y-14961450D01*
X11047458Y-14961450D02*
X11076029Y-14961450D01*
X11076029Y-14961450D02*
X11095077Y-14970974D01*
X11095077Y-14970974D02*
X11104601Y-14990022D01*
X11104601Y-14990022D02*
X11104601Y-15094784D01*
X11104601Y-14990022D02*
X11114125Y-14970974D01*
X11114125Y-14970974D02*
X11133172Y-14961450D01*
X11133172Y-14961450D02*
X11161744Y-14961450D01*
X11161744Y-14961450D02*
X11180791Y-14970974D01*
X11180791Y-14970974D02*
X11190315Y-14990022D01*
X11190315Y-14990022D02*
X11190315Y-15094784D01*
X11580791Y-14885260D02*
X11409363Y-15142403D01*
X11837934Y-14894784D02*
X11856982Y-14894784D01*
X11856982Y-14894784D02*
X11876029Y-14904308D01*
X11876029Y-14904308D02*
X11885553Y-14913831D01*
X11885553Y-14913831D02*
X11895077Y-14932879D01*
X11895077Y-14932879D02*
X11904601Y-14970974D01*
X11904601Y-14970974D02*
X11904601Y-15018593D01*
X11904601Y-15018593D02*
X11895077Y-15056688D01*
X11895077Y-15056688D02*
X11885553Y-15075736D01*
X11885553Y-15075736D02*
X11876029Y-15085260D01*
X11876029Y-15085260D02*
X11856982Y-15094784D01*
X11856982Y-15094784D02*
X11837934Y-15094784D01*
X11837934Y-15094784D02*
X11818886Y-15085260D01*
X11818886Y-15085260D02*
X11809363Y-15075736D01*
X11809363Y-15075736D02*
X11799839Y-15056688D01*
X11799839Y-15056688D02*
X11790315Y-15018593D01*
X11790315Y-15018593D02*
X11790315Y-14970974D01*
X11790315Y-14970974D02*
X11799839Y-14932879D01*
X11799839Y-14932879D02*
X11809363Y-14913831D01*
X11809363Y-14913831D02*
X11818886Y-14904308D01*
X11818886Y-14904308D02*
X11837934Y-14894784D01*
X11990315Y-15075736D02*
X11999839Y-15085260D01*
X11999839Y-15085260D02*
X11990315Y-15094784D01*
X11990315Y-15094784D02*
X11980791Y-15085260D01*
X11980791Y-15085260D02*
X11990315Y-15075736D01*
X11990315Y-15075736D02*
X11990315Y-15094784D01*
X12123648Y-14894784D02*
X12142696Y-14894784D01*
X12142696Y-14894784D02*
X12161744Y-14904308D01*
X12161744Y-14904308D02*
X12171267Y-14913831D01*
X12171267Y-14913831D02*
X12180791Y-14932879D01*
X12180791Y-14932879D02*
X12190315Y-14970974D01*
X12190315Y-14970974D02*
X12190315Y-15018593D01*
X12190315Y-15018593D02*
X12180791Y-15056688D01*
X12180791Y-15056688D02*
X12171267Y-15075736D01*
X12171267Y-15075736D02*
X12161744Y-15085260D01*
X12161744Y-15085260D02*
X12142696Y-15094784D01*
X12142696Y-15094784D02*
X12123648Y-15094784D01*
X12123648Y-15094784D02*
X12104601Y-15085260D01*
X12104601Y-15085260D02*
X12095077Y-15075736D01*
X12095077Y-15075736D02*
X12085553Y-15056688D01*
X12085553Y-15056688D02*
X12076029Y-15018593D01*
X12076029Y-15018593D02*
X12076029Y-14970974D01*
X12076029Y-14970974D02*
X12085553Y-14932879D01*
X12085553Y-14932879D02*
X12095077Y-14913831D01*
X12095077Y-14913831D02*
X12104601Y-14904308D01*
X12104601Y-14904308D02*
X12123648Y-14894784D01*
X12266506Y-14913831D02*
X12276029Y-14904308D01*
X12276029Y-14904308D02*
X12295077Y-14894784D01*
X12295077Y-14894784D02*
X12342696Y-14894784D01*
X12342696Y-14894784D02*
X12361744Y-14904308D01*
X12361744Y-14904308D02*
X12371267Y-14913831D01*
X12371267Y-14913831D02*
X12380791Y-14932879D01*
X12380791Y-14932879D02*
X12380791Y-14951927D01*
X12380791Y-14951927D02*
X12371267Y-14980498D01*
X12371267Y-14980498D02*
X12256982Y-15094784D01*
X12256982Y-15094784D02*
X12380791Y-15094784D01*
X12495077Y-14980498D02*
X12476029Y-14970974D01*
X12476029Y-14970974D02*
X12466506Y-14961450D01*
X12466506Y-14961450D02*
X12456982Y-14942403D01*
X12456982Y-14942403D02*
X12456982Y-14932879D01*
X12456982Y-14932879D02*
X12466506Y-14913831D01*
X12466506Y-14913831D02*
X12476029Y-14904308D01*
X12476029Y-14904308D02*
X12495077Y-14894784D01*
X12495077Y-14894784D02*
X12533172Y-14894784D01*
X12533172Y-14894784D02*
X12552220Y-14904308D01*
X12552220Y-14904308D02*
X12561744Y-14913831D01*
X12561744Y-14913831D02*
X12571267Y-14932879D01*
X12571267Y-14932879D02*
X12571267Y-14942403D01*
X12571267Y-14942403D02*
X12561744Y-14961450D01*
X12561744Y-14961450D02*
X12552220Y-14970974D01*
X12552220Y-14970974D02*
X12533172Y-14980498D01*
X12533172Y-14980498D02*
X12495077Y-14980498D01*
X12495077Y-14980498D02*
X12476029Y-14990022D01*
X12476029Y-14990022D02*
X12466506Y-14999546D01*
X12466506Y-14999546D02*
X12456982Y-15018593D01*
X12456982Y-15018593D02*
X12456982Y-15056688D01*
X12456982Y-15056688D02*
X12466506Y-15075736D01*
X12466506Y-15075736D02*
X12476029Y-15085260D01*
X12476029Y-15085260D02*
X12495077Y-15094784D01*
X12495077Y-15094784D02*
X12533172Y-15094784D01*
X12533172Y-15094784D02*
X12552220Y-15085260D01*
X12552220Y-15085260D02*
X12561744Y-15075736D01*
X12561744Y-15075736D02*
X12571267Y-15056688D01*
X12571267Y-15056688D02*
X12571267Y-15018593D01*
X12571267Y-15018593D02*
X12561744Y-14999546D01*
X12561744Y-14999546D02*
X12552220Y-14990022D01*
X12552220Y-14990022D02*
X12533172Y-14980498D01*
X12695077Y-14894784D02*
X12714125Y-14894784D01*
X12714125Y-14894784D02*
X12733172Y-14904308D01*
X12733172Y-14904308D02*
X12742696Y-14913831D01*
X12742696Y-14913831D02*
X12752220Y-14932879D01*
X12752220Y-14932879D02*
X12761744Y-14970974D01*
X12761744Y-14970974D02*
X12761744Y-15018593D01*
X12761744Y-15018593D02*
X12752220Y-15056688D01*
X12752220Y-15056688D02*
X12742696Y-15075736D01*
X12742696Y-15075736D02*
X12733172Y-15085260D01*
X12733172Y-15085260D02*
X12714125Y-15094784D01*
X12714125Y-15094784D02*
X12695077Y-15094784D01*
X12695077Y-15094784D02*
X12676029Y-15085260D01*
X12676029Y-15085260D02*
X12666506Y-15075736D01*
X12666506Y-15075736D02*
X12656982Y-15056688D01*
X12656982Y-15056688D02*
X12647458Y-15018593D01*
X12647458Y-15018593D02*
X12647458Y-14970974D01*
X12647458Y-14970974D02*
X12656982Y-14932879D01*
X12656982Y-14932879D02*
X12666506Y-14913831D01*
X12666506Y-14913831D02*
X12676029Y-14904308D01*
X12676029Y-14904308D02*
X12695077Y-14894784D01*
X12837934Y-14894784D02*
X12837934Y-14932879D01*
X12914125Y-14894784D02*
X12914125Y-14932879D01*
X13209363Y-15170974D02*
X13199839Y-15161450D01*
X13199839Y-15161450D02*
X13180791Y-15132879D01*
X13180791Y-15132879D02*
X13171268Y-15113831D01*
X13171268Y-15113831D02*
X13161744Y-15085260D01*
X13161744Y-15085260D02*
X13152220Y-15037641D01*
X13152220Y-15037641D02*
X13152220Y-14999546D01*
X13152220Y-14999546D02*
X13161744Y-14951927D01*
X13161744Y-14951927D02*
X13171268Y-14923355D01*
X13171268Y-14923355D02*
X13180791Y-14904308D01*
X13180791Y-14904308D02*
X13199839Y-14875736D01*
X13199839Y-14875736D02*
X13209363Y-14866212D01*
X13390315Y-15094784D02*
X13276029Y-15094784D01*
X13333172Y-15094784D02*
X13333172Y-14894784D01*
X13333172Y-14894784D02*
X13314125Y-14923355D01*
X13314125Y-14923355D02*
X13295077Y-14942403D01*
X13295077Y-14942403D02*
X13276029Y-14951927D01*
X13514125Y-14894784D02*
X13533172Y-14894784D01*
X13533172Y-14894784D02*
X13552220Y-14904308D01*
X13552220Y-14904308D02*
X13561744Y-14913831D01*
X13561744Y-14913831D02*
X13571268Y-14932879D01*
X13571268Y-14932879D02*
X13580791Y-14970974D01*
X13580791Y-14970974D02*
X13580791Y-15018593D01*
X13580791Y-15018593D02*
X13571268Y-15056688D01*
X13571268Y-15056688D02*
X13561744Y-15075736D01*
X13561744Y-15075736D02*
X13552220Y-15085260D01*
X13552220Y-15085260D02*
X13533172Y-15094784D01*
X13533172Y-15094784D02*
X13514125Y-15094784D01*
X13514125Y-15094784D02*
X13495077Y-15085260D01*
X13495077Y-15085260D02*
X13485553Y-15075736D01*
X13485553Y-15075736D02*
X13476029Y-15056688D01*
X13476029Y-15056688D02*
X13466506Y-15018593D01*
X13466506Y-15018593D02*
X13466506Y-14970974D01*
X13466506Y-14970974D02*
X13476029Y-14932879D01*
X13476029Y-14932879D02*
X13485553Y-14913831D01*
X13485553Y-14913831D02*
X13495077Y-14904308D01*
X13495077Y-14904308D02*
X13514125Y-14894784D01*
X13818887Y-15094784D02*
X13818887Y-14894784D01*
X13904601Y-15094784D02*
X13904601Y-14990022D01*
X13904601Y-14990022D02*
X13895077Y-14970974D01*
X13895077Y-14970974D02*
X13876030Y-14961450D01*
X13876030Y-14961450D02*
X13847458Y-14961450D01*
X13847458Y-14961450D02*
X13828410Y-14970974D01*
X13828410Y-14970974D02*
X13818887Y-14980498D01*
X14028410Y-15094784D02*
X14009363Y-15085260D01*
X14009363Y-15085260D02*
X13999839Y-15075736D01*
X13999839Y-15075736D02*
X13990315Y-15056688D01*
X13990315Y-15056688D02*
X13990315Y-14999546D01*
X13990315Y-14999546D02*
X13999839Y-14980498D01*
X13999839Y-14980498D02*
X14009363Y-14970974D01*
X14009363Y-14970974D02*
X14028410Y-14961450D01*
X14028410Y-14961450D02*
X14056982Y-14961450D01*
X14056982Y-14961450D02*
X14076030Y-14970974D01*
X14076030Y-14970974D02*
X14085553Y-14980498D01*
X14085553Y-14980498D02*
X14095077Y-14999546D01*
X14095077Y-14999546D02*
X14095077Y-15056688D01*
X14095077Y-15056688D02*
X14085553Y-15075736D01*
X14085553Y-15075736D02*
X14076030Y-15085260D01*
X14076030Y-15085260D02*
X14056982Y-15094784D01*
X14056982Y-15094784D02*
X14028410Y-15094784D01*
X14209363Y-15094784D02*
X14190315Y-15085260D01*
X14190315Y-15085260D02*
X14180791Y-15066212D01*
X14180791Y-15066212D02*
X14180791Y-14894784D01*
X14361744Y-15085260D02*
X14342696Y-15094784D01*
X14342696Y-15094784D02*
X14304601Y-15094784D01*
X14304601Y-15094784D02*
X14285553Y-15085260D01*
X14285553Y-15085260D02*
X14276030Y-15066212D01*
X14276030Y-15066212D02*
X14276030Y-14990022D01*
X14276030Y-14990022D02*
X14285553Y-14970974D01*
X14285553Y-14970974D02*
X14304601Y-14961450D01*
X14304601Y-14961450D02*
X14342696Y-14961450D01*
X14342696Y-14961450D02*
X14361744Y-14970974D01*
X14361744Y-14970974D02*
X14371268Y-14990022D01*
X14371268Y-14990022D02*
X14371268Y-15009069D01*
X14371268Y-15009069D02*
X14276030Y-15028117D01*
X14447458Y-15085260D02*
X14466506Y-15094784D01*
X14466506Y-15094784D02*
X14504601Y-15094784D01*
X14504601Y-15094784D02*
X14523649Y-15085260D01*
X14523649Y-15085260D02*
X14533172Y-15066212D01*
X14533172Y-15066212D02*
X14533172Y-15056688D01*
X14533172Y-15056688D02*
X14523649Y-15037641D01*
X14523649Y-15037641D02*
X14504601Y-15028117D01*
X14504601Y-15028117D02*
X14476030Y-15028117D01*
X14476030Y-15028117D02*
X14456982Y-15018593D01*
X14456982Y-15018593D02*
X14447458Y-14999546D01*
X14447458Y-14999546D02*
X14447458Y-14990022D01*
X14447458Y-14990022D02*
X14456982Y-14970974D01*
X14456982Y-14970974D02*
X14476030Y-14961450D01*
X14476030Y-14961450D02*
X14504601Y-14961450D01*
X14504601Y-14961450D02*
X14523649Y-14970974D01*
X14599839Y-15170974D02*
X14609363Y-15161450D01*
X14609363Y-15161450D02*
X14628411Y-15132879D01*
X14628411Y-15132879D02*
X14637934Y-15113831D01*
X14637934Y-15113831D02*
X14647458Y-15085260D01*
X14647458Y-15085260D02*
X14656982Y-15037641D01*
X14656982Y-15037641D02*
X14656982Y-14999546D01*
X14656982Y-14999546D02*
X14647458Y-14951927D01*
X14647458Y-14951927D02*
X14637934Y-14923355D01*
X14637934Y-14923355D02*
X14628411Y-14904308D01*
X14628411Y-14904308D02*
X14609363Y-14875736D01*
X14609363Y-14875736D02*
X14599839Y-14866212D01*
D10*
X9619656Y-15302656D02*
X9619656Y-15231944D01*
X9548944Y-15231944D01*
X9548944Y-15302656D01*
X9619656Y-15302656D01*
D11*
X9999839Y-15358784D02*
X9885553Y-15358784D01*
X9942696Y-15358784D02*
X9942696Y-15158784D01*
X9942696Y-15158784D02*
X9923648Y-15187355D01*
X9923648Y-15187355D02*
X9904601Y-15206403D01*
X9904601Y-15206403D02*
X9885553Y-15215927D01*
X10085553Y-15339736D02*
X10095077Y-15349260D01*
X10095077Y-15349260D02*
X10085553Y-15358784D01*
X10085553Y-15358784D02*
X10076029Y-15349260D01*
X10076029Y-15349260D02*
X10085553Y-15339736D01*
X10085553Y-15339736D02*
X10085553Y-15358784D01*
X10218886Y-15158784D02*
X10237934Y-15158784D01*
X10237934Y-15158784D02*
X10256982Y-15168308D01*
X10256982Y-15168308D02*
X10266505Y-15177831D01*
X10266505Y-15177831D02*
X10276029Y-15196879D01*
X10276029Y-15196879D02*
X10285553Y-15234974D01*
X10285553Y-15234974D02*
X10285553Y-15282593D01*
X10285553Y-15282593D02*
X10276029Y-15320688D01*
X10276029Y-15320688D02*
X10266505Y-15339736D01*
X10266505Y-15339736D02*
X10256982Y-15349260D01*
X10256982Y-15349260D02*
X10237934Y-15358784D01*
X10237934Y-15358784D02*
X10218886Y-15358784D01*
X10218886Y-15358784D02*
X10199839Y-15349260D01*
X10199839Y-15349260D02*
X10190315Y-15339736D01*
X10190315Y-15339736D02*
X10180791Y-15320688D01*
X10180791Y-15320688D02*
X10171267Y-15282593D01*
X10171267Y-15282593D02*
X10171267Y-15234974D01*
X10171267Y-15234974D02*
X10180791Y-15196879D01*
X10180791Y-15196879D02*
X10190315Y-15177831D01*
X10190315Y-15177831D02*
X10199839Y-15168308D01*
X10199839Y-15168308D02*
X10218886Y-15158784D01*
X10409363Y-15158784D02*
X10428410Y-15158784D01*
X10428410Y-15158784D02*
X10447458Y-15168308D01*
X10447458Y-15168308D02*
X10456982Y-15177831D01*
X10456982Y-15177831D02*
X10466505Y-15196879D01*
X10466505Y-15196879D02*
X10476029Y-15234974D01*
X10476029Y-15234974D02*
X10476029Y-15282593D01*
X10476029Y-15282593D02*
X10466505Y-15320688D01*
X10466505Y-15320688D02*
X10456982Y-15339736D01*
X10456982Y-15339736D02*
X10447458Y-15349260D01*
X10447458Y-15349260D02*
X10428410Y-15358784D01*
X10428410Y-15358784D02*
X10409363Y-15358784D01*
X10409363Y-15358784D02*
X10390315Y-15349260D01*
X10390315Y-15349260D02*
X10380791Y-15339736D01*
X10380791Y-15339736D02*
X10371267Y-15320688D01*
X10371267Y-15320688D02*
X10361744Y-15282593D01*
X10361744Y-15282593D02*
X10361744Y-15234974D01*
X10361744Y-15234974D02*
X10371267Y-15196879D01*
X10371267Y-15196879D02*
X10380791Y-15177831D01*
X10380791Y-15177831D02*
X10390315Y-15168308D01*
X10390315Y-15168308D02*
X10409363Y-15158784D01*
X10599839Y-15158784D02*
X10618886Y-15158784D01*
X10618886Y-15158784D02*
X10637934Y-15168308D01*
X10637934Y-15168308D02*
X10647458Y-15177831D01*
X10647458Y-15177831D02*
X10656982Y-15196879D01*
X10656982Y-15196879D02*
X10666505Y-15234974D01*
X10666505Y-15234974D02*
X10666505Y-15282593D01*
X10666505Y-15282593D02*
X10656982Y-15320688D01*
X10656982Y-15320688D02*
X10647458Y-15339736D01*
X10647458Y-15339736D02*
X10637934Y-15349260D01*
X10637934Y-15349260D02*
X10618886Y-15358784D01*
X10618886Y-15358784D02*
X10599839Y-15358784D01*
X10599839Y-15358784D02*
X10580791Y-15349260D01*
X10580791Y-15349260D02*
X10571267Y-15339736D01*
X10571267Y-15339736D02*
X10561744Y-15320688D01*
X10561744Y-15320688D02*
X10552220Y-15282593D01*
X10552220Y-15282593D02*
X10552220Y-15234974D01*
X10552220Y-15234974D02*
X10561744Y-15196879D01*
X10561744Y-15196879D02*
X10571267Y-15177831D01*
X10571267Y-15177831D02*
X10580791Y-15168308D01*
X10580791Y-15168308D02*
X10599839Y-15158784D01*
X10752220Y-15358784D02*
X10752220Y-15225450D01*
X10752220Y-15244498D02*
X10761744Y-15234974D01*
X10761744Y-15234974D02*
X10780791Y-15225450D01*
X10780791Y-15225450D02*
X10809363Y-15225450D01*
X10809363Y-15225450D02*
X10828410Y-15234974D01*
X10828410Y-15234974D02*
X10837934Y-15254022D01*
X10837934Y-15254022D02*
X10837934Y-15358784D01*
X10837934Y-15254022D02*
X10847458Y-15234974D01*
X10847458Y-15234974D02*
X10866505Y-15225450D01*
X10866505Y-15225450D02*
X10895077Y-15225450D01*
X10895077Y-15225450D02*
X10914125Y-15234974D01*
X10914125Y-15234974D02*
X10923648Y-15254022D01*
X10923648Y-15254022D02*
X10923648Y-15358784D01*
X11018886Y-15358784D02*
X11018886Y-15225450D01*
X11018886Y-15244498D02*
X11028410Y-15234974D01*
X11028410Y-15234974D02*
X11047458Y-15225450D01*
X11047458Y-15225450D02*
X11076029Y-15225450D01*
X11076029Y-15225450D02*
X11095077Y-15234974D01*
X11095077Y-15234974D02*
X11104601Y-15254022D01*
X11104601Y-15254022D02*
X11104601Y-15358784D01*
X11104601Y-15254022D02*
X11114125Y-15234974D01*
X11114125Y-15234974D02*
X11133172Y-15225450D01*
X11133172Y-15225450D02*
X11161744Y-15225450D01*
X11161744Y-15225450D02*
X11180791Y-15234974D01*
X11180791Y-15234974D02*
X11190315Y-15254022D01*
X11190315Y-15254022D02*
X11190315Y-15358784D01*
X11580791Y-15149260D02*
X11409363Y-15406403D01*
X11837934Y-15158784D02*
X11856982Y-15158784D01*
X11856982Y-15158784D02*
X11876029Y-15168308D01*
X11876029Y-15168308D02*
X11885553Y-15177831D01*
X11885553Y-15177831D02*
X11895077Y-15196879D01*
X11895077Y-15196879D02*
X11904601Y-15234974D01*
X11904601Y-15234974D02*
X11904601Y-15282593D01*
X11904601Y-15282593D02*
X11895077Y-15320688D01*
X11895077Y-15320688D02*
X11885553Y-15339736D01*
X11885553Y-15339736D02*
X11876029Y-15349260D01*
X11876029Y-15349260D02*
X11856982Y-15358784D01*
X11856982Y-15358784D02*
X11837934Y-15358784D01*
X11837934Y-15358784D02*
X11818886Y-15349260D01*
X11818886Y-15349260D02*
X11809363Y-15339736D01*
X11809363Y-15339736D02*
X11799839Y-15320688D01*
X11799839Y-15320688D02*
X11790315Y-15282593D01*
X11790315Y-15282593D02*
X11790315Y-15234974D01*
X11790315Y-15234974D02*
X11799839Y-15196879D01*
X11799839Y-15196879D02*
X11809363Y-15177831D01*
X11809363Y-15177831D02*
X11818886Y-15168308D01*
X11818886Y-15168308D02*
X11837934Y-15158784D01*
X11990315Y-15339736D02*
X11999839Y-15349260D01*
X11999839Y-15349260D02*
X11990315Y-15358784D01*
X11990315Y-15358784D02*
X11980791Y-15349260D01*
X11980791Y-15349260D02*
X11990315Y-15339736D01*
X11990315Y-15339736D02*
X11990315Y-15358784D01*
X12123648Y-15158784D02*
X12142696Y-15158784D01*
X12142696Y-15158784D02*
X12161744Y-15168308D01*
X12161744Y-15168308D02*
X12171267Y-15177831D01*
X12171267Y-15177831D02*
X12180791Y-15196879D01*
X12180791Y-15196879D02*
X12190315Y-15234974D01*
X12190315Y-15234974D02*
X12190315Y-15282593D01*
X12190315Y-15282593D02*
X12180791Y-15320688D01*
X12180791Y-15320688D02*
X12171267Y-15339736D01*
X12171267Y-15339736D02*
X12161744Y-15349260D01*
X12161744Y-15349260D02*
X12142696Y-15358784D01*
X12142696Y-15358784D02*
X12123648Y-15358784D01*
X12123648Y-15358784D02*
X12104601Y-15349260D01*
X12104601Y-15349260D02*
X12095077Y-15339736D01*
X12095077Y-15339736D02*
X12085553Y-15320688D01*
X12085553Y-15320688D02*
X12076029Y-15282593D01*
X12076029Y-15282593D02*
X12076029Y-15234974D01*
X12076029Y-15234974D02*
X12085553Y-15196879D01*
X12085553Y-15196879D02*
X12095077Y-15177831D01*
X12095077Y-15177831D02*
X12104601Y-15168308D01*
X12104601Y-15168308D02*
X12123648Y-15158784D01*
X12256982Y-15158784D02*
X12380791Y-15158784D01*
X12380791Y-15158784D02*
X12314125Y-15234974D01*
X12314125Y-15234974D02*
X12342696Y-15234974D01*
X12342696Y-15234974D02*
X12361744Y-15244498D01*
X12361744Y-15244498D02*
X12371267Y-15254022D01*
X12371267Y-15254022D02*
X12380791Y-15273069D01*
X12380791Y-15273069D02*
X12380791Y-15320688D01*
X12380791Y-15320688D02*
X12371267Y-15339736D01*
X12371267Y-15339736D02*
X12361744Y-15349260D01*
X12361744Y-15349260D02*
X12342696Y-15358784D01*
X12342696Y-15358784D02*
X12285553Y-15358784D01*
X12285553Y-15358784D02*
X12266506Y-15349260D01*
X12266506Y-15349260D02*
X12256982Y-15339736D01*
X12476029Y-15358784D02*
X12514125Y-15358784D01*
X12514125Y-15358784D02*
X12533172Y-15349260D01*
X12533172Y-15349260D02*
X12542696Y-15339736D01*
X12542696Y-15339736D02*
X12561744Y-15311165D01*
X12561744Y-15311165D02*
X12571267Y-15273069D01*
X12571267Y-15273069D02*
X12571267Y-15196879D01*
X12571267Y-15196879D02*
X12561744Y-15177831D01*
X12561744Y-15177831D02*
X12552220Y-15168308D01*
X12552220Y-15168308D02*
X12533172Y-15158784D01*
X12533172Y-15158784D02*
X12495077Y-15158784D01*
X12495077Y-15158784D02*
X12476029Y-15168308D01*
X12476029Y-15168308D02*
X12466506Y-15177831D01*
X12466506Y-15177831D02*
X12456982Y-15196879D01*
X12456982Y-15196879D02*
X12456982Y-15244498D01*
X12456982Y-15244498D02*
X12466506Y-15263546D01*
X12466506Y-15263546D02*
X12476029Y-15273069D01*
X12476029Y-15273069D02*
X12495077Y-15282593D01*
X12495077Y-15282593D02*
X12533172Y-15282593D01*
X12533172Y-15282593D02*
X12552220Y-15273069D01*
X12552220Y-15273069D02*
X12561744Y-15263546D01*
X12561744Y-15263546D02*
X12571267Y-15244498D01*
X12742696Y-15225450D02*
X12742696Y-15358784D01*
X12695077Y-15149260D02*
X12647458Y-15292117D01*
X12647458Y-15292117D02*
X12771267Y-15292117D01*
X12837934Y-15158784D02*
X12837934Y-15196879D01*
X12914125Y-15158784D02*
X12914125Y-15196879D01*
X13209363Y-15434974D02*
X13199839Y-15425450D01*
X13199839Y-15425450D02*
X13180791Y-15396879D01*
X13180791Y-15396879D02*
X13171268Y-15377831D01*
X13171268Y-15377831D02*
X13161744Y-15349260D01*
X13161744Y-15349260D02*
X13152220Y-15301641D01*
X13152220Y-15301641D02*
X13152220Y-15263546D01*
X13152220Y-15263546D02*
X13161744Y-15215927D01*
X13161744Y-15215927D02*
X13171268Y-15187355D01*
X13171268Y-15187355D02*
X13180791Y-15168308D01*
X13180791Y-15168308D02*
X13199839Y-15139736D01*
X13199839Y-15139736D02*
X13209363Y-15130212D01*
X13266506Y-15158784D02*
X13390315Y-15158784D01*
X13390315Y-15158784D02*
X13323648Y-15234974D01*
X13323648Y-15234974D02*
X13352220Y-15234974D01*
X13352220Y-15234974D02*
X13371268Y-15244498D01*
X13371268Y-15244498D02*
X13380791Y-15254022D01*
X13380791Y-15254022D02*
X13390315Y-15273069D01*
X13390315Y-15273069D02*
X13390315Y-15320688D01*
X13390315Y-15320688D02*
X13380791Y-15339736D01*
X13380791Y-15339736D02*
X13371268Y-15349260D01*
X13371268Y-15349260D02*
X13352220Y-15358784D01*
X13352220Y-15358784D02*
X13295077Y-15358784D01*
X13295077Y-15358784D02*
X13276029Y-15349260D01*
X13276029Y-15349260D02*
X13266506Y-15339736D01*
X13628410Y-15358784D02*
X13628410Y-15158784D01*
X13714125Y-15358784D02*
X13714125Y-15254022D01*
X13714125Y-15254022D02*
X13704601Y-15234974D01*
X13704601Y-15234974D02*
X13685553Y-15225450D01*
X13685553Y-15225450D02*
X13656982Y-15225450D01*
X13656982Y-15225450D02*
X13637934Y-15234974D01*
X13637934Y-15234974D02*
X13628410Y-15244498D01*
X13837934Y-15358784D02*
X13818887Y-15349260D01*
X13818887Y-15349260D02*
X13809363Y-15339736D01*
X13809363Y-15339736D02*
X13799839Y-15320688D01*
X13799839Y-15320688D02*
X13799839Y-15263546D01*
X13799839Y-15263546D02*
X13809363Y-15244498D01*
X13809363Y-15244498D02*
X13818887Y-15234974D01*
X13818887Y-15234974D02*
X13837934Y-15225450D01*
X13837934Y-15225450D02*
X13866506Y-15225450D01*
X13866506Y-15225450D02*
X13885553Y-15234974D01*
X13885553Y-15234974D02*
X13895077Y-15244498D01*
X13895077Y-15244498D02*
X13904601Y-15263546D01*
X13904601Y-15263546D02*
X13904601Y-15320688D01*
X13904601Y-15320688D02*
X13895077Y-15339736D01*
X13895077Y-15339736D02*
X13885553Y-15349260D01*
X13885553Y-15349260D02*
X13866506Y-15358784D01*
X13866506Y-15358784D02*
X13837934Y-15358784D01*
X14018887Y-15358784D02*
X13999839Y-15349260D01*
X13999839Y-15349260D02*
X13990315Y-15330212D01*
X13990315Y-15330212D02*
X13990315Y-15158784D01*
X14171268Y-15349260D02*
X14152220Y-15358784D01*
X14152220Y-15358784D02*
X14114125Y-15358784D01*
X14114125Y-15358784D02*
X14095077Y-15349260D01*
X14095077Y-15349260D02*
X14085553Y-15330212D01*
X14085553Y-15330212D02*
X14085553Y-15254022D01*
X14085553Y-15254022D02*
X14095077Y-15234974D01*
X14095077Y-15234974D02*
X14114125Y-15225450D01*
X14114125Y-15225450D02*
X14152220Y-15225450D01*
X14152220Y-15225450D02*
X14171268Y-15234974D01*
X14171268Y-15234974D02*
X14180791Y-15254022D01*
X14180791Y-15254022D02*
X14180791Y-15273069D01*
X14180791Y-15273069D02*
X14085553Y-15292117D01*
X14256982Y-15349260D02*
X14276030Y-15358784D01*
X14276030Y-15358784D02*
X14314125Y-15358784D01*
X14314125Y-15358784D02*
X14333172Y-15349260D01*
X14333172Y-15349260D02*
X14342696Y-15330212D01*
X14342696Y-15330212D02*
X14342696Y-15320688D01*
X14342696Y-15320688D02*
X14333172Y-15301641D01*
X14333172Y-15301641D02*
X14314125Y-15292117D01*
X14314125Y-15292117D02*
X14285553Y-15292117D01*
X14285553Y-15292117D02*
X14266506Y-15282593D01*
X14266506Y-15282593D02*
X14256982Y-15263546D01*
X14256982Y-15263546D02*
X14256982Y-15254022D01*
X14256982Y-15254022D02*
X14266506Y-15234974D01*
X14266506Y-15234974D02*
X14285553Y-15225450D01*
X14285553Y-15225450D02*
X14314125Y-15225450D01*
X14314125Y-15225450D02*
X14333172Y-15234974D01*
X14409363Y-15434974D02*
X14418887Y-15425450D01*
X14418887Y-15425450D02*
X14437934Y-15396879D01*
X14437934Y-15396879D02*
X14447458Y-15377831D01*
X14447458Y-15377831D02*
X14456982Y-15349260D01*
X14456982Y-15349260D02*
X14466506Y-15301641D01*
X14466506Y-15301641D02*
X14466506Y-15263546D01*
X14466506Y-15263546D02*
X14456982Y-15215927D01*
X14456982Y-15215927D02*
X14447458Y-15187355D01*
X14447458Y-15187355D02*
X14437934Y-15168308D01*
X14437934Y-15168308D02*
X14418887Y-15139736D01*
X14418887Y-15139736D02*
X14409363Y-15130212D01*
D15*
X9583300Y-15582300D02*
X9634300Y-15531300D01*
X9583300Y-15480300D01*
X9532300Y-15531300D01*
X9583300Y-15582300D01*
D11*
X9999839Y-15622784D02*
X9885553Y-15622784D01*
X9942696Y-15622784D02*
X9942696Y-15422784D01*
X9942696Y-15422784D02*
X9923648Y-15451355D01*
X9923648Y-15451355D02*
X9904601Y-15470403D01*
X9904601Y-15470403D02*
X9885553Y-15479927D01*
X10085553Y-15603736D02*
X10095077Y-15613260D01*
X10095077Y-15613260D02*
X10085553Y-15622784D01*
X10085553Y-15622784D02*
X10076029Y-15613260D01*
X10076029Y-15613260D02*
X10085553Y-15603736D01*
X10085553Y-15603736D02*
X10085553Y-15622784D01*
X10218886Y-15422784D02*
X10237934Y-15422784D01*
X10237934Y-15422784D02*
X10256982Y-15432308D01*
X10256982Y-15432308D02*
X10266505Y-15441831D01*
X10266505Y-15441831D02*
X10276029Y-15460879D01*
X10276029Y-15460879D02*
X10285553Y-15498974D01*
X10285553Y-15498974D02*
X10285553Y-15546593D01*
X10285553Y-15546593D02*
X10276029Y-15584688D01*
X10276029Y-15584688D02*
X10266505Y-15603736D01*
X10266505Y-15603736D02*
X10256982Y-15613260D01*
X10256982Y-15613260D02*
X10237934Y-15622784D01*
X10237934Y-15622784D02*
X10218886Y-15622784D01*
X10218886Y-15622784D02*
X10199839Y-15613260D01*
X10199839Y-15613260D02*
X10190315Y-15603736D01*
X10190315Y-15603736D02*
X10180791Y-15584688D01*
X10180791Y-15584688D02*
X10171267Y-15546593D01*
X10171267Y-15546593D02*
X10171267Y-15498974D01*
X10171267Y-15498974D02*
X10180791Y-15460879D01*
X10180791Y-15460879D02*
X10190315Y-15441831D01*
X10190315Y-15441831D02*
X10199839Y-15432308D01*
X10199839Y-15432308D02*
X10218886Y-15422784D01*
X10361744Y-15441831D02*
X10371267Y-15432308D01*
X10371267Y-15432308D02*
X10390315Y-15422784D01*
X10390315Y-15422784D02*
X10437934Y-15422784D01*
X10437934Y-15422784D02*
X10456982Y-15432308D01*
X10456982Y-15432308D02*
X10466505Y-15441831D01*
X10466505Y-15441831D02*
X10476029Y-15460879D01*
X10476029Y-15460879D02*
X10476029Y-15479927D01*
X10476029Y-15479927D02*
X10466505Y-15508498D01*
X10466505Y-15508498D02*
X10352220Y-15622784D01*
X10352220Y-15622784D02*
X10476029Y-15622784D01*
X10599839Y-15422784D02*
X10618886Y-15422784D01*
X10618886Y-15422784D02*
X10637934Y-15432308D01*
X10637934Y-15432308D02*
X10647458Y-15441831D01*
X10647458Y-15441831D02*
X10656982Y-15460879D01*
X10656982Y-15460879D02*
X10666505Y-15498974D01*
X10666505Y-15498974D02*
X10666505Y-15546593D01*
X10666505Y-15546593D02*
X10656982Y-15584688D01*
X10656982Y-15584688D02*
X10647458Y-15603736D01*
X10647458Y-15603736D02*
X10637934Y-15613260D01*
X10637934Y-15613260D02*
X10618886Y-15622784D01*
X10618886Y-15622784D02*
X10599839Y-15622784D01*
X10599839Y-15622784D02*
X10580791Y-15613260D01*
X10580791Y-15613260D02*
X10571267Y-15603736D01*
X10571267Y-15603736D02*
X10561744Y-15584688D01*
X10561744Y-15584688D02*
X10552220Y-15546593D01*
X10552220Y-15546593D02*
X10552220Y-15498974D01*
X10552220Y-15498974D02*
X10561744Y-15460879D01*
X10561744Y-15460879D02*
X10571267Y-15441831D01*
X10571267Y-15441831D02*
X10580791Y-15432308D01*
X10580791Y-15432308D02*
X10599839Y-15422784D01*
X10752220Y-15622784D02*
X10752220Y-15489450D01*
X10752220Y-15508498D02*
X10761744Y-15498974D01*
X10761744Y-15498974D02*
X10780791Y-15489450D01*
X10780791Y-15489450D02*
X10809363Y-15489450D01*
X10809363Y-15489450D02*
X10828410Y-15498974D01*
X10828410Y-15498974D02*
X10837934Y-15518022D01*
X10837934Y-15518022D02*
X10837934Y-15622784D01*
X10837934Y-15518022D02*
X10847458Y-15498974D01*
X10847458Y-15498974D02*
X10866505Y-15489450D01*
X10866505Y-15489450D02*
X10895077Y-15489450D01*
X10895077Y-15489450D02*
X10914125Y-15498974D01*
X10914125Y-15498974D02*
X10923648Y-15518022D01*
X10923648Y-15518022D02*
X10923648Y-15622784D01*
X11018886Y-15622784D02*
X11018886Y-15489450D01*
X11018886Y-15508498D02*
X11028410Y-15498974D01*
X11028410Y-15498974D02*
X11047458Y-15489450D01*
X11047458Y-15489450D02*
X11076029Y-15489450D01*
X11076029Y-15489450D02*
X11095077Y-15498974D01*
X11095077Y-15498974D02*
X11104601Y-15518022D01*
X11104601Y-15518022D02*
X11104601Y-15622784D01*
X11104601Y-15518022D02*
X11114125Y-15498974D01*
X11114125Y-15498974D02*
X11133172Y-15489450D01*
X11133172Y-15489450D02*
X11161744Y-15489450D01*
X11161744Y-15489450D02*
X11180791Y-15498974D01*
X11180791Y-15498974D02*
X11190315Y-15518022D01*
X11190315Y-15518022D02*
X11190315Y-15622784D01*
X11580791Y-15413260D02*
X11409363Y-15670403D01*
X11837934Y-15422784D02*
X11856982Y-15422784D01*
X11856982Y-15422784D02*
X11876029Y-15432308D01*
X11876029Y-15432308D02*
X11885553Y-15441831D01*
X11885553Y-15441831D02*
X11895077Y-15460879D01*
X11895077Y-15460879D02*
X11904601Y-15498974D01*
X11904601Y-15498974D02*
X11904601Y-15546593D01*
X11904601Y-15546593D02*
X11895077Y-15584688D01*
X11895077Y-15584688D02*
X11885553Y-15603736D01*
X11885553Y-15603736D02*
X11876029Y-15613260D01*
X11876029Y-15613260D02*
X11856982Y-15622784D01*
X11856982Y-15622784D02*
X11837934Y-15622784D01*
X11837934Y-15622784D02*
X11818886Y-15613260D01*
X11818886Y-15613260D02*
X11809363Y-15603736D01*
X11809363Y-15603736D02*
X11799839Y-15584688D01*
X11799839Y-15584688D02*
X11790315Y-15546593D01*
X11790315Y-15546593D02*
X11790315Y-15498974D01*
X11790315Y-15498974D02*
X11799839Y-15460879D01*
X11799839Y-15460879D02*
X11809363Y-15441831D01*
X11809363Y-15441831D02*
X11818886Y-15432308D01*
X11818886Y-15432308D02*
X11837934Y-15422784D01*
X11990315Y-15603736D02*
X11999839Y-15613260D01*
X11999839Y-15613260D02*
X11990315Y-15622784D01*
X11990315Y-15622784D02*
X11980791Y-15613260D01*
X11980791Y-15613260D02*
X11990315Y-15603736D01*
X11990315Y-15603736D02*
X11990315Y-15622784D01*
X12123648Y-15422784D02*
X12142696Y-15422784D01*
X12142696Y-15422784D02*
X12161744Y-15432308D01*
X12161744Y-15432308D02*
X12171267Y-15441831D01*
X12171267Y-15441831D02*
X12180791Y-15460879D01*
X12180791Y-15460879D02*
X12190315Y-15498974D01*
X12190315Y-15498974D02*
X12190315Y-15546593D01*
X12190315Y-15546593D02*
X12180791Y-15584688D01*
X12180791Y-15584688D02*
X12171267Y-15603736D01*
X12171267Y-15603736D02*
X12161744Y-15613260D01*
X12161744Y-15613260D02*
X12142696Y-15622784D01*
X12142696Y-15622784D02*
X12123648Y-15622784D01*
X12123648Y-15622784D02*
X12104601Y-15613260D01*
X12104601Y-15613260D02*
X12095077Y-15603736D01*
X12095077Y-15603736D02*
X12085553Y-15584688D01*
X12085553Y-15584688D02*
X12076029Y-15546593D01*
X12076029Y-15546593D02*
X12076029Y-15498974D01*
X12076029Y-15498974D02*
X12085553Y-15460879D01*
X12085553Y-15460879D02*
X12095077Y-15441831D01*
X12095077Y-15441831D02*
X12104601Y-15432308D01*
X12104601Y-15432308D02*
X12123648Y-15422784D01*
X12361744Y-15489450D02*
X12361744Y-15622784D01*
X12314125Y-15413260D02*
X12266506Y-15556117D01*
X12266506Y-15556117D02*
X12390315Y-15556117D01*
X12504601Y-15422784D02*
X12523648Y-15422784D01*
X12523648Y-15422784D02*
X12542696Y-15432308D01*
X12542696Y-15432308D02*
X12552220Y-15441831D01*
X12552220Y-15441831D02*
X12561744Y-15460879D01*
X12561744Y-15460879D02*
X12571267Y-15498974D01*
X12571267Y-15498974D02*
X12571267Y-15546593D01*
X12571267Y-15546593D02*
X12561744Y-15584688D01*
X12561744Y-15584688D02*
X12552220Y-15603736D01*
X12552220Y-15603736D02*
X12542696Y-15613260D01*
X12542696Y-15613260D02*
X12523648Y-15622784D01*
X12523648Y-15622784D02*
X12504601Y-15622784D01*
X12504601Y-15622784D02*
X12485553Y-15613260D01*
X12485553Y-15613260D02*
X12476029Y-15603736D01*
X12476029Y-15603736D02*
X12466506Y-15584688D01*
X12466506Y-15584688D02*
X12456982Y-15546593D01*
X12456982Y-15546593D02*
X12456982Y-15498974D01*
X12456982Y-15498974D02*
X12466506Y-15460879D01*
X12466506Y-15460879D02*
X12476029Y-15441831D01*
X12476029Y-15441831D02*
X12485553Y-15432308D01*
X12485553Y-15432308D02*
X12504601Y-15422784D01*
X12647458Y-15441831D02*
X12656982Y-15432308D01*
X12656982Y-15432308D02*
X12676029Y-15422784D01*
X12676029Y-15422784D02*
X12723648Y-15422784D01*
X12723648Y-15422784D02*
X12742696Y-15432308D01*
X12742696Y-15432308D02*
X12752220Y-15441831D01*
X12752220Y-15441831D02*
X12761744Y-15460879D01*
X12761744Y-15460879D02*
X12761744Y-15479927D01*
X12761744Y-15479927D02*
X12752220Y-15508498D01*
X12752220Y-15508498D02*
X12637934Y-15622784D01*
X12637934Y-15622784D02*
X12761744Y-15622784D01*
X12837934Y-15422784D02*
X12837934Y-15460879D01*
X12914125Y-15422784D02*
X12914125Y-15460879D01*
X13209363Y-15698974D02*
X13199839Y-15689450D01*
X13199839Y-15689450D02*
X13180791Y-15660879D01*
X13180791Y-15660879D02*
X13171268Y-15641831D01*
X13171268Y-15641831D02*
X13161744Y-15613260D01*
X13161744Y-15613260D02*
X13152220Y-15565641D01*
X13152220Y-15565641D02*
X13152220Y-15527546D01*
X13152220Y-15527546D02*
X13161744Y-15479927D01*
X13161744Y-15479927D02*
X13171268Y-15451355D01*
X13171268Y-15451355D02*
X13180791Y-15432308D01*
X13180791Y-15432308D02*
X13199839Y-15403736D01*
X13199839Y-15403736D02*
X13209363Y-15394212D01*
X13266506Y-15422784D02*
X13390315Y-15422784D01*
X13390315Y-15422784D02*
X13323648Y-15498974D01*
X13323648Y-15498974D02*
X13352220Y-15498974D01*
X13352220Y-15498974D02*
X13371268Y-15508498D01*
X13371268Y-15508498D02*
X13380791Y-15518022D01*
X13380791Y-15518022D02*
X13390315Y-15537069D01*
X13390315Y-15537069D02*
X13390315Y-15584688D01*
X13390315Y-15584688D02*
X13380791Y-15603736D01*
X13380791Y-15603736D02*
X13371268Y-15613260D01*
X13371268Y-15613260D02*
X13352220Y-15622784D01*
X13352220Y-15622784D02*
X13295077Y-15622784D01*
X13295077Y-15622784D02*
X13276029Y-15613260D01*
X13276029Y-15613260D02*
X13266506Y-15603736D01*
X13485553Y-15622784D02*
X13523648Y-15622784D01*
X13523648Y-15622784D02*
X13542696Y-15613260D01*
X13542696Y-15613260D02*
X13552220Y-15603736D01*
X13552220Y-15603736D02*
X13571268Y-15575165D01*
X13571268Y-15575165D02*
X13580791Y-15537069D01*
X13580791Y-15537069D02*
X13580791Y-15460879D01*
X13580791Y-15460879D02*
X13571268Y-15441831D01*
X13571268Y-15441831D02*
X13561744Y-15432308D01*
X13561744Y-15432308D02*
X13542696Y-15422784D01*
X13542696Y-15422784D02*
X13504601Y-15422784D01*
X13504601Y-15422784D02*
X13485553Y-15432308D01*
X13485553Y-15432308D02*
X13476029Y-15441831D01*
X13476029Y-15441831D02*
X13466506Y-15460879D01*
X13466506Y-15460879D02*
X13466506Y-15508498D01*
X13466506Y-15508498D02*
X13476029Y-15527546D01*
X13476029Y-15527546D02*
X13485553Y-15537069D01*
X13485553Y-15537069D02*
X13504601Y-15546593D01*
X13504601Y-15546593D02*
X13542696Y-15546593D01*
X13542696Y-15546593D02*
X13561744Y-15537069D01*
X13561744Y-15537069D02*
X13571268Y-15527546D01*
X13571268Y-15527546D02*
X13580791Y-15508498D01*
X13818887Y-15622784D02*
X13818887Y-15422784D01*
X13904601Y-15622784D02*
X13904601Y-15518022D01*
X13904601Y-15518022D02*
X13895077Y-15498974D01*
X13895077Y-15498974D02*
X13876030Y-15489450D01*
X13876030Y-15489450D02*
X13847458Y-15489450D01*
X13847458Y-15489450D02*
X13828410Y-15498974D01*
X13828410Y-15498974D02*
X13818887Y-15508498D01*
X14028410Y-15622784D02*
X14009363Y-15613260D01*
X14009363Y-15613260D02*
X13999839Y-15603736D01*
X13999839Y-15603736D02*
X13990315Y-15584688D01*
X13990315Y-15584688D02*
X13990315Y-15527546D01*
X13990315Y-15527546D02*
X13999839Y-15508498D01*
X13999839Y-15508498D02*
X14009363Y-15498974D01*
X14009363Y-15498974D02*
X14028410Y-15489450D01*
X14028410Y-15489450D02*
X14056982Y-15489450D01*
X14056982Y-15489450D02*
X14076030Y-15498974D01*
X14076030Y-15498974D02*
X14085553Y-15508498D01*
X14085553Y-15508498D02*
X14095077Y-15527546D01*
X14095077Y-15527546D02*
X14095077Y-15584688D01*
X14095077Y-15584688D02*
X14085553Y-15603736D01*
X14085553Y-15603736D02*
X14076030Y-15613260D01*
X14076030Y-15613260D02*
X14056982Y-15622784D01*
X14056982Y-15622784D02*
X14028410Y-15622784D01*
X14209363Y-15622784D02*
X14190315Y-15613260D01*
X14190315Y-15613260D02*
X14180791Y-15594212D01*
X14180791Y-15594212D02*
X14180791Y-15422784D01*
X14361744Y-15613260D02*
X14342696Y-15622784D01*
X14342696Y-15622784D02*
X14304601Y-15622784D01*
X14304601Y-15622784D02*
X14285553Y-15613260D01*
X14285553Y-15613260D02*
X14276030Y-15594212D01*
X14276030Y-15594212D02*
X14276030Y-15518022D01*
X14276030Y-15518022D02*
X14285553Y-15498974D01*
X14285553Y-15498974D02*
X14304601Y-15489450D01*
X14304601Y-15489450D02*
X14342696Y-15489450D01*
X14342696Y-15489450D02*
X14361744Y-15498974D01*
X14361744Y-15498974D02*
X14371268Y-15518022D01*
X14371268Y-15518022D02*
X14371268Y-15537069D01*
X14371268Y-15537069D02*
X14276030Y-15556117D01*
X14447458Y-15613260D02*
X14466506Y-15622784D01*
X14466506Y-15622784D02*
X14504601Y-15622784D01*
X14504601Y-15622784D02*
X14523649Y-15613260D01*
X14523649Y-15613260D02*
X14533172Y-15594212D01*
X14533172Y-15594212D02*
X14533172Y-15584688D01*
X14533172Y-15584688D02*
X14523649Y-15565641D01*
X14523649Y-15565641D02*
X14504601Y-15556117D01*
X14504601Y-15556117D02*
X14476030Y-15556117D01*
X14476030Y-15556117D02*
X14456982Y-15546593D01*
X14456982Y-15546593D02*
X14447458Y-15527546D01*
X14447458Y-15527546D02*
X14447458Y-15518022D01*
X14447458Y-15518022D02*
X14456982Y-15498974D01*
X14456982Y-15498974D02*
X14476030Y-15489450D01*
X14476030Y-15489450D02*
X14504601Y-15489450D01*
X14504601Y-15489450D02*
X14523649Y-15498974D01*
X14599839Y-15698974D02*
X14609363Y-15689450D01*
X14609363Y-15689450D02*
X14628411Y-15660879D01*
X14628411Y-15660879D02*
X14637934Y-15641831D01*
X14637934Y-15641831D02*
X14647458Y-15613260D01*
X14647458Y-15613260D02*
X14656982Y-15565641D01*
X14656982Y-15565641D02*
X14656982Y-15527546D01*
X14656982Y-15527546D02*
X14647458Y-15479927D01*
X14647458Y-15479927D02*
X14637934Y-15451355D01*
X14637934Y-15451355D02*
X14628411Y-15432308D01*
X14628411Y-15432308D02*
X14609363Y-15403736D01*
X14609363Y-15403736D02*
X14599839Y-15394212D01*
M02*
