%TF.GenerationSoftware,KiCad,Pcbnew,7.0.7*%
%TF.CreationDate,2024-05-10T07:30:10-05:00*%
%TF.ProjectId,WaterBlasterV2,57617465-7242-46c6-9173-74657256322e,rev?*%
%TF.SameCoordinates,Original*%
%TF.FileFunction,Drillmap*%
%TF.FilePolarity,Positive*%
%FSLAX45Y45*%
G04 Gerber Fmt 4.5, Leading zero omitted, Abs format (unit mm)*
G04 Created by KiCad (PCBNEW 7.0.7) date 2024-05-10 07:30:10*
%MOMM*%
%LPD*%
G01*
G04 APERTURE LIST*
%ADD10C,0.100000*%
%ADD11C,0.200000*%
%ADD12C,0.127000*%
%ADD13C,0.250000*%
%ADD14C,0.299999*%
%ADD15C,0.300000*%
G04 APERTURE END LIST*
D10*
X9639300Y-13601700D02*
X9639300Y-5740400D01*
X14071600Y-13830300D02*
X9867900Y-13830300D01*
X14300200Y-5791200D02*
X14300200Y-13601700D01*
X9867900Y-5511800D02*
X14020800Y-5511800D01*
X14300200Y-5791200D02*
G75*
G03*
X14020800Y-5511800I-279400J0D01*
G01*
X9867900Y-5511800D02*
G75*
G03*
X9639300Y-5740400I0J-228600D01*
G01*
X9639300Y-13601700D02*
G75*
G03*
X9867900Y-13830300I228600J0D01*
G01*
X14071600Y-13830300D02*
G75*
G03*
X14300200Y-13601700I0J228600D01*
G01*
D11*
D12*
X9755300Y-7061200D02*
X9882300Y-7188200D01*
X9882300Y-7061200D02*
X9755300Y-7188200D01*
X9758400Y-8552600D02*
X9885400Y-8679600D01*
X9885400Y-8552600D02*
X9758400Y-8679600D01*
X9938600Y-8891700D02*
X10065600Y-9018700D01*
X10065600Y-8891700D02*
X9938600Y-9018700D01*
X9938600Y-10091700D02*
X10065600Y-10218700D01*
X10065600Y-10091700D02*
X9938600Y-10218700D01*
X10046800Y-10726000D02*
X10173800Y-10853000D01*
X10173800Y-10726000D02*
X10046800Y-10853000D01*
X10046800Y-11626000D02*
X10173800Y-11753000D01*
X10173800Y-11626000D02*
X10046800Y-11753000D01*
X10655300Y-7061200D02*
X10782300Y-7188200D01*
X10782300Y-7061200D02*
X10655300Y-7188200D01*
X10658400Y-8552600D02*
X10785400Y-8679600D01*
X10785400Y-8552600D02*
X10658400Y-8679600D01*
X10954600Y-10723600D02*
X11081600Y-10850600D01*
X11081600Y-10723600D02*
X10954600Y-10850600D01*
X10954600Y-11623600D02*
X11081600Y-11750600D01*
X11081600Y-11623600D02*
X10954600Y-11750600D01*
X11291400Y-6905700D02*
X11418400Y-7032700D01*
X11418400Y-6905700D02*
X11291400Y-7032700D01*
X11291400Y-8105700D02*
X11418400Y-8232700D01*
X11418400Y-8105700D02*
X11291400Y-8232700D01*
X11856300Y-10723600D02*
X11983300Y-10850600D01*
X11983300Y-10723600D02*
X11856300Y-10850600D01*
X11856300Y-11623600D02*
X11983300Y-11750600D01*
X11983300Y-11623600D02*
X11856300Y-11750600D01*
X12313500Y-7999900D02*
X12440500Y-8126900D01*
X12440500Y-7999900D02*
X12313500Y-8126900D01*
X13213500Y-7999900D02*
X13340500Y-8126900D01*
X13340500Y-7999900D02*
X13213500Y-8126900D01*
D13*
X10056400Y-6111800D02*
G75*
G03*
X10056400Y-6111800I-125000J0D01*
G01*
X10081800Y-12026900D02*
G75*
G03*
X10081800Y-12026900I-125000J0D01*
G01*
X14082300Y-6032500D02*
G75*
G03*
X14082300Y-6032500I-125000J0D01*
G01*
X14095000Y-12014200D02*
G75*
G03*
X14095000Y-12014200I-125000J0D01*
G01*
D14*
X10326900Y-13058200D02*
X10326900Y-13358200D01*
X10176901Y-13208200D02*
X10476900Y-13208200D01*
X10796899Y-13058200D02*
X10796899Y-13358200D01*
X10646900Y-13208200D02*
X10946899Y-13208200D01*
D15*
X10710567Y-6141667D02*
X10710567Y-5929533D01*
X10498433Y-5929533D01*
X10498433Y-6141667D01*
X10710567Y-6141667D01*
X11790067Y-6141667D02*
X11790067Y-5929533D01*
X11577933Y-5929533D01*
X11577933Y-6141667D01*
X11790067Y-6141667D01*
X12310767Y-13387167D02*
X12310767Y-13175033D01*
X12098633Y-13175033D01*
X12098633Y-13387167D01*
X12310767Y-13387167D01*
X13009267Y-6141667D02*
X13009267Y-5929533D01*
X12797133Y-5929533D01*
X12797133Y-6141667D01*
X13009267Y-6141667D01*
X13682367Y-13390267D02*
X13682367Y-13178133D01*
X13470233Y-13178133D01*
X13470233Y-13390267D01*
X13682367Y-13390267D01*
D11*
X9895077Y-14146784D02*
X9895077Y-13946784D01*
X9895077Y-13946784D02*
X9942696Y-13946784D01*
X9942696Y-13946784D02*
X9971267Y-13956308D01*
X9971267Y-13956308D02*
X9990315Y-13975355D01*
X9990315Y-13975355D02*
X9999839Y-13994403D01*
X9999839Y-13994403D02*
X10009363Y-14032498D01*
X10009363Y-14032498D02*
X10009363Y-14061069D01*
X10009363Y-14061069D02*
X9999839Y-14099165D01*
X9999839Y-14099165D02*
X9990315Y-14118212D01*
X9990315Y-14118212D02*
X9971267Y-14137260D01*
X9971267Y-14137260D02*
X9942696Y-14146784D01*
X9942696Y-14146784D02*
X9895077Y-14146784D01*
X10095077Y-14146784D02*
X10095077Y-14013450D01*
X10095077Y-14051546D02*
X10104601Y-14032498D01*
X10104601Y-14032498D02*
X10114124Y-14022974D01*
X10114124Y-14022974D02*
X10133172Y-14013450D01*
X10133172Y-14013450D02*
X10152220Y-14013450D01*
X10218886Y-14146784D02*
X10218886Y-14013450D01*
X10218886Y-13946784D02*
X10209363Y-13956308D01*
X10209363Y-13956308D02*
X10218886Y-13965831D01*
X10218886Y-13965831D02*
X10228410Y-13956308D01*
X10228410Y-13956308D02*
X10218886Y-13946784D01*
X10218886Y-13946784D02*
X10218886Y-13965831D01*
X10342696Y-14146784D02*
X10323648Y-14137260D01*
X10323648Y-14137260D02*
X10314124Y-14118212D01*
X10314124Y-14118212D02*
X10314124Y-13946784D01*
X10447458Y-14146784D02*
X10428410Y-14137260D01*
X10428410Y-14137260D02*
X10418886Y-14118212D01*
X10418886Y-14118212D02*
X10418886Y-13946784D01*
X10676029Y-14146784D02*
X10676029Y-13946784D01*
X10676029Y-13946784D02*
X10742696Y-14089641D01*
X10742696Y-14089641D02*
X10809363Y-13946784D01*
X10809363Y-13946784D02*
X10809363Y-14146784D01*
X10990315Y-14146784D02*
X10990315Y-14042022D01*
X10990315Y-14042022D02*
X10980791Y-14022974D01*
X10980791Y-14022974D02*
X10961744Y-14013450D01*
X10961744Y-14013450D02*
X10923648Y-14013450D01*
X10923648Y-14013450D02*
X10904601Y-14022974D01*
X10990315Y-14137260D02*
X10971267Y-14146784D01*
X10971267Y-14146784D02*
X10923648Y-14146784D01*
X10923648Y-14146784D02*
X10904601Y-14137260D01*
X10904601Y-14137260D02*
X10895077Y-14118212D01*
X10895077Y-14118212D02*
X10895077Y-14099165D01*
X10895077Y-14099165D02*
X10904601Y-14080117D01*
X10904601Y-14080117D02*
X10923648Y-14070593D01*
X10923648Y-14070593D02*
X10971267Y-14070593D01*
X10971267Y-14070593D02*
X10990315Y-14061069D01*
X11085553Y-14013450D02*
X11085553Y-14213450D01*
X11085553Y-14022974D02*
X11104601Y-14013450D01*
X11104601Y-14013450D02*
X11142696Y-14013450D01*
X11142696Y-14013450D02*
X11161744Y-14022974D01*
X11161744Y-14022974D02*
X11171267Y-14032498D01*
X11171267Y-14032498D02*
X11180791Y-14051546D01*
X11180791Y-14051546D02*
X11180791Y-14108688D01*
X11180791Y-14108688D02*
X11171267Y-14127736D01*
X11171267Y-14127736D02*
X11161744Y-14137260D01*
X11161744Y-14137260D02*
X11142696Y-14146784D01*
X11142696Y-14146784D02*
X11104601Y-14146784D01*
X11104601Y-14146784D02*
X11085553Y-14137260D01*
X11266505Y-14127736D02*
X11276029Y-14137260D01*
X11276029Y-14137260D02*
X11266505Y-14146784D01*
X11266505Y-14146784D02*
X11256982Y-14137260D01*
X11256982Y-14137260D02*
X11266505Y-14127736D01*
X11266505Y-14127736D02*
X11266505Y-14146784D01*
X11266505Y-14022974D02*
X11276029Y-14032498D01*
X11276029Y-14032498D02*
X11266505Y-14042022D01*
X11266505Y-14042022D02*
X11256982Y-14032498D01*
X11256982Y-14032498D02*
X11266505Y-14022974D01*
X11266505Y-14022974D02*
X11266505Y-14042022D01*
D12*
X9507300Y-14411800D02*
X9634300Y-14538800D01*
X9634300Y-14411800D02*
X9507300Y-14538800D01*
D11*
X9999839Y-14566784D02*
X9885553Y-14566784D01*
X9942696Y-14566784D02*
X9942696Y-14366784D01*
X9942696Y-14366784D02*
X9923648Y-14395355D01*
X9923648Y-14395355D02*
X9904601Y-14414403D01*
X9904601Y-14414403D02*
X9885553Y-14423927D01*
X10085553Y-14547736D02*
X10095077Y-14557260D01*
X10095077Y-14557260D02*
X10085553Y-14566784D01*
X10085553Y-14566784D02*
X10076029Y-14557260D01*
X10076029Y-14557260D02*
X10085553Y-14547736D01*
X10085553Y-14547736D02*
X10085553Y-14566784D01*
X10171267Y-14385831D02*
X10180791Y-14376308D01*
X10180791Y-14376308D02*
X10199839Y-14366784D01*
X10199839Y-14366784D02*
X10247458Y-14366784D01*
X10247458Y-14366784D02*
X10266505Y-14376308D01*
X10266505Y-14376308D02*
X10276029Y-14385831D01*
X10276029Y-14385831D02*
X10285553Y-14404879D01*
X10285553Y-14404879D02*
X10285553Y-14423927D01*
X10285553Y-14423927D02*
X10276029Y-14452498D01*
X10276029Y-14452498D02*
X10161744Y-14566784D01*
X10161744Y-14566784D02*
X10285553Y-14566784D01*
X10352220Y-14366784D02*
X10485553Y-14366784D01*
X10485553Y-14366784D02*
X10399839Y-14566784D01*
X10599839Y-14366784D02*
X10618886Y-14366784D01*
X10618886Y-14366784D02*
X10637934Y-14376308D01*
X10637934Y-14376308D02*
X10647458Y-14385831D01*
X10647458Y-14385831D02*
X10656982Y-14404879D01*
X10656982Y-14404879D02*
X10666505Y-14442974D01*
X10666505Y-14442974D02*
X10666505Y-14490593D01*
X10666505Y-14490593D02*
X10656982Y-14528688D01*
X10656982Y-14528688D02*
X10647458Y-14547736D01*
X10647458Y-14547736D02*
X10637934Y-14557260D01*
X10637934Y-14557260D02*
X10618886Y-14566784D01*
X10618886Y-14566784D02*
X10599839Y-14566784D01*
X10599839Y-14566784D02*
X10580791Y-14557260D01*
X10580791Y-14557260D02*
X10571267Y-14547736D01*
X10571267Y-14547736D02*
X10561744Y-14528688D01*
X10561744Y-14528688D02*
X10552220Y-14490593D01*
X10552220Y-14490593D02*
X10552220Y-14442974D01*
X10552220Y-14442974D02*
X10561744Y-14404879D01*
X10561744Y-14404879D02*
X10571267Y-14385831D01*
X10571267Y-14385831D02*
X10580791Y-14376308D01*
X10580791Y-14376308D02*
X10599839Y-14366784D01*
X10752220Y-14566784D02*
X10752220Y-14433450D01*
X10752220Y-14452498D02*
X10761744Y-14442974D01*
X10761744Y-14442974D02*
X10780791Y-14433450D01*
X10780791Y-14433450D02*
X10809363Y-14433450D01*
X10809363Y-14433450D02*
X10828410Y-14442974D01*
X10828410Y-14442974D02*
X10837934Y-14462022D01*
X10837934Y-14462022D02*
X10837934Y-14566784D01*
X10837934Y-14462022D02*
X10847458Y-14442974D01*
X10847458Y-14442974D02*
X10866505Y-14433450D01*
X10866505Y-14433450D02*
X10895077Y-14433450D01*
X10895077Y-14433450D02*
X10914125Y-14442974D01*
X10914125Y-14442974D02*
X10923648Y-14462022D01*
X10923648Y-14462022D02*
X10923648Y-14566784D01*
X11018886Y-14566784D02*
X11018886Y-14433450D01*
X11018886Y-14452498D02*
X11028410Y-14442974D01*
X11028410Y-14442974D02*
X11047458Y-14433450D01*
X11047458Y-14433450D02*
X11076029Y-14433450D01*
X11076029Y-14433450D02*
X11095077Y-14442974D01*
X11095077Y-14442974D02*
X11104601Y-14462022D01*
X11104601Y-14462022D02*
X11104601Y-14566784D01*
X11104601Y-14462022D02*
X11114125Y-14442974D01*
X11114125Y-14442974D02*
X11133172Y-14433450D01*
X11133172Y-14433450D02*
X11161744Y-14433450D01*
X11161744Y-14433450D02*
X11180791Y-14442974D01*
X11180791Y-14442974D02*
X11190315Y-14462022D01*
X11190315Y-14462022D02*
X11190315Y-14566784D01*
X11580791Y-14357260D02*
X11409363Y-14614403D01*
X11837934Y-14366784D02*
X11856982Y-14366784D01*
X11856982Y-14366784D02*
X11876029Y-14376308D01*
X11876029Y-14376308D02*
X11885553Y-14385831D01*
X11885553Y-14385831D02*
X11895077Y-14404879D01*
X11895077Y-14404879D02*
X11904601Y-14442974D01*
X11904601Y-14442974D02*
X11904601Y-14490593D01*
X11904601Y-14490593D02*
X11895077Y-14528688D01*
X11895077Y-14528688D02*
X11885553Y-14547736D01*
X11885553Y-14547736D02*
X11876029Y-14557260D01*
X11876029Y-14557260D02*
X11856982Y-14566784D01*
X11856982Y-14566784D02*
X11837934Y-14566784D01*
X11837934Y-14566784D02*
X11818886Y-14557260D01*
X11818886Y-14557260D02*
X11809363Y-14547736D01*
X11809363Y-14547736D02*
X11799839Y-14528688D01*
X11799839Y-14528688D02*
X11790315Y-14490593D01*
X11790315Y-14490593D02*
X11790315Y-14442974D01*
X11790315Y-14442974D02*
X11799839Y-14404879D01*
X11799839Y-14404879D02*
X11809363Y-14385831D01*
X11809363Y-14385831D02*
X11818886Y-14376308D01*
X11818886Y-14376308D02*
X11837934Y-14366784D01*
X11990315Y-14547736D02*
X11999839Y-14557260D01*
X11999839Y-14557260D02*
X11990315Y-14566784D01*
X11990315Y-14566784D02*
X11980791Y-14557260D01*
X11980791Y-14557260D02*
X11990315Y-14547736D01*
X11990315Y-14547736D02*
X11990315Y-14566784D01*
X12123648Y-14366784D02*
X12142696Y-14366784D01*
X12142696Y-14366784D02*
X12161744Y-14376308D01*
X12161744Y-14376308D02*
X12171267Y-14385831D01*
X12171267Y-14385831D02*
X12180791Y-14404879D01*
X12180791Y-14404879D02*
X12190315Y-14442974D01*
X12190315Y-14442974D02*
X12190315Y-14490593D01*
X12190315Y-14490593D02*
X12180791Y-14528688D01*
X12180791Y-14528688D02*
X12171267Y-14547736D01*
X12171267Y-14547736D02*
X12161744Y-14557260D01*
X12161744Y-14557260D02*
X12142696Y-14566784D01*
X12142696Y-14566784D02*
X12123648Y-14566784D01*
X12123648Y-14566784D02*
X12104601Y-14557260D01*
X12104601Y-14557260D02*
X12095077Y-14547736D01*
X12095077Y-14547736D02*
X12085553Y-14528688D01*
X12085553Y-14528688D02*
X12076029Y-14490593D01*
X12076029Y-14490593D02*
X12076029Y-14442974D01*
X12076029Y-14442974D02*
X12085553Y-14404879D01*
X12085553Y-14404879D02*
X12095077Y-14385831D01*
X12095077Y-14385831D02*
X12104601Y-14376308D01*
X12104601Y-14376308D02*
X12123648Y-14366784D01*
X12371267Y-14366784D02*
X12276029Y-14366784D01*
X12276029Y-14366784D02*
X12266506Y-14462022D01*
X12266506Y-14462022D02*
X12276029Y-14452498D01*
X12276029Y-14452498D02*
X12295077Y-14442974D01*
X12295077Y-14442974D02*
X12342696Y-14442974D01*
X12342696Y-14442974D02*
X12361744Y-14452498D01*
X12361744Y-14452498D02*
X12371267Y-14462022D01*
X12371267Y-14462022D02*
X12380791Y-14481069D01*
X12380791Y-14481069D02*
X12380791Y-14528688D01*
X12380791Y-14528688D02*
X12371267Y-14547736D01*
X12371267Y-14547736D02*
X12361744Y-14557260D01*
X12361744Y-14557260D02*
X12342696Y-14566784D01*
X12342696Y-14566784D02*
X12295077Y-14566784D01*
X12295077Y-14566784D02*
X12276029Y-14557260D01*
X12276029Y-14557260D02*
X12266506Y-14547736D01*
X12504601Y-14366784D02*
X12523648Y-14366784D01*
X12523648Y-14366784D02*
X12542696Y-14376308D01*
X12542696Y-14376308D02*
X12552220Y-14385831D01*
X12552220Y-14385831D02*
X12561744Y-14404879D01*
X12561744Y-14404879D02*
X12571267Y-14442974D01*
X12571267Y-14442974D02*
X12571267Y-14490593D01*
X12571267Y-14490593D02*
X12561744Y-14528688D01*
X12561744Y-14528688D02*
X12552220Y-14547736D01*
X12552220Y-14547736D02*
X12542696Y-14557260D01*
X12542696Y-14557260D02*
X12523648Y-14566784D01*
X12523648Y-14566784D02*
X12504601Y-14566784D01*
X12504601Y-14566784D02*
X12485553Y-14557260D01*
X12485553Y-14557260D02*
X12476029Y-14547736D01*
X12476029Y-14547736D02*
X12466506Y-14528688D01*
X12466506Y-14528688D02*
X12456982Y-14490593D01*
X12456982Y-14490593D02*
X12456982Y-14442974D01*
X12456982Y-14442974D02*
X12466506Y-14404879D01*
X12466506Y-14404879D02*
X12476029Y-14385831D01*
X12476029Y-14385831D02*
X12485553Y-14376308D01*
X12485553Y-14376308D02*
X12504601Y-14366784D01*
X12695077Y-14366784D02*
X12714125Y-14366784D01*
X12714125Y-14366784D02*
X12733172Y-14376308D01*
X12733172Y-14376308D02*
X12742696Y-14385831D01*
X12742696Y-14385831D02*
X12752220Y-14404879D01*
X12752220Y-14404879D02*
X12761744Y-14442974D01*
X12761744Y-14442974D02*
X12761744Y-14490593D01*
X12761744Y-14490593D02*
X12752220Y-14528688D01*
X12752220Y-14528688D02*
X12742696Y-14547736D01*
X12742696Y-14547736D02*
X12733172Y-14557260D01*
X12733172Y-14557260D02*
X12714125Y-14566784D01*
X12714125Y-14566784D02*
X12695077Y-14566784D01*
X12695077Y-14566784D02*
X12676029Y-14557260D01*
X12676029Y-14557260D02*
X12666506Y-14547736D01*
X12666506Y-14547736D02*
X12656982Y-14528688D01*
X12656982Y-14528688D02*
X12647458Y-14490593D01*
X12647458Y-14490593D02*
X12647458Y-14442974D01*
X12647458Y-14442974D02*
X12656982Y-14404879D01*
X12656982Y-14404879D02*
X12666506Y-14385831D01*
X12666506Y-14385831D02*
X12676029Y-14376308D01*
X12676029Y-14376308D02*
X12695077Y-14366784D01*
X12837934Y-14366784D02*
X12837934Y-14404879D01*
X12914125Y-14366784D02*
X12914125Y-14404879D01*
X13209363Y-14642974D02*
X13199839Y-14633450D01*
X13199839Y-14633450D02*
X13180791Y-14604879D01*
X13180791Y-14604879D02*
X13171268Y-14585831D01*
X13171268Y-14585831D02*
X13161744Y-14557260D01*
X13161744Y-14557260D02*
X13152220Y-14509641D01*
X13152220Y-14509641D02*
X13152220Y-14471546D01*
X13152220Y-14471546D02*
X13161744Y-14423927D01*
X13161744Y-14423927D02*
X13171268Y-14395355D01*
X13171268Y-14395355D02*
X13180791Y-14376308D01*
X13180791Y-14376308D02*
X13199839Y-14347736D01*
X13199839Y-14347736D02*
X13209363Y-14338212D01*
X13390315Y-14566784D02*
X13276029Y-14566784D01*
X13333172Y-14566784D02*
X13333172Y-14366784D01*
X13333172Y-14366784D02*
X13314125Y-14395355D01*
X13314125Y-14395355D02*
X13295077Y-14414403D01*
X13295077Y-14414403D02*
X13276029Y-14423927D01*
X13561744Y-14366784D02*
X13523648Y-14366784D01*
X13523648Y-14366784D02*
X13504601Y-14376308D01*
X13504601Y-14376308D02*
X13495077Y-14385831D01*
X13495077Y-14385831D02*
X13476029Y-14414403D01*
X13476029Y-14414403D02*
X13466506Y-14452498D01*
X13466506Y-14452498D02*
X13466506Y-14528688D01*
X13466506Y-14528688D02*
X13476029Y-14547736D01*
X13476029Y-14547736D02*
X13485553Y-14557260D01*
X13485553Y-14557260D02*
X13504601Y-14566784D01*
X13504601Y-14566784D02*
X13542696Y-14566784D01*
X13542696Y-14566784D02*
X13561744Y-14557260D01*
X13561744Y-14557260D02*
X13571268Y-14547736D01*
X13571268Y-14547736D02*
X13580791Y-14528688D01*
X13580791Y-14528688D02*
X13580791Y-14481069D01*
X13580791Y-14481069D02*
X13571268Y-14462022D01*
X13571268Y-14462022D02*
X13561744Y-14452498D01*
X13561744Y-14452498D02*
X13542696Y-14442974D01*
X13542696Y-14442974D02*
X13504601Y-14442974D01*
X13504601Y-14442974D02*
X13485553Y-14452498D01*
X13485553Y-14452498D02*
X13476029Y-14462022D01*
X13476029Y-14462022D02*
X13466506Y-14481069D01*
X13818887Y-14566784D02*
X13818887Y-14366784D01*
X13904601Y-14566784D02*
X13904601Y-14462022D01*
X13904601Y-14462022D02*
X13895077Y-14442974D01*
X13895077Y-14442974D02*
X13876030Y-14433450D01*
X13876030Y-14433450D02*
X13847458Y-14433450D01*
X13847458Y-14433450D02*
X13828410Y-14442974D01*
X13828410Y-14442974D02*
X13818887Y-14452498D01*
X14028410Y-14566784D02*
X14009363Y-14557260D01*
X14009363Y-14557260D02*
X13999839Y-14547736D01*
X13999839Y-14547736D02*
X13990315Y-14528688D01*
X13990315Y-14528688D02*
X13990315Y-14471546D01*
X13990315Y-14471546D02*
X13999839Y-14452498D01*
X13999839Y-14452498D02*
X14009363Y-14442974D01*
X14009363Y-14442974D02*
X14028410Y-14433450D01*
X14028410Y-14433450D02*
X14056982Y-14433450D01*
X14056982Y-14433450D02*
X14076030Y-14442974D01*
X14076030Y-14442974D02*
X14085553Y-14452498D01*
X14085553Y-14452498D02*
X14095077Y-14471546D01*
X14095077Y-14471546D02*
X14095077Y-14528688D01*
X14095077Y-14528688D02*
X14085553Y-14547736D01*
X14085553Y-14547736D02*
X14076030Y-14557260D01*
X14076030Y-14557260D02*
X14056982Y-14566784D01*
X14056982Y-14566784D02*
X14028410Y-14566784D01*
X14209363Y-14566784D02*
X14190315Y-14557260D01*
X14190315Y-14557260D02*
X14180791Y-14538212D01*
X14180791Y-14538212D02*
X14180791Y-14366784D01*
X14361744Y-14557260D02*
X14342696Y-14566784D01*
X14342696Y-14566784D02*
X14304601Y-14566784D01*
X14304601Y-14566784D02*
X14285553Y-14557260D01*
X14285553Y-14557260D02*
X14276030Y-14538212D01*
X14276030Y-14538212D02*
X14276030Y-14462022D01*
X14276030Y-14462022D02*
X14285553Y-14442974D01*
X14285553Y-14442974D02*
X14304601Y-14433450D01*
X14304601Y-14433450D02*
X14342696Y-14433450D01*
X14342696Y-14433450D02*
X14361744Y-14442974D01*
X14361744Y-14442974D02*
X14371268Y-14462022D01*
X14371268Y-14462022D02*
X14371268Y-14481069D01*
X14371268Y-14481069D02*
X14276030Y-14500117D01*
X14447458Y-14557260D02*
X14466506Y-14566784D01*
X14466506Y-14566784D02*
X14504601Y-14566784D01*
X14504601Y-14566784D02*
X14523649Y-14557260D01*
X14523649Y-14557260D02*
X14533172Y-14538212D01*
X14533172Y-14538212D02*
X14533172Y-14528688D01*
X14533172Y-14528688D02*
X14523649Y-14509641D01*
X14523649Y-14509641D02*
X14504601Y-14500117D01*
X14504601Y-14500117D02*
X14476030Y-14500117D01*
X14476030Y-14500117D02*
X14456982Y-14490593D01*
X14456982Y-14490593D02*
X14447458Y-14471546D01*
X14447458Y-14471546D02*
X14447458Y-14462022D01*
X14447458Y-14462022D02*
X14456982Y-14442974D01*
X14456982Y-14442974D02*
X14476030Y-14433450D01*
X14476030Y-14433450D02*
X14504601Y-14433450D01*
X14504601Y-14433450D02*
X14523649Y-14442974D01*
X14599839Y-14642974D02*
X14609363Y-14633450D01*
X14609363Y-14633450D02*
X14628411Y-14604879D01*
X14628411Y-14604879D02*
X14637934Y-14585831D01*
X14637934Y-14585831D02*
X14647458Y-14557260D01*
X14647458Y-14557260D02*
X14656982Y-14509641D01*
X14656982Y-14509641D02*
X14656982Y-14471546D01*
X14656982Y-14471546D02*
X14647458Y-14423927D01*
X14647458Y-14423927D02*
X14637934Y-14395355D01*
X14637934Y-14395355D02*
X14628411Y-14376308D01*
X14628411Y-14376308D02*
X14609363Y-14347736D01*
X14609363Y-14347736D02*
X14599839Y-14338212D01*
X14961744Y-14642974D02*
X14952220Y-14633450D01*
X14952220Y-14633450D02*
X14933172Y-14604879D01*
X14933172Y-14604879D02*
X14923649Y-14585831D01*
X14923649Y-14585831D02*
X14914125Y-14557260D01*
X14914125Y-14557260D02*
X14904601Y-14509641D01*
X14904601Y-14509641D02*
X14904601Y-14471546D01*
X14904601Y-14471546D02*
X14914125Y-14423927D01*
X14914125Y-14423927D02*
X14923649Y-14395355D01*
X14923649Y-14395355D02*
X14933172Y-14376308D01*
X14933172Y-14376308D02*
X14952220Y-14347736D01*
X14952220Y-14347736D02*
X14961744Y-14338212D01*
X15037934Y-14433450D02*
X15037934Y-14566784D01*
X15037934Y-14452498D02*
X15047458Y-14442974D01*
X15047458Y-14442974D02*
X15066506Y-14433450D01*
X15066506Y-14433450D02*
X15095077Y-14433450D01*
X15095077Y-14433450D02*
X15114125Y-14442974D01*
X15114125Y-14442974D02*
X15123649Y-14462022D01*
X15123649Y-14462022D02*
X15123649Y-14566784D01*
X15247458Y-14566784D02*
X15228411Y-14557260D01*
X15228411Y-14557260D02*
X15218887Y-14547736D01*
X15218887Y-14547736D02*
X15209363Y-14528688D01*
X15209363Y-14528688D02*
X15209363Y-14471546D01*
X15209363Y-14471546D02*
X15218887Y-14452498D01*
X15218887Y-14452498D02*
X15228411Y-14442974D01*
X15228411Y-14442974D02*
X15247458Y-14433450D01*
X15247458Y-14433450D02*
X15276030Y-14433450D01*
X15276030Y-14433450D02*
X15295077Y-14442974D01*
X15295077Y-14442974D02*
X15304601Y-14452498D01*
X15304601Y-14452498D02*
X15314125Y-14471546D01*
X15314125Y-14471546D02*
X15314125Y-14528688D01*
X15314125Y-14528688D02*
X15304601Y-14547736D01*
X15304601Y-14547736D02*
X15295077Y-14557260D01*
X15295077Y-14557260D02*
X15276030Y-14566784D01*
X15276030Y-14566784D02*
X15247458Y-14566784D01*
X15371268Y-14433450D02*
X15447458Y-14433450D01*
X15399839Y-14366784D02*
X15399839Y-14538212D01*
X15399839Y-14538212D02*
X15409363Y-14557260D01*
X15409363Y-14557260D02*
X15428411Y-14566784D01*
X15428411Y-14566784D02*
X15447458Y-14566784D01*
X15666506Y-14433450D02*
X15666506Y-14633450D01*
X15666506Y-14442974D02*
X15685553Y-14433450D01*
X15685553Y-14433450D02*
X15723649Y-14433450D01*
X15723649Y-14433450D02*
X15742696Y-14442974D01*
X15742696Y-14442974D02*
X15752220Y-14452498D01*
X15752220Y-14452498D02*
X15761744Y-14471546D01*
X15761744Y-14471546D02*
X15761744Y-14528688D01*
X15761744Y-14528688D02*
X15752220Y-14547736D01*
X15752220Y-14547736D02*
X15742696Y-14557260D01*
X15742696Y-14557260D02*
X15723649Y-14566784D01*
X15723649Y-14566784D02*
X15685553Y-14566784D01*
X15685553Y-14566784D02*
X15666506Y-14557260D01*
X15876030Y-14566784D02*
X15856982Y-14557260D01*
X15856982Y-14557260D02*
X15847458Y-14538212D01*
X15847458Y-14538212D02*
X15847458Y-14366784D01*
X16037934Y-14566784D02*
X16037934Y-14462022D01*
X16037934Y-14462022D02*
X16028411Y-14442974D01*
X16028411Y-14442974D02*
X16009363Y-14433450D01*
X16009363Y-14433450D02*
X15971268Y-14433450D01*
X15971268Y-14433450D02*
X15952220Y-14442974D01*
X16037934Y-14557260D02*
X16018887Y-14566784D01*
X16018887Y-14566784D02*
X15971268Y-14566784D01*
X15971268Y-14566784D02*
X15952220Y-14557260D01*
X15952220Y-14557260D02*
X15942696Y-14538212D01*
X15942696Y-14538212D02*
X15942696Y-14519165D01*
X15942696Y-14519165D02*
X15952220Y-14500117D01*
X15952220Y-14500117D02*
X15971268Y-14490593D01*
X15971268Y-14490593D02*
X16018887Y-14490593D01*
X16018887Y-14490593D02*
X16037934Y-14481069D01*
X16104601Y-14433450D02*
X16180792Y-14433450D01*
X16133173Y-14366784D02*
X16133173Y-14538212D01*
X16133173Y-14538212D02*
X16142696Y-14557260D01*
X16142696Y-14557260D02*
X16161744Y-14566784D01*
X16161744Y-14566784D02*
X16180792Y-14566784D01*
X16323649Y-14557260D02*
X16304601Y-14566784D01*
X16304601Y-14566784D02*
X16266506Y-14566784D01*
X16266506Y-14566784D02*
X16247458Y-14557260D01*
X16247458Y-14557260D02*
X16237934Y-14538212D01*
X16237934Y-14538212D02*
X16237934Y-14462022D01*
X16237934Y-14462022D02*
X16247458Y-14442974D01*
X16247458Y-14442974D02*
X16266506Y-14433450D01*
X16266506Y-14433450D02*
X16304601Y-14433450D01*
X16304601Y-14433450D02*
X16323649Y-14442974D01*
X16323649Y-14442974D02*
X16333173Y-14462022D01*
X16333173Y-14462022D02*
X16333173Y-14481069D01*
X16333173Y-14481069D02*
X16237934Y-14500117D01*
X16504601Y-14566784D02*
X16504601Y-14366784D01*
X16504601Y-14557260D02*
X16485554Y-14566784D01*
X16485554Y-14566784D02*
X16447458Y-14566784D01*
X16447458Y-14566784D02*
X16428411Y-14557260D01*
X16428411Y-14557260D02*
X16418887Y-14547736D01*
X16418887Y-14547736D02*
X16409363Y-14528688D01*
X16409363Y-14528688D02*
X16409363Y-14471546D01*
X16409363Y-14471546D02*
X16418887Y-14452498D01*
X16418887Y-14452498D02*
X16428411Y-14442974D01*
X16428411Y-14442974D02*
X16447458Y-14433450D01*
X16447458Y-14433450D02*
X16485554Y-14433450D01*
X16485554Y-14433450D02*
X16504601Y-14442974D01*
X16580792Y-14642974D02*
X16590315Y-14633450D01*
X16590315Y-14633450D02*
X16609363Y-14604879D01*
X16609363Y-14604879D02*
X16618887Y-14585831D01*
X16618887Y-14585831D02*
X16628411Y-14557260D01*
X16628411Y-14557260D02*
X16637934Y-14509641D01*
X16637934Y-14509641D02*
X16637934Y-14471546D01*
X16637934Y-14471546D02*
X16628411Y-14423927D01*
X16628411Y-14423927D02*
X16618887Y-14395355D01*
X16618887Y-14395355D02*
X16609363Y-14376308D01*
X16609363Y-14376308D02*
X16590315Y-14347736D01*
X16590315Y-14347736D02*
X16580792Y-14338212D01*
X9634300Y-14739300D02*
G75*
G03*
X9634300Y-14739300I-100000J0D01*
G01*
X9885553Y-14649831D02*
X9895077Y-14640308D01*
X9895077Y-14640308D02*
X9914124Y-14630784D01*
X9914124Y-14630784D02*
X9961744Y-14630784D01*
X9961744Y-14630784D02*
X9980791Y-14640308D01*
X9980791Y-14640308D02*
X9990315Y-14649831D01*
X9990315Y-14649831D02*
X9999839Y-14668879D01*
X9999839Y-14668879D02*
X9999839Y-14687927D01*
X9999839Y-14687927D02*
X9990315Y-14716498D01*
X9990315Y-14716498D02*
X9876029Y-14830784D01*
X9876029Y-14830784D02*
X9999839Y-14830784D01*
X10085553Y-14811736D02*
X10095077Y-14821260D01*
X10095077Y-14821260D02*
X10085553Y-14830784D01*
X10085553Y-14830784D02*
X10076029Y-14821260D01*
X10076029Y-14821260D02*
X10085553Y-14811736D01*
X10085553Y-14811736D02*
X10085553Y-14830784D01*
X10276029Y-14630784D02*
X10180791Y-14630784D01*
X10180791Y-14630784D02*
X10171267Y-14726022D01*
X10171267Y-14726022D02*
X10180791Y-14716498D01*
X10180791Y-14716498D02*
X10199839Y-14706974D01*
X10199839Y-14706974D02*
X10247458Y-14706974D01*
X10247458Y-14706974D02*
X10266505Y-14716498D01*
X10266505Y-14716498D02*
X10276029Y-14726022D01*
X10276029Y-14726022D02*
X10285553Y-14745069D01*
X10285553Y-14745069D02*
X10285553Y-14792688D01*
X10285553Y-14792688D02*
X10276029Y-14811736D01*
X10276029Y-14811736D02*
X10266505Y-14821260D01*
X10266505Y-14821260D02*
X10247458Y-14830784D01*
X10247458Y-14830784D02*
X10199839Y-14830784D01*
X10199839Y-14830784D02*
X10180791Y-14821260D01*
X10180791Y-14821260D02*
X10171267Y-14811736D01*
X10409363Y-14630784D02*
X10428410Y-14630784D01*
X10428410Y-14630784D02*
X10447458Y-14640308D01*
X10447458Y-14640308D02*
X10456982Y-14649831D01*
X10456982Y-14649831D02*
X10466505Y-14668879D01*
X10466505Y-14668879D02*
X10476029Y-14706974D01*
X10476029Y-14706974D02*
X10476029Y-14754593D01*
X10476029Y-14754593D02*
X10466505Y-14792688D01*
X10466505Y-14792688D02*
X10456982Y-14811736D01*
X10456982Y-14811736D02*
X10447458Y-14821260D01*
X10447458Y-14821260D02*
X10428410Y-14830784D01*
X10428410Y-14830784D02*
X10409363Y-14830784D01*
X10409363Y-14830784D02*
X10390315Y-14821260D01*
X10390315Y-14821260D02*
X10380791Y-14811736D01*
X10380791Y-14811736D02*
X10371267Y-14792688D01*
X10371267Y-14792688D02*
X10361744Y-14754593D01*
X10361744Y-14754593D02*
X10361744Y-14706974D01*
X10361744Y-14706974D02*
X10371267Y-14668879D01*
X10371267Y-14668879D02*
X10380791Y-14649831D01*
X10380791Y-14649831D02*
X10390315Y-14640308D01*
X10390315Y-14640308D02*
X10409363Y-14630784D01*
X10599839Y-14630784D02*
X10618886Y-14630784D01*
X10618886Y-14630784D02*
X10637934Y-14640308D01*
X10637934Y-14640308D02*
X10647458Y-14649831D01*
X10647458Y-14649831D02*
X10656982Y-14668879D01*
X10656982Y-14668879D02*
X10666505Y-14706974D01*
X10666505Y-14706974D02*
X10666505Y-14754593D01*
X10666505Y-14754593D02*
X10656982Y-14792688D01*
X10656982Y-14792688D02*
X10647458Y-14811736D01*
X10647458Y-14811736D02*
X10637934Y-14821260D01*
X10637934Y-14821260D02*
X10618886Y-14830784D01*
X10618886Y-14830784D02*
X10599839Y-14830784D01*
X10599839Y-14830784D02*
X10580791Y-14821260D01*
X10580791Y-14821260D02*
X10571267Y-14811736D01*
X10571267Y-14811736D02*
X10561744Y-14792688D01*
X10561744Y-14792688D02*
X10552220Y-14754593D01*
X10552220Y-14754593D02*
X10552220Y-14706974D01*
X10552220Y-14706974D02*
X10561744Y-14668879D01*
X10561744Y-14668879D02*
X10571267Y-14649831D01*
X10571267Y-14649831D02*
X10580791Y-14640308D01*
X10580791Y-14640308D02*
X10599839Y-14630784D01*
X10752220Y-14830784D02*
X10752220Y-14697450D01*
X10752220Y-14716498D02*
X10761744Y-14706974D01*
X10761744Y-14706974D02*
X10780791Y-14697450D01*
X10780791Y-14697450D02*
X10809363Y-14697450D01*
X10809363Y-14697450D02*
X10828410Y-14706974D01*
X10828410Y-14706974D02*
X10837934Y-14726022D01*
X10837934Y-14726022D02*
X10837934Y-14830784D01*
X10837934Y-14726022D02*
X10847458Y-14706974D01*
X10847458Y-14706974D02*
X10866505Y-14697450D01*
X10866505Y-14697450D02*
X10895077Y-14697450D01*
X10895077Y-14697450D02*
X10914125Y-14706974D01*
X10914125Y-14706974D02*
X10923648Y-14726022D01*
X10923648Y-14726022D02*
X10923648Y-14830784D01*
X11018886Y-14830784D02*
X11018886Y-14697450D01*
X11018886Y-14716498D02*
X11028410Y-14706974D01*
X11028410Y-14706974D02*
X11047458Y-14697450D01*
X11047458Y-14697450D02*
X11076029Y-14697450D01*
X11076029Y-14697450D02*
X11095077Y-14706974D01*
X11095077Y-14706974D02*
X11104601Y-14726022D01*
X11104601Y-14726022D02*
X11104601Y-14830784D01*
X11104601Y-14726022D02*
X11114125Y-14706974D01*
X11114125Y-14706974D02*
X11133172Y-14697450D01*
X11133172Y-14697450D02*
X11161744Y-14697450D01*
X11161744Y-14697450D02*
X11180791Y-14706974D01*
X11180791Y-14706974D02*
X11190315Y-14726022D01*
X11190315Y-14726022D02*
X11190315Y-14830784D01*
X11580791Y-14621260D02*
X11409363Y-14878403D01*
X11837934Y-14630784D02*
X11856982Y-14630784D01*
X11856982Y-14630784D02*
X11876029Y-14640308D01*
X11876029Y-14640308D02*
X11885553Y-14649831D01*
X11885553Y-14649831D02*
X11895077Y-14668879D01*
X11895077Y-14668879D02*
X11904601Y-14706974D01*
X11904601Y-14706974D02*
X11904601Y-14754593D01*
X11904601Y-14754593D02*
X11895077Y-14792688D01*
X11895077Y-14792688D02*
X11885553Y-14811736D01*
X11885553Y-14811736D02*
X11876029Y-14821260D01*
X11876029Y-14821260D02*
X11856982Y-14830784D01*
X11856982Y-14830784D02*
X11837934Y-14830784D01*
X11837934Y-14830784D02*
X11818886Y-14821260D01*
X11818886Y-14821260D02*
X11809363Y-14811736D01*
X11809363Y-14811736D02*
X11799839Y-14792688D01*
X11799839Y-14792688D02*
X11790315Y-14754593D01*
X11790315Y-14754593D02*
X11790315Y-14706974D01*
X11790315Y-14706974D02*
X11799839Y-14668879D01*
X11799839Y-14668879D02*
X11809363Y-14649831D01*
X11809363Y-14649831D02*
X11818886Y-14640308D01*
X11818886Y-14640308D02*
X11837934Y-14630784D01*
X11990315Y-14811736D02*
X11999839Y-14821260D01*
X11999839Y-14821260D02*
X11990315Y-14830784D01*
X11990315Y-14830784D02*
X11980791Y-14821260D01*
X11980791Y-14821260D02*
X11990315Y-14811736D01*
X11990315Y-14811736D02*
X11990315Y-14830784D01*
X12123648Y-14630784D02*
X12142696Y-14630784D01*
X12142696Y-14630784D02*
X12161744Y-14640308D01*
X12161744Y-14640308D02*
X12171267Y-14649831D01*
X12171267Y-14649831D02*
X12180791Y-14668879D01*
X12180791Y-14668879D02*
X12190315Y-14706974D01*
X12190315Y-14706974D02*
X12190315Y-14754593D01*
X12190315Y-14754593D02*
X12180791Y-14792688D01*
X12180791Y-14792688D02*
X12171267Y-14811736D01*
X12171267Y-14811736D02*
X12161744Y-14821260D01*
X12161744Y-14821260D02*
X12142696Y-14830784D01*
X12142696Y-14830784D02*
X12123648Y-14830784D01*
X12123648Y-14830784D02*
X12104601Y-14821260D01*
X12104601Y-14821260D02*
X12095077Y-14811736D01*
X12095077Y-14811736D02*
X12085553Y-14792688D01*
X12085553Y-14792688D02*
X12076029Y-14754593D01*
X12076029Y-14754593D02*
X12076029Y-14706974D01*
X12076029Y-14706974D02*
X12085553Y-14668879D01*
X12085553Y-14668879D02*
X12095077Y-14649831D01*
X12095077Y-14649831D02*
X12104601Y-14640308D01*
X12104601Y-14640308D02*
X12123648Y-14630784D01*
X12285553Y-14830784D02*
X12323648Y-14830784D01*
X12323648Y-14830784D02*
X12342696Y-14821260D01*
X12342696Y-14821260D02*
X12352220Y-14811736D01*
X12352220Y-14811736D02*
X12371267Y-14783165D01*
X12371267Y-14783165D02*
X12380791Y-14745069D01*
X12380791Y-14745069D02*
X12380791Y-14668879D01*
X12380791Y-14668879D02*
X12371267Y-14649831D01*
X12371267Y-14649831D02*
X12361744Y-14640308D01*
X12361744Y-14640308D02*
X12342696Y-14630784D01*
X12342696Y-14630784D02*
X12304601Y-14630784D01*
X12304601Y-14630784D02*
X12285553Y-14640308D01*
X12285553Y-14640308D02*
X12276029Y-14649831D01*
X12276029Y-14649831D02*
X12266506Y-14668879D01*
X12266506Y-14668879D02*
X12266506Y-14716498D01*
X12266506Y-14716498D02*
X12276029Y-14735546D01*
X12276029Y-14735546D02*
X12285553Y-14745069D01*
X12285553Y-14745069D02*
X12304601Y-14754593D01*
X12304601Y-14754593D02*
X12342696Y-14754593D01*
X12342696Y-14754593D02*
X12361744Y-14745069D01*
X12361744Y-14745069D02*
X12371267Y-14735546D01*
X12371267Y-14735546D02*
X12380791Y-14716498D01*
X12495077Y-14716498D02*
X12476029Y-14706974D01*
X12476029Y-14706974D02*
X12466506Y-14697450D01*
X12466506Y-14697450D02*
X12456982Y-14678403D01*
X12456982Y-14678403D02*
X12456982Y-14668879D01*
X12456982Y-14668879D02*
X12466506Y-14649831D01*
X12466506Y-14649831D02*
X12476029Y-14640308D01*
X12476029Y-14640308D02*
X12495077Y-14630784D01*
X12495077Y-14630784D02*
X12533172Y-14630784D01*
X12533172Y-14630784D02*
X12552220Y-14640308D01*
X12552220Y-14640308D02*
X12561744Y-14649831D01*
X12561744Y-14649831D02*
X12571267Y-14668879D01*
X12571267Y-14668879D02*
X12571267Y-14678403D01*
X12571267Y-14678403D02*
X12561744Y-14697450D01*
X12561744Y-14697450D02*
X12552220Y-14706974D01*
X12552220Y-14706974D02*
X12533172Y-14716498D01*
X12533172Y-14716498D02*
X12495077Y-14716498D01*
X12495077Y-14716498D02*
X12476029Y-14726022D01*
X12476029Y-14726022D02*
X12466506Y-14735546D01*
X12466506Y-14735546D02*
X12456982Y-14754593D01*
X12456982Y-14754593D02*
X12456982Y-14792688D01*
X12456982Y-14792688D02*
X12466506Y-14811736D01*
X12466506Y-14811736D02*
X12476029Y-14821260D01*
X12476029Y-14821260D02*
X12495077Y-14830784D01*
X12495077Y-14830784D02*
X12533172Y-14830784D01*
X12533172Y-14830784D02*
X12552220Y-14821260D01*
X12552220Y-14821260D02*
X12561744Y-14811736D01*
X12561744Y-14811736D02*
X12571267Y-14792688D01*
X12571267Y-14792688D02*
X12571267Y-14754593D01*
X12571267Y-14754593D02*
X12561744Y-14735546D01*
X12561744Y-14735546D02*
X12552220Y-14726022D01*
X12552220Y-14726022D02*
X12533172Y-14716498D01*
X12742696Y-14697450D02*
X12742696Y-14830784D01*
X12695077Y-14621260D02*
X12647458Y-14764117D01*
X12647458Y-14764117D02*
X12771267Y-14764117D01*
X12837934Y-14630784D02*
X12837934Y-14668879D01*
X12914125Y-14630784D02*
X12914125Y-14668879D01*
X13209363Y-14906974D02*
X13199839Y-14897450D01*
X13199839Y-14897450D02*
X13180791Y-14868879D01*
X13180791Y-14868879D02*
X13171268Y-14849831D01*
X13171268Y-14849831D02*
X13161744Y-14821260D01*
X13161744Y-14821260D02*
X13152220Y-14773641D01*
X13152220Y-14773641D02*
X13152220Y-14735546D01*
X13152220Y-14735546D02*
X13161744Y-14687927D01*
X13161744Y-14687927D02*
X13171268Y-14659355D01*
X13171268Y-14659355D02*
X13180791Y-14640308D01*
X13180791Y-14640308D02*
X13199839Y-14611736D01*
X13199839Y-14611736D02*
X13209363Y-14602212D01*
X13371268Y-14697450D02*
X13371268Y-14830784D01*
X13323648Y-14621260D02*
X13276029Y-14764117D01*
X13276029Y-14764117D02*
X13399839Y-14764117D01*
X13628410Y-14830784D02*
X13628410Y-14630784D01*
X13714125Y-14830784D02*
X13714125Y-14726022D01*
X13714125Y-14726022D02*
X13704601Y-14706974D01*
X13704601Y-14706974D02*
X13685553Y-14697450D01*
X13685553Y-14697450D02*
X13656982Y-14697450D01*
X13656982Y-14697450D02*
X13637934Y-14706974D01*
X13637934Y-14706974D02*
X13628410Y-14716498D01*
X13837934Y-14830784D02*
X13818887Y-14821260D01*
X13818887Y-14821260D02*
X13809363Y-14811736D01*
X13809363Y-14811736D02*
X13799839Y-14792688D01*
X13799839Y-14792688D02*
X13799839Y-14735546D01*
X13799839Y-14735546D02*
X13809363Y-14716498D01*
X13809363Y-14716498D02*
X13818887Y-14706974D01*
X13818887Y-14706974D02*
X13837934Y-14697450D01*
X13837934Y-14697450D02*
X13866506Y-14697450D01*
X13866506Y-14697450D02*
X13885553Y-14706974D01*
X13885553Y-14706974D02*
X13895077Y-14716498D01*
X13895077Y-14716498D02*
X13904601Y-14735546D01*
X13904601Y-14735546D02*
X13904601Y-14792688D01*
X13904601Y-14792688D02*
X13895077Y-14811736D01*
X13895077Y-14811736D02*
X13885553Y-14821260D01*
X13885553Y-14821260D02*
X13866506Y-14830784D01*
X13866506Y-14830784D02*
X13837934Y-14830784D01*
X14018887Y-14830784D02*
X13999839Y-14821260D01*
X13999839Y-14821260D02*
X13990315Y-14802212D01*
X13990315Y-14802212D02*
X13990315Y-14630784D01*
X14171268Y-14821260D02*
X14152220Y-14830784D01*
X14152220Y-14830784D02*
X14114125Y-14830784D01*
X14114125Y-14830784D02*
X14095077Y-14821260D01*
X14095077Y-14821260D02*
X14085553Y-14802212D01*
X14085553Y-14802212D02*
X14085553Y-14726022D01*
X14085553Y-14726022D02*
X14095077Y-14706974D01*
X14095077Y-14706974D02*
X14114125Y-14697450D01*
X14114125Y-14697450D02*
X14152220Y-14697450D01*
X14152220Y-14697450D02*
X14171268Y-14706974D01*
X14171268Y-14706974D02*
X14180791Y-14726022D01*
X14180791Y-14726022D02*
X14180791Y-14745069D01*
X14180791Y-14745069D02*
X14085553Y-14764117D01*
X14256982Y-14821260D02*
X14276030Y-14830784D01*
X14276030Y-14830784D02*
X14314125Y-14830784D01*
X14314125Y-14830784D02*
X14333172Y-14821260D01*
X14333172Y-14821260D02*
X14342696Y-14802212D01*
X14342696Y-14802212D02*
X14342696Y-14792688D01*
X14342696Y-14792688D02*
X14333172Y-14773641D01*
X14333172Y-14773641D02*
X14314125Y-14764117D01*
X14314125Y-14764117D02*
X14285553Y-14764117D01*
X14285553Y-14764117D02*
X14266506Y-14754593D01*
X14266506Y-14754593D02*
X14256982Y-14735546D01*
X14256982Y-14735546D02*
X14256982Y-14726022D01*
X14256982Y-14726022D02*
X14266506Y-14706974D01*
X14266506Y-14706974D02*
X14285553Y-14697450D01*
X14285553Y-14697450D02*
X14314125Y-14697450D01*
X14314125Y-14697450D02*
X14333172Y-14706974D01*
X14409363Y-14906974D02*
X14418887Y-14897450D01*
X14418887Y-14897450D02*
X14437934Y-14868879D01*
X14437934Y-14868879D02*
X14447458Y-14849831D01*
X14447458Y-14849831D02*
X14456982Y-14821260D01*
X14456982Y-14821260D02*
X14466506Y-14773641D01*
X14466506Y-14773641D02*
X14466506Y-14735546D01*
X14466506Y-14735546D02*
X14456982Y-14687927D01*
X14456982Y-14687927D02*
X14447458Y-14659355D01*
X14447458Y-14659355D02*
X14437934Y-14640308D01*
X14437934Y-14640308D02*
X14418887Y-14611736D01*
X14418887Y-14611736D02*
X14409363Y-14602212D01*
X14771268Y-14906974D02*
X14761744Y-14897450D01*
X14761744Y-14897450D02*
X14742696Y-14868879D01*
X14742696Y-14868879D02*
X14733172Y-14849831D01*
X14733172Y-14849831D02*
X14723649Y-14821260D01*
X14723649Y-14821260D02*
X14714125Y-14773641D01*
X14714125Y-14773641D02*
X14714125Y-14735546D01*
X14714125Y-14735546D02*
X14723649Y-14687927D01*
X14723649Y-14687927D02*
X14733172Y-14659355D01*
X14733172Y-14659355D02*
X14742696Y-14640308D01*
X14742696Y-14640308D02*
X14761744Y-14611736D01*
X14761744Y-14611736D02*
X14771268Y-14602212D01*
X14847458Y-14697450D02*
X14847458Y-14830784D01*
X14847458Y-14716498D02*
X14856982Y-14706974D01*
X14856982Y-14706974D02*
X14876030Y-14697450D01*
X14876030Y-14697450D02*
X14904601Y-14697450D01*
X14904601Y-14697450D02*
X14923649Y-14706974D01*
X14923649Y-14706974D02*
X14933172Y-14726022D01*
X14933172Y-14726022D02*
X14933172Y-14830784D01*
X15056982Y-14830784D02*
X15037934Y-14821260D01*
X15037934Y-14821260D02*
X15028411Y-14811736D01*
X15028411Y-14811736D02*
X15018887Y-14792688D01*
X15018887Y-14792688D02*
X15018887Y-14735546D01*
X15018887Y-14735546D02*
X15028411Y-14716498D01*
X15028411Y-14716498D02*
X15037934Y-14706974D01*
X15037934Y-14706974D02*
X15056982Y-14697450D01*
X15056982Y-14697450D02*
X15085553Y-14697450D01*
X15085553Y-14697450D02*
X15104601Y-14706974D01*
X15104601Y-14706974D02*
X15114125Y-14716498D01*
X15114125Y-14716498D02*
X15123649Y-14735546D01*
X15123649Y-14735546D02*
X15123649Y-14792688D01*
X15123649Y-14792688D02*
X15114125Y-14811736D01*
X15114125Y-14811736D02*
X15104601Y-14821260D01*
X15104601Y-14821260D02*
X15085553Y-14830784D01*
X15085553Y-14830784D02*
X15056982Y-14830784D01*
X15180792Y-14697450D02*
X15256982Y-14697450D01*
X15209363Y-14630784D02*
X15209363Y-14802212D01*
X15209363Y-14802212D02*
X15218887Y-14821260D01*
X15218887Y-14821260D02*
X15237934Y-14830784D01*
X15237934Y-14830784D02*
X15256982Y-14830784D01*
X15476030Y-14697450D02*
X15476030Y-14897450D01*
X15476030Y-14706974D02*
X15495077Y-14697450D01*
X15495077Y-14697450D02*
X15533173Y-14697450D01*
X15533173Y-14697450D02*
X15552220Y-14706974D01*
X15552220Y-14706974D02*
X15561744Y-14716498D01*
X15561744Y-14716498D02*
X15571268Y-14735546D01*
X15571268Y-14735546D02*
X15571268Y-14792688D01*
X15571268Y-14792688D02*
X15561744Y-14811736D01*
X15561744Y-14811736D02*
X15552220Y-14821260D01*
X15552220Y-14821260D02*
X15533173Y-14830784D01*
X15533173Y-14830784D02*
X15495077Y-14830784D01*
X15495077Y-14830784D02*
X15476030Y-14821260D01*
X15685553Y-14830784D02*
X15666506Y-14821260D01*
X15666506Y-14821260D02*
X15656982Y-14802212D01*
X15656982Y-14802212D02*
X15656982Y-14630784D01*
X15847458Y-14830784D02*
X15847458Y-14726022D01*
X15847458Y-14726022D02*
X15837934Y-14706974D01*
X15837934Y-14706974D02*
X15818887Y-14697450D01*
X15818887Y-14697450D02*
X15780792Y-14697450D01*
X15780792Y-14697450D02*
X15761744Y-14706974D01*
X15847458Y-14821260D02*
X15828411Y-14830784D01*
X15828411Y-14830784D02*
X15780792Y-14830784D01*
X15780792Y-14830784D02*
X15761744Y-14821260D01*
X15761744Y-14821260D02*
X15752220Y-14802212D01*
X15752220Y-14802212D02*
X15752220Y-14783165D01*
X15752220Y-14783165D02*
X15761744Y-14764117D01*
X15761744Y-14764117D02*
X15780792Y-14754593D01*
X15780792Y-14754593D02*
X15828411Y-14754593D01*
X15828411Y-14754593D02*
X15847458Y-14745069D01*
X15914125Y-14697450D02*
X15990315Y-14697450D01*
X15942696Y-14630784D02*
X15942696Y-14802212D01*
X15942696Y-14802212D02*
X15952220Y-14821260D01*
X15952220Y-14821260D02*
X15971268Y-14830784D01*
X15971268Y-14830784D02*
X15990315Y-14830784D01*
X16133173Y-14821260D02*
X16114125Y-14830784D01*
X16114125Y-14830784D02*
X16076030Y-14830784D01*
X16076030Y-14830784D02*
X16056982Y-14821260D01*
X16056982Y-14821260D02*
X16047458Y-14802212D01*
X16047458Y-14802212D02*
X16047458Y-14726022D01*
X16047458Y-14726022D02*
X16056982Y-14706974D01*
X16056982Y-14706974D02*
X16076030Y-14697450D01*
X16076030Y-14697450D02*
X16114125Y-14697450D01*
X16114125Y-14697450D02*
X16133173Y-14706974D01*
X16133173Y-14706974D02*
X16142696Y-14726022D01*
X16142696Y-14726022D02*
X16142696Y-14745069D01*
X16142696Y-14745069D02*
X16047458Y-14764117D01*
X16314125Y-14830784D02*
X16314125Y-14630784D01*
X16314125Y-14821260D02*
X16295077Y-14830784D01*
X16295077Y-14830784D02*
X16256982Y-14830784D01*
X16256982Y-14830784D02*
X16237934Y-14821260D01*
X16237934Y-14821260D02*
X16228411Y-14811736D01*
X16228411Y-14811736D02*
X16218887Y-14792688D01*
X16218887Y-14792688D02*
X16218887Y-14735546D01*
X16218887Y-14735546D02*
X16228411Y-14716498D01*
X16228411Y-14716498D02*
X16237934Y-14706974D01*
X16237934Y-14706974D02*
X16256982Y-14697450D01*
X16256982Y-14697450D02*
X16295077Y-14697450D01*
X16295077Y-14697450D02*
X16314125Y-14706974D01*
X16390315Y-14906974D02*
X16399839Y-14897450D01*
X16399839Y-14897450D02*
X16418887Y-14868879D01*
X16418887Y-14868879D02*
X16428411Y-14849831D01*
X16428411Y-14849831D02*
X16437934Y-14821260D01*
X16437934Y-14821260D02*
X16447458Y-14773641D01*
X16447458Y-14773641D02*
X16447458Y-14735546D01*
X16447458Y-14735546D02*
X16437934Y-14687927D01*
X16437934Y-14687927D02*
X16428411Y-14659355D01*
X16428411Y-14659355D02*
X16418887Y-14640308D01*
X16418887Y-14640308D02*
X16399839Y-14611736D01*
X16399839Y-14611736D02*
X16390315Y-14602212D01*
X9534300Y-14959300D02*
X9534300Y-15159300D01*
X9434300Y-15059300D02*
X9634300Y-15059300D01*
X9876029Y-14950784D02*
X9999839Y-14950784D01*
X9999839Y-14950784D02*
X9933172Y-15026974D01*
X9933172Y-15026974D02*
X9961744Y-15026974D01*
X9961744Y-15026974D02*
X9980791Y-15036498D01*
X9980791Y-15036498D02*
X9990315Y-15046022D01*
X9990315Y-15046022D02*
X9999839Y-15065069D01*
X9999839Y-15065069D02*
X9999839Y-15112688D01*
X9999839Y-15112688D02*
X9990315Y-15131736D01*
X9990315Y-15131736D02*
X9980791Y-15141260D01*
X9980791Y-15141260D02*
X9961744Y-15150784D01*
X9961744Y-15150784D02*
X9904601Y-15150784D01*
X9904601Y-15150784D02*
X9885553Y-15141260D01*
X9885553Y-15141260D02*
X9876029Y-15131736D01*
X10085553Y-15131736D02*
X10095077Y-15141260D01*
X10095077Y-15141260D02*
X10085553Y-15150784D01*
X10085553Y-15150784D02*
X10076029Y-15141260D01*
X10076029Y-15141260D02*
X10085553Y-15131736D01*
X10085553Y-15131736D02*
X10085553Y-15150784D01*
X10218886Y-14950784D02*
X10237934Y-14950784D01*
X10237934Y-14950784D02*
X10256982Y-14960308D01*
X10256982Y-14960308D02*
X10266505Y-14969831D01*
X10266505Y-14969831D02*
X10276029Y-14988879D01*
X10276029Y-14988879D02*
X10285553Y-15026974D01*
X10285553Y-15026974D02*
X10285553Y-15074593D01*
X10285553Y-15074593D02*
X10276029Y-15112688D01*
X10276029Y-15112688D02*
X10266505Y-15131736D01*
X10266505Y-15131736D02*
X10256982Y-15141260D01*
X10256982Y-15141260D02*
X10237934Y-15150784D01*
X10237934Y-15150784D02*
X10218886Y-15150784D01*
X10218886Y-15150784D02*
X10199839Y-15141260D01*
X10199839Y-15141260D02*
X10190315Y-15131736D01*
X10190315Y-15131736D02*
X10180791Y-15112688D01*
X10180791Y-15112688D02*
X10171267Y-15074593D01*
X10171267Y-15074593D02*
X10171267Y-15026974D01*
X10171267Y-15026974D02*
X10180791Y-14988879D01*
X10180791Y-14988879D02*
X10190315Y-14969831D01*
X10190315Y-14969831D02*
X10199839Y-14960308D01*
X10199839Y-14960308D02*
X10218886Y-14950784D01*
X10409363Y-14950784D02*
X10428410Y-14950784D01*
X10428410Y-14950784D02*
X10447458Y-14960308D01*
X10447458Y-14960308D02*
X10456982Y-14969831D01*
X10456982Y-14969831D02*
X10466505Y-14988879D01*
X10466505Y-14988879D02*
X10476029Y-15026974D01*
X10476029Y-15026974D02*
X10476029Y-15074593D01*
X10476029Y-15074593D02*
X10466505Y-15112688D01*
X10466505Y-15112688D02*
X10456982Y-15131736D01*
X10456982Y-15131736D02*
X10447458Y-15141260D01*
X10447458Y-15141260D02*
X10428410Y-15150784D01*
X10428410Y-15150784D02*
X10409363Y-15150784D01*
X10409363Y-15150784D02*
X10390315Y-15141260D01*
X10390315Y-15141260D02*
X10380791Y-15131736D01*
X10380791Y-15131736D02*
X10371267Y-15112688D01*
X10371267Y-15112688D02*
X10361744Y-15074593D01*
X10361744Y-15074593D02*
X10361744Y-15026974D01*
X10361744Y-15026974D02*
X10371267Y-14988879D01*
X10371267Y-14988879D02*
X10380791Y-14969831D01*
X10380791Y-14969831D02*
X10390315Y-14960308D01*
X10390315Y-14960308D02*
X10409363Y-14950784D01*
X10599839Y-14950784D02*
X10618886Y-14950784D01*
X10618886Y-14950784D02*
X10637934Y-14960308D01*
X10637934Y-14960308D02*
X10647458Y-14969831D01*
X10647458Y-14969831D02*
X10656982Y-14988879D01*
X10656982Y-14988879D02*
X10666505Y-15026974D01*
X10666505Y-15026974D02*
X10666505Y-15074593D01*
X10666505Y-15074593D02*
X10656982Y-15112688D01*
X10656982Y-15112688D02*
X10647458Y-15131736D01*
X10647458Y-15131736D02*
X10637934Y-15141260D01*
X10637934Y-15141260D02*
X10618886Y-15150784D01*
X10618886Y-15150784D02*
X10599839Y-15150784D01*
X10599839Y-15150784D02*
X10580791Y-15141260D01*
X10580791Y-15141260D02*
X10571267Y-15131736D01*
X10571267Y-15131736D02*
X10561744Y-15112688D01*
X10561744Y-15112688D02*
X10552220Y-15074593D01*
X10552220Y-15074593D02*
X10552220Y-15026974D01*
X10552220Y-15026974D02*
X10561744Y-14988879D01*
X10561744Y-14988879D02*
X10571267Y-14969831D01*
X10571267Y-14969831D02*
X10580791Y-14960308D01*
X10580791Y-14960308D02*
X10599839Y-14950784D01*
X10752220Y-15150784D02*
X10752220Y-15017450D01*
X10752220Y-15036498D02*
X10761744Y-15026974D01*
X10761744Y-15026974D02*
X10780791Y-15017450D01*
X10780791Y-15017450D02*
X10809363Y-15017450D01*
X10809363Y-15017450D02*
X10828410Y-15026974D01*
X10828410Y-15026974D02*
X10837934Y-15046022D01*
X10837934Y-15046022D02*
X10837934Y-15150784D01*
X10837934Y-15046022D02*
X10847458Y-15026974D01*
X10847458Y-15026974D02*
X10866505Y-15017450D01*
X10866505Y-15017450D02*
X10895077Y-15017450D01*
X10895077Y-15017450D02*
X10914125Y-15026974D01*
X10914125Y-15026974D02*
X10923648Y-15046022D01*
X10923648Y-15046022D02*
X10923648Y-15150784D01*
X11018886Y-15150784D02*
X11018886Y-15017450D01*
X11018886Y-15036498D02*
X11028410Y-15026974D01*
X11028410Y-15026974D02*
X11047458Y-15017450D01*
X11047458Y-15017450D02*
X11076029Y-15017450D01*
X11076029Y-15017450D02*
X11095077Y-15026974D01*
X11095077Y-15026974D02*
X11104601Y-15046022D01*
X11104601Y-15046022D02*
X11104601Y-15150784D01*
X11104601Y-15046022D02*
X11114125Y-15026974D01*
X11114125Y-15026974D02*
X11133172Y-15017450D01*
X11133172Y-15017450D02*
X11161744Y-15017450D01*
X11161744Y-15017450D02*
X11180791Y-15026974D01*
X11180791Y-15026974D02*
X11190315Y-15046022D01*
X11190315Y-15046022D02*
X11190315Y-15150784D01*
X11580791Y-14941260D02*
X11409363Y-15198403D01*
X11837934Y-14950784D02*
X11856982Y-14950784D01*
X11856982Y-14950784D02*
X11876029Y-14960308D01*
X11876029Y-14960308D02*
X11885553Y-14969831D01*
X11885553Y-14969831D02*
X11895077Y-14988879D01*
X11895077Y-14988879D02*
X11904601Y-15026974D01*
X11904601Y-15026974D02*
X11904601Y-15074593D01*
X11904601Y-15074593D02*
X11895077Y-15112688D01*
X11895077Y-15112688D02*
X11885553Y-15131736D01*
X11885553Y-15131736D02*
X11876029Y-15141260D01*
X11876029Y-15141260D02*
X11856982Y-15150784D01*
X11856982Y-15150784D02*
X11837934Y-15150784D01*
X11837934Y-15150784D02*
X11818886Y-15141260D01*
X11818886Y-15141260D02*
X11809363Y-15131736D01*
X11809363Y-15131736D02*
X11799839Y-15112688D01*
X11799839Y-15112688D02*
X11790315Y-15074593D01*
X11790315Y-15074593D02*
X11790315Y-15026974D01*
X11790315Y-15026974D02*
X11799839Y-14988879D01*
X11799839Y-14988879D02*
X11809363Y-14969831D01*
X11809363Y-14969831D02*
X11818886Y-14960308D01*
X11818886Y-14960308D02*
X11837934Y-14950784D01*
X11990315Y-15131736D02*
X11999839Y-15141260D01*
X11999839Y-15141260D02*
X11990315Y-15150784D01*
X11990315Y-15150784D02*
X11980791Y-15141260D01*
X11980791Y-15141260D02*
X11990315Y-15131736D01*
X11990315Y-15131736D02*
X11990315Y-15150784D01*
X12190315Y-15150784D02*
X12076029Y-15150784D01*
X12133172Y-15150784D02*
X12133172Y-14950784D01*
X12133172Y-14950784D02*
X12114125Y-14979355D01*
X12114125Y-14979355D02*
X12095077Y-14998403D01*
X12095077Y-14998403D02*
X12076029Y-15007927D01*
X12380791Y-15150784D02*
X12266506Y-15150784D01*
X12323648Y-15150784D02*
X12323648Y-14950784D01*
X12323648Y-14950784D02*
X12304601Y-14979355D01*
X12304601Y-14979355D02*
X12285553Y-14998403D01*
X12285553Y-14998403D02*
X12266506Y-15007927D01*
X12495077Y-15036498D02*
X12476029Y-15026974D01*
X12476029Y-15026974D02*
X12466506Y-15017450D01*
X12466506Y-15017450D02*
X12456982Y-14998403D01*
X12456982Y-14998403D02*
X12456982Y-14988879D01*
X12456982Y-14988879D02*
X12466506Y-14969831D01*
X12466506Y-14969831D02*
X12476029Y-14960308D01*
X12476029Y-14960308D02*
X12495077Y-14950784D01*
X12495077Y-14950784D02*
X12533172Y-14950784D01*
X12533172Y-14950784D02*
X12552220Y-14960308D01*
X12552220Y-14960308D02*
X12561744Y-14969831D01*
X12561744Y-14969831D02*
X12571267Y-14988879D01*
X12571267Y-14988879D02*
X12571267Y-14998403D01*
X12571267Y-14998403D02*
X12561744Y-15017450D01*
X12561744Y-15017450D02*
X12552220Y-15026974D01*
X12552220Y-15026974D02*
X12533172Y-15036498D01*
X12533172Y-15036498D02*
X12495077Y-15036498D01*
X12495077Y-15036498D02*
X12476029Y-15046022D01*
X12476029Y-15046022D02*
X12466506Y-15055546D01*
X12466506Y-15055546D02*
X12456982Y-15074593D01*
X12456982Y-15074593D02*
X12456982Y-15112688D01*
X12456982Y-15112688D02*
X12466506Y-15131736D01*
X12466506Y-15131736D02*
X12476029Y-15141260D01*
X12476029Y-15141260D02*
X12495077Y-15150784D01*
X12495077Y-15150784D02*
X12533172Y-15150784D01*
X12533172Y-15150784D02*
X12552220Y-15141260D01*
X12552220Y-15141260D02*
X12561744Y-15131736D01*
X12561744Y-15131736D02*
X12571267Y-15112688D01*
X12571267Y-15112688D02*
X12571267Y-15074593D01*
X12571267Y-15074593D02*
X12561744Y-15055546D01*
X12561744Y-15055546D02*
X12552220Y-15046022D01*
X12552220Y-15046022D02*
X12533172Y-15036498D01*
X12761744Y-15150784D02*
X12647458Y-15150784D01*
X12704601Y-15150784D02*
X12704601Y-14950784D01*
X12704601Y-14950784D02*
X12685553Y-14979355D01*
X12685553Y-14979355D02*
X12666506Y-14998403D01*
X12666506Y-14998403D02*
X12647458Y-15007927D01*
X12837934Y-14950784D02*
X12837934Y-14988879D01*
X12914125Y-14950784D02*
X12914125Y-14988879D01*
X13209363Y-15226974D02*
X13199839Y-15217450D01*
X13199839Y-15217450D02*
X13180791Y-15188879D01*
X13180791Y-15188879D02*
X13171268Y-15169831D01*
X13171268Y-15169831D02*
X13161744Y-15141260D01*
X13161744Y-15141260D02*
X13152220Y-15093641D01*
X13152220Y-15093641D02*
X13152220Y-15055546D01*
X13152220Y-15055546D02*
X13161744Y-15007927D01*
X13161744Y-15007927D02*
X13171268Y-14979355D01*
X13171268Y-14979355D02*
X13180791Y-14960308D01*
X13180791Y-14960308D02*
X13199839Y-14931736D01*
X13199839Y-14931736D02*
X13209363Y-14922212D01*
X13276029Y-14969831D02*
X13285553Y-14960308D01*
X13285553Y-14960308D02*
X13304601Y-14950784D01*
X13304601Y-14950784D02*
X13352220Y-14950784D01*
X13352220Y-14950784D02*
X13371268Y-14960308D01*
X13371268Y-14960308D02*
X13380791Y-14969831D01*
X13380791Y-14969831D02*
X13390315Y-14988879D01*
X13390315Y-14988879D02*
X13390315Y-15007927D01*
X13390315Y-15007927D02*
X13380791Y-15036498D01*
X13380791Y-15036498D02*
X13266506Y-15150784D01*
X13266506Y-15150784D02*
X13390315Y-15150784D01*
X13628410Y-15150784D02*
X13628410Y-14950784D01*
X13714125Y-15150784D02*
X13714125Y-15046022D01*
X13714125Y-15046022D02*
X13704601Y-15026974D01*
X13704601Y-15026974D02*
X13685553Y-15017450D01*
X13685553Y-15017450D02*
X13656982Y-15017450D01*
X13656982Y-15017450D02*
X13637934Y-15026974D01*
X13637934Y-15026974D02*
X13628410Y-15036498D01*
X13837934Y-15150784D02*
X13818887Y-15141260D01*
X13818887Y-15141260D02*
X13809363Y-15131736D01*
X13809363Y-15131736D02*
X13799839Y-15112688D01*
X13799839Y-15112688D02*
X13799839Y-15055546D01*
X13799839Y-15055546D02*
X13809363Y-15036498D01*
X13809363Y-15036498D02*
X13818887Y-15026974D01*
X13818887Y-15026974D02*
X13837934Y-15017450D01*
X13837934Y-15017450D02*
X13866506Y-15017450D01*
X13866506Y-15017450D02*
X13885553Y-15026974D01*
X13885553Y-15026974D02*
X13895077Y-15036498D01*
X13895077Y-15036498D02*
X13904601Y-15055546D01*
X13904601Y-15055546D02*
X13904601Y-15112688D01*
X13904601Y-15112688D02*
X13895077Y-15131736D01*
X13895077Y-15131736D02*
X13885553Y-15141260D01*
X13885553Y-15141260D02*
X13866506Y-15150784D01*
X13866506Y-15150784D02*
X13837934Y-15150784D01*
X14018887Y-15150784D02*
X13999839Y-15141260D01*
X13999839Y-15141260D02*
X13990315Y-15122212D01*
X13990315Y-15122212D02*
X13990315Y-14950784D01*
X14171268Y-15141260D02*
X14152220Y-15150784D01*
X14152220Y-15150784D02*
X14114125Y-15150784D01*
X14114125Y-15150784D02*
X14095077Y-15141260D01*
X14095077Y-15141260D02*
X14085553Y-15122212D01*
X14085553Y-15122212D02*
X14085553Y-15046022D01*
X14085553Y-15046022D02*
X14095077Y-15026974D01*
X14095077Y-15026974D02*
X14114125Y-15017450D01*
X14114125Y-15017450D02*
X14152220Y-15017450D01*
X14152220Y-15017450D02*
X14171268Y-15026974D01*
X14171268Y-15026974D02*
X14180791Y-15046022D01*
X14180791Y-15046022D02*
X14180791Y-15065069D01*
X14180791Y-15065069D02*
X14085553Y-15084117D01*
X14256982Y-15141260D02*
X14276030Y-15150784D01*
X14276030Y-15150784D02*
X14314125Y-15150784D01*
X14314125Y-15150784D02*
X14333172Y-15141260D01*
X14333172Y-15141260D02*
X14342696Y-15122212D01*
X14342696Y-15122212D02*
X14342696Y-15112688D01*
X14342696Y-15112688D02*
X14333172Y-15093641D01*
X14333172Y-15093641D02*
X14314125Y-15084117D01*
X14314125Y-15084117D02*
X14285553Y-15084117D01*
X14285553Y-15084117D02*
X14266506Y-15074593D01*
X14266506Y-15074593D02*
X14256982Y-15055546D01*
X14256982Y-15055546D02*
X14256982Y-15046022D01*
X14256982Y-15046022D02*
X14266506Y-15026974D01*
X14266506Y-15026974D02*
X14285553Y-15017450D01*
X14285553Y-15017450D02*
X14314125Y-15017450D01*
X14314125Y-15017450D02*
X14333172Y-15026974D01*
X14409363Y-15226974D02*
X14418887Y-15217450D01*
X14418887Y-15217450D02*
X14437934Y-15188879D01*
X14437934Y-15188879D02*
X14447458Y-15169831D01*
X14447458Y-15169831D02*
X14456982Y-15141260D01*
X14456982Y-15141260D02*
X14466506Y-15093641D01*
X14466506Y-15093641D02*
X14466506Y-15055546D01*
X14466506Y-15055546D02*
X14456982Y-15007927D01*
X14456982Y-15007927D02*
X14447458Y-14979355D01*
X14447458Y-14979355D02*
X14437934Y-14960308D01*
X14437934Y-14960308D02*
X14418887Y-14931736D01*
X14418887Y-14931736D02*
X14409363Y-14922212D01*
X14771268Y-15226974D02*
X14761744Y-15217450D01*
X14761744Y-15217450D02*
X14742696Y-15188879D01*
X14742696Y-15188879D02*
X14733172Y-15169831D01*
X14733172Y-15169831D02*
X14723649Y-15141260D01*
X14723649Y-15141260D02*
X14714125Y-15093641D01*
X14714125Y-15093641D02*
X14714125Y-15055546D01*
X14714125Y-15055546D02*
X14723649Y-15007927D01*
X14723649Y-15007927D02*
X14733172Y-14979355D01*
X14733172Y-14979355D02*
X14742696Y-14960308D01*
X14742696Y-14960308D02*
X14761744Y-14931736D01*
X14761744Y-14931736D02*
X14771268Y-14922212D01*
X14847458Y-15017450D02*
X14847458Y-15150784D01*
X14847458Y-15036498D02*
X14856982Y-15026974D01*
X14856982Y-15026974D02*
X14876030Y-15017450D01*
X14876030Y-15017450D02*
X14904601Y-15017450D01*
X14904601Y-15017450D02*
X14923649Y-15026974D01*
X14923649Y-15026974D02*
X14933172Y-15046022D01*
X14933172Y-15046022D02*
X14933172Y-15150784D01*
X15056982Y-15150784D02*
X15037934Y-15141260D01*
X15037934Y-15141260D02*
X15028411Y-15131736D01*
X15028411Y-15131736D02*
X15018887Y-15112688D01*
X15018887Y-15112688D02*
X15018887Y-15055546D01*
X15018887Y-15055546D02*
X15028411Y-15036498D01*
X15028411Y-15036498D02*
X15037934Y-15026974D01*
X15037934Y-15026974D02*
X15056982Y-15017450D01*
X15056982Y-15017450D02*
X15085553Y-15017450D01*
X15085553Y-15017450D02*
X15104601Y-15026974D01*
X15104601Y-15026974D02*
X15114125Y-15036498D01*
X15114125Y-15036498D02*
X15123649Y-15055546D01*
X15123649Y-15055546D02*
X15123649Y-15112688D01*
X15123649Y-15112688D02*
X15114125Y-15131736D01*
X15114125Y-15131736D02*
X15104601Y-15141260D01*
X15104601Y-15141260D02*
X15085553Y-15150784D01*
X15085553Y-15150784D02*
X15056982Y-15150784D01*
X15180792Y-15017450D02*
X15256982Y-15017450D01*
X15209363Y-14950784D02*
X15209363Y-15122212D01*
X15209363Y-15122212D02*
X15218887Y-15141260D01*
X15218887Y-15141260D02*
X15237934Y-15150784D01*
X15237934Y-15150784D02*
X15256982Y-15150784D01*
X15476030Y-15017450D02*
X15476030Y-15217450D01*
X15476030Y-15026974D02*
X15495077Y-15017450D01*
X15495077Y-15017450D02*
X15533173Y-15017450D01*
X15533173Y-15017450D02*
X15552220Y-15026974D01*
X15552220Y-15026974D02*
X15561744Y-15036498D01*
X15561744Y-15036498D02*
X15571268Y-15055546D01*
X15571268Y-15055546D02*
X15571268Y-15112688D01*
X15571268Y-15112688D02*
X15561744Y-15131736D01*
X15561744Y-15131736D02*
X15552220Y-15141260D01*
X15552220Y-15141260D02*
X15533173Y-15150784D01*
X15533173Y-15150784D02*
X15495077Y-15150784D01*
X15495077Y-15150784D02*
X15476030Y-15141260D01*
X15685553Y-15150784D02*
X15666506Y-15141260D01*
X15666506Y-15141260D02*
X15656982Y-15122212D01*
X15656982Y-15122212D02*
X15656982Y-14950784D01*
X15847458Y-15150784D02*
X15847458Y-15046022D01*
X15847458Y-15046022D02*
X15837934Y-15026974D01*
X15837934Y-15026974D02*
X15818887Y-15017450D01*
X15818887Y-15017450D02*
X15780792Y-15017450D01*
X15780792Y-15017450D02*
X15761744Y-15026974D01*
X15847458Y-15141260D02*
X15828411Y-15150784D01*
X15828411Y-15150784D02*
X15780792Y-15150784D01*
X15780792Y-15150784D02*
X15761744Y-15141260D01*
X15761744Y-15141260D02*
X15752220Y-15122212D01*
X15752220Y-15122212D02*
X15752220Y-15103165D01*
X15752220Y-15103165D02*
X15761744Y-15084117D01*
X15761744Y-15084117D02*
X15780792Y-15074593D01*
X15780792Y-15074593D02*
X15828411Y-15074593D01*
X15828411Y-15074593D02*
X15847458Y-15065069D01*
X15914125Y-15017450D02*
X15990315Y-15017450D01*
X15942696Y-14950784D02*
X15942696Y-15122212D01*
X15942696Y-15122212D02*
X15952220Y-15141260D01*
X15952220Y-15141260D02*
X15971268Y-15150784D01*
X15971268Y-15150784D02*
X15990315Y-15150784D01*
X16133173Y-15141260D02*
X16114125Y-15150784D01*
X16114125Y-15150784D02*
X16076030Y-15150784D01*
X16076030Y-15150784D02*
X16056982Y-15141260D01*
X16056982Y-15141260D02*
X16047458Y-15122212D01*
X16047458Y-15122212D02*
X16047458Y-15046022D01*
X16047458Y-15046022D02*
X16056982Y-15026974D01*
X16056982Y-15026974D02*
X16076030Y-15017450D01*
X16076030Y-15017450D02*
X16114125Y-15017450D01*
X16114125Y-15017450D02*
X16133173Y-15026974D01*
X16133173Y-15026974D02*
X16142696Y-15046022D01*
X16142696Y-15046022D02*
X16142696Y-15065069D01*
X16142696Y-15065069D02*
X16047458Y-15084117D01*
X16314125Y-15150784D02*
X16314125Y-14950784D01*
X16314125Y-15141260D02*
X16295077Y-15150784D01*
X16295077Y-15150784D02*
X16256982Y-15150784D01*
X16256982Y-15150784D02*
X16237934Y-15141260D01*
X16237934Y-15141260D02*
X16228411Y-15131736D01*
X16228411Y-15131736D02*
X16218887Y-15112688D01*
X16218887Y-15112688D02*
X16218887Y-15055546D01*
X16218887Y-15055546D02*
X16228411Y-15036498D01*
X16228411Y-15036498D02*
X16237934Y-15026974D01*
X16237934Y-15026974D02*
X16256982Y-15017450D01*
X16256982Y-15017450D02*
X16295077Y-15017450D01*
X16295077Y-15017450D02*
X16314125Y-15026974D01*
X16390315Y-15226974D02*
X16399839Y-15217450D01*
X16399839Y-15217450D02*
X16418887Y-15188879D01*
X16418887Y-15188879D02*
X16428411Y-15169831D01*
X16428411Y-15169831D02*
X16437934Y-15141260D01*
X16437934Y-15141260D02*
X16447458Y-15093641D01*
X16447458Y-15093641D02*
X16447458Y-15055546D01*
X16447458Y-15055546D02*
X16437934Y-15007927D01*
X16437934Y-15007927D02*
X16428411Y-14979355D01*
X16428411Y-14979355D02*
X16418887Y-14960308D01*
X16418887Y-14960308D02*
X16399839Y-14931736D01*
X16399839Y-14931736D02*
X16390315Y-14922212D01*
X9605011Y-15450011D02*
X9605011Y-15308589D01*
X9463589Y-15308589D01*
X9463589Y-15450011D01*
X9605011Y-15450011D01*
X9876029Y-15270784D02*
X9999839Y-15270784D01*
X9999839Y-15270784D02*
X9933172Y-15346974D01*
X9933172Y-15346974D02*
X9961744Y-15346974D01*
X9961744Y-15346974D02*
X9980791Y-15356498D01*
X9980791Y-15356498D02*
X9990315Y-15366022D01*
X9990315Y-15366022D02*
X9999839Y-15385069D01*
X9999839Y-15385069D02*
X9999839Y-15432688D01*
X9999839Y-15432688D02*
X9990315Y-15451736D01*
X9990315Y-15451736D02*
X9980791Y-15461260D01*
X9980791Y-15461260D02*
X9961744Y-15470784D01*
X9961744Y-15470784D02*
X9904601Y-15470784D01*
X9904601Y-15470784D02*
X9885553Y-15461260D01*
X9885553Y-15461260D02*
X9876029Y-15451736D01*
X10085553Y-15451736D02*
X10095077Y-15461260D01*
X10095077Y-15461260D02*
X10085553Y-15470784D01*
X10085553Y-15470784D02*
X10076029Y-15461260D01*
X10076029Y-15461260D02*
X10085553Y-15451736D01*
X10085553Y-15451736D02*
X10085553Y-15470784D01*
X10218886Y-15270784D02*
X10237934Y-15270784D01*
X10237934Y-15270784D02*
X10256982Y-15280308D01*
X10256982Y-15280308D02*
X10266505Y-15289831D01*
X10266505Y-15289831D02*
X10276029Y-15308879D01*
X10276029Y-15308879D02*
X10285553Y-15346974D01*
X10285553Y-15346974D02*
X10285553Y-15394593D01*
X10285553Y-15394593D02*
X10276029Y-15432688D01*
X10276029Y-15432688D02*
X10266505Y-15451736D01*
X10266505Y-15451736D02*
X10256982Y-15461260D01*
X10256982Y-15461260D02*
X10237934Y-15470784D01*
X10237934Y-15470784D02*
X10218886Y-15470784D01*
X10218886Y-15470784D02*
X10199839Y-15461260D01*
X10199839Y-15461260D02*
X10190315Y-15451736D01*
X10190315Y-15451736D02*
X10180791Y-15432688D01*
X10180791Y-15432688D02*
X10171267Y-15394593D01*
X10171267Y-15394593D02*
X10171267Y-15346974D01*
X10171267Y-15346974D02*
X10180791Y-15308879D01*
X10180791Y-15308879D02*
X10190315Y-15289831D01*
X10190315Y-15289831D02*
X10199839Y-15280308D01*
X10199839Y-15280308D02*
X10218886Y-15270784D01*
X10409363Y-15270784D02*
X10428410Y-15270784D01*
X10428410Y-15270784D02*
X10447458Y-15280308D01*
X10447458Y-15280308D02*
X10456982Y-15289831D01*
X10456982Y-15289831D02*
X10466505Y-15308879D01*
X10466505Y-15308879D02*
X10476029Y-15346974D01*
X10476029Y-15346974D02*
X10476029Y-15394593D01*
X10476029Y-15394593D02*
X10466505Y-15432688D01*
X10466505Y-15432688D02*
X10456982Y-15451736D01*
X10456982Y-15451736D02*
X10447458Y-15461260D01*
X10447458Y-15461260D02*
X10428410Y-15470784D01*
X10428410Y-15470784D02*
X10409363Y-15470784D01*
X10409363Y-15470784D02*
X10390315Y-15461260D01*
X10390315Y-15461260D02*
X10380791Y-15451736D01*
X10380791Y-15451736D02*
X10371267Y-15432688D01*
X10371267Y-15432688D02*
X10361744Y-15394593D01*
X10361744Y-15394593D02*
X10361744Y-15346974D01*
X10361744Y-15346974D02*
X10371267Y-15308879D01*
X10371267Y-15308879D02*
X10380791Y-15289831D01*
X10380791Y-15289831D02*
X10390315Y-15280308D01*
X10390315Y-15280308D02*
X10409363Y-15270784D01*
X10599839Y-15270784D02*
X10618886Y-15270784D01*
X10618886Y-15270784D02*
X10637934Y-15280308D01*
X10637934Y-15280308D02*
X10647458Y-15289831D01*
X10647458Y-15289831D02*
X10656982Y-15308879D01*
X10656982Y-15308879D02*
X10666505Y-15346974D01*
X10666505Y-15346974D02*
X10666505Y-15394593D01*
X10666505Y-15394593D02*
X10656982Y-15432688D01*
X10656982Y-15432688D02*
X10647458Y-15451736D01*
X10647458Y-15451736D02*
X10637934Y-15461260D01*
X10637934Y-15461260D02*
X10618886Y-15470784D01*
X10618886Y-15470784D02*
X10599839Y-15470784D01*
X10599839Y-15470784D02*
X10580791Y-15461260D01*
X10580791Y-15461260D02*
X10571267Y-15451736D01*
X10571267Y-15451736D02*
X10561744Y-15432688D01*
X10561744Y-15432688D02*
X10552220Y-15394593D01*
X10552220Y-15394593D02*
X10552220Y-15346974D01*
X10552220Y-15346974D02*
X10561744Y-15308879D01*
X10561744Y-15308879D02*
X10571267Y-15289831D01*
X10571267Y-15289831D02*
X10580791Y-15280308D01*
X10580791Y-15280308D02*
X10599839Y-15270784D01*
X10752220Y-15470784D02*
X10752220Y-15337450D01*
X10752220Y-15356498D02*
X10761744Y-15346974D01*
X10761744Y-15346974D02*
X10780791Y-15337450D01*
X10780791Y-15337450D02*
X10809363Y-15337450D01*
X10809363Y-15337450D02*
X10828410Y-15346974D01*
X10828410Y-15346974D02*
X10837934Y-15366022D01*
X10837934Y-15366022D02*
X10837934Y-15470784D01*
X10837934Y-15366022D02*
X10847458Y-15346974D01*
X10847458Y-15346974D02*
X10866505Y-15337450D01*
X10866505Y-15337450D02*
X10895077Y-15337450D01*
X10895077Y-15337450D02*
X10914125Y-15346974D01*
X10914125Y-15346974D02*
X10923648Y-15366022D01*
X10923648Y-15366022D02*
X10923648Y-15470784D01*
X11018886Y-15470784D02*
X11018886Y-15337450D01*
X11018886Y-15356498D02*
X11028410Y-15346974D01*
X11028410Y-15346974D02*
X11047458Y-15337450D01*
X11047458Y-15337450D02*
X11076029Y-15337450D01*
X11076029Y-15337450D02*
X11095077Y-15346974D01*
X11095077Y-15346974D02*
X11104601Y-15366022D01*
X11104601Y-15366022D02*
X11104601Y-15470784D01*
X11104601Y-15366022D02*
X11114125Y-15346974D01*
X11114125Y-15346974D02*
X11133172Y-15337450D01*
X11133172Y-15337450D02*
X11161744Y-15337450D01*
X11161744Y-15337450D02*
X11180791Y-15346974D01*
X11180791Y-15346974D02*
X11190315Y-15366022D01*
X11190315Y-15366022D02*
X11190315Y-15470784D01*
X11580791Y-15261260D02*
X11409363Y-15518403D01*
X11837934Y-15270784D02*
X11856982Y-15270784D01*
X11856982Y-15270784D02*
X11876029Y-15280308D01*
X11876029Y-15280308D02*
X11885553Y-15289831D01*
X11885553Y-15289831D02*
X11895077Y-15308879D01*
X11895077Y-15308879D02*
X11904601Y-15346974D01*
X11904601Y-15346974D02*
X11904601Y-15394593D01*
X11904601Y-15394593D02*
X11895077Y-15432688D01*
X11895077Y-15432688D02*
X11885553Y-15451736D01*
X11885553Y-15451736D02*
X11876029Y-15461260D01*
X11876029Y-15461260D02*
X11856982Y-15470784D01*
X11856982Y-15470784D02*
X11837934Y-15470784D01*
X11837934Y-15470784D02*
X11818886Y-15461260D01*
X11818886Y-15461260D02*
X11809363Y-15451736D01*
X11809363Y-15451736D02*
X11799839Y-15432688D01*
X11799839Y-15432688D02*
X11790315Y-15394593D01*
X11790315Y-15394593D02*
X11790315Y-15346974D01*
X11790315Y-15346974D02*
X11799839Y-15308879D01*
X11799839Y-15308879D02*
X11809363Y-15289831D01*
X11809363Y-15289831D02*
X11818886Y-15280308D01*
X11818886Y-15280308D02*
X11837934Y-15270784D01*
X11990315Y-15451736D02*
X11999839Y-15461260D01*
X11999839Y-15461260D02*
X11990315Y-15470784D01*
X11990315Y-15470784D02*
X11980791Y-15461260D01*
X11980791Y-15461260D02*
X11990315Y-15451736D01*
X11990315Y-15451736D02*
X11990315Y-15470784D01*
X12190315Y-15470784D02*
X12076029Y-15470784D01*
X12133172Y-15470784D02*
X12133172Y-15270784D01*
X12133172Y-15270784D02*
X12114125Y-15299355D01*
X12114125Y-15299355D02*
X12095077Y-15318403D01*
X12095077Y-15318403D02*
X12076029Y-15327927D01*
X12380791Y-15470784D02*
X12266506Y-15470784D01*
X12323648Y-15470784D02*
X12323648Y-15270784D01*
X12323648Y-15270784D02*
X12304601Y-15299355D01*
X12304601Y-15299355D02*
X12285553Y-15318403D01*
X12285553Y-15318403D02*
X12266506Y-15327927D01*
X12495077Y-15356498D02*
X12476029Y-15346974D01*
X12476029Y-15346974D02*
X12466506Y-15337450D01*
X12466506Y-15337450D02*
X12456982Y-15318403D01*
X12456982Y-15318403D02*
X12456982Y-15308879D01*
X12456982Y-15308879D02*
X12466506Y-15289831D01*
X12466506Y-15289831D02*
X12476029Y-15280308D01*
X12476029Y-15280308D02*
X12495077Y-15270784D01*
X12495077Y-15270784D02*
X12533172Y-15270784D01*
X12533172Y-15270784D02*
X12552220Y-15280308D01*
X12552220Y-15280308D02*
X12561744Y-15289831D01*
X12561744Y-15289831D02*
X12571267Y-15308879D01*
X12571267Y-15308879D02*
X12571267Y-15318403D01*
X12571267Y-15318403D02*
X12561744Y-15337450D01*
X12561744Y-15337450D02*
X12552220Y-15346974D01*
X12552220Y-15346974D02*
X12533172Y-15356498D01*
X12533172Y-15356498D02*
X12495077Y-15356498D01*
X12495077Y-15356498D02*
X12476029Y-15366022D01*
X12476029Y-15366022D02*
X12466506Y-15375546D01*
X12466506Y-15375546D02*
X12456982Y-15394593D01*
X12456982Y-15394593D02*
X12456982Y-15432688D01*
X12456982Y-15432688D02*
X12466506Y-15451736D01*
X12466506Y-15451736D02*
X12476029Y-15461260D01*
X12476029Y-15461260D02*
X12495077Y-15470784D01*
X12495077Y-15470784D02*
X12533172Y-15470784D01*
X12533172Y-15470784D02*
X12552220Y-15461260D01*
X12552220Y-15461260D02*
X12561744Y-15451736D01*
X12561744Y-15451736D02*
X12571267Y-15432688D01*
X12571267Y-15432688D02*
X12571267Y-15394593D01*
X12571267Y-15394593D02*
X12561744Y-15375546D01*
X12561744Y-15375546D02*
X12552220Y-15366022D01*
X12552220Y-15366022D02*
X12533172Y-15356498D01*
X12761744Y-15470784D02*
X12647458Y-15470784D01*
X12704601Y-15470784D02*
X12704601Y-15270784D01*
X12704601Y-15270784D02*
X12685553Y-15299355D01*
X12685553Y-15299355D02*
X12666506Y-15318403D01*
X12666506Y-15318403D02*
X12647458Y-15327927D01*
X12837934Y-15270784D02*
X12837934Y-15308879D01*
X12914125Y-15270784D02*
X12914125Y-15308879D01*
X13209363Y-15546974D02*
X13199839Y-15537450D01*
X13199839Y-15537450D02*
X13180791Y-15508879D01*
X13180791Y-15508879D02*
X13171268Y-15489831D01*
X13171268Y-15489831D02*
X13161744Y-15461260D01*
X13161744Y-15461260D02*
X13152220Y-15413641D01*
X13152220Y-15413641D02*
X13152220Y-15375546D01*
X13152220Y-15375546D02*
X13161744Y-15327927D01*
X13161744Y-15327927D02*
X13171268Y-15299355D01*
X13171268Y-15299355D02*
X13180791Y-15280308D01*
X13180791Y-15280308D02*
X13199839Y-15251736D01*
X13199839Y-15251736D02*
X13209363Y-15242212D01*
X13380791Y-15270784D02*
X13285553Y-15270784D01*
X13285553Y-15270784D02*
X13276029Y-15366022D01*
X13276029Y-15366022D02*
X13285553Y-15356498D01*
X13285553Y-15356498D02*
X13304601Y-15346974D01*
X13304601Y-15346974D02*
X13352220Y-15346974D01*
X13352220Y-15346974D02*
X13371268Y-15356498D01*
X13371268Y-15356498D02*
X13380791Y-15366022D01*
X13380791Y-15366022D02*
X13390315Y-15385069D01*
X13390315Y-15385069D02*
X13390315Y-15432688D01*
X13390315Y-15432688D02*
X13380791Y-15451736D01*
X13380791Y-15451736D02*
X13371268Y-15461260D01*
X13371268Y-15461260D02*
X13352220Y-15470784D01*
X13352220Y-15470784D02*
X13304601Y-15470784D01*
X13304601Y-15470784D02*
X13285553Y-15461260D01*
X13285553Y-15461260D02*
X13276029Y-15451736D01*
X13628410Y-15470784D02*
X13628410Y-15270784D01*
X13714125Y-15470784D02*
X13714125Y-15366022D01*
X13714125Y-15366022D02*
X13704601Y-15346974D01*
X13704601Y-15346974D02*
X13685553Y-15337450D01*
X13685553Y-15337450D02*
X13656982Y-15337450D01*
X13656982Y-15337450D02*
X13637934Y-15346974D01*
X13637934Y-15346974D02*
X13628410Y-15356498D01*
X13837934Y-15470784D02*
X13818887Y-15461260D01*
X13818887Y-15461260D02*
X13809363Y-15451736D01*
X13809363Y-15451736D02*
X13799839Y-15432688D01*
X13799839Y-15432688D02*
X13799839Y-15375546D01*
X13799839Y-15375546D02*
X13809363Y-15356498D01*
X13809363Y-15356498D02*
X13818887Y-15346974D01*
X13818887Y-15346974D02*
X13837934Y-15337450D01*
X13837934Y-15337450D02*
X13866506Y-15337450D01*
X13866506Y-15337450D02*
X13885553Y-15346974D01*
X13885553Y-15346974D02*
X13895077Y-15356498D01*
X13895077Y-15356498D02*
X13904601Y-15375546D01*
X13904601Y-15375546D02*
X13904601Y-15432688D01*
X13904601Y-15432688D02*
X13895077Y-15451736D01*
X13895077Y-15451736D02*
X13885553Y-15461260D01*
X13885553Y-15461260D02*
X13866506Y-15470784D01*
X13866506Y-15470784D02*
X13837934Y-15470784D01*
X14018887Y-15470784D02*
X13999839Y-15461260D01*
X13999839Y-15461260D02*
X13990315Y-15442212D01*
X13990315Y-15442212D02*
X13990315Y-15270784D01*
X14171268Y-15461260D02*
X14152220Y-15470784D01*
X14152220Y-15470784D02*
X14114125Y-15470784D01*
X14114125Y-15470784D02*
X14095077Y-15461260D01*
X14095077Y-15461260D02*
X14085553Y-15442212D01*
X14085553Y-15442212D02*
X14085553Y-15366022D01*
X14085553Y-15366022D02*
X14095077Y-15346974D01*
X14095077Y-15346974D02*
X14114125Y-15337450D01*
X14114125Y-15337450D02*
X14152220Y-15337450D01*
X14152220Y-15337450D02*
X14171268Y-15346974D01*
X14171268Y-15346974D02*
X14180791Y-15366022D01*
X14180791Y-15366022D02*
X14180791Y-15385069D01*
X14180791Y-15385069D02*
X14085553Y-15404117D01*
X14256982Y-15461260D02*
X14276030Y-15470784D01*
X14276030Y-15470784D02*
X14314125Y-15470784D01*
X14314125Y-15470784D02*
X14333172Y-15461260D01*
X14333172Y-15461260D02*
X14342696Y-15442212D01*
X14342696Y-15442212D02*
X14342696Y-15432688D01*
X14342696Y-15432688D02*
X14333172Y-15413641D01*
X14333172Y-15413641D02*
X14314125Y-15404117D01*
X14314125Y-15404117D02*
X14285553Y-15404117D01*
X14285553Y-15404117D02*
X14266506Y-15394593D01*
X14266506Y-15394593D02*
X14256982Y-15375546D01*
X14256982Y-15375546D02*
X14256982Y-15366022D01*
X14256982Y-15366022D02*
X14266506Y-15346974D01*
X14266506Y-15346974D02*
X14285553Y-15337450D01*
X14285553Y-15337450D02*
X14314125Y-15337450D01*
X14314125Y-15337450D02*
X14333172Y-15346974D01*
X14409363Y-15546974D02*
X14418887Y-15537450D01*
X14418887Y-15537450D02*
X14437934Y-15508879D01*
X14437934Y-15508879D02*
X14447458Y-15489831D01*
X14447458Y-15489831D02*
X14456982Y-15461260D01*
X14456982Y-15461260D02*
X14466506Y-15413641D01*
X14466506Y-15413641D02*
X14466506Y-15375546D01*
X14466506Y-15375546D02*
X14456982Y-15327927D01*
X14456982Y-15327927D02*
X14447458Y-15299355D01*
X14447458Y-15299355D02*
X14437934Y-15280308D01*
X14437934Y-15280308D02*
X14418887Y-15251736D01*
X14418887Y-15251736D02*
X14409363Y-15242212D01*
X14771268Y-15546974D02*
X14761744Y-15537450D01*
X14761744Y-15537450D02*
X14742696Y-15508879D01*
X14742696Y-15508879D02*
X14733172Y-15489831D01*
X14733172Y-15489831D02*
X14723649Y-15461260D01*
X14723649Y-15461260D02*
X14714125Y-15413641D01*
X14714125Y-15413641D02*
X14714125Y-15375546D01*
X14714125Y-15375546D02*
X14723649Y-15327927D01*
X14723649Y-15327927D02*
X14733172Y-15299355D01*
X14733172Y-15299355D02*
X14742696Y-15280308D01*
X14742696Y-15280308D02*
X14761744Y-15251736D01*
X14761744Y-15251736D02*
X14771268Y-15242212D01*
X14847458Y-15337450D02*
X14847458Y-15470784D01*
X14847458Y-15356498D02*
X14856982Y-15346974D01*
X14856982Y-15346974D02*
X14876030Y-15337450D01*
X14876030Y-15337450D02*
X14904601Y-15337450D01*
X14904601Y-15337450D02*
X14923649Y-15346974D01*
X14923649Y-15346974D02*
X14933172Y-15366022D01*
X14933172Y-15366022D02*
X14933172Y-15470784D01*
X15056982Y-15470784D02*
X15037934Y-15461260D01*
X15037934Y-15461260D02*
X15028411Y-15451736D01*
X15028411Y-15451736D02*
X15018887Y-15432688D01*
X15018887Y-15432688D02*
X15018887Y-15375546D01*
X15018887Y-15375546D02*
X15028411Y-15356498D01*
X15028411Y-15356498D02*
X15037934Y-15346974D01*
X15037934Y-15346974D02*
X15056982Y-15337450D01*
X15056982Y-15337450D02*
X15085553Y-15337450D01*
X15085553Y-15337450D02*
X15104601Y-15346974D01*
X15104601Y-15346974D02*
X15114125Y-15356498D01*
X15114125Y-15356498D02*
X15123649Y-15375546D01*
X15123649Y-15375546D02*
X15123649Y-15432688D01*
X15123649Y-15432688D02*
X15114125Y-15451736D01*
X15114125Y-15451736D02*
X15104601Y-15461260D01*
X15104601Y-15461260D02*
X15085553Y-15470784D01*
X15085553Y-15470784D02*
X15056982Y-15470784D01*
X15180792Y-15337450D02*
X15256982Y-15337450D01*
X15209363Y-15270784D02*
X15209363Y-15442212D01*
X15209363Y-15442212D02*
X15218887Y-15461260D01*
X15218887Y-15461260D02*
X15237934Y-15470784D01*
X15237934Y-15470784D02*
X15256982Y-15470784D01*
X15476030Y-15337450D02*
X15476030Y-15537450D01*
X15476030Y-15346974D02*
X15495077Y-15337450D01*
X15495077Y-15337450D02*
X15533173Y-15337450D01*
X15533173Y-15337450D02*
X15552220Y-15346974D01*
X15552220Y-15346974D02*
X15561744Y-15356498D01*
X15561744Y-15356498D02*
X15571268Y-15375546D01*
X15571268Y-15375546D02*
X15571268Y-15432688D01*
X15571268Y-15432688D02*
X15561744Y-15451736D01*
X15561744Y-15451736D02*
X15552220Y-15461260D01*
X15552220Y-15461260D02*
X15533173Y-15470784D01*
X15533173Y-15470784D02*
X15495077Y-15470784D01*
X15495077Y-15470784D02*
X15476030Y-15461260D01*
X15685553Y-15470784D02*
X15666506Y-15461260D01*
X15666506Y-15461260D02*
X15656982Y-15442212D01*
X15656982Y-15442212D02*
X15656982Y-15270784D01*
X15847458Y-15470784D02*
X15847458Y-15366022D01*
X15847458Y-15366022D02*
X15837934Y-15346974D01*
X15837934Y-15346974D02*
X15818887Y-15337450D01*
X15818887Y-15337450D02*
X15780792Y-15337450D01*
X15780792Y-15337450D02*
X15761744Y-15346974D01*
X15847458Y-15461260D02*
X15828411Y-15470784D01*
X15828411Y-15470784D02*
X15780792Y-15470784D01*
X15780792Y-15470784D02*
X15761744Y-15461260D01*
X15761744Y-15461260D02*
X15752220Y-15442212D01*
X15752220Y-15442212D02*
X15752220Y-15423165D01*
X15752220Y-15423165D02*
X15761744Y-15404117D01*
X15761744Y-15404117D02*
X15780792Y-15394593D01*
X15780792Y-15394593D02*
X15828411Y-15394593D01*
X15828411Y-15394593D02*
X15847458Y-15385069D01*
X15914125Y-15337450D02*
X15990315Y-15337450D01*
X15942696Y-15270784D02*
X15942696Y-15442212D01*
X15942696Y-15442212D02*
X15952220Y-15461260D01*
X15952220Y-15461260D02*
X15971268Y-15470784D01*
X15971268Y-15470784D02*
X15990315Y-15470784D01*
X16133173Y-15461260D02*
X16114125Y-15470784D01*
X16114125Y-15470784D02*
X16076030Y-15470784D01*
X16076030Y-15470784D02*
X16056982Y-15461260D01*
X16056982Y-15461260D02*
X16047458Y-15442212D01*
X16047458Y-15442212D02*
X16047458Y-15366022D01*
X16047458Y-15366022D02*
X16056982Y-15346974D01*
X16056982Y-15346974D02*
X16076030Y-15337450D01*
X16076030Y-15337450D02*
X16114125Y-15337450D01*
X16114125Y-15337450D02*
X16133173Y-15346974D01*
X16133173Y-15346974D02*
X16142696Y-15366022D01*
X16142696Y-15366022D02*
X16142696Y-15385069D01*
X16142696Y-15385069D02*
X16047458Y-15404117D01*
X16314125Y-15470784D02*
X16314125Y-15270784D01*
X16314125Y-15461260D02*
X16295077Y-15470784D01*
X16295077Y-15470784D02*
X16256982Y-15470784D01*
X16256982Y-15470784D02*
X16237934Y-15461260D01*
X16237934Y-15461260D02*
X16228411Y-15451736D01*
X16228411Y-15451736D02*
X16218887Y-15432688D01*
X16218887Y-15432688D02*
X16218887Y-15375546D01*
X16218887Y-15375546D02*
X16228411Y-15356498D01*
X16228411Y-15356498D02*
X16237934Y-15346974D01*
X16237934Y-15346974D02*
X16256982Y-15337450D01*
X16256982Y-15337450D02*
X16295077Y-15337450D01*
X16295077Y-15337450D02*
X16314125Y-15346974D01*
X16390315Y-15546974D02*
X16399839Y-15537450D01*
X16399839Y-15537450D02*
X16418887Y-15508879D01*
X16418887Y-15508879D02*
X16428411Y-15489831D01*
X16428411Y-15489831D02*
X16437934Y-15461260D01*
X16437934Y-15461260D02*
X16447458Y-15413641D01*
X16447458Y-15413641D02*
X16447458Y-15375546D01*
X16447458Y-15375546D02*
X16437934Y-15327927D01*
X16437934Y-15327927D02*
X16428411Y-15299355D01*
X16428411Y-15299355D02*
X16418887Y-15280308D01*
X16418887Y-15280308D02*
X16399839Y-15251736D01*
X16399839Y-15251736D02*
X16390315Y-15242212D01*
M02*
