%TF.GenerationSoftware,KiCad,Pcbnew,9.0.0*%
%TF.CreationDate,2025-03-23T02:50:55-05:00*%
%TF.ProjectId,TriggerButton V1,54726967-6765-4724-9275-74746f6e2056,rev?*%
%TF.SameCoordinates,Original*%
%TF.FileFunction,Legend,Top*%
%TF.FilePolarity,Positive*%
%FSLAX46Y46*%
G04 Gerber Fmt 4.6, Leading zero omitted, Abs format (unit mm)*
G04 Created by KiCad (PCBNEW 9.0.0) date 2025-03-23 02:50:55*
%MOMM*%
%LPD*%
G01*
G04 APERTURE LIST*
%ADD10C,0.150000*%
%ADD11C,0.152400*%
%ADD12C,0.127000*%
G04 APERTURE END LIST*
D10*
X132866667Y-93807200D02*
X133009524Y-93854819D01*
X133009524Y-93854819D02*
X133247619Y-93854819D01*
X133247619Y-93854819D02*
X133342857Y-93807200D01*
X133342857Y-93807200D02*
X133390476Y-93759580D01*
X133390476Y-93759580D02*
X133438095Y-93664342D01*
X133438095Y-93664342D02*
X133438095Y-93569104D01*
X133438095Y-93569104D02*
X133390476Y-93473866D01*
X133390476Y-93473866D02*
X133342857Y-93426247D01*
X133342857Y-93426247D02*
X133247619Y-93378628D01*
X133247619Y-93378628D02*
X133057143Y-93331009D01*
X133057143Y-93331009D02*
X132961905Y-93283390D01*
X132961905Y-93283390D02*
X132914286Y-93235771D01*
X132914286Y-93235771D02*
X132866667Y-93140533D01*
X132866667Y-93140533D02*
X132866667Y-93045295D01*
X132866667Y-93045295D02*
X132914286Y-92950057D01*
X132914286Y-92950057D02*
X132961905Y-92902438D01*
X132961905Y-92902438D02*
X133057143Y-92854819D01*
X133057143Y-92854819D02*
X133295238Y-92854819D01*
X133295238Y-92854819D02*
X133438095Y-92902438D01*
X133771429Y-92854819D02*
X134009524Y-93854819D01*
X134009524Y-93854819D02*
X134200000Y-93140533D01*
X134200000Y-93140533D02*
X134390476Y-93854819D01*
X134390476Y-93854819D02*
X134628572Y-92854819D01*
X135533333Y-93854819D02*
X134961905Y-93854819D01*
X135247619Y-93854819D02*
X135247619Y-92854819D01*
X135247619Y-92854819D02*
X135152381Y-92997676D01*
X135152381Y-92997676D02*
X135057143Y-93092914D01*
X135057143Y-93092914D02*
X134961905Y-93140533D01*
X130097900Y-90054819D02*
X130097900Y-90292914D01*
X129859805Y-90197676D02*
X130097900Y-90292914D01*
X130097900Y-90292914D02*
X130335995Y-90197676D01*
X129955043Y-90483390D02*
X130097900Y-90292914D01*
X130097900Y-90292914D02*
X130240757Y-90483390D01*
X129066666Y-92654819D02*
X129066666Y-93369104D01*
X129066666Y-93369104D02*
X129019047Y-93511961D01*
X129019047Y-93511961D02*
X128923809Y-93607200D01*
X128923809Y-93607200D02*
X128780952Y-93654819D01*
X128780952Y-93654819D02*
X128685714Y-93654819D01*
X130066666Y-93654819D02*
X129495238Y-93654819D01*
X129780952Y-93654819D02*
X129780952Y-92654819D01*
X129780952Y-92654819D02*
X129685714Y-92797676D01*
X129685714Y-92797676D02*
X129590476Y-92892914D01*
X129590476Y-92892914D02*
X129495238Y-92940533D01*
D11*
%TO.C,SW1*%
X131075800Y-91914539D02*
X131075800Y-94885461D01*
X131075800Y-96524200D02*
X137324200Y-96524200D01*
X137324200Y-90275800D02*
X131075800Y-90275800D01*
X137324200Y-94885461D02*
X137324200Y-91914539D01*
X135952600Y-93400000D02*
G75*
G02*
X132447400Y-93400000I-1752600J0D01*
G01*
X132447400Y-93400000D02*
G75*
G02*
X135952600Y-93400000I1752600J0D01*
G01*
D12*
%TO.C,J1*%
X126400000Y-96670000D02*
X119400000Y-96670000D01*
X124000000Y-90100000D02*
X124800000Y-90100000D01*
X124800000Y-90100000D02*
X124400000Y-90900000D01*
X124400000Y-90900000D02*
X124000000Y-90100000D01*
X118075000Y-91100000D02*
X127725000Y-91100000D01*
X118075000Y-91100000D02*
X118075000Y-95100000D01*
X127725000Y-91100000D02*
X127725000Y-95100000D01*
%TD*%
M02*
