%TF.GenerationSoftware,KiCad,Pcbnew,9.0.0*%
%TF.CreationDate,2025-03-23T02:50:55-05:00*%
%TF.ProjectId,TriggerButton V1,54726967-6765-4724-9275-74746f6e2056,rev?*%
%TF.SameCoordinates,Original*%
%TF.FileFunction,Soldermask,Top*%
%TF.FilePolarity,Negative*%
%FSLAX46Y46*%
G04 Gerber Fmt 4.6, Leading zero omitted, Abs format (unit mm)*
G04 Created by KiCad (PCBNEW 9.0.0) date 2025-03-23 02:50:55*
%MOMM*%
%LPD*%
G01*
G04 APERTURE LIST*
%ADD10C,0.010000*%
%ADD11C,0.836200*%
%ADD12C,0.711200*%
%ADD13C,2.200000*%
%ADD14R,2.006600X0.863600*%
%ADD15C,1.270000*%
G04 APERTURE END LIST*
D10*
%TO.C,J2*%
X125236200Y-93121200D02*
X123563800Y-93121200D01*
X123563800Y-91448800D01*
X125236200Y-91448800D01*
X125236200Y-93121200D01*
G36*
X125236200Y-93121200D02*
G01*
X123563800Y-93121200D01*
X123563800Y-91448800D01*
X125236200Y-91448800D01*
X125236200Y-93121200D01*
G37*
D11*
X121818100Y-92285000D02*
G75*
G02*
X120981900Y-92285000I-418100J0D01*
G01*
X120981900Y-92285000D02*
G75*
G02*
X121818100Y-92285000I418100J0D01*
G01*
D12*
X127755600Y-90325000D02*
G75*
G02*
X127044400Y-90325000I-355600J0D01*
G01*
X127044400Y-90325000D02*
G75*
G02*
X127755600Y-90325000I355600J0D01*
G01*
X118755600Y-90325000D02*
G75*
G02*
X118044400Y-90325000I-355600J0D01*
G01*
X118044400Y-90325000D02*
G75*
G02*
X118755600Y-90325000I355600J0D01*
G01*
D10*
%TO.C,J1*%
X125236200Y-95036200D02*
X123563800Y-95036200D01*
X123563800Y-93363800D01*
X125236200Y-93363800D01*
X125236200Y-95036200D01*
G36*
X125236200Y-95036200D02*
G01*
X123563800Y-95036200D01*
X123563800Y-93363800D01*
X125236200Y-93363800D01*
X125236200Y-95036200D01*
G37*
D11*
X121818100Y-94200000D02*
G75*
G02*
X120981900Y-94200000I-418100J0D01*
G01*
X120981900Y-94200000D02*
G75*
G02*
X121818100Y-94200000I418100J0D01*
G01*
D12*
X127755600Y-96160000D02*
G75*
G02*
X127044400Y-96160000I-355600J0D01*
G01*
X127044400Y-96160000D02*
G75*
G02*
X127755600Y-96160000I355600J0D01*
G01*
X118755600Y-96160000D02*
G75*
G02*
X118044400Y-96160000I-355600J0D01*
G01*
X118044400Y-96160000D02*
G75*
G02*
X118755600Y-96160000I355600J0D01*
G01*
%TD*%
D13*
%TO.C,H2*%
X114200000Y-93400000D03*
%TD*%
%TO.C,H1*%
X142000000Y-93400000D03*
%TD*%
D14*
%TO.C,SW1*%
X130351900Y-91149999D03*
X138048100Y-91149999D03*
X130351900Y-95650001D03*
X138048100Y-95650001D03*
%TD*%
D15*
%TO.C,J2*%
X127400000Y-90325000D03*
X118400000Y-90325000D03*
%TD*%
%TO.C,J1*%
X127400000Y-96160000D03*
X118400000Y-96160000D03*
%TD*%
M02*
