%TF.GenerationSoftware,KiCad,Pcbnew,9.0.0*%
%TF.CreationDate,2025-03-23T02:50:55-05:00*%
%TF.ProjectId,TriggerButton V1,54726967-6765-4724-9275-74746f6e2056,rev?*%
%TF.SameCoordinates,Original*%
%TF.FileFunction,Copper,L2,Bot*%
%TF.FilePolarity,Positive*%
%FSLAX46Y46*%
G04 Gerber Fmt 4.6, Leading zero omitted, Abs format (unit mm)*
G04 Created by KiCad (PCBNEW 9.0.0) date 2025-03-23 02:50:55*
%MOMM*%
%LPD*%
G01*
G04 APERTURE LIST*
%TA.AperFunction,ComponentPad*%
%ADD10R,1.520000X1.520000*%
%TD*%
%TA.AperFunction,ComponentPad*%
%ADD11C,1.520000*%
%TD*%
G04 APERTURE END LIST*
D10*
%TO.P,J2,1,Pin_1*%
%TO.N,Net-(J1-Pin_1)*%
X124400000Y-92285000D03*
D11*
%TO.P,J2,2,Pin_2*%
%TO.N,Net-(J1-Pin_2)*%
X121400000Y-92285000D03*
%TD*%
D10*
%TO.P,J1,1,Pin_1*%
%TO.N,Net-(J1-Pin_1)*%
X124400000Y-94200000D03*
D11*
%TO.P,J1,2,Pin_2*%
%TO.N,Net-(J1-Pin_2)*%
X121400000Y-94200000D03*
%TD*%
%TA.AperFunction,NonConductor*%
G36*
X117498835Y-89920185D02*
G01*
X117544590Y-89972989D01*
X117554534Y-90042147D01*
X117549464Y-90060629D01*
X117550297Y-90060882D01*
X117548527Y-90066716D01*
X117514500Y-90237781D01*
X117514500Y-90412218D01*
X117548527Y-90583283D01*
X117548529Y-90583291D01*
X117615278Y-90744439D01*
X117615283Y-90744448D01*
X117712186Y-90889473D01*
X117712189Y-90889477D01*
X117835522Y-91012810D01*
X117835526Y-91012813D01*
X117980551Y-91109716D01*
X117980557Y-91109719D01*
X117980558Y-91109720D01*
X118141709Y-91176471D01*
X118294803Y-91206923D01*
X118312781Y-91210499D01*
X118312785Y-91210500D01*
X118312786Y-91210500D01*
X118487215Y-91210500D01*
X118487216Y-91210499D01*
X118658291Y-91176471D01*
X118819442Y-91109720D01*
X118964474Y-91012813D01*
X119087813Y-90889474D01*
X119184720Y-90744442D01*
X119251471Y-90583291D01*
X119285500Y-90412214D01*
X119285500Y-90237786D01*
X119251471Y-90066709D01*
X119251466Y-90066698D01*
X119249703Y-90060882D01*
X119252363Y-90060075D01*
X119246177Y-90002468D01*
X119277460Y-89939992D01*
X119337553Y-89904348D01*
X119368204Y-89900500D01*
X126431796Y-89900500D01*
X126498835Y-89920185D01*
X126544590Y-89972989D01*
X126554534Y-90042147D01*
X126549464Y-90060629D01*
X126550297Y-90060882D01*
X126548527Y-90066716D01*
X126514500Y-90237781D01*
X126514500Y-90412218D01*
X126548527Y-90583283D01*
X126548529Y-90583291D01*
X126615278Y-90744439D01*
X126615283Y-90744448D01*
X126712186Y-90889473D01*
X126712189Y-90889477D01*
X126835522Y-91012810D01*
X126835526Y-91012813D01*
X126980551Y-91109716D01*
X126980557Y-91109719D01*
X126980558Y-91109720D01*
X127141709Y-91176471D01*
X127294803Y-91206923D01*
X127312781Y-91210499D01*
X127312785Y-91210500D01*
X127312786Y-91210500D01*
X127487215Y-91210500D01*
X127487216Y-91210499D01*
X127658291Y-91176471D01*
X127819442Y-91109720D01*
X127964474Y-91012813D01*
X128087813Y-90889474D01*
X128184720Y-90744442D01*
X128251471Y-90583291D01*
X128285500Y-90412214D01*
X128285500Y-90237786D01*
X128251471Y-90066709D01*
X128251466Y-90066698D01*
X128249703Y-90060882D01*
X128252363Y-90060075D01*
X128246177Y-90002468D01*
X128277460Y-89939992D01*
X128337553Y-89904348D01*
X128368204Y-89900500D01*
X142975500Y-89900500D01*
X143042539Y-89920185D01*
X143088294Y-89972989D01*
X143099500Y-90024500D01*
X143099500Y-92290242D01*
X143079815Y-92357281D01*
X143027011Y-92403036D01*
X142957853Y-92412980D01*
X142894297Y-92383955D01*
X142887819Y-92377923D01*
X142879786Y-92369890D01*
X142707820Y-92244951D01*
X142518414Y-92148444D01*
X142518413Y-92148443D01*
X142518412Y-92148443D01*
X142316243Y-92082754D01*
X142316241Y-92082753D01*
X142316240Y-92082753D01*
X142154957Y-92057208D01*
X142106287Y-92049500D01*
X141893713Y-92049500D01*
X141845042Y-92057208D01*
X141683760Y-92082753D01*
X141481585Y-92148444D01*
X141292179Y-92244951D01*
X141120213Y-92369890D01*
X140969890Y-92520213D01*
X140844951Y-92692179D01*
X140748444Y-92881585D01*
X140682753Y-93083760D01*
X140661786Y-93216142D01*
X140649500Y-93293713D01*
X140649500Y-93506287D01*
X140682754Y-93716243D01*
X140744032Y-93904837D01*
X140748444Y-93918414D01*
X140844951Y-94107820D01*
X140969890Y-94279786D01*
X141120213Y-94430109D01*
X141292179Y-94555048D01*
X141292181Y-94555049D01*
X141292184Y-94555051D01*
X141481588Y-94651557D01*
X141683757Y-94717246D01*
X141893713Y-94750500D01*
X141893714Y-94750500D01*
X142106286Y-94750500D01*
X142106287Y-94750500D01*
X142316243Y-94717246D01*
X142518412Y-94651557D01*
X142707816Y-94555051D01*
X142770157Y-94509758D01*
X142879786Y-94430109D01*
X142879788Y-94430106D01*
X142879792Y-94430104D01*
X142887819Y-94422077D01*
X142949142Y-94388592D01*
X143018834Y-94393576D01*
X143074767Y-94435448D01*
X143099184Y-94500912D01*
X143099500Y-94509758D01*
X143099500Y-96375500D01*
X143079815Y-96442539D01*
X143027011Y-96488294D01*
X142975500Y-96499500D01*
X128386412Y-96499500D01*
X128319373Y-96479815D01*
X128273618Y-96427011D01*
X128263674Y-96357853D01*
X128264795Y-96351309D01*
X128285499Y-96247218D01*
X128285500Y-96247215D01*
X128285500Y-96072785D01*
X128285499Y-96072781D01*
X128251472Y-95901716D01*
X128251471Y-95901709D01*
X128184720Y-95740558D01*
X128184719Y-95740557D01*
X128184716Y-95740551D01*
X128087813Y-95595526D01*
X128087810Y-95595522D01*
X127964477Y-95472189D01*
X127964473Y-95472186D01*
X127819448Y-95375283D01*
X127819439Y-95375278D01*
X127658291Y-95308529D01*
X127658283Y-95308527D01*
X127487218Y-95274500D01*
X127487214Y-95274500D01*
X127312786Y-95274500D01*
X127312781Y-95274500D01*
X127141716Y-95308527D01*
X127141708Y-95308529D01*
X126980560Y-95375278D01*
X126980551Y-95375283D01*
X126835526Y-95472186D01*
X126835522Y-95472189D01*
X126712189Y-95595522D01*
X126712186Y-95595526D01*
X126615283Y-95740551D01*
X126615278Y-95740560D01*
X126548529Y-95901708D01*
X126548527Y-95901716D01*
X126514500Y-96072781D01*
X126514500Y-96247218D01*
X126535205Y-96351309D01*
X126528978Y-96420901D01*
X126486115Y-96476078D01*
X126420225Y-96499322D01*
X126413588Y-96499500D01*
X119386412Y-96499500D01*
X119319373Y-96479815D01*
X119273618Y-96427011D01*
X119263674Y-96357853D01*
X119264795Y-96351309D01*
X119285499Y-96247218D01*
X119285500Y-96247215D01*
X119285500Y-96072785D01*
X119285499Y-96072781D01*
X119251472Y-95901716D01*
X119251471Y-95901709D01*
X119184720Y-95740558D01*
X119184719Y-95740557D01*
X119184716Y-95740551D01*
X119087813Y-95595526D01*
X119087810Y-95595522D01*
X118964477Y-95472189D01*
X118964473Y-95472186D01*
X118819448Y-95375283D01*
X118819439Y-95375278D01*
X118658291Y-95308529D01*
X118658283Y-95308527D01*
X118487218Y-95274500D01*
X118487214Y-95274500D01*
X118312786Y-95274500D01*
X118312781Y-95274500D01*
X118141716Y-95308527D01*
X118141708Y-95308529D01*
X117980560Y-95375278D01*
X117980551Y-95375283D01*
X117835526Y-95472186D01*
X117835522Y-95472189D01*
X117712189Y-95595522D01*
X117712186Y-95595526D01*
X117615283Y-95740551D01*
X117615278Y-95740560D01*
X117548529Y-95901708D01*
X117548527Y-95901716D01*
X117514500Y-96072781D01*
X117514500Y-96247218D01*
X117535205Y-96351309D01*
X117528978Y-96420901D01*
X117486115Y-96476078D01*
X117420225Y-96499322D01*
X117413588Y-96499500D01*
X113224500Y-96499500D01*
X113157461Y-96479815D01*
X113111706Y-96427011D01*
X113100500Y-96375500D01*
X113100500Y-94509758D01*
X113120185Y-94442719D01*
X113172989Y-94396964D01*
X113242147Y-94387020D01*
X113305703Y-94416045D01*
X113312181Y-94422077D01*
X113320213Y-94430109D01*
X113492179Y-94555048D01*
X113492181Y-94555049D01*
X113492184Y-94555051D01*
X113681588Y-94651557D01*
X113883757Y-94717246D01*
X114093713Y-94750500D01*
X114093714Y-94750500D01*
X114306286Y-94750500D01*
X114306287Y-94750500D01*
X114516243Y-94717246D01*
X114718412Y-94651557D01*
X114907816Y-94555051D01*
X114970157Y-94509758D01*
X115079786Y-94430109D01*
X115079788Y-94430106D01*
X115079792Y-94430104D01*
X115230104Y-94279792D01*
X115230106Y-94279788D01*
X115230109Y-94279786D01*
X115355048Y-94107820D01*
X115355047Y-94107820D01*
X115355051Y-94107816D01*
X115451557Y-93918412D01*
X115517246Y-93716243D01*
X115550500Y-93506287D01*
X115550500Y-93293713D01*
X115517246Y-93083757D01*
X115451557Y-92881588D01*
X115355051Y-92692184D01*
X115355049Y-92692181D01*
X115355048Y-92692179D01*
X115230109Y-92520213D01*
X115079792Y-92369896D01*
X114982332Y-92299088D01*
X114957769Y-92281241D01*
X114957768Y-92281240D01*
X114907819Y-92244951D01*
X114907818Y-92244950D01*
X114907816Y-92244949D01*
X114791710Y-92185790D01*
X120139500Y-92185790D01*
X120139500Y-92384209D01*
X120161040Y-92520208D01*
X120170537Y-92580168D01*
X120206932Y-92692179D01*
X120231850Y-92768868D01*
X120289283Y-92881585D01*
X120321923Y-92945646D01*
X120438544Y-93106161D01*
X120438546Y-93106163D01*
X120487202Y-93154819D01*
X120520687Y-93216142D01*
X120515703Y-93285834D01*
X120487202Y-93330181D01*
X120438546Y-93378836D01*
X120438546Y-93378837D01*
X120438544Y-93378839D01*
X120428884Y-93392135D01*
X120321926Y-93539349D01*
X120321924Y-93539352D01*
X120231850Y-93716131D01*
X120231814Y-93716243D01*
X120170537Y-93904832D01*
X120170536Y-93904835D01*
X120170536Y-93904837D01*
X120139500Y-94100790D01*
X120139500Y-94299209D01*
X120160232Y-94430104D01*
X120170537Y-94495168D01*
X120217140Y-94638596D01*
X120231850Y-94683868D01*
X120265801Y-94750500D01*
X120321923Y-94860646D01*
X120438544Y-95021161D01*
X120578839Y-95161456D01*
X120739354Y-95278077D01*
X120852800Y-95335880D01*
X120916131Y-95368149D01*
X120916133Y-95368149D01*
X120916136Y-95368151D01*
X121104832Y-95429463D01*
X121202814Y-95444981D01*
X121300791Y-95460500D01*
X121300796Y-95460500D01*
X121499209Y-95460500D01*
X121588278Y-95446392D01*
X121695168Y-95429463D01*
X121883864Y-95368151D01*
X122060646Y-95278077D01*
X122221161Y-95161456D01*
X122361456Y-95021161D01*
X122478077Y-94860646D01*
X122568151Y-94683864D01*
X122629463Y-94495168D01*
X122646592Y-94387020D01*
X122660500Y-94299209D01*
X122660500Y-94100790D01*
X122643570Y-93993906D01*
X122629463Y-93904832D01*
X122568151Y-93716136D01*
X122568149Y-93716133D01*
X122568149Y-93716131D01*
X122535880Y-93652800D01*
X122478077Y-93539354D01*
X122361456Y-93378839D01*
X122312798Y-93330181D01*
X122279313Y-93268858D01*
X122284297Y-93199166D01*
X122312798Y-93154819D01*
X122315138Y-93152479D01*
X122361456Y-93106161D01*
X122478077Y-92945646D01*
X122568151Y-92768864D01*
X122629463Y-92580168D01*
X122646392Y-92473278D01*
X122660500Y-92384209D01*
X122660500Y-92185790D01*
X122638913Y-92049500D01*
X122629463Y-91989832D01*
X122568151Y-91801136D01*
X122568149Y-91801133D01*
X122568149Y-91801131D01*
X122535880Y-91737800D01*
X122478077Y-91624354D01*
X122371116Y-91477135D01*
X123139500Y-91477135D01*
X123139500Y-93092870D01*
X123139501Y-93092876D01*
X123145908Y-93152481D01*
X123163321Y-93199168D01*
X123168304Y-93268860D01*
X123163321Y-93285832D01*
X123145908Y-93332519D01*
X123139501Y-93392116D01*
X123139501Y-93392123D01*
X123139500Y-93392135D01*
X123139500Y-95007870D01*
X123139501Y-95007876D01*
X123145908Y-95067483D01*
X123196202Y-95202328D01*
X123196206Y-95202335D01*
X123282452Y-95317544D01*
X123282455Y-95317547D01*
X123397664Y-95403793D01*
X123397671Y-95403797D01*
X123532517Y-95454091D01*
X123532516Y-95454091D01*
X123539444Y-95454835D01*
X123592127Y-95460500D01*
X125207872Y-95460499D01*
X125267483Y-95454091D01*
X125402331Y-95403796D01*
X125517546Y-95317546D01*
X125603796Y-95202331D01*
X125654091Y-95067483D01*
X125660500Y-95007873D01*
X125660499Y-93392128D01*
X125654091Y-93332517D01*
X125636679Y-93285834D01*
X125631693Y-93216143D01*
X125636678Y-93199168D01*
X125654091Y-93152483D01*
X125660500Y-93092873D01*
X125660499Y-91477128D01*
X125654091Y-91417517D01*
X125619041Y-91323544D01*
X125603797Y-91282671D01*
X125603793Y-91282664D01*
X125517547Y-91167455D01*
X125517544Y-91167452D01*
X125402335Y-91081206D01*
X125402328Y-91081202D01*
X125267482Y-91030908D01*
X125267483Y-91030908D01*
X125207883Y-91024501D01*
X125207881Y-91024500D01*
X125207873Y-91024500D01*
X125207864Y-91024500D01*
X123592129Y-91024500D01*
X123592123Y-91024501D01*
X123532516Y-91030908D01*
X123397671Y-91081202D01*
X123397664Y-91081206D01*
X123282455Y-91167452D01*
X123282452Y-91167455D01*
X123196206Y-91282664D01*
X123196202Y-91282671D01*
X123145908Y-91417517D01*
X123139501Y-91477116D01*
X123139501Y-91477123D01*
X123139500Y-91477135D01*
X122371116Y-91477135D01*
X122361456Y-91463839D01*
X122221161Y-91323544D01*
X122060646Y-91206923D01*
X121983179Y-91167452D01*
X121883868Y-91116850D01*
X121838596Y-91102140D01*
X121695168Y-91055537D01*
X121695162Y-91055536D01*
X121499209Y-91024500D01*
X121499204Y-91024500D01*
X121300796Y-91024500D01*
X121300791Y-91024500D01*
X121104837Y-91055536D01*
X121104835Y-91055536D01*
X121104832Y-91055537D01*
X121025832Y-91081206D01*
X120916131Y-91116850D01*
X120739352Y-91206924D01*
X120739349Y-91206926D01*
X120653255Y-91269477D01*
X120578839Y-91323544D01*
X120578837Y-91323546D01*
X120578836Y-91323546D01*
X120438546Y-91463836D01*
X120438546Y-91463837D01*
X120438544Y-91463839D01*
X120428884Y-91477135D01*
X120321926Y-91624349D01*
X120321924Y-91624352D01*
X120231850Y-91801131D01*
X120201193Y-91895484D01*
X120170537Y-91989832D01*
X120170536Y-91989835D01*
X120170536Y-91989837D01*
X120139500Y-92185790D01*
X114791710Y-92185790D01*
X114718412Y-92148443D01*
X114516243Y-92082754D01*
X114516241Y-92082753D01*
X114516240Y-92082753D01*
X114354957Y-92057208D01*
X114306287Y-92049500D01*
X114093713Y-92049500D01*
X114045042Y-92057208D01*
X113883760Y-92082753D01*
X113681585Y-92148444D01*
X113492179Y-92244951D01*
X113320213Y-92369890D01*
X113320209Y-92369894D01*
X113312181Y-92377923D01*
X113250858Y-92411408D01*
X113181166Y-92406424D01*
X113125233Y-92364552D01*
X113100816Y-92299088D01*
X113100500Y-92290242D01*
X113100500Y-90024500D01*
X113120185Y-89957461D01*
X113172989Y-89911706D01*
X113224500Y-89900500D01*
X117431796Y-89900500D01*
X117498835Y-89920185D01*
G37*
%TD.AperFunction*%
M02*
