%TF.GenerationSoftware,KiCad,Pcbnew,9.0.0*%
%TF.CreationDate,2025-03-23T02:30:14-05:00*%
%TF.ProjectId,IOBoardV1,494f426f-6172-4645-9631-2e6b69636164,rev?*%
%TF.SameCoordinates,Original*%
%TF.FileFunction,Legend,Top*%
%TF.FilePolarity,Positive*%
%FSLAX46Y46*%
G04 Gerber Fmt 4.6, Leading zero omitted, Abs format (unit mm)*
G04 Created by KiCad (PCBNEW 9.0.0) date 2025-03-23 02:30:14*
%MOMM*%
%LPD*%
G01*
G04 APERTURE LIST*
%ADD10C,0.100000*%
%ADD11C,0.150000*%
%ADD12C,0.152400*%
%ADD13C,0.508000*%
G04 APERTURE END LIST*
D10*
X176103884Y-77272419D02*
X176103884Y-76272419D01*
X176103884Y-76272419D02*
X176341979Y-76272419D01*
X176341979Y-76272419D02*
X176484836Y-76320038D01*
X176484836Y-76320038D02*
X176580074Y-76415276D01*
X176580074Y-76415276D02*
X176627693Y-76510514D01*
X176627693Y-76510514D02*
X176675312Y-76700990D01*
X176675312Y-76700990D02*
X176675312Y-76843847D01*
X176675312Y-76843847D02*
X176627693Y-77034323D01*
X176627693Y-77034323D02*
X176580074Y-77129561D01*
X176580074Y-77129561D02*
X176484836Y-77224800D01*
X176484836Y-77224800D02*
X176341979Y-77272419D01*
X176341979Y-77272419D02*
X176103884Y-77272419D01*
X177103884Y-77272419D02*
X177103884Y-76272419D01*
X177103884Y-76272419D02*
X177484836Y-76272419D01*
X177484836Y-76272419D02*
X177580074Y-76320038D01*
X177580074Y-76320038D02*
X177627693Y-76367657D01*
X177627693Y-76367657D02*
X177675312Y-76462895D01*
X177675312Y-76462895D02*
X177675312Y-76605752D01*
X177675312Y-76605752D02*
X177627693Y-76700990D01*
X177627693Y-76700990D02*
X177580074Y-76748609D01*
X177580074Y-76748609D02*
X177484836Y-76796228D01*
X177484836Y-76796228D02*
X177103884Y-76796228D01*
X178056265Y-76986704D02*
X178532455Y-76986704D01*
X177961027Y-77272419D02*
X178294360Y-76272419D01*
X178294360Y-76272419D02*
X178627693Y-77272419D01*
X178961027Y-77272419D02*
X178961027Y-76272419D01*
X178961027Y-76272419D02*
X179199122Y-76272419D01*
X179199122Y-76272419D02*
X179341979Y-76320038D01*
X179341979Y-76320038D02*
X179437217Y-76415276D01*
X179437217Y-76415276D02*
X179484836Y-76510514D01*
X179484836Y-76510514D02*
X179532455Y-76700990D01*
X179532455Y-76700990D02*
X179532455Y-76843847D01*
X179532455Y-76843847D02*
X179484836Y-77034323D01*
X179484836Y-77034323D02*
X179437217Y-77129561D01*
X179437217Y-77129561D02*
X179341979Y-77224800D01*
X179341979Y-77224800D02*
X179199122Y-77272419D01*
X179199122Y-77272419D02*
X178961027Y-77272419D01*
X141303884Y-59672419D02*
X141303884Y-58672419D01*
X141303884Y-58672419D02*
X141684836Y-58672419D01*
X141684836Y-58672419D02*
X141780074Y-58720038D01*
X141780074Y-58720038D02*
X141827693Y-58767657D01*
X141827693Y-58767657D02*
X141875312Y-58862895D01*
X141875312Y-58862895D02*
X141875312Y-59005752D01*
X141875312Y-59005752D02*
X141827693Y-59100990D01*
X141827693Y-59100990D02*
X141780074Y-59148609D01*
X141780074Y-59148609D02*
X141684836Y-59196228D01*
X141684836Y-59196228D02*
X141303884Y-59196228D01*
X142446741Y-59672419D02*
X142351503Y-59624800D01*
X142351503Y-59624800D02*
X142303884Y-59577180D01*
X142303884Y-59577180D02*
X142256265Y-59481942D01*
X142256265Y-59481942D02*
X142256265Y-59196228D01*
X142256265Y-59196228D02*
X142303884Y-59100990D01*
X142303884Y-59100990D02*
X142351503Y-59053371D01*
X142351503Y-59053371D02*
X142446741Y-59005752D01*
X142446741Y-59005752D02*
X142589598Y-59005752D01*
X142589598Y-59005752D02*
X142684836Y-59053371D01*
X142684836Y-59053371D02*
X142732455Y-59100990D01*
X142732455Y-59100990D02*
X142780074Y-59196228D01*
X142780074Y-59196228D02*
X142780074Y-59481942D01*
X142780074Y-59481942D02*
X142732455Y-59577180D01*
X142732455Y-59577180D02*
X142684836Y-59624800D01*
X142684836Y-59624800D02*
X142589598Y-59672419D01*
X142589598Y-59672419D02*
X142446741Y-59672419D01*
X143113408Y-59005752D02*
X143303884Y-59672419D01*
X143303884Y-59672419D02*
X143494360Y-59196228D01*
X143494360Y-59196228D02*
X143684836Y-59672419D01*
X143684836Y-59672419D02*
X143875312Y-59005752D01*
X144637217Y-59624800D02*
X144541979Y-59672419D01*
X144541979Y-59672419D02*
X144351503Y-59672419D01*
X144351503Y-59672419D02*
X144256265Y-59624800D01*
X144256265Y-59624800D02*
X144208646Y-59529561D01*
X144208646Y-59529561D02*
X144208646Y-59148609D01*
X144208646Y-59148609D02*
X144256265Y-59053371D01*
X144256265Y-59053371D02*
X144351503Y-59005752D01*
X144351503Y-59005752D02*
X144541979Y-59005752D01*
X144541979Y-59005752D02*
X144637217Y-59053371D01*
X144637217Y-59053371D02*
X144684836Y-59148609D01*
X144684836Y-59148609D02*
X144684836Y-59243847D01*
X144684836Y-59243847D02*
X144208646Y-59339085D01*
X145113408Y-59672419D02*
X145113408Y-59005752D01*
X145113408Y-59196228D02*
X145161027Y-59100990D01*
X145161027Y-59100990D02*
X145208646Y-59053371D01*
X145208646Y-59053371D02*
X145303884Y-59005752D01*
X145303884Y-59005752D02*
X145399122Y-59005752D01*
X193856265Y-60024800D02*
X193999122Y-60072419D01*
X193999122Y-60072419D02*
X194237217Y-60072419D01*
X194237217Y-60072419D02*
X194332455Y-60024800D01*
X194332455Y-60024800D02*
X194380074Y-59977180D01*
X194380074Y-59977180D02*
X194427693Y-59881942D01*
X194427693Y-59881942D02*
X194427693Y-59786704D01*
X194427693Y-59786704D02*
X194380074Y-59691466D01*
X194380074Y-59691466D02*
X194332455Y-59643847D01*
X194332455Y-59643847D02*
X194237217Y-59596228D01*
X194237217Y-59596228D02*
X194046741Y-59548609D01*
X194046741Y-59548609D02*
X193951503Y-59500990D01*
X193951503Y-59500990D02*
X193903884Y-59453371D01*
X193903884Y-59453371D02*
X193856265Y-59358133D01*
X193856265Y-59358133D02*
X193856265Y-59262895D01*
X193856265Y-59262895D02*
X193903884Y-59167657D01*
X193903884Y-59167657D02*
X193951503Y-59120038D01*
X193951503Y-59120038D02*
X194046741Y-59072419D01*
X194046741Y-59072419D02*
X194284836Y-59072419D01*
X194284836Y-59072419D02*
X194427693Y-59120038D01*
X195237217Y-60024800D02*
X195141979Y-60072419D01*
X195141979Y-60072419D02*
X194951503Y-60072419D01*
X194951503Y-60072419D02*
X194856265Y-60024800D01*
X194856265Y-60024800D02*
X194808646Y-59929561D01*
X194808646Y-59929561D02*
X194808646Y-59548609D01*
X194808646Y-59548609D02*
X194856265Y-59453371D01*
X194856265Y-59453371D02*
X194951503Y-59405752D01*
X194951503Y-59405752D02*
X195141979Y-59405752D01*
X195141979Y-59405752D02*
X195237217Y-59453371D01*
X195237217Y-59453371D02*
X195284836Y-59548609D01*
X195284836Y-59548609D02*
X195284836Y-59643847D01*
X195284836Y-59643847D02*
X194808646Y-59739085D01*
X195856265Y-60072419D02*
X195761027Y-60024800D01*
X195761027Y-60024800D02*
X195713408Y-59929561D01*
X195713408Y-59929561D02*
X195713408Y-59072419D01*
X196618170Y-60024800D02*
X196522932Y-60072419D01*
X196522932Y-60072419D02*
X196332456Y-60072419D01*
X196332456Y-60072419D02*
X196237218Y-60024800D01*
X196237218Y-60024800D02*
X196189599Y-59929561D01*
X196189599Y-59929561D02*
X196189599Y-59548609D01*
X196189599Y-59548609D02*
X196237218Y-59453371D01*
X196237218Y-59453371D02*
X196332456Y-59405752D01*
X196332456Y-59405752D02*
X196522932Y-59405752D01*
X196522932Y-59405752D02*
X196618170Y-59453371D01*
X196618170Y-59453371D02*
X196665789Y-59548609D01*
X196665789Y-59548609D02*
X196665789Y-59643847D01*
X196665789Y-59643847D02*
X196189599Y-59739085D01*
X197522932Y-60024800D02*
X197427694Y-60072419D01*
X197427694Y-60072419D02*
X197237218Y-60072419D01*
X197237218Y-60072419D02*
X197141980Y-60024800D01*
X197141980Y-60024800D02*
X197094361Y-59977180D01*
X197094361Y-59977180D02*
X197046742Y-59881942D01*
X197046742Y-59881942D02*
X197046742Y-59596228D01*
X197046742Y-59596228D02*
X197094361Y-59500990D01*
X197094361Y-59500990D02*
X197141980Y-59453371D01*
X197141980Y-59453371D02*
X197237218Y-59405752D01*
X197237218Y-59405752D02*
X197427694Y-59405752D01*
X197427694Y-59405752D02*
X197522932Y-59453371D01*
X197808647Y-59405752D02*
X198189599Y-59405752D01*
X197951504Y-59072419D02*
X197951504Y-59929561D01*
X197951504Y-59929561D02*
X197999123Y-60024800D01*
X197999123Y-60024800D02*
X198094361Y-60072419D01*
X198094361Y-60072419D02*
X198189599Y-60072419D01*
X157408646Y-53062475D02*
X157646741Y-54062475D01*
X157646741Y-54062475D02*
X157837217Y-53348189D01*
X157837217Y-53348189D02*
X158027693Y-54062475D01*
X158027693Y-54062475D02*
X158265789Y-53062475D01*
X159075312Y-54062475D02*
X159075312Y-53538665D01*
X159075312Y-53538665D02*
X159027693Y-53443427D01*
X159027693Y-53443427D02*
X158932455Y-53395808D01*
X158932455Y-53395808D02*
X158741979Y-53395808D01*
X158741979Y-53395808D02*
X158646741Y-53443427D01*
X159075312Y-54014856D02*
X158980074Y-54062475D01*
X158980074Y-54062475D02*
X158741979Y-54062475D01*
X158741979Y-54062475D02*
X158646741Y-54014856D01*
X158646741Y-54014856D02*
X158599122Y-53919617D01*
X158599122Y-53919617D02*
X158599122Y-53824379D01*
X158599122Y-53824379D02*
X158646741Y-53729141D01*
X158646741Y-53729141D02*
X158741979Y-53681522D01*
X158741979Y-53681522D02*
X158980074Y-53681522D01*
X158980074Y-53681522D02*
X159075312Y-53633903D01*
X159408646Y-53395808D02*
X159789598Y-53395808D01*
X159551503Y-53062475D02*
X159551503Y-53919617D01*
X159551503Y-53919617D02*
X159599122Y-54014856D01*
X159599122Y-54014856D02*
X159694360Y-54062475D01*
X159694360Y-54062475D02*
X159789598Y-54062475D01*
X160503884Y-54014856D02*
X160408646Y-54062475D01*
X160408646Y-54062475D02*
X160218170Y-54062475D01*
X160218170Y-54062475D02*
X160122932Y-54014856D01*
X160122932Y-54014856D02*
X160075313Y-53919617D01*
X160075313Y-53919617D02*
X160075313Y-53538665D01*
X160075313Y-53538665D02*
X160122932Y-53443427D01*
X160122932Y-53443427D02*
X160218170Y-53395808D01*
X160218170Y-53395808D02*
X160408646Y-53395808D01*
X160408646Y-53395808D02*
X160503884Y-53443427D01*
X160503884Y-53443427D02*
X160551503Y-53538665D01*
X160551503Y-53538665D02*
X160551503Y-53633903D01*
X160551503Y-53633903D02*
X160075313Y-53729141D01*
X160980075Y-54062475D02*
X160980075Y-53395808D01*
X160980075Y-53586284D02*
X161027694Y-53491046D01*
X161027694Y-53491046D02*
X161075313Y-53443427D01*
X161075313Y-53443427D02*
X161170551Y-53395808D01*
X161170551Y-53395808D02*
X161265789Y-53395808D01*
X161932456Y-53538665D02*
X162075313Y-53586284D01*
X162075313Y-53586284D02*
X162122932Y-53633903D01*
X162122932Y-53633903D02*
X162170551Y-53729141D01*
X162170551Y-53729141D02*
X162170551Y-53871998D01*
X162170551Y-53871998D02*
X162122932Y-53967236D01*
X162122932Y-53967236D02*
X162075313Y-54014856D01*
X162075313Y-54014856D02*
X161980075Y-54062475D01*
X161980075Y-54062475D02*
X161599123Y-54062475D01*
X161599123Y-54062475D02*
X161599123Y-53062475D01*
X161599123Y-53062475D02*
X161932456Y-53062475D01*
X161932456Y-53062475D02*
X162027694Y-53110094D01*
X162027694Y-53110094D02*
X162075313Y-53157713D01*
X162075313Y-53157713D02*
X162122932Y-53252951D01*
X162122932Y-53252951D02*
X162122932Y-53348189D01*
X162122932Y-53348189D02*
X162075313Y-53443427D01*
X162075313Y-53443427D02*
X162027694Y-53491046D01*
X162027694Y-53491046D02*
X161932456Y-53538665D01*
X161932456Y-53538665D02*
X161599123Y-53538665D01*
X162741980Y-54062475D02*
X162646742Y-54014856D01*
X162646742Y-54014856D02*
X162599123Y-53919617D01*
X162599123Y-53919617D02*
X162599123Y-53062475D01*
X163551504Y-54062475D02*
X163551504Y-53538665D01*
X163551504Y-53538665D02*
X163503885Y-53443427D01*
X163503885Y-53443427D02*
X163408647Y-53395808D01*
X163408647Y-53395808D02*
X163218171Y-53395808D01*
X163218171Y-53395808D02*
X163122933Y-53443427D01*
X163551504Y-54014856D02*
X163456266Y-54062475D01*
X163456266Y-54062475D02*
X163218171Y-54062475D01*
X163218171Y-54062475D02*
X163122933Y-54014856D01*
X163122933Y-54014856D02*
X163075314Y-53919617D01*
X163075314Y-53919617D02*
X163075314Y-53824379D01*
X163075314Y-53824379D02*
X163122933Y-53729141D01*
X163122933Y-53729141D02*
X163218171Y-53681522D01*
X163218171Y-53681522D02*
X163456266Y-53681522D01*
X163456266Y-53681522D02*
X163551504Y-53633903D01*
X163980076Y-54014856D02*
X164075314Y-54062475D01*
X164075314Y-54062475D02*
X164265790Y-54062475D01*
X164265790Y-54062475D02*
X164361028Y-54014856D01*
X164361028Y-54014856D02*
X164408647Y-53919617D01*
X164408647Y-53919617D02*
X164408647Y-53871998D01*
X164408647Y-53871998D02*
X164361028Y-53776760D01*
X164361028Y-53776760D02*
X164265790Y-53729141D01*
X164265790Y-53729141D02*
X164122933Y-53729141D01*
X164122933Y-53729141D02*
X164027695Y-53681522D01*
X164027695Y-53681522D02*
X163980076Y-53586284D01*
X163980076Y-53586284D02*
X163980076Y-53538665D01*
X163980076Y-53538665D02*
X164027695Y-53443427D01*
X164027695Y-53443427D02*
X164122933Y-53395808D01*
X164122933Y-53395808D02*
X164265790Y-53395808D01*
X164265790Y-53395808D02*
X164361028Y-53443427D01*
X164694362Y-53395808D02*
X165075314Y-53395808D01*
X164837219Y-53062475D02*
X164837219Y-53919617D01*
X164837219Y-53919617D02*
X164884838Y-54014856D01*
X164884838Y-54014856D02*
X164980076Y-54062475D01*
X164980076Y-54062475D02*
X165075314Y-54062475D01*
X165789600Y-54014856D02*
X165694362Y-54062475D01*
X165694362Y-54062475D02*
X165503886Y-54062475D01*
X165503886Y-54062475D02*
X165408648Y-54014856D01*
X165408648Y-54014856D02*
X165361029Y-53919617D01*
X165361029Y-53919617D02*
X165361029Y-53538665D01*
X165361029Y-53538665D02*
X165408648Y-53443427D01*
X165408648Y-53443427D02*
X165503886Y-53395808D01*
X165503886Y-53395808D02*
X165694362Y-53395808D01*
X165694362Y-53395808D02*
X165789600Y-53443427D01*
X165789600Y-53443427D02*
X165837219Y-53538665D01*
X165837219Y-53538665D02*
X165837219Y-53633903D01*
X165837219Y-53633903D02*
X165361029Y-53729141D01*
X166265791Y-54062475D02*
X166265791Y-53395808D01*
X166265791Y-53586284D02*
X166313410Y-53491046D01*
X166313410Y-53491046D02*
X166361029Y-53443427D01*
X166361029Y-53443427D02*
X166456267Y-53395808D01*
X166456267Y-53395808D02*
X166551505Y-53395808D01*
X167646744Y-54062475D02*
X167646744Y-53062475D01*
X168837219Y-53014856D02*
X167980077Y-54300570D01*
X169361029Y-53062475D02*
X169551505Y-53062475D01*
X169551505Y-53062475D02*
X169646743Y-53110094D01*
X169646743Y-53110094D02*
X169741981Y-53205332D01*
X169741981Y-53205332D02*
X169789600Y-53395808D01*
X169789600Y-53395808D02*
X169789600Y-53729141D01*
X169789600Y-53729141D02*
X169741981Y-53919617D01*
X169741981Y-53919617D02*
X169646743Y-54014856D01*
X169646743Y-54014856D02*
X169551505Y-54062475D01*
X169551505Y-54062475D02*
X169361029Y-54062475D01*
X169361029Y-54062475D02*
X169265791Y-54014856D01*
X169265791Y-54014856D02*
X169170553Y-53919617D01*
X169170553Y-53919617D02*
X169122934Y-53729141D01*
X169122934Y-53729141D02*
X169122934Y-53395808D01*
X169122934Y-53395808D02*
X169170553Y-53205332D01*
X169170553Y-53205332D02*
X169265791Y-53110094D01*
X169265791Y-53110094D02*
X169361029Y-53062475D01*
X171313410Y-53538665D02*
X171456267Y-53586284D01*
X171456267Y-53586284D02*
X171503886Y-53633903D01*
X171503886Y-53633903D02*
X171551505Y-53729141D01*
X171551505Y-53729141D02*
X171551505Y-53871998D01*
X171551505Y-53871998D02*
X171503886Y-53967236D01*
X171503886Y-53967236D02*
X171456267Y-54014856D01*
X171456267Y-54014856D02*
X171361029Y-54062475D01*
X171361029Y-54062475D02*
X170980077Y-54062475D01*
X170980077Y-54062475D02*
X170980077Y-53062475D01*
X170980077Y-53062475D02*
X171313410Y-53062475D01*
X171313410Y-53062475D02*
X171408648Y-53110094D01*
X171408648Y-53110094D02*
X171456267Y-53157713D01*
X171456267Y-53157713D02*
X171503886Y-53252951D01*
X171503886Y-53252951D02*
X171503886Y-53348189D01*
X171503886Y-53348189D02*
X171456267Y-53443427D01*
X171456267Y-53443427D02*
X171408648Y-53491046D01*
X171408648Y-53491046D02*
X171313410Y-53538665D01*
X171313410Y-53538665D02*
X170980077Y-53538665D01*
X172122934Y-54062475D02*
X172027696Y-54014856D01*
X172027696Y-54014856D02*
X171980077Y-53967236D01*
X171980077Y-53967236D02*
X171932458Y-53871998D01*
X171932458Y-53871998D02*
X171932458Y-53586284D01*
X171932458Y-53586284D02*
X171980077Y-53491046D01*
X171980077Y-53491046D02*
X172027696Y-53443427D01*
X172027696Y-53443427D02*
X172122934Y-53395808D01*
X172122934Y-53395808D02*
X172265791Y-53395808D01*
X172265791Y-53395808D02*
X172361029Y-53443427D01*
X172361029Y-53443427D02*
X172408648Y-53491046D01*
X172408648Y-53491046D02*
X172456267Y-53586284D01*
X172456267Y-53586284D02*
X172456267Y-53871998D01*
X172456267Y-53871998D02*
X172408648Y-53967236D01*
X172408648Y-53967236D02*
X172361029Y-54014856D01*
X172361029Y-54014856D02*
X172265791Y-54062475D01*
X172265791Y-54062475D02*
X172122934Y-54062475D01*
X173313410Y-54062475D02*
X173313410Y-53538665D01*
X173313410Y-53538665D02*
X173265791Y-53443427D01*
X173265791Y-53443427D02*
X173170553Y-53395808D01*
X173170553Y-53395808D02*
X172980077Y-53395808D01*
X172980077Y-53395808D02*
X172884839Y-53443427D01*
X173313410Y-54014856D02*
X173218172Y-54062475D01*
X173218172Y-54062475D02*
X172980077Y-54062475D01*
X172980077Y-54062475D02*
X172884839Y-54014856D01*
X172884839Y-54014856D02*
X172837220Y-53919617D01*
X172837220Y-53919617D02*
X172837220Y-53824379D01*
X172837220Y-53824379D02*
X172884839Y-53729141D01*
X172884839Y-53729141D02*
X172980077Y-53681522D01*
X172980077Y-53681522D02*
X173218172Y-53681522D01*
X173218172Y-53681522D02*
X173313410Y-53633903D01*
X173789601Y-54062475D02*
X173789601Y-53395808D01*
X173789601Y-53586284D02*
X173837220Y-53491046D01*
X173837220Y-53491046D02*
X173884839Y-53443427D01*
X173884839Y-53443427D02*
X173980077Y-53395808D01*
X173980077Y-53395808D02*
X174075315Y-53395808D01*
X174837220Y-54062475D02*
X174837220Y-53062475D01*
X174837220Y-54014856D02*
X174741982Y-54062475D01*
X174741982Y-54062475D02*
X174551506Y-54062475D01*
X174551506Y-54062475D02*
X174456268Y-54014856D01*
X174456268Y-54014856D02*
X174408649Y-53967236D01*
X174408649Y-53967236D02*
X174361030Y-53871998D01*
X174361030Y-53871998D02*
X174361030Y-53586284D01*
X174361030Y-53586284D02*
X174408649Y-53491046D01*
X174408649Y-53491046D02*
X174456268Y-53443427D01*
X174456268Y-53443427D02*
X174551506Y-53395808D01*
X174551506Y-53395808D02*
X174741982Y-53395808D01*
X174741982Y-53395808D02*
X174837220Y-53443427D01*
X175932459Y-53062475D02*
X176265792Y-54062475D01*
X176265792Y-54062475D02*
X176599125Y-53062475D01*
X177456268Y-54062475D02*
X176884840Y-54062475D01*
X177170554Y-54062475D02*
X177170554Y-53062475D01*
X177170554Y-53062475D02*
X177075316Y-53205332D01*
X177075316Y-53205332D02*
X176980078Y-53300570D01*
X176980078Y-53300570D02*
X176884840Y-53348189D01*
X160551504Y-55672419D02*
X160551504Y-54672419D01*
X160551504Y-54672419D02*
X160884837Y-55386704D01*
X160884837Y-55386704D02*
X161218170Y-54672419D01*
X161218170Y-54672419D02*
X161218170Y-55672419D01*
X162122932Y-55672419D02*
X162122932Y-55148609D01*
X162122932Y-55148609D02*
X162075313Y-55053371D01*
X162075313Y-55053371D02*
X161980075Y-55005752D01*
X161980075Y-55005752D02*
X161789599Y-55005752D01*
X161789599Y-55005752D02*
X161694361Y-55053371D01*
X162122932Y-55624800D02*
X162027694Y-55672419D01*
X162027694Y-55672419D02*
X161789599Y-55672419D01*
X161789599Y-55672419D02*
X161694361Y-55624800D01*
X161694361Y-55624800D02*
X161646742Y-55529561D01*
X161646742Y-55529561D02*
X161646742Y-55434323D01*
X161646742Y-55434323D02*
X161694361Y-55339085D01*
X161694361Y-55339085D02*
X161789599Y-55291466D01*
X161789599Y-55291466D02*
X162027694Y-55291466D01*
X162027694Y-55291466D02*
X162122932Y-55243847D01*
X162599123Y-55672419D02*
X162599123Y-55005752D01*
X162599123Y-55196228D02*
X162646742Y-55100990D01*
X162646742Y-55100990D02*
X162694361Y-55053371D01*
X162694361Y-55053371D02*
X162789599Y-55005752D01*
X162789599Y-55005752D02*
X162884837Y-55005752D01*
X163932457Y-54767657D02*
X163980076Y-54720038D01*
X163980076Y-54720038D02*
X164075314Y-54672419D01*
X164075314Y-54672419D02*
X164313409Y-54672419D01*
X164313409Y-54672419D02*
X164408647Y-54720038D01*
X164408647Y-54720038D02*
X164456266Y-54767657D01*
X164456266Y-54767657D02*
X164503885Y-54862895D01*
X164503885Y-54862895D02*
X164503885Y-54958133D01*
X164503885Y-54958133D02*
X164456266Y-55100990D01*
X164456266Y-55100990D02*
X163884838Y-55672419D01*
X163884838Y-55672419D02*
X164503885Y-55672419D01*
X165122933Y-54672419D02*
X165218171Y-54672419D01*
X165218171Y-54672419D02*
X165313409Y-54720038D01*
X165313409Y-54720038D02*
X165361028Y-54767657D01*
X165361028Y-54767657D02*
X165408647Y-54862895D01*
X165408647Y-54862895D02*
X165456266Y-55053371D01*
X165456266Y-55053371D02*
X165456266Y-55291466D01*
X165456266Y-55291466D02*
X165408647Y-55481942D01*
X165408647Y-55481942D02*
X165361028Y-55577180D01*
X165361028Y-55577180D02*
X165313409Y-55624800D01*
X165313409Y-55624800D02*
X165218171Y-55672419D01*
X165218171Y-55672419D02*
X165122933Y-55672419D01*
X165122933Y-55672419D02*
X165027695Y-55624800D01*
X165027695Y-55624800D02*
X164980076Y-55577180D01*
X164980076Y-55577180D02*
X164932457Y-55481942D01*
X164932457Y-55481942D02*
X164884838Y-55291466D01*
X164884838Y-55291466D02*
X164884838Y-55053371D01*
X164884838Y-55053371D02*
X164932457Y-54862895D01*
X164932457Y-54862895D02*
X164980076Y-54767657D01*
X164980076Y-54767657D02*
X165027695Y-54720038D01*
X165027695Y-54720038D02*
X165122933Y-54672419D01*
X165837219Y-54767657D02*
X165884838Y-54720038D01*
X165884838Y-54720038D02*
X165980076Y-54672419D01*
X165980076Y-54672419D02*
X166218171Y-54672419D01*
X166218171Y-54672419D02*
X166313409Y-54720038D01*
X166313409Y-54720038D02*
X166361028Y-54767657D01*
X166361028Y-54767657D02*
X166408647Y-54862895D01*
X166408647Y-54862895D02*
X166408647Y-54958133D01*
X166408647Y-54958133D02*
X166361028Y-55100990D01*
X166361028Y-55100990D02*
X165789600Y-55672419D01*
X165789600Y-55672419D02*
X166408647Y-55672419D01*
X167313409Y-54672419D02*
X166837219Y-54672419D01*
X166837219Y-54672419D02*
X166789600Y-55148609D01*
X166789600Y-55148609D02*
X166837219Y-55100990D01*
X166837219Y-55100990D02*
X166932457Y-55053371D01*
X166932457Y-55053371D02*
X167170552Y-55053371D01*
X167170552Y-55053371D02*
X167265790Y-55100990D01*
X167265790Y-55100990D02*
X167313409Y-55148609D01*
X167313409Y-55148609D02*
X167361028Y-55243847D01*
X167361028Y-55243847D02*
X167361028Y-55481942D01*
X167361028Y-55481942D02*
X167313409Y-55577180D01*
X167313409Y-55577180D02*
X167265790Y-55624800D01*
X167265790Y-55624800D02*
X167170552Y-55672419D01*
X167170552Y-55672419D02*
X166932457Y-55672419D01*
X166932457Y-55672419D02*
X166837219Y-55624800D01*
X166837219Y-55624800D02*
X166789600Y-55577180D01*
X168408648Y-54672419D02*
X168980076Y-54672419D01*
X168694362Y-55672419D02*
X168694362Y-54672419D01*
X169694362Y-55624800D02*
X169599124Y-55672419D01*
X169599124Y-55672419D02*
X169408648Y-55672419D01*
X169408648Y-55672419D02*
X169313410Y-55624800D01*
X169313410Y-55624800D02*
X169265791Y-55529561D01*
X169265791Y-55529561D02*
X169265791Y-55148609D01*
X169265791Y-55148609D02*
X169313410Y-55053371D01*
X169313410Y-55053371D02*
X169408648Y-55005752D01*
X169408648Y-55005752D02*
X169599124Y-55005752D01*
X169599124Y-55005752D02*
X169694362Y-55053371D01*
X169694362Y-55053371D02*
X169741981Y-55148609D01*
X169741981Y-55148609D02*
X169741981Y-55243847D01*
X169741981Y-55243847D02*
X169265791Y-55339085D01*
X170599124Y-55672419D02*
X170599124Y-55148609D01*
X170599124Y-55148609D02*
X170551505Y-55053371D01*
X170551505Y-55053371D02*
X170456267Y-55005752D01*
X170456267Y-55005752D02*
X170265791Y-55005752D01*
X170265791Y-55005752D02*
X170170553Y-55053371D01*
X170599124Y-55624800D02*
X170503886Y-55672419D01*
X170503886Y-55672419D02*
X170265791Y-55672419D01*
X170265791Y-55672419D02*
X170170553Y-55624800D01*
X170170553Y-55624800D02*
X170122934Y-55529561D01*
X170122934Y-55529561D02*
X170122934Y-55434323D01*
X170122934Y-55434323D02*
X170170553Y-55339085D01*
X170170553Y-55339085D02*
X170265791Y-55291466D01*
X170265791Y-55291466D02*
X170503886Y-55291466D01*
X170503886Y-55291466D02*
X170599124Y-55243847D01*
X171075315Y-55672419D02*
X171075315Y-55005752D01*
X171075315Y-55100990D02*
X171122934Y-55053371D01*
X171122934Y-55053371D02*
X171218172Y-55005752D01*
X171218172Y-55005752D02*
X171361029Y-55005752D01*
X171361029Y-55005752D02*
X171456267Y-55053371D01*
X171456267Y-55053371D02*
X171503886Y-55148609D01*
X171503886Y-55148609D02*
X171503886Y-55672419D01*
X171503886Y-55148609D02*
X171551505Y-55053371D01*
X171551505Y-55053371D02*
X171646743Y-55005752D01*
X171646743Y-55005752D02*
X171789600Y-55005752D01*
X171789600Y-55005752D02*
X171884839Y-55053371D01*
X171884839Y-55053371D02*
X171932458Y-55148609D01*
X171932458Y-55148609D02*
X171932458Y-55672419D01*
X173694362Y-55672419D02*
X173122934Y-55672419D01*
X173408648Y-55672419D02*
X173408648Y-54672419D01*
X173408648Y-54672419D02*
X173313410Y-54815276D01*
X173313410Y-54815276D02*
X173218172Y-54910514D01*
X173218172Y-54910514D02*
X173122934Y-54958133D01*
X174170553Y-55672419D02*
X174361029Y-55672419D01*
X174361029Y-55672419D02*
X174456267Y-55624800D01*
X174456267Y-55624800D02*
X174503886Y-55577180D01*
X174503886Y-55577180D02*
X174599124Y-55434323D01*
X174599124Y-55434323D02*
X174646743Y-55243847D01*
X174646743Y-55243847D02*
X174646743Y-54862895D01*
X174646743Y-54862895D02*
X174599124Y-54767657D01*
X174599124Y-54767657D02*
X174551505Y-54720038D01*
X174551505Y-54720038D02*
X174456267Y-54672419D01*
X174456267Y-54672419D02*
X174265791Y-54672419D01*
X174265791Y-54672419D02*
X174170553Y-54720038D01*
X174170553Y-54720038D02*
X174122934Y-54767657D01*
X174122934Y-54767657D02*
X174075315Y-54862895D01*
X174075315Y-54862895D02*
X174075315Y-55100990D01*
X174075315Y-55100990D02*
X174122934Y-55196228D01*
X174122934Y-55196228D02*
X174170553Y-55243847D01*
X174170553Y-55243847D02*
X174265791Y-55291466D01*
X174265791Y-55291466D02*
X174456267Y-55291466D01*
X174456267Y-55291466D02*
X174551505Y-55243847D01*
X174551505Y-55243847D02*
X174599124Y-55196228D01*
X174599124Y-55196228D02*
X174646743Y-55100990D01*
X121437217Y-59348609D02*
X121580074Y-59396228D01*
X121580074Y-59396228D02*
X121627693Y-59443847D01*
X121627693Y-59443847D02*
X121675312Y-59539085D01*
X121675312Y-59539085D02*
X121675312Y-59681942D01*
X121675312Y-59681942D02*
X121627693Y-59777180D01*
X121627693Y-59777180D02*
X121580074Y-59824800D01*
X121580074Y-59824800D02*
X121484836Y-59872419D01*
X121484836Y-59872419D02*
X121103884Y-59872419D01*
X121103884Y-59872419D02*
X121103884Y-58872419D01*
X121103884Y-58872419D02*
X121437217Y-58872419D01*
X121437217Y-58872419D02*
X121532455Y-58920038D01*
X121532455Y-58920038D02*
X121580074Y-58967657D01*
X121580074Y-58967657D02*
X121627693Y-59062895D01*
X121627693Y-59062895D02*
X121627693Y-59158133D01*
X121627693Y-59158133D02*
X121580074Y-59253371D01*
X121580074Y-59253371D02*
X121532455Y-59300990D01*
X121532455Y-59300990D02*
X121437217Y-59348609D01*
X121437217Y-59348609D02*
X121103884Y-59348609D01*
X122532455Y-59872419D02*
X122532455Y-59348609D01*
X122532455Y-59348609D02*
X122484836Y-59253371D01*
X122484836Y-59253371D02*
X122389598Y-59205752D01*
X122389598Y-59205752D02*
X122199122Y-59205752D01*
X122199122Y-59205752D02*
X122103884Y-59253371D01*
X122532455Y-59824800D02*
X122437217Y-59872419D01*
X122437217Y-59872419D02*
X122199122Y-59872419D01*
X122199122Y-59872419D02*
X122103884Y-59824800D01*
X122103884Y-59824800D02*
X122056265Y-59729561D01*
X122056265Y-59729561D02*
X122056265Y-59634323D01*
X122056265Y-59634323D02*
X122103884Y-59539085D01*
X122103884Y-59539085D02*
X122199122Y-59491466D01*
X122199122Y-59491466D02*
X122437217Y-59491466D01*
X122437217Y-59491466D02*
X122532455Y-59443847D01*
X123437217Y-59824800D02*
X123341979Y-59872419D01*
X123341979Y-59872419D02*
X123151503Y-59872419D01*
X123151503Y-59872419D02*
X123056265Y-59824800D01*
X123056265Y-59824800D02*
X123008646Y-59777180D01*
X123008646Y-59777180D02*
X122961027Y-59681942D01*
X122961027Y-59681942D02*
X122961027Y-59396228D01*
X122961027Y-59396228D02*
X123008646Y-59300990D01*
X123008646Y-59300990D02*
X123056265Y-59253371D01*
X123056265Y-59253371D02*
X123151503Y-59205752D01*
X123151503Y-59205752D02*
X123341979Y-59205752D01*
X123341979Y-59205752D02*
X123437217Y-59253371D01*
X123865789Y-59872419D02*
X123865789Y-58872419D01*
X123961027Y-59491466D02*
X124246741Y-59872419D01*
X124246741Y-59205752D02*
X123865789Y-59586704D01*
D11*
X176414767Y-90157201D02*
X176557624Y-90204820D01*
X176557624Y-90204820D02*
X176795719Y-90204820D01*
X176795719Y-90204820D02*
X176890957Y-90157201D01*
X176890957Y-90157201D02*
X176938576Y-90109581D01*
X176938576Y-90109581D02*
X176986195Y-90014343D01*
X176986195Y-90014343D02*
X176986195Y-89919105D01*
X176986195Y-89919105D02*
X176938576Y-89823867D01*
X176938576Y-89823867D02*
X176890957Y-89776248D01*
X176890957Y-89776248D02*
X176795719Y-89728629D01*
X176795719Y-89728629D02*
X176605243Y-89681010D01*
X176605243Y-89681010D02*
X176510005Y-89633391D01*
X176510005Y-89633391D02*
X176462386Y-89585772D01*
X176462386Y-89585772D02*
X176414767Y-89490534D01*
X176414767Y-89490534D02*
X176414767Y-89395296D01*
X176414767Y-89395296D02*
X176462386Y-89300058D01*
X176462386Y-89300058D02*
X176510005Y-89252439D01*
X176510005Y-89252439D02*
X176605243Y-89204820D01*
X176605243Y-89204820D02*
X176843338Y-89204820D01*
X176843338Y-89204820D02*
X176986195Y-89252439D01*
X177319529Y-89204820D02*
X177557624Y-90204820D01*
X177557624Y-90204820D02*
X177748100Y-89490534D01*
X177748100Y-89490534D02*
X177938576Y-90204820D01*
X177938576Y-90204820D02*
X178176672Y-89204820D01*
X178462386Y-89204820D02*
X179129052Y-89204820D01*
X179129052Y-89204820D02*
X178700481Y-90204820D01*
X174400000Y-84654819D02*
X174400000Y-84892914D01*
X174161905Y-84797676D02*
X174400000Y-84892914D01*
X174400000Y-84892914D02*
X174638095Y-84797676D01*
X174257143Y-85083390D02*
X174400000Y-84892914D01*
X174400000Y-84892914D02*
X174542857Y-85083390D01*
X136066667Y-66207200D02*
X136209524Y-66254819D01*
X136209524Y-66254819D02*
X136447619Y-66254819D01*
X136447619Y-66254819D02*
X136542857Y-66207200D01*
X136542857Y-66207200D02*
X136590476Y-66159580D01*
X136590476Y-66159580D02*
X136638095Y-66064342D01*
X136638095Y-66064342D02*
X136638095Y-65969104D01*
X136638095Y-65969104D02*
X136590476Y-65873866D01*
X136590476Y-65873866D02*
X136542857Y-65826247D01*
X136542857Y-65826247D02*
X136447619Y-65778628D01*
X136447619Y-65778628D02*
X136257143Y-65731009D01*
X136257143Y-65731009D02*
X136161905Y-65683390D01*
X136161905Y-65683390D02*
X136114286Y-65635771D01*
X136114286Y-65635771D02*
X136066667Y-65540533D01*
X136066667Y-65540533D02*
X136066667Y-65445295D01*
X136066667Y-65445295D02*
X136114286Y-65350057D01*
X136114286Y-65350057D02*
X136161905Y-65302438D01*
X136161905Y-65302438D02*
X136257143Y-65254819D01*
X136257143Y-65254819D02*
X136495238Y-65254819D01*
X136495238Y-65254819D02*
X136638095Y-65302438D01*
X136971429Y-65254819D02*
X137209524Y-66254819D01*
X137209524Y-66254819D02*
X137400000Y-65540533D01*
X137400000Y-65540533D02*
X137590476Y-66254819D01*
X137590476Y-66254819D02*
X137828572Y-65254819D01*
X138733333Y-66254819D02*
X138161905Y-66254819D01*
X138447619Y-66254819D02*
X138447619Y-65254819D01*
X138447619Y-65254819D02*
X138352381Y-65397676D01*
X138352381Y-65397676D02*
X138257143Y-65492914D01*
X138257143Y-65492914D02*
X138161905Y-65540533D01*
X188914767Y-77707202D02*
X189057624Y-77754821D01*
X189057624Y-77754821D02*
X189295719Y-77754821D01*
X189295719Y-77754821D02*
X189390957Y-77707202D01*
X189390957Y-77707202D02*
X189438576Y-77659582D01*
X189438576Y-77659582D02*
X189486195Y-77564344D01*
X189486195Y-77564344D02*
X189486195Y-77469106D01*
X189486195Y-77469106D02*
X189438576Y-77373868D01*
X189438576Y-77373868D02*
X189390957Y-77326249D01*
X189390957Y-77326249D02*
X189295719Y-77278630D01*
X189295719Y-77278630D02*
X189105243Y-77231011D01*
X189105243Y-77231011D02*
X189010005Y-77183392D01*
X189010005Y-77183392D02*
X188962386Y-77135773D01*
X188962386Y-77135773D02*
X188914767Y-77040535D01*
X188914767Y-77040535D02*
X188914767Y-76945297D01*
X188914767Y-76945297D02*
X188962386Y-76850059D01*
X188962386Y-76850059D02*
X189010005Y-76802440D01*
X189010005Y-76802440D02*
X189105243Y-76754821D01*
X189105243Y-76754821D02*
X189343338Y-76754821D01*
X189343338Y-76754821D02*
X189486195Y-76802440D01*
X189819529Y-76754821D02*
X190057624Y-77754821D01*
X190057624Y-77754821D02*
X190248100Y-77040535D01*
X190248100Y-77040535D02*
X190438576Y-77754821D01*
X190438576Y-77754821D02*
X190676672Y-76754821D01*
X191486195Y-76754821D02*
X191295719Y-76754821D01*
X191295719Y-76754821D02*
X191200481Y-76802440D01*
X191200481Y-76802440D02*
X191152862Y-76850059D01*
X191152862Y-76850059D02*
X191057624Y-76992916D01*
X191057624Y-76992916D02*
X191010005Y-77183392D01*
X191010005Y-77183392D02*
X191010005Y-77564344D01*
X191010005Y-77564344D02*
X191057624Y-77659582D01*
X191057624Y-77659582D02*
X191105243Y-77707202D01*
X191105243Y-77707202D02*
X191200481Y-77754821D01*
X191200481Y-77754821D02*
X191390957Y-77754821D01*
X191390957Y-77754821D02*
X191486195Y-77707202D01*
X191486195Y-77707202D02*
X191533814Y-77659582D01*
X191533814Y-77659582D02*
X191581433Y-77564344D01*
X191581433Y-77564344D02*
X191581433Y-77326249D01*
X191581433Y-77326249D02*
X191533814Y-77231011D01*
X191533814Y-77231011D02*
X191486195Y-77183392D01*
X191486195Y-77183392D02*
X191390957Y-77135773D01*
X191390957Y-77135773D02*
X191200481Y-77135773D01*
X191200481Y-77135773D02*
X191105243Y-77183392D01*
X191105243Y-77183392D02*
X191057624Y-77231011D01*
X191057624Y-77231011D02*
X191010005Y-77326249D01*
X186000000Y-72254819D02*
X186000000Y-72492914D01*
X185761905Y-72397676D02*
X186000000Y-72492914D01*
X186000000Y-72492914D02*
X186238095Y-72397676D01*
X185857143Y-72683390D02*
X186000000Y-72492914D01*
X186000000Y-72492914D02*
X186142857Y-72683390D01*
X176466667Y-65207200D02*
X176609524Y-65254819D01*
X176609524Y-65254819D02*
X176847619Y-65254819D01*
X176847619Y-65254819D02*
X176942857Y-65207200D01*
X176942857Y-65207200D02*
X176990476Y-65159580D01*
X176990476Y-65159580D02*
X177038095Y-65064342D01*
X177038095Y-65064342D02*
X177038095Y-64969104D01*
X177038095Y-64969104D02*
X176990476Y-64873866D01*
X176990476Y-64873866D02*
X176942857Y-64826247D01*
X176942857Y-64826247D02*
X176847619Y-64778628D01*
X176847619Y-64778628D02*
X176657143Y-64731009D01*
X176657143Y-64731009D02*
X176561905Y-64683390D01*
X176561905Y-64683390D02*
X176514286Y-64635771D01*
X176514286Y-64635771D02*
X176466667Y-64540533D01*
X176466667Y-64540533D02*
X176466667Y-64445295D01*
X176466667Y-64445295D02*
X176514286Y-64350057D01*
X176514286Y-64350057D02*
X176561905Y-64302438D01*
X176561905Y-64302438D02*
X176657143Y-64254819D01*
X176657143Y-64254819D02*
X176895238Y-64254819D01*
X176895238Y-64254819D02*
X177038095Y-64302438D01*
X177371429Y-64254819D02*
X177609524Y-65254819D01*
X177609524Y-65254819D02*
X177800000Y-64540533D01*
X177800000Y-64540533D02*
X177990476Y-65254819D01*
X177990476Y-65254819D02*
X178228572Y-64254819D01*
X179085714Y-64254819D02*
X178609524Y-64254819D01*
X178609524Y-64254819D02*
X178561905Y-64731009D01*
X178561905Y-64731009D02*
X178609524Y-64683390D01*
X178609524Y-64683390D02*
X178704762Y-64635771D01*
X178704762Y-64635771D02*
X178942857Y-64635771D01*
X178942857Y-64635771D02*
X179038095Y-64683390D01*
X179038095Y-64683390D02*
X179085714Y-64731009D01*
X179085714Y-64731009D02*
X179133333Y-64826247D01*
X179133333Y-64826247D02*
X179133333Y-65064342D01*
X179133333Y-65064342D02*
X179085714Y-65159580D01*
X179085714Y-65159580D02*
X179038095Y-65207200D01*
X179038095Y-65207200D02*
X178942857Y-65254819D01*
X178942857Y-65254819D02*
X178704762Y-65254819D01*
X178704762Y-65254819D02*
X178609524Y-65207200D01*
X178609524Y-65207200D02*
X178561905Y-65159580D01*
X173697900Y-59998218D02*
X173697900Y-60236313D01*
X173459805Y-60141075D02*
X173697900Y-60236313D01*
X173697900Y-60236313D02*
X173935995Y-60141075D01*
X173555043Y-60426789D02*
X173697900Y-60236313D01*
X173697900Y-60236313D02*
X173840757Y-60426789D01*
X194418567Y-55357201D02*
X194561424Y-55404820D01*
X194561424Y-55404820D02*
X194799519Y-55404820D01*
X194799519Y-55404820D02*
X194894757Y-55357201D01*
X194894757Y-55357201D02*
X194942376Y-55309581D01*
X194942376Y-55309581D02*
X194989995Y-55214343D01*
X194989995Y-55214343D02*
X194989995Y-55119105D01*
X194989995Y-55119105D02*
X194942376Y-55023867D01*
X194942376Y-55023867D02*
X194894757Y-54976248D01*
X194894757Y-54976248D02*
X194799519Y-54928629D01*
X194799519Y-54928629D02*
X194609043Y-54881010D01*
X194609043Y-54881010D02*
X194513805Y-54833391D01*
X194513805Y-54833391D02*
X194466186Y-54785772D01*
X194466186Y-54785772D02*
X194418567Y-54690534D01*
X194418567Y-54690534D02*
X194418567Y-54595296D01*
X194418567Y-54595296D02*
X194466186Y-54500058D01*
X194466186Y-54500058D02*
X194513805Y-54452439D01*
X194513805Y-54452439D02*
X194609043Y-54404820D01*
X194609043Y-54404820D02*
X194847138Y-54404820D01*
X194847138Y-54404820D02*
X194989995Y-54452439D01*
X195323329Y-54404820D02*
X195561424Y-55404820D01*
X195561424Y-55404820D02*
X195751900Y-54690534D01*
X195751900Y-54690534D02*
X195942376Y-55404820D01*
X195942376Y-55404820D02*
X196180472Y-54404820D01*
X196466186Y-54404820D02*
X197085233Y-54404820D01*
X197085233Y-54404820D02*
X196751900Y-54785772D01*
X196751900Y-54785772D02*
X196894757Y-54785772D01*
X196894757Y-54785772D02*
X196989995Y-54833391D01*
X196989995Y-54833391D02*
X197037614Y-54881010D01*
X197037614Y-54881010D02*
X197085233Y-54976248D01*
X197085233Y-54976248D02*
X197085233Y-55214343D01*
X197085233Y-55214343D02*
X197037614Y-55309581D01*
X197037614Y-55309581D02*
X196989995Y-55357201D01*
X196989995Y-55357201D02*
X196894757Y-55404820D01*
X196894757Y-55404820D02*
X196609043Y-55404820D01*
X196609043Y-55404820D02*
X196513805Y-55357201D01*
X196513805Y-55357201D02*
X196466186Y-55309581D01*
X192200000Y-50654819D02*
X192200000Y-50892914D01*
X191961905Y-50797676D02*
X192200000Y-50892914D01*
X192200000Y-50892914D02*
X192438095Y-50797676D01*
X192057143Y-51083390D02*
X192200000Y-50892914D01*
X192200000Y-50892914D02*
X192342857Y-51083390D01*
X142166667Y-55307200D02*
X142309524Y-55354819D01*
X142309524Y-55354819D02*
X142547619Y-55354819D01*
X142547619Y-55354819D02*
X142642857Y-55307200D01*
X142642857Y-55307200D02*
X142690476Y-55259580D01*
X142690476Y-55259580D02*
X142738095Y-55164342D01*
X142738095Y-55164342D02*
X142738095Y-55069104D01*
X142738095Y-55069104D02*
X142690476Y-54973866D01*
X142690476Y-54973866D02*
X142642857Y-54926247D01*
X142642857Y-54926247D02*
X142547619Y-54878628D01*
X142547619Y-54878628D02*
X142357143Y-54831009D01*
X142357143Y-54831009D02*
X142261905Y-54783390D01*
X142261905Y-54783390D02*
X142214286Y-54735771D01*
X142214286Y-54735771D02*
X142166667Y-54640533D01*
X142166667Y-54640533D02*
X142166667Y-54545295D01*
X142166667Y-54545295D02*
X142214286Y-54450057D01*
X142214286Y-54450057D02*
X142261905Y-54402438D01*
X142261905Y-54402438D02*
X142357143Y-54354819D01*
X142357143Y-54354819D02*
X142595238Y-54354819D01*
X142595238Y-54354819D02*
X142738095Y-54402438D01*
X143071429Y-54354819D02*
X143309524Y-55354819D01*
X143309524Y-55354819D02*
X143500000Y-54640533D01*
X143500000Y-54640533D02*
X143690476Y-55354819D01*
X143690476Y-55354819D02*
X143928572Y-54354819D01*
X144261905Y-54450057D02*
X144309524Y-54402438D01*
X144309524Y-54402438D02*
X144404762Y-54354819D01*
X144404762Y-54354819D02*
X144642857Y-54354819D01*
X144642857Y-54354819D02*
X144738095Y-54402438D01*
X144738095Y-54402438D02*
X144785714Y-54450057D01*
X144785714Y-54450057D02*
X144833333Y-54545295D01*
X144833333Y-54545295D02*
X144833333Y-54640533D01*
X144833333Y-54640533D02*
X144785714Y-54783390D01*
X144785714Y-54783390D02*
X144214286Y-55354819D01*
X144214286Y-55354819D02*
X144833333Y-55354819D01*
X140200000Y-50654819D02*
X140200000Y-50892914D01*
X139961905Y-50797676D02*
X140200000Y-50892914D01*
X140200000Y-50892914D02*
X140438095Y-50797676D01*
X140057143Y-51083390D02*
X140200000Y-50892914D01*
X140200000Y-50892914D02*
X140342857Y-51083390D01*
X121766667Y-55357199D02*
X121909524Y-55404818D01*
X121909524Y-55404818D02*
X122147619Y-55404818D01*
X122147619Y-55404818D02*
X122242857Y-55357199D01*
X122242857Y-55357199D02*
X122290476Y-55309579D01*
X122290476Y-55309579D02*
X122338095Y-55214341D01*
X122338095Y-55214341D02*
X122338095Y-55119103D01*
X122338095Y-55119103D02*
X122290476Y-55023865D01*
X122290476Y-55023865D02*
X122242857Y-54976246D01*
X122242857Y-54976246D02*
X122147619Y-54928627D01*
X122147619Y-54928627D02*
X121957143Y-54881008D01*
X121957143Y-54881008D02*
X121861905Y-54833389D01*
X121861905Y-54833389D02*
X121814286Y-54785770D01*
X121814286Y-54785770D02*
X121766667Y-54690532D01*
X121766667Y-54690532D02*
X121766667Y-54595294D01*
X121766667Y-54595294D02*
X121814286Y-54500056D01*
X121814286Y-54500056D02*
X121861905Y-54452437D01*
X121861905Y-54452437D02*
X121957143Y-54404818D01*
X121957143Y-54404818D02*
X122195238Y-54404818D01*
X122195238Y-54404818D02*
X122338095Y-54452437D01*
X122671429Y-54404818D02*
X122909524Y-55404818D01*
X122909524Y-55404818D02*
X123100000Y-54690532D01*
X123100000Y-54690532D02*
X123290476Y-55404818D01*
X123290476Y-55404818D02*
X123528572Y-54404818D01*
X124338095Y-54738151D02*
X124338095Y-55404818D01*
X124100000Y-54357199D02*
X123861905Y-55071484D01*
X123861905Y-55071484D02*
X124480952Y-55071484D01*
X120000000Y-50854819D02*
X120000000Y-51092914D01*
X119761905Y-50997676D02*
X120000000Y-51092914D01*
X120000000Y-51092914D02*
X120238095Y-50997676D01*
X119857143Y-51283390D02*
X120000000Y-51092914D01*
X120000000Y-51092914D02*
X120142857Y-51283390D01*
X163966667Y-77607200D02*
X164109524Y-77654819D01*
X164109524Y-77654819D02*
X164347619Y-77654819D01*
X164347619Y-77654819D02*
X164442857Y-77607200D01*
X164442857Y-77607200D02*
X164490476Y-77559580D01*
X164490476Y-77559580D02*
X164538095Y-77464342D01*
X164538095Y-77464342D02*
X164538095Y-77369104D01*
X164538095Y-77369104D02*
X164490476Y-77273866D01*
X164490476Y-77273866D02*
X164442857Y-77226247D01*
X164442857Y-77226247D02*
X164347619Y-77178628D01*
X164347619Y-77178628D02*
X164157143Y-77131009D01*
X164157143Y-77131009D02*
X164061905Y-77083390D01*
X164061905Y-77083390D02*
X164014286Y-77035771D01*
X164014286Y-77035771D02*
X163966667Y-76940533D01*
X163966667Y-76940533D02*
X163966667Y-76845295D01*
X163966667Y-76845295D02*
X164014286Y-76750057D01*
X164014286Y-76750057D02*
X164061905Y-76702438D01*
X164061905Y-76702438D02*
X164157143Y-76654819D01*
X164157143Y-76654819D02*
X164395238Y-76654819D01*
X164395238Y-76654819D02*
X164538095Y-76702438D01*
X164871429Y-76654819D02*
X165109524Y-77654819D01*
X165109524Y-77654819D02*
X165300000Y-76940533D01*
X165300000Y-76940533D02*
X165490476Y-77654819D01*
X165490476Y-77654819D02*
X165728572Y-76654819D01*
X166252381Y-77083390D02*
X166157143Y-77035771D01*
X166157143Y-77035771D02*
X166109524Y-76988152D01*
X166109524Y-76988152D02*
X166061905Y-76892914D01*
X166061905Y-76892914D02*
X166061905Y-76845295D01*
X166061905Y-76845295D02*
X166109524Y-76750057D01*
X166109524Y-76750057D02*
X166157143Y-76702438D01*
X166157143Y-76702438D02*
X166252381Y-76654819D01*
X166252381Y-76654819D02*
X166442857Y-76654819D01*
X166442857Y-76654819D02*
X166538095Y-76702438D01*
X166538095Y-76702438D02*
X166585714Y-76750057D01*
X166585714Y-76750057D02*
X166633333Y-76845295D01*
X166633333Y-76845295D02*
X166633333Y-76892914D01*
X166633333Y-76892914D02*
X166585714Y-76988152D01*
X166585714Y-76988152D02*
X166538095Y-77035771D01*
X166538095Y-77035771D02*
X166442857Y-77083390D01*
X166442857Y-77083390D02*
X166252381Y-77083390D01*
X166252381Y-77083390D02*
X166157143Y-77131009D01*
X166157143Y-77131009D02*
X166109524Y-77178628D01*
X166109524Y-77178628D02*
X166061905Y-77273866D01*
X166061905Y-77273866D02*
X166061905Y-77464342D01*
X166061905Y-77464342D02*
X166109524Y-77559580D01*
X166109524Y-77559580D02*
X166157143Y-77607200D01*
X166157143Y-77607200D02*
X166252381Y-77654819D01*
X166252381Y-77654819D02*
X166442857Y-77654819D01*
X166442857Y-77654819D02*
X166538095Y-77607200D01*
X166538095Y-77607200D02*
X166585714Y-77559580D01*
X166585714Y-77559580D02*
X166633333Y-77464342D01*
X166633333Y-77464342D02*
X166633333Y-77273866D01*
X166633333Y-77273866D02*
X166585714Y-77178628D01*
X166585714Y-77178628D02*
X166538095Y-77131009D01*
X166538095Y-77131009D02*
X166442857Y-77083390D01*
X161197900Y-72398218D02*
X161197900Y-72636313D01*
X160959805Y-72541075D02*
X161197900Y-72636313D01*
X161197900Y-72636313D02*
X161435995Y-72541075D01*
X161055043Y-72826789D02*
X161197900Y-72636313D01*
X161197900Y-72636313D02*
X161340757Y-72826789D01*
D12*
%TO.C,SW7*%
X174623900Y-88264540D02*
X174623900Y-91235462D01*
X174623900Y-92874201D02*
X180872300Y-92874201D01*
X180872300Y-86625801D02*
X174623900Y-86625801D01*
X180872300Y-91235462D02*
X180872300Y-88264540D01*
X179500700Y-89750001D02*
G75*
G02*
X175995500Y-89750001I-1752600J0D01*
G01*
X175995500Y-89750001D02*
G75*
G02*
X179500700Y-89750001I1752600J0D01*
G01*
%TO.C,SW1*%
X131320201Y-68706951D02*
X131320201Y-73545150D01*
X131320201Y-77545150D02*
X131320201Y-82372150D01*
X131320201Y-82372150D02*
X134025248Y-82372150D01*
X134225373Y-68706951D02*
X131320201Y-68706951D01*
X136264353Y-82372150D02*
X139025249Y-82372150D01*
X136725373Y-68706951D02*
X136064228Y-68706951D01*
X139225373Y-68706951D02*
X138564228Y-68706951D01*
X141264353Y-82372150D02*
X143969401Y-82372150D01*
X143969401Y-68706951D02*
X141064228Y-68706951D01*
X143969401Y-73545150D02*
X143969401Y-68706951D01*
X143969401Y-82372150D02*
X143969401Y-77545150D01*
D13*
X146128401Y-82545150D02*
G75*
G02*
X145366401Y-82545150I-381000J0D01*
G01*
X145366401Y-82545150D02*
G75*
G02*
X146128401Y-82545150I381000J0D01*
G01*
D12*
%TO.C,SW6*%
X187123900Y-75814541D02*
X187123900Y-78785463D01*
X187123900Y-80424202D02*
X193372300Y-80424202D01*
X193372300Y-74175802D02*
X187123900Y-74175802D01*
X193372300Y-78785463D02*
X193372300Y-75814541D01*
X192000700Y-77300002D02*
G75*
G02*
X188495500Y-77300002I-1752600J0D01*
G01*
X188495500Y-77300002D02*
G75*
G02*
X192000700Y-77300002I1752600J0D01*
G01*
%TO.C,SW5*%
X174675800Y-63314539D02*
X174675800Y-66285461D01*
X174675800Y-67924200D02*
X180924200Y-67924200D01*
X180924200Y-61675800D02*
X174675800Y-61675800D01*
X180924200Y-66285461D02*
X180924200Y-63314539D01*
X179552600Y-64800000D02*
G75*
G02*
X176047400Y-64800000I-1752600J0D01*
G01*
X176047400Y-64800000D02*
G75*
G02*
X179552600Y-64800000I1752600J0D01*
G01*
%TO.C,SW3*%
X192627700Y-53464540D02*
X192627700Y-56435462D01*
X192627700Y-58074201D02*
X198876100Y-58074201D01*
X198876100Y-51825801D02*
X192627700Y-51825801D01*
X198876100Y-56435462D02*
X198876100Y-53464540D01*
X197504500Y-54950001D02*
G75*
G02*
X193999300Y-54950001I-1752600J0D01*
G01*
X193999300Y-54950001D02*
G75*
G02*
X197504500Y-54950001I1752600J0D01*
G01*
%TO.C,SW2*%
X140375800Y-53414539D02*
X140375800Y-56385461D01*
X140375800Y-58024200D02*
X146624200Y-58024200D01*
X146624200Y-51775800D02*
X140375800Y-51775800D01*
X146624200Y-56385461D02*
X146624200Y-53414539D01*
X145252600Y-54900000D02*
G75*
G02*
X141747400Y-54900000I-1752600J0D01*
G01*
X141747400Y-54900000D02*
G75*
G02*
X145252600Y-54900000I1752600J0D01*
G01*
%TO.C,SW4*%
X119975800Y-53464538D02*
X119975800Y-56435460D01*
X119975800Y-58074199D02*
X126224200Y-58074199D01*
X126224200Y-51825799D02*
X119975800Y-51825799D01*
X126224200Y-56435460D02*
X126224200Y-53464538D01*
X124852600Y-54949999D02*
G75*
G02*
X121347400Y-54949999I-1752600J0D01*
G01*
X121347400Y-54949999D02*
G75*
G02*
X124852600Y-54949999I1752600J0D01*
G01*
%TO.C,SW8*%
X162175800Y-75714539D02*
X162175800Y-78685461D01*
X162175800Y-80324200D02*
X168424200Y-80324200D01*
X168424200Y-74075800D02*
X162175800Y-74075800D01*
X168424200Y-78685461D02*
X168424200Y-75714539D01*
X167052600Y-77200000D02*
G75*
G02*
X163547400Y-77200000I-1752600J0D01*
G01*
X163547400Y-77200000D02*
G75*
G02*
X167052600Y-77200000I1752600J0D01*
G01*
D13*
%TO.C,J1*%
X121794300Y-89700000D02*
G75*
G02*
X121032300Y-89700000I-381000J0D01*
G01*
X121032300Y-89700000D02*
G75*
G02*
X121794300Y-89700000I381000J0D01*
G01*
%TD*%
M02*
