M48
; DRILL file {KiCad 9.0.0} date 2025-03-23T02:30:16-0500
; FORMAT={-:-/ absolute / metric / decimal}
; #@! TF.CreationDate,2025-03-23T02:30:16-05:00
; #@! TF.GenerationSoftware,Kicad,Pcbnew,9.0.0
; #@! TF.FileFunction,Plated,1,2,PTH
FMAT,2
METRIC
; #@! TA.AperFunction,Plated,PTH,ViaDrill
T1C0.300
; #@! TA.AperFunction,Plated,PTH,ComponentDrill
T2C1.067
; #@! TA.AperFunction,Plated,PTH,ComponentDrill
T3C1.092
; #@! TA.AperFunction,Plated,PTH,ComponentDrill
T4C2.800
%
G90
G05
T1
X126.948Y-52.7
X126.948Y-57.2
X129.0Y-52.6
X134.512Y-61.4
X135.2Y-75.6
X137.688Y-52.6
X139.652Y-52.65
X139.652Y-57.15
X140.2Y-75.572
X140.688Y-61.6
X144.312Y-84.8
X147.4Y-52.6
X159.487Y-75.0
X161.401Y-75.001
X161.452Y-79.45
X171.887Y-87.4
X172.088Y-62.6
X173.8Y-87.6
X173.9Y-92.0
X173.952Y-62.55
X173.952Y-67.05
X181.4Y-87.6
X184.487Y-75.0
X186.4Y-75.05
X186.4Y-79.55
X190.087Y-52.8
X191.904Y-57.2
X192.0Y-52.7
X194.2Y-75.2
T2
X125.5Y-89.7
X128.5Y-89.7
X131.5Y-89.7
X134.5Y-89.7
X137.5Y-89.7
X140.5Y-89.7
X143.5Y-89.7
X146.5Y-89.7
X149.5Y-89.7
X152.5Y-89.7
X155.5Y-89.7
X158.5Y-89.7
T3
X135.145Y-68.045
X135.145Y-82.545
X137.645Y-68.045
X140.145Y-68.045
X140.145Y-82.545
T4
G00X132.945Y-75.545
M15
G01X130.945Y-75.545
M16
G05
G00X144.345Y-75.545
M15
G01X142.345Y-75.545
M16
G05
M30
