%TF.GenerationSoftware,KiCad,Pcbnew,9.0.0*%
%TF.CreationDate,2025-03-23T02:30:14-05:00*%
%TF.ProjectId,IOBoardV1,494f426f-6172-4645-9631-2e6b69636164,rev?*%
%TF.SameCoordinates,Original*%
%TF.FileFunction,Paste,Bot*%
%TF.FilePolarity,Positive*%
%FSLAX46Y46*%
G04 Gerber Fmt 4.6, Leading zero omitted, Abs format (unit mm)*
G04 Created by KiCad (PCBNEW 9.0.0) date 2025-03-23 02:30:14*
%MOMM*%
%LPD*%
G01*
G04 APERTURE LIST*
G04 Aperture macros list*
%AMRoundRect*
0 Rectangle with rounded corners*
0 $1 Rounding radius*
0 $2 $3 $4 $5 $6 $7 $8 $9 X,Y pos of 4 corners*
0 Add a 4 corners polygon primitive as box body*
4,1,4,$2,$3,$4,$5,$6,$7,$8,$9,$2,$3,0*
0 Add four circle primitives for the rounded corners*
1,1,$1+$1,$2,$3*
1,1,$1+$1,$4,$5*
1,1,$1+$1,$6,$7*
1,1,$1+$1,$8,$9*
0 Add four rect primitives between the rounded corners*
20,1,$1+$1,$2,$3,$4,$5,0*
20,1,$1+$1,$4,$5,$6,$7,0*
20,1,$1+$1,$6,$7,$8,$9,0*
20,1,$1+$1,$8,$9,$2,$3,0*%
G04 Aperture macros list end*
%ADD10RoundRect,0.237500X0.300000X0.237500X-0.300000X0.237500X-0.300000X-0.237500X0.300000X-0.237500X0*%
%ADD11RoundRect,0.237500X-0.250000X-0.237500X0.250000X-0.237500X0.250000X0.237500X-0.250000X0.237500X0*%
%ADD12RoundRect,0.237500X0.250000X0.237500X-0.250000X0.237500X-0.250000X-0.237500X0.250000X-0.237500X0*%
G04 APERTURE END LIST*
D10*
%TO.C,C1*%
X136362500Y-65500000D03*
X134637500Y-65500000D03*
%TD*%
D11*
%TO.C,R3*%
X140687500Y-61600000D03*
X142512500Y-61600000D03*
%TD*%
D12*
%TO.C,R1*%
X134512500Y-63200000D03*
X132687500Y-63200000D03*
%TD*%
D11*
%TO.C,R19*%
X171887500Y-92200000D03*
X173712500Y-92200000D03*
%TD*%
%TO.C,R15*%
X189887500Y-57200000D03*
X191712500Y-57200000D03*
%TD*%
D12*
%TO.C,R7*%
X139512500Y-52600000D03*
X137687500Y-52600000D03*
%TD*%
D11*
%TO.C,R2*%
X132687500Y-61400000D03*
X134512500Y-61400000D03*
%TD*%
%TO.C,R17*%
X171887500Y-67000000D03*
X173712500Y-67000000D03*
%TD*%
%TO.C,R6*%
X131687500Y-85000000D03*
X133512500Y-85000000D03*
%TD*%
D12*
%TO.C,R4*%
X142512500Y-63400000D03*
X140687500Y-63400000D03*
%TD*%
%TO.C,R11*%
X186312500Y-75000000D03*
X184487500Y-75000000D03*
%TD*%
%TO.C,R16*%
X128912500Y-57200000D03*
X127087500Y-57200000D03*
%TD*%
D11*
%TO.C,R20*%
X159487500Y-79600000D03*
X161312500Y-79600000D03*
%TD*%
D12*
%TO.C,R12*%
X173712500Y-87400000D03*
X171887500Y-87400000D03*
%TD*%
%TO.C,R13*%
X161312500Y-75000000D03*
X159487500Y-75000000D03*
%TD*%
%TO.C,R8*%
X191912500Y-52800000D03*
X190087500Y-52800000D03*
%TD*%
D11*
%TO.C,R9*%
X127175000Y-52600000D03*
X129000000Y-52600000D03*
%TD*%
D10*
%TO.C,C2*%
X140612500Y-65500000D03*
X138887500Y-65500000D03*
%TD*%
D12*
%TO.C,R10*%
X173912500Y-62600000D03*
X172087500Y-62600000D03*
%TD*%
%TO.C,R5*%
X144312500Y-84800000D03*
X142487500Y-84800000D03*
%TD*%
D11*
%TO.C,R18*%
X184600000Y-79600000D03*
X186425000Y-79600000D03*
%TD*%
%TO.C,R14*%
X137687500Y-57200000D03*
X139512500Y-57200000D03*
%TD*%
M02*
